<?xml version="1.0" encoding="UTF-8" standalone="no"?>
<svg
   xmlns:dc="http://purl.org/dc/elements/1.1/"
   xmlns:cc="http://creativecommons.org/ns#"
   xmlns:rdf="http://www.w3.org/1999/02/22-rdf-syntax-ns#"
   xmlns:svg="http://www.w3.org/2000/svg"
   xmlns="http://www.w3.org/2000/svg"
   xmlns:sodipodi="http://sodipodi.sourceforge.net/DTD/sodipodi-0.dtd"
   xmlns:inkscape="http://www.inkscape.org/namespaces/inkscape"
   height="300"
   width="300"
   version="1.1"
   viewBox="0 0 299.99999 300.00001"
   id="svg476"
   sodipodi:docname="Eintracht_Frankfurt_Logo.svg"
   inkscape:version="0.92.4 (5da689c313, 2019-01-14)">
  <metadata
     id="metadata482">
    <rdf:RDF>
      <cc:Work
         rdf:about="">
        <dc:format>image/svg+xml</dc:format>
        <dc:type
           rdf:resource="http://purl.org/dc/dcmitype/StillImage" />
      </cc:Work>
    </rdf:RDF>
  </metadata>
  <defs
     id="defs480" />
  <sodipodi:namedview
     pagecolor="#ffffff"
     bordercolor="#666666"
     borderopacity="1"
     objecttolerance="10"
     gridtolerance="10"
     guidetolerance="10"
     inkscape:pageopacity="0"
     inkscape:pageshadow="2"
     inkscape:window-width="1366"
     inkscape:window-height="705"
     id="namedview478"
     showgrid="false"
     inkscape:zoom="0.95890922"
     inkscape:cx="18.527348"
     inkscape:cy="21.753507"
     inkscape:window-x="-8"
     inkscape:window-y="-8"
     inkscape:window-maximized="1"
     inkscape:current-layer="svg476" />
  <path
     d="M 150.00007,2.4719529 A 147.52792,147.52792 0 1 0 297.52799,149.99987 147.52936,147.52936 0 0 0 150.00007,2.4719529"
     id="path456"
     inkscape:connector-curvature="0"
     style="fill:#ffffff;stroke-width:6.89543915" />
  <circle
     cx="150"
     cy="150"
     r="147.52798"
     id="circle458"
     style="fill:none;stroke:#e1000f;stroke-width:4.94402981" />
  <circle
     cx="150.00172"
     cy="149.99704"
     r="126.81056"
     id="circle460"
     style="fill:none;stroke:#e1000f;stroke-width:23.32037354" />
  <path
     d="m 206.96405,156.15136 a 99.319075,99.319075 0 0 0 36.80785,8.26763 c 13.43921,0.46889 18.7487,-7.89528 14.32183,-9.33643 -1.76523,-0.57921 -40.12456,-11.42574 -40.12456,-11.42574 0,0 -4.74406,-1.85487 -1.19291,-2.23412 a 115.05619,115.05619 0 0 0 26.29921,-3.00641 c 8.309,-3.39945 9.77083,-10.90169 7.83321,-10.79826 -16.69385,0.86883 -32.3534,0.55853 -33.34634,0.44779 l -0.28961,-0.0414 c 0,0 -1.84108,-0.62059 -0.19307,-2.07553 1.8204,-1.60015 13.84604,-11.6326 16.39046,-14.19081 6.61962,-6.66789 2.1169,-16.397357 1.01363,-15.349247 a 126.1515,126.1515 0 0 1 -26.18198,18.845237 c -0.84814,0.15859 -0.6137,-1.8273 0.0552,-3.26155 a 43.612479,43.612479 0 0 0 5.67495,-10.35005 c 3.22706,-12.080807 2.4065,-19.693367 -4.41308,-22.589457 -1.23429,-0.53095 -1.69628,0.1586 -3.29602,3.90972 -1.59975,3.74422 -2.22723,10.30178 -8.32969,12.8462 -3.11674,1.30324 -8.88823,6.633407 -8.97787,8.757207 -0.0827,2.13069 1.19291,5.46118 -0.4551,6.59203 -1.30323,0.90331 -3.51667,-0.68264 -5.46118,0.93089 -1.93762,1.60664 -7.57809,7.30227 -9.54329,8.771 -1.9652,1.46873 -5.87491,3.83386 -8.3159,2.48236 -5.37155,-5.28881 -2.76507,-20.84457 -2.76507,-20.84457 a 12.162175,12.162175 0 0 0 3.82007,0.10343 6.4633707,6.4633707 0 0 0 5.02678,-8.088347 6.0391633,6.0391633 0 0 1 -4.53031,2.00657 c -2.19275,0.20687 -2.75817,-0.68954 -3.24085,-2.63405 a 9.5910039,9.5910039 0 0 1 0.15859,-6.25417 c 0.93778,-3.25465 4.2407,-4.8406 6.11626,-6.3507 1.88245,-1.5101 0.8964,-7.19884 0.8964,-7.19884 a 10.1907,10.1907 0 0 1 -2.05484,2.91678 c -1.8066,1.69627 -4.27517,1.21359 -9.53639,0.88261 a 10.908033,10.908033 0 0 1 -8.27453,-3.3305 c -0.82055,-1.01363 -7.72289,-0.26202 -9.70877,-0.17238 a 76.342094,76.342094 0 0 0 -13.57712,2.8754 48.281105,48.281105 0 0 0 -8.66067,3.96487 c -1.15844,0.96537 -0.7585,1.8204 -0.7585,1.8204 l 1.0619,2.86161 a 29.210872,29.210872 0 0 1 7.74357,-3.76491 c 3.85455,-1.02742 4.30965,0.73091 4.79923,2.38582 a 23.337337,23.337337 0 0 1 0.88951,3.6339 42.447771,42.447771 0 0 1 -12.27388,0.82745 c -5.96456,-0.32409 -6.30933,-2.95125 -6.22658,-4.48893 0.0345,-0.55164 -1.73765,0.0276 -2.41341,1.53768 -1.1998,2.66853 -1.55147,7.16436 10.70173,6.99198 a 32.956337,32.956337 0 0 0 10.83273,-2.39962 c 0.95847,3.22707 -0.13791,3.75112 -1.5101,3.98557 a 15.373864,15.373864 0 0 1 -8.93649,-0.51716 c 0,0 -0.82745,2.65474 -0.22065,3.10984 a 22.114776,22.114776 0 0 0 11.99116,2.58579 c 1.28256,-0.11033 2.29619,-0.93778 2.98573,-0.35167 a 11.847192,11.847192 0 0 1 1.72386,4.606157 c 0.11033,0.99294 -0.18618,1.68938 -3.15811,1.61318 -2.97194,-0.0762 -4.10968,0.0345 -3.98557,0.6068 a 34.367902,34.367902 0 0 0 3.86835,3.64079 c 0.55163,0.57922 3.61321,-2.61337 3.61321,-2.61337 a 3.8829596,3.8829596 0 0 0 0.0965,1.71697 c 0.24824,1.28255 1.10327,11.41195 -5.19226,14.33562 -2.44099,1.3515 -6.34381,-1.01363 -8.3159,-2.48236 -1.9652,-1.46873 -7.59878,-7.16436 -9.54329,-8.771 -1.93762,-1.61353 -4.15795,-0.0276 -5.46119,-0.93089 -1.64801,-1.13085 -0.37235,-4.46134 -0.4551,-6.59203 -0.0896,-2.1238 -5.86112,-7.453967 -8.97786,-8.757207 -6.102462,-2.54442 -6.723052,-9.10198 -8.329689,-12.8462 -1.599742,-3.75112 -2.061736,-4.44067 -3.29602,-3.90972 -6.819589,2.89609 -7.640146,10.50865 -4.413081,22.589457 a 43.857819,43.857819 0 0 0 5.674946,10.35005 c 0.668858,1.43425 0.903303,3.42014 0.05516,3.26155 A 126.34147,126.34147 0 0 1 65.297264,96.408833 c -1.10327,-1.04811 -5.605992,8.681357 1.01363,15.349247 2.544417,2.55821 14.570062,12.59107 16.390458,14.19081 1.64801,1.45494 -0.193072,2.07553 -0.193072,2.07553 l -0.289609,0.0414 c -0.992943,0.11067 -16.652485,0.42062 -33.339447,-0.44779 -1.944514,-0.10343 -0.482681,7.39881 7.826323,10.79826 a 115.09598,115.09598 0 0 0 26.299205,3.00641 c 3.558046,0.37925 -1.192911,2.23412 -1.192911,2.23412 0,0 -38.352432,10.84653 -40.12456,11.42574 -4.426871,1.44115 0.882617,9.80532 14.321827,9.33643 a 99.277772,99.277772 0 0 0 36.807853,-8.26763 c 4.86818,-1.85488 1.972096,1.56561 0.930884,2.28929 -7.212629,5.07504 -28.443685,19.5003 -38.483444,25.95443 -1.434252,0.92399 -1.641115,1.95141 -0.01379,3.68216 7.8608,8.35727 22.748053,-1.21359 28.636758,-4.48893 6.860961,-3.82697 23.216941,-16.1698 24.485711,-14.82519 0.49647,0.52405 -0.44821,5.1371 -10.522447,15.93536 a 35.387393,35.387393 0 0 0 3.371877,2.88229 c 0,0 -4.826815,5.84044 -8.12973,9.44675 -1.33082,1.46184 -4.440663,4.55099 -5.281907,4.3924 -0.848139,-0.16549 -5.192265,-4.86129 -6.674784,-4.94403 -0.923989,-0.0483 -2.930562,1.39288 -4.426872,0.54474 a 8.7296257,8.7296257 0 0 0 -5.97145,0.83434 c -2.296182,1.0688 -1.868664,6.46793 -1.241179,4.07521 0.63438,-2.39272 5.212951,-2.31687 7.502237,0.33788 a 11.263562,11.263562 0 0 0 4.337231,2.80644 c 1.413565,0.31719 2.110005,0.7585 1.530788,1.17222 a 35.736854,35.736854 0 0 0 -7.488447,3.55116 c -0.668858,1.13085 -0.310295,1.54457 -0.572321,2.11 -3.495988,1.23428 -4.316545,2.30997 -3.233961,5.80596 a 11.54,11.54 0 0 0 1.130852,2.59268 c 0.510262,-0.94467 0.255131,-4.02693 3.544255,-4.75095 0.344772,-0.0759 0.930885,0.41372 1.544579,0.41372 a 18.910397,18.910397 0 0 0 7.191942,-3.97867 c 0.875721,-1.11016 0.668858,0.64128 0.09654,1.70318 -2.765071,5.10262 -1.737651,8.22626 -1.496311,8.3159 0.634381,0.23444 0.979153,-0.23445 1.399774,0.7447 a 12.539769,12.539769 0 0 0 5.902496,7.12299 17.3934,17.3934 0 0 1 -1.523892,-7.73668 c 0.517158,-0.26203 0.923989,0.10343 1.544579,-0.26203 a 8.1215859,8.1215859 0 0 0 1.337715,-4.10968 c -0.08964,-2.13069 -1.248075,-2.78575 -1.220493,-4.06141 a 6.2771249,6.2771249 0 0 1 0.923989,-2.66854 23.662181,23.662181 0 0 0 2.723698,4.17864 c 2.558208,2.70301 2.096214,3.3236 4.771644,2.24102 0.537844,-0.22066 4.109678,5.64047 4.109678,5.64047 a 10.391013,10.391013 0 0 0 0.70334,-5.36465 c -0.25513,-0.99984 -1.23429,-1.44805 -1.91693,-2.31687 -0.68955,-0.86883 1.21359,-1.9721 0.2896,-3.35808 -5.164679,-4.93714 -5.64736,-3.24775 -6.971284,-6.46792 -0.896407,-2.17207 0.848139,-3.64769 2.654744,-5.81975 4.52341,-5.4543 4.67511,-5.40603 7.35054,-8.59172 1.11706,0.73781 1.75144,1.44115 3.29602,2.572 5.03367,-7.4057 9.35021,-14.08049 14.07359,-15.82503 4.71648,-1.73765 6.84717,1.02052 6.72305,3.88213 -0.22755,5.05436 -10.35005,15.91467 -10.35005,15.91467 a 88.403389,88.403389 0 0 0 -9.86738,11.1913 v 0 a 13.463276,13.463276 0 0 0 -1.62732,4.66821 22.267165,22.267165 0 0 0 0.44131,6.75064 v 0.007 c 0.38614,2.11 0.84124,3.75801 0.84124,3.75801 0,0 1.517,-5.41947 1.85488,-6.07488 0.95846,-1.84798 1.16532,0 2.60647,3.63389 a 55.964555,55.964555 0 0 0 4.47514,8.21937 l -0.0414,-9.29505 c 0.1448,-2.40651 0.31029,-5.64737 1.39288,-3.24086 a 79.45966,79.45966 0 0 0 4.58546,7.59188 c 0,0 0.0483,-1.89625 0.19308,-4.17864 h -0.0276 l 0.0276,-0.007 a 54.029901,54.029901 0 0 1 2.63405,-11.37747 l -0.0414,-0.007 0.0414,-0.007 c 0.73782,-1.3653 4.02005,-7.09541 8.00561,-7.69531 3.97867,-0.6068 4.32344,6.4886 4.04762,8.01939 a 36.704421,36.704421 0 0 1 -2.18585,7.48886 c -0.37925,0.7585 -3.50978,6.6541 -3.90972,7.77806 a 15.636097,15.636097 0 0 0 4.63374,18.49356 39.991753,39.991753 0 0 1 2.40651,-10.72275 c 0.79987,-1.17222 1.91693,-1.9372 2.73749,-0.77918 a 67.204672,67.204672 0 0 0 7.254,10.95685 v 0.007 h 0.0138 v -0.007 a 67.200052,67.200052 0 0 0 7.254,-10.95685 c 0.82056,-1.15844 1.93762,-0.39304 2.73749,0.77918 a 39.975411,39.975411 0 0 1 2.40651,10.72275 15.635822,15.635822 0 0 0 4.63373,-18.49356 c -0.39993,-1.12396 -3.53046,-7.01956 -3.90282,-7.77806 a 36.629606,36.629606 0 0 1 -2.19275,-7.48886 c -0.27581,-1.53079 0.069,-8.62619 4.04763,-8.01939 3.98556,0.5999 7.26779,6.33001 8.0056,7.69531 l 0.0483,0.007 -0.0483,0.007 a 54.43949,54.43949 0 0 1 2.64096,11.37747 l 0.0276,0.007 h -0.0276 c 0.1379,2.28239 0.18617,4.17864 0.18617,4.17864 a 78.040923,78.040923 0 0 0 4.58547,-7.59188 c 1.08258,-2.40651 1.24807,0.83435 1.39977,3.24086 l -0.0483,9.29505 a 55.277148,55.277148 0 0 0 4.47513,-8.21937 c 1.44115,-3.63389 1.64801,-5.48187 2.60648,-3.63389 0.33788,0.65506 1.85487,6.07488 1.85487,6.07488 0,0 0.4551,-1.64801 0.84125,-3.75801 v -0.007 a 22.260408,22.260408 0 0 0 0.44131,-6.75064 13.458931,13.458931 0 0 0 -1.62733,-4.66821 v 0 a 87.82431,87.82431 0 0 0 -9.86737,-11.1913 c 0,0 -10.12251,-10.86031 -10.34316,-15.91467 -0.13101,-2.86161 1.99968,-5.61978 6.71616,-3.88213 4.72337,1.74454 9.03992,8.41933 14.08048,15.82503 1.53769,-1.13085 2.17207,-1.83419 3.28913,-2.572 2.67543,3.18569 2.82713,3.13742 7.35054,8.59172 1.8066,2.17206 3.55115,3.64768 2.66164,5.81975 -1.33082,3.22017 -1.8135,1.53078 -6.97819,6.46792 -0.92399,1.38598 0.97915,2.48925 0.28961,3.35808 -0.68265,0.86882 -1.6618,1.31703 -1.91693,2.31687 a 10.390254,10.390254 0 0 0 0.70333,5.36465 c 0,0 3.57184,-5.86113 4.10968,-5.64047 2.67543,1.08258 2.21344,0.46199 4.77165,-2.24102 a 23.656458,23.656458 0 0 0 2.7237,-4.17864 6.2771249,6.2771249 0 0 1 0.92399,2.66854 c 0.0345,1.27566 -1.13086,1.93072 -1.2205,4.06141 a 8.1236545,8.1236545 0 0 0 1.33772,4.10968 c 0.62059,0.36546 1.03431,0 1.54458,0.26203 a 17.390297,17.390297 0 0 1 -1.5239,7.73668 12.541562,12.541562 0 0 0 5.9025,-7.12299 c 0.42062,-0.97915 0.76539,-0.51026 1.39977,-0.7447 0.24134,-0.0896 1.26876,-3.21328 -1.49631,-8.3159 -0.57232,-1.0619 -0.77918,-2.81334 0.10344,-1.70318 a 18.830892,18.830892 0 0 0 7.18504,3.97867 c 0.62059,0 1.19981,-0.48957 1.54458,-0.41372 3.28913,0.72402 3.03399,3.80628 3.55115,4.75095 a 12.025646,12.025646 0 0 0 1.13085,-2.59268 c 1.07569,-3.49599 0.25514,-4.57168 -3.24085,-5.80596 -0.26203,-0.56543 0.10343,-0.97915 -0.56543,-2.11 a 35.737819,35.737819 0 0 0 -7.49534,-3.55116 c -0.57232,-0.41372 0.12412,-0.85503 1.53079,-1.17222 a 11.209639,11.209639 0 0 0 4.33723,-2.80644 c 2.29618,-2.65475 6.87475,-2.7306 7.50224,-0.33788 0.62748,2.39272 1.055,-3.00641 -1.24118,-4.07521 a 8.7296257,8.7296257 0 0 0 -5.97145,-0.83434 c -1.49631,0.84814 -3.49599,-0.59301 -4.42688,-0.54474 -1.48251,0.0828 -5.82664,4.77854 -6.66788,4.94403 -0.84814,0.15859 -3.95109,-2.93056 -5.28881,-4.3924 -3.30291,-3.60631 -8.12972,-9.44675 -8.12972,-9.44675 a 36.014878,36.014878 0 0 0 3.37877,-2.88229 c -10.08114,-10.79826 -11.02581,-15.41131 -10.52934,-15.93536 1.26876,-1.34461 17.62474,10.99822 24.4926,14.82519 5.88181,3.27534 20.76906,12.8462 28.62986,4.48893 1.62733,-1.73075 1.42736,-2.75817 -0.0138,-3.68216 -10.03976,-6.45413 -31.27081,-20.87939 -38.48344,-25.95443 -1.03432,-0.72403 -3.9304,-4.14417 0.93088,-2.28929"
     id="path462"
     inkscape:connector-curvature="0"
     style="fill:#e1000f;fill-rule:evenodd;stroke-width:6.89543915" />
  <path
     d="m 168.51433,52.348183 c -0.14481,0.007 -10.94996,4.63415 -11.92222,5.36465 -1.87556,-1.61353 -7.35054,-6.48171 -7.97113,-7.03335 v -0.0552 l -0.0276,0.0276 -0.0276,-0.0276 v 0.0556 c -0.62059,0.55163 -6.08867,5.41947 -7.96423,7.03334 -0.97226,-0.73091 -11.78431,-5.35775 -11.92911,-5.36465 0,0 3.04089,4.54451 4.92334,7.66083 a 14.009739,14.009739 0 0 1 1.50321,7.54361 h 26.98875 a 14.008567,14.008567 0 0 1 1.5032,-7.54361 c 1.88246,-3.11673 4.92335,-7.66083 4.92335,-7.66083"
     id="path464"
     inkscape:connector-curvature="0"
     style="fill:#e1000f;stroke-width:6.89543915" />
  <path
     d="m 139.75352,81.199253 a 11.775134,11.775134 0 0 1 8.26073,-0.77229 l -6.97128,5.61978 a 36.183747,36.183747 0 0 1 -1.28945,-4.84749"
     id="path466"
     inkscape:connector-curvature="0"
     style="fill:#ffffff;stroke-width:6.89543915" />
  <path
     d="m 170.26846,144.64452 c 6.17831,-1.08947 14.21839,-3.06812 22.71357,-17.9553 -8.05387,-1.5239 -9.41227,-5.57841 -9.41227,-5.57841 l 0.007,-0.0138 a 12.977216,12.977216 0 0 1 10.48107,3.68906 c 0.33788,-10.34315 6.39207,-12.00495 6.39207,-12.00495 l 0.0138,0.007 c 0,0 2.56511,5.73046 -5.22674,12.57728 a 12.977216,12.977216 0 0 1 9.54329,5.7508 l -0.007,0.0138 c 0,0 -4.06831,1.46183 -10.28799,-3.72354 -9.26058,16.88045 -19.32792,20.52807 -24.21678,20.52807 a 18.041709,18.041709 0 0 0 0,-3.28947"
     id="path468"
     inkscape:connector-curvature="0"
     style="fill:#ffffff;stroke-width:6.89543915" />
  <path
     d="m 136.10652,134.25082 a 117.78699,117.78699 0 0 0 1.93072,18.07295 67.101792,67.101792 0 0 0 8.39865,23.1342 35.325334,35.325334 0 0 0 3.42703,4.77164 v 0.0621 l 0.0276,-0.0341 0.0276,0.0341 0.007,-0.0686 a 35.931305,35.931305 0 0 0 3.42014,-4.76475 67.110618,67.110618 0 0 0 8.39864,-23.1342 117.78699,117.78699 0 0 0 1.93073,-18.07294 c -0.0965,0.0965 -27.47143,0.0965 -27.56797,0"
     id="path470"
     inkscape:connector-curvature="0"
     style="fill:#ffffff;fill-rule:evenodd;stroke-width:6.89543915" />
  <path
     d="m 129.51303,144.64452 c -6.17831,-1.08947 -14.21839,-3.06812 -22.71357,-17.9553 8.05387,-1.5239 9.41227,-5.57841 9.41227,-5.57841 l -0.007,-0.0138 a 12.977216,12.977216 0 0 0 -10.48107,3.68906 c -0.33788,-10.34315 -6.392073,-12.00495 -6.392073,-12.00495 l -0.01379,0.007 c 0,0 -2.565103,5.73046 5.226743,12.57728 a 12.977216,12.977216 0 0 0 -9.543288,5.7508 l 0.0069,0.0138 c 0,0 4.068309,1.46183 10.287988,-3.72354 9.26058,16.88045 19.32792,20.52807 24.21678,20.52807 a 17.997923,17.997923 0 0 1 0,-3.28947"
     id="path472"
     inkscape:connector-curvature="0"
     style="fill:#ffffff;stroke-width:6.89543915" />
  <polygon
     points="21.552,22.235 22.701,22.235 22.701,21.712 21.552,21.712 21.552,20.872 22.693,20.872 22.693,20.349 20.777,20.349 20.777,23.754 22.84,23.754 22.84,23.23 21.552,23.23 "
     id="polygon474"
     transform="matrix(6.8954389,0,0,6.8954389,2.3343271e-6,-5.71492e-5)"
     style="fill:#e1000f" />
</svg>
