<?xml version="1.0" encoding="UTF-8" standalone="no"?><!-- Generator: Gravit.io --><svg xmlns="http://www.w3.org/2000/svg" xmlns:xlink="http://www.w3.org/1999/xlink" style="isolation:isolate" viewBox="0 0 512 512" width="512pt" height="512pt"><defs><clipPath id="_clipPath_2xQtinIWwePCuXptatC7F7LSbNFv0OCw"><rect width="512" height="512"/></clipPath></defs><g clip-path="url(#_clipPath_2xQtinIWwePCuXptatC7F7LSbNFv0OCw)"><clipPath id="_clipPath_N9NeK2F7GWl26szfg42Hm5gjF1fyJFGL"><circle vector-effect="non-scaling-stroke" cx="255.99999999999994" cy="255.99999999999994" r="255.99999999999994" fill="rgb(255,255,255)"/></clipPath><g clip-path="url(#_clipPath_N9NeK2F7GWl26szfg42Hm5gjF1fyJFGL)"><rect x="0" y="0" width="512" height="512" transform="matrix(1,0,0,1,0,0)" fill="rgb(15,32,75)"/><g><rect x="0" y="75.2" width="512" height="361.582" transform="matrix(1,0,0,1,0,0)" fill="rgb(15,32,75)"/><g><g><path d=" M 418.712 122.206 L 412.902 140.088 L 421.843 142.993 L 418.712 122.206 Z " fill="rgb(255,182,18)"/><path d=" M 418.712 122.206 L 424.522 140.088 L 415.581 142.993 L 418.712 122.206 Z " fill="rgb(255,182,18)"/></g><g><path d=" M 436.594 135.198 L 417.792 135.198 L 417.792 144.599 L 436.594 135.198 Z " fill="rgb(255,182,18)"/><path d=" M 436.594 135.198 L 421.383 146.249 L 415.857 138.644 L 436.594 135.198 Z " fill="rgb(255,182,18)"/></g><g><path d=" M 400.83 135.198 L 416.041 146.249 L 421.567 138.644 L 400.83 135.198 Z " fill="rgb(255,182,18)"/><path d=" M 400.83 135.198 L 419.632 135.198 L 419.632 144.599 L 400.83 135.198 Z " fill="rgb(255,182,18)"/></g><g><path d=" M 429.764 156.219 L 423.953 138.337 L 415.012 141.242 L 429.764 156.219 Z " fill="rgb(255,182,18)"/><path d=" M 429.764 156.219 L 414.552 145.168 L 420.078 137.562 L 429.764 156.219 Z " fill="rgb(255,182,18)"/></g><g><path d=" M 407.66 156.219 L 422.872 145.168 L 417.346 137.562 L 407.66 156.219 Z " fill="rgb(255,182,18)"/><path d=" M 407.66 156.219 L 413.47 138.337 L 422.411 141.242 L 407.66 156.219 Z " fill="rgb(255,182,18)"/></g></g><g><g><path d=" M 82.802 207.177 L 79.338 217.838 L 84.669 219.57 L 82.802 207.177 Z " fill="rgb(255,182,18)"/><path d=" M 82.802 207.177 L 86.266 217.838 L 80.936 219.57 L 82.802 207.177 Z " fill="rgb(255,182,18)"/></g><g><path d=" M 93.463 214.923 L 82.254 214.923 L 82.254 220.527 L 93.463 214.923 Z " fill="rgb(255,182,18)"/><path d=" M 93.463 214.923 L 84.394 221.511 L 81.1 216.977 L 93.463 214.923 Z " fill="rgb(255,182,18)"/></g><g><path d=" M 72.142 214.923 L 81.21 221.511 L 84.504 216.977 L 72.142 214.923 Z " fill="rgb(255,182,18)"/><path d=" M 72.142 214.923 L 83.351 214.923 L 83.351 220.527 L 72.142 214.923 Z " fill="rgb(255,182,18)"/></g><g><path d=" M 89.391 227.455 L 85.927 216.794 L 80.597 218.526 L 89.391 227.455 Z " fill="rgb(255,182,18)"/><path d=" M 89.391 227.455 L 80.322 220.866 L 83.617 216.332 L 89.391 227.455 Z " fill="rgb(255,182,18)"/></g><g><path d=" M 76.214 227.455 L 85.282 220.866 L 81.988 216.332 L 76.214 227.455 Z " fill="rgb(255,182,18)"/><path d=" M 76.214 227.455 L 79.678 216.794 L 85.008 218.526 L 76.214 227.455 Z " fill="rgb(255,182,18)"/></g></g><g><g><path d=" M 143.186 229.595 L 139.723 240.256 L 145.053 241.988 L 143.186 229.595 Z " fill="rgb(255,182,18)"/><path d=" M 143.186 229.595 L 146.65 240.256 L 141.32 241.988 L 143.186 229.595 Z " fill="rgb(255,182,18)"/></g><g><path d=" M 153.847 237.341 L 142.638 237.341 L 142.638 242.945 L 153.847 237.341 Z " fill="rgb(255,182,18)"/><path d=" M 153.847 237.341 L 144.779 243.929 L 141.484 239.395 L 153.847 237.341 Z " fill="rgb(255,182,18)"/></g><g><path d=" M 132.526 237.341 L 141.594 243.929 L 144.889 239.395 L 132.526 237.341 Z " fill="rgb(255,182,18)"/><path d=" M 132.526 237.341 L 143.735 237.341 L 143.735 242.945 L 132.526 237.341 Z " fill="rgb(255,182,18)"/></g><g><path d=" M 149.775 249.873 L 146.311 239.212 L 140.981 240.944 L 149.775 249.873 Z " fill="rgb(255,182,18)"/><path d=" M 149.775 249.873 L 140.707 243.284 L 144.001 238.75 L 149.775 249.873 Z " fill="rgb(255,182,18)"/></g><g><path d=" M 136.598 249.873 L 145.666 243.284 L 142.372 238.75 L 136.598 249.873 Z " fill="rgb(255,182,18)"/><path d=" M 136.598 249.873 L 140.062 239.212 L 145.392 240.944 L 136.598 249.873 Z " fill="rgb(255,182,18)"/></g></g><g><g><path d=" M 173.198 261.776 L 169.734 272.437 L 175.064 274.169 L 173.198 261.776 Z " fill="rgb(255,182,18)"/><path d=" M 173.198 261.776 L 176.662 272.437 L 171.331 274.169 L 173.198 261.776 Z " fill="rgb(255,182,18)"/></g><g><path d=" M 183.858 269.522 L 172.649 269.522 L 172.649 275.126 L 183.858 269.522 Z " fill="rgb(255,182,18)"/><path d=" M 183.858 269.522 L 174.79 276.11 L 171.496 271.576 L 183.858 269.522 Z " fill="rgb(255,182,18)"/></g><g><path d=" M 162.537 269.522 L 171.606 276.11 L 174.9 271.576 L 162.537 269.522 Z " fill="rgb(255,182,18)"/><path d=" M 162.537 269.522 L 173.746 269.522 L 173.746 275.126 L 162.537 269.522 Z " fill="rgb(255,182,18)"/></g><g><path d=" M 179.786 282.054 L 176.322 271.393 L 170.992 273.125 L 179.786 282.054 Z " fill="rgb(255,182,18)"/><path d=" M 179.786 282.054 L 170.718 275.465 L 174.012 270.931 L 179.786 282.054 Z " fill="rgb(255,182,18)"/></g><g><path d=" M 166.609 282.054 L 175.678 275.465 L 172.383 270.931 L 166.609 282.054 Z " fill="rgb(255,182,18)"/><path d=" M 166.609 282.054 L 170.073 271.393 L 175.403 273.125 L 166.609 282.054 Z " fill="rgb(255,182,18)"/></g></g><g><g><path d=" M 203.571 295.403 L 200.107 306.064 L 205.437 307.796 L 203.571 295.403 Z " fill="rgb(255,182,18)"/><path d=" M 203.571 295.403 L 207.034 306.064 L 201.704 307.796 L 203.571 295.403 Z " fill="rgb(255,182,18)"/></g><g><path d=" M 214.231 303.149 L 203.022 303.149 L 203.022 308.753 L 214.231 303.149 Z " fill="rgb(255,182,18)"/><path d=" M 214.231 303.149 L 205.163 309.737 L 201.868 305.203 L 214.231 303.149 Z " fill="rgb(255,182,18)"/></g><g><path d=" M 192.91 303.149 L 201.978 309.737 L 205.273 305.203 L 192.91 303.149 Z " fill="rgb(255,182,18)"/><path d=" M 192.91 303.149 L 204.119 303.149 L 204.119 308.753 L 192.91 303.149 Z " fill="rgb(255,182,18)"/></g><g><path d=" M 210.159 315.681 L 206.695 305.02 L 201.365 306.752 L 210.159 315.681 Z " fill="rgb(255,182,18)"/><path d=" M 210.159 315.681 L 201.091 309.092 L 204.385 304.558 L 210.159 315.681 Z " fill="rgb(255,182,18)"/></g><g><path d=" M 196.982 315.681 L 206.05 309.092 L 202.756 304.558 L 196.982 315.681 Z " fill="rgb(255,182,18)"/><path d=" M 196.982 315.681 L 200.446 305.02 L 205.776 306.752 L 196.982 315.681 Z " fill="rgb(255,182,18)"/></g></g><g><g><path d=" M 293.966 327.584 L 290.502 338.245 L 295.833 339.977 L 293.966 327.584 Z " fill="rgb(255,182,18)"/><path d=" M 293.966 327.584 L 297.43 338.245 L 292.1 339.977 L 293.966 327.584 Z " fill="rgb(255,182,18)"/></g><g><path d=" M 304.627 335.329 L 293.417 335.329 L 293.417 340.934 L 304.627 335.329 Z " fill="rgb(255,182,18)"/><path d=" M 304.627 335.329 L 295.558 341.918 L 292.264 337.384 L 304.627 335.329 Z " fill="rgb(255,182,18)"/></g><g><path d=" M 283.306 335.329 L 292.374 341.918 L 295.668 337.384 L 283.306 335.329 Z " fill="rgb(255,182,18)"/><path d=" M 283.306 335.329 L 294.515 335.329 L 294.515 340.934 L 283.306 335.329 Z " fill="rgb(255,182,18)"/></g><g><path d=" M 300.555 347.862 L 297.091 337.201 L 291.761 338.933 L 300.555 347.862 Z " fill="rgb(255,182,18)"/><path d=" M 300.555 347.862 L 291.486 341.273 L 294.781 336.739 L 300.555 347.862 Z " fill="rgb(255,182,18)"/></g><g><path d=" M 287.378 347.862 L 296.446 341.273 L 293.152 336.739 L 287.378 347.862 Z " fill="rgb(255,182,18)"/><path d=" M 287.378 347.862 L 290.841 337.201 L 296.172 338.933 L 287.378 347.862 Z " fill="rgb(255,182,18)"/></g></g><g><g><path d=" M 199.593 342.771 L 196.129 353.431 L 201.46 355.163 L 199.593 342.771 Z " fill="rgb(255,182,18)"/><path d=" M 199.593 342.771 L 203.057 353.431 L 197.727 355.163 L 199.593 342.771 Z " fill="rgb(255,182,18)"/></g><g><path d=" M 210.254 350.516 L 199.045 350.516 L 199.045 356.12 L 210.254 350.516 Z " fill="rgb(255,182,18)"/><path d=" M 210.254 350.516 L 201.185 357.104 L 197.891 352.57 L 210.254 350.516 Z " fill="rgb(255,182,18)"/></g><g><path d=" M 188.933 350.516 L 198.001 357.104 L 201.295 352.57 L 188.933 350.516 Z " fill="rgb(255,182,18)"/><path d=" M 188.933 350.516 L 200.142 350.516 L 200.142 356.12 L 188.933 350.516 Z " fill="rgb(255,182,18)"/></g><g><path d=" M 206.182 363.048 L 202.718 352.388 L 197.388 354.119 L 206.182 363.048 Z " fill="rgb(255,182,18)"/><path d=" M 206.182 363.048 L 197.113 356.459 L 200.408 351.925 L 206.182 363.048 Z " fill="rgb(255,182,18)"/></g><g><path d=" M 193.005 363.048 L 202.073 356.459 L 198.779 351.925 L 193.005 363.048 Z " fill="rgb(255,182,18)"/><path d=" M 193.005 363.048 L 196.468 352.388 L 201.799 354.119 L 193.005 363.048 Z " fill="rgb(255,182,18)"/></g></g><g><g><path d=" M 267.571 365.189 L 264.107 375.849 L 269.437 377.581 L 267.571 365.189 Z " fill="rgb(255,182,18)"/><path d=" M 267.571 365.189 L 271.034 375.849 L 265.704 377.581 L 267.571 365.189 Z " fill="rgb(255,182,18)"/></g><g><path d=" M 278.231 372.934 L 267.022 372.934 L 267.022 378.538 L 278.231 372.934 Z " fill="rgb(255,182,18)"/><path d=" M 278.231 372.934 L 269.163 379.522 L 265.868 374.988 L 278.231 372.934 Z " fill="rgb(255,182,18)"/></g><g><path d=" M 256.91 372.934 L 265.978 379.522 L 269.273 374.988 L 256.91 372.934 Z " fill="rgb(255,182,18)"/><path d=" M 256.91 372.934 L 268.119 372.934 L 268.119 378.538 L 256.91 372.934 Z " fill="rgb(255,182,18)"/></g><g><path d=" M 274.159 385.466 L 270.695 374.806 L 265.365 376.538 L 274.159 385.466 Z " fill="rgb(255,182,18)"/><path d=" M 274.159 385.466 L 265.091 378.878 L 268.385 374.343 L 274.159 385.466 Z " fill="rgb(255,182,18)"/></g><g><path d=" M 260.982 385.466 L 270.05 378.878 L 266.756 374.343 L 260.982 385.466 Z " fill="rgb(255,182,18)"/><path d=" M 260.982 385.466 L 264.446 374.806 L 269.776 376.538 L 260.982 385.466 Z " fill="rgb(255,182,18)"/></g></g></g></g></g></svg>