<?xml version="1.0" encoding="UTF-8" standalone="no"?><!-- Generator: Gravit.io --><svg xmlns="http://www.w3.org/2000/svg" xmlns:xlink="http://www.w3.org/1999/xlink" style="isolation:isolate" viewBox="0 0 512 512" width="512pt" height="512pt"><defs><clipPath id="_clipPath_soBcAB4ThC3PHgGouXd8mISh3Zqkhw2D"><rect width="512" height="512"/></clipPath></defs><g clip-path="url(#_clipPath_soBcAB4ThC3PHgGouXd8mISh3Zqkhw2D)"><clipPath id="_clipPath_0JhI7mTZU4FSIHk1R77GF1PER6ntPWUm"><circle vector-effect="non-scaling-stroke" cx="255.99999999999994" cy="255.99999999999994" r="255.99999999999994" fill="rgb(255,255,255)"/></clipPath><g clip-path="url(#_clipPath_0JhI7mTZU4FSIHk1R77GF1PER6ntPWUm)"><g><path d=" M -128 0 L 640 0 L 640 512 L -128 512 L -128 0 Z " fill="rgb(0,40,104)"/><path d=" M -128 0 L 640 0 L 640 256 L -128 256 L -128 0 Z " fill="rgb(191,10,48)"/><path d=" M -128 166.682 L 256 256 L -128 60.006 L -128 166.682 Z " fill="rgb(255,0,255)"/><path d=" M -128 166.682 L 256 256 L -128 60.006 L -128 166.682 Z " fill="rgb(254,215,0)"/><path d=" M -39.987 0 L 256 256 L 70.682 0 L -39.987 0 Z " fill="rgb(254,215,0)"/><path d=" M 156.006 0 L 256 256 L 219.981 0 L 156.006 0 Z " fill="rgb(254,215,0)"/><path d=" M 640 166.682 L 256 256 L 640 60.006 L 640 166.682 Z " fill="rgb(254,215,0)"/><path d=" M 551.987 0 L 256 256 L 441.318 0 L 551.987 0 Z " fill="rgb(254,215,0)"/><path d=" M 355.994 0 L 256 256 L 292.019 0 L 355.994 0 Z " fill="rgb(254,215,0)"/><path d=" M 256 126.838 L 339.227 382.984 L 121.337 224.677 L 390.664 224.677 L 172.774 382.984 L 256 126.838 Z " fill="rgb(206,92,23)"/></g></g></g></svg>