<?xml version="1.0" encoding="UTF-8" standalone="no"?><!-- Generator: Gravit.io --><svg xmlns="http://www.w3.org/2000/svg" xmlns:xlink="http://www.w3.org/1999/xlink" style="isolation:isolate" viewBox="0 0 512 512" width="512pt" height="512pt"><defs><clipPath id="_clipPath_qNRhCIlVTjMx5UT7x74xbokWqWAUP3TI"><rect width="512" height="512"/></clipPath></defs><g clip-path="url(#_clipPath_qNRhCIlVTjMx5UT7x74xbokWqWAUP3TI)"><clipPath id="_clipPath_qs6ACz85cze2cBrm3hiicm5gOxmI4dRI"><circle vector-effect="non-scaling-stroke" cx="255.99999999999994" cy="255.99999999999994" r="255.99999999999994" fill="rgb(255,255,255)"/></clipPath><g clip-path="url(#_clipPath_qs6ACz85cze2cBrm3hiicm5gOxmI4dRI)"><g><rect x="0" y="0" width="512" height="512" transform="matrix(1,0,0,1,0,0)" fill="rgb(191,10,48)"/><g><path d=" M 42.667 254.681 L 255.118 398.222 L 469.333 254.402 L 255.118 113.778 L 42.667 254.681 Z " fill="rgb(0,40,104)"/><path d=" M 95.573 255.008 L 255.337 362.951 L 416.427 254.798 L 255.337 149.049 L 95.573 255.008 Z " fill="rgb(255,255,255)"/><path d=" M 168.591 250.327 L 177.505 250.327 L 179.052 255.305 L 184.535 255.305 L 176.025 231.153 L 170.205 231.153 L 161.594 255.305 L 166.909 255.305 L 168.591 250.327 Z  M 173.031 236.602 L 173.098 236.602 L 176.092 246.156 L 169.936 246.156 L 173.031 236.602 Z  M 187.787 255.305 L 192.732 255.305 L 192.732 245.853 L 197.946 245.853 C 199.743 245.838 200.866 246.188 201.314 246.904 C 201.762 247.62 201.951 248.795 201.882 250.428 C 201.883 251.649 201.931 252.63 202.024 253.371 C 202.118 254.113 202.25 254.757 202.42 255.305 L 208.004 255.305 L 208.004 254.666 C 207.488 254.51 207.174 254.099 207.062 253.434 C 206.95 252.769 206.905 251.576 206.927 249.856 C 206.924 247.683 206.662 246.209 206.141 245.433 C 205.62 244.656 204.862 244.09 203.866 243.734 C 205.067 243.307 205.988 242.58 206.629 241.551 C 207.27 240.523 207.594 239.333 207.6 237.982 C 207.625 237.241 207.444 236.342 207.057 235.284 C 206.67 234.227 205.925 233.285 204.824 232.46 C 203.723 231.634 202.114 231.199 199.998 231.153 L 187.787 231.153 L 187.787 255.305 Z  M 192.732 241.783 L 192.732 235.324 L 199.022 235.324 C 200.464 235.376 201.423 235.743 201.898 236.426 C 202.373 237.108 202.592 237.795 202.554 238.486 C 202.556 239.668 202.233 240.516 201.587 241.03 C 200.941 241.544 199.963 241.795 198.652 241.783 L 192.732 241.783 Z  M 217.512 247.131 L 219.867 244.709 L 227.335 255.305 L 233.827 255.305 L 223.399 241.043 L 233.255 231.153 L 226.729 231.153 L 217.512 240.975 L 217.512 231.153 L 212.466 231.153 L 212.466 255.305 L 217.512 255.305 L 217.512 247.131 Z  M 241.519 250.327 L 250.433 250.327 L 251.981 255.305 L 257.464 255.305 L 248.953 231.153 L 243.134 231.153 L 234.522 255.305 L 239.837 255.305 L 241.519 250.327 Z  M 245.959 236.602 L 246.027 236.602 L 249.02 246.156 L 242.864 246.156 L 245.959 236.602 Z  M 275.449 247.972 L 275.382 247.972 L 265.795 231.153 L 260.48 231.153 L 260.48 255.305 L 265.189 255.305 L 265.189 238.082 L 265.257 238.082 L 275.113 255.305 L 280.158 255.305 L 280.158 231.153 L 275.449 231.153 L 275.449 247.972 Z  M 283.78 247.871 C 283.744 248.913 283.984 250.055 284.499 251.295 C 285.014 252.535 286.019 253.609 287.513 254.517 C 289.007 255.424 291.205 255.9 294.107 255.945 C 294.892 255.982 296.029 255.837 297.517 255.51 C 299.006 255.183 300.377 254.452 301.63 253.318 C 302.883 252.184 303.549 250.425 303.627 248.039 C 303.569 245.921 302.928 244.397 301.701 243.469 C 300.475 242.54 299.009 241.9 297.303 241.547 L 291.416 240.101 C 290.868 240.01 290.316 239.796 289.759 239.457 C 289.203 239.119 288.903 238.492 288.86 237.578 C 288.915 236.501 289.376 235.745 290.243 235.311 C 291.11 234.878 292.05 234.669 293.064 234.685 C 295.19 234.769 296.548 235.24 297.139 236.098 C 297.73 236.956 298.02 237.696 298.009 238.318 L 302.853 238.318 C 302.863 237.29 302.593 236.177 302.041 234.979 C 301.489 233.781 300.528 232.748 299.158 231.879 C 297.788 231.011 295.88 230.555 293.434 230.514 C 290.852 230.556 288.889 230.999 287.544 231.843 C 286.199 232.687 285.29 233.681 284.815 234.825 C 284.341 235.968 284.12 237.009 284.15 237.948 C 284.226 240.512 285.016 242.246 286.522 243.149 C 288.027 244.053 289.793 244.685 291.82 245.046 L 294.41 245.651 C 295.711 245.923 296.759 246.262 297.555 246.669 C 298.351 247.075 298.761 247.734 298.783 248.645 C 298.722 249.894 298.18 250.735 297.156 251.168 C 296.132 251.601 294.992 251.803 293.737 251.773 C 291.598 251.695 290.2 251.213 289.541 250.327 C 288.882 249.441 288.576 248.623 288.624 247.871 L 283.78 247.871 Z  M 312.608 250.327 L 321.522 250.327 L 323.069 255.305 L 328.552 255.305 L 320.042 231.153 L 314.222 231.153 L 305.611 255.305 L 310.926 255.305 L 312.608 250.327 Z  M 317.048 236.602 L 317.115 236.602 L 320.109 246.156 L 313.953 246.156 L 317.048 236.602 Z  M 330.559 247.871 C 330.524 248.913 330.763 250.055 331.278 251.295 C 331.793 252.535 332.798 253.609 334.292 254.517 C 335.786 255.424 337.984 255.9 340.886 255.945 C 341.671 255.982 342.808 255.837 344.296 255.51 C 345.785 255.183 347.156 254.452 348.409 253.318 C 349.662 252.184 350.328 250.425 350.406 248.039 C 350.349 245.921 349.707 244.397 348.48 243.469 C 347.254 242.54 345.788 241.9 344.082 241.547 L 338.195 240.101 C 337.647 240.01 337.095 239.796 336.539 239.457 C 335.982 239.119 335.682 238.492 335.639 237.578 C 335.694 236.501 336.155 235.745 337.022 235.311 C 337.889 234.878 338.83 234.669 339.844 234.685 C 341.969 234.769 343.327 235.24 343.918 236.098 C 344.509 236.956 344.799 237.696 344.789 238.318 L 349.633 238.318 C 349.643 237.29 349.372 236.177 348.82 234.979 C 348.268 233.781 347.308 232.748 345.937 231.879 C 344.567 231.011 342.659 230.555 340.214 230.514 C 337.632 230.556 335.668 230.999 334.323 231.843 C 332.978 232.687 332.069 233.681 331.595 234.825 C 331.121 235.968 330.899 237.009 330.929 237.948 C 331.005 240.512 331.796 242.246 333.301 243.149 C 334.806 244.053 336.572 244.685 338.599 245.046 L 341.189 245.651 C 342.49 245.923 343.538 246.262 344.334 246.669 C 345.131 247.075 345.54 247.734 345.562 248.645 C 345.501 249.894 344.959 250.735 343.935 251.168 C 342.911 251.601 341.772 251.803 340.516 251.773 C 338.378 251.695 336.979 251.213 336.32 250.327 C 335.661 249.441 335.356 248.623 335.403 247.871 L 330.559 247.871 Z " fill="rgb(0,40,104)"/><path d=" M 261.102 142.201 L 254.82 137.65 L 248.55 142.222 L 250.933 134.837 L 244.651 130.281 L 252.405 130.268 L 254.793 122.88 L 257.202 130.257 L 264.96 130.247 L 258.695 134.819 L 261.102 142.201 Z " fill="rgb(255,255,255)"/><path d=" M 267.337 301.511 L 256 309.568 L 244.649 301.518 L 248.984 314.549 L 237.645 322.614 L 251.662 322.61 L 256.004 335.644 L 260.332 322.612 L 274.355 322.602 L 263.013 314.551 L 267.337 301.511 Z " fill="rgb(0,40,104)"/><path d=" M 230.627 301.511 L 219.29 293.454 L 207.94 301.504 L 212.274 288.474 L 200.936 280.408 L 214.952 280.412 L 219.295 267.378 L 223.623 280.41 L 237.645 280.42 L 226.304 288.471 L 230.627 301.511 Z " fill="rgb(0,40,104)"/><path d=" M 245.738 362.429 L 241.188 368.711 L 245.76 374.981 L 238.375 372.598 L 233.819 378.88 L 233.805 371.126 L 226.418 368.738 L 233.795 366.329 L 233.784 358.571 L 238.357 364.836 L 245.738 362.429 Z " fill="rgb(255,255,255)"/><path d=" M 265.124 362.429 L 269.674 368.711 L 265.102 374.981 L 272.488 372.598 L 277.043 378.88 L 277.057 371.126 L 284.444 368.738 L 277.068 366.329 L 277.078 358.571 L 272.505 364.836 L 265.124 362.429 Z " fill="rgb(255,255,255)"/><path d=" M 304.046 301.511 L 292.709 293.454 L 281.359 301.504 L 285.693 288.474 L 274.355 280.408 L 288.371 280.412 L 292.714 267.378 L 297.042 280.41 L 311.064 280.42 L 299.723 288.471 L 304.046 301.511 Z " fill="rgb(0,40,104)"/><path d=" M 267.337 204.8 L 256 196.743 L 244.649 204.793 L 248.984 191.763 L 237.645 183.697 L 251.662 183.701 L 256.004 170.667 L 260.332 183.699 L 274.355 183.709 L 263.013 191.76 L 267.337 204.8 Z " fill="rgb(0,40,104)"/><path d=" M 418.086 227.033 L 413.536 233.315 L 418.108 239.585 L 410.723 237.202 L 406.167 243.484 L 406.153 235.73 L 398.766 233.342 L 406.143 230.933 L 406.132 223.175 L 410.705 229.44 L 418.086 227.033 Z " fill="rgb(255,255,255)"/><path d=" M 387.366 206.553 L 382.816 212.835 L 387.388 219.105 L 380.003 216.722 L 375.447 223.004 L 375.433 215.25 L 368.046 212.862 L 375.423 210.453 L 375.412 202.695 L 379.985 208.96 L 387.366 206.553 Z " fill="rgb(255,255,255)"/><path d=" M 356.646 186.073 L 352.096 192.355 L 356.668 198.625 L 349.283 196.242 L 344.727 202.524 L 344.713 194.77 L 337.326 192.382 L 344.703 189.973 L 344.692 182.215 L 349.265 188.48 L 356.646 186.073 Z " fill="rgb(255,255,255)"/><path d=" M 325.926 166.731 L 321.376 173.013 L 325.948 179.283 L 318.563 176.9 L 314.007 183.182 L 313.993 175.428 L 306.606 173.04 L 313.983 170.631 L 313.972 162.873 L 318.545 169.138 L 325.926 166.731 Z " fill="rgb(255,255,255)"/><path d=" M 295.206 146.251 L 290.656 152.533 L 295.228 158.803 L 287.843 156.42 L 283.287 162.702 L 283.273 154.948 L 275.886 152.56 L 283.263 150.151 L 283.252 142.393 L 287.825 148.658 L 295.206 146.251 Z " fill="rgb(255,255,255)"/><path d=" M 109.205 269.131 L 104.655 275.413 L 109.227 281.683 L 101.841 279.3 L 97.286 285.582 L 97.272 277.828 L 89.884 275.44 L 97.261 273.031 L 97.251 265.273 L 101.824 271.538 L 109.205 269.131 Z " fill="rgb(255,255,255)"/><path d=" M 136.512 287.336 L 131.961 293.617 L 136.533 299.887 L 129.148 297.504 L 124.593 303.787 L 124.579 296.032 L 117.191 293.645 L 124.568 291.235 L 124.558 283.477 L 129.131 289.743 L 136.512 287.336 Z " fill="rgb(255,255,255)"/><path d=" M 163.818 305.54 L 159.268 311.822 L 163.84 318.092 L 156.455 315.709 L 151.899 321.991 L 151.885 314.237 L 144.498 311.849 L 151.875 309.44 L 151.864 301.682 L 156.437 307.947 L 163.818 305.54 Z " fill="rgb(255,255,255)"/><path d=" M 191.125 324.882 L 186.575 331.164 L 191.147 337.434 L 183.761 335.051 L 179.206 341.333 L 179.192 333.579 L 171.804 331.191 L 179.181 328.782 L 179.171 321.024 L 183.744 327.289 L 191.125 324.882 Z " fill="rgb(255,255,255)"/><path d=" M 218.432 343.087 L 213.881 349.368 L 218.453 355.639 L 211.068 353.255 L 206.513 359.538 L 206.499 351.783 L 199.111 349.396 L 206.488 346.986 L 206.478 339.228 L 211.051 345.494 L 218.432 343.087 Z " fill="rgb(255,255,255)"/><path d=" M 81.898 249.704 L 77.348 255.985 L 81.92 262.255 L 74.535 259.872 L 69.979 266.155 L 69.965 258.4 L 62.578 256.013 L 69.955 253.603 L 69.944 245.845 L 74.517 252.111 L 81.898 249.704 Z " fill="rgb(255,255,255)"/><path d=" M 93.319 227.033 L 97.87 233.315 L 93.298 239.585 L 100.683 237.202 L 105.239 243.484 L 105.252 235.73 L 112.64 233.342 L 105.263 230.933 L 105.273 223.175 L 100.701 229.44 L 93.319 227.033 Z " fill="rgb(255,255,255)"/><path d=" M 124.039 206.553 L 128.59 212.835 L 124.018 219.105 L 131.403 216.722 L 135.959 223.004 L 135.972 215.25 L 143.36 212.862 L 135.983 210.453 L 135.993 202.695 L 131.421 208.96 L 124.039 206.553 Z " fill="rgb(255,255,255)"/><path d=" M 154.759 186.073 L 159.31 192.355 L 154.738 198.625 L 162.123 196.242 L 166.679 202.524 L 166.692 194.77 L 174.08 192.382 L 166.703 189.973 L 166.713 182.215 L 162.141 188.48 L 154.759 186.073 Z " fill="rgb(255,255,255)"/><path d=" M 185.479 166.731 L 190.03 173.013 L 185.458 179.283 L 192.843 176.9 L 197.399 183.182 L 197.412 175.428 L 204.8 173.04 L 197.423 170.631 L 197.433 162.873 L 192.861 169.138 L 185.479 166.731 Z " fill="rgb(255,255,255)"/><path d=" M 216.199 146.251 L 220.75 152.533 L 216.178 158.803 L 223.563 156.42 L 228.119 162.702 L 228.132 154.948 L 235.52 152.56 L 228.143 150.151 L 228.153 142.393 L 223.581 148.658 L 216.199 146.251 Z " fill="rgb(255,255,255)"/><path d=" M 428.964 249.704 L 433.514 255.985 L 428.942 262.255 L 436.328 259.872 L 440.883 266.155 L 440.897 258.4 L 448.284 256.013 L 440.908 253.603 L 440.918 245.845 L 436.345 252.111 L 428.964 249.704 Z " fill="rgb(255,255,255)"/><path d=" M 401.657 269.131 L 406.208 275.413 L 401.636 281.683 L 409.021 279.3 L 413.576 285.582 L 413.59 277.828 L 420.978 275.44 L 413.601 273.031 L 413.611 265.273 L 409.038 271.538 L 401.657 269.131 Z " fill="rgb(255,255,255)"/><path d=" M 374.35 287.336 L 378.901 293.617 L 374.329 299.887 L 381.714 297.504 L 386.27 303.787 L 386.284 296.032 L 393.671 293.645 L 386.294 291.235 L 386.305 283.477 L 381.732 289.743 L 374.35 287.336 Z " fill="rgb(255,255,255)"/><path d=" M 347.044 305.54 L 351.594 311.822 L 347.022 318.092 L 354.408 315.709 L 358.963 321.991 L 358.977 314.237 L 366.364 311.849 L 358.988 309.44 L 358.998 301.682 L 354.425 307.947 L 347.044 305.54 Z " fill="rgb(255,255,255)"/><path d=" M 319.737 324.882 L 324.288 331.164 L 319.716 337.434 L 327.101 335.051 L 331.656 341.333 L 331.67 333.579 L 339.058 331.191 L 331.681 328.782 L 331.691 321.024 L 327.118 327.289 L 319.737 324.882 Z " fill="rgb(255,255,255)"/><path d=" M 292.43 343.087 L 296.981 349.368 L 292.409 355.639 L 299.794 353.255 L 304.35 359.538 L 304.364 351.783 L 311.751 349.396 L 304.374 346.986 L 304.385 339.228 L 299.812 345.494 L 292.43 343.087 Z " fill="rgb(255,255,255)"/></g></g></g></g></svg>