<?xml version="1.0" encoding="UTF-8" standalone="no"?><!-- Generator: Gravit.io --><svg xmlns="http://www.w3.org/2000/svg" xmlns:xlink="http://www.w3.org/1999/xlink" style="isolation:isolate" viewBox="0 0 512 512" width="512pt" height="512pt"><defs><clipPath id="_clipPath_Crx4wagCiCwc50gTfxmPhtAq84iLxQR8"><rect width="512" height="512"/></clipPath></defs><g clip-path="url(#_clipPath_Crx4wagCiCwc50gTfxmPhtAq84iLxQR8)"><clipPath id="_clipPath_0sHwM6hNjMS9i8tiPl1JEc34qFrddSfq"><circle vector-effect="non-scaling-stroke" cx="255.99999999999994" cy="255.99999999999994" r="255.99999999999994" fill="rgb(255,255,255)"/></clipPath><g clip-path="url(#_clipPath_0sHwM6hNjMS9i8tiPl1JEc34qFrddSfq)"><g><rect x="-128" y="170.667" width="768" height="170.667" transform="matrix(1,0,0,1,0,0)" fill="rgb(255,255,255)"/><rect x="-128" y="0" width="768" height="170.667" transform="matrix(1,0,0,1,0,0)" fill="rgb(0,40,104)"/><rect x="-128" y="341.333" width="768" height="170.667" transform="matrix(1,0,0,1,0,0)" fill="rgb(0,40,104)"/><g><path d=" M 357.291 199.296 C 333.909 132.907 270.635 85.333 196.267 85.333 C 102.016 85.333 25.6 161.749 25.6 256 C 25.6 350.251 102.016 426.667 196.267 426.667 C 270.635 426.667 333.909 379.093 357.291 312.704 L 196.267 256 L 357.291 199.296 Z " fill="rgb(191,10,48)"/></g><circle vector-effect="non-scaling-stroke" cx="196.2666666666667" cy="256.0000000000001" r="85.33333333333333" fill="rgb(255,215,0)"/></g></g></g></svg>