<?xml version="1.0" encoding="UTF-8" standalone="no"?><!-- Generator: Gravit.io --><svg xmlns="http://www.w3.org/2000/svg" xmlns:xlink="http://www.w3.org/1999/xlink" style="isolation:isolate" viewBox="0 0 512 512" width="512pt" height="512pt"><defs><clipPath id="_clipPath_CRUPdqDkArD1mhNcOFTp3bgYiYi1SYEq"><rect width="512" height="512"/></clipPath></defs><g clip-path="url(#_clipPath_CRUPdqDkArD1mhNcOFTp3bgYiYi1SYEq)"><clipPath id="_clipPath_EQLoEhtav04qtd2QCBT864gqe35okzm3"><circle vector-effect="non-scaling-stroke" cx="255.99999999999994" cy="255.99999999999994" r="255.99999999999994" fill="rgb(255,255,255)"/></clipPath><g clip-path="url(#_clipPath_EQLoEhtav04qtd2QCBT864gqe35okzm3)"><g><rect x="-256" y="0" width="1024" height="512" transform="matrix(1,0,0,1,0,0)" fill="rgb(1,33,105)"/><clipPath id="_clipPath_umCzWwDpMxquimxJ6NPvqQHsTiAHUgWq"><path d=" M -256 0 L 256 0 L 256 320 L -256 320 L -256 0 Z " fill="rgb(255,255,255)"/></clipPath><g clip-path="url(#_clipPath_umCzWwDpMxquimxJ6NPvqQHsTiAHUgWq)"><path d=" M -256 0 L 192 256 M 192 0 L -256 256" fill="rgb(0,0,0)" vector-effect="non-scaling-stroke" stroke-width="60" stroke="rgb(255,255,255)" stroke-linejoin="miter" stroke-linecap="butt" stroke-miterlimit="4"/></g><clipPath id="_clipPath_iSQHqnHfQ9JyYaXWuew9RNREuvbu6VTD"><path d=" M -256 0 L -256 128 L 213.333 128 L 213.333 256 L 192 256 L -256 0 Z  M 192 0 L -32 0 L -32 277.333 L -256 277.333 L -256 256 L 192 0 Z " fill="rgb(255,255,255)"/></clipPath><g clip-path="url(#_clipPath_iSQHqnHfQ9JyYaXWuew9RNREuvbu6VTD)"><path d=" M -256 0 L 192 256 M 192 0 L -256 256" fill="rgb(0,0,0)" vector-effect="non-scaling-stroke" stroke-width="40" stroke="rgb(200,16,46)" stroke-linejoin="miter" stroke-linecap="butt" stroke-miterlimit="4"/></g><path d=" M -32 0 L -32 320 M -256 128 L 256 128" fill="rgb(0,0,0)" vector-effect="non-scaling-stroke" stroke-width="100" stroke="rgb(255,255,255)" stroke-linejoin="miter" stroke-linecap="butt" stroke-miterlimit="4"/><path d=" M -32 0 L -32 320 M -256 128 L 256 128" fill="rgb(0,0,0)" vector-effect="non-scaling-stroke" stroke-width="60" stroke="rgb(200,16,46)" stroke-linejoin="miter" stroke-linecap="butt" stroke-miterlimit="4"/><path d=" M 192 256 L 192 192 L 256 128 L 192 64 L 192 0 L 768 0 L 768 512 L -256 512 L -256 384 L 192 256 Z " fill="rgb(255,255,255)"/><path d=" M 192 128 L 192 192 L 768 192 L 768 64 L 192 128 Z  M -256 320 L -256 384 L 768 384 L 768 256 L -256 320 Z " fill="rgb(1,33,105)"/><path d=" M 192 96 L 768 96 M -256 288 L 768 288 M -256 480 L 768 480" fill="rgb(0,0,0)" vector-effect="non-scaling-stroke" stroke-width="75" stroke="rgb(200,16,46)" stroke-linejoin="miter" stroke-linecap="butt" stroke-miterlimit="4"/></g></g></g></svg>