<?xml version="1.0" encoding="UTF-8" standalone="no"?><!-- Generator: Gravit.io --><svg xmlns="http://www.w3.org/2000/svg" xmlns:xlink="http://www.w3.org/1999/xlink" style="isolation:isolate" viewBox="0 0 512 512" width="512pt" height="512pt"><defs><clipPath id="_clipPath_13kUF41UfXrw4eh7ncbaOar6yjhT2aBB"><rect width="512" height="512"/></clipPath></defs><g clip-path="url(#_clipPath_13kUF41UfXrw4eh7ncbaOar6yjhT2aBB)"><clipPath id="_clipPath_l2ViFdZs2huuFk4ScaLAb3TRYd3USNve"><circle vector-effect="non-scaling-stroke" cx="255.99999999999994" cy="255.99999999999994" r="255.99999999999994" fill="rgb(255,255,255)"/></clipPath><g clip-path="url(#_clipPath_l2ViFdZs2huuFk4ScaLAb3TRYd3USNve)"><g><rect x="-128" y="0" width="768" height="512" transform="matrix(1,0,0,1,0,0)" fill="rgb(0,15,93)"/><path d=" M 332.747 71.094 L 349.084 71.082 L 354.468 55.122 L 359.456 71.131 L 375.91 71.127 L 363.157 81.49 L 367.779 96.648 L 354.303 87.538 L 340.945 96.72 L 345.494 81.356 L 332.747 71.094 Z " fill="rgb(213,159,15)"/><path d=" M 404.533 135.213 L 420.87 135.201 L 426.253 119.242 L 431.242 135.25 L 447.696 135.246 L 434.943 145.609 L 439.565 160.767 L 426.088 151.657 L 412.731 160.839 L 417.28 145.476 L 404.533 135.213 Z " fill="rgb(213,159,15)"/><path d=" M 442.641 227.513 L 458.978 227.501 L 464.361 211.542 L 469.35 227.55 L 485.804 227.546 L 473.051 237.909 L 477.672 253.067 L 464.196 243.957 L 450.838 253.139 L 455.387 237.776 L 442.641 227.513 Z " fill="rgb(213,159,15)"/><path d=" M 364.944 251.449 L 381.281 251.437 L 386.664 235.477 L 391.653 251.486 L 408.107 251.482 L 395.354 261.844 L 399.976 277.002 L 386.499 267.893 L 373.141 277.075 L 377.69 261.711 L 364.944 251.449 Z " fill="rgb(213,159,15)"/><path d=" M 427.842 329.642 L 444.179 329.63 L 449.562 313.67 L 454.551 329.679 L 471.005 329.675 L 458.252 340.037 L 462.873 355.196 L 449.397 346.086 L 436.039 355.268 L 440.588 339.904 L 427.842 329.642 Z " fill="rgb(213,159,15)"/><path d=" M 370.288 408.606 L 386.625 408.594 L 392.008 392.635 L 396.997 408.643 L 413.451 408.639 L 400.698 419.002 L 405.319 434.16 L 391.843 425.05 L 378.485 434.232 L 383.034 418.869 L 370.288 408.606 Z " fill="rgb(213,159,15)"/><path d=" M 326.325 342.925 L 342.662 342.913 L 348.045 326.954 L 353.034 342.962 L 369.488 342.958 L 356.735 353.321 L 361.357 368.479 L 347.88 359.369 L 334.523 368.551 L 339.072 353.188 L 326.325 342.925 Z " fill="rgb(213,159,15)"/><path d=" M 284.6 457.638 L 300.937 457.626 L 306.32 441.667 L 311.309 457.675 L 327.763 457.671 L 315.01 468.034 L 319.632 483.192 L 306.156 474.082 L 292.798 483.264 L 297.347 467.901 L 284.6 457.638 Z " fill="rgb(213,159,15)"/><path d=" M 181.258 457.638 L 197.595 457.626 L 202.979 441.667 L 207.968 457.675 L 224.422 457.671 L 211.668 468.034 L 216.29 483.192 L 202.814 474.082 L 189.456 483.264 L 194.005 467.901 L 181.258 457.638 Z " fill="rgb(213,159,15)"/><path d=" M 144.397 342.925 L 160.734 342.913 L 166.117 326.954 L 171.106 342.962 L 187.56 342.958 L 174.807 353.321 L 179.429 368.479 L 165.952 359.369 L 152.594 368.551 L 157.144 353.188 L 144.397 342.925 Z " fill="rgb(213,159,15)"/><path d=" M 95.396 408.606 L 111.733 408.594 L 117.116 392.635 L 122.105 408.643 L 138.559 408.639 L 125.806 419.002 L 130.428 434.16 L 116.951 425.05 L 103.594 434.232 L 108.143 418.869 L 95.396 408.606 Z " fill="rgb(213,159,15)"/><path d=" M 38.926 329.642 L 55.263 329.63 L 60.646 313.67 L 65.635 329.679 L 82.089 329.675 L 69.336 340.037 L 73.957 355.196 L 60.481 346.086 L 47.123 355.268 L 51.672 339.904 L 38.926 329.642 Z " fill="rgb(213,159,15)"/><path d=" M 26.197 227.513 L 42.534 227.501 L 47.917 211.542 L 52.906 227.55 L 69.36 227.546 L 56.607 237.909 L 61.228 253.067 L 47.752 243.957 L 34.394 253.139 L 38.943 237.776 L 26.197 227.513 Z " fill="rgb(213,159,15)"/><path d=" M 105.368 251.449 L 121.705 251.437 L 127.088 235.477 L 132.077 251.486 L 148.531 251.482 L 135.778 261.844 L 140.4 277.002 L 126.923 267.893 L 113.565 277.075 L 118.115 261.711 L 105.368 251.449 Z " fill="rgb(213,159,15)"/><path d=" M 65.141 135.213 L 81.477 135.201 L 86.861 119.242 L 91.85 135.25 L 108.304 135.246 L 95.55 145.609 L 100.172 160.767 L 86.696 151.657 L 73.338 160.839 L 77.887 145.476 L 65.141 135.213 Z " fill="rgb(213,159,15)"/><path d=" M 137.366 71.094 L 153.703 71.082 L 159.086 55.122 L 164.075 71.131 L 180.529 71.127 L 167.776 81.49 L 172.398 96.648 L 158.921 87.538 L 145.564 96.72 L 150.113 81.356 L 137.366 71.094 Z " fill="rgb(213,159,15)"/><path d=" M 235.232 44.306 L 251.569 44.294 L 256.952 28.334 L 261.941 44.343 L 278.395 44.339 L 265.642 54.701 L 270.263 69.859 L 256.787 60.75 L 243.429 69.932 L 247.978 54.568 L 235.232 44.306 Z " fill="rgb(213,159,15)"/><path d=" M 341.468 101.02 L 293.187 169.805 L 290.193 167.679 L 338.487 98.914 L 341.468 101.02 Z " fill="rgb(213,159,15)"/><path d=" M 410.559 149.185 L 298.362 192.328 L 297.044 188.904 L 409.224 145.758 L 410.559 149.185 Z " fill="rgb(213,159,15)"/><path d=" M 436.301 231.97 L 299.871 215.625 L 300.297 211.963 L 436.755 228.332 L 436.301 231.97 Z " fill="rgb(213,159,15)"/><path d=" M 235.469 380.931 L 251.806 380.919 L 257.189 364.96 L 262.178 380.968 L 278.632 380.964 L 265.879 391.327 L 270.5 406.485 L 257.024 397.375 L 243.666 406.557 L 248.215 391.194 L 235.469 380.931 Z " fill="rgb(213,159,15)"/><path d=" M 226.663 117.403 L 249.705 117.452 L 257.292 94.94 L 264.32 117.463 L 287.489 117.486 L 269.519 132.065 L 276.03 153.422 L 257.072 140.617 L 238.229 153.542 L 244.635 131.866 L 226.663 117.403 Z " fill="rgb(213,159,15)"/><path d=" M 227.869 228.047 C 227.827 228.006 227.782 227.949 227.753 227.891 C 209.181 203.361 228.072 194.346 228.454 176.992 C 240.744 199.809 222.734 206.907 244.146 228.064 L 227.869 228.047 Z " fill="rgb(213,159,15)"/><path d=" M 248.381 228.063 C 241.842 218.865 237.256 204.183 239.218 194.591 C 241.163 185.005 247.806 175.565 246.886 168.309 C 250.346 176.478 253.6 179.627 252.592 185.64 C 257.791 170.136 269.741 162.123 285.941 161.326 C 256.805 183.467 294.839 200.483 269.69 228.088 L 248.381 228.063 Z " fill="rgb(213,159,15)"/><path d=" M 275.09 228.1 C 298.228 200.182 268.783 185.874 295.618 173.365 C 296.606 181.619 290.029 181.613 292.927 191.715 C 293.424 196.089 292.818 199.658 291.401 202.705 C 294.131 199.358 299.441 193.045 302.813 190.589 C 294.834 202.61 303.402 213.129 284.156 228.099 L 274.692 228.102" fill="rgb(213,159,15)"/><path d=" M 271.177 288.342 C 272.209 262.165 277.809 254.197 288.428 243.249 C 267.823 243.201 244.797 243.197 226.061 243.184 C 236.634 254.149 242.228 262.122 243.204 288.296 C 252.529 288.3 261.852 288.319 271.177 288.342 Z " fill="rgb(213,159,15)"/><path d=" M 257.097 352.244 L 265.249 377.814 L 269.752 301.951 C 261.357 301.923 252.962 301.912 244.567 301.899 L 248.888 377.797 L 257.097 352.244 Z " fill="rgb(213,159,15)"/><path d=" M 256.977 466.894 C 260.574 463.56 261.595 452.696 261.595 452.696 L 263.832 408.357 L 257.038 403.584 L 250.229 408.343 L 252.395 452.692 C 252.395 452.692 253.36 463.525 256.961 466.898 L 256.977 466.894 Z " fill="rgb(213,159,15)"/><path d=" M 293.423 238.549 L 220.974 238.472 L 220.982 231.595 L 293.446 231.67 L 293.423 238.549 Z " fill="rgb(213,159,15)"/><path d=" M 275.785 299.668 L 237.567 299.628 L 237.577 291.074 L 275.798 291.13 L 275.785 299.668 Z " fill="rgb(213,159,15)"/><path d=" M 77.396 231.97 L 213.826 215.625 L 213.399 211.963 L 76.941 228.332 L 77.396 231.97 Z " fill="rgb(213,159,15)"/><path d=" M 103.317 149.185 L 215.514 192.328 L 216.833 188.904 L 104.653 145.758 L 103.317 149.185 Z " fill="rgb(213,159,15)"/><path d=" M 172.791 101.02 L 221.073 169.805 L 224.067 167.679 L 175.773 98.914 L 172.791 101.02 Z " fill="rgb(213,159,15)"/><path d=" M 254.862 146.144 L 254.827 171.175 L 258.499 171.178 L 258.513 146.134 L 254.862 146.144 Z " fill="rgb(213,159,15)"/><path d=" M 216.952 117.753 L 201.098 109.625 L 202.202 107.472 L 218.056 115.601 L 216.952 117.753 Z  M 219.653 111.899 L 206.843 99.516 L 208.684 97.612 L 223.773 100.624 C 224.105 100.686 224.408 100.755 224.683 100.831 C 224.958 100.906 225.202 100.99 225.415 101.083 L 215.031 91.046 L 216.637 89.385 L 229.447 101.768 L 227.622 103.655 L 212.277 100.647 C 212.043 100.6 211.808 100.541 211.573 100.471 C 211.343 100.395 211.108 100.308 210.867 100.209 L 221.25 110.247 L 219.653 111.899 Z  M 233.176 82.522 L 229.299 84.034 L 234.234 96.689 L 238.11 95.177 C 239.77 94.53 240.816 93.503 241.246 92.098 C 241.673 90.685 241.475 88.923 240.652 86.812 C 239.864 84.791 238.828 83.412 237.545 82.675 C 236.263 81.937 234.806 81.886 233.176 82.522 Z  M 232.771 99.596 L 226.299 82.997 L 232.62 80.532 C 234.934 79.629 236.973 79.631 238.737 80.536 C 240.508 81.438 241.901 83.192 242.918 85.799 C 243.969 88.496 244.15 90.845 243.458 92.845 C 242.771 94.835 241.286 96.275 239.002 97.166 L 232.771 99.596 Z  M 249.526 94.547 L 248.117 76.786 L 250.528 76.595 L 251.937 94.355 L 249.526 94.547 Z  M 260.424 87.254 L 265.877 88.301 L 264.65 80.06 L 260.424 87.254 Z  M 253.969 93.553 L 263.824 77.303 L 266.449 77.807 L 269.613 96.555 L 267.036 96.06 L 266.185 90.478 L 259.296 89.156 L 256.428 94.025 L 253.969 93.553 Z  M 271.384 97.504 L 281.454 82.807 L 283.639 84.304 L 283.189 99.684 C 283.182 100.022 283.165 100.332 283.137 100.616 C 283.108 100.9 283.066 101.154 283.01 101.379 L 291.173 89.466 L 293.078 90.772 L 283.008 105.469 L 280.843 103.985 L 281.246 88.353 C 281.254 88.114 281.272 87.873 281.302 87.629 C 281.339 87.391 281.386 87.144 281.443 86.89 L 273.28 98.803 L 271.384 97.504 Z  M 293.535 107.199 L 296.492 111.897 L 301.677 105.375 L 293.535 107.199 Z  M 284.525 106.781 L 303.128 102.89 L 304.552 105.152 L 293.011 120.262 L 291.613 118.041 L 295.112 113.609 L 291.375 107.672 L 285.859 108.9 L 284.525 106.781 Z " fill="rgb(213,159,15)"/></g></g></g></svg>