<?xml version="1.0" encoding="UTF-8" standalone="no"?><!-- Generator: Gravit.io --><svg xmlns="http://www.w3.org/2000/svg" xmlns:xlink="http://www.w3.org/1999/xlink" style="isolation:isolate" viewBox="0 0 512 512" width="512pt" height="512pt"><defs><clipPath id="_clipPath_eMgn5fv8ipzOLhXRVted420CWGEjUEGp"><rect width="512" height="512"/></clipPath></defs><g clip-path="url(#_clipPath_eMgn5fv8ipzOLhXRVted420CWGEjUEGp)"><clipPath id="_clipPath_o9j5CqyMyQxS4sZr4TWy1jFl1pivBUkF"><circle vector-effect="non-scaling-stroke" cx="255.99999999999994" cy="255.99999999999994" r="255.99999999999994" fill="rgb(255,255,255)"/></clipPath><g clip-path="url(#_clipPath_o9j5CqyMyQxS4sZr4TWy1jFl1pivBUkF)"><g><rect x="-128" y="0" width="768" height="512" transform="matrix(1,0,0,1,0,0)" fill="rgb(0,0,0)"/><path d=" M -128 512 L -128 42.667 L -64 85.333 L -64 512 L 0 512 L 0 0 L 64 0 L 64 512 L 128 512 L 128 0 L 192 0 L 192 512 L 256 512 L 256 0 L 320 0 L 320 512 L 384 512 L 384 0 L 448 0 L 448 512 L 512 512 L 512 0 L 576 0 L 576 512 L 640 512 L 640 469.333 L -64 0 L -64 85.333 L 576 512 L -128 512 Z " fill="rgb(234,170,0)"/><g><path d=" M 256 0 L 448 0 L 448 256 L 640 256 L 640 128 L 256 128 L 256 0 Z " fill="rgb(255,255,255)"/><path d=" M 448 0 L 640 0 L 640 128 L 256 128 L 256 256 L 448 256 L 448 0 Z " fill="rgb(157,34,53)"/><g><path d=" M 448 238.08 C 457.049 238.08 464.384 230.745 464.384 221.696 L 464.384 213.504 L 480.256 213.504 C 489.305 213.504 496.64 206.169 496.64 197.12 C 496.64 188.071 489.305 180.736 480.256 180.736 L 464.384 180.736 L 464.384 144.384 L 566.272 144.384 L 566.272 160.256 C 566.272 169.305 573.607 176.64 582.656 176.64 C 591.705 176.64 599.04 169.305 599.04 160.256 L 599.04 144.384 L 613.376 144.384 C 622.425 144.384 629.76 137.049 629.76 128 L 448 128 L 448 238.08 Z " fill="rgb(157,34,53)"/><path d=" M 448 238.08 C 438.951 238.08 431.616 230.745 431.616 221.696 L 431.616 213.504 L 415.744 213.504 C 406.695 213.504 399.36 206.169 399.36 197.12 C 399.36 188.071 406.695 180.736 415.744 180.736 L 431.616 180.736 L 431.616 144.384 L 329.728 144.384 L 329.728 160.256 C 329.728 169.305 322.393 176.64 313.344 176.64 C 304.295 176.64 296.96 169.305 296.96 160.256 L 296.96 144.384 L 282.624 144.384 C 273.575 144.384 266.24 137.049 266.24 128 L 448 128 L 448 238.08 Z " fill="rgb(255,255,255)"/><path d=" M 448 17.92 C 457.049 17.92 464.384 25.255 464.384 34.304 L 464.384 42.496 L 480.256 42.496 C 489.305 42.496 496.64 49.831 496.64 58.88 C 496.64 67.929 489.305 75.264 480.256 75.264 L 464.384 75.264 L 464.384 111.616 L 566.272 111.616 L 566.272 95.744 C 566.272 86.695 573.607 79.36 582.656 79.36 C 591.705 79.36 599.04 86.695 599.04 95.744 L 599.04 111.616 L 613.376 111.616 C 622.425 111.616 629.76 118.951 629.76 128 L 448 128 L 448 17.92 Z " fill="rgb(255,255,255)"/><path d=" M 448 17.92 C 438.951 17.92 431.616 25.255 431.616 34.304 L 431.616 42.496 L 415.744 42.496 C 406.695 42.496 399.36 49.831 399.36 58.88 C 399.36 67.929 406.695 75.264 415.744 75.264 L 431.616 75.264 L 431.616 111.616 L 329.728 111.616 L 329.728 95.744 C 329.728 86.695 322.393 79.36 313.344 79.36 C 304.295 79.36 296.96 86.695 296.96 95.744 L 296.96 111.616 L 282.624 111.616 C 273.575 111.616 266.24 118.951 266.24 128 L 448 128 L 448 17.92 Z " fill="rgb(157,34,53)"/></g></g><g><path d=" M -128 256 L 64 256 L 64 512 L 256 512 L 256 384 L -128 384 L -128 256 Z " fill="rgb(255,255,255)"/><path d=" M 64 256 L 256 256 L 256 384 L -128 384 L -128 512 L 64 512 L 64 256 Z " fill="rgb(157,34,53)"/><g><path d=" M 64 494.08 C 73.049 494.08 80.384 486.745 80.384 477.696 L 80.384 469.504 L 96.256 469.504 C 105.305 469.504 112.64 462.169 112.64 453.12 C 112.64 444.071 105.305 436.736 96.256 436.736 L 80.384 436.736 L 80.384 400.384 L 182.272 400.384 L 182.272 416.256 C 182.272 425.305 189.607 432.64 198.656 432.64 C 207.705 432.64 215.04 425.305 215.04 416.256 L 215.04 400.384 L 229.376 400.384 C 238.425 400.384 245.76 393.049 245.76 384 L 64 384 L 64 494.08 Z " fill="rgb(157,34,53)"/><path d=" M 64 494.08 C 54.951 494.08 47.616 486.745 47.616 477.696 L 47.616 469.504 L 31.744 469.504 C 22.695 469.504 15.36 462.169 15.36 453.12 C 15.36 444.071 22.695 436.736 31.744 436.736 L 47.616 436.736 L 47.616 400.384 L -54.272 400.384 L -54.272 416.256 C -54.272 425.305 -61.607 432.64 -70.656 432.64 C -79.705 432.64 -87.04 425.305 -87.04 416.256 L -87.04 400.384 L -101.376 400.384 C -110.425 400.384 -117.76 393.049 -117.76 384 L 64 384 L 64 494.08 Z " fill="rgb(255,255,255)"/><path d=" M 64 273.92 C 73.049 273.92 80.384 281.255 80.384 290.304 L 80.384 298.496 L 96.256 298.496 C 105.305 298.496 112.64 305.831 112.64 314.88 C 112.64 323.929 105.305 331.264 96.256 331.264 L 80.384 331.264 L 80.384 367.616 L 182.272 367.616 L 182.272 351.744 C 182.272 342.695 189.607 335.36 198.656 335.36 C 207.705 335.36 215.04 342.695 215.04 351.744 L 215.04 367.616 L 229.376 367.616 C 238.425 367.616 245.76 374.951 245.76 384 L 64 384 L 64 273.92 Z " fill="rgb(255,255,255)"/><path d=" M 64 273.92 C 54.951 273.92 47.616 281.255 47.616 290.304 L 47.616 298.496 L 31.744 298.496 C 22.695 298.496 15.36 305.831 15.36 314.88 C 15.36 323.929 22.695 331.264 31.744 331.264 L 47.616 331.264 L 47.616 367.616 L -54.272 367.616 L -54.272 351.744 C -54.272 342.695 -61.607 335.36 -70.656 335.36 C -79.705 335.36 -87.04 342.695 -87.04 351.744 L -87.04 367.616 L -101.376 367.616 C -110.425 367.616 -117.76 374.951 -117.76 384 L 64 384 L 64 273.92 Z " fill="rgb(157,34,53)"/></g></g></g></g></g></svg>