<?xml version="1.0" encoding="UTF-8" standalone="no"?><!-- Generator: Gravit.io --><svg xmlns="http://www.w3.org/2000/svg" xmlns:xlink="http://www.w3.org/1999/xlink" style="isolation:isolate" viewBox="0 0 512 512" width="512pt" height="512pt"><defs><clipPath id="_clipPath_pe3BFAGICLgjDGz1z9lI35oE9mjtYJ6b"><rect width="512" height="512"/></clipPath></defs><g clip-path="url(#_clipPath_pe3BFAGICLgjDGz1z9lI35oE9mjtYJ6b)"><clipPath id="_clipPath_rkZ5foOZa14nPhivrjW4gFoxqihzEQHl"><circle vector-effect="non-scaling-stroke" cx="255.99999999999994" cy="255.99999999999994" r="255.99999999999994" fill="rgb(255,255,255)"/></clipPath><g clip-path="url(#_clipPath_rkZ5foOZa14nPhivrjW4gFoxqihzEQHl)"><g><path d=" M -35.3 0 L 547.321 0 L 547.321 512 L -35.3 512 L -35.3 0 Z " fill="rgb(255,255,255)"/><g><path d=" M 252.285 163.769 C 252.285 163.769 251.349 268.129 251.349 275.721 C 251.349 283.313 251.349 293.747 242.963 291.849 C 234.595 289.951 224.346 289.951 209.445 279.517 C 194.553 269.082 194.553 267.185 194.553 267.185 L 208.518 262.435 C 208.518 262.435 194.553 259.593 185.24 252.954 C 175.926 246.307 168.476 240.614 168.476 240.614 C 168.476 240.614 167.549 254.852 172.201 265.287 C 176.862 275.721 186.166 285.21 186.166 285.21 L 186.166 272.878 C 186.166 272.878 199.205 285.21 203.866 288.062 C 208.518 290.904 227.144 298.496 234.586 303.245 C 242.036 307.977 255.687 321.262 255.687 321.262 C 255.687 321.262 269.976 306.079 279.289 302.283 C 288.602 298.487 300.704 292.802 306.292 289.006 C 311.88 285.21 326.772 270.98 326.772 270.98 L 326.772 287.108 C 326.772 287.108 337.012 274.776 339.811 266.231 C 342.609 257.695 343.536 242.511 343.536 242.511 C 343.536 242.511 336.085 248.205 329.571 251.057 C 323.047 253.899 304.43 261.491 304.43 261.491 L 319.322 265.287 C 319.322 265.287 295.117 284.266 286.739 288.062 C 271.479 295.399 260.662 293.747 260.662 284.266 C 260.662 274.785 261.598 163.769 261.598 163.769 L 252.285 163.769 Z  M 253.212 128.662 L 259.727 128.662 L 259.727 157.122 L 253.212 157.122 L 253.212 128.662 Z " fill="rgb(254,197,0)" vector-effect="non-scaling-stroke" stroke-width="1.5" stroke="rgb(254,197,0)" stroke-linejoin="miter" stroke-linecap="butt" stroke-miterlimit="4"/><mask id="_mask_KNtonLP47PT5K87fILfRrrPSfwbDJZXj" x="-200%" y="-200%" width="400%" height="400%"><rect x="-200%" y="-200%" width="400%" height="400%" style="fill:white;"/><path d=" M 206.664 157.131 C 206.664 157.131 232.732 151.437 256.937 151.437 C 281.142 151.437 306.283 157.122 306.283 157.122 L 306.283 167.565 C 306.283 167.565 272.765 172.306 253.212 172.306 C 233.659 172.306 206.657 166.612 206.657 166.612 L 206.664 157.131 Z " fill="black" stroke="none"/></mask><path d=" M 206.664 157.131 C 206.664 157.131 232.732 151.437 256.937 151.437 C 281.142 151.437 306.283 157.122 306.283 157.122 L 306.283 167.565 C 306.283 167.565 272.765 172.306 253.212 172.306 C 233.659 172.306 206.657 166.612 206.657 166.612 L 206.664 157.131 Z " fill="rgb(254,197,0)" mask="url(#_mask_KNtonLP47PT5K87fILfRrrPSfwbDJZXj)" vector-effect="non-scaling-stroke" stroke-width="3" stroke="rgb(255,255,255)" stroke-linejoin="miter" stroke-linecap="butt" stroke-miterlimit="4"/><path d=" M 206.664 157.131 C 206.664 157.131 232.732 151.437 256.937 151.437 C 281.142 151.437 306.283 157.122 306.283 157.122 L 306.283 167.565 C 306.283 167.565 272.765 172.306 253.212 172.306 C 233.659 172.306 206.657 166.612 206.657 166.612 L 206.664 157.131 Z " fill="rgb(254,197,0)"/><mask id="_mask_SSBXoHfgwerpemnldBOh9WIC4E9I0M2k" x="-200%" y="-200%" width="400%" height="400%"><rect x="-200%" y="-200%" width="400%" height="400%" style="fill:white;"/><path d=" M 271.829 151.905 C 271.829 147.58 270.161 143.667 267.464 140.835 C 266.116 139.42 264.51 138.274 262.728 137.483 C 261.836 137.087 261.994 136.936 261.024 136.728 L 261.053 142.15 C 262.222 142.727 262.494 143.3 263.378 144.331 C 265.147 146.392 266.242 149.239 266.242 152.382 C 266.242 158.667 261.863 162.738 256.469 162.738 C 251.076 162.738 246.697 158.667 246.697 152.382 C 246.697 149.239 247.792 146.392 249.561 144.331 C 250.445 143.3 250.717 142.727 251.886 142.15 L 251.914 136.728 C 250.945 136.936 251.103 137.087 250.211 137.483 C 248.429 138.274 246.823 139.42 245.475 140.835 C 242.778 143.667 241.109 147.58 241.109 151.905 C 241.109 160.556 248.2 167.565 256.469 167.565 C 264.739 167.565 271.829 160.556 271.829 151.905 Z " fill-rule="evenodd" fill="black" stroke="none"/></mask><path d=" M 271.829 151.905 C 271.829 147.58 270.161 143.667 267.464 140.835 C 266.116 139.42 264.51 138.274 262.728 137.483 C 261.836 137.087 261.994 136.936 261.024 136.728 L 261.053 142.15 C 262.222 142.727 262.494 143.3 263.378 144.331 C 265.147 146.392 266.242 149.239 266.242 152.382 C 266.242 158.667 261.863 162.738 256.469 162.738 C 251.076 162.738 246.697 158.667 246.697 152.382 C 246.697 149.239 247.792 146.392 249.561 144.331 C 250.445 143.3 250.717 142.727 251.886 142.15 L 251.914 136.728 C 250.945 136.936 251.103 137.087 250.211 137.483 C 248.429 138.274 246.823 139.42 245.475 140.835 C 242.778 143.667 241.109 147.58 241.109 151.905 C 241.109 160.556 248.2 167.565 256.469 167.565 C 264.739 167.565 271.829 160.556 271.829 151.905 Z " fill-rule="evenodd" fill="rgb(254,197,0)" mask="url(#_mask_SSBXoHfgwerpemnldBOh9WIC4E9I0M2k)" vector-effect="non-scaling-stroke" stroke-width="3" stroke="rgb(255,255,255)" stroke-linejoin="miter" stroke-linecap="butt" stroke-miterlimit="4"/><path d=" M 271.829 151.905 C 271.829 147.58 270.161 143.667 267.464 140.835 C 266.116 139.42 264.51 138.274 262.728 137.483 C 261.836 137.087 261.994 136.936 261.024 136.728 L 261.053 142.15 C 262.222 142.727 262.494 143.3 263.378 144.331 C 265.147 146.392 266.242 149.239 266.242 152.382 C 266.242 158.667 261.863 162.738 256.469 162.738 C 251.076 162.738 246.697 158.667 246.697 152.382 C 246.697 149.239 247.792 146.392 249.561 144.331 C 250.445 143.3 250.717 142.727 251.886 142.15 L 251.914 136.728 C 250.945 136.936 251.103 137.087 250.211 137.483 C 248.429 138.274 246.823 139.42 245.475 140.835 C 242.778 143.667 241.109 147.58 241.109 151.905 C 241.109 160.556 248.2 167.565 256.469 167.565 C 264.739 167.565 271.829 160.556 271.829 151.905 Z " fill-rule="evenodd" fill="rgb(254,197,0)"/></g><g><path d=" M 342.194 334.009 C 342.194 334.009 329.827 345.309 317.724 346.915 C 305.621 348.531 286.563 354.216 286.563 354.216 C 286.563 354.216 286.059 371.624 286.651 373.133 C 287.242 374.643 287.622 375.04 289.361 375.102 C 295.002 375.305 308.738 375.322 323.683 371.844 C 343.218 367.298 362.383 355.54 362.383 355.54 C 357.916 353.704 347.111 352.088 340.137 350.358 L 342.194 334.009 Z  M 305.974 360.889 C 307.299 364.42 286.395 367.687 286.651 373.133 M 169.827 334.009 C 169.827 334.009 182.194 345.309 194.297 346.915 C 206.399 348.531 225.458 354.216 225.458 354.216 C 225.458 354.216 225.961 371.624 225.37 373.133 C 224.778 374.643 224.399 375.04 222.66 375.102 C 217.019 375.305 203.283 375.322 188.338 371.844 C 168.803 367.298 149.638 355.54 149.638 355.54 C 154.105 353.704 164.91 352.088 171.883 350.358 L 169.827 334.009 Z  M 206.046 360.889 C 204.722 364.42 225.626 367.687 225.37 373.133" fill="rgb(0,50,113)" vector-effect="non-scaling-stroke" stroke-width="1" stroke="rgb(255,255,255)" stroke-linejoin="round" stroke-linecap="butt" stroke-miterlimit="4"/><mask id="_mask_GE6tE5adZtOc898lPucxLpeBkxi5FksZ" x="-200%" y="-200%" width="400%" height="400%"><rect x="-200%" y="-200%" width="400%" height="400%" style="fill:white;"/><path d=" M 209.454 360.157 C 207.3 359.486 206.046 360.889 206.046 360.889 L 206.046 330.734 C 206.046 330.734 207.353 329.551 209.63 330.549 C 217.663 334.054 238.373 341.16 256.01 341.16 C 273.648 341.16 294.357 334.054 302.39 330.549 C 304.668 329.551 305.974 330.726 305.974 330.726 L 305.974 360.889 C 305.974 360.889 304.721 359.477 302.567 360.157 C 294.004 362.814 271.618 369.426 256.01 369.426 C 240.403 369.426 218.016 362.814 209.454 360.166 L 209.454 360.157 Z " fill="black" stroke="none"/></mask><path d=" M 209.454 360.157 C 207.3 359.486 206.046 360.889 206.046 360.889 L 206.046 330.734 C 206.046 330.734 207.353 329.551 209.63 330.549 C 217.663 334.054 238.373 341.16 256.01 341.16 C 273.648 341.16 294.357 334.054 302.39 330.549 C 304.668 329.551 305.974 330.726 305.974 330.726 L 305.974 360.889 C 305.974 360.889 304.721 359.477 302.567 360.157 C 294.004 362.814 271.618 369.426 256.01 369.426 C 240.403 369.426 218.016 362.814 209.454 360.166 L 209.454 360.157 Z " fill="rgb(0,50,113)" mask="url(#_mask_GE6tE5adZtOc898lPucxLpeBkxi5FksZ)" vector-effect="non-scaling-stroke" stroke-width="2" stroke="rgb(255,255,255)" stroke-linejoin="round" stroke-linecap="butt" stroke-miterlimit="4"/><path d=" M 209.454 360.157 C 207.3 359.486 206.046 360.889 206.046 360.889 L 206.046 330.734 C 206.046 330.734 207.353 329.551 209.63 330.549 C 217.663 334.054 238.373 341.16 256.01 341.16 C 273.648 341.16 294.357 334.054 302.39 330.549 C 304.668 329.551 305.974 330.726 305.974 330.726 L 305.974 360.889 C 305.974 360.889 304.721 359.477 302.567 360.157 C 294.004 362.814 271.618 369.426 256.01 369.426 C 240.403 369.426 218.016 362.814 209.454 360.166 L 209.454 360.157 Z " fill="rgb(0,50,113)"/></g><path d=" M 256.01 39.724 L 276.765 103.601 L 222.428 64.123 L 289.593 64.123 L 235.255 103.601 L 256.01 39.724 Z " fill="rgb(254,197,0)"/><g><path d=" M 356.511 64.493 L 345.206 130.699 L 315.437 70.492 L 374.909 101.703 L 308.45 111.41 L 356.511 64.493 Z " fill="rgb(254,197,0)"/><path d=" M 433.992 133.127 L 393.217 186.498 L 394.834 119.353 L 432.992 174.625 L 369.633 152.337 L 433.992 133.127 Z " fill="rgb(254,197,0)"/><path d=" M 470.711 229.942 L 409.8 258.242 L 442.444 199.544 L 450.536 266.22 L 404.798 217.035 L 470.711 229.942 Z " fill="rgb(254,197,0)"/><path d=" M 458.231 332.695 L 391.145 329.449 L 447.327 292.643 L 423.509 355.443 L 405.865 290.637 L 458.231 332.695 Z " fill="rgb(254,197,0)"/><path d=" M 399.432 417.881 L 341.537 383.833 L 408.388 377.349 L 358.116 421.889 L 372.607 356.306 L 399.432 417.881 Z " fill="rgb(254,197,0)"/><path d=" M 307.783 465.988 L 272.34 408.936 L 334.548 434.259 L 269.336 450.337 L 312.643 398.999 L 307.783 465.988 Z " fill="rgb(254,197,0)"/></g><g><path d=" M 155.523 64.53 L 166.828 130.736 L 196.597 70.529 L 137.125 101.739 L 203.584 111.447 L 155.523 64.53 Z " fill="rgb(254,197,0)"/><path d=" M 78.042 133.163 L 118.817 186.534 L 117.2 119.389 L 79.042 174.661 L 142.401 152.374 L 78.042 133.163 Z " fill="rgb(254,197,0)"/><path d=" M 41.323 229.979 L 102.235 258.279 L 69.591 199.581 L 61.498 266.256 L 107.236 217.071 L 41.323 229.979 Z " fill="rgb(254,197,0)"/><path d=" M 53.803 332.732 L 120.889 329.486 L 64.708 292.68 L 88.525 355.479 L 106.169 290.673 L 53.803 332.732 Z " fill="rgb(254,197,0)"/><path d=" M 112.602 417.917 L 170.497 383.869 L 103.646 377.385 L 153.918 421.925 L 139.427 356.342 L 112.602 417.917 Z " fill="rgb(254,197,0)"/><path d=" M 204.252 466.024 L 239.694 408.973 L 177.486 434.296 L 242.698 450.374 L 199.391 399.036 L 204.252 466.024 Z " fill="rgb(254,197,0)"/></g><path d=" M 285.36 340.057 C 290.337 338.702 295.268 337.18 300.181 335.607 C 300.247 337.13 300.299 338.657 300.338 340.188 C 297.217 341.149 294.098 342.1 290.976 343.009 C 290.984 344.136 290.989 345.263 290.991 346.392 C 293.898 345.556 296.806 344.688 299.72 343.817 C 299.736 345.283 299.74 346.752 299.732 348.225 C 296.808 349.068 293.895 349.917 290.984 350.741 C 290.977 352.143 290.965 353.547 290.948 354.953 C 294.17 354.056 297.394 353.135 300.634 352.24 C 300.598 353.887 300.546 355.538 300.479 357.195 C 295.406 358.531 290.362 359.971 285.296 361.301 C 285.371 354.204 285.393 347.123 285.36 340.057 L 285.36 340.057 Z  M 262.413 344.584 C 265.595 344.291 268.763 343.812 271.91 343.214 C 273.969 342.822 275.497 343.045 276.511 343.95 C 276.876 344.272 277.175 344.669 277.407 345.141 C 277.827 345.989 278.035 347.08 278.033 348.418 C 278.032 349.735 277.819 350.925 277.398 351.983 C 277.137 352.645 276.795 353.255 276.371 353.812 C 275.279 355.254 273.596 356.221 271.321 356.623 C 270.29 356.805 269.256 356.973 268.218 357.125 C 268.207 359.736 268.183 362.348 268.147 364.962 C 266.24 365.23 264.325 365.442 262.405 365.59 C 262.498 358.578 262.501 351.576 262.413 344.584 L 262.413 344.584 Z  M 268.224 352.85 C 268.689 352.78 269.153 352.708 269.616 352.632 C 270.709 352.454 271.475 352.096 271.914 351.583 C 272.354 351.059 272.573 350.453 272.572 349.771 C 272.57 349.107 272.378 348.581 271.993 348.192 C 271.607 347.801 270.887 347.707 269.825 347.886 C 269.286 347.977 268.746 348.064 268.205 348.147 C 268.216 349.714 268.222 351.282 268.224 352.85 L 268.224 352.85 Z  M 235.624 352.953 C 235.607 349.51 236.433 347.025 238.105 345.447 C 239.784 343.861 242.11 343.359 245.122 343.773 C 248.203 344.196 250.585 345.311 252.269 347.27 C 253.953 349.219 254.811 351.832 254.813 355.201 C 254.814 357.645 254.438 359.65 253.696 361.196 C 252.963 362.732 251.901 363.908 250.522 364.684 C 249.151 365.452 247.445 365.733 245.403 365.477 C 243.331 365.217 241.607 364.562 240.243 363.574 C 238.885 362.585 237.778 361.175 236.924 359.367 C 236.071 357.56 235.637 355.414 235.624 352.953 L 235.624 352.953 Z  M 241.276 354.087 C 241.284 356.205 241.638 357.79 242.331 358.823 C 243.032 359.857 243.979 360.462 245.171 360.616 C 246.397 360.774 247.347 360.422 248.018 359.586 C 248.69 358.749 249.024 357.155 249.021 354.815 C 249.018 352.843 248.662 351.377 247.951 350.399 C 247.249 349.412 246.295 348.848 245.089 348.685 C 243.934 348.529 243.01 348.847 242.312 349.661 C 241.615 350.474 241.268 351.946 241.276 354.087 Z  M 211.098 335.263 C 212.909 335.913 214.729 336.541 216.557 337.144 C 216.498 339.605 216.462 342.076 216.448 344.555 C 218.481 345.198 220.516 345.82 222.552 346.413 C 222.551 343.947 222.558 341.487 222.578 339.033 C 224.431 339.583 226.292 340.106 228.161 340.601 C 228.158 347.614 228.196 354.656 228.275 361.726 C 226.403 361.246 224.535 360.741 222.67 360.219 C 222.624 357.342 222.591 354.474 222.572 351.614 C 220.531 351.028 218.491 350.416 216.45 349.788 C 216.47 352.669 216.519 355.562 216.597 358.467 C 214.748 357.922 212.903 357.37 211.06 356.821 C 210.758 349.533 210.771 342.347 211.098 335.263 L 211.098 335.263 Z " fill="rgb(254,197,0)"/></g></g></g></svg>