<?xml version="1.0" encoding="UTF-8" standalone="no"?><!-- Generator: Gravit.io --><svg xmlns="http://www.w3.org/2000/svg" xmlns:xlink="http://www.w3.org/1999/xlink" style="isolation:isolate" viewBox="0 0 512 512" width="512pt" height="512pt"><defs><clipPath id="_clipPath_OHcu5R1CxnBSVdpxOaxFmfvqftHopyu9"><rect width="512" height="512"/></clipPath></defs><g clip-path="url(#_clipPath_OHcu5R1CxnBSVdpxOaxFmfvqftHopyu9)"><clipPath id="_clipPath_YuRrCpRSEwgCxvqORjQ96ajjR2zQFCnU"><circle vector-effect="non-scaling-stroke" cx="255.99999999999994" cy="255.99999999999994" r="255.99999999999994" fill="rgb(255,255,255)"/></clipPath><g clip-path="url(#_clipPath_YuRrCpRSEwgCxvqORjQ96ajjR2zQFCnU)"><rect x="0" y="0" width="512" height="512" transform="matrix(1,0,0,1,0,0)" fill="rgb(0,51,102)"/><g><rect x="46" y="46" width="420" height="420" transform="matrix(1,0,0,1,0,0)" fill="rgb(0,51,102)"/><path d=" M 55.157 121.252 C 36.966 181.895 110.109 230.895 159.931 186.928 C 212.18 132.065 153.871 57.967 93.319 81.62 C 137.513 74.021 163.855 125.084 134.138 156.946 C 105.434 186.268 53.089 166.999 55.157 121.252 Z " fill-rule="evenodd" fill="rgb(255,255,255)"/><path d=" M 374.357 113.734 C 372.039 114.812 370.327 117.947 369.349 120.422 C 367.027 127.33 364.64 134.225 362.308 141.121 C 361.09 144.222 359.915 147.378 358.689 150.455 C 356.438 150.151 359.577 146.306 359.404 144.661 C 360.148 141.284 361.801 137.983 361.942 134.537 C 361.377 131.956 362 128.607 360.718 126.507 C 358.806 130.919 356.384 135.146 354.738 139.658 C 353.501 145.072 351.839 150.39 351.145 155.915 C 350.73 158.775 350.228 161.595 349.299 164.337 C 347.009 164.123 347.614 160.088 346.267 158.424 C 345.045 154.537 342.583 151.174 340.805 147.525 C 339.896 146.622 337.807 140.269 337.845 143.809 C 337.64 146.367 337.464 148.928 337.23 151.483 C 332.141 141.972 327.036 132.469 321.941 122.962 C 322.356 126.05 321.928 129.379 323.05 132.297 C 325.522 137.625 327.78 143.049 330.14 148.425 C 328.898 149.601 328.648 147.658 328.027 146.869 C 323.32 138.557 318.612 130.245 313.904 121.933 C 312.003 123.269 313.327 125.732 313.082 127.658 C 313.858 130.358 315.648 132.776 316.866 135.334 C 319.094 139.502 321.384 143.651 323.673 147.776 C 322.033 149.584 321.14 144.464 319.966 143.311 C 315.708 135.926 311.495 128.514 307.112 121.203 C 305.191 121.866 304.597 123.273 304.92 125.135 C 304.602 126.999 305.375 128.586 306.454 130.084 C 309.748 135.785 313.072 141.468 316.394 147.154 C 315.268 148.46 314.924 146.552 314.268 145.788 C 308.924 137.331 303.58 128.875 298.236 120.418 C 296.936 119.833 295.097 118.272 295.513 120.864 C 294.895 124.108 298.42 126.376 299.573 129.181 C 304.326 136.536 309.225 143.93 313.958 151.213 C 312.967 152.548 312.513 150.843 311.874 150.109 C 308.87 145.85 305.867 141.59 302.863 137.331 C 301.742 137.039 300.301 136.31 300.725 138.13 C 300.65 139.285 300.342 140.503 301.323 141.373 C 306.127 148.584 311.022 155.758 315.771 162.991 C 317.311 166.143 318.715 169.389 320.34 172.482 C 323.084 175.305 325.827 178.129 328.571 180.952 C 326.601 182.538 324.606 177.504 322.644 176.595 C 320.567 174.257 317.773 172.388 316.6 169.394 C 315.175 167.167 314.357 164.507 312.159 162.878 C 309.724 161.05 307.853 157.722 305.028 156.895 C 304.115 158.909 304.86 163.437 307.594 164.993 C 307.867 165.744 311.701 168.326 309.596 167.796 C 305.468 167.343 301.59 165.898 297.722 164.472 C 295.384 166.715 303.303 168.51 298.858 169.424 C 295.644 169.468 293.164 166.553 290.226 165.474 C 282.903 161.469 275.399 157.78 267.911 154.108 C 266.356 153.639 264.802 153.17 263.247 152.701 C 262.814 155.413 267.052 156.178 268.46 158.096 C 274.141 161.164 279.961 164.07 285.653 167.151 C 285.471 168.862 283.926 167.569 282.894 167.403 C 272.241 163.973 261.588 160.542 250.934 157.112 C 249.145 156.684 249.457 157.623 250.181 158.83 C 250.359 160.226 251.746 160.296 252.829 160.699 C 261.191 163.505 269.546 166.335 277.914 169.127 C 278.243 170.445 278.519 171.776 278.807 173.105 C 276.906 171.539 275.032 169.748 272.428 169.579 C 266.982 168.23 261.37 169.373 255.848 169.436 C 252.901 168.73 252.519 171.109 255.454 171.616 C 257.812 173.449 260.852 172.42 263.593 172.565 C 268.051 172.432 272.509 172.289 276.967 172.13 C 277.756 174.67 272.614 172.97 272.419 175.033 C 271.905 177.482 276.527 177.483 278.195 176.982 C 280.745 177.025 282.512 173.246 284.679 173.889 C 284.112 176.313 279.856 176.855 279.373 179.363 C 279.053 181.875 284.18 181.136 285.655 180.062 C 287.366 178.641 290.312 176.494 290.47 180.303 C 290.968 183.744 295.518 182.412 297.992 183.577 C 302.403 184.249 306.918 184.529 311.288 185.251 C 315.469 187.148 319.663 189.031 323.835 190.937 C 322.977 193.305 319.3 189.715 317.395 189.855 C 314.238 188.974 311.329 187.182 307.976 187.149 C 305.077 186.616 302.165 186.678 299.255 187.017 C 290.44 187.753 281.607 188.351 272.803 189.174 C 264.608 190.558 256.394 191.883 248.201 193.237 C 246.12 193.884 241.595 195.103 245.928 195.944 C 255.231 195.507 264.515 194.724 273.8 194.022 C 274.472 195.646 272.477 195.092 271.477 195.351 C 263.755 196.135 256.032 196.919 248.31 197.702 C 245.932 199.46 242.759 200.428 241.463 203.304 C 241.836 207.398 246.961 203.654 249.5 203.926 C 256.182 202.803 262.839 201.739 269.281 199.678 C 271.201 199.831 276 196.403 276.29 198.866 C 269.005 201.113 261.702 203.391 254.355 205.428 C 252.791 205.793 251.227 206.159 249.663 206.524 C 249.206 210.284 254.893 208.091 257.212 208.689 C 262.311 207.497 267.169 205.44 272.208 204.01 C 274.895 203.79 278.966 200.64 280.913 201.933 C 279.183 203.7 275.165 204.631 272.653 206.093 C 267.469 208.361 262.211 210.444 257.158 213.019 C 253.83 216.39 260.694 216.081 262.38 214.335 C 267.778 211.859 273.109 209.245 278.428 206.578 C 279.731 207.657 277.815 208.172 277.136 208.912 C 274.123 211.27 271.184 213.71 267.824 215.565 C 266.523 216.61 264.395 216.975 264.14 218.891 C 267.091 220.569 269.911 218.534 272.556 217.213 C 279.47 212.737 286.463 208.358 293.5 204.089 C 296.543 202.726 299.665 201.546 302.755 200.3 C 303.949 201.492 301.998 201.854 301.258 202.554 C 297.862 204.826 294.453 207.083 291.065 209.365 C 287.361 213.196 284.008 217.409 279.634 220.519 C 277.594 222.225 275.512 223.761 273.9 225.643 C 270.702 228.86 267.39 231.962 264.221 235.208 C 263.232 238.487 261.126 241.569 261.359 245.087 C 261.399 248.874 260.969 252.703 261.325 256.465 C 261.714 258.028 262.616 261.592 262.921 258.029 C 263.093 256.4 264.218 250.783 265.424 254.724 C 266.087 256.199 266.74 260.644 267.525 259.873 C 268.677 257.592 268.89 254.391 270.743 252.662 C 272.393 253.625 273.697 256.002 275.27 253.268 C 277.266 250.944 276.97 247.452 277.963 244.622 C 278.819 240.951 279.677 237.281 280.539 233.612 C 282.102 233.159 281.732 235.053 282.122 236.025 C 282.622 238.287 283.123 240.55 283.623 242.812 C 287.037 241.333 285.644 236.718 286.744 233.798 C 286.963 231.61 287.659 225.849 290.008 230.247 C 291.389 233.557 295.213 229.741 295.097 227.334 C 295.878 223.519 296.625 219.698 297.424 215.887 C 298.449 217.713 299.517 219.513 300.563 221.326 C 304.128 221.161 305.354 217.586 307.667 215.466 C 309.745 213.309 311.598 210.81 313.904 208.933 C 316.532 207.578 318.994 205.769 321.697 204.603 C 324.335 207.041 320.354 210.332 318.856 212.423 C 315.512 216.555 311.385 219.958 307.884 223.958 C 306.502 225.553 304.34 226.892 304.92 229.266 C 306.677 230.049 308.509 230.761 310.278 231.555 C 307.606 232.895 304.734 234.047 302.268 235.668 C 299.881 237.733 297.303 239.566 294.799 241.486 C 294.123 243.303 293.687 245.355 296.374 244.599 C 298.293 244.269 303.461 245.089 299.4 246.979 C 295.583 249.474 291.163 251.031 287.385 253.501 C 286.338 254.898 283.53 257.09 286.952 256.992 C 289.237 256.663 292.659 253.18 294.357 254.943 C 291.954 257.598 288.841 260.159 286.212 262.812 C 284.873 263.848 281.903 266.729 283.661 267.539 C 287.826 265.547 290.753 261.804 294.302 258.952 C 295.549 256.971 298.891 255.211 297.832 259.073 C 293.712 264.202 289.73 269.478 285.491 274.473 C 285.917 279.489 289.143 273.033 290.732 271.687 C 293.21 268.762 295.513 265.628 298.752 263.489 C 299.877 263.245 302.842 259.02 302.999 260.747 C 302.923 262.184 303.367 263.787 302.146 264.905 C 299.584 268.358 297.872 272.308 295.774 276.042 C 295.427 277.654 295.068 282.286 297.397 280.101 C 300.17 274.93 303.553 270.093 305.737 264.617 C 307.975 259.921 309.484 254.879 311.36 250.064 C 312.939 247.708 313.711 248.507 313.491 250.97 C 313.745 253.26 313.649 258.161 315.23 258.507 C 318.104 251.94 321.713 245.729 324.777 239.259 C 325.838 236.103 327.098 233.002 328.408 229.931 C 330.059 229.758 329.301 231.551 329.464 232.592 C 329.353 234.68 329.685 236.841 329.301 238.884 C 327.52 243.998 326.185 249.272 323.702 254.113 C 322.196 257.226 320.068 260.031 318.612 263.162 C 317.153 265.062 317.695 265.076 319.339 263.959 C 322.246 262.628 324.199 260.132 326.215 257.757 C 329.386 255.214 327.031 260.996 326.3 262.223 C 324.576 267.112 323.46 272.242 321.508 277.071 C 321.484 278.534 320.976 281.898 322.841 279.323 C 326.34 276.587 327.614 272.204 329.707 268.465 C 330.977 270.32 333.365 271.392 334.521 269.105 C 334.327 266.217 332.995 263.223 334.296 260.426 C 335.58 255.799 336.634 251.085 337.359 246.343 C 337.707 243.46 337.901 240.544 338.258 237.671 C 339.863 236.844 339.185 239.391 339.314 240.358 C 339.314 242.556 339.314 244.754 339.314 246.952 C 340.885 247.125 343.77 244.34 344.59 246.168 C 343.004 247.527 340.582 248.368 339.145 249.846 C 339.084 251.687 339.023 253.528 338.962 255.368 C 340.919 254.178 342.877 252.987 344.834 251.796 C 346.222 252.772 344.382 253.448 343.753 254.255 C 342.147 255.754 340.541 257.252 338.935 258.751 C 338.908 260.05 338.881 261.349 338.854 262.647 C 340.214 262.22 341.586 261.822 342.94 261.376 C 344.056 262.646 342.13 262.933 341.332 263.595 C 340.429 264.433 338.4 264.578 338.693 266.155 C 338.591 270.119 338.445 274.081 338.285 278.045 C 339.001 276.628 341.525 273.217 341.156 273.023 C 340.329 274.643 337.317 274.751 339.368 273.066 C 340.22 272.03 344.867 268.723 343.226 272.028 C 341.627 274.334 340.237 277.405 338.558 279.3 C 338.08 279.253 337.507 282.644 338.955 281.974 C 340.156 282.792 343.864 283.165 341.303 284.588 C 340.207 285.688 338.835 286.667 337.907 287.841 C 337.983 291.159 337.146 296.685 337.796 298.612 C 338.774 297.236 341.996 294.752 341.32 294.102 C 339.961 294.751 335.821 294.442 338.718 293.388 C 340.483 292.719 345.414 292.53 342.263 295.309 C 340.584 298.302 336.587 299.243 337.342 302.517 C 337.357 304.932 336.368 306.407 339.324 305.965 C 342.707 305.669 342.943 308.966 339.893 309.867 C 337.796 311.091 335.963 311.011 337.23 313.792 C 337.883 315.618 342.394 316.851 341.262 318.744 C 341.093 316.609 340.614 319.567 339.446 317.426 C 338.009 316.28 336.16 313.556 336.767 317.169 C 336.503 324.062 336.231 330.955 335.958 337.848 C 337.38 337.413 339.902 339.405 339.927 340.328 C 338.461 341.688 334.961 335.749 335.871 340.452 C 335.92 342.57 335.363 346.485 335.794 347.471 C 336.5 346.877 337.62 348.575 338.486 348.868 C 339.475 349.551 340.463 350.235 341.451 350.918 C 340.907 352.598 339.748 350.867 338.82 350.42 C 337.731 349.666 336.641 348.912 335.552 348.158 C 335.808 350.961 334.577 356.117 335.705 357.567 C 336.991 358.514 340.351 361.24 340.268 362.764 C 338.605 363.208 336.204 358.247 335.157 358.53 C 334.996 362.713 334.846 366.896 334.686 371.078 C 336.433 371.664 339.969 373.938 340.891 375.369 C 339.314 376.706 335.983 371.742 334.618 372.372 C 334.37 375.751 334.573 379.205 334.089 382.545 C 333.449 384.973 340.138 384.374 338.691 386.855 C 336.224 386.041 332.8 382.512 332.781 387.073 C 332.254 390.709 328.944 394.422 331.52 397.868 C 332.512 400.666 335.69 401.858 338.069 403.28 C 340.879 402.837 343.576 401.448 346.502 401.339 C 350.815 400.67 355.202 400.43 359.501 399.735 C 361.317 398.411 363.568 397.162 360.83 395.463 C 358.65 392.787 359.168 388.973 357.904 385.935 C 357.901 383.462 357.393 382.387 355.217 384.172 C 353.512 384.51 350.861 388.147 349.894 385.88 C 352.443 384.647 354.755 383.043 357.336 381.848 C 357.031 378.612 356.405 375.394 356.47 372.134 C 354.431 373.449 351.42 376.183 349.463 375.805 C 350.261 373.985 354.16 373.183 355.821 371.268 C 357.028 371.252 356.239 369.54 356.444 368.528 C 356.417 365.707 356.389 362.886 356.362 360.065 C 354.473 362.197 352.212 363.717 349.353 364.178 C 347.227 362.319 352.599 362.989 353.293 361.406 C 354.578 359.953 356.955 359.049 356.318 356.778 C 356.297 354.284 356.275 351.789 356.254 349.295 C 354.592 350.398 351.547 354.356 349.942 352.717 C 351.677 351.17 355.434 349.691 356.221 347.378 C 356.186 344.138 356.152 340.899 356.118 337.659 C 354.327 340.052 351.882 341.691 348.988 342.446 C 347.569 344.021 344.671 342.622 347.559 341.834 C 350.376 340.9 353.221 339.88 354.973 337.319 C 356.565 336.466 356.03 334.949 356.087 333.378 C 356.061 331.071 356.036 328.763 356.01 326.456 C 352.645 329.439 349.606 332.747 346.268 335.765 C 344.511 333.91 349.533 332.301 350.246 330.461 C 351.907 328.47 354.724 326.546 356.006 324.835 C 355.98 322.318 355.955 319.8 355.929 317.282 C 354.646 318.469 352.57 319.972 355.198 318.554 C 356.375 319.879 354.309 320.014 353.444 320.589 C 352.252 321.148 351.056 321.698 349.867 322.261 C 348.623 319.926 353.893 318.781 354.943 316.725 C 356.366 317.075 355.838 315.735 355.903 314.352 C 355.885 312.595 355.866 310.839 355.848 309.083 C 354.09 312.284 350.587 310.428 347.791 309.847 C 345.727 309.678 347.67 309.048 348.527 308.538 C 350.742 307.349 352.956 306.159 355.171 304.97 C 356.42 306.23 354.36 306.469 353.525 307.087 C 352.216 307.779 350.906 308.472 349.597 309.164 C 352.052 310.54 355.062 309.659 355.815 307.274 C 355.822 303.056 355.7 298.911 355.496 294.687 C 353.555 296.637 352.441 298.769 350.03 299.639 C 351.158 299.117 355.81 299.795 352.682 300.613 C 350.887 300.972 344.897 301.2 349.089 298.914 C 351.23 298.073 352.62 296.51 353.981 294.714 C 355.6 293.781 355.585 293.149 355.365 291.244 C 355.256 288.648 355.146 286.053 355.036 283.457 C 354.053 284.665 349.869 287.972 350.936 287.969 C 352.189 287.179 357.099 286.95 354.18 288.368 C 352.307 288.249 348.26 290.857 347.594 288.571 C 350.203 287.073 352.121 284.734 354.3 282.672 C 355.576 282.836 354.735 280.96 354.895 279.801 C 354.581 272.008 354.267 264.216 353.953 256.424 C 352.728 257.512 347.596 261.659 349.472 257.542 C 350.73 256.101 352.012 253.579 353.409 253.088 C 354.323 252.619 353.489 250.918 353.702 249.954 C 353.913 247.569 352.458 245.537 351.747 243.348 C 351.697 242.454 350.02 240.89 351.446 240.625 C 352.998 241.943 353.733 245.523 354.991 247.642 C 356.904 252.07 359.089 256.4 360.773 260.916 C 361.703 264.673 362.694 268.418 362.829 272.308 C 363.785 271.96 365.567 272.536 365.501 271.047 C 365.724 269.581 366.783 268.07 365.853 266.667 C 361.662 255.262 356.896 244.084 352.465 232.773 C 353.516 231.681 353.864 233.17 354.277 234.056 C 356.854 239.195 358.538 244.722 360.686 250.051 C 362.865 255.83 365.157 261.576 367.781 267.167 C 371.819 264.818 368.48 260.611 367.91 257.194 C 366.023 250.943 363.472 244.913 361.285 238.762 C 360.636 237.669 359.218 237.156 358.274 236.286 C 356.884 235.261 355.459 234.222 354.089 233.206 C 355.228 231.055 357.756 234.836 359.503 235.023 C 362.508 238.189 363.248 233.322 365.915 232.763 C 366.662 235.507 361.594 237.727 364.293 240.896 C 366.238 247.531 367.983 254.234 370.559 260.661 C 370.985 261.82 371.416 262.976 371.84 264.136 C 370.969 265.388 372.21 270.749 373.986 269.367 C 374.595 266.473 376.446 263.609 374.874 260.684 C 372.567 251.866 369.4 243.301 366.734 234.588 C 366.769 231.412 368.753 235.941 368.974 237.306 C 372.039 245.63 375.355 253.877 378.064 262.323 C 377.488 264.803 377.507 270.05 380.743 267.085 C 380.888 263.773 381.147 260.381 379.769 257.262 C 376.967 249.805 374.739 242.129 372.246 234.559 C 370.822 236.108 368.144 234.624 367.728 232.913 C 368.206 229.152 365.1 229.257 362.295 229.498 C 361.068 229.379 364.437 227.621 364.832 226.982 C 366.347 226.149 369.577 223.6 366.462 222.916 C 365.467 222.459 364.478 221.991 363.479 221.543 C 364.965 218.985 366.504 216.474 368.473 214.248 C 369.686 212.037 368.765 208.07 366.412 206.721 C 364.705 205.784 364.897 203.621 364.222 202.019 C 363.331 201.075 364.225 199.257 364.935 200.625 C 365.379 202.15 365.822 203.674 366.266 205.198 C 368.836 206.577 370.029 208.84 369.969 211.694 C 371.142 214.357 368.052 215.972 366.913 217.988 C 366.234 218.976 365.661 220.04 365.021 221.056 C 366.452 221.73 367.913 222.343 369.324 223.058 C 369.62 225.747 364.979 227.525 365.319 228.443 C 369.823 227.234 367.089 233.512 370.489 234.027 C 371.644 234.015 372.649 232.866 373.743 232.389 C 375.694 232.757 372.924 233.666 373.383 234.538 C 377.019 244.424 380.752 254.318 384.207 264.244 C 383.878 267.835 387.299 268.304 389.43 269.791 C 389.725 271.706 390.641 275.342 392.661 274.561 C 392.747 269.439 393.069 264.288 393.083 259.184 C 393.375 257.435 390.404 253.198 392.839 252.987 C 394.206 256.992 396.016 260.896 396.955 265.019 C 397.616 267.696 396.298 272.046 400.139 272.445 C 401.833 273.134 400.522 266.979 402.337 268.655 C 403.339 269.449 404.34 270.242 405.341 271.036 C 409.405 271.134 406.383 266.677 406.451 264.406 C 405.172 261.229 403.959 258.012 402.689 254.827 C 404.581 254.044 401.673 255.104 402.221 253.075 C 401.784 249.932 399.748 247.569 397.925 245.112 C 397.152 243.447 397.203 241.475 395.76 243.84 C 394.042 245.263 394.798 247.61 396.004 249.11 C 397.964 252.144 397.77 256.153 400.218 258.896 C 401.294 260.663 402.739 262.445 402.364 264.637 C 402.46 265.646 402.54 267.652 401.282 266.681 C 401.114 264.969 401.742 263.117 400.682 261.756 C 399.385 259.205 397.522 257.612 397.006 254.746 C 396.444 251.864 394.837 249.4 393.624 246.79 C 393.896 246.157 389.58 247.138 389.915 245.789 C 391.109 245.621 390.897 245.095 392.92 245.545 C 394.452 244.25 394.437 241.811 393.407 240.187 C 391.375 235.633 388.245 231.641 385.966 227.225 C 385.391 224.344 386.536 220.796 383.772 218.788 C 380.917 216.007 379.472 212.256 377.875 208.689 C 376.04 206.132 373.053 204.625 370.92 202.303 C 369.759 202.67 365.382 202.807 367.555 201.496 C 370.551 200.298 372.612 202.007 374.519 204.035 C 376.693 205.725 379.001 207.472 379.73 210.248 C 381.085 213.488 382.85 216.486 385.362 218.973 C 387.574 221.05 386.431 224.371 387.021 227.036 C 389.745 231.976 393.388 236.486 395.22 241.865 C 394.824 244.218 395.87 241.112 396.988 241.386 C 396.882 238.722 397.809 235.121 396.086 232.637 C 394.287 229.293 392.193 226.068 390.566 222.652 C 389.434 220.214 388.049 217.164 386.787 214.503 C 385.462 211.428 383.538 208.667 381.717 205.875 C 383.532 203.977 384.477 209.444 385.885 210.394 C 389.054 215.999 391.048 222.192 394.512 227.639 C 395.523 230.031 397.666 232.128 398.118 234.675 C 398.467 236.197 397.514 241.129 398.75 240.72 C 399.367 239.531 399.995 238.348 400.606 237.157 C 401.593 236.688 403.547 236.987 403.784 235.906 C 404.127 232.583 400.78 230.163 400.443 226.901 C 399.497 222.45 397.714 218.242 395.501 214.283 C 393.126 209.069 389.64 204.439 387.761 198.997 C 387.263 195.822 389.838 199.875 389.892 201.357 C 391.719 205.515 394.388 209.251 396.276 213.397 C 398.074 216.77 399.794 220.171 400.783 223.886 C 401.459 227.378 402.901 230.607 404.719 233.666 C 405.031 235.061 404.678 236.149 405.867 236.276 C 406.417 237.558 403.746 236.909 404.802 238.874 C 405.106 240.104 404.483 244.751 403.561 242.107 C 403.642 239.926 404.67 236.38 401.555 238.05 C 400.725 238.768 400.408 240.14 399.77 241.103 C 399.245 242.413 397.284 242.321 398.619 244.18 C 400.366 246.782 402.691 249.097 403.148 252.337 C 403.519 255.225 405.918 257.182 407.369 259.678 C 408.944 261.295 410.789 266.247 412.368 265.358 C 413.074 262.283 410.373 260.231 409.385 257.559 C 407.273 253.041 405.356 248.43 403.339 243.867 C 404.978 245.05 407.067 245.739 408.002 247.68 C 411.756 252.679 415.446 257.729 419.304 262.647 C 423.346 264.589 420.864 259.55 419.629 257.966 C 416.546 251.745 412.326 246.18 408.684 240.28 C 407.893 239.473 405.363 235.547 407.726 236.756 C 411.883 241.887 416.04 247.017 420.197 252.148 C 421.602 253.108 424.139 253.907 423.295 251.517 C 419.729 245.007 415.19 239.096 411.221 232.826 C 407.071 226.923 403.545 220.612 399.821 214.426 C 401.781 212.84 404.352 216.822 406.537 217.342 C 410.03 219.251 413.144 221.688 416.005 224.443 C 420.826 228.635 425.46 233.071 430.469 237.029 C 432.965 238.396 434.912 240.785 437.597 241.676 C 437.642 240.774 434.852 237.387 436.024 237.409 C 438.838 238.201 441.498 239.37 444.097 240.669 C 445.839 241.527 451.287 243.576 448.557 240.025 C 447.688 238.248 443.549 237.286 444.225 235.359 C 444.993 234.945 446.24 236.243 447.193 236.488 C 449.38 237.803 451.838 238.399 454.347 238.753 C 458.016 238.589 455.711 234.768 453.233 234.743 C 447.546 231.714 441.904 228.595 436.244 225.521 C 437.418 223.144 441.256 226.917 443.469 226.792 C 444.762 226.386 449.512 227.362 447.85 225.12 C 447.146 224.258 445.692 224.23 444.685 223.705 C 436.93 220.896 429.16 218.122 421.415 215.292 C 418.11 213.066 414.751 210.908 411.43 208.716 C 411.937 206.681 415.267 209.303 416.923 209.095 C 419.824 209.853 422.74 210.479 425.754 210.442 C 427.69 210.496 431.749 210.988 432.453 210.666 C 431.171 209.974 425.516 208.337 428.744 207.455 C 430.364 207.355 435.454 207.253 431.115 207.091 C 428.037 206.772 424.82 206.882 421.848 206.064 C 422.228 204.964 423.766 205.379 425.774 205.592 C 427.967 206.344 432.408 205.056 433.265 206.895 C 435.441 207.592 439.264 206.697 442.065 206.866 C 445.94 206.526 450.204 207.06 453.834 206.103 C 455.1 204.131 458.886 203.492 458.817 200.933 C 458.564 198.558 458.537 196.11 458.147 193.78 C 457.34 192.9 457.17 191.11 455.804 191.03 C 452.144 190.43 448.644 189.424 445.174 188.177 C 437.952 188.001 430.7 188.066 423.499 187.636 C 421.165 187.484 418.386 189.598 415.705 189.449 C 411.563 189.865 407.332 189.523 403.314 190.804 C 401.765 192.005 399.612 190.272 402.094 189.963 C 405.197 189.142 408.337 188.58 411.557 188.629 C 414.832 188.524 418.124 188.28 421.16 186.939 C 423.021 185.676 423.433 187.822 423.798 185.48 C 425.501 184.834 430.953 185.291 429.668 183.496 C 422.942 183.724 416.211 183.805 409.481 183.929 C 407.061 183.689 403.975 185.185 401.58 186.337 C 398.773 187.472 401.089 184.627 402.824 184.551 C 405.804 182.784 409.51 183.222 412.404 181.304 C 416.926 179.197 421.175 176.53 425.582 174.214 C 426.727 173.201 429.913 171.621 426.542 171.294 C 423.898 170.684 421.07 172.207 418.33 172.239 C 414.717 172.877 418.334 169.728 419.693 169.121 C 423.912 166.952 428.041 164.58 432.077 162.064 C 433.357 161.087 437.136 160.42 435.919 158.79 C 432.498 159.932 429.112 161.567 425.609 162.524 C 424.425 162.806 419.052 163.47 421.706 161.376 C 426.864 157.969 431.941 154.437 437.056 150.969 C 438.76 148.68 437.525 148.622 435.481 149.556 C 433.112 150.277 431.347 152.213 429.141 153.339 C 428.384 154.667 424.14 155.791 426.393 153.491 C 428.678 151.505 430.91 149.453 433.294 147.587 C 434.5 145.909 435.736 141.913 432.462 143.795 C 430.352 144.906 427.639 145.072 426.169 147.124 C 423.571 149.824 420.924 152.505 418.357 155.218 C 416.481 153.458 421.334 151.517 421.932 149.654 C 424.041 147.239 426.261 144.892 428.153 142.31 C 428.553 140.193 428.646 138.702 426.497 140.177 C 425.452 140.627 424.408 141.076 423.363 141.525 C 423.678 143.709 419.043 145.99 417.572 148.155 C 415.083 150.28 411.698 151.172 409.508 153.702 C 407.758 151.834 412.573 150.416 413.811 149.318 C 417.311 147.615 419.679 144.407 422.497 141.823 C 419.413 142.448 415.86 142.321 414.055 145.395 C 409.386 149.833 404.842 154.427 400.064 158.735 C 394.239 162.775 388.319 166.733 382.34 170.507 C 379.605 171.608 375.719 170.703 374.424 174.001 C 372.139 177.214 369.434 180.088 366.888 183.09 C 369.625 182.487 372.224 183.113 374.695 184.326 C 377.071 185.157 379.09 186.799 381.366 187.825 C 380.858 190.087 377.738 191.801 375.282 191.386 C 373.739 191.344 372.348 190.301 370.866 189.855 C 371.013 188.076 372.522 189.511 373.529 189.763 C 375.507 190.834 378.191 190.417 379.648 188.662 C 378.888 187.1 374.852 185.523 372.51 184.65 C 370.384 183.373 367.949 184.252 365.643 184.28 C 362.917 184.899 366.405 182.484 366.808 181.54 C 369.825 178.149 372.713 174.652 375.331 170.94 C 375.141 168.2 378.179 166.264 379.19 163.736 C 382.167 159.349 383.704 154.179 385.987 149.413 C 386.958 147.424 386.457 145.101 386.71 142.949 C 386.637 141.782 387.051 140.509 386.642 139.414 C 384.524 143.312 382.345 147.207 380.31 151.131 C 377.803 151.276 380.052 147.303 380.774 146.272 C 382.701 142.378 384.874 138.55 386.675 134.626 C 386.728 132.984 386.78 131.342 386.832 129.7 C 385.209 128.289 384.391 133.102 383.103 134.23 C 380.282 138.926 377.677 143.779 374.737 148.387 C 374.448 149.945 371.334 151.077 372.582 148.87 C 376.784 141.14 381.099 133.439 385.409 125.79 C 387.141 122.719 386.585 119.133 386.832 115.764 C 385.171 113.14 384.012 117.176 382.682 118.218 C 380.98 120.332 380.354 123.108 379.046 125.483 C 376.925 130.089 374.726 134.666 372.571 139.252 C 370.16 138.259 373.962 134.658 373.994 132.633 C 376.061 127.292 378.118 121.947 380.175 116.602 C 379.144 114.459 376.83 120.115 375.737 121.419 C 373.774 125.805 371.495 130.042 369.324 134.327 C 367.002 133.315 370.74 129.749 370.639 127.808 C 371.763 124.562 373.243 121.346 374.33 118.145 C 374.166 116.936 375.879 113.795 374.357 113.734 Z  M 389.24 171.968 C 389.775 174.103 386.558 175.077 385.235 176.731 C 383.572 177.351 377.627 178.81 380.186 180.147 C 381.878 179.251 383.573 178.362 385.262 177.461 C 387.424 179.513 390.694 181.708 390.438 184.841 C 388.384 185.356 389.261 180.816 386.816 180.394 C 385.688 178.444 384.263 178.942 382.745 180.015 C 381.539 180.665 380.308 181.27 379.12 181.953 C 377.101 179.196 379.338 176.968 382.243 176.639 C 385.124 176.189 386.801 173.707 388.97 172.049 L 389.029 172 L 389.24 171.968 Z  M 404.556 177.921 C 404.756 180.331 400.518 179.28 399.376 181.313 C 397.527 182.207 395.657 184.953 394.006 184.93 C 392.183 184.575 396.196 182.814 396.836 181.823 C 399.146 179.971 401.504 178.265 404.556 177.921 Z  M 424.202 187.338 M 368.701 189.693 C 371.213 190.637 373.889 191.237 376.015 192.973 C 378.763 193.945 378.893 197.087 379.69 199.46 C 379.767 200.988 378.446 205.851 377.06 204.81 C 377.62 202.569 379.609 199.807 377.929 197.242 C 377.707 194.424 374.781 193.641 372.8 192.282 C 371.307 191.752 369.815 191.223 368.322 190.694 C 368.449 190.36 368.575 190.026 368.701 189.693 Z  M 439.437 189.963 C 444.538 190.172 449.682 190.395 454.753 190.883 C 455.319 191.48 453.734 191.516 453.969 191.83 C 447.399 191.531 440.83 190.733 434.254 191.277 C 431.175 190.881 428.486 193.233 425.367 192.569 C 423.706 192.895 419.88 192.007 422.497 191.316 C 425.484 191.651 428.525 191.687 431.311 190.407 C 433.952 189.926 436.748 190.247 439.437 189.963 Z  M 431.59 194.239 C 436.86 194.989 442.153 195.457 447.48 195.393 C 450.837 195.58 454.764 195.244 457.779 195.78 C 457.278 198.015 452.59 195.859 450.587 196.526 C 444.671 196.456 438.743 196.457 432.889 195.483 C 431.756 195.515 431.404 195.337 431.59 194.239 Z  M 437.299 200.138 C 439.468 202.397 442.572 202.803 445.693 202.297 C 449.365 202.059 453.127 203.053 456.689 201.686 C 459.786 201.398 456.463 203.429 454.842 203.227 C 451.243 203.983 447.564 202.984 443.929 203.439 C 441.025 204.467 438.646 202.019 436.561 201.474 C 435.002 202.395 433.289 202.595 431.527 202.465 C 428.995 202.465 426.463 202.465 423.932 202.465 C 423.419 200.777 425.364 201.547 426.375 201.383 C 428.906 201.364 431.446 201.419 433.971 201.356 C 435.068 200.926 436.135 200.359 437.299 200.138 Z  M 333.847 203.575 C 336.485 204.66 331.704 207.272 332.483 208.989 C 332.6 210.79 332.813 212.07 333.658 209.582 C 334.045 208.418 334.403 207.244 334.822 206.091 C 335.888 207.85 337.289 208.834 339.314 208.851 C 340.179 210.336 340.593 213.7 341.505 210.592 C 342.339 208.988 342.984 207.135 344.185 205.821 C 346.137 206.936 343.914 210.905 344.482 212.937 C 344.322 216.141 345.002 219.347 344.549 222.558 C 344.829 224.47 342.943 229.336 346.342 227.016 C 347.515 226.458 347.669 224.804 348.388 223.758 C 349.689 221.24 349.208 218.172 350.057 215.508 C 352.578 214.862 350.289 222.514 352.722 220.087 C 353.431 217.497 351.513 215.315 351.301 212.45 C 351.301 210.755 351.301 209.059 351.301 207.363 C 352.99 206.85 352.22 208.795 352.384 209.807 C 352.26 211.846 352.474 213.873 353.358 215.752 C 356.138 217.252 355.692 212.082 357.904 211.043 C 360.313 210.08 358.96 205.057 361.395 205.604 C 361.168 208.7 359.445 211.261 357.309 213.37 C 356.434 214.846 356.027 218.405 353.52 216.969 C 355.338 218.834 353.275 222.745 351.031 222.084 C 350.535 220.427 350.495 218.487 350.231 221.32 C 350.152 223.683 348.499 225.554 347.648 227.685 C 345.605 228.807 341.93 230.037 343.274 226.235 C 343.523 222.163 343.819 218.086 343.319 214.02 C 343.271 212.684 343.999 208.483 343.335 209.309 C 342.396 211.209 341.498 213.143 340.558 215.048 C 339.395 213.308 339.858 209.198 337.103 209.615 C 335.576 209.311 335.036 207.488 334.659 209.961 C 333.983 210.692 333.142 214.78 331.926 212.937 C 331.63 210.688 331.816 207.195 329.247 209.934 C 328.775 208.106 328.329 206.271 327.867 204.44 C 329.381 203.522 329.113 205.594 329.515 206.541 C 329.428 209.649 332.752 206.62 333.144 205.009 C 333.377 204.53 333.611 204.052 333.847 203.575 Z  M 376.278 217.294 C 379.162 223.139 382.22 228.917 385.316 234.667 C 386.989 238.747 389.009 242.732 389.714 247.124 C 389.052 249.209 393.968 252.038 391.567 252.581 C 388.917 250.509 388.643 247.219 387.914 244.192 C 386.183 238.792 383.686 233.644 380.915 228.694 C 378.918 225.14 377.221 221.446 375.358 217.835 C 375.665 217.655 375.972 217.475 376.278 217.294 Z  M 370.379 223.68 C 373.137 223.996 367.873 226.865 371.303 227.188 C 373.079 227.48 372.621 229.991 374.23 230.413 C 378.281 230.644 373.792 236.407 377.956 235.56 C 379.955 237.133 377.853 241.206 380.987 242.244 C 383.591 243.496 382.853 246.582 384.07 248.721 C 384.359 250.361 385.298 250.113 386.43 249.305 C 387.272 248.747 388.956 247.878 388.639 249.417 C 387.171 250.148 385.701 250.874 384.234 251.607 C 383.065 249.341 382.024 247.007 381.771 244.436 C 379.478 242.711 377.401 240.792 377.76 237.641 C 378.305 235.224 373.701 237.686 374.916 234.644 C 376.511 231.552 372.942 231.95 372.205 229.875 C 372.001 227.794 368.88 228.134 368.701 226.305 C 369.215 225.401 369.861 224.582 370.379 223.68 Z  M 353.845 253.528 C 353.392 254.874 349.062 258.915 352.264 256.361 C 353.92 255.359 354.157 256.011 353.857 253.79 L 353.849 253.602 L 353.845 253.528 Z  M 353.196 263.135 C 356.326 263.667 349.304 266.68 350.812 266.755 C 351.73 266.088 353.693 266.174 352.674 267.331 C 351.152 267.799 349.63 268.268 348.108 268.736 C 346.974 266.306 351.961 265.093 353.142 263.189 L 353.196 263.135 Z  M 353.52 273.499 C 356.09 273.578 352.113 276.175 351.383 277.287 C 348.579 279.566 354.716 275.027 354.224 277.281 C 353.05 278.105 348.787 280.787 347.314 279.303 C 349.158 277.205 351.8 275.835 353.52 273.499 Z  M 338.096 282.78 C 337.954 284.758 337.576 287.244 339.478 284.785 C 341.595 283.486 339.256 283.544 338.096 282.78 Z  M 337.176 306.729 C 337.13 308.587 336.428 311.543 338.881 309.218 C 340.697 308.429 342.056 307.003 339.135 307.028 C 338.483 306.922 337.827 306.83 337.176 306.729 Z  M 336.716 327.024 C 338.349 328.02 342.519 328.269 342.414 330.129 C 341.245 329.948 336.922 328.951 336.716 327.543 C 336.716 327.37 336.716 327.197 336.716 327.024 Z  M 329.274 395.406 C 322.883 395.582 316.47 395.375 310.088 395.595 C 307.331 397.353 304.144 398.507 301.987 401.051 C 300.355 403.345 304.728 405.31 306.977 404.796 C 308.11 405.548 312.156 404.076 311.469 406.203 C 310.41 409.274 306.956 409.814 304.676 411.669 C 303.27 414.589 306.607 418.216 309.114 415.43 C 310.6 414.019 311.883 413.857 312.935 415.598 C 314.675 416.963 311.717 420.635 315.528 420.437 C 318.017 419.183 320.239 416.992 322.577 415.332 C 324.129 413.348 326.64 411.143 327.624 414.889 C 329.902 416.838 332.76 416.354 335.483 416.174 C 338.827 416.059 342.508 415.611 344.43 412.46 C 347.556 410.967 350.536 414.016 352.112 416.463 C 354.223 417.849 357.742 418.032 356.666 414.521 C 355.837 412.223 356.554 409.794 359.316 411.275 C 362.342 411.852 364.69 414.144 367.592 414.943 C 367.416 412.737 367.386 408.582 370.448 411.405 C 373.03 413.276 375.727 415.09 378.849 415.918 C 378.96 414.614 378.617 413.189 379.038 411.967 C 381.045 409.904 385.06 415.955 384.18 411.344 C 384.598 409.762 382.43 406.262 384.64 406.501 C 387.69 407.787 390.908 408.676 394.165 409.261 C 392.009 405.675 388.16 403.706 384.883 401.305 C 381.72 399.988 378.377 398.944 374.916 399.01 C 371.181 398.669 367.355 398.825 363.67 398.278 C 362.091 397.131 362.352 398.155 362.64 398.491 C 360.436 401.649 356.5 401.037 353.167 401.633 C 348.51 402.078 343.806 402.544 339.395 404.2 C 336.346 404.597 333.649 401.908 331.442 400.032 C 330.473 398.688 330.013 396.923 329.274 395.406 Z " fill-rule="evenodd" fill="rgb(255,255,255)"/></g></g></g></svg>