<?xml version="1.0" encoding="UTF-8" standalone="no"?><!-- Generator: Gravit.io --><svg xmlns="http://www.w3.org/2000/svg" xmlns:xlink="http://www.w3.org/1999/xlink" style="isolation:isolate" viewBox="0 0 512 512" width="512pt" height="512pt"><defs><clipPath id="_clipPath_l7aukiK4D1N1i2qNT3nNxxsDjII9wzZx"><rect width="512" height="512"/></clipPath></defs><g clip-path="url(#_clipPath_l7aukiK4D1N1i2qNT3nNxxsDjII9wzZx)"><clipPath id="_clipPath_gpn5gJz32t38hMYsE0NODsPBDL8agMGZ"><circle vector-effect="non-scaling-stroke" cx="255.99999999999994" cy="255.99999999999994" r="255.99999999999994" fill="rgb(255,255,255)"/></clipPath><g clip-path="url(#_clipPath_gpn5gJz32t38hMYsE0NODsPBDL8agMGZ)"><g><g><rect x="0" y="0" width="447.925" height="512" transform="matrix(1,0,0,1,0,0)" fill="rgb(204,0,0)"/><rect x="447.925" y="0" width="10.665" height="512" transform="matrix(1,0,0,1,0,0)" fill="rgb(255,255,255)"/><rect x="458.676" y="0" width="53.324" height="512" transform="matrix(1,0,0,1,0,0)" fill="rgb(0,45,101)"/></g><g><ellipse vector-effect="non-scaling-stroke" cx="255.9573404432594" cy="255.99999999999997" rx="138.64355940676546" ry="138.66666666666663" fill="rgb(255,255,255)"/><ellipse vector-effect="non-scaling-stroke" cx="255.95734044325945" cy="256" rx="127.97867022162971" ry="128" fill="rgb(0,45,101)"/><g><g><path d=" M 254.31 261.072 L 218.787 309.973 L 243.233 327.737" fill="rgb(255,255,255)"/><path d=" M 254.31 261.072 L 254.31 321.517 L 224.092 321.517" fill="rgb(255,255,255)"/></g><g><path d=" M 296.069 318.558 L 238.592 299.88 L 229.255 328.623" fill="rgb(255,255,255)"/><path d=" M 296.069 318.558 L 238.592 337.237 L 229.255 308.494" fill="rgb(255,255,255)"/></g><g><path d=" M 254.31 376.044 L 254.31 315.6 L 224.092 315.6" fill="rgb(255,255,255)"/><path d=" M 254.31 376.044 L 218.787 327.144 L 243.233 309.38" fill="rgb(255,255,255)"/></g><g><path d=" M 186.742 354.087 L 244.218 335.408 L 234.881 306.665" fill="rgb(255,255,255)"/><path d=" M 186.742 354.087 L 222.264 305.186 L 246.71 322.95" fill="rgb(255,255,255)"/></g><g><path d=" M 186.742 283.03 L 222.264 331.931 L 246.71 314.166" fill="rgb(255,255,255)"/><path d=" M 186.742 283.03 L 244.218 301.708 L 234.881 330.451" fill="rgb(255,255,255)"/></g></g><g><g><path d=" M 252.389 252.037 L 227.808 196.818 L 200.204 209.11" fill="rgb(255,255,255)"/><path d=" M 252.389 252.037 L 200.052 221.814 L 215.16 195.641" fill="rgb(255,255,255)"/></g><g><path d=" M 181.734 259.464 L 226.645 219.019 L 206.426 196.559" fill="rgb(255,255,255)"/><path d=" M 181.734 259.464 L 194.299 200.34 L 223.855 206.624" fill="rgb(255,255,255)"/></g><g><path d=" M 152.837 194.55 L 205.175 224.773 L 220.283 198.599" fill="rgb(255,255,255)"/><path d=" M 152.837 194.55 L 212.94 188.232 L 216.099 218.289" fill="rgb(255,255,255)"/></g><g><path d=" M 205.634 147.004 L 193.069 206.128 L 222.625 212.411" fill="rgb(255,255,255)"/><path d=" M 205.634 147.004 L 230.215 202.223 L 202.61 214.515" fill="rgb(255,255,255)"/></g><g><path d=" M 267.16 182.533 L 207.057 188.851 L 210.216 218.907" fill="rgb(255,255,255)"/><path d=" M 267.16 182.533 L 222.249 222.978 L 202.03 200.518" fill="rgb(255,255,255)"/></g></g><g><g><path d=" M 261.173 254.891 L 321.277 261.209 L 324.435 231.153" fill="rgb(255,255,255)"/><path d=" M 261.173 254.891 L 313.511 224.669 L 328.62 250.842" fill="rgb(255,255,255)"/></g><g><path d=" M 290.07 189.978 L 302.635 249.101 L 332.192 242.818" fill="rgb(255,255,255)"/><path d=" M 290.07 189.978 L 334.981 230.423 L 314.762 252.882" fill="rgb(255,255,255)"/></g><g><path d=" M 360.725 197.405 L 308.388 227.627 L 323.496 253.8" fill="rgb(255,255,255)"/><path d=" M 360.725 197.405 L 336.145 252.624 L 308.54 240.331" fill="rgb(255,255,255)"/></g><g><path d=" M 375.497 266.909 L 330.585 226.464 L 310.366 248.923" fill="rgb(255,255,255)"/><path d=" M 375.497 266.909 L 315.393 260.591 L 318.552 230.534" fill="rgb(255,255,255)"/></g><g><path d=" M 313.97 302.437 L 338.551 247.219 L 310.946 234.926" fill="rgb(255,255,255)"/><path d=" M 313.97 302.437 L 301.405 243.314 L 330.962 237.03" fill="rgb(255,255,255)"/></g></g></g></g></g></g></svg>