<?xml version="1.0" encoding="UTF-8" standalone="no"?>
<!-- Generator: Gravit.io -->
<svg xmlns="http://www.w3.org/2000/svg" xmlns:xlink="http://www.w3.org/1999/xlink" style="isolation:isolate" viewBox="0 0 1416 1000" width="1416pt" height="1000pt">
  <defs>
    <clipPath id="_clipPath_X51SSvDlbvLswvG7NQy1cSijUM3zCbxL">
      <rect width="1416" height="1000"/>
    </clipPath>
  </defs>
  <g clip-path="url(#_clipPath_X51SSvDlbvLswvG7NQy1cSijUM3zCbxL)">
    <rect x="0" y="0" width="1416" height="1000" transform="matrix(1,0,0,1,0,0)" fill="rgb(15,32,75)"/>
    <g>
      <g>
        <path d=" M 1158 130 L 1141.931 179.455 L 1166.659 187.489 L 1158 130 Z " fill="rgb(255,182,18)"/>
        <path d=" M 1158 130 L 1174.069 179.455 L 1149.341 187.489 L 1158 130 Z " fill="rgb(255,182,18)"/>
      </g>
      <g>
        <path d=" M 1207.455 165.931 L 1155.455 165.931 L 1155.455 191.931 L 1207.455 165.931 Z " fill="rgb(255,182,18)"/>
        <path d=" M 1207.455 165.931 L 1165.386 196.496 L 1150.104 175.462 L 1207.455 165.931 Z " fill="rgb(255,182,18)"/>
      </g>
      <g>
        <path d=" M 1108.545 165.931 L 1150.614 196.496 L 1165.896 175.462 L 1108.545 165.931 Z " fill="rgb(255,182,18)"/>
        <path d=" M 1108.545 165.931 L 1160.545 165.931 L 1160.545 191.931 L 1108.545 165.931 Z " fill="rgb(255,182,18)"/>
      </g>
      <g>
        <path d=" M 1188.565 224.069 L 1172.496 174.614 L 1147.768 182.648 L 1188.565 224.069 Z " fill="rgb(255,182,18)"/>
        <path d=" M 1188.565 224.069 L 1146.496 193.504 L 1161.778 172.47 L 1188.565 224.069 Z " fill="rgb(255,182,18)"/>
      </g>
      <g>
        <path d=" M 1127.435 224.069 L 1169.504 193.504 L 1154.222 172.47 L 1127.435 224.069 Z " fill="rgb(255,182,18)"/>
        <path d=" M 1127.435 224.069 L 1143.504 174.614 L 1168.232 182.648 L 1127.435 224.069 Z " fill="rgb(255,182,18)"/>
      </g>
    </g>
    <g>
      <g>
        <path d=" M 229 365 L 219.42 394.483 L 234.162 399.273 L 229 365 Z " fill="rgb(255,182,18)"/>
        <path d=" M 229 365 L 238.58 394.483 L 223.838 399.273 L 229 365 Z " fill="rgb(255,182,18)"/>
      </g>
      <g>
        <path d=" M 258.483 386.42 L 227.483 386.42 L 227.483 401.92 L 258.483 386.42 Z " fill="rgb(255,182,18)"/>
        <path d=" M 258.483 386.42 L 233.403 404.642 L 224.293 392.102 L 258.483 386.42 Z " fill="rgb(255,182,18)"/>
      </g>
      <g>
        <path d=" M 199.517 386.42 L 224.597 404.642 L 233.707 392.102 L 199.517 386.42 Z " fill="rgb(255,182,18)"/>
        <path d=" M 199.517 386.42 L 230.517 386.42 L 230.517 401.92 L 199.517 386.42 Z " fill="rgb(255,182,18)"/>
      </g>
      <g>
        <path d=" M 247.221 421.08 L 237.642 391.597 L 222.9 396.387 L 247.221 421.08 Z " fill="rgb(255,182,18)"/>
        <path d=" M 247.221 421.08 L 222.142 402.858 L 231.252 390.318 L 247.221 421.08 Z " fill="rgb(255,182,18)"/>
      </g>
      <g>
        <path d=" M 210.779 421.08 L 235.858 402.858 L 226.748 390.318 L 210.779 421.08 Z " fill="rgb(255,182,18)"/>
        <path d=" M 210.779 421.08 L 220.358 391.597 L 235.1 396.387 L 210.779 421.08 Z " fill="rgb(255,182,18)"/>
      </g>
    </g>
    <g>
      <g>
        <path d=" M 396 427 L 386.42 456.483 L 401.162 461.273 L 396 427 Z " fill="rgb(255,182,18)"/>
        <path d=" M 396 427 L 405.58 456.483 L 390.838 461.273 L 396 427 Z " fill="rgb(255,182,18)"/>
      </g>
      <g>
        <path d=" M 425.483 448.42 L 394.483 448.42 L 394.483 463.92 L 425.483 448.42 Z " fill="rgb(255,182,18)"/>
        <path d=" M 425.483 448.42 L 400.403 466.642 L 391.293 454.102 L 425.483 448.42 Z " fill="rgb(255,182,18)"/>
      </g>
      <g>
        <path d=" M 366.517 448.42 L 391.597 466.642 L 400.707 454.102 L 366.517 448.42 Z " fill="rgb(255,182,18)"/>
        <path d=" M 366.517 448.42 L 397.517 448.42 L 397.517 463.92 L 366.517 448.42 Z " fill="rgb(255,182,18)"/>
      </g>
      <g>
        <path d=" M 414.221 483.08 L 404.642 453.597 L 389.9 458.387 L 414.221 483.08 Z " fill="rgb(255,182,18)"/>
        <path d=" M 414.221 483.08 L 389.142 464.858 L 398.252 452.318 L 414.221 483.08 Z " fill="rgb(255,182,18)"/>
      </g>
      <g>
        <path d=" M 377.779 483.08 L 402.858 464.858 L 393.748 452.318 L 377.779 483.08 Z " fill="rgb(255,182,18)"/>
        <path d=" M 377.779 483.08 L 387.358 453.597 L 402.1 458.387 L 377.779 483.08 Z " fill="rgb(255,182,18)"/>
      </g>
    </g>
    <g>
      <g>
        <path d=" M 479 516 L 469.42 545.483 L 484.162 550.273 L 479 516 Z " fill="rgb(255,182,18)"/>
        <path d=" M 479 516 L 488.58 545.483 L 473.838 550.273 L 479 516 Z " fill="rgb(255,182,18)"/>
      </g>
      <g>
        <path d=" M 508.483 537.42 L 477.483 537.42 L 477.483 552.92 L 508.483 537.42 Z " fill="rgb(255,182,18)"/>
        <path d=" M 508.483 537.42 L 483.403 555.642 L 474.293 543.102 L 508.483 537.42 Z " fill="rgb(255,182,18)"/>
      </g>
      <g>
        <path d=" M 449.517 537.42 L 474.597 555.642 L 483.707 543.102 L 449.517 537.42 Z " fill="rgb(255,182,18)"/>
        <path d=" M 449.517 537.42 L 480.517 537.42 L 480.517 552.92 L 449.517 537.42 Z " fill="rgb(255,182,18)"/>
      </g>
      <g>
        <path d=" M 497.221 572.08 L 487.642 542.597 L 472.9 547.387 L 497.221 572.08 Z " fill="rgb(255,182,18)"/>
        <path d=" M 497.221 572.08 L 472.142 553.858 L 481.252 541.318 L 497.221 572.08 Z " fill="rgb(255,182,18)"/>
      </g>
      <g>
        <path d=" M 460.779 572.08 L 485.858 553.858 L 476.748 541.318 L 460.779 572.08 Z " fill="rgb(255,182,18)"/>
        <path d=" M 460.779 572.08 L 470.358 542.597 L 485.1 547.387 L 460.779 572.08 Z " fill="rgb(255,182,18)"/>
      </g>
    </g>
    <g>
      <g>
        <path d=" M 563 609 L 553.42 638.483 L 568.162 643.273 L 563 609 Z " fill="rgb(255,182,18)"/>
        <path d=" M 563 609 L 572.58 638.483 L 557.838 643.273 L 563 609 Z " fill="rgb(255,182,18)"/>
      </g>
      <g>
        <path d=" M 592.483 630.42 L 561.483 630.42 L 561.483 645.92 L 592.483 630.42 Z " fill="rgb(255,182,18)"/>
        <path d=" M 592.483 630.42 L 567.403 648.642 L 558.293 636.102 L 592.483 630.42 Z " fill="rgb(255,182,18)"/>
      </g>
      <g>
        <path d=" M 533.517 630.42 L 558.597 648.642 L 567.707 636.102 L 533.517 630.42 Z " fill="rgb(255,182,18)"/>
        <path d=" M 533.517 630.42 L 564.517 630.42 L 564.517 645.92 L 533.517 630.42 Z " fill="rgb(255,182,18)"/>
      </g>
      <g>
        <path d=" M 581.221 665.08 L 571.642 635.597 L 556.9 640.387 L 581.221 665.08 Z " fill="rgb(255,182,18)"/>
        <path d=" M 581.221 665.08 L 556.142 646.858 L 565.252 634.318 L 581.221 665.08 Z " fill="rgb(255,182,18)"/>
      </g>
      <g>
        <path d=" M 544.779 665.08 L 569.858 646.858 L 560.748 634.318 L 544.779 665.08 Z " fill="rgb(255,182,18)"/>
        <path d=" M 544.779 665.08 L 554.358 635.597 L 569.1 640.387 L 544.779 665.08 Z " fill="rgb(255,182,18)"/>
      </g>
    </g>
    <g>
      <g>
        <path d=" M 813 698 L 803.42 727.483 L 818.162 732.273 L 813 698 Z " fill="rgb(255,182,18)"/>
        <path d=" M 813 698 L 822.58 727.483 L 807.838 732.273 L 813 698 Z " fill="rgb(255,182,18)"/>
      </g>
      <g>
        <path d=" M 842.483 719.42 L 811.483 719.42 L 811.483 734.92 L 842.483 719.42 Z " fill="rgb(255,182,18)"/>
        <path d=" M 842.483 719.42 L 817.403 737.642 L 808.293 725.102 L 842.483 719.42 Z " fill="rgb(255,182,18)"/>
      </g>
      <g>
        <path d=" M 783.517 719.42 L 808.597 737.642 L 817.707 725.102 L 783.517 719.42 Z " fill="rgb(255,182,18)"/>
        <path d=" M 783.517 719.42 L 814.517 719.42 L 814.517 734.92 L 783.517 719.42 Z " fill="rgb(255,182,18)"/>
      </g>
      <g>
        <path d=" M 831.221 754.08 L 821.642 724.597 L 806.9 729.387 L 831.221 754.08 Z " fill="rgb(255,182,18)"/>
        <path d=" M 831.221 754.08 L 806.142 735.858 L 815.252 723.318 L 831.221 754.08 Z " fill="rgb(255,182,18)"/>
      </g>
      <g>
        <path d=" M 794.779 754.08 L 819.858 735.858 L 810.748 723.318 L 794.779 754.08 Z " fill="rgb(255,182,18)"/>
        <path d=" M 794.779 754.08 L 804.358 724.597 L 819.1 729.387 L 794.779 754.08 Z " fill="rgb(255,182,18)"/>
      </g>
    </g>
    <g>
      <g>
        <path d=" M 552 740 L 542.42 769.483 L 557.162 774.273 L 552 740 Z " fill="rgb(255,182,18)"/>
        <path d=" M 552 740 L 561.58 769.483 L 546.838 774.273 L 552 740 Z " fill="rgb(255,182,18)"/>
      </g>
      <g>
        <path d=" M 581.483 761.42 L 550.483 761.42 L 550.483 776.92 L 581.483 761.42 Z " fill="rgb(255,182,18)"/>
        <path d=" M 581.483 761.42 L 556.403 779.642 L 547.293 767.102 L 581.483 761.42 Z " fill="rgb(255,182,18)"/>
      </g>
      <g>
        <path d=" M 522.517 761.42 L 547.597 779.642 L 556.707 767.102 L 522.517 761.42 Z " fill="rgb(255,182,18)"/>
        <path d=" M 522.517 761.42 L 553.517 761.42 L 553.517 776.92 L 522.517 761.42 Z " fill="rgb(255,182,18)"/>
      </g>
      <g>
        <path d=" M 570.221 796.08 L 560.642 766.597 L 545.9 771.387 L 570.221 796.08 Z " fill="rgb(255,182,18)"/>
        <path d=" M 570.221 796.08 L 545.142 777.858 L 554.252 765.318 L 570.221 796.08 Z " fill="rgb(255,182,18)"/>
      </g>
      <g>
        <path d=" M 533.779 796.08 L 558.858 777.858 L 549.748 765.318 L 533.779 796.08 Z " fill="rgb(255,182,18)"/>
        <path d=" M 533.779 796.08 L 543.358 766.597 L 558.1 771.387 L 533.779 796.08 Z " fill="rgb(255,182,18)"/>
      </g>
    </g>
    <g>
      <g>
        <path d=" M 740 802 L 730.42 831.483 L 745.162 836.273 L 740 802 Z " fill="rgb(255,182,18)"/>
        <path d=" M 740 802 L 749.58 831.483 L 734.838 836.273 L 740 802 Z " fill="rgb(255,182,18)"/>
      </g>
      <g>
        <path d=" M 769.483 823.42 L 738.483 823.42 L 738.483 838.92 L 769.483 823.42 Z " fill="rgb(255,182,18)"/>
        <path d=" M 769.483 823.42 L 744.403 841.642 L 735.293 829.102 L 769.483 823.42 Z " fill="rgb(255,182,18)"/>
      </g>
      <g>
        <path d=" M 710.517 823.42 L 735.597 841.642 L 744.707 829.102 L 710.517 823.42 Z " fill="rgb(255,182,18)"/>
        <path d=" M 710.517 823.42 L 741.517 823.42 L 741.517 838.92 L 710.517 823.42 Z " fill="rgb(255,182,18)"/>
      </g>
      <g>
        <path d=" M 758.221 858.08 L 748.642 828.597 L 733.9 833.387 L 758.221 858.08 Z " fill="rgb(255,182,18)"/>
        <path d=" M 758.221 858.08 L 733.142 839.858 L 742.252 827.318 L 758.221 858.08 Z " fill="rgb(255,182,18)"/>
      </g>
      <g>
        <path d=" M 721.779 858.08 L 746.858 839.858 L 737.748 827.318 L 721.779 858.08 Z " fill="rgb(255,182,18)"/>
        <path d=" M 721.779 858.08 L 731.358 828.597 L 746.1 833.387 L 721.779 858.08 Z " fill="rgb(255,182,18)"/>
      </g>
    </g>
  </g>
</svg>