<?xml version="1.0" encoding="UTF-8" standalone="no"?><!-- Generator: Gravit.io --><svg xmlns="http://www.w3.org/2000/svg" xmlns:xlink="http://www.w3.org/1999/xlink" style="isolation:isolate" viewBox="0 0 750 500" width="750pt" height="500pt"><defs><clipPath id="_clipPath_FSqANCJxFWzyekm0EpQYT1bpgDFbfODJ"><rect width="750" height="500"/></clipPath></defs><g clip-path="url(#_clipPath_FSqANCJxFWzyekm0EpQYT1bpgDFbfODJ)"><g><rect x="0" y="0" width="750" height="500" transform="matrix(1,0,0,1,0,0)" fill="rgb(0,0,0)"/><path d=" M 0 500 L 0 41.667 L 62.5 83.333 L 62.5 500 L 125 500 L 125 0 L 187.5 0 L 187.5 500 L 250 500 L 250 0 L 312.5 0 L 312.5 500 L 375 500 L 375 0 L 437.5 0 L 437.5 500 L 500 500 L 500 0 L 562.5 0 L 562.5 500 L 625 500 L 625 0 L 687.5 0 L 687.5 500 L 750 500 L 750 458.333 L 62.5 0 L 62.5 83.333 L 687.5 500 L 0 500 Z " fill="rgb(234,170,0)"/><g><path d=" M 375 0 L 562.5 0 L 562.5 250 L 750 250 L 750 125 L 375 125 L 375 0 Z " fill="rgb(255,255,255)"/><path d=" M 562.5 0 L 750 0 L 750 125 L 375 125 L 375 250 L 562.5 250 L 562.5 0 Z " fill="rgb(157,34,53)"/><g><path d=" M 562.5 232.5 C 571.337 232.5 578.5 225.337 578.5 216.5 L 578.5 208.5 L 594 208.5 C 602.837 208.5 610 201.337 610 192.5 C 610 183.663 602.837 176.5 594 176.5 L 578.5 176.5 L 578.5 141 L 678 141 L 678 156.5 C 678 165.337 685.163 172.5 694 172.5 C 702.837 172.5 710 165.337 710 156.5 L 710 141 L 724 141 C 732.837 141 740 133.837 740 125 L 562.5 125 L 562.5 232.5 Z " fill="rgb(157,34,53)"/><path d=" M 562.5 232.5 C 553.663 232.5 546.5 225.337 546.5 216.5 L 546.5 208.5 L 531 208.5 C 522.163 208.5 515 201.337 515 192.5 C 515 183.663 522.163 176.5 531 176.5 L 546.5 176.5 L 546.5 141 L 447 141 L 447 156.5 C 447 165.337 439.837 172.5 431 172.5 C 422.163 172.5 415 165.337 415 156.5 L 415 141 L 401 141 C 392.163 141 385 133.837 385 125 L 562.5 125 L 562.5 232.5 Z " fill="rgb(255,255,255)"/><path d=" M 562.5 17.5 C 571.337 17.5 578.5 24.663 578.5 33.5 L 578.5 41.5 L 594 41.5 C 602.837 41.5 610 48.663 610 57.5 C 610 66.337 602.837 73.5 594 73.5 L 578.5 73.5 L 578.5 109 L 678 109 L 678 93.5 C 678 84.663 685.163 77.5 694 77.5 C 702.837 77.5 710 84.663 710 93.5 L 710 109 L 724 109 C 732.837 109 740 116.163 740 125 L 562.5 125 L 562.5 17.5 Z " fill="rgb(255,255,255)"/><path d=" M 562.5 17.5 C 553.663 17.5 546.5 24.663 546.5 33.5 L 546.5 41.5 L 531 41.5 C 522.163 41.5 515 48.663 515 57.5 C 515 66.337 522.163 73.5 531 73.5 L 546.5 73.5 L 546.5 109 L 447 109 L 447 93.5 C 447 84.663 439.837 77.5 431 77.5 C 422.163 77.5 415 84.663 415 93.5 L 415 109 L 401 109 C 392.163 109 385 116.163 385 125 L 562.5 125 L 562.5 17.5 Z " fill="rgb(157,34,53)"/></g></g><g><path d=" M 0 250 L 187.5 250 L 187.5 500 L 375 500 L 375 375 L 0 375 L 0 250 Z " fill="rgb(255,255,255)"/><path d=" M 187.5 250 L 375 250 L 375 375 L 0 375 L 0 500 L 187.5 500 L 187.5 250 Z " fill="rgb(157,34,53)"/><g><path d=" M 187.5 482.5 C 196.337 482.5 203.5 475.337 203.5 466.5 L 203.5 458.5 L 219 458.5 C 227.837 458.5 235 451.337 235 442.5 C 235 433.663 227.837 426.5 219 426.5 L 203.5 426.5 L 203.5 391 L 303 391 L 303 406.5 C 303 415.337 310.163 422.5 319 422.5 C 327.837 422.5 335 415.337 335 406.5 L 335 391 L 349 391 C 357.837 391 365 383.837 365 375 L 187.5 375 L 187.5 482.5 Z " fill="rgb(157,34,53)"/><path d=" M 187.5 482.5 C 178.663 482.5 171.5 475.337 171.5 466.5 L 171.5 458.5 L 156 458.5 C 147.163 458.5 140 451.337 140 442.5 C 140 433.663 147.163 426.5 156 426.5 L 171.5 426.5 L 171.5 391 L 72 391 L 72 406.5 C 72 415.337 64.837 422.5 56 422.5 C 47.163 422.5 40 415.337 40 406.5 L 40 391 L 26 391 C 17.163 391 10 383.837 10 375 L 187.5 375 L 187.5 482.5 Z " fill="rgb(255,255,255)"/><path d=" M 187.5 267.5 C 196.337 267.5 203.5 274.663 203.5 283.5 L 203.5 291.5 L 219 291.5 C 227.837 291.5 235 298.663 235 307.5 C 235 316.337 227.837 323.5 219 323.5 L 203.5 323.5 L 203.5 359 L 303 359 L 303 343.5 C 303 334.663 310.163 327.5 319 327.5 C 327.837 327.5 335 334.663 335 343.5 L 335 359 L 349 359 C 357.837 359 365 366.163 365 375 L 187.5 375 L 187.5 267.5 Z " fill="rgb(255,255,255)"/><path d=" M 187.5 267.5 C 178.663 267.5 171.5 274.663 171.5 283.5 L 171.5 291.5 L 156 291.5 C 147.163 291.5 140 298.663 140 307.5 C 140 316.337 147.163 323.5 156 323.5 L 171.5 323.5 L 171.5 359 L 72 359 L 72 343.5 C 72 334.663 64.837 327.5 56 327.5 C 47.163 327.5 40 334.663 40 343.5 L 40 359 L 26 359 C 17.163 359 10 366.163 10 375 L 187.5 375 L 187.5 267.5 Z " fill="rgb(157,34,53)"/></g></g></g></g></svg>