<?xml version="1.0" encoding="UTF-8" standalone="no"?><!-- Generator: Gravit.io --><svg xmlns="http://www.w3.org/2000/svg" xmlns:xlink="http://www.w3.org/1999/xlink" style="isolation:isolate" viewBox="0 0 660 580" width="660pt" height="580pt"><defs><clipPath id="_clipPath_mAD7y4vokIoJg1YTqjA9d2vc2oj46Ul6"><rect width="660" height="580"/></clipPath></defs><g clip-path="url(#_clipPath_mAD7y4vokIoJg1YTqjA9d2vc2oj46Ul6)"><path d=" M 0 0 L 660 0 L 660 580 L 0 580 L 0 0 Z " fill="rgb(255,255,255)"/><g><path d=" M 325.78 185.52 C 325.78 185.52 324.72 303.74 324.72 312.34 C 324.72 320.94 324.72 332.76 315.22 330.61 C 305.74 328.46 294.13 328.46 277.25 316.64 C 260.38 304.82 260.38 302.67 260.38 302.67 L 276.2 297.29 C 276.2 297.29 260.38 294.07 249.83 286.55 C 239.28 279.02 230.84 272.57 230.84 272.57 C 230.84 272.57 229.79 288.7 235.06 300.52 C 240.34 312.34 250.88 323.09 250.88 323.09 L 250.88 309.12 C 250.88 309.12 265.65 323.09 270.93 326.32 C 276.2 329.54 297.3 338.14 305.73 343.52 C 314.17 348.88 329.634 363.93 329.634 363.93 C 329.634 363.93 345.82 346.73 356.37 342.43 C 366.92 338.13 380.63 331.69 386.96 327.39 C 393.29 323.09 410.16 306.97 410.16 306.97 L 410.16 325.24 C 410.16 325.24 421.76 311.27 424.93 301.59 C 428.1 291.92 429.15 274.72 429.15 274.72 C 429.15 274.72 420.71 281.17 413.33 284.4 C 405.94 287.62 384.85 296.22 384.85 296.22 L 401.72 300.52 C 401.72 300.52 374.3 322.02 364.81 326.32 C 347.524 334.631 335.27 332.76 335.27 322.02 C 335.27 311.28 336.33 185.52 336.33 185.52 L 325.78 185.52 Z  M 326.83 145.75 L 334.21 145.75 L 334.21 177.99 L 326.83 177.99 L 326.83 145.75 Z " fill="rgb(254,197,0)" vector-effect="non-scaling-stroke" stroke-width="1.5" stroke="rgb(254,197,0)" stroke-linejoin="miter" stroke-linecap="butt" stroke-miterlimit="4"/><mask id="_mask_yhbx2bNaJRyUpUkOMJNV15oO7xJPKO1R" x="-200%" y="-200%" width="400%" height="400%"><rect x="-200%" y="-200%" width="400%" height="400%" style="fill:white;"/><path d=" M 274.1 178 C 274.1 178 303.63 171.55 331.05 171.55 C 358.47 171.55 386.95 177.99 386.95 177.99 L 386.95 189.82 C 386.95 189.82 348.98 195.19 326.83 195.19 C 304.68 195.19 274.092 188.74 274.092 188.74 L 274.1 178 Z " fill="black" stroke="none"/></mask><path d=" M 274.1 178 C 274.1 178 303.63 171.55 331.05 171.55 C 358.47 171.55 386.95 177.99 386.95 177.99 L 386.95 189.82 C 386.95 189.82 348.98 195.19 326.83 195.19 C 304.68 195.19 274.092 188.74 274.092 188.74 L 274.1 178 Z " fill="rgb(254,197,0)" mask="url(#_mask_yhbx2bNaJRyUpUkOMJNV15oO7xJPKO1R)" vector-effect="non-scaling-stroke" stroke-width="3" stroke="rgb(255,255,255)" stroke-linejoin="miter" stroke-linecap="butt" stroke-miterlimit="4"/><path d=" M 274.1 178 C 274.1 178 303.63 171.55 331.05 171.55 C 358.47 171.55 386.95 177.99 386.95 177.99 L 386.95 189.82 C 386.95 189.82 348.98 195.19 326.83 195.19 C 304.68 195.19 274.092 188.74 274.092 188.74 L 274.1 178 Z " fill="rgb(254,197,0)"/><mask id="_mask_vIaOypaMHFu5rlVBPKAyx6ZvcVIXbd8m" x="-200%" y="-200%" width="400%" height="400%"><rect x="-200%" y="-200%" width="400%" height="400%" style="fill:white;"/><path d=" M 347.92 172.08 C 347.92 167.18 346.03 162.748 342.975 159.54 C 341.447 157.936 339.629 156.639 337.609 155.742 C 336.6 155.294 336.779 155.123 335.68 154.887 L 335.712 161.029 C 337.036 161.682 337.344 162.333 338.346 163.5 C 340.35 165.835 341.59 169.06 341.59 172.62 C 341.59 179.74 336.63 184.352 330.52 184.352 C 324.41 184.352 319.45 179.74 319.45 172.62 C 319.45 169.06 320.69 165.835 322.694 163.5 C 323.696 162.333 324.004 161.682 325.328 161.029 L 325.36 154.887 C 324.261 155.123 324.44 155.294 323.431 155.742 C 321.411 156.639 319.593 157.936 318.065 159.54 C 315.01 162.748 313.12 167.18 313.12 172.08 C 313.12 181.88 321.152 189.82 330.52 189.82 C 339.888 189.82 347.92 181.88 347.92 172.08 Z " fill-rule="evenodd" fill="black" stroke="none"/></mask><path d=" M 347.92 172.08 C 347.92 167.18 346.03 162.748 342.975 159.54 C 341.447 157.936 339.629 156.639 337.609 155.742 C 336.6 155.294 336.779 155.123 335.68 154.887 L 335.712 161.029 C 337.036 161.682 337.344 162.333 338.346 163.5 C 340.35 165.835 341.59 169.06 341.59 172.62 C 341.59 179.74 336.63 184.352 330.52 184.352 C 324.41 184.352 319.45 179.74 319.45 172.62 C 319.45 169.06 320.69 165.835 322.694 163.5 C 323.696 162.333 324.004 161.682 325.328 161.029 L 325.36 154.887 C 324.261 155.123 324.44 155.294 323.431 155.742 C 321.411 156.639 319.593 157.936 318.065 159.54 C 315.01 162.748 313.12 167.18 313.12 172.08 C 313.12 181.88 321.152 189.82 330.52 189.82 C 339.888 189.82 347.92 181.88 347.92 172.08 Z " fill-rule="evenodd" fill="rgb(254,197,0)" mask="url(#_mask_vIaOypaMHFu5rlVBPKAyx6ZvcVIXbd8m)" vector-effect="non-scaling-stroke" stroke-width="3" stroke="rgb(255,255,255)" stroke-linejoin="miter" stroke-linecap="butt" stroke-miterlimit="4"/><path d=" M 347.92 172.08 C 347.92 167.18 346.03 162.748 342.975 159.54 C 341.447 157.936 339.629 156.639 337.609 155.742 C 336.6 155.294 336.779 155.123 335.68 154.887 L 335.712 161.029 C 337.036 161.682 337.344 162.333 338.346 163.5 C 340.35 165.835 341.59 169.06 341.59 172.62 C 341.59 179.74 336.63 184.352 330.52 184.352 C 324.41 184.352 319.45 179.74 319.45 172.62 C 319.45 169.06 320.69 165.835 322.694 163.5 C 323.696 162.333 324.004 161.682 325.328 161.029 L 325.36 154.887 C 324.261 155.123 324.44 155.294 323.431 155.742 C 321.411 156.639 319.593 157.936 318.065 159.54 C 315.01 162.748 313.12 167.18 313.12 172.08 C 313.12 181.88 321.152 189.82 330.52 189.82 C 339.888 189.82 347.92 181.88 347.92 172.08 Z " fill-rule="evenodd" fill="rgb(254,197,0)"/></g><g><path d=" M 427.63 378.37 C 427.63 378.37 413.62 391.17 399.91 392.99 C 386.2 394.82 364.61 401.26 364.61 401.26 C 364.61 401.26 364.04 420.98 364.71 422.69 C 365.38 424.4 365.81 424.85 367.78 424.92 C 374.17 425.15 389.73 425.17 406.66 421.23 C 428.79 416.08 450.5 402.76 450.5 402.76 C 445.44 400.68 433.2 398.85 425.3 396.89 L 427.63 378.37 Z  M 386.6 408.82 C 388.1 412.82 364.42 416.52 364.71 422.69 M 232.37 378.37 C 232.37 378.37 246.38 391.17 260.09 392.99 C 273.8 394.82 295.39 401.26 295.39 401.26 C 295.39 401.26 295.96 420.98 295.29 422.69 C 294.62 424.4 294.19 424.85 292.22 424.92 C 285.83 425.15 270.27 425.17 253.34 421.23 C 231.21 416.08 209.5 402.76 209.5 402.76 C 214.56 400.68 226.8 398.85 234.7 396.89 L 232.37 378.37 Z  M 273.4 408.82 C 271.9 412.82 295.58 416.52 295.29 422.69" fill="rgb(0,50,113)" vector-effect="non-scaling-stroke" stroke-width="1" stroke="rgb(255,255,255)" stroke-linejoin="round" stroke-linecap="butt" stroke-miterlimit="4"/><mask id="_mask_CpreAvyCW9TJltWU9NMcSx9gVzhc5BWD" x="-200%" y="-200%" width="400%" height="400%"><rect x="-200%" y="-200%" width="400%" height="400%" style="fill:white;"/><path d=" M 277.26 407.99 C 274.82 407.23 273.4 408.82 273.4 408.82 L 273.4 374.66 C 273.4 374.66 274.88 373.32 277.46 374.45 C 286.56 378.42 310.02 386.47 330 386.47 C 349.98 386.47 373.44 378.42 382.54 374.45 C 385.12 373.32 386.6 374.65 386.6 374.65 L 386.6 408.82 C 386.6 408.82 385.18 407.22 382.74 407.99 C 373.04 411 347.68 418.49 330 418.49 C 312.32 418.49 286.96 411 277.26 408 L 277.26 407.99 Z " fill="black" stroke="none"/></mask><path d=" M 277.26 407.99 C 274.82 407.23 273.4 408.82 273.4 408.82 L 273.4 374.66 C 273.4 374.66 274.88 373.32 277.46 374.45 C 286.56 378.42 310.02 386.47 330 386.47 C 349.98 386.47 373.44 378.42 382.54 374.45 C 385.12 373.32 386.6 374.65 386.6 374.65 L 386.6 408.82 C 386.6 408.82 385.18 407.22 382.74 407.99 C 373.04 411 347.68 418.49 330 418.49 C 312.32 418.49 286.96 411 277.26 408 L 277.26 407.99 Z " fill="rgb(0,50,113)" mask="url(#_mask_CpreAvyCW9TJltWU9NMcSx9gVzhc5BWD)" vector-effect="non-scaling-stroke" stroke-width="2" stroke="rgb(255,255,255)" stroke-linejoin="round" stroke-linecap="butt" stroke-miterlimit="4"/><path d=" M 277.26 407.99 C 274.82 407.23 273.4 408.82 273.4 408.82 L 273.4 374.66 C 273.4 374.66 274.88 373.32 277.46 374.45 C 286.56 378.42 310.02 386.47 330 386.47 C 349.98 386.47 373.44 378.42 382.54 374.45 C 385.12 373.32 386.6 374.65 386.6 374.65 L 386.6 408.82 C 386.6 408.82 385.18 407.22 382.74 407.99 C 373.04 411 347.68 418.49 330 418.49 C 312.32 418.49 286.96 411 277.26 408 L 277.26 407.99 Z " fill="rgb(0,50,113)"/></g><path d=" M 330 45 L 353.512 117.361 L 291.958 72.639 L 368.042 72.639 L 306.488 117.361 L 330 45 Z " fill="rgb(254,197,0)"/><g><path d=" M 443.848 73.059 L 431.042 148.058 L 397.319 79.855 L 464.69 115.21 L 389.404 126.207 L 443.848 73.059 Z " fill="rgb(254,197,0)"/><path d=" M 531.62 150.808 L 485.429 211.267 L 487.261 135.204 L 530.488 197.817 L 458.714 172.57 L 531.62 150.808 Z " fill="rgb(254,197,0)"/><path d=" M 573.215 260.482 L 504.214 292.54 L 541.194 226.046 L 550.361 301.577 L 498.549 245.86 L 573.215 260.482 Z " fill="rgb(254,197,0)"/><path d=" M 559.078 376.881 L 483.082 373.204 L 546.725 331.51 L 519.744 402.65 L 499.757 329.237 L 559.078 376.881 Z " fill="rgb(254,197,0)"/><path d=" M 492.47 473.381 L 426.886 434.811 L 502.616 427.465 L 445.667 477.921 L 462.083 403.628 L 492.47 473.381 Z " fill="rgb(254,197,0)"/><path d=" M 388.648 527.877 L 348.498 463.248 L 418.968 491.935 L 345.096 510.148 L 394.155 451.992 L 388.648 527.877 Z " fill="rgb(254,197,0)"/></g><g><path d=" M 216.167 73.1 L 228.973 148.099 L 262.696 79.896 L 195.325 115.252 L 270.611 126.248 L 216.167 73.1 Z " fill="rgb(254,197,0)"/><path d=" M 128.395 150.849 L 174.586 211.308 L 172.754 135.245 L 129.528 197.858 L 201.302 172.611 L 128.395 150.849 Z " fill="rgb(254,197,0)"/><path d=" M 86.8 260.523 L 155.801 292.581 L 118.821 226.088 L 109.654 301.618 L 161.466 245.901 L 86.8 260.523 Z " fill="rgb(254,197,0)"/><path d=" M 100.937 376.923 L 176.933 373.246 L 113.29 331.551 L 140.271 402.691 L 160.258 329.279 L 100.937 376.923 Z " fill="rgb(254,197,0)"/><path d=" M 167.545 473.422 L 233.129 434.852 L 157.4 427.507 L 214.348 477.962 L 197.933 403.669 L 167.545 473.422 Z " fill="rgb(254,197,0)"/><path d=" M 271.367 527.918 L 311.517 463.289 L 241.047 491.976 L 314.92 510.189 L 265.861 452.033 L 271.367 527.918 Z " fill="rgb(254,197,0)"/></g><path d=" M 363.248 385.221 C 368.885 383.686 374.472 381.962 380.037 380.18 C 380.112 381.905 380.171 383.635 380.215 385.369 C 376.679 386.457 373.147 387.535 369.609 388.565 C 369.618 389.841 369.625 391.119 369.627 392.397 C 372.92 391.45 376.213 390.467 379.515 389.48 C 379.533 391.14 379.538 392.805 379.529 394.473 C 376.217 395.428 372.916 396.391 369.619 397.324 C 369.611 398.912 369.597 400.503 369.578 402.095 C 373.227 401.079 376.88 400.036 380.55 399.021 C 380.509 400.887 380.451 402.758 380.375 404.634 C 374.628 406.148 368.914 407.78 363.175 409.286 C 363.26 401.247 363.285 393.226 363.248 385.221 L 363.248 385.221 Z  M 337.252 390.349 C 340.858 390.017 344.446 389.475 348.011 388.797 C 350.344 388.353 352.075 388.606 353.224 389.631 C 353.637 389.995 353.975 390.445 354.239 390.98 C 354.714 391.94 354.95 393.177 354.948 394.692 C 354.946 396.184 354.706 397.532 354.228 398.731 C 353.933 399.48 353.545 400.172 353.064 400.802 C 351.827 402.436 349.922 403.531 347.344 403.987 C 346.177 404.193 345.004 404.383 343.829 404.555 C 343.816 407.513 343.789 410.472 343.748 413.434 C 341.588 413.737 339.419 413.978 337.244 414.145 C 337.35 406.201 337.353 398.27 337.253 390.349 L 337.252 390.349 Z  M 343.836 399.713 C 344.362 399.634 344.888 399.552 345.413 399.466 C 346.651 399.264 347.519 398.859 348.016 398.277 C 348.514 397.684 348.763 396.998 348.761 396.224 C 348.759 395.472 348.541 394.877 348.105 394.436 C 347.669 393.994 346.853 393.887 345.65 394.09 C 345.039 394.193 344.427 394.291 343.814 394.385 C 343.827 396.16 343.834 397.936 343.836 399.713 L 343.836 399.713 Z  M 306.907 399.83 C 306.887 395.929 307.823 393.114 309.716 391.326 C 311.618 389.53 314.254 388.962 317.665 389.43 C 321.156 389.909 323.854 391.173 325.762 393.392 C 327.67 395.6 328.642 398.56 328.643 402.376 C 328.644 405.145 328.219 407.416 327.378 409.168 C 326.548 410.908 325.345 412.24 323.783 413.119 C 322.23 413.989 320.297 414.306 317.984 414.016 C 315.637 413.722 313.684 412.981 312.139 411.861 C 310.601 410.741 309.346 409.144 308.379 407.096 C 307.413 405.048 306.921 402.617 306.907 399.83 L 306.907 399.83 Z  M 313.309 401.114 C 313.318 403.514 313.719 405.309 314.503 406.479 C 315.298 407.65 316.37 408.336 317.721 408.51 C 319.109 408.69 320.186 408.291 320.947 407.344 C 321.708 406.396 322.086 404.59 322.082 401.939 C 322.079 399.705 321.676 398.045 320.871 396.936 C 320.075 395.818 318.994 395.179 317.628 394.995 C 316.32 394.818 315.273 395.178 314.482 396.1 C 313.693 397.021 313.3 398.689 313.309 401.114 Z  M 279.122 379.79 C 281.175 380.526 283.236 381.237 285.307 381.921 C 285.24 384.709 285.199 387.507 285.183 390.316 C 287.486 391.045 289.791 391.749 292.098 392.421 C 292.096 389.627 292.105 386.841 292.127 384.061 C 294.227 384.684 296.335 385.277 298.452 385.837 C 298.448 393.781 298.491 401.758 298.582 409.768 C 296.461 409.224 294.344 408.652 292.232 408.06 C 292.179 404.802 292.142 401.553 292.12 398.312 C 289.809 397.648 287.497 396.956 285.186 396.244 C 285.208 399.508 285.263 402.785 285.352 406.076 C 283.258 405.458 281.167 404.833 279.079 404.211 C 278.738 395.956 278.752 387.815 279.123 379.79 L 279.122 379.79 Z " fill="rgb(254,197,0)"/></g></svg>