<?xml version="1.0" encoding="UTF-8" standalone="no"?><!-- Generator: Gravit.io --><svg xmlns="http://www.w3.org/2000/svg" xmlns:xlink="http://www.w3.org/1999/xlink" style="isolation:isolate" viewBox="0 0 500 300" width="500pt" height="300pt"><defs><clipPath id="_clipPath_ComNG0d6ISqOktJV6xSM23xBTRsgYu3h"><rect width="500" height="300"/></clipPath></defs><g clip-path="url(#_clipPath_ComNG0d6ISqOktJV6xSM23xBTRsgYu3h)"><rect x="0" y="0" width="462.5" height="300" transform="matrix(1,0,0,1,0,0)" fill="rgb(204,0,0)"/><rect x="462.5" y="0" width="6.25" height="300" transform="matrix(1,0,0,1,0,0)" fill="rgb(255,255,255)"/><rect x="468.75" y="0" width="31.25" height="300" transform="matrix(1,0,0,1,0,0)" fill="rgb(0,45,101)"/><g><circle vector-effect="non-scaling-stroke" cx="231.25" cy="150" r="81.25000000000001" fill="rgb(255,255,255)"/><circle vector-effect="non-scaling-stroke" cx="231.25" cy="150" r="75.00000000000001" fill="rgb(0,45,101)"/><g><g><path d=" M 230.284 152.972 L 209.467 181.625 L 223.793 192.033" fill="rgb(255,255,255)"/><path d=" M 230.284 152.972 L 230.284 188.389 L 212.576 188.389" fill="rgb(255,255,255)"/></g><g><path d=" M 254.757 186.655 L 221.073 175.711 L 215.601 192.553" fill="rgb(255,255,255)"/><path d=" M 254.757 186.655 L 221.073 197.6 L 215.601 180.758" fill="rgb(255,255,255)"/></g><g><path d=" M 230.284 220.339 L 230.284 184.922 L 212.576 184.922" fill="rgb(255,255,255)"/><path d=" M 230.284 220.339 L 209.467 191.686 L 223.793 181.277" fill="rgb(255,255,255)"/></g><g><path d=" M 190.687 207.473 L 224.371 196.528 L 218.898 179.687" fill="rgb(255,255,255)"/><path d=" M 190.687 207.473 L 211.505 178.82 L 225.831 189.229" fill="rgb(255,255,255)"/></g><g><path d=" M 190.687 165.838 L 211.505 194.491 L 225.831 184.082" fill="rgb(255,255,255)"/><path d=" M 190.687 165.838 L 224.371 176.782 L 218.898 193.624" fill="rgb(255,255,255)"/></g></g><g><g><path d=" M 229.159 147.678 L 214.754 115.323 L 198.576 122.526" fill="rgb(255,255,255)"/><path d=" M 229.159 147.678 L 198.487 129.969 L 207.341 114.633" fill="rgb(255,255,255)"/></g><g><path d=" M 187.752 152.03 L 214.072 128.331 L 202.223 115.171" fill="rgb(255,255,255)"/><path d=" M 187.752 152.03 L 195.116 117.387 L 212.437 121.069" fill="rgb(255,255,255)"/></g><g><path d=" M 170.818 113.994 L 201.49 131.703 L 210.344 116.367" fill="rgb(255,255,255)"/><path d=" M 170.818 113.994 L 206.041 110.292 L 207.892 127.904" fill="rgb(255,255,255)"/></g><g><path d=" M 201.759 86.135 L 194.395 120.778 L 211.716 124.46" fill="rgb(255,255,255)"/><path d=" M 201.759 86.135 L 216.164 118.49 L 199.986 125.693" fill="rgb(255,255,255)"/></g><g><path d=" M 237.815 106.953 L 202.593 110.655 L 204.444 128.266" fill="rgb(255,255,255)"/><path d=" M 237.815 106.953 L 211.496 130.651 L 199.646 117.491" fill="rgb(255,255,255)"/></g></g><g><g><path d=" M 234.307 149.35 L 269.529 153.052 L 271.38 135.441" fill="rgb(255,255,255)"/><path d=" M 234.307 149.35 L 264.978 131.642 L 273.833 146.978" fill="rgb(255,255,255)"/></g><g><path d=" M 251.241 111.315 L 258.605 145.958 L 275.926 142.276" fill="rgb(255,255,255)"/><path d=" M 251.241 111.315 L 277.561 135.013 L 265.712 148.173" fill="rgb(255,255,255)"/></g><g><path d=" M 292.648 115.667 L 261.976 133.375 L 270.83 148.711" fill="rgb(255,255,255)"/><path d=" M 292.648 115.667 L 278.243 148.022 L 262.065 140.819" fill="rgb(255,255,255)"/></g><g><path d=" M 301.304 156.392 L 274.984 132.694 L 263.135 145.853" fill="rgb(255,255,255)"/><path d=" M 301.304 156.392 L 266.082 152.69 L 267.933 135.079" fill="rgb(255,255,255)"/></g><g><path d=" M 265.247 177.209 L 279.653 144.855 L 263.475 137.652" fill="rgb(255,255,255)"/><path d=" M 265.247 177.209 L 257.884 142.567 L 275.205 138.885" fill="rgb(255,255,255)"/></g></g></g></g></svg>