<?xml version="1.0" encoding="UTF-8"?>
<svg width="80.13" height="65.75" version="1.1" viewBox="0 0 80.13 65.75" xml:space="preserve" xmlns="http://www.w3.org/2000/svg">
<style type="text/css">
	.st0{fill:#FFFFFF;}
	.st1{fill:#ED1C24;}
	.st2{fill:#BB9753;}
	.st3{fill:#1D1D1B;}
</style>
<g transform="matrix(.1056 0 0 .1056 1.042 1.042)" stroke-width="9.472">
	
		<path class="st0" d="m369.9 603.8c-204 0-369.9-115.7-369.9-258 0-142.2 166-258 370-258 204.1 0 370.1 115.7 370.1 258s-166 258-370.1 258z"/>
		<path class="st1" d="m370 155.5c-63.43 0-122.3 12.24-171 33.14h342.1c-48.7-20.9-107.6-33.14-171.1-33.14zm0 380.6c64.6 0 124.4-12.66 173.6-34.22h-347.1c49.17 21.56 109 34.22 173.5 34.22zm-246-78.98h5.16l0.88 1.67 2.38-1.67h483.6c15.73-13.66 28.63-28.67 38.18-44.72h-568.4c9.55 16.05 22.47 31.06 38.2 44.72zm547.1-134.2h-602.2c-1.44 7.52-2.2 15.18-2.2 22.95 0 7.36 0.69 14.62 1.99 21.77h602.6c1.3-7.15 1.99-14.41 1.99-21.78 0.01-7.77-0.75-15.42-2.19-22.94zm-56.37-89.51h-489.5c-15.94 13.64-29.05 28.66-38.8 44.72h567c-9.75-16.06-22.85-31.08-38.79-44.72z"/>
		
			<path class="st2" d="m11.08 345.8c0-136.4 160.7-247 358.9-247 198.2 0 359.1 110.6 359.1 247 0 136.3-160.8 247-359.1 247-198.2-0.01-358.9-110.6-358.9-247m358.9 190.2c167.1 0 302.3-85.23 302.3-190.3 0-105.1-135.2-190.3-302.3-190.3-166.9 0-302.3 85.23-302.3 190.4 0 105 135.4 190.2 302.3 190.2z" stroke-width="9.472"/>
		
		<path class="st0" d="m130.6 459.9c43.74-31.16 73.75-76.8 87.17-143 13.76-67.88 6.48-133.3 2.49-159.4l499.8 175.7-587.2 126.2"/>
		<path class="st0" d="m691 293c-3.17 1.18-5.79 3.52-7.39 6.57-1.46 2.81-1.83 6.02-1.05 9.28l1.06 3.91c0.58 1.79 1.01 4.12 1.48 6.59 0.13 0.67 0.25 1.34 0.39 2.01 0.1 0.59 0.22 1.17 0.34 1.75 0.2 1 0.39 1.95 0.52 2.87l0.94 8.11c0.31 1.98 2 3.43 4.03 3.43 0.09 0 0.18 0 0.27-0.01 1.15-0.07 2.26-0.63 2.97-1.51 0.64-0.78 0.91-1.73 0.78-2.67l-0.48-4.21c-0.13-1.1-0.27-2.36-0.43-3.71l-0.07-0.61c-0.14-1.02-0.35-2.1-0.56-3.13-0.12-0.59-0.24-1.19-0.34-1.79l-0.39-2.03c-0.51-2.66-0.98-5.17-1.6-7.11l-1.11-4.09c-0.32-1.19-0.14-2.48 0.51-3.65 0.59-1.14 1.6-1.98 2.82-2.37 1.23-0.4 2.62-0.27 3.76 0.32 1.13 0.63 1.95 1.7 2.31 3.03l1.19 4.41c0.66 2.1 1.18 4.83 1.73 7.73l0.39 2c0.11 0.64 0.24 1.27 0.36 1.9 0.23 1.16 0.45 2.26 0.59 3.33l1.06 9.18c0.34 2.32 2.16 4 4.33 3.85 1.08-0.06 2.11-0.6 2.82-1.47 0.73-0.89 1.05-2 0.89-3.13l-1.11-9.61c-0.15-1.17-0.4-2.4-0.63-3.58-0.13-0.64-0.26-1.29-0.37-1.95l-0.37-1.9c-0.6-3.13-1.16-6.09-1.86-8.36l-1.24-4.58c-0.85-3.49-3.25-6.48-6.58-8.2-3.12-1.61-6.68-1.83-9.96-0.6zm-415.5-151.9-0.56 0.06c-0.02 0-1.76 0.28-4.28 0.88l-9.32 2.09c-2.89 0.61-5.77 1.36-8.08 1.97l-5.42 1.42c-0.39 0.1-0.8 0.15-1.21 0.15-2.21 0-4.18-1.5-4.79-3.64-0.35-1.24-0.19-2.53 0.45-3.65 0.65-1.14 1.72-1.96 3.01-2.3l5.63-1.47c2.34-0.61 5.25-1.38 8.16-1.99 3.47-0.78 6.94-1.56 9.55-2.14 2.55-0.6 4.31-0.89 4.34-0.89 2.2-0.42 3.65-2.54 3.24-4.73-0.36-1.9-2.06-3.27-4.04-3.27-0.26 0-0.52 0.02-0.77 0.07-0.02 0-1.83 0.3-4.45 0.91l-9.69 2.18c-3.02 0.63-6.03 1.42-8.44 2.06l-5.6 1.47c-3.41 0.84-6.25 3-7.99 6.07-1.73 3.05-2.15 6.7-1.14 10 1.71 5.61 6.78 9.37 12.63 9.37 1.07 0 2.14-0.13 3.19-0.39l5.43-1.42c2.24-0.59 5.02-1.32 7.82-1.9l9.18-2.06c2.45-0.58 4.13-0.85 4.17-0.85 2.13-0.41 3.52-2.52 3.1-4.7-0.38-1.96-2.15-3.38-4.12-3.3zm-197.7 285.1-2.21-3.48c-1.46-2.16-3.21-5.25-4.58-7.73-1.34-2.23-2.51-4.62-3.45-6.53l-2-4.04c-0.3-0.58-0.43-0.94-0.45-0.99-0.58-1.35-1.95-2.21-3.51-2.21-0.57 0-1.14 0.12-1.67 0.34-2.04 0.87-3.02 3.2-2.19 5.17 0.01 0.02 0.16 0.44 0.5 1.12l2.04 4.12c1 2.04 2.25 4.58 3.67 6.97 1.42 2.57 3.25 5.8 4.8 8.1l2.29 3.6c1.44 2.29 0.88 5.18-1.3 6.73-0.81 0.57-1.77 0.88-2.78 0.88-1.67 0-3.18-0.82-4.05-2.2l-2.44-3.83c-1.66-2.47-3.68-6.05-5.06-8.54-1.52-2.56-2.85-5.28-3.93-7.46l-0.66-1.35c-0.61-1.22-2.64-5.14-2.64-5.14-1.16-1.84-3.17-1.77-4.66-1.14-1 0.42-1.76 1.24-2.14 2.29-0.38 1.04-0.34 2.2 0.1 3.23 0 0 0.17 0.47 0.56 1.23l2.22 4.51c1.12 2.28 2.51 5.11 4.09 7.76 2.25 4.06 3.93 6.89 5.28 8.91l2.53 3.96c2.53 3.73 6.61 5.96 10.89 5.96 2.71 0 5.28-0.88 7.42-2.55 5.57-4.28 7.05-12.23 3.33-17.69zm-30.6-32.9c3.14-1.05 5.84-3.28 7.61-6.29 1.61-2.7 2.1-5.9 1.4-9.24l-0.89-3.95c-0.44-1.65-0.77-3.75-1.12-5.98-0.14-0.88-0.28-1.79-0.44-2.7-0.39-2.01-0.56-4.08-0.71-5.91-0.09-1.03-0.17-2-0.28-2.85-0.28-2.33-0.25-3.93-0.25-3.95l-0.05-0.5c-0.3-1.8-1.98-3.15-4.1-3.15-1.1 0.02-2.12 0.46-2.86 1.25-0.72 0.75-1.09 1.73-1.06 2.73 0 0.07-0.03 1.76 0.27 4.29 0.11 0.88 0.2 1.88 0.29 2.94 0.16 1.95 0.35 4.16 0.76 6.34 0.16 0.92 0.3 1.84 0.44 2.74 0.38 2.4 0.73 4.66 1.21 6.46l0.93 4.12c0.53 2.68-0.94 5.16-3.5 5.9-0.42 0.12-0.85 0.18-1.29 0.18-2.28 0-4.25-1.57-4.7-3.74l-1.01-4.46c-0.51-1.96-0.91-4.46-1.33-7.12-0.14-0.89-0.28-1.79-0.44-2.7-0.44-2.34-0.64-4.73-0.82-6.84-0.1-1.11-0.19-2.15-0.3-3.08-0.31-2.65-0.29-4.46-0.29-4.51-0.08-2.27-1.88-4.05-4.17-4.05-1.02 0.02-1.98 0.45-2.71 1.21-0.8 0.84-1.23 2.01-1.2 3.2 0 0.08-0.02 1.97 0.31 4.82 0.11 0.95 0.21 2.01 0.3 3.13 0.2 2.25 0.42 4.8 0.88 7.31 0.15 0.91 0.29 1.81 0.43 2.7 0.45 2.84 0.88 5.53 1.42 7.64l1.05 4.64c0.73 3.44 3.02 6.52 6.26 8.44 1.79 1.06 3.85 1.61 5.95 1.61 1.38 0.02 2.72-0.2 4.01-0.63zm161.5 129.6c-0.06-0.02-6.44-2.42-12.6-5.12-3.23-1.32-6.41-2.79-8.52-3.78l-3.86-1.78c-0.51-0.23-1.05-0.34-1.61-0.34-1.55 0-2.99 0.91-3.67 2.31-0.49 1-0.55 2.12-0.18 3.15 0.28 0.77 0.78 1.42 1.43 1.87l-0.04 0.04 4.56 2.1c2.14 1 5.38 2.5 8.72 3.87 6.29 2.75 12.81 5.21 12.87 5.23 2.47 0.95 3.72 3.79 2.79 6.32-0.69 1.87-2.5 3.12-4.52 3.12-0.61 0-1.22-0.11-1.8-0.34-0.07-0.03-6.74-2.54-13.2-5.36-3.39-1.39-6.73-2.93-8.95-3.97l-4.05-1.87c-0.55-0.25-1.14-0.37-1.75-0.37-1.59 0-3.01 0.87-3.69 2.26-0.47 0.97-0.53 2.07-0.16 3.1 0.37 1.04 1.14 1.86 2.15 2.32l4.12 1.91c3.5 1.64 6.5 2.97 9.15 4.06 6.59 2.88 13.4 5.45 13.46 5.47 1.54 0.61 3.14 0.92 4.77 0.92 5.46 0 10.31-3.43 12.07-8.55 2.32-6.68-0.98-13.95-7.49-16.57zm53.47 16.51-13.24-3.35-9.04-2.57c-2.43-0.66-4.05-1.2-4.08-1.21-0.37-0.12-0.76-0.17-1.15-0.17-1.74 0-3.27 1.14-3.81 2.84-0.48 1.5-0.53 3.89 0.98 4.53l1.6 0.53c0.02 0.01 1.69 0.56 4.18 1.25l9.2 2.62c6.74 1.71 13.47 3.41 13.49 3.41 2.59 0.58 4.22 3.18 3.64 5.81-0.49 2.21-2.51 3.81-4.8 3.81-0.36 0-0.73-0.04-1.08-0.12l-13.79-3.49-9.42-2.68c-2.53-0.69-4.23-1.25-4.24-1.26l-0.64-0.21v0.06c-0.2-0.03-0.4-0.04-0.61-0.04-1.78 0-3.33 1.13-3.86 2.82-0.67 2.11 0.55 4.4 2.72 5.1 0.02 0.01 1.76 0.58 4.36 1.3 2.61 0.74 6.09 1.73 9.58 2.72l14.03 3.55c0.98 0.22 1.98 0.33 2.97 0.33 6.15 0 11.48-4.27 12.67-10.15 1.43-7.02-2.92-13.93-9.66-15.43zm-103.7-40.46-3.65-2.16c-2.17-1.23-4.96-3.02-7.87-4.89-2.8-1.75-5.61-3.61-7.7-5.12l-3.47-2.4c-0.65-0.44-1.42-0.67-2.21-0.67-1.3 0-2.54 0.64-3.31 1.69-0.65 0.89-0.92 2.01-0.74 3.08 0.1 0.59 0.33 1.14 0.68 1.61l0.91 0.88s1.42 0.99 3.55 2.46c2.11 1.52 5.01 3.44 7.93 5.27 2.85 1.84 5.82 3.74 8.09 5.03l3.72 2.2c2.27 1.37 3.06 4.36 1.78 6.66-0.85 1.53-2.46 2.48-4.21 2.48-0.87 0-1.72-0.24-2.47-0.7l-3.85-2.28c-2.37-1.35-5.54-3.38-8.33-5.18-3-1.88-5.98-3.85-8.18-5.43l-3.8-2.64h-0.01c-0.69-0.43-1.48-0.66-2.29-0.66-1.32 0-2.52 0.6-3.28 1.64-0.64 0.88-0.89 1.95-0.7 3.02 0.19 1.1 0.81 2.05 1.73 2.68l3.76 2.61c2.31 1.65 5.37 3.68 8.4 5.58 3 1.93 6.13 3.94 8.55 5.31 2.36 1.4 3.93 2.32 3.93 2.32 2.01 1.19 4.29 1.82 6.6 1.82 4.76 0 9.07-2.58 11.25-6.72 3.29-6.24 1.18-13.94-4.81-17.49zm498.8-247.1c-0.49 3.13 0.23 6.32 2.11 9.23l4.67 6.85 2.47 4.14c1.56 2.58 3.33 5.51 4.4 7.8l1.86 3.63c0.65 1.26 2 2.04 3.52 2.04 0.64 0 1.25-0.14 1.83-0.41 1-0.47 1.74-1.27 2.09-2.28 0.34-0.97 0.27-2.02-0.21-2.96l-1.94-3.77c-1.1-2.32-2.82-5.21-4.64-8.2l-2.58-4.33-4.87-7.14c-1.46-2.23-0.96-5.22 1.13-6.79 0.84-0.63 1.84-0.96 2.89-0.96 1.6 0 3.07 0.79 3.94 2.11l5.13 7.54 2.73 4.57c1.83 3.01 3.71 6.16 4.88 8.64l2.99 5.23c0.86 1.35 3.09 1.47 4.59 0.77 0.94-0.44 1.65-1.23 1.99-2.21 0.37-1.07 0.27-2.29-0.26-3.35l-2.15-4.18c-1.25-2.63-3.21-5.91-5.11-9.06-0.96-1.61-1.93-3.21-2.84-4.74l-5.33-7.83c-1.91-2.92-5.12-4.93-8.81-5.5-3.43-0.51-6.88 0.42-9.6 2.6-2.62 2.11-4.37 5.16-4.88 8.56zm-516.3-50.75c2.42 0 4.8-0.67 6.89-1.93l3.58-2.26c2.24-1.48 5.43-3.31 7.97-4.74 5.73-3.41 11.78-6.48 11.84-6.51l0.27-0.14v-0.02c1.71-1.07 2.32-3.36 1.36-5.24-0.69-1.36-2.06-2.21-3.57-2.21-0.63 0-1.24 0.15-1.8 0.44-0.06 0.03-6.26 3.18-12.15 6.68-2.58 1.46-5.85 3.33-8.19 4.88l-3.65 2.31c-0.76 0.48-1.64 0.73-2.55 0.73-1.7 0-3.27-0.84-4.21-2.25-0.71-1.07-0.95-2.34-0.69-3.59 0.27-1.29 1.06-2.4 2.2-3.12l3.79-2.39c2.46-1.62 5.98-3.64 8.43-5.02 6.06-3.6 12.42-6.84 12.49-6.87l0.27-0.15c1.8-1.11 2.48-3.44 1.52-5.33-0.68-1.33-2.05-2.16-3.58-2.16-0.67 0-1.34 0.16-1.95 0.48-0.06 0.03-6.58 3.35-12.79 7.04-2.73 1.54-6.18 3.52-8.65 5.15l-3.86 2.44c-3.04 1.85-5.11 4.8-5.83 8.3-0.71 3.45 0.02 7.04 2.01 9.85 2.53 3.57 6.49 5.63 10.85 5.63zm-101.3 135.3c0.24 0.01 0.49 0.02 0.73 0.02 6.86 0 12.77-4.82 13.44-10.92l0.76-3.94c0.18-0.79 0.34-1.68 0.51-2.63 0.33-1.86 0.71-3.96 1.35-6.01 0.34-1.17 0.65-2.35 0.94-3.49 0.49-1.86 0.95-3.62 1.45-5.03l1.5-4.46c0.52-1.78-0.85-3.6-2.69-4.3-0.47-0.18-0.96-0.27-1.46-0.27-1.64 0-3.1 1.02-3.64 2.54l-1.4 4.01c-0.55 1.54-1.05 3.45-1.58 5.47-0.3 1.16-0.62 2.35-0.95 3.53-0.69 2.22-1.1 4.49-1.46 6.5-0.17 0.95-0.33 1.85-0.51 2.66l-0.81 4.2c-0.29 2.52-2.68 4.37-5.38 4.09-1.25-0.14-2.39-0.77-3.19-1.78-0.85-1.08-1.24-2.44-1.08-3.8l0.85-4.46c0.19-0.86 0.36-1.82 0.55-2.83 0.39-2.14 0.84-4.57 1.56-6.92 0.34-1.22 0.67-2.44 0.98-3.63 0.59-2.22 1.14-4.31 1.73-5.97l1.5-4.29c0.75-2.15-0.33-4.54-2.4-5.32-0.43-0.16-0.88-0.25-1.34-0.25-1.71 0-3.28 1.16-3.89 2.9l-1.56 4.48c-0.63 1.79-1.22 4.02-1.84 6.38-0.32 1.22-0.65 2.47-1 3.7-0.77 2.52-1.24 5.1-1.66 7.38-0.19 1.04-0.37 2.01-0.56 2.9l-0.9 4.72c-0.46 3.95 0.64 7.83 3.01 10.64 2.12 2.51 5.12 4.01 8.44 4.18zm46.87-103.2c2.54 2.28 5.82 3.53 9.22 3.53 3.46 0 6.61-1.29 8.85-3.62 0.05-0.05 4.91-4.63 9.78-9.06l7.06-5.94c1.85-1.61 3.22-2.58 3.25-2.6 1.69-1.3 1.97-3.79 0.62-5.55-0.78-1.02-1.95-1.6-3.23-1.6-0.87 0-1.69 0.27-2.37 0.79-0.06 0.04-1.46 1.03-3.39 2.72l-7.26 6.12c-5.04 4.58-10.05 9.31-10.11 9.37-1.76 1.82-4.94 1.83-6.81 0.02-0.92-0.88-1.44-2.09-1.46-3.38-0.02-1.35 0.49-2.63 1.43-3.6 0.05-0.05 5.28-5 10.52-9.75l7.55-6.36c1.99-1.73 3.44-2.76 3.46-2.77l0.2-0.15v-0.02c1.62-1.4 1.91-3.84 0.61-5.54-0.75-0.98-1.91-1.55-3.19-1.55-0.94 0-1.84 0.31-2.59 0.88-0.06 0.04-1.54 1.09-3.62 2.9l-7.76 6.53c-5.41 4.9-10.79 10-10.86 10.06-2.66 2.75-4.06 6.27-3.93 9.91 0.11 3.35 1.54 6.43 4.03 8.66zm-32.33 47.62c1.88 0.86 3.87 1.3 5.92 1.3 4.83 0 9.18-2.46 11.35-6.41l2.6-4.37c1.17-1.97 2.62-4.43 4.31-6.76 3.53-5.43 8.16-11.42 8.16-11.42 0.95-1.68 0.2-3.57-1.27-4.76-0.72-0.59-1.62-0.91-2.53-0.91-1.2 0-2.31 0.54-3.04 1.48-0.04 0.05-4.36 5.43-8.04 11.1-1.79 2.48-3.34 5.09-4.58 7.19l-2.65 4.44c-1.34 2.23-4.25 3.11-6.57 1.91-1.16-0.6-2.04-1.69-2.41-2.99-0.36-1.28-0.2-2.59 0.47-3.7l2.76-4.64c1.32-2.23 2.96-5 4.85-7.63 3.89-5.98 8.4-11.6 8.44-11.66l0.27-0.34-0.02-0.02c1.09-1.76 0.75-4.12-0.86-5.43-0.69-0.56-1.53-0.85-2.42-0.85-1.29 0-2.51 0.61-3.33 1.67-0.05 0.06-4.73 5.91-8.78 12.13-1.99 2.78-3.73 5.71-5.12 8.06l-2.82 4.74c-1.83 3.33-2.22 7.22-1.07 10.69 1.08 3.23 3.34 5.79 6.38 7.18zm56.29 183.2c-1.16-1.05-2.53-2.38-3.97-3.78-0.86-0.83-1.75-1.7-2.65-2.55-1.57-1.51-3.06-3.1-4.39-4.51-0.7-0.75-1.36-1.45-1.96-2.07-1.71-1.74-2.76-3.02-2.78-3.04-1.33-1.53-3.94-1.65-5.57-0.25-1.68 1.45-1.9 3.97-0.48 5.61 0.04 0.05 1.12 1.37 2.92 3.2 0.63 0.64 1.31 1.37 2.04 2.15 1.37 1.45 2.91 3.1 4.54 4.67 0.92 0.88 1.83 1.76 2.71 2.61 1.5 1.45 2.92 2.83 4.14 3.94l3.22 2.85c1.96 1.74 2.15 4.84 0.41 6.9-0.9 1.06-2.21 1.67-3.61 1.67-1.2 0-2.36-0.45-3.28-1.26l-3.36-2.97c-1.29-1.18-2.82-2.66-4.45-4.24-0.88-0.85-1.78-1.72-2.68-2.58-1.69-1.64-3.32-3.37-4.75-4.89-0.75-0.8-1.46-1.55-2.11-2.21-1.85-1.9-2.99-3.28-3.01-3.31-0.79-0.91-1.94-1.43-3.14-1.43-0.96 0-1.89 0.34-2.62 0.96-0.79 0.68-1.27 1.63-1.35 2.69-0.08 1.08 0.25 2.14 0.94 3.01l0.11 0.14c0.01 0.02 1.22 1.48 3.15 3.46 0.65 0.67 1.37 1.43 2.14 2.25 1.49 1.59 3.19 3.39 4.95 5.1 0.91 0.87 1.81 1.74 2.69 2.59 1.7 1.65 3.31 3.2 4.67 4.44l3.45 3.05c2.38 2.17 5.45 3.37 8.64 3.37 3.9 0 7.5-1.72 9.87-4.72 4.34-5.47 3.76-13.4-1.32-18.06zm511.9-242.8 3.2 2.69c1.2 1.02 2.59 2.33 4.07 3.71 0.87 0.82 1.77 1.66 2.69 2.5 2.21 1.96 4.26 4.09 5.9 5.79l3.5 3.61c0.75 0.74 1.75 1.14 2.81 1.14 1.02 0 2.01-0.38 2.77-1.08 0.83-0.75 1.33-1.81 1.36-2.9 0.03-1.03-0.35-2-1.07-2.72l-3.47-3.58c-1.74-1.81-3.91-4.06-6.27-6.17-0.94-0.86-1.88-1.74-2.78-2.58-1.52-1.43-2.96-2.77-4.21-3.84l-3.3-2.77c-2.01-1.69-2.27-4.78-0.58-6.88 0.9-1.11 2.25-1.75 3.69-1.75 1.16 0 2.3 0.42 3.2 1.18l3.43 2.89c1.3 1.11 2.83 2.54 4.45 4.06 0.91 0.85 1.85 1.74 2.81 2.61 2.43 2.16 4.68 4.5 6.48 6.38l4.49 4.42c1.55 0.95 3.65 0.81 4.95-0.38 0.81-0.73 1.27-1.73 1.3-2.83 0.03-1.12-0.39-2.19-1.19-2.99l-3.71-3.83c-1.89-1.96-4.23-4.39-6.77-6.66-0.94-0.87-1.88-1.75-2.79-2.6-1.71-1.6-3.32-3.1-4.7-4.28l-3.51-2.96c-2.37-2.06-5.38-3.19-8.46-3.19-3.98 0-7.64 1.8-10.02 4.94-4.22 5.62-3.47 13.54 1.73 18.07zm-18.56 266.1c-2.52 0-4.93 0.74-6.94 2.12l-3.55 2.27c-0.66 0.41-1.37 0.87-2.14 1.36-1.73 1.12-3.7 2.38-5.73 3.54-1.12 0.65-2.24 1.31-3.31 1.95-1.72 1.02-3.34 1.98-4.71 2.73l-3.73 2.02c-1.88 1.03-2.56 3.47-1.52 5.43 0.7 1.32 2.05 2.15 3.53 2.15 0.65 0 1.29-0.16 1.86-0.47l3.8-2.06c1.46-0.8 3.19-1.83 5.02-2.91 1.05-0.62 2.12-1.26 3.2-1.89 2.12-1.21 4.16-2.52 5.95-3.67 0.76-0.49 1.48-0.95 2.14-1.37l3.65-2.34c0.79-0.54 1.72-0.82 2.68-0.82 1.61 0 3.12 0.79 4.04 2.13 0.74 1.06 1.01 2.35 0.77 3.64-0.25 1.31-0.99 2.45-2.09 3.19 0 0-1.51 0.96-3.76 2.41-0.69 0.43-1.43 0.91-2.22 1.42-1.85 1.19-3.94 2.54-6.11 3.77-1.07 0.63-2.14 1.26-3.18 1.88-1.94 1.15-3.77 2.24-5.3 3.07l-4.18 2.27v0.01c-1.78 1.14-2.43 3.49-1.44 5.36 0.69 1.3 2.04 2.1 3.54 2.1 0.7 0 1.4-0.18 2.02-0.52l4.01-2.18c1.57-0.86 3.45-1.98 5.45-3.16 1.05-0.63 2.14-1.27 3.23-1.9 2.27-1.29 4.45-2.7 6.38-3.94 0.77-0.5 1.5-0.96 2.17-1.39l3.86-2.47c3.08-2.12 5.11-5.25 5.71-8.8 0.56-3.35-0.23-6.69-2.23-9.41-2.55-3.45-6.61-5.52-10.87-5.52zm-26.9-297.4 3.67 2.1c0.49 0.28 1.02 0.58 1.57 0.9 1.97 1.13 4.21 2.4 6.4 3.84 2.86 1.8 5.71 3.6 7.84 4.94l3.47 2.39c0.63 0.44 1.38 0.67 2.15 0.67 1.32 0 2.57-0.66 3.35-1.77 0.62-0.89 0.87-1.97 0.68-3.03-0.18-1.04-0.76-1.94-1.62-2.55l-3.57-2.46-8.03-5.07c-2.28-1.49-4.59-2.82-6.64-3.98l-5.31-3.04c-2.32-1.37-3.15-4.28-1.89-6.64 0.84-1.57 2.47-2.55 4.25-2.55 0.84 0 1.67 0.23 2.4 0.66l5.5 3.15c2.09 1.2 4.47 2.55 6.8 4.08l8.3 5.24 3.81 2.63h0.01c0.67 0.43 1.43 0.65 2.22 0.65 1.33 0 2.57-0.64 3.32-1.71 0.6-0.86 0.83-1.91 0.65-2.96-0.2-1.11-0.82-2.08-1.77-2.73l-3.79-2.61-8.49-5.36c-2.45-1.61-5.04-3.08-7.12-4.26l-5.49-3.15c-1.95-1.12-4.16-1.71-6.39-1.71-4.79 0-9.26 2.72-11.38 6.92-3.18 6.29-0.94 13.94 5.1 17.41zm-23.72 324.9c-1.78 0-3.5 0.37-5.08 1.11 0 0-6.27 2.64-12.54 5.26l-8.74 3.37c-2.34 0.9-3.97 1.43-3.99 1.44-2.04 0.72-3.1 3.01-2.37 5.11 0.64 1.83 2.55 2.97 4.45 2.66v0.05l0.64-0.21c0.02-0.01 1.7-0.55 4.11-1.48l8.04-3.09 13.69-5.71c0.62-0.29 1.29-0.43 1.97-0.43 1.89 0 3.63 1.12 4.43 2.86 0.54 1.17 0.59 2.48 0.14 3.7-0.46 1.25-1.39 2.25-2.6 2.81-0.06 0.03-6.62 2.85-13.14 5.51l-9.15 3.53c-2.45 0.94-4.15 1.49-4.17 1.5-2.12 0.75-3.25 3.06-2.52 5.16 0.56 1.61 2.1 2.68 3.85 2.68 0.47 0 0.94-0.08 1.38-0.23 0.02-0.01 1.77-0.57 4.29-1.55l9.31-3.59c6.65-2.71 13.33-5.59 13.41-5.62 3.36-1.55 5.87-4.26 7.07-7.64 1.13-3.2 0.94-6.64-0.55-9.68-2.25-4.57-6.93-7.52-11.93-7.52zm147.5-165.4h-0.37c-3.25 0-6.4 1.18-8.89 3.31-1.89 1.67-4.2 4.44-4.5 8.18 0 0.02-0.09 1.61-0.52 3.92-0.16 0.85-0.3 1.8-0.45 2.82-0.27 1.82-0.57 3.88-1.1 5.88-0.19 0.82-0.37 1.64-0.55 2.44-0.51 2.29-1 4.45-1.56 6.15l-1.32 4.5h0.07c-0.17 1.81 0.96 3.58 2.8 4.21 0.44 0.15 0.89 0.22 1.35 0.22 1.77 0 3.25-1.08 3.69-2.67l1.19-4.06c0.61-1.84 1.13-4.16 1.68-6.62 0.18-0.82 0.37-1.65 0.56-2.46 0.56-2.16 0.89-4.37 1.18-6.32 0.15-1.04 0.3-2.02 0.47-2.89 0.46-2.51 0.55-4.19 0.55-4.24 0.25-2.53 2.67-4.49 5.33-4.3 1.26 0.09 2.4 0.67 3.22 1.65 0.88 1.04 1.28 2.38 1.15 3.79 0 0.02-0.11 1.83-0.58 4.46-0.17 0.92-0.33 1.96-0.5 3.07-0.31 2.09-0.67 4.46-1.26 6.77-0.18 0.77-0.35 1.55-0.52 2.32-0.62 2.75-1.2 5.35-1.86 7.37l-1.28 4.38c-0.61 2.27 0.49 4.5 2.56 5.21 0.4 0.14 0.82 0.21 1.24 0.21 1.81 0 3.43-1.25 3.92-3.04l1.33-4.55c0.7-2.16 1.33-4.93 1.98-7.86 0.17-0.78 0.35-1.56 0.53-2.34 0.63-2.48 1.01-5.01 1.35-7.24 0.17-1.12 0.33-2.17 0.5-3.11 0.51-2.81 0.62-4.7 0.63-4.77 0.34-3.97-0.71-7.56-2.96-10.09-2.32-2.68-5.54-4.2-9.06-4.3zm-43.38 104.6c-2.48-2.11-5.61-3.27-8.83-3.27-3.54 0-6.81 1.35-9.24 3.82-0.01 0.01-1.11 1.25-2.88 2.94l-6.27 6-7.23 6.42-3.24 2.66c-1.64 1.35-1.85 3.85-0.47 5.59 0.77 0.97 1.92 1.53 3.15 1.53 0.9 0 1.76-0.3 2.46-0.87l3.35-2.74 7.11-6.28 6.83-6.54c1.86-1.78 2.98-3.04 3.02-3.08 0.9-0.94 2.13-1.46 3.47-1.46 1.27 0 2.48 0.47 3.41 1.33 0.94 0.86 1.48 2.04 1.52 3.32 0.04 1.34-0.45 2.62-1.4 3.62-0.01 0.01-1.21 1.35-3.12 3.18l-7.13 6.82-7.38 6.52-3.46 2.85c-1.74 1.43-2.04 4-0.65 5.73 0.75 0.94 1.88 1.47 3.1 1.47 0.96 0 1.92-0.34 2.69-0.96l3.57-2.93 7.61-6.73 7.34-7.03c1.99-1.91 3.25-3.32 3.25-3.32 2.59-2.64 3.92-6.1 3.76-9.72-0.18-3.48-1.72-6.64-4.34-8.87zm30.89-48.53c-3.1-1.33-6.66-1.44-9.8-0.34-3.28 1.08-5.85 3.23-7.24 6.07 0 0.01-0.16 0.37-0.49 0.95l-1.47 2.58c-0.31 0.54-0.64 1.12-0.99 1.74-1.04 1.85-2.22 3.96-3.59 5.99l-0.34 0.54c-1.67 2.63-3.25 5.12-4.64 6.97l-2.8 4.12c-1 1.79-0.13 3.59 1.35 4.72 0.72 0.55 1.61 0.85 2.5 0.85 1.26 0 2.39-0.57 3.08-1.57l2.47-3.47c1.45-1.92 3.09-4.51 4.83-7.25l0.38-0.59c1.45-2.16 2.7-4.39 3.8-6.36 0.35-0.62 0.68-1.21 0.99-1.75l1.53-2.7c0.37-0.66 0.54-1.06 0.54-1.06 0.79-1.6 2.44-2.59 4.31-2.59 0.76 0 1.5 0.17 2.19 0.5 1.14 0.54 2 1.51 2.42 2.73 0.44 1.28 0.34 2.68-0.28 3.94-0.01 0.01-0.18 0.41-0.55 1.07l-1.61 2.86c-0.33 0.57-0.68 1.19-1.05 1.85-1.17 2.07-2.49 4.43-4.02 6.7-1.9 3-3.86 6.1-5.48 8.26l-2.63 3.68c-1.3 1.9-0.96 4.41 0.77 5.74 0.69 0.52 1.51 0.8 2.39 0.8 1.34 0 2.6-0.66 3.37-1.78l2.71-3.8c1.67-2.23 3.69-5.42 5.64-8.5l0.07-0.1c1.63-2.45 3.05-4.97 4.3-7.2 0.34-0.61 0.67-1.18 0.97-1.72l1.67-2.97c0.41-0.73 0.61-1.17 0.61-1.17 1.65-3.32 1.97-7.11 0.89-10.39-1.14-3.35-3.57-5.96-6.8-7.35zm-356.7-272.2-4.34 0.37c-0.89 0.09-1.89 0.17-2.96 0.25-2.02 0.16-4.31 0.33-6.58 0.64l-13.83 1.65c-2.63 0.43-5.09-1.49-5.48-4.1-0.4-2.67 1.48-5.17 4.16-5.58l14.13-1.68c2.28-0.31 4.6-0.49 6.64-0.65 1.11-0.09 2.15-0.17 3.07-0.26l4.43-0.37c2.23-0.19 3.92-2.15 3.76-4.37-0.15-2.19-2.07-3.86-4.4-3.69l-4.5 0.38c-0.92 0.09-1.94 0.17-3.03 0.26-2.11 0.16-4.49 0.35-6.85 0.67l-14.35 1.71c-3.6 0.55-6.73 2.44-8.82 5.34-2.01 2.77-2.8 6.14-2.24 9.48 1.06 6.28 6.52 11.02 12.71 11.02 0.62 0 1.25-0.05 1.85-0.14l13.62-1.62c2.19-0.3 4.42-0.47 6.38-0.62 1.08-0.08 2.08-0.16 2.97-0.25l4.71-0.4v-0.03c1.93-0.4 3.33-2.23 3.19-4.29-0.12-2.21-2.04-3.91-4.24-3.72zm29.13-11.16 4.45-0.07c2.66-0.07 6.2-0.1 9.75 0l9.78 0.17c2.62 0.02 4.39 0.14 4.42 0.14h0.19c2.18 0 3.96-1.69 4.05-3.84 0.1-2.22-1.66-4.12-3.92-4.24-0.02 0-1.84-0.12-4.52-0.14l-9.9-0.16c-3.61-0.1-7.24-0.07-9.93 0l-4.5 0.08c-3.54 0.02-6.82 1.44-9.24 4-2.41 2.55-3.65 5.87-3.48 9.36 0.34 7.05 6.1 12.57 13.2 12.57l4.29-0.07c2.56-0.07 5.97-0.1 9.41 0l9.43 0.16c2.52 0.02 4.24 0.13 4.27 0.13h0.18c2.11 0 3.84-1.69 3.93-3.85 0.1-2.21-1.61-4.12-3.8-4.24-0.02 0-1.78-0.12-4.37-0.14l-9.56-0.16c-3.49-0.1-6.98-0.08-9.59 0l-4.43 0.07c-2.62 0-4.81-2.16-4.89-4.81-0.04-1.29 0.43-2.51 1.32-3.45 0.89-0.95 2.13-1.49 3.46-1.51zm165.7 44.58 3.97 1.52c0.81 0.32 1.71 0.66 2.68 1.02 1.86 0.7 3.97 1.48 6.02 2.4l8.62 3.66c2.32 0.94 3.83 1.71 3.86 1.72 0.51 0.24 1.05 0.36 1.61 0.36 1.54 0 2.96-0.93 3.63-2.36 0.71-1.52 0.4-3.26-0.65-4.43l-1.22-0.92c-0.02-0.01-1.6-0.81-3.98-1.79l-8.77-3.72c-2.1-0.94-4.25-1.74-6.16-2.45-0.99-0.37-1.92-0.72-2.75-1.05l-4.05-1.54c-2.52-0.99-3.79-3.74-2.9-6.27 0.68-1.93 2.5-3.23 4.53-3.23 0.59 0 1.18 0.11 1.74 0.33l4.15 1.58c0.83 0.33 1.77 0.68 2.76 1.06 1.96 0.73 4.19 1.56 6.35 2.53l9.03 3.83c2.42 1 4.02 1.8 4.05 1.81 0.55 0.26 1.14 0.39 1.74 0.39 1.57 0 3-0.91 3.66-2.31 0.94-2.01 0.02-4.45-2.04-5.42-0.02-0.01-1.67-0.84-4.17-1.87l-9.19-3.9c-2.22-0.99-4.48-1.83-6.49-2.58-1.01-0.38-1.97-0.74-2.82-1.08l-4.24-1.61c-1.48-0.56-3.02-0.85-4.58-0.85-5.56 0-10.45 3.51-12.16 8.73-2.18 6.72 1.22 13.94 7.77 16.44zm-77.98-46.72-4.62-0.71c-2.6-0.4-6.16-0.96-9.68-1.33l-9.84-1.17c-2.67-0.34-4.5-0.46-4.51-0.46-7.34-0.61-13.7 4.79-14.18 11.82-0.48 7.13 4.76 13.41 11.68 13.99 0.02 0 1.73 0.12 4.23 0.44l9.36 1.11c3.28 0.34 6.48 0.84 9.05 1.24l4.49 0.69c0.2 0.03 0.39 0.04 0.58 0.04 1.94 0 3.64-1.47 3.97-3.43 0.18-1.07-0.07-2.14-0.7-3.01-0.54-0.75-1.3-1.27-2.18-1.5l-4.72-0.75c-2.54-0.4-6.02-0.94-9.48-1.31l-9.49-1.13c-2.58-0.33-4.34-0.45-4.35-0.45-1.28-0.11-2.44-0.71-3.27-1.71s-1.23-2.26-1.12-3.56c0.21-2.5 2.37-4.47 4.92-4.47 0.14 0 0.28 0 0.44 0.02 0.02 0 1.79 0.12 4.4 0.46l9.72 1.15c3.44 0.36 6.93 0.9 9.47 1.3l4.59 0.7c2.25 0.33 4.31-1.19 4.67-3.37 0.17-1.04-0.08-2.09-0.7-2.96-0.65-0.88-1.61-1.47-2.73-1.64zm50.55 414.3c-1.14 0-2.28 0.15-3.38 0.45l-4.11 1.17c-1.52 0.43-3.39 0.89-5.37 1.38-1.21 0.3-2.47 0.62-3.73 0.94-2.67 0.7-5.73 1.43-9.13 2.15l-4.18 0.92c-2.11 0.47-3.47 2.63-3.02 4.8 0.43 2.13 2.6 3.56 4.72 3.1l4.24-0.94c3.57-0.76 6.62-1.48 9.32-2.19 1.17-0.3 2.34-0.59 3.48-0.88 2.13-0.53 4.15-1.03 5.79-1.5l4.18-1.18c0.42-0.12 0.86-0.18 1.3-0.18 2.16 0 4.1 1.46 4.73 3.55 0.37 1.23 0.22 2.53-0.4 3.67-0.64 1.16-1.7 2-2.98 2.36l-4.28 1.21c-1.67 0.47-3.73 0.98-5.91 1.53l-3.56 0.89c-2.81 0.74-6.01 1.49-9.5 2.24l-4.35 0.96c-2.18 0.49-3.6 2.66-3.15 4.83 0.38 1.84 2.04 3.17 3.95 3.17 0.3 0 0.6-0.03 0.9-0.1l4.41-0.98c3.68-0.79 6.85-1.53 9.69-2.28 1.26-0.33 2.52-0.64 3.74-0.94 2.17-0.54 4.22-1.06 5.9-1.53 2.61-0.74 4.35-1.23 4.35-1.23 3.44-0.94 6.27-3.17 7.96-6.28 1.67-3.08 2.01-6.59 0.96-9.9-1.77-5.51-6.82-9.21-12.57-9.21zm-26.27-383.3 4.18 0.94c2.24 0.46 5.38 1.24 9.1 2.24l9.07 2.37s5.03 1.33 5.18 1.38c1.73 0.47 3.31-1.19 3.83-2.9 0.61-2.01-0.42-4.13-2.31-4.89l-4.52-1.37-9.24-2.41c-3.87-1.04-7-1.81-9.3-2.29l-4.24-0.95c-2.59-0.58-4.25-3.2-3.7-5.84 0.46-2.21 2.45-3.82 4.73-3.82 0.37 0 0.73 0.04 1.09 0.12l4.35 0.98c2.31 0.48 5.5 1.26 9.48 2.33 3.44 0.9 6.88 1.8 9.45 2.47l4.27 1.27c2.11 0.62 4.44-0.64 5.07-2.7 0.64-2.13-0.61-4.4-2.8-5.06l-4.35-1.3-9.61-2.51c-2.71-0.73-6.6-1.74-9.67-2.38l-4.4-0.99c-0.98-0.23-1.98-0.35-2.98-0.35-6.13 0-11.41 4.35-12.55 10.36-1.32 6.95 3.01 13.67 9.87 15.3zm-257.2-12.11c-0.46 0-0.91 0.07-1.35 0.22-0.07 0.02-6.97 2.31-13.64 4.95-6.76 2.45-13.42 5.41-13.48 5.44-3.3 1.36-5.83 3.93-7.12 7.24-1.25 3.23-1.13 6.87 0.33 9.97 2.19 4.64 6.9 7.63 12 7.63 1.69 0 3.34-0.32 4.92-0.97 0.06-0.03 6.28-2.79 12.61-5.09 1.37-0.54 2.75-1.07 4.07-1.56v-8.61c-2.11 0.76-4.55 1.67-6.96 2.62-6.47 2.35-12.83 5.17-12.89 5.2-0.59 0.25-1.22 0.38-1.86 0.38-1.96 0-3.75-1.17-4.55-2.97-0.52-1.17-0.55-2.48-0.08-3.67 0.49-1.23 1.43-2.2 2.68-2.73 0.06-0.03 6.58-2.92 13.2-5.32 6.54-2.6 13.3-4.83 13.37-4.85l0.33-0.11v-0.02c1.91-0.84 2.91-3.01 2.25-5.01-0.52-1.64-2.07-2.74-3.83-2.74z"/>
		<path class="st0" d="m205.9 138.1 22.87 7.59c0.8-1.62 1.24-3.45 1.24-5.21 0-6.68-5.45-12.11-12.15-12.11-5.86 0-10.8 4.06-11.96 9.73"/>
		<polyline class="st0" points="105.4 502.9 115.5 506 222.4 144.8 212 141.6 105.4 502.9"/>
		
			<path class="st0" d="m292.2 543.4 18.72 2.75-0.85 5.79-12.51-1.84-0.93 6.3 11.83 1.74-0.79 5.36-11.83-1.74-0.96 6.55 12.51 1.84-0.85 5.79-18.72-2.75z"/>
			<path class="st0" d="m313 576.2 0.56-5.99c1.64 0.89 4.89 1.71 7.5 1.96 3.68 0.35 5.66-0.5 5.87-2.73 0.16-1.71-0.86-2.76-3.11-3.66l-3.33-1.35c-5.04-2.03-5.93-5.35-5.62-8.65 0.68-7.24 6.55-9.06 12.68-8.48 2.01 0.19 4.94 0.72 6.8 1.63l-0.56 5.99c-1.64-0.97-4.38-1.67-6.65-1.88-3.64-0.34-5.58 0.55-5.79 2.74-0.16 1.71 0.86 2.76 3.11 3.66l3.33 1.35c5.04 2.03 5.94 5.31 5.62 8.65-0.68 7.28-6.47 9.07-12.68 8.48-2.09-0.19-5.53-0.78-7.73-1.72z"/>
			<path class="st0" d="m337.6 548.7 21.31 0.97-0.27 5.84-7.52-0.34-1.1 24.23-6.27-0.29 1.1-24.23-7.52-0.34z"/>
			<path class="st0" d="m376.7 555.5-5.55 0.09-0.1-5.85 11.83-0.2 0.51 30.1-6.28 0.11z"/>
			<path class="st0" d="m392.5 578.8-0.37-6.05c1.77 0.84 3.69 1.24 5.93 1.1 3.69-0.23 6.56-1.83 6.4-7.89-1.29 1.42-3.09 2.26-5.32 2.4-5.19 0.32-8.78-3.42-9.15-9.43-0.42-6.74 3.63-10.3 9.08-10.64 8.45-0.52 11.26 7.23 11.74 15.04 0.7 11.29-3.86 15.66-11.84 16.15-2.2 0.14-4.79 0-6.47-0.68zm11.61-17.81c-0.59-4.62-2.03-7.07-4.61-6.91-1.37 0.08-3.3 0.94-3.08 4.54 0.15 2.4 1.12 4.2 3.87 4.03 1.42-0.09 2.76-0.69 3.82-1.66z"/>
			<path class="st0" d="m419.2 553-5.52 0.59-0.62-5.82 11.76-1.25 3.18 29.93-6.24 0.66z"/>
			<path class="st0" d="m435.6 575.1-0.88-5.87c1.64 0.49 4.44 0.6 6.99 0.21 1.83-0.27 4.81-0.98 4.37-3.92-0.34-2.25-2.34-3.73-8.8-2.76l-0.77-5.1 5.22-7.52-9.65 1.45-0.87-5.78 17.26-2.59 0.89 5.95-5.8 8c4.91 0.31 8.24 2.46 8.96 7.26 0.85 5.65-2.61 9.52-9.76 10.59-2 0.3-5.1 0.51-7.16 0.08z"/>
		
		<path class="st3" d="m220.3 156.2 3.25-10.98 5.87 1.95 0.25-0.46c1.06-1.91 1.64-4.14 1.64-6.28 0-0.42-0.08-1.44-0.09-1.52-0.04-0.39-0.18-1.17-0.18-1.18-0.87-4.31-3.86-7.94-7.99-9.64-1.59-0.66-3.33-1.03-5.15-1.03-6.65 0-12.24 4.76-13.29 11.32l-0.08 0.53 6.35 2.11-107 362.7 12.54 3.85 13.63-46.2 594.6-127.9-504.3-177.3m-14.36-18.15c1.16-5.67 6.1-9.73 11.96-9.73 0.42 0 0.83 0.02 1.23 0.06l0.53 0.68c2.96 3.77 2.14 8.15-0.06 13.53zm6.07 3.53 4.5 1.39-107.2 361.1-3.9-1.2zm7.28 18.05c6.18 41.3 27.56 217.5-88.25 298.3zm-88.71 300.2c43.74-31.16 73.75-76.8 87.17-143 13.76-67.88 6.48-133.3 2.49-159.4l499.8 175.7z"/>
		
			<polygon points="409.3 274.7 414.8 367.6 446.9 367.6 498.8 274.7 454.3 274.7 448.1 296.5 460.4 296.5 437.6 340.3 436.3 340.3 434.8 274.7"/>
			<path d="m337.7 305.2c0 11.15 4.51 18.45 17.52 23.36l7.04 2.65c4.91 1.86 8.36 3.72 8.36 8.76 0 7.3-7.43 8.89-15.26 8.89-11.15 0-20.17-3.19-26.94-6.64l-6.1 20.97c7.3 4.25 19.37 6.5 31.05 6.5 24.15 0 42.2-9.82 42.2-32.51 0-10.88-4.11-18.44-17.52-23.49l-7.04-2.65c-4.51-1.73-8.36-3.59-8.36-8.76 0-7.17 7.3-8.89 14.6-8.89 9.02 0 16.32 2.65 21.63 5.57l6.1-20.97c-6.64-2.65-14.73-5.44-26.41-5.44-21.89 0.01-40.87 9.56-40.87 32.65z"/>
			<path d="m295.4 274.7h-38.35l-6.24 21.76h11.94l-20.3 71.13h24.42l7.43-26.01h7.3c26.41 0 49.76-14.07 49.76-39.15 0-21.36-17.12-27.73-35.96-27.73zm-10.88 45.92h-4.23l7.13-24.95h4.27c10.22 0 14.73 2.66 14.73 9.55 0 10.49-10.22 15.4-21.9 15.4z"/>
		
	
	<path class="st2" d="m327.4 27.71-9-27.71-9.01 27.71h-29.14l23.57 17.13-9.01 27.71 23.58-17.13 23.57 17.13-9.01-27.71 23.57-17.13zm132.4 0h-29.14l-9-27.71-9 27.71h-29.14l23.57 17.13-9 27.71 23.57-17.13 23.58 17.13-9.01-27.71z"/>
</g>
</svg>
