<?xml version="1.0" encoding="UTF-8" standalone="no"?><!-- Generator: Gravit.io --><svg xmlns="http://www.w3.org/2000/svg" xmlns:xlink="http://www.w3.org/1999/xlink" style="isolation:isolate" viewBox="0 0 512 512" width="512pt" height="512pt"><defs><clipPath id="_clipPath_cgmMoDxIvoFbJsb1WyCyJMXCfc2sVE0q"><rect width="512" height="512"/></clipPath></defs><g clip-path="url(#_clipPath_cgmMoDxIvoFbJsb1WyCyJMXCfc2sVE0q)"><path d=" M 346.928 283.584 C 326.99 283.584 309.115 292.417 296.874 306.325 L 265.508 284.12 C 268.838 274.953 270.75 265.109 270.75 254.806 C 270.75 244.682 268.905 235.004 265.685 225.972 L 296.98 204.003 C 309.219 217.84 327.048 226.625 346.928 226.625 C 383.728 226.625 413.673 196.686 413.673 159.88 C 413.673 123.075 383.728 93.135 346.928 93.135 C 310.127 93.135 280.183 123.075 280.183 159.88 C 280.183 166.468 281.178 172.82 282.964 178.836 L 251.648 200.817 C 238.566 184.588 219.73 173.256 198.27 169.797 L 198.27 132.055 C 228.503 125.705 251.283 98.842 251.283 66.745 C 251.283 29.939 221.339 0 184.539 0 C 147.738 0 117.794 29.939 117.794 66.745 C 117.794 98.412 139.984 124.943 169.613 131.747 L 169.613 169.98 C 129.177 177.077 98.327 212.367 98.327 254.806 C 98.327 297.453 129.482 332.872 170.21 339.728 L 170.21 380.099 C 140.278 386.679 117.794 413.372 117.794 445.255 C 117.794 482.061 147.738 512 184.539 512 C 221.339 512 251.283 482.061 251.283 445.255 C 251.283 413.372 228.799 386.679 198.867 380.099 L 198.867 339.727 C 219.481 336.254 238.131 325.408 251.342 309.207 L 282.918 331.556 C 281.165 337.518 280.183 343.808 280.183 350.329 C 280.183 387.134 310.127 417.074 346.928 417.074 C 383.728 417.074 413.673 387.134 413.673 350.329 C 413.673 313.523 383.728 283.584 346.928 283.584 L 346.928 283.584 Z  M 346.928 127.519 C 364.773 127.519 379.288 142.04 379.288 159.88 C 379.288 177.72 364.773 192.24 346.928 192.24 C 329.082 192.24 314.568 177.72 314.568 159.88 C 314.568 142.04 329.082 127.519 346.928 127.519 L 346.928 127.519 Z  M 152.177 66.745 C 152.177 48.904 166.693 34.385 184.539 34.385 C 202.384 34.385 216.898 48.904 216.898 66.745 C 216.898 84.585 202.384 99.105 184.539 99.105 C 166.693 99.105 152.177 84.585 152.177 66.745 Z  M 216.898 445.255 C 216.898 463.096 202.384 477.615 184.539 477.615 C 166.693 477.615 152.177 463.096 152.177 445.255 C 152.177 427.415 166.693 412.895 184.539 412.895 C 202.384 412.895 216.898 427.415 216.898 445.255 Z  M 184.536 299.938 C 159.647 299.938 139.4 279.694 139.4 254.806 C 139.4 229.917 159.647 209.67 184.536 209.67 C 209.424 209.67 229.671 229.917 229.671 254.806 C 229.671 279.694 209.424 299.938 184.536 299.938 Z  M 346.928 382.69 C 329.082 382.69 314.568 368.169 314.568 350.329 C 314.568 332.488 329.082 317.969 346.928 317.969 C 364.773 317.969 379.288 332.488 379.288 350.329 C 379.288 368.169 364.773 382.69 346.928 382.69 Z " fill="rgb(0,0,0)"/></g></svg>