<?xml version="1.0" encoding="UTF-8" standalone="no"?><!-- Generator: Gravit.io --><svg xmlns="http://www.w3.org/2000/svg" xmlns:xlink="http://www.w3.org/1999/xlink" style="isolation:isolate" viewBox="0 0 512 512" width="512pt" height="512pt"><defs><clipPath id="_clipPath_0yKXGyU9Jl0OdH1YGrhCTLIEkSIhLEKg"><rect width="512" height="512"/></clipPath></defs><g clip-path="url(#_clipPath_0yKXGyU9Jl0OdH1YGrhCTLIEkSIhLEKg)"><g><g><linearGradient id="_lgradient_0" x1="0.16391955720349127" y1="0.6373466608804053" x2="1.5936765188530626" y2="0.23984192337959337" gradientTransform="matrix(74.981,0,0,68.227,308.817,0)" gradientUnits="userSpaceOnUse"><stop offset="0%" stop-opacity="1" style="stop-color:rgb(245,151,35)"/><stop offset="31.230000000000004%" stop-opacity="1" style="stop-color:rgb(246,152,34)"/><stop offset="83.83%" stop-opacity="1" style="stop-color:rgb(232,119,38)"/></linearGradient><path d=" M 346.089 2.423 C 338.06 7.163 324.697 20.585 308.817 40.051 L 323.423 67.664 C 333.704 52.998 344.133 39.754 354.652 28.466 C 355.481 27.577 355.866 27.162 355.866 27.162 C 355.481 27.577 355.037 28.051 354.652 28.466 C 351.244 32.199 340.904 44.288 325.319 68.227 C 340.341 67.487 363.392 64.405 382.206 61.205 C 387.835 29.829 376.725 15.489 376.725 15.489 C 376.725 15.489 362.622 -7.325 346.089 2.423 L 346.089 2.423 Z " fill="url(#_lgradient_0)"/><path d=" M 321.32 159.986 C 321.409 159.956 321.527 159.956 321.646 159.927 L 319.542 160.164 C 319.423 160.223 319.305 160.282 319.186 160.342 C 319.868 160.194 320.609 160.075 321.32 159.986 L 321.32 159.986 Z " fill="none"/><path d=" M 306.357 209.465 C 305.172 209.732 303.957 209.939 302.713 210.147 C 303.957 209.939 305.172 209.702 306.357 209.465 Z " fill="none"/><path d=" M 204.851 320.423 C 204.999 320.038 205.147 319.594 205.295 319.209 C 208.525 310.705 211.725 302.439 214.865 294.38 C 218.391 285.343 221.887 276.603 225.383 268.129 C 229.028 259.211 232.642 250.56 236.168 242.205 C 239.871 233.464 243.545 225.02 247.16 216.902 C 250.093 210.295 252.967 203.895 255.811 197.703 C 256.76 195.629 257.708 193.585 258.656 191.57 C 260.522 187.54 262.359 183.63 264.196 179.778 C 265.885 176.252 267.544 172.786 269.233 169.349 C 269.796 168.223 270.329 167.097 270.892 165.971 C 270.981 165.793 271.07 165.616 271.159 165.408 L 269.352 165.586 L 267.929 162.771 C 267.781 163.038 267.663 163.334 267.515 163.601 C 264.967 168.726 262.389 173.852 259.871 179.037 C 258.419 182.059 256.967 185.081 255.515 188.074 C 251.515 196.459 247.604 204.962 243.723 213.436 C 239.812 222.057 235.99 230.709 232.198 239.39 C 228.524 247.923 224.88 256.456 221.354 264.959 C 217.828 273.463 214.361 281.936 210.984 290.321 C 207.458 299.091 204.051 307.802 200.732 316.394 C 199.962 318.349 199.251 320.275 198.481 322.201 C 195.814 329.134 193.207 336.008 190.688 342.763 L 192.94 347.207 L 194.955 347 C 195.014 346.793 195.103 346.615 195.162 346.378 C 198.451 337.549 201.681 328.867 204.851 320.423 L 204.851 320.423 Z " fill="none"/><path d=" M 296.936 234.383 C 295.069 234.709 293.173 235.064 291.188 235.39 C 291.188 235.39 291.158 235.39 291.158 235.42 C 292.165 235.272 293.143 235.124 294.121 234.975 C 295.039 234.768 295.987 234.59 296.936 234.383 Z " fill="rgb(189,32,46)"/><g opacity="0.35"><path d=" M 296.936 234.383 C 295.069 234.709 293.173 235.064 291.188 235.39 C 291.188 235.39 291.158 235.39 291.158 235.42 C 292.165 235.272 293.143 235.124 294.121 234.975 C 295.039 234.768 295.987 234.59 296.936 234.383 Z " fill="rgb(189,32,46)"/></g><path d=" M 301.824 210.236 C 301.824 210.236 301.824 210.265 301.824 210.236 C 301.795 210.236 301.795 210.236 301.795 210.265 C 302.091 210.236 302.417 210.176 302.713 210.117 C 303.957 209.939 305.172 209.732 306.357 209.436 C 304.876 209.702 303.395 209.969 301.824 210.236 L 301.824 210.236 Z " fill="rgb(189,32,46)"/><g opacity="0.35"><path d=" M 301.824 210.236 C 301.824 210.236 301.824 210.265 301.824 210.236 C 301.795 210.236 301.795 210.236 301.795 210.265 C 302.091 210.236 302.417 210.176 302.713 210.117 C 303.957 209.939 305.172 209.732 306.357 209.436 C 304.876 209.702 303.395 209.969 301.824 210.236 L 301.824 210.236 Z " fill="rgb(189,32,46)"/></g><linearGradient id="_lgradient_1" x1="-2.1811216782418485" y1="3.944540502436082" x2="-0.15164535713496496" y2="-0.40774036294341887" gradientTransform="matrix(74.486,0,0,122.839,248.908,40.08)" gradientUnits="userSpaceOnUse"><stop offset="32.33%" stop-opacity="1" style="stop-color:rgb(156,32,99)"/><stop offset="63.019999999999996%" stop-opacity="1" style="stop-color:rgb(200,32,55)"/><stop offset="75.14%" stop-opacity="1" style="stop-color:rgb(204,33,53)"/><stop offset="100%" stop-opacity="1" style="stop-color:rgb(232,119,38)"/></linearGradient><path d=" M 280.284 139.039 C 284.729 130.713 289.232 122.595 293.765 114.714 C 298.476 106.477 303.276 98.537 308.105 90.834 C 308.372 90.389 308.698 89.915 308.965 89.471 C 313.735 81.916 318.564 74.627 323.394 67.694 L 308.787 40.08 C 307.691 41.414 306.594 42.777 305.469 44.199 C 301.232 49.473 296.876 55.102 292.373 61.116 C 287.306 67.872 282.121 75.101 276.818 82.686 C 271.959 89.678 266.981 96.996 262.004 104.611 C 257.767 111.07 253.56 117.707 249.353 124.521 C 249.204 124.758 249.056 125.025 248.908 125.291 L 267.959 162.919 C 271.989 154.772 276.137 146.802 280.284 139.039 Z " fill="url(#_lgradient_1)"/><linearGradient id="_lgradient_2" x1="-0.20821565725216268" y1="1.9262130618264508" x2="1.2507221646041262" y2="-1.2025286238022934" gradientTransform="matrix(89.063,0,0,84.678,178.156,326.912)" gradientUnits="userSpaceOnUse"><stop offset="0%" stop-opacity="1" style="stop-color:rgb(40,38,97)"/><stop offset="9.548389%" stop-opacity="1" style="stop-color:rgb(102,46,140)"/><stop offset="78.82000000000001%" stop-opacity="1" style="stop-color:rgb(158,32,100)"/><stop offset="94.87%" stop-opacity="1" style="stop-color:rgb(204,32,50)"/></linearGradient><path d=" M 193.533 350.941 C 191.014 357.844 188.466 364.925 185.948 372.125 C 185.918 372.214 185.889 372.332 185.829 372.421 C 185.474 373.428 185.089 374.465 184.763 375.473 C 183.044 380.332 181.563 384.717 178.156 394.642 C 183.755 397.19 188.259 403.946 192.525 411.59 C 192.081 403.679 188.822 396.242 182.57 390.494 C 210.214 391.739 234.035 384.746 246.36 364.54 C 247.456 362.733 248.464 360.866 249.382 358.822 C 243.782 365.932 236.82 368.925 223.754 368.214 C 223.724 368.214 223.694 368.243 223.665 368.243 C 223.694 368.243 223.724 368.214 223.754 368.214 C 243.012 359.592 252.641 351.326 261.204 337.637 C 263.219 334.378 265.204 330.853 267.218 326.912 C 250.39 344.185 230.924 349.104 210.391 345.37 L 194.985 347.059 C 194.481 348.363 194.036 349.637 193.533 350.941 L 193.533 350.941 Z " fill="url(#_lgradient_2)"/><linearGradient id="_lgradient_3" x1="-0.8009052343884461" y1="1.7049472657500688" x2="0.5174357043494032" y2="-1.1222796311795715" gradientTransform="matrix(96.41,0,0,217.65,171.519,125.232)" gradientUnits="userSpaceOnUse"><stop offset="32.33%" stop-opacity="1" style="stop-color:rgb(156,32,99)"/><stop offset="63.019999999999996%" stop-opacity="1" style="stop-color:rgb(200,32,55)"/><stop offset="75.14%" stop-opacity="1" style="stop-color:rgb(204,33,53)"/><stop offset="100%" stop-opacity="1" style="stop-color:rgb(232,119,38)"/></linearGradient><path d=" M 200.732 316.483 C 204.051 307.891 207.488 299.18 210.984 290.41 C 214.361 281.995 217.798 273.522 221.354 265.048 C 224.909 256.574 228.524 248.012 232.198 239.479 C 235.931 230.798 239.783 222.146 243.723 213.524 C 247.604 204.992 251.515 196.518 255.515 188.163 C 256.937 185.141 258.419 182.118 259.871 179.126 C 262.389 173.941 264.937 168.786 267.515 163.69 C 267.663 163.423 267.781 163.127 267.929 162.86 L 248.878 125.232 C 248.582 125.736 248.256 126.269 247.93 126.743 C 243.486 134.002 239.071 141.409 234.746 148.964 C 230.361 156.609 226.065 164.401 221.857 172.312 C 218.332 178.978 214.865 185.674 211.458 192.488 C 210.776 193.851 210.125 195.244 209.443 196.607 C 205.295 205.169 201.562 213.376 198.155 221.346 C 194.303 230.324 190.926 238.916 187.992 247.064 C 186.037 252.426 184.289 257.582 182.659 262.559 C 181.326 266.796 180.082 271.063 178.837 275.299 C 175.993 285.255 173.534 295.21 171.519 305.106 L 190.659 342.882 C 193.177 336.126 195.785 329.253 198.451 322.32 C 199.251 320.335 199.962 318.379 200.732 316.483 L 200.732 316.483 Z " fill="url(#_lgradient_3)"/><linearGradient id="_lgradient_4" x1="-0.18638145127962308" y1="0.773641972834026" x2="0.7366966615389612" y2="-1.2059303758986744" gradientTransform="matrix(62.516,0,0,206.894,128.202,305.106)" gradientUnits="userSpaceOnUse"><stop offset="0%" stop-opacity="1" style="stop-color:rgb(40,38,97)"/><stop offset="9.548389%" stop-opacity="1" style="stop-color:rgb(102,46,140)"/><stop offset="78.82000000000001%" stop-opacity="1" style="stop-color:rgb(158,32,100)"/><stop offset="94.87%" stop-opacity="1" style="stop-color:rgb(204,32,50)"/></linearGradient><path d=" M 171.312 306.38 C 168.912 318.468 167.193 330.497 166.334 342.467 C 166.304 342.882 166.275 343.296 166.245 343.711 C 160.26 334.141 144.291 324.808 144.32 324.897 C 155.786 341.489 164.467 357.962 165.741 374.14 C 159.608 375.384 151.224 373.577 141.535 370.021 C 151.638 379.324 159.223 381.872 162.216 382.584 C 152.912 383.176 143.254 389.546 133.506 396.894 C 147.757 391.087 159.282 388.776 167.519 390.642 C 154.423 427.678 141.328 468.565 128.202 512 C 132.232 510.815 134.632 508.089 135.965 504.445 C 138.306 496.593 153.801 444.981 178.126 377.221 C 178.837 375.295 179.519 373.34 180.23 371.414 C 180.407 370.851 180.615 370.317 180.822 369.814 C 183.37 362.703 186.066 355.444 188.792 348.037 C 189.414 346.348 190.037 344.659 190.688 342.971 C 190.688 342.941 190.718 342.911 190.718 342.882 L 171.549 305.106 C 171.489 305.491 171.4 305.935 171.312 306.38 Z " fill="url(#_lgradient_4)"/><linearGradient id="_lgradient_5" x1="-0.34876264335705975" y1="1.877899819182439" x2="0.833568525418171" y2="-0.6576495089297807" gradientTransform="matrix(149.86,0,0,195.695,194.985,151.394)" gradientUnits="userSpaceOnUse"><stop offset="32.33%" stop-opacity="1" style="stop-color:rgb(156,32,99)"/><stop offset="63.019999999999996%" stop-opacity="1" style="stop-color:rgb(200,32,55)"/><stop offset="75.14%" stop-opacity="1" style="stop-color:rgb(204,33,53)"/><stop offset="100%" stop-opacity="1" style="stop-color:rgb(232,119,38)"/></linearGradient><path d=" M 270.892 166.001 C 270.329 167.127 269.796 168.252 269.233 169.378 C 267.574 172.786 265.915 176.252 264.196 179.807 C 262.359 183.659 260.522 187.57 258.656 191.6 C 257.708 193.614 256.76 195.659 255.811 197.733 C 252.967 203.925 250.093 210.325 247.16 216.932 C 243.575 225.02 239.871 233.464 236.168 242.234 C 232.642 250.589 228.998 259.211 225.383 268.159 C 221.917 276.633 218.421 285.403 214.865 294.41 C 211.695 302.439 208.495 310.735 205.295 319.238 C 205.147 319.623 204.999 320.068 204.851 320.453 C 201.651 328.897 198.421 337.578 195.192 346.467 C 195.133 346.674 195.044 346.852 194.985 347.089 L 210.391 345.4 C 210.095 345.341 209.769 345.311 209.473 345.252 C 227.872 342.971 252.375 329.193 268.166 312.216 C 275.455 304.394 282.062 295.15 288.166 284.336 C 292.699 276.307 296.995 267.359 301.084 257.493 C 304.639 248.871 308.046 239.508 311.335 229.405 C 307.098 231.627 302.269 233.287 296.936 234.412 C 295.987 234.62 295.039 234.798 294.062 234.975 C 293.084 235.153 292.106 235.301 291.099 235.42 L 291.099 235.42 L 291.099 235.42 C 291.099 235.42 291.128 235.42 291.128 235.39 C 308.313 228.783 319.127 216.043 326.979 200.429 C 322.475 203.51 315.127 207.54 306.328 209.465 C 305.143 209.732 303.928 209.939 302.683 210.147 C 302.387 210.176 302.061 210.236 301.765 210.295 L 301.765 210.295 L 301.765 210.295 L 301.795 210.295 C 301.795 210.295 301.795 210.295 301.824 210.295 L 301.824 210.295 C 307.809 207.806 312.816 204.992 317.172 201.703 C 318.12 200.992 319.038 200.281 319.868 199.51 C 321.201 198.355 322.446 197.14 323.69 195.896 C 324.46 195.066 325.201 194.236 325.942 193.377 C 327.66 191.333 329.26 189.14 330.741 186.77 C 331.186 186.029 331.66 185.318 332.075 184.548 C 332.667 183.452 333.201 182.355 333.734 181.319 C 336.134 176.519 338.06 172.193 339.571 168.43 C 340.341 166.534 340.993 164.816 341.585 163.156 C 341.822 162.505 342.03 161.882 342.237 161.26 C 342.859 159.453 343.333 157.853 343.719 156.431 C 344.311 154.297 344.667 152.609 344.845 151.394 L 344.845 151.394 L 344.845 151.394 C 344.252 151.838 343.6 152.312 342.83 152.757 C 337.645 155.868 328.756 158.653 321.586 159.986 L 335.719 158.445 L 321.586 159.986 C 321.497 160.016 321.379 160.016 321.26 160.045 C 320.52 160.164 319.838 160.282 319.098 160.371 C 319.216 160.312 319.335 160.253 319.453 160.194 L 271.07 165.497 C 271.07 165.616 270.981 165.823 270.892 166.001 L 270.892 166.001 Z " fill="url(#_lgradient_5)"/><linearGradient id="_lgradient_6" x1="-1.2999849418890077" y1="4.65477263138313" x2="0.663605533697972" y2="0.4437861983521758" gradientTransform="matrix(111.047,0,0,104.321,271.129,61.176)" gradientUnits="userSpaceOnUse"><stop offset="32.33%" stop-opacity="1" style="stop-color:rgb(156,32,99)"/><stop offset="63.019999999999996%" stop-opacity="1" style="stop-color:rgb(200,32,55)"/><stop offset="75.14%" stop-opacity="1" style="stop-color:rgb(204,33,53)"/><stop offset="100%" stop-opacity="1" style="stop-color:rgb(232,119,38)"/></linearGradient><path d=" M 325.349 68.227 C 321.053 74.834 316.372 82.33 311.276 90.834 C 311.009 91.248 310.713 91.752 310.476 92.167 C 306.12 99.515 301.498 107.574 296.58 116.433 C 292.373 124.077 287.988 132.254 283.425 141.054 C 279.455 148.727 275.366 156.875 271.129 165.497 L 319.512 160.194 C 333.615 153.705 339.897 147.868 346 139.365 C 347.6 137.024 349.259 134.595 350.859 132.047 C 355.837 124.284 360.696 115.751 365.051 107.248 C 369.258 99.041 372.962 90.923 375.806 83.575 C 377.613 78.923 379.065 74.597 380.073 70.775 C 380.961 67.427 381.643 64.227 382.176 61.176 C 363.421 64.405 340.341 67.487 325.349 68.227 L 325.349 68.227 Z " fill="url(#_lgradient_6)"/><path d=" M 294.062 234.916 C 293.084 235.094 292.106 235.242 291.099 235.361 L 291.099 235.361 C 292.106 235.272 293.114 235.094 294.062 234.916 Z " fill="rgb(189,32,46)"/><g opacity="0.35"><path d=" M 294.062 234.916 C 293.084 235.094 292.106 235.242 291.099 235.361 L 291.099 235.361 C 292.106 235.272 293.114 235.094 294.062 234.916 Z " fill="rgb(189,32,46)"/></g><linearGradient id="_lgradient_7" x1="-45.23102598500009" y1="654.0445000133338" x2="28.364427595000052" y2="496.2165514613338" gradientTransform="matrix(2.963,0,0,0.444,291.099,234.916)" gradientUnits="userSpaceOnUse"><stop offset="32.33%" stop-opacity="1" style="stop-color:rgb(156,32,99)"/><stop offset="63.019999999999996%" stop-opacity="1" style="stop-color:rgb(200,32,55)"/><stop offset="75.14%" stop-opacity="1" style="stop-color:rgb(204,33,53)"/><stop offset="100%" stop-opacity="1" style="stop-color:rgb(232,119,38)"/></linearGradient><path d=" M 294.062 234.916 C 293.084 235.094 292.106 235.242 291.099 235.361 L 291.099 235.361 C 292.106 235.272 293.114 235.094 294.062 234.916 Z " fill="url(#_lgradient_7)"/><path d=" M 301.795 210.265 C 302.091 210.236 302.417 210.176 302.713 210.117 C 302.417 210.147 302.121 210.236 301.795 210.265 Z " fill="rgb(189,32,46)"/><g opacity="0.35"><path d=" M 301.795 210.265 C 302.091 210.236 302.417 210.176 302.713 210.117 C 302.417 210.147 302.121 210.236 301.795 210.265 Z " fill="rgb(189,32,46)"/></g><linearGradient id="_lgradient_8" x1="-159.31856987419266" y1="2124.4253442400013" x2="78.08611909354804" y2="1615.3029295561337" gradientTransform="matrix(0.918,0,0,0.148,301.795,210.117)" gradientUnits="userSpaceOnUse"><stop offset="32.33%" stop-opacity="1" style="stop-color:rgb(156,32,99)"/><stop offset="63.019999999999996%" stop-opacity="1" style="stop-color:rgb(200,32,55)"/><stop offset="75.14%" stop-opacity="1" style="stop-color:rgb(204,33,53)"/><stop offset="100%" stop-opacity="1" style="stop-color:rgb(232,119,38)"/></linearGradient><path d=" M 301.795 210.265 C 302.091 210.236 302.417 210.176 302.713 210.117 C 302.417 210.147 302.121 210.236 301.795 210.265 Z " fill="url(#_lgradient_8)"/><path d=" M 301.795 210.265 C 301.824 210.265 301.824 210.236 301.795 210.265 L 301.795 210.265 L 301.795 210.265 L 301.795 210.265 C 301.824 210.236 301.824 210.265 301.795 210.265 Z " fill="rgb(189,32,46)"/><g opacity="0.35"><path d=" M 301.795 210.265 C 301.824 210.265 301.824 210.236 301.795 210.265 L 301.795 210.265 L 301.795 210.265 L 301.795 210.265 C 301.824 210.236 301.824 210.265 301.795 210.265 Z " fill="rgb(189,32,46)"/></g><linearGradient id="_lgradient_9" x1="-1087.7674586660005" y1="3927.8089164218745" x2="1081.165585999337" y2="-723.5416267753044" gradientTransform="matrix(0.022,0,0,0.013,301.795,210.252)" gradientUnits="userSpaceOnUse"><stop offset="32.33%" stop-opacity="1" style="stop-color:rgb(156,32,99)"/><stop offset="63.019999999999996%" stop-opacity="1" style="stop-color:rgb(200,32,55)"/><stop offset="75.14%" stop-opacity="1" style="stop-color:rgb(204,33,53)"/><stop offset="100%" stop-opacity="1" style="stop-color:rgb(232,119,38)"/></linearGradient><path d=" M 301.795 210.265 C 301.824 210.265 301.824 210.236 301.795 210.265 L 301.795 210.265 L 301.795 210.265 L 301.795 210.265 C 301.824 210.236 301.824 210.265 301.795 210.265 Z " fill="url(#_lgradient_9)"/></g></g></g></svg>