<?xml version="1.0" encoding="UTF-8" standalone="no"?><!-- Generator: Gravit.io --><svg xmlns="http://www.w3.org/2000/svg" xmlns:xlink="http://www.w3.org/1999/xlink" style="isolation:isolate" viewBox="0 0 512 512" width="512pt" height="512pt"><defs><clipPath id="_clipPath_WyEbQjnktXPkAQ5xdz65qFOCo3ZHvUhe"><rect width="512" height="512"/></clipPath></defs><g clip-path="url(#_clipPath_WyEbQjnktXPkAQ5xdz65qFOCo3ZHvUhe)"><path d=" M 144.287 214.11 C 144.287 220.41 144.968 225.519 146.16 229.265 C 147.522 233.011 149.225 237.098 151.609 241.526 C 152.46 242.888 152.801 244.25 152.801 245.442 C 152.801 247.145 151.779 248.848 149.565 250.551 L 138.837 257.703 C 137.305 258.725 135.772 259.235 134.41 259.235 C 132.707 259.235 131.004 258.384 129.301 256.851 C 126.917 254.297 124.874 251.573 123.171 248.848 C 121.468 245.953 119.765 242.718 117.892 238.801 C 104.61 254.467 87.922 262.301 67.828 262.301 C 53.524 262.301 42.115 258.214 33.771 250.04 C 25.427 241.866 21.17 230.968 21.17 217.345 C 21.17 202.871 26.279 191.121 36.666 182.266 C 47.053 173.411 60.847 168.984 78.386 168.984 C 84.176 168.984 90.136 169.495 96.436 170.346 C 102.737 171.198 109.208 172.56 116.019 174.093 L 116.019 161.662 C 116.019 148.72 113.295 139.695 108.016 134.416 C 102.567 129.137 93.371 126.583 80.259 126.583 C 74.299 126.583 68.169 127.264 61.868 128.796 C 55.568 130.329 49.437 132.202 43.477 134.586 C 40.753 135.778 38.709 136.459 37.517 136.8 C 36.325 137.14 35.474 137.311 34.793 137.311 C 32.409 137.311 31.217 135.608 31.217 132.032 L 31.217 123.688 C 31.217 120.963 31.557 118.92 32.409 117.728 C 33.26 116.536 34.793 115.344 37.177 114.152 C 43.137 111.087 50.289 108.532 58.633 106.489 C 66.977 104.275 75.832 103.254 85.197 103.254 C 105.461 103.254 120.276 107.851 129.812 117.047 C 139.178 126.242 143.946 140.206 143.946 158.937 L 143.946 214.11 L 144.287 214.11 Z  M 75.151 239.993 C 80.77 239.993 86.56 238.971 92.69 236.928 C 98.82 234.885 104.269 231.138 108.867 226.03 C 111.592 222.794 113.635 219.218 114.657 215.131 C 115.679 211.045 116.36 206.106 116.36 200.317 L 116.36 193.165 C 111.421 191.973 106.143 190.951 100.693 190.27 C 95.244 189.589 89.965 189.248 84.687 189.248 C 73.277 189.248 64.933 191.462 59.314 196.059 C 53.695 200.657 50.97 207.128 50.97 215.642 C 50.97 223.646 53.013 229.606 57.271 233.693 C 61.357 237.95 67.317 239.993 75.151 239.993 Z  M 211.89 258.384 C 208.825 258.384 206.782 257.873 205.419 256.681 C 204.057 255.659 202.865 253.275 201.843 250.04 L 161.826 118.409 C 160.804 115.003 160.293 112.79 160.293 111.598 C 160.293 108.873 161.656 107.34 164.38 107.34 L 181.068 107.34 C 184.304 107.34 186.517 107.851 187.709 109.043 C 189.072 110.065 190.093 112.449 191.115 115.684 L 219.723 228.414 L 246.288 115.684 C 247.139 112.279 248.161 110.065 249.523 109.043 C 250.886 108.022 253.27 107.34 256.335 107.34 L 269.958 107.34 C 273.193 107.34 275.407 107.851 276.769 109.043 C 278.131 110.065 279.323 112.449 280.004 115.684 L 306.91 229.776 L 336.369 115.684 C 337.391 112.279 338.583 110.065 339.775 109.043 C 341.137 108.022 343.351 107.34 346.416 107.34 L 362.252 107.34 C 364.977 107.34 366.51 108.703 366.51 111.598 C 366.51 112.449 366.339 113.3 366.169 114.322 C 365.999 115.344 365.658 116.706 364.977 118.579 L 323.938 250.21 C 322.916 253.616 321.724 255.83 320.362 256.851 C 319 257.873 316.786 258.554 313.891 258.554 L 299.247 258.554 C 296.011 258.554 293.798 258.043 292.435 256.851 C 291.073 255.659 289.881 253.446 289.2 250.04 L 262.806 140.206 L 236.582 249.87 C 235.73 253.275 234.708 255.489 233.346 256.681 C 231.984 257.873 229.6 258.384 226.535 258.384 L 211.89 258.384 Z  M 430.707 262.982 C 421.852 262.982 412.998 261.96 404.483 259.917 C 395.969 257.873 389.328 255.659 384.9 253.105 C 382.176 251.573 380.303 249.87 379.622 248.337 C 378.94 246.805 378.6 245.102 378.6 243.569 L 378.6 234.885 C 378.6 231.309 379.962 229.606 382.516 229.606 C 383.538 229.606 384.56 229.776 385.582 230.117 C 386.603 230.457 388.136 231.138 389.839 231.819 C 395.628 234.374 401.929 236.417 408.57 237.779 C 415.382 239.142 422.023 239.823 428.834 239.823 C 439.562 239.823 447.906 237.95 453.696 234.203 C 459.486 230.457 462.551 225.008 462.551 218.026 C 462.551 213.258 461.018 209.342 457.953 206.106 C 454.888 202.871 449.098 199.976 440.754 197.251 L 416.063 189.589 C 403.632 185.672 394.436 179.882 388.817 172.219 C 383.198 164.727 380.303 156.383 380.303 147.528 C 380.303 140.376 381.835 134.075 384.9 128.626 C 387.966 123.177 392.052 118.409 397.161 114.663 C 402.27 110.746 408.059 107.851 414.871 105.808 C 421.682 103.764 428.834 102.913 436.327 102.913 C 440.073 102.913 443.99 103.083 447.736 103.594 C 451.653 104.105 455.229 104.786 458.805 105.467 C 462.21 106.319 465.446 107.17 468.511 108.192 C 471.576 109.214 473.96 110.235 475.663 111.257 C 478.047 112.619 479.75 113.982 480.771 115.514 C 481.793 116.876 482.304 118.75 482.304 121.134 L 482.304 129.137 C 482.304 132.713 480.942 134.586 478.387 134.586 C 477.025 134.586 474.811 133.905 471.917 132.543 C 462.21 128.115 451.312 125.902 439.222 125.902 C 429.515 125.902 421.852 127.434 416.574 130.67 C 411.295 133.905 408.57 138.843 408.57 145.825 C 408.57 150.593 410.273 154.68 413.679 157.915 C 417.084 161.151 423.385 164.386 432.41 167.281 L 456.591 174.944 C 468.851 178.861 477.706 184.31 482.985 191.291 C 488.264 198.273 490.818 206.277 490.818 215.131 C 490.818 222.454 489.286 229.095 486.391 234.885 C 483.326 240.674 479.239 245.783 473.96 249.87 C 468.681 254.127 462.381 257.192 455.058 259.406 C 447.395 261.79 439.392 262.982 430.707 262.982 Z " fill="rgb(37,47,62)"/><g><path d=" M 462.891 345.741 C 406.867 387.12 325.471 409.087 255.483 409.087 C 157.399 409.087 69.02 372.816 2.268 312.535 C -3.011 307.767 1.757 301.296 8.058 305.042 C 80.259 346.933 169.319 372.305 261.443 372.305 C 323.598 372.305 391.882 359.363 454.718 332.799 C 464.083 328.542 472.087 338.929 462.891 345.741 Z " fill-rule="evenodd" fill="rgb(255,153,0)"/><path d=" M 486.221 319.176 C 479.069 309.981 438.881 314.749 420.66 316.962 C 415.211 317.643 414.36 312.875 419.298 309.299 C 451.312 286.822 503.93 293.293 510.061 300.785 C 516.191 308.448 508.358 361.066 478.387 386.269 C 473.79 390.185 469.362 388.142 471.406 383.033 C 478.217 366.175 493.373 328.201 486.221 319.176 Z " fill-rule="evenodd" fill="rgb(255,153,0)"/></g></g></svg>