<?xml version="1.0" encoding="UTF-8" standalone="no"?><!-- Generator: Gravit.io --><svg xmlns="http://www.w3.org/2000/svg" xmlns:xlink="http://www.w3.org/1999/xlink" style="isolation:isolate" viewBox="0 0 1451.339 1451.339" width="1451.339pt" height="1451.339pt"><defs><clipPath id="_clipPath_gpLOnGuqYElHxiXHw66JEyGJwmMvb5xl"><rect width="1451.339" height="1451.339"/></clipPath></defs><g clip-path="url(#_clipPath_gpLOnGuqYElHxiXHw66JEyGJwmMvb5xl)"><path d=" M 671.425 1227.708 C 857.889 1194.769 1011.897 1167.512 1013.665 1167.137 L 1016.881 1166.455 L 840.842 957.061 C 744.02 841.894 664.802 747.221 664.802 746.675 C 664.802 745.642 846.578 245.07 847.6 243.289 C 847.941 242.694 971.646 456.265 1147.467 761.001 C 1312.073 1046.3 1447.784 1281.53 1449.045 1283.734 L 1451.339 1287.742 L 891.87 1287.67 L 332.401 1287.598 L 671.425 1227.708 L 671.425 1227.708 Z  M 0 1163.853 C 0 1163.558 82.949 1019.565 184.331 843.868 L 368.663 524.42 L 583.479 344.145 C 701.628 244.994 798.614 163.749 799.003 163.601 C 799.392 163.453 797.838 167.365 795.549 172.294 C 793.261 177.223 688.293 402.367 562.288 672.614 L 333.189 1163.971 L 166.594 1164.18 C 74.967 1164.295 0 1164.148 0 1163.853 L 0 1163.853 Z " fill="rgb(0,137,214)"/></g></svg>