<?xml version="1.0" encoding="UTF-8" standalone="no"?><!-- Generator: Gravit.io --><svg xmlns="http://www.w3.org/2000/svg" xmlns:xlink="http://www.w3.org/1999/xlink" style="isolation:isolate" viewBox="0 0 512 512" width="512pt" height="512pt"><defs><clipPath id="_clipPath_OjpeqW2jnJ6w3hE9g3oy1mFjGuu6DVmd"><rect width="512" height="512"/></clipPath></defs><g clip-path="url(#_clipPath_OjpeqW2jnJ6w3hE9g3oy1mFjGuu6DVmd)"><g><mask id="_mask_Uy3WHLRfJhRhKrIJcx8ceKisl1zm6NGN" x="-200%" y="-200%" width="400%" height="400%"><rect x="-200%" y="-200%" width="400%" height="400%" style="fill:white;"/><path d=" M 49.895 0 L 49.895 276.9 L 256 394.389 L 256 314.526 L 118.119 235.928 L 118.119 112.473 L 256 191.071 L 256 117.489 L 49.895 0 Z " fill-rule="evenodd" fill="black" stroke="none"/></mask><path d=" M 49.895 0 L 49.895 276.9 L 256 394.389 L 256 314.526 L 118.119 235.928 L 118.119 112.473 L 256 191.071 L 256 117.489 L 49.895 0 Z " fill-rule="evenodd" fill="rgb(0,42,65)"/><path d=" M 49.895 0 L 49.895 276.9 L 256 394.389 L 256 314.526 L 118.119 235.928 L 118.119 112.473 L 256 191.071 L 256 117.489 L 49.895 0 Z " fill-rule="evenodd" fill="rgb(0,42,65)" mask="url(#_mask_Uy3WHLRfJhRhKrIJcx8ceKisl1zm6NGN)" vector-effect="non-scaling-stroke" stroke-width="0.358" stroke="rgb(132,132,132)" stroke-linejoin="miter" stroke-linecap="butt" stroke-miterlimit="4"/><mask id="_mask_wIyGcLUr4qQXZYfmREDWrnra3MbGe23r" x="-200%" y="-200%" width="400%" height="400%"><rect x="-200%" y="-200%" width="400%" height="400%" style="fill:white;"/><path d=" M 462.105 0 L 462.105 276.9 L 256 394.389 L 256 314.526 L 393.881 235.928 L 393.881 112.473 L 256 191.071 L 256 117.489 L 462.105 0 Z " fill-rule="evenodd" fill="black" stroke="none"/></mask><path d=" M 462.105 0 L 462.105 276.9 L 256 394.389 L 256 314.526 L 393.881 235.928 L 393.881 112.473 L 256 191.071 L 256 117.489 L 462.105 0 Z " fill-rule="evenodd" fill="rgb(0,113,181)"/><path d=" M 462.105 0 L 462.105 276.9 L 256 394.389 L 256 314.526 L 393.881 235.928 L 393.881 112.473 L 256 191.071 L 256 117.489 L 462.105 0 Z " fill-rule="evenodd" fill="rgb(0,113,181)" mask="url(#_mask_wIyGcLUr4qQXZYfmREDWrnra3MbGe23r)" vector-effect="non-scaling-stroke" stroke-width="0.358" stroke="rgb(132,132,132)" stroke-linejoin="miter" stroke-linecap="butt" stroke-miterlimit="4"/><mask id="_mask_QVFdRzICa7Z7GGEXtboJHoIufQAXkgVT" x="-200%" y="-200%" width="400%" height="400%"><rect x="-200%" y="-200%" width="400%" height="400%" style="fill:white;"/><path d=" M 49.895 512 L 49.895 235.1 L 256 117.611 L 256 197.474 L 118.119 276.072 L 118.119 393.247 L 256 314.649 L 256 394.511 L 49.895 512 Z " fill-rule="evenodd" fill="black" stroke="none"/></mask><path d=" M 49.895 512 L 49.895 235.1 L 256 117.611 L 256 197.474 L 118.119 276.072 L 118.119 393.247 L 256 314.649 L 256 394.511 L 49.895 512 Z " fill-rule="evenodd" fill="rgb(0,113,181)"/><path d=" M 49.895 512 L 49.895 235.1 L 256 117.611 L 256 197.474 L 118.119 276.072 L 118.119 393.247 L 256 314.649 L 256 394.511 L 49.895 512 Z " fill-rule="evenodd" fill="rgb(0,113,181)" mask="url(#_mask_QVFdRzICa7Z7GGEXtboJHoIufQAXkgVT)" vector-effect="non-scaling-stroke" stroke-width="0.358" stroke="rgb(132,132,132)" stroke-linejoin="miter" stroke-linecap="butt" stroke-miterlimit="4"/><mask id="_mask_n9l9puMOluuZEd3BQ8cKS4zRreRgJHgM" x="-200%" y="-200%" width="400%" height="400%"><rect x="-200%" y="-200%" width="400%" height="400%" style="fill:white;"/><path d=" M 462.105 512 L 462.105 235.1 L 256 117.611 L 256 197.474 L 393.881 276.072 L 393.881 393.247 L 256 314.649 L 256 394.511 L 462.105 512 Z " fill-rule="evenodd" fill="black" stroke="none"/></mask><path d=" M 462.105 512 L 462.105 235.1 L 256 117.611 L 256 197.474 L 393.881 276.072 L 393.881 393.247 L 256 314.649 L 256 394.511 L 462.105 512 Z " fill-rule="evenodd" fill="rgb(0,42,65)"/><path d=" M 462.105 512 L 462.105 235.1 L 256 117.611 L 256 197.474 L 393.881 276.072 L 393.881 393.247 L 256 314.649 L 256 394.511 L 462.105 512 Z " fill-rule="evenodd" fill="rgb(0,42,65)" mask="url(#_mask_n9l9puMOluuZEd3BQ8cKS4zRreRgJHgM)" vector-effect="non-scaling-stroke" stroke-width="0.358" stroke="rgb(132,132,132)" stroke-linejoin="miter" stroke-linecap="butt" stroke-miterlimit="4"/></g></g></svg>