<?xml version="1.0" encoding="UTF-8" standalone="no"?><!-- Generator: Gravit.io --><svg xmlns="http://www.w3.org/2000/svg" xmlns:xlink="http://www.w3.org/1999/xlink" style="isolation:isolate" viewBox="0 0 512 512" width="512pt" height="512pt"><defs><clipPath id="_clipPath_07mtoRwxEUDz6OD3rblyboOjvnEURT3X"><rect width="512" height="512"/></clipPath></defs><g clip-path="url(#_clipPath_07mtoRwxEUDz6OD3rblyboOjvnEURT3X)"><path d=" M 106.344 52.068 C 77.13 52.068 55.513 77.637 56.481 105.368 C 57.409 132.009 56.203 166.513 47.516 194.651 C 38.804 222.872 24.068 240.748 0 243.044 L 0 268.956 C 24.068 271.252 38.804 289.128 47.516 317.349 C 56.203 345.487 57.409 379.991 56.481 406.632 C 55.513 434.358 77.13 459.932 106.348 459.932 L 405.695 459.932 C 434.909 459.932 456.522 434.363 455.554 406.632 C 454.626 379.991 455.832 345.487 464.519 317.349 C 473.236 289.128 487.932 271.252 512 268.956 L 512 243.044 C 487.932 240.748 473.236 222.872 464.519 194.651 C 455.832 166.517 454.626 132.009 455.554 105.368 C 456.522 77.642 434.909 52.068 405.695 52.068 L 106.34 52.068 L 106.344 52.068 Z  M 347.119 303.134 C 347.119 341.317 318.638 364.475 271.373 364.475 L 190.915 364.475 C 186.123 364.475 182.237 360.589 182.237 355.797 L 182.237 156.203 C 182.237 151.411 186.123 147.525 190.915 147.525 L 270.913 147.525 C 310.324 147.525 336.189 168.873 336.189 201.65 C 336.189 224.655 318.789 245.252 296.622 248.858 L 296.622 250.06 C 326.799 253.371 347.119 274.267 347.119 303.134 Z  M 262.6 175.035 L 216.724 175.035 L 216.724 239.833 L 255.362 239.833 C 285.232 239.833 301.703 227.805 301.703 206.306 C 301.703 186.16 287.54 175.035 262.6 175.035 Z  M 216.724 265.546 L 216.724 336.957 L 264.287 336.957 C 295.385 336.957 311.86 324.478 311.86 301.026 C 311.86 277.569 294.925 265.541 262.287 265.541 L 216.724 265.541 L 216.724 265.546 Z " fill-rule="evenodd" fill="rgb(111,66,193)"/></g></svg>