<?xml version="1.0" encoding="UTF-8" standalone="no"?><!-- Generator: Gravit.io --><svg xmlns="http://www.w3.org/2000/svg" xmlns:xlink="http://www.w3.org/1999/xlink" style="isolation:isolate" viewBox="0 0 512 512" width="512pt" height="512pt"><defs><clipPath id="_clipPath_Yskl7N7t7peC92GkqFQBpqBZVuETxn6u"><rect width="512" height="512"/></clipPath></defs><g clip-path="url(#_clipPath_Yskl7N7t7peC92GkqFQBpqBZVuETxn6u)"><g><g><g><g><path d=" M 214.73 236.87 L 233.681 255.71 L 214.73 274.55 L 81.345 274.55 L 81.345 337.326 L 0 255.71 L 81.345 175.469 L 81.345 236.87 L 214.73 236.87 L 214.73 236.87 Z " fill-rule="evenodd" fill="rgb(147,34,121)"/></g><g/></g></g><g><g><g><path d=" M 275.13 214.73 L 256.29 233.681 L 237.45 214.73 L 237.45 81.344 L 174.674 81.344 L 256.29 -0.001 L 336.531 81.344 L 275.13 81.344 L 275.13 214.73 L 275.13 214.73 Z " fill-rule="evenodd" fill="rgb(239,167,36)"/></g><g/></g></g><g><g><path d=" M 297.27 275.13 L 278.319 256.29 L 297.27 237.45 L 430.655 237.45 L 430.655 174.674 L 512 256.29 L 430.655 336.531 L 430.655 275.13 L 297.27 275.13 L 297.27 275.13 Z " fill-rule="evenodd" fill="rgb(38,37,119)"/></g><g/></g><g><g><g><path d=" M 236.869 297.27 L 255.709 278.319 L 274.55 297.27 L 274.55 430.656 L 337.325 430.656 L 255.709 512.001 L 175.469 430.656 L 236.869 430.656 L 236.869 297.27 L 236.869 297.27 Z " fill-rule="evenodd" fill="rgb(156,205,42)"/></g><g/></g></g><g><mask id="_mask_hpZ9qt4lqj4vC8SAuATDeTy2AQfPxwNg" x="-200%" y="-200%" width="400%" height="400%"><rect x="-200%" y="-200%" width="400%" height="400%" style="fill:white;"/><path d=" M 76.563 76.563 L 238.635 76.563 L 238.635 238.636 L 76.563 238.636 L 76.563 76.563 Z " fill="black" stroke="none"/></mask><path d=" M 76.563 76.563 L 238.635 76.563 L 238.635 238.636 L 76.563 238.636 L 76.563 76.563 Z " fill="rgb(156,205,42)"/><path d=" M 76.563 76.563 L 238.635 76.563 L 238.635 238.636 L 76.563 238.636 L 76.563 76.563 Z " fill="rgb(156,205,42)" mask="url(#_mask_hpZ9qt4lqj4vC8SAuATDeTy2AQfPxwNg)" vector-effect="non-scaling-stroke" stroke-width="7.538" stroke="rgb(255,255,255)" stroke-linejoin="miter" stroke-linecap="butt" stroke-miterlimit="4"/><mask id="_mask_PyVefdV0BG7WHZ8DPPOEs0BQCEjqOTM5" x="-200%" y="-200%" width="400%" height="400%"><rect x="-200%" y="-200%" width="400%" height="400%" style="fill:white;"/><path d=" M 273.365 76.563 L 435.436 76.563 L 435.436 238.636 L 273.365 238.636 L 273.365 76.563 Z " fill="black" stroke="none"/></mask><path d=" M 273.365 76.563 L 435.436 76.563 L 435.436 238.636 L 273.365 238.636 L 273.365 76.563 Z " fill="rgb(147,34,121)"/><path d=" M 273.365 76.563 L 435.436 76.563 L 435.436 238.636 L 273.365 238.636 L 273.365 76.563 Z " fill="rgb(147,34,121)" mask="url(#_mask_PyVefdV0BG7WHZ8DPPOEs0BQCEjqOTM5)" vector-effect="non-scaling-stroke" stroke-width="7.538" stroke="rgb(255,255,255)" stroke-linejoin="miter" stroke-linecap="butt" stroke-miterlimit="4"/><mask id="_mask_jCDgcDvRaujeB0KQwaeqVF1nUSGBhbA0" x="-200%" y="-200%" width="400%" height="400%"><rect x="-200%" y="-200%" width="400%" height="400%" style="fill:white;"/><path d=" M 273.365 273.365 L 435.436 273.365 L 435.436 435.438 L 273.365 435.438 L 273.365 273.365 Z " fill="black" stroke="none"/></mask><path d=" M 273.365 273.365 L 435.436 273.365 L 435.436 435.438 L 273.365 435.438 L 273.365 273.365 Z " fill="rgb(239,167,36)"/><path d=" M 273.365 273.365 L 435.436 273.365 L 435.436 435.438 L 273.365 435.438 L 273.365 273.365 Z " fill="rgb(239,167,36)" mask="url(#_mask_jCDgcDvRaujeB0KQwaeqVF1nUSGBhbA0)" vector-effect="non-scaling-stroke" stroke-width="7.538" stroke="rgb(255,255,255)" stroke-linejoin="miter" stroke-linecap="butt" stroke-miterlimit="4"/><mask id="_mask_jpGBs6QQElhOrbjxUId3pKQ6AiRDMeEa" x="-200%" y="-200%" width="400%" height="400%"><rect x="-200%" y="-200%" width="400%" height="400%" style="fill:white;"/><path d=" M 76.563 273.365 L 238.635 273.365 L 238.635 435.438 L 76.563 435.438 L 76.563 273.365 Z " fill="black" stroke="none"/></mask><path d=" M 76.563 273.365 L 238.635 273.365 L 238.635 435.438 L 76.563 435.438 L 76.563 273.365 Z " fill="rgb(38,37,119)"/><path d=" M 76.563 273.365 L 238.635 273.365 L 238.635 435.438 L 76.563 435.438 L 76.563 273.365 Z " fill="rgb(38,37,119)" mask="url(#_mask_jpGBs6QQElhOrbjxUId3pKQ6AiRDMeEa)" vector-effect="non-scaling-stroke" stroke-width="7.538" stroke="rgb(255,255,255)" stroke-linejoin="miter" stroke-linecap="butt" stroke-miterlimit="4"/></g><mask id="_mask_F2NZ1a5Q8GF5puBvtVjcU5pJZxDIicBD" x="-200%" y="-200%" width="400%" height="400%"><rect x="-200%" y="-200%" width="400%" height="400%" style="fill:white;"/><path d=" M 2.238 256.001 L 116.84 141.398 L 231.442 256.001 L 116.84 370.603 L 2.238 256.001 Z " fill="black" stroke="none"/></mask><path d=" M 2.238 256.001 L 116.84 141.398 L 231.442 256.001 L 116.84 370.603 L 2.238 256.001 Z " fill="none"/><path d=" M 2.238 256.001 L 116.84 141.398 L 231.442 256.001 L 116.84 370.603 L 2.238 256.001 Z " fill="none" mask="url(#_mask_F2NZ1a5Q8GF5puBvtVjcU5pJZxDIicBD)" vector-effect="non-scaling-stroke" stroke-width="7.538" stroke="rgb(255,255,255)" stroke-linejoin="miter" stroke-linecap="butt" stroke-miterlimit="4"/><mask id="_mask_p4pN3nzH79csIQuEdzgB5hYtabTk49kx" x="-200%" y="-200%" width="400%" height="400%"><rect x="-200%" y="-200%" width="400%" height="400%" style="fill:white;"/><path d=" M 141.398 116.84 L 256 2.238 L 370.602 116.84 L 256 231.443 L 141.398 116.84 Z " fill="black" stroke="none"/></mask><path d=" M 141.398 116.84 L 256 2.238 L 370.602 116.84 L 256 231.443 L 141.398 116.84 Z " fill="none"/><path d=" M 141.398 116.84 L 256 2.238 L 370.602 116.84 L 256 231.443 L 141.398 116.84 Z " fill="none" mask="url(#_mask_p4pN3nzH79csIQuEdzgB5hYtabTk49kx)" vector-effect="non-scaling-stroke" stroke-width="7.537" stroke="rgb(255,255,255)" stroke-linejoin="miter" stroke-linecap="butt" stroke-miterlimit="4"/><mask id="_mask_mD3QnNtaoYsEAxJTYx67am9A0290CDbq" x="-200%" y="-200%" width="400%" height="400%"><rect x="-200%" y="-200%" width="400%" height="400%" style="fill:white;"/><path d=" M 280.557 256 L 395.159 141.398 L 509.761 256 L 395.159 370.603 L 280.557 256 Z " fill="black" stroke="none"/></mask><path d=" M 280.557 256 L 395.159 141.398 L 509.761 256 L 395.159 370.603 L 280.557 256 Z " fill="none"/><path d=" M 280.557 256 L 395.159 141.398 L 509.761 256 L 395.159 370.603 L 280.557 256 Z " fill="none" mask="url(#_mask_mD3QnNtaoYsEAxJTYx67am9A0290CDbq)" vector-effect="non-scaling-stroke" stroke-width="7.538" stroke="rgb(255,255,255)" stroke-linejoin="miter" stroke-linecap="butt" stroke-miterlimit="4"/><mask id="_mask_TB2fJpVrUTptOgGLPR8Yz3ysjhqcFSnm" x="-200%" y="-200%" width="400%" height="400%"><rect x="-200%" y="-200%" width="400%" height="400%" style="fill:white;"/><path d=" M 141.397 395.16 L 255.999 280.558 L 370.601 395.16 L 255.999 509.763 L 141.397 395.16 Z " fill="black" stroke="none"/></mask><path d=" M 141.397 395.16 L 255.999 280.558 L 370.601 395.16 L 255.999 509.763 L 141.397 395.16 Z " fill="none"/><path d=" M 141.397 395.16 L 255.999 280.558 L 370.601 395.16 L 255.999 509.763 L 141.397 395.16 Z " fill="none" mask="url(#_mask_TB2fJpVrUTptOgGLPR8Yz3ysjhqcFSnm)" vector-effect="non-scaling-stroke" stroke-width="7.538" stroke="rgb(255,255,255)" stroke-linejoin="miter" stroke-linecap="butt" stroke-miterlimit="4"/></g></g></svg>