<?xml version="1.0" encoding="UTF-8" standalone="no"?><!-- Generator: Gravit.io --><svg xmlns="http://www.w3.org/2000/svg" xmlns:xlink="http://www.w3.org/1999/xlink" style="isolation:isolate" viewBox="0 0 512 512" width="512pt" height="512pt"><defs><clipPath id="_clipPath_khUtfbRtW6LKuC1dBwDqNRVn4AP8e6QN"><rect width="512" height="512"/></clipPath></defs><g clip-path="url(#_clipPath_khUtfbRtW6LKuC1dBwDqNRVn4AP8e6QN)"><circle vector-effect="non-scaling-stroke" cx="252.1815400305966" cy="255.99999999999997" r="60.95665476797549" fill="rgb(0,0,0)"/><path d=" M 252.182 0 C 132.904 0 32.677 81.591 4.243 192 C 3.998 192.971 3.818 193.991 3.818 195.043 C 3.818 201.775 9.277 207.233 16.008 207.233 L 119.229 207.233 C 124.149 207.233 128.351 204.312 130.276 200.11 C 130.276 200.11 130.431 199.825 130.48 199.686 C 151.759 153.766 198.234 121.905 252.165 121.905 C 326.225 121.905 386.268 181.932 386.268 256 C 386.268 330.068 326.242 390.095 252.182 390.095 C 198.25 390.095 151.784 358.234 130.497 312.322 C 130.44 312.175 130.285 311.89 130.285 311.89 C 128.315 307.556 123.997 304.772 119.237 304.767 L 16.016 304.767 C 9.277 304.767 3.818 310.225 3.818 316.957 C 3.818 318.009 3.99 319.029 4.243 320 C 32.677 430.409 132.904 512 252.182 512 C 393.571 512 508.182 397.381 508.182 256 C 508.182 114.619 393.571 0 252.182 0 Z " fill="rgb(0,0,0)"/></g></svg>