<?xml version="1.0" encoding="UTF-8" standalone="no"?><!-- Generator: Gravit.io --><svg xmlns="http://www.w3.org/2000/svg" xmlns:xlink="http://www.w3.org/1999/xlink" style="isolation:isolate" viewBox="0 0 512 512" width="512pt" height="512pt"><defs><clipPath id="_clipPath_n8gMStRdghVfKGWtDzaYsESBELqqsrSc"><rect width="512" height="512"/></clipPath></defs><g clip-path="url(#_clipPath_n8gMStRdghVfKGWtDzaYsESBELqqsrSc)"><g><path d=" M 296.159 270.518 C 287.676 270.632 297.754 274.879 308.832 276.588 C 311.903 274.192 314.663 271.784 317.138 269.434 C 310.251 271.12 303.233 271.16 296.159 270.518 Z " fill="rgb(215,7,81)"/><path d=" M 341.678 259.168 C 346.748 252.19 350.427 244.559 351.727 236.667 C 350.586 242.288 347.549 247.143 344.664 252.275 C 328.806 262.263 343.165 246.348 344.653 240.29 C 327.608 261.769 342.302 253.167 341.678 259.168 Z " fill="rgb(215,7,81)"/><path d=" M 358.501 215.427 C 359.534 200.148 355.497 204.985 354.14 210.805 C 355.719 211.634 356.974 221.581 358.501 215.427 Z " fill="rgb(215,7,81)"/><path d=" M 263.977 6.603 C 268.508 7.41 273.766 8.034 273.011 9.119 C 277.984 8.023 279.103 7.035 263.977 6.603 Z " fill="rgb(215,7,81)"/><path d=" M 273.016 9.119 L 269.831 9.783 L 272.8 9.51 L 273.016 9.119 Z " fill="rgb(215,7,81)"/><path d=" M 414.217 221.218 C 414.728 234.935 410.214 241.601 406.132 253.388 L 398.791 257.039 C 392.789 268.701 399.387 264.443 395.089 273.715 C 385.709 282.044 366.666 299.77 360.568 301.394 C 356.111 301.297 363.583 296.136 364.559 294.121 C 352.017 302.728 354.492 307.043 335.307 312.284 L 334.751 311.029 C 287.455 333.286 221.752 289.187 222.615 229.025 C 222.115 232.84 221.178 231.886 220.133 233.419 C 217.692 202.47 234.43 171.384 262.66 158.671 C 290.271 145.011 322.64 150.609 342.404 169.056 C 331.549 154.828 309.922 139.742 284.309 141.138 C 259.208 141.547 235.719 157.496 227.884 174.819 C 215.029 182.91 213.53 206.024 207.932 210.26 C 200.386 265.675 222.109 289.607 258.862 317.774 C 264.63 321.669 260.485 322.265 261.258 325.229 C 249.05 319.517 237.876 310.887 228.678 300.321 C 233.561 307.458 238.825 314.396 245.632 319.847 C 234.112 315.957 218.731 291.952 214.251 290.975 C 234.095 326.507 294.751 353.289 326.529 339.997 C 311.824 340.542 293.15 340.298 276.639 334.194 C 269.683 330.623 260.264 323.236 261.95 321.857 C 305.306 338.044 350.081 334.109 387.588 304.045 C 397.138 296.608 407.563 283.963 410.578 283.793 C 406.041 290.617 411.356 287.075 407.869 293.099 C 417.363 277.763 403.73 286.853 417.692 266.617 L 422.847 273.715 C 420.917 260.974 438.66 245.519 436.854 225.385 C 440.925 219.231 441.391 232.017 437.076 246.177 C 443.066 230.467 438.66 227.94 440.193 214.972 C 441.845 219.333 444.043 223.96 445.161 228.565 C 441.255 213.377 449.153 202.998 451.117 194.169 C 449.175 193.317 445.093 200.88 444.15 182.95 C 444.292 175.16 446.325 178.867 447.103 176.948 C 445.581 176.068 441.567 170.095 439.131 158.643 C 440.886 155.946 443.855 165.621 446.263 166.013 C 444.712 156.911 442.05 149.967 441.936 142.978 C 434.896 128.273 439.444 144.943 433.743 136.664 C 426.248 113.306 439.955 131.242 440.886 120.636 C 452.23 137.073 458.697 162.566 461.678 173.121 C 459.407 160.25 455.744 147.776 451.265 135.71 C 454.722 137.17 445.706 109.235 455.756 127.733 C 445.03 88.301 409.891 51.452 377.556 34.169 C 381.502 37.786 386.492 42.328 384.71 43.043 C 368.619 33.476 371.446 32.721 369.141 28.678 C 356.054 23.347 355.179 29.116 346.521 28.69 C 321.822 15.586 317.065 16.977 294.336 8.778 L 295.37 13.615 C 279.012 8.165 276.309 15.671 258.634 13.627 C 257.561 12.792 264.301 10.583 269.854 9.783 C 254.035 11.872 254.774 6.66 239.296 10.356 C 243.106 7.682 247.148 5.905 251.214 3.634 C 238.319 4.417 220.417 11.14 225.942 5.019 C 204.906 14.41 167.54 27.588 146.572 47.251 L 145.913 42.845 C 136.307 54.376 104.017 77.286 101.445 92.236 L 98.873 92.832 C 93.882 101.297 90.64 110.887 86.677 119.591 C 80.142 130.737 77.093 123.884 78.024 125.632 C 65.164 151.705 58.765 173.61 53.252 191.586 C 57.181 197.462 53.348 226.969 54.83 250.583 C 48.38 367.228 136.693 480.471 233.226 506.612 C 247.375 511.682 268.412 511.5 286.308 512 C 265.198 505.959 262.473 508.803 241.896 501.632 C 227.06 494.637 223.813 486.66 213.297 477.536 L 217.459 484.889 C 196.849 477.593 205.473 475.861 188.701 470.552 L 193.147 464.755 C 186.464 464.244 175.449 453.502 172.44 447.534 L 165.127 447.824 C 156.349 437.002 151.665 429.184 152.011 423.126 L 149.649 427.339 C 146.975 422.745 117.337 386.697 132.712 395.089 C 129.857 392.488 126.058 390.847 121.942 383.358 L 125.07 379.787 C 117.683 370.265 111.455 358.064 111.932 353.999 C 115.878 359.324 118.615 360.324 121.329 361.238 C 102.643 314.884 101.593 358.688 87.449 314.055 L 90.436 313.817 C 88.148 310.348 86.745 306.606 84.906 302.921 L 86.211 289.947 C 72.766 274.413 82.453 223.83 84.4 196.094 C 85.734 184.818 95.625 172.809 103.137 153.976 L 98.561 153.192 C 107.316 137.93 148.536 91.878 167.637 94.24 C 176.886 82.623 165.797 94.194 163.986 91.276 C 184.307 70.251 190.694 76.423 204.406 72.636 C 219.185 63.864 191.716 76.065 198.722 69.292 C 224.289 62.768 216.835 54.45 250.18 51.14 C 253.7 53.138 242.021 54.229 239.091 56.823 C 260.383 46.399 306.481 48.778 336.437 62.603 C 371.168 78.847 410.214 126.842 411.759 171.997 L 413.513 172.468 C 412.627 190.422 416.261 211.185 409.953 230.251 L 414.217 221.218" fill="rgb(215,7,81)"/><path d=" M 203.549 282.158 L 202.351 288.102 C 207.932 295.682 212.36 303.892 219.475 309.797 C 214.353 299.81 210.555 295.682 203.549 282.158 Z " fill="rgb(215,7,81)"/><path d=" M 216.727 281.647 C 213.774 278.376 212.037 274.447 210.072 270.541 C 211.946 277.417 215.784 283.327 219.344 289.346 L 216.727 281.647 Z " fill="rgb(215,7,81)"/><path d=" M 449.993 230.944 L 448.749 234.078 C 446.467 250.305 441.522 266.362 433.959 281.255 C 442.316 265.544 447.705 248.358 449.993 230.944 Z " fill="rgb(215,7,81)"/><path d=" M 265.664 2.532 C 271.392 0.437 279.756 1.38 285.854 0 C 277.916 0.664 270.018 1.062 262.223 2.055 L 265.664 2.532 Z " fill="rgb(215,7,81)"/><path d=" M 64.267 109.627 C 65.59 121.857 55.069 126.609 66.595 118.535 C 72.783 104.602 64.187 114.691 64.267 109.627 Z " fill="rgb(215,7,81)"/><path d=" M 50.708 166.257 C 53.371 158.098 53.848 153.204 54.864 148.474 C 47.523 157.865 51.48 159.869 50.708 166.257 Z " fill="rgb(215,7,81)"/></g></g></svg>