<?xml version="1.0" encoding="UTF-8" standalone="no"?><!-- Generator: Gravit.io --><svg xmlns="http://www.w3.org/2000/svg" xmlns:xlink="http://www.w3.org/1999/xlink" style="isolation:isolate" viewBox="0 0 512 512" width="512pt" height="512pt"><defs><clipPath id="_clipPath_kpUwzggYoFfvrsJiXqDJgOfaVAbSqxSz"><rect width="512" height="512"/></clipPath></defs><g clip-path="url(#_clipPath_kpUwzggYoFfvrsJiXqDJgOfaVAbSqxSz)"><path d=" M 235.851 0.121 C 234.655 0.247 230.814 0.688 227.351 1.002 C 178.112 6.166 129.629 27.007 90.087 60.127 C 82.783 66.171 66.16 82.794 60.116 90.098 C 27.374 129.199 8.233 173.086 1.181 225.032 C -0.394 236.555 -0.394 275.467 1.181 286.989 C 8.233 338.936 27.374 382.822 60.116 421.924 C 66.16 429.227 82.783 445.85 90.087 451.895 C 129.188 484.637 173.075 503.778 225.021 510.83 C 236.544 512.404 275.456 512.404 286.979 510.83 C 338.925 503.778 382.812 484.637 421.913 451.895 C 429.217 445.85 445.84 429.227 451.884 421.924 C 484.626 382.822 503.767 338.936 510.819 286.989 C 512.394 275.467 512.394 236.555 510.819 225.032 C 503.767 173.086 484.626 129.199 451.884 90.098 C 445.84 82.794 429.217 66.171 421.913 60.127 C 382.937 27.511 338.61 8.117 287.357 1.254 C 281.816 0.499 273.756 0.184 258.833 0.058 C 247.437 -0.068 237.048 -0.005 235.851 0.121 Z  M 238.999 27.322 C 238.999 34.689 239.503 50.682 240.196 65.856 C 240.574 73.286 241.014 83.927 241.203 89.468 C 241.896 109.113 243.974 160.682 244.289 165.278 L 244.603 169.875 L 241.77 169.56 C 240.196 169.434 238.748 169.056 238.496 168.867 C 238.307 168.615 237.866 164.271 237.614 159.171 C 236.481 136.755 232.766 49.8 232.388 37.081 L 232.01 23.103 L 233.773 22.851 C 234.718 22.725 236.292 22.536 237.299 22.473 L 238.999 22.411 L 238.999 27.322 Z  M 299.257 25.811 C 299.32 25.874 299.509 44.889 299.698 68.06 C 299.95 91.294 300.264 112.136 300.453 114.402 C 300.642 116.732 300.579 118.747 300.264 118.873 C 300.013 119.062 298.438 119.062 296.864 118.873 L 293.968 118.621 L 293.527 100.298 C 293.275 90.161 292.96 78.953 292.835 75.301 C 292.331 64.156 291.89 26.314 292.268 25.37 C 292.52 24.677 293.212 24.614 295.857 25.055 C 297.683 25.433 299.194 25.748 299.257 25.811 Z  M 153.619 46.904 C 153.997 47.471 156.956 82.164 160.608 127.562 C 161.804 142.989 163.001 157.093 163.19 158.856 C 163.504 162.067 163.441 162.193 161.427 163.452 C 160.293 164.145 159.16 164.711 158.908 164.711 C 158.719 164.711 158.341 163.074 158.152 161.059 C 157.271 152.874 153.871 113.332 151.478 84.746 C 150.093 67.934 148.834 52.886 148.645 51.248 C 148.33 48.478 148.393 48.226 150.03 47.345 C 152.045 46.274 153.178 46.085 153.619 46.904 Z  M 326.962 59.56 C 328.725 60.19 328.913 60.504 329.291 64.093 C 329.921 70.39 329.732 100.487 329.039 100.487 C 327.213 100.487 323.436 98.346 323.121 97.15 C 322.932 96.394 322.743 87.453 322.743 77.316 C 322.743 56.852 322.491 58.049 326.962 59.56 Z  M 210.665 62.519 C 210.665 64.219 211.106 73.601 211.61 83.487 C 212.113 93.372 212.68 105.902 212.932 111.317 C 213.373 122.273 213.499 121.895 209.28 122.147 C 207.202 122.21 207.202 122.21 207.076 119.062 C 206.95 117.299 206.635 111.821 206.258 106.784 C 205.943 101.746 205.187 90.853 204.684 82.542 C 204.18 74.231 203.55 65.982 203.361 64.219 C 202.983 61.071 203.046 60.945 204.746 60.315 C 205.754 59.938 207.517 59.623 208.65 59.623 C 210.665 59.56 210.665 59.56 210.665 62.519 Z  M 385.33 71.145 L 387.471 72.027 L 387.912 80.464 C 388.101 85.061 388.227 95.009 388.101 102.502 L 387.912 116.228 L 385.267 114.906 L 382.623 113.647 L 382.434 92.742 C 382.308 81.22 382.371 71.46 382.497 71.02 C 382.749 70.075 382.749 70.075 385.33 71.145 Z  M 270.356 79.394 C 270.734 79.772 271.615 110.31 271.678 125.799 L 271.741 135.118 L 268.782 134.677 C 267.082 134.488 265.697 134.299 265.634 134.236 C 265.445 134.11 263.556 87.453 263.556 82.92 L 263.556 78.26 L 266.767 78.638 C 268.593 78.89 270.167 79.205 270.356 79.394 Z  M 415.364 83.864 C 416.12 84.746 416.246 98.535 416.435 174.597 C 416.624 261.929 416.624 264.196 415.49 264.196 C 414.798 264.196 413.853 263.818 413.287 263.378 C 412.342 262.685 412.216 255.066 411.901 180.453 C 411.65 135.244 411.335 94.191 411.146 89.216 L 410.768 80.149 L 412.594 81.472 C 413.664 82.227 414.861 83.298 415.364 83.864 Z  M 358.885 96.772 C 359.2 97.024 359.514 100.613 359.577 104.706 C 359.892 118.621 359.955 203.939 359.64 204.191 C 359.514 204.316 358.381 204.002 357.122 203.498 L 354.855 202.553 L 354.855 148.97 L 354.855 95.45 L 356.618 95.828 C 357.563 96.08 358.57 96.457 358.885 96.772 Z  M 185.101 100.298 C 185.29 101.998 185.605 105.839 185.794 108.987 C 185.983 112.073 186.424 119.125 186.801 124.603 C 187.557 135.685 187.431 136.377 183.842 136.377 C 181.953 136.377 181.701 136.188 181.449 134.299 C 180.82 130.584 178.616 99.606 178.931 99.102 C 179.246 98.661 182.52 97.528 184.031 97.402 C 184.409 97.339 184.913 98.661 185.101 100.298 Z  M 80.957 116.354 C 81.65 123.029 83.035 137.007 84.043 147.396 C 85.113 157.785 85.994 166.6 85.994 166.978 C 85.994 167.734 81.146 170.126 80.642 169.623 C 80.328 169.308 74.031 113.584 74.031 111.065 C 74.031 109.554 78.879 103.195 79.509 103.887 C 79.698 104.013 80.328 109.617 80.957 116.354 Z  M 327.843 122.966 L 329.669 124.036 L 329.732 137.636 C 329.795 145.066 329.921 153.378 329.921 156.085 C 330.047 161.752 329.354 162.697 325.954 161.5 L 324.002 160.808 L 324.002 155.393 C 324.002 152.37 323.813 143.618 323.561 135.873 L 323.184 121.895 L 324.632 121.895 C 325.387 121.895 326.836 122.399 327.843 122.966 Z  M 108.599 147.396 C 109.732 159.485 111.558 179.886 112.755 192.731 L 114.895 216.028 L 112.44 218.484 L 110.047 220.939 L 109.606 215.965 C 109.354 213.195 108.095 200.35 106.773 187.379 C 105.451 174.408 103.562 155.582 102.617 145.57 L 100.854 127.436 L 103.31 125.169 C 105.514 123.092 105.765 123.029 106.206 124.162 C 106.458 124.792 107.529 135.244 108.599 147.396 Z  M 61.438 155.015 C 62.823 167.419 66.475 200.413 69.624 228.306 C 72.772 256.2 75.731 283.086 76.298 288.123 C 76.802 293.16 77.683 300.779 78.187 305.123 C 79.068 312.49 79.068 312.994 78.061 313.75 C 76.55 314.883 75.92 314.757 75.92 313.435 C 75.92 312.868 75.353 308.083 74.661 302.92 C 73.527 294.293 71.638 279.686 67.42 246.881 C 66.538 240.269 64.838 227.11 63.642 217.602 C 62.383 208.094 60.557 193.927 59.549 186.12 C 58.542 178.312 56.842 164.963 55.771 156.337 C 54.638 147.774 53.945 140.155 54.134 139.337 C 54.575 137.636 58.29 131.718 58.668 132.096 C 58.794 132.284 60.053 142.548 61.438 155.015 Z  M 42.171 182.153 C 43.115 189.709 44.878 203.498 46.075 212.88 C 47.271 222.198 48.782 233.847 49.475 238.695 L 50.671 247.51 L 49.349 248.644 C 48.593 249.273 47.838 249.525 47.586 249.273 C 47.334 249.022 46.83 246.503 46.452 243.733 C 46.075 240.962 43.745 224.78 41.226 207.842 L 36.756 176.99 L 38.204 172.708 C 38.96 170.378 39.778 168.489 39.967 168.489 C 40.219 168.489 41.163 174.66 42.171 182.153 Z  M 387.849 173.904 C 388.73 174.786 388.856 178.69 388.856 207.591 L 388.856 240.269 L 387.093 240.269 C 383.252 240.269 383.315 241.214 383.063 205.45 L 382.875 172.897 L 384.889 172.897 C 385.96 172.897 387.345 173.338 387.849 173.904 Z  M 250.018 185.175 C 264.248 187.316 276.653 191.283 288.931 197.579 C 296.864 201.672 300.642 204.505 309.457 212.943 C 322.554 225.473 330.614 236.429 338.169 251.918 C 349.188 274.459 353.47 294.419 358.885 347.94 C 361.34 371.929 364.552 415.438 365.244 433.257 C 365.433 438.42 365.874 446.921 366.252 452.147 C 366.944 463.229 367.763 461.717 358.003 466.44 C 344.466 472.988 331.432 477.522 314.243 481.74 C 293.212 486.903 279.612 488.541 258.833 488.603 L 243.722 488.666 L 243.848 481.425 C 243.848 477.459 244.226 468.203 244.603 460.962 C 246.492 425.89 246.114 381.626 243.659 357.07 C 242.274 342.965 239.566 325.839 238.055 322.061 C 237.74 321.242 239.188 320.55 245.422 318.409 C 256.819 314.442 266.704 309.468 268.215 307.012 C 270.923 302.353 266.074 295.679 259.904 295.679 C 258.833 295.679 255.622 296.812 252.663 298.134 C 238.559 304.62 210.287 312.238 193.979 313.939 C 182.709 315.135 165.204 314.442 153.052 312.238 C 146.441 311.042 134.603 306.572 124.718 301.471 C 113.321 295.553 106.332 287.682 104.254 278.363 C 103.121 273.326 103.436 263.252 104.884 257.585 C 106.458 251.351 110.866 242.284 114.895 236.995 C 132.84 213.383 169.864 192.92 207.832 185.742 C 219.921 183.475 237.048 183.223 250.018 185.175 Z  M 444.265 187.127 C 446.532 188.071 446.784 188.323 446.784 190.464 C 446.91 207.654 446.532 246.944 446.217 248.581 C 446.154 249.148 442.88 249.21 441.495 248.707 C 440.613 248.392 440.487 244.992 440.487 217.224 C 440.487 197.327 440.739 186.12 441.117 186.12 C 441.432 186.12 442.88 186.56 444.265 187.127 Z  M 471.781 221.695 L 474.048 222.639 L 473.607 274.774 C 473.103 341.202 473.04 343.154 470.648 348.884 C 466.744 358.266 466.933 360.155 467.311 318.976 C 467.437 298.386 467.751 277.545 467.877 272.696 C 468.003 267.848 468.129 254.185 468.192 242.284 C 468.192 227.928 468.381 220.75 468.822 220.75 C 469.2 220.75 470.522 221.191 471.781 221.695 Z  M 93.11 237.373 C 93.487 242.473 93.361 242.977 91.535 247.007 L 89.521 251.288 L 88.765 244.992 C 87.569 234.917 87.569 234.477 89.961 232.966 C 91.032 232.21 92.165 231.706 92.354 231.832 C 92.543 231.958 92.921 234.477 93.11 237.373 Z  M 54.197 275.341 C 54.764 280.504 59.171 314.757 61.438 331.569 C 64.838 357.573 65.09 361.288 63.579 359.714 C 63.39 359.525 61.942 350.773 60.431 340.258 C 50.608 272.382 50.671 272.822 51.49 272.319 C 53.19 271.185 53.756 271.815 54.197 275.341 Z  M 99.532 304.179 C 99.91 305.753 101.736 322.817 101.736 324.894 C 101.736 326.657 99.469 328.295 98.462 327.287 C 98.147 326.972 97.328 321.62 96.699 315.45 C 96.006 309.216 95.313 302.731 95.124 301.031 L 94.747 297.882 L 96.95 300.401 C 98.21 301.786 99.343 303.486 99.532 304.179 Z  M 150.345 327.917 C 151.037 328.546 151.478 331.065 152.045 337.865 C 152.989 350.143 153.115 349.199 150.534 349.199 C 147.889 349.199 147.952 349.388 147.071 338.306 C 146.189 327.035 146.189 327.161 147.889 327.161 C 148.708 327.161 149.778 327.539 150.345 327.917 Z  M 200.213 328.861 C 200.339 329.491 200.654 333.269 200.906 337.236 C 201.095 341.202 201.661 350.143 202.165 357.07 C 203.928 382.507 203.991 385.719 202.92 385.719 C 201.724 385.719 201.598 384.774 200.213 366.829 C 199.709 359.399 198.765 347.688 198.135 340.825 C 197.568 333.961 197.191 328.232 197.38 328.106 C 198.072 327.35 199.898 327.917 200.213 328.861 Z  M 81.839 340.951 C 82.217 341.517 84.609 361.666 87.569 389.182 C 88.45 397.493 89.332 405.49 89.521 407.001 L 89.835 409.708 L 88.261 408.701 C 87.065 407.882 86.624 407.064 86.624 405.616 C 86.624 401.649 83.917 375.518 81.839 359.525 C 80.642 350.458 79.698 342.462 79.698 341.706 C 79.698 340.384 81.209 339.88 81.839 340.951 Z  M 445.21 367.27 L 444.769 393.589 L 443.195 395.919 C 439.606 401.208 439.795 402.215 439.984 372.748 L 440.11 345.736 L 442.439 343.343 C 443.699 342.084 444.958 341.013 445.21 341.013 C 445.399 341.013 445.399 352.851 445.21 367.27 Z  M 386.967 409.016 C 387.282 445.598 387.219 448.432 386.212 449.565 C 385.582 450.258 385.015 450.699 384.826 450.51 C 384.386 450.006 383.756 370.229 384.26 369.788 C 384.512 369.537 385.141 369.411 385.708 369.474 C 386.526 369.663 386.715 374.133 386.967 409.016 Z  M 181.323 383.956 C 181.764 387.859 183.338 406.56 183.968 415.375 C 184.346 421.294 184.346 421.483 182.961 421.924 C 182.205 422.175 181.323 422.112 181.072 421.798 C 180.631 421.357 179.246 407.379 177.546 385.845 L 177.105 380.681 L 179.057 380.681 C 180.883 380.681 181.009 380.807 181.323 383.956 Z  M 131.833 405.993 C 132.274 406.434 132.589 408.008 132.589 409.582 C 132.589 411.219 133.344 419.72 134.163 428.535 C 136.555 452.65 136.744 455.925 135.674 455.295 C 134.037 454.35 132.589 452.902 132.903 452.525 C 133.029 452.273 132.777 449.124 132.274 445.535 C 131.833 441.883 131.266 435.965 131.014 432.313 C 130.763 428.661 130.196 421.986 129.692 417.516 C 128.496 406.497 128.559 405.238 129.944 405.238 C 130.574 405.238 131.392 405.553 131.833 405.993 Z  M 161.615 448.369 C 161.804 449.754 162.182 454.917 162.434 459.828 C 162.875 469.273 162.686 469.966 160.104 468.014 C 159.349 467.447 158.845 465.055 158.089 457.877 C 156.767 444.906 156.704 445.409 159.16 445.661 C 160.986 445.85 161.238 446.102 161.615 448.369 Z " fill="rgb(0,0,0)"/><path d=" M 139.137 215.335 C 132.589 218.169 132.085 227.047 138.255 230.195 C 142.726 232.462 147.259 231.391 149.589 227.488 C 153.997 220.31 146.819 211.998 139.137 215.335 Z " fill="rgb(0,0,0)"/><path d=" M 181.827 221.38 C 175.783 225.095 175.783 234.036 181.827 237.751 C 187.809 241.34 195.554 236.617 195.554 229.439 C 195.554 222.513 187.62 217.854 181.827 221.38 Z " fill="rgb(0,0,0)"/></g></svg>