<?xml version="1.0" encoding="UTF-8" standalone="no"?><!-- Generator: Gravit.io --><svg xmlns="http://www.w3.org/2000/svg" xmlns:xlink="http://www.w3.org/1999/xlink" style="isolation:isolate" viewBox="0 0 512 512" width="512pt" height="512pt"><defs><clipPath id="_clipPath_LQCJXzL2KxdBxj6g7TC81cWS5Q25T4ZV"><rect width="512" height="512"/></clipPath></defs><g clip-path="url(#_clipPath_LQCJXzL2KxdBxj6g7TC81cWS5Q25T4ZV)"><g><path d=" M 28.08 254.07 C 27.991 270.992 40.399 281.08 60.2 276.493 L 60.2 231.647 C 40.149 225.541 28.164 237.895 28.08 254.07 Z  M 60.806 166.801 L 88.077 166.801 L 88.077 295.886 C 61.937 300.16 36.9 302.87 18.99 292.856 C -4.072 279.962 -5.926 238.988 12.323 220.738 C 21.575 211.487 40.202 204.973 60.2 209.224 L 60.2 168.62 C 60.148 167.759 60.099 166.903 60.806 166.801" fill-rule="evenodd" fill="rgb(0,0,0)"/><path d=" M 132.317 195.285 L 105.046 195.285 L 105.046 166.801 L 132.317 166.801 L 132.317 195.285 L 132.317 195.285 Z " fill-rule="evenodd" fill="rgb(0,0,0)"/><path d=" M 459.574 277.705 C 489.304 289.258 492.593 224.491 462.605 230.434 C 443.981 234.125 444.579 271.878 459.574 277.705 Z  M 460.786 208.011 C 483.49 205.584 500.618 215.603 507.451 231.041 C 519.111 257.381 506.81 287.606 488.058 296.492 C 478.34 301.098 468.163 301.537 458.969 300.734 C 430.55 298.256 412.627 269.294 422.607 237.1 C 424.168 232.062 425.923 228.98 426.849 227.404 C 433.027 216.901 443.456 209.865 460.786 208.011" fill-rule="evenodd" fill="rgb(0,0,0)"/><path d=" M 169.892 267.403 C 162.349 280.079 181.301 283.116 193.526 279.524 L 193.526 260.736 C 184.133 262.048 173.44 261.438 169.892 267.403 Z  M 217.768 297.098 C 195.24 298.394 161.005 306.068 148.68 291.038 C 141.44 282.207 142.219 265.363 148.68 257.1 C 157.031 246.423 175.26 244.094 191.708 242.555 C 193.202 238.878 192.195 232.896 190.496 230.434 C 175.45 226.601 160.501 232.54 149.893 237.1 L 149.893 215.89 C 165.916 208.528 203.028 200.777 214.132 217.708 C 219.964 226.6 217.768 242.108 217.768 255.887 L 217.768 297.098 L 217.768 297.098 Z " fill-rule="evenodd" fill="rgb(0,0,0)"/><path d=" M 313.521 298.311 L 286.25 298.311 L 286.25 263.161 C 286.25 251.587 288.122 236.912 282.006 232.253 C 277.217 228.602 265.856 230.434 258.978 232.253 L 258.978 298.311 L 231.706 298.311 L 231.706 214.072 C 259.585 206.83 309.907 199.066 313.521 234.071 C 315.304 251.329 312.201 277.222 313.521 298.311" fill-rule="evenodd" fill="rgb(0,0,0)"/><path d=" M 354.125 269.221 C 358.714 276.646 371.141 279.43 381.396 274.675 C 380.833 260.491 380.636 245.942 380.79 231.04 C 357.222 224.813 343.176 251.509 354.125 269.221 M 422.607 211.648 C 420.179 218.917 416.627 225.06 413.516 231.647 C 410.706 232.277 408.27 230.53 406.85 231.647 C 406.228 261.189 413.141 301.237 401.395 322.551 C 394.323 335.385 381.303 343.618 361.397 344.975 C 346.896 345.964 335.642 343.594 325.035 339.521 L 325.035 314.067 C 337.476 321.331 368.911 327.253 377.76 312.249 C 380.364 307.834 380.199 303.272 381.396 296.492 C 375.699 296.791 370.168 299.43 363.216 299.523 C 334.634 299.902 316.952 277.144 323.823 245.585 C 326.481 233.377 333.634 223.548 343.217 217.708 C 363.12 205.577 393.714 206.498 422.607 211.648" fill-rule="evenodd" fill="rgb(0,0,0)"/><path d=" M 132.317 209.708 C 132.287 229.79 132.291 244.22 132.289 268.617 C 131.131 292.593 131.4 311.685 122.621 323.157 C 120.89 325.419 117.213 328.72 114.137 331.036 C 111.553 332.981 106.629 336.925 103.834 337.097 C 101.016 337.27 93.777 333.185 90.501 331.642 C 86.199 329.616 82.222 326.925 77.775 325.582 C 88.148 319.154 97.995 314.334 102.016 301.341 C 105.512 290.04 105.046 273.665 105.046 257.706 C 105.046 241.948 105.116 223.628 105.116 209.715 L 132.317 209.709 L 132.317 209.708 Z " fill-rule="evenodd" fill="rgb(0,0,0)"/></g></g></svg>