<?xml version="1.0" encoding="UTF-8" standalone="no"?><!-- Generator: Gravit.io --><svg xmlns="http://www.w3.org/2000/svg" xmlns:xlink="http://www.w3.org/1999/xlink" style="isolation:isolate" viewBox="0 0 512 512" width="512pt" height="512pt"><defs><clipPath id="_clipPath_e1BQ9nLYFVaP6APrlPueBhukLRRcz78a"><rect width="512" height="512"/></clipPath></defs><g clip-path="url(#_clipPath_e1BQ9nLYFVaP6APrlPueBhukLRRcz78a)"><path d=" M 506.951 210.992 C 505.562 209.889 492.599 200.101 465.261 200.101 C 458.043 200.133 450.839 200.752 443.721 201.953 C 438.43 165.687 408.447 148.006 407.103 147.212 L 399.762 142.979 L 394.934 149.946 C 388.888 159.305 384.474 169.622 381.883 180.458 C 376.988 201.16 379.965 220.604 390.481 237.227 C 377.782 244.303 357.411 246.045 353.289 246.199 L 16.027 246.199 C 7.218 246.212 0.07 253.33 0.022 262.139 C -0.372 291.685 4.634 321.055 14.792 348.802 C 26.41 379.27 43.695 401.713 66.182 415.448 C 91.381 430.88 132.321 439.698 178.728 439.698 C 199.692 439.764 220.617 437.867 241.229 434.033 C 269.881 428.772 297.451 418.757 322.799 404.402 C 343.686 392.307 362.484 376.92 378.466 358.833 C 405.186 328.585 421.104 294.899 432.942 264.961 C 434.529 264.961 436.117 264.961 437.66 264.961 C 466.915 264.961 484.905 253.254 494.826 243.444 C 501.419 237.187 506.566 229.565 509.906 221.111 L 512 214.982 L 506.951 210.992 Z " fill="rgb(13,183,237)"/><path d=" M 47.288 236.323 L 92.483 236.323 C 94.663 236.323 96.429 234.556 96.429 232.377 L 96.429 232.377 L 96.429 192.12 C 96.441 189.941 94.684 188.164 92.505 188.152 C 92.498 188.152 92.49 188.152 92.483 188.152 L 47.288 188.152 C 45.109 188.152 43.342 189.919 43.342 192.098 C 43.342 192.105 43.342 192.113 43.342 192.12 L 43.342 232.377 C 43.342 234.556 45.109 236.323 47.288 236.323 L 47.288 236.323 Z " fill="rgb(13,183,237)"/><path d=" M 109.569 236.323 L 154.763 236.323 C 156.943 236.323 158.709 234.556 158.709 232.377 L 158.709 232.377 L 158.709 192.12 C 158.722 189.941 156.965 188.164 154.785 188.152 C 154.778 188.152 154.77 188.152 154.763 188.152 L 109.568 188.152 C 107.376 188.152 105.6 189.928 105.6 192.12 L 105.6 232.377 C 105.613 234.56 107.386 236.323 109.569 236.323 Z " fill="rgb(13,183,237)"/><path d=" M 172.797 236.323 L 217.991 236.323 C 220.171 236.323 221.937 234.556 221.937 232.377 L 221.937 232.377 L 221.937 192.12 C 221.949 189.941 220.193 188.164 218.013 188.152 C 218.006 188.152 217.998 188.152 217.991 188.152 L 172.796 188.152 C 170.616 188.152 168.85 189.919 168.85 192.098 C 168.85 192.105 168.85 192.113 168.85 192.12 L 168.85 232.377 C 168.851 234.556 170.618 236.323 172.797 236.323 L 172.797 236.323 Z " fill="rgb(13,183,237)"/><path d=" M 235.276 236.323 L 280.47 236.323 C 282.654 236.323 284.426 234.561 284.439 232.377 L 284.439 192.12 C 284.439 189.928 282.662 188.152 280.47 188.152 L 280.47 188.152 L 235.276 188.152 C 233.096 188.152 231.33 189.919 231.33 192.098 C 231.33 192.105 231.33 192.113 231.33 192.12 L 231.33 232.377 C 231.33 234.556 233.097 236.323 235.276 236.323 L 235.276 236.323 Z " fill="rgb(13,183,237)"/><path d=" M 109.569 178.408 L 154.763 178.408 C 156.946 178.396 158.709 176.622 158.709 174.44 L 158.709 134.183 C 158.709 132.004 156.942 130.237 154.763 130.237 L 154.763 130.237 L 109.569 130.237 C 107.386 130.237 105.613 132 105.601 134.183 L 105.601 174.44 C 105.613 176.627 107.382 178.396 109.569 178.408 Z " fill="rgb(13,183,237)"/><path d=" M 172.797 178.408 L 217.991 178.408 C 220.174 178.396 221.937 176.622 221.937 174.44 L 221.937 134.183 C 221.937 132.004 220.17 130.237 217.991 130.237 L 217.991 130.237 L 172.797 130.237 C 170.617 130.237 168.851 132.004 168.851 134.183 L 168.851 134.183 L 168.851 174.44 C 168.851 176.622 170.614 178.396 172.797 178.408 Z " fill="rgb(13,183,237)"/><path d=" M 235.276 178.408 L 280.47 178.408 C 282.657 178.396 284.426 176.627 284.439 174.44 L 284.439 134.183 C 284.426 132 282.654 130.237 280.47 130.237 L 235.276 130.237 C 233.096 130.237 231.33 132.004 231.33 134.183 L 231.33 134.183 L 231.33 174.44 C 231.33 176.622 233.093 178.396 235.276 178.408 Z " fill="rgb(13,183,237)"/><path d=" M 235.276 120.471 L 280.47 120.471 C 282.654 120.471 284.426 118.708 284.439 116.525 L 284.439 76.246 C 284.426 74.063 282.654 72.3 280.47 72.3 L 235.276 72.3 C 233.096 72.3 231.33 74.066 231.33 76.246 L 231.33 76.246 L 231.33 116.524 C 231.33 118.704 233.097 120.471 235.276 120.471 Z " fill="rgb(13,183,237)"/><path d=" M 298.306 236.323 L 343.5 236.323 C 345.684 236.323 347.456 234.561 347.469 232.377 L 347.469 192.12 C 347.469 189.928 345.692 188.152 343.5 188.152 L 343.5 188.152 L 298.306 188.152 C 296.127 188.152 294.36 189.919 294.36 192.098 C 294.36 192.105 294.36 192.113 294.36 192.12 L 294.36 232.377 C 294.36 234.556 296.127 236.323 298.306 236.323 Z " fill="rgb(13,183,237)"/></g></svg>