<?xml version="1.0" encoding="UTF-8" standalone="no"?><!-- Generator: Gravit.io --><svg xmlns="http://www.w3.org/2000/svg" xmlns:xlink="http://www.w3.org/1999/xlink" style="isolation:isolate" viewBox="0 0 512 512" width="512pt" height="512pt"><defs><clipPath id="_clipPath_E6O1PO0jp4ifIZkFsv4YyAVvxerrwC2T"><rect width="512" height="512"/></clipPath></defs><g clip-path="url(#_clipPath_E6O1PO0jp4ifIZkFsv4YyAVvxerrwC2T)"><g><path d=" M 28.164 256.002 C 28.164 278.147 31.268 299.507 36.549 320.003 L 348.169 320.003 C 383.514 320.003 412.17 291.347 412.17 256.002 C 412.17 220.642 383.514 192.001 348.169 192.001 L 36.549 192.001 C 31.268 212.482 28.164 233.858 28.164 256.002 Z " fill-rule="evenodd" fill="rgb(52,55,65)"/><g><clipPath id="_clipPath_tyogPhJ7OtIos4Fs8IWKAOkhm9tsJSbm"><path d=" M 54.466 0 L 483.836 0 L 483.836 144.002 L 54.466 144.002 L 54.466 0 Z " fill="rgb(255,255,255)"/></clipPath><g clip-path="url(#_clipPath_tyogPhJ7OtIos4Fs8IWKAOkhm9tsJSbm)"><path d=" M 458.952 122.578 C 467.896 114.338 476.216 105.49 483.848 96.002 C 436.92 37.521 364.967 0 284.165 0 C 183.028 0 95.986 58.833 54.466 144.002 L 404.343 144.002 C 424.599 144.002 444.072 136.306 458.952 122.578 Z " fill-rule="evenodd" fill="rgb(254,197,20)"/></g></g><g><clipPath id="_clipPath_9zGJZswA2Pa1BjkA3gJAeGPLuO4RvWXn"><path d=" M 54.464 368.004 L 483.836 368.004 L 483.836 512 L 54.464 512 L 54.464 368.004 Z " fill="rgb(255,255,255)"/></clipPath><g clip-path="url(#_clipPath_9zGJZswA2Pa1BjkA3gJAeGPLuO4RvWXn)"><path d=" M 404.342 368.004 L 54.464 368.004 C 96.001 453.157 183.026 512.006 284.164 512.006 C 364.965 512.006 436.918 474.47 483.847 416.005 C 476.215 406.501 467.895 397.653 458.95 389.412 C 444.07 375.668 424.598 368.004 404.342 368.004 Z " fill-rule="evenodd" fill="rgb(0,191,179)"/></g></g></g></g></svg>