<?xml version="1.0" encoding="UTF-8" standalone="no"?><!-- Generator: Gravit.io --><svg xmlns="http://www.w3.org/2000/svg" xmlns:xlink="http://www.w3.org/1999/xlink" style="isolation:isolate" viewBox="0 0 512 512" width="512pt" height="512pt"><defs><clipPath id="_clipPath_4rbqIPvSeUUw6Soy5R8VbdRqjDFbO3pN"><rect width="512" height="512"/></clipPath></defs><g clip-path="url(#_clipPath_4rbqIPvSeUUw6Soy5R8VbdRqjDFbO3pN)"><g><path d=" M 503.305 293.998 C 503.305 293.998 490.849 303.677 479.884 302.596 C 468.925 301.515 472.366 276.963 472.366 276.963 C 472.366 276.963 474.727 254.442 468.266 252.547 C 461.83 250.671 453.884 258.418 453.884 258.418 C 453.884 258.418 443.999 269.408 439.272 283.418 L 437.967 283.846 C 437.967 283.846 439.477 259.275 437.762 253.678 C 436.476 250.882 424.653 251.1 422.721 256.045 C 420.783 261.009 411.327 295.47 410.675 309.908 C 410.675 309.908 392.192 325.645 376.089 328.217 C 359.968 330.814 356.097 320.681 356.097 320.681 C 356.097 320.681 399.94 308.405 398.43 273.285 C 396.939 238.171 363.08 251.168 359.253 254.044 C 355.544 256.84 335.757 268.799 329.985 301.931 C 329.793 303.043 329.445 307.976 329.445 307.976 C 329.445 307.976 312.466 319.376 303.01 322.396 C 303.01 322.396 329.445 277.801 297.22 257.555 C 288.156 252.087 280.26 257.12 275.557 261.742 C 272.674 264.575 314.622 218.577 304.942 177.412 C 300.345 157.823 290.573 155.723 281.608 158.898 C 267.996 164.278 262.839 172.243 262.839 172.243 C 262.839 172.243 245.208 197.889 241.114 236.022 C 237.032 274.142 231.018 320.252 231.018 320.252 C 231.018 320.252 222.631 328.441 214.903 328.869 C 207.156 329.285 210.598 305.808 210.598 305.808 C 210.598 305.808 216.611 270.054 216.201 264.016 C 215.754 257.989 215.332 254.759 208.237 252.609 C 201.142 250.447 193.401 259.499 193.401 259.499 C 193.401 259.499 172.999 290.512 171.284 295.253 L 170.191 297.203 L 169.128 295.899 C 169.128 295.899 183.517 253.678 169.774 253.038 C 156.02 252.386 146.993 268.116 146.993 268.116 C 146.993 268.116 131.3 294.408 130.654 297.415 L 129.591 296.122 C 129.591 296.122 136.027 265.538 134.748 257.983 C 133.443 250.447 126.367 251.957 126.367 251.957 C 126.367 251.957 117.34 250.876 114.973 256.697 C 112.612 262.518 104.014 301.068 102.933 313.35 C 102.933 313.35 80.375 329.503 65.533 329.714 C 50.716 329.938 52.225 320.302 52.225 320.302 C 52.225 320.302 106.598 301.645 91.763 264.811 C 85.103 255.33 77.374 252.355 66.415 252.56 C 55.444 252.783 41.85 259.48 33.041 279.299 C 28.822 288.742 27.3 297.732 26.424 304.503 C 26.424 304.503 16.919 306.46 11.763 302.155 C 6.594 297.843 3.947 302.155 3.947 302.155 C 3.947 302.155 -4.906 313.474 3.904 316.91 C 12.726 320.364 26.468 321.967 26.468 321.967 C 28.557 331.746 34.127 340.434 42.142 346.414 C 58.258 358.69 89.184 345.283 89.184 345.283 L 101.858 338.157 C 101.858 338.157 102.293 349.818 111.537 351.514 C 120.775 353.223 124.646 351.489 140.761 312.281 C 150.223 292.246 150.869 293.327 150.869 293.327 C 151.932 293.103 144.638 331.447 147.428 341.785 C 150.223 352.142 162.468 351.061 162.468 351.061 C 162.468 351.061 169.135 352.347 174.508 333.386 C 179.876 314.431 190.202 293.532 190.202 293.532 C 191.475 293.532 186.971 332.733 193.836 345.239 C 200.719 357.739 218.556 349.433 218.556 349.433 C 218.556 349.433 231.025 343.14 232.963 341.195 C 232.963 341.195 247.749 353.825 268.611 351.533 C 315.262 342.326 331.855 329.888 331.855 329.888 C 331.855 329.888 339.87 350.247 364.695 352.142 C 393.05 354.285 408.538 336.411 408.538 336.411 C 408.538 336.411 408.314 348.035 418.198 352.142 C 428.101 356.23 434.749 333.212 434.749 333.212 L 451.293 287.506 C 452.803 287.506 453.654 317.227 469.999 321.967 C 486.326 326.707 507.604 310.865 507.604 310.865 C 507.604 310.865 512.761 308.02 511.903 299.403 C 511.034 290.78 503.305 293.998 503.305 293.998 L 503.305 293.998 Z  M 72.858 272.428 C 78.648 278.025 76.504 290.084 65.545 297.62 C 54.599 305.174 49.641 303.665 49.641 303.665 C 50.293 278.025 67.067 266.811 72.858 272.428 Z  M 286.684 183.885 C 290.337 203.275 254.67 261.009 254.67 261.009 C 255.092 248.08 267.766 204.35 267.766 204.35 C 267.766 204.35 283.012 164.496 286.677 183.879 L 286.684 183.885 Z  M 251.433 331.025 C 251.433 331.025 248.637 321.544 256.59 295.054 C 264.554 268.551 283.242 278.889 283.242 278.889 C 283.242 278.889 296.139 288.798 286.037 315.295 C 275.942 341.791 251.433 331.025 251.433 331.025 Z  M 360.179 279.112 C 368.982 262.959 375.866 271.781 375.866 271.781 C 375.866 271.781 383.383 279.97 374.791 292.252 C 366.186 304.528 353.73 303.671 353.73 303.671 C 353.73 303.671 351.369 295.259 360.179 279.112 Z " fill="rgb(224,78,57)"/><path d=" M 448.137 342.808 L 448.137 339.714 L 450.094 339.714 C 450.367 339.714 450.635 339.745 450.92 339.776 C 451.206 339.814 451.479 339.888 451.709 339.988 C 451.952 340.087 452.138 340.23 452.281 340.416 C 452.436 340.603 452.505 340.857 452.505 341.174 C 452.505 341.889 452.293 342.355 451.865 342.541 C 451.335 342.74 450.771 342.831 450.206 342.808 L 448.137 342.808 Z  M 445.807 337.9 L 445.807 349.667 L 448.137 349.667 L 448.137 344.641 L 449.591 344.641 L 452.449 349.673 L 454.896 349.673 L 451.753 344.529 C 452.165 344.488 452.571 344.4 452.964 344.268 C 453.337 344.144 453.666 343.957 453.933 343.709 C 454.219 343.467 454.43 343.15 454.592 342.765 C 454.771 342.323 454.856 341.849 454.84 341.373 C 454.84 340.099 454.437 339.199 453.648 338.683 C 452.852 338.155 451.709 337.894 450.231 337.894 L 445.807 337.894 L 445.807 337.9 Z  M 442.08 343.796 C 442.08 342.591 442.279 341.491 442.695 340.485 C 443.105 339.491 443.664 338.621 444.372 337.894 C 445.837 336.375 447.866 335.529 449.976 335.558 C 452.081 335.54 454.101 336.384 455.567 337.894 C 457.09 339.478 457.926 341.599 457.891 343.796 C 457.891 345.001 457.68 346.101 457.27 347.12 C 456.87 348.092 456.293 348.981 455.567 349.741 C 454.107 351.262 452.084 352.112 449.976 352.09 C 448.876 352.09 447.851 351.885 446.876 351.469 C 445.934 351.07 445.084 350.482 444.378 349.741 C 443.654 348.984 443.083 348.093 442.695 347.12 C 442.272 346.063 442.061 344.934 442.074 343.796 L 442.08 343.796 Z  M 439.203 343.796 C 439.203 345.411 439.508 346.859 440.092 348.145 C 440.694 349.449 441.477 350.555 442.465 351.475 C 443.459 352.388 444.608 353.09 445.907 353.575 C 447.211 354.065 448.566 354.308 449.976 354.308 C 451.405 354.308 452.765 354.059 454.064 353.575 C 455.369 353.09 456.505 352.394 457.506 351.475 C 458.5 350.555 459.283 349.456 459.879 348.151 C 460.463 346.859 460.749 345.417 460.749 343.796 C 460.749 342.206 460.463 340.758 459.879 339.472 C 458.754 336.953 456.656 334.999 454.064 334.055 C 452.759 333.558 451.405 333.309 449.976 333.309 C 447.203 333.299 444.525 334.318 442.459 336.167 C 440.341 338.133 439.157 340.906 439.203 343.796 L 439.203 343.796 Z " fill="rgb(224,78,57)"/></g></g></svg>