<?xml version="1.0" encoding="UTF-8" standalone="no"?><!-- Generator: Gravit.io --><svg xmlns="http://www.w3.org/2000/svg" xmlns:xlink="http://www.w3.org/1999/xlink" style="isolation:isolate" viewBox="0 0 512 512" width="512pt" height="512pt"><defs><clipPath id="_clipPath_tNgKtrJOQXRptTkIDl5fkWZDcuol7M8j"><rect width="512" height="512"/></clipPath></defs><g clip-path="url(#_clipPath_tNgKtrJOQXRptTkIDl5fkWZDcuol7M8j)"><g><path d=" M 154.823 194.811 L 252.066 138.668 C 254.5 137.263 257.499 137.263 259.933 138.668 L 357.178 194.811 C 359.609 196.217 361.111 198.813 361.111 201.624 L 361.111 313.91 C 361.111 316.719 359.609 319.317 357.178 320.724 L 259.933 376.867 C 257.499 378.273 254.5 378.273 252.066 376.867 L 154.823 320.724 C 152.389 319.319 150.889 316.721 150.889 313.91 L 150.889 201.624 C 150.891 198.813 152.391 196.217 154.823 194.811 Z " fill="rgb(128,128,242)"/><path d=" M 508.833 245.955 L 392.646 43.823 C 388.426 36.514 380.629 31.123 372.191 31.123 L 139.812 31.123 C 131.371 31.123 123.573 36.514 119.352 43.823 L 3.165 245.509 C -1.055 252.82 -1.055 262.046 3.165 269.356 L 119.352 469.832 C 123.573 477.14 131.371 480.877 139.812 480.877 L 372.188 480.877 C 380.627 480.877 388.426 477.253 392.644 469.942 L 508.831 269.139 C 513.056 261.833 513.056 253.263 508.833 245.955 Z  M 412.624 343.154 C 412.624 346.125 410.835 348.874 408.259 350.362 L 260.262 435.749 C 257.688 437.235 254.463 437.235 251.889 435.749 L 103.778 350.362 C 101.204 348.874 99.403 346.127 99.403 343.154 L 99.403 172.378 C 99.403 169.404 101.178 166.658 103.754 165.17 L 251.745 79.783 C 254.319 78.295 257.539 78.295 260.113 79.783 L 408.235 165.17 C 410.811 166.658 412.624 169.404 412.624 172.378 L 412.624 343.154 L 412.624 343.154 Z " fill="rgb(75,50,195)"/></g></g></svg>