<?xml version="1.0" encoding="UTF-8" standalone="no"?><!-- Generator: Gravit.io --><svg xmlns="http://www.w3.org/2000/svg" xmlns:xlink="http://www.w3.org/1999/xlink" style="isolation:isolate" viewBox="0 0 512 512" width="512pt" height="512pt"><defs><clipPath id="_clipPath_c7NPIHyNj2E6Pf9FlNH4LyAc2dLKct8r"><rect width="512" height="512"/></clipPath></defs><g clip-path="url(#_clipPath_c7NPIHyNj2E6Pf9FlNH4LyAc2dLKct8r)"><path d=" M 153.001 434.335 C 133.496 418.994 112.69 404.286 98.473 383.574 C 68.556 347.05 45.522 304.762 29.775 260.324 C 20.257 231.427 16.997 200.447 4.727 172.667 C -8.108 152.491 6.927 130.435 29.028 124.021 C 38.867 122.133 56.169 112.852 35.284 119.485 C 16.561 133.222 14.749 107.016 33.948 105.356 C 47.051 103.615 51.875 92.888 47.394 83.232 C 33.329 74.06 81.5 63.98 57.262 50.294 C 32.013 23.053 92.58 17.809 77.637 48.746 C 74.06 72.536 119.959 44.386 109.31 71.858 C 120.134 85.051 149.843 74.861 149.106 93.369 C 164.874 94.453 170.286 107.72 185.088 108.739 C 200.429 115.667 228.239 121.126 233.459 138.413 C 218.239 150.463 182.996 113.524 181.303 146.878 C 185.9 196.15 184.729 246.907 202.756 293.828 C 211.283 322.24 231.954 344.605 250.622 366.733 C 268.484 388.404 292.678 403.66 317.338 416.506 C 338.97 426.708 362.292 433.475 385.867 437.721 C 395.429 430.407 412.311 403.215 427.228 414.681 C 427.936 427.565 397.621 441.613 425.802 440.189 C 442.349 435.197 453.827 452.986 467.453 436.94 C 480.008 451.811 519.634 427.439 510.701 457.835 C 498.623 465.628 481.006 460.919 468.908 471.639 C 448.96 461.676 433.079 480.554 410.995 478.167 C 386.471 482.559 361.521 484.333 336.657 484.371 C 295.867 481.148 254.212 479.79 215.407 465.588 C 193.547 459.236 172.214 446.788 153.001 434.335 L 153.001 434.335 Z  M 187.451 449.262 C 208.797 458.493 229.669 468.222 253.062 471.157 C 290.176 476.319 328.504 484.258 365.751 477.016 C 348.893 469.404 331.465 479.981 314.671 471.573 C 294.529 475.907 272.913 470.469 252.436 467.791 C 229.151 457.419 204.021 450.286 182.215 436.823 C 154.967 426.871 196.307 449.586 203.666 451.426 C 220.699 461.094 184.934 446.47 179.892 442.451 C 165.626 434.448 163.808 436.12 178.48 444.247 C 181.435 445.977 184.355 447.789 187.451 449.262 L 187.451 449.262 Z  M 146.834 420.558 C 167.518 428.219 146.742 406.012 137.264 407.302 C 133.064 400.017 121.22 395.414 129.575 391.5 C 114.545 396.718 113.831 371.658 106.766 375.239 C 90.865 370.218 100.577 352.432 81.637 341.51 C 79.908 330.001 62.819 320.019 57.369 302.659 C 54.961 293.771 38.062 268.247 48.443 292.001 C 57.283 314.868 72.835 334.45 85.777 354.011 C 95.826 372.634 107.693 392.098 125.995 403.716 C 132.164 409.634 138.121 418.703 146.834 420.558 Z  M 87.246 355.135 M 171.605 429.742 M 182.834 433.838 M 196.889 439.701 M 220.978 453.127 M 174.72 420.881 M 185.264 426.138 M 237.961 459.029 C 246.432 464.375 287.43 470.747 261.758 461.221 C 257.462 462.127 214.156 448.972 237.961 459.029 Z  M 154.303 393.874 M 178.835 408.172 M 199.47 420.824 M 144.32 383.002 C 154.261 390.625 184.41 383.979 159.544 378.451 C 148.226 372.418 122.719 368.289 140.105 382.089 L 144.32 383.002 L 144.32 383.002 Z  M 213.447 425.193 M 192.441 408.498 C 216.748 415.374 172.001 393.127 186.444 405.968 L 189.645 407.417 L 192.441 408.499 L 192.441 408.498 Z  M 234.555 432.839 C 257.575 433.059 213.763 429.666 234.555 432.839 L 234.555 432.839 Z  M 135.463 369.683 M 273.495 454.682 M 174.748 393.741 M 137.646 366.993 M 93.695 338.583 M 209.078 411.809 M 280.897 455.881 M 202.722 405.245 M 149.218 371.337 M 239.725 427.576 M 192.647 395.619 C 210.305 397.895 171.637 383.608 188.773 394.34 L 192.647 395.619 L 192.647 395.619 L 192.647 395.619 Z  M 254.017 433.353 C 270.503 423.498 265.068 456.433 281.987 436.136 C 298.675 423.951 267.575 451.2 288.143 438.308 C 303.017 428.36 324.988 443.024 338.867 447.809 C 348.849 447.319 358.552 456.44 368.784 450.891 C 388.482 445.586 330.266 443.022 345.527 433.609 C 327.503 438.855 314.187 427.355 305.318 415.811 C 285.101 411.143 261.726 400.807 251.636 382.915 C 247.523 376.198 257.579 383.862 248.085 372.881 C 235.903 362.046 229.82 349.746 221.642 336.575 C 211.872 331.363 210.734 316.022 209.746 336.06 C 209.824 323.414 197.951 314.902 195.053 318.44 C 195.001 306.261 207.759 312.366 198.828 303.355 C 196.906 290.732 190.576 277.578 188.674 263.325 C 185.718 256.455 188.258 241.741 178.585 257.294 C 175.062 273.73 177.416 237.095 182.896 249.176 C 190.088 236.848 180.314 238.298 179.913 240.01 C 184.598 229.609 182.879 214.856 178.691 220.484 C 181.187 209.46 182.635 179.913 174.954 185.149 C 179.61 173.621 183.784 132.4 163.572 148.116 C 155.38 148.231 141.195 151.09 134.49 154.425 C 155.514 166.014 132.375 158.61 123.817 156.768 C 122.702 167.491 114.225 162.854 103.635 162.959 C 120.55 165.051 95.398 180.258 85.694 174.351 C 73.092 180.374 96.57 195.409 85.947 200.057 C 87.253 207.066 66.641 197.527 68.26 213.711 C 56.025 208.564 66.575 232.91 72.696 224.676 C 93.504 230.308 87.344 243.147 87.874 255.343 C 84.484 262.45 71.135 238.639 84.901 239.741 C 74.041 222.099 72.888 233.365 63.864 241.56 C 61.764 242.155 86.883 253.221 71.12 258.693 C 84.988 260.833 85.383 272.969 88.206 280.649 C 96.541 289.331 94.835 271.062 104.809 281.496 C 98.498 272.201 71.378 255.306 93.213 260.724 C 93.096 251.369 89.264 243.825 95.954 244.008 C 102.578 232.011 89.016 273.588 103.948 258.341 C 108.081 256.536 109.105 246.328 116.535 259.305 C 127.327 269.921 120.433 277.613 105.21 267.893 C 107.934 277.132 125.574 280.433 122.259 294.882 C 125.774 307.589 130.691 302.909 134.976 302.174 C 138.338 314.521 140.248 305.442 140.407 299.566 C 155.801 302.862 152.195 311.961 157.012 318.319 C 167.619 323.107 141.829 285.864 160.04 307.12 C 179.2 324.419 167.226 331.64 150.031 328.869 C 160.914 327.989 164.423 343.581 178.036 343.033 C 190.449 348.939 198.853 371.62 177.457 362.178 C 170.036 355.487 143.774 347.232 165.224 359.96 C 185.035 369.134 200.769 374.622 219.876 386.138 C 233.55 395.9 239.458 407.081 244.641 409.294 C 233.148 414.783 210.007 404.91 227.191 401.885 C 216.473 399.932 204.417 394.512 214.684 407.867 C 223.413 415.155 245.611 414.383 249.591 415.209 C 246.218 422.641 240.429 423.232 249.729 423.809 C 239.353 429.338 253.056 430.194 254.017 433.353 L 254.017 433.353 Z  M 232.8 373.438 C 226.488 366.836 224.856 354.471 231.68 365.231 C 235.179 366.636 242.889 385.437 232.801 373.438 L 232.8 373.438 Z  M 301.896 417.329 M 222.833 357.251 M 215.966 348.012 M 132.746 290.573 M 198.979 326.474 M 152.188 293.938 M 192.344 306.811 C 184.822 289.957 197.67 297.605 194.008 309.573 L 192.344 306.811 L 192.344 306.811 Z  M 123.094 260.628 C 119.731 255.098 114.168 238.875 115.959 233.923 C 117.579 241.988 133.111 268.634 123.577 244.96 C 113.042 225.116 136.171 251.402 138.55 256.351 C 139.658 261.275 132.05 255.006 137.205 266.551 C 127.804 253.407 131.655 273.812 123.094 260.628 L 123.094 260.628 Z  M 101.691 245.88 M 111.318 249.194 M 88.161 231.279 C 80.192 223.362 74.426 216.063 88.533 226.365 C 93.969 226.577 76.456 209.767 89.842 221.027 C 103.918 223.594 96.793 244.106 88.161 231.279 Z  M 100.325 230.961 M 107.81 233.361 M 92.93 219.141 C 69.766 198.527 122.037 229.92 96.715 222.963 L 92.93 219.141 L 92.93 219.141 L 92.93 219.141 Z  M 159.299 257.703 C 149.275 251.692 156.642 215.391 160.061 240.218 C 169.805 237.066 159.523 253.041 166.791 252.893 C 165.645 262.972 162.394 266.595 159.299 257.703 Z  M 183.847 272.211 M 179.583 267.998 M 97.474 212.367 C 82.593 191.836 140.723 233.136 107.006 217.575 C 103.482 216.653 99.243 216.324 97.474 212.367 Z  M 144.746 237.43 C 143.337 220.142 147.891 240.296 144.745 237.43 L 144.746 237.43 Z  M 180.636 260.453 M 99.754 204.531 C 108.598 202.64 136.407 220.064 110.87 209.509 C 108.032 206.367 101.984 207.795 99.754 204.531 Z  M 175.705 242.385 C 176.65 224.708 180.985 231.826 175.737 244.916 L 175.705 242.386 L 175.705 242.385 L 175.705 242.385 Z  M 106.338 198.38 C 109.941 193.094 96.771 174.481 108.236 191.703 C 113.19 195.64 122.579 198.297 114.289 199.953 C 127.327 211.455 111.109 203.07 106.338 198.38 L 106.338 198.38 Z  M 171.948 236.864 M 98.811 179.781 M 115.925 189.967 M 164.2 216.821 M 161.403 210.631 M 157.289 199.793 C 156.164 192.962 161.112 208.374 157.289 199.793 L 157.289 199.793 Z  M 163.985 188.909 C 159.387 180.807 169.791 153.203 170.952 170.322 C 166.099 183.662 169.552 191.124 172.937 173.232 C 179.189 159.151 171.587 201.018 163.984 188.909 L 163.985 188.909 L 163.985 188.909 Z  M 170.865 147.858 M 159.375 374.274 M 183.046 386.249 C 196.213 389.627 196.145 384.2 184.245 382.588 C 177.844 376.633 157.647 370.317 175.725 381.849 C 176.922 384.882 180.705 384.811 183.046 386.249 L 183.046 386.249 Z  M 136.296 355.198 C 143.55 360.607 163.619 370.529 146.63 357.257 C 152.358 350.602 135.667 347.06 141.204 342.608 C 127.12 333.99 130.094 334.757 139.96 335.028 C 123.035 327.462 142.404 328.028 141.492 324.152 C 134.965 322.863 109.075 312.644 124.306 324.991 C 108.822 317.097 120.616 327.932 115.936 326.787 C 100.103 322.47 130.036 338.845 113.422 334.78 C 122.505 341.978 137.871 353.218 117.262 342.398 C 114.546 346.306 132.01 352.231 136.296 355.198 Z  M 161.053 369.421 M 287.785 446.195 M 300.811 451.677 C 307.756 444.948 301.095 462.397 312.319 450.03 C 312.44 441.177 311.973 435.947 299.421 446.702 C 295.961 448.621 294.416 456.78 300.811 451.677 L 300.811 451.677 Z  M 94.043 321.823 M 107.952 330.937 M 187.081 378.658 C 194.806 385.52 222.563 383.693 196.464 379.503 C 192.598 373.787 171.919 375.163 187.081 378.658 Z  M 295.857 445.837 M 320.586 462.83 M 320.624 458.348 C 333.791 444.397 307.865 459.173 320.624 458.348 L 320.624 458.348 Z  M 59.833 293.183 C 48.61 277.171 52.857 269.973 42.034 256.899 C 39.986 246.901 23.469 224.214 33.491 248.249 C 42.672 262.307 45.4 284.071 59.833 293.183 Z  M 316.494 453.913 M 334.986 461.157 M 89.92 304.124 M 331.125 456.211 C 342.87 448.638 328.419 449.8 328.996 456.907 L 331.125 456.211 L 331.125 456.211 Z  M 171.723 355.739 M 181.574 361.408 M 349.972 461.329 C 365.019 450.474 340.85 459.25 346.813 463.385 L 349.972 461.329 L 349.972 461.329 Z  M 344.209 458.544 M 373.649 478.149 M 97.468 300.4 C 108.5 302.871 141.556 327.569 122.054 302.108 C 112.067 299.151 118.057 274.737 107.869 279.058 C 114.707 290.481 113.495 295.343 99.138 288.141 C 81.095 279.333 88.998 292.506 92.525 296.137 C 87.719 297.229 98.881 300.308 97.468 300.4 L 97.468 300.4 Z  M 47.206 260.705 C 49.181 252.536 29.02 215.765 37.685 242.28 C 40.813 247.834 40.495 258.361 47.206 260.705 Z  M 139.459 317.581 M 153.448 320.837 M 274.676 397.26 C 272.364 391.348 265.537 397.123 274.677 397.26 L 274.676 397.26 Z  M 280.498 401.512 M 328.549 431.779 M 72.312 267.114 M 264.004 387.882 M 67.089 254.944 M 91.735 266.883 M 392.335 451.215 C 403.254 449.001 428.135 456.772 432.156 448.32 C 418.897 447.998 386.283 438.965 384.739 450.475 L 387.642 450.933 L 392.335 451.215 L 392.335 451.215 Z  M 99.568 268.857 M 34.769 223.907 M 50.221 227.791 M 59.051 232.128 M 114.614 267.771 M 53.17 222.347 M 21.491 201.791 M 26.203 198.232 M 52.239 213.774 C 63.248 209.449 32.185 204.828 49.989 212.957 L 52.239 213.774 Z  M 400.692 429.008 M 442.788 450.828 M 54.9 200.127 M 17.857 175.309 C 15.867 163.901 16.139 143.878 35.173 150.645 C 9.766 155.689 52.757 182.223 47.328 161.273 C 58.011 161.796 68.227 154.96 62.621 165.335 C 83.669 163.01 98.262 144.758 118.594 147.315 C 134.432 145.22 151.748 143.63 168.815 137.255 C 182.847 136.244 196.355 121.136 188.664 112.181 C 169.528 110.562 149.496 112.957 128.346 117.161 C 104.908 122.033 83.619 131.29 59.971 135.264 C 36.921 138.36 64.608 143.795 58.005 145.005 C 45.977 149.179 72.349 151.993 56.446 156.393 C 46.624 154.525 36.401 151.15 40.596 140.8 C 18.517 143.665 -0.885 152.829 16.559 175.298 L 17.857 175.308 L 17.857 175.308 L 17.857 175.309 Z  M 71.061 148.212 C 76.238 129.14 98.796 163.905 79.546 150.745 C 77.247 149.024 73.466 147.621 71.061 148.212 Z  M 72.068 138.966 M 81.556 139.116 C 82.23 130.34 103.274 143.762 85.026 142.275 L 81.556 139.116 L 81.556 139.116 Z  M 94.534 133.898 M 97.854 131.675 C 105.745 122.193 142.544 125.623 115.609 130.75 C 108.389 125.315 102.855 133.955 97.854 131.675 Z  M 145.877 124.272 M 159.504 124.198 C 164.486 111.143 178.837 118.959 161.809 121.574 C 162.179 122.963 161.31 128.314 159.504 124.198 Z  M 49.526 193.427 C 64.412 184.312 33.724 185.519 49.526 193.427 L 49.526 193.427 Z  M 60.532 196.485 M 28.103 173.47 M 467.635 448.441 M 422.973 417.962 M 479.916 451.38 C 491.808 451.42 515.948 447.687 490.073 447.699 C 486.013 448.332 466.415 448.196 479.916 451.38 L 479.916 451.38 L 479.916 451.38 Z  M 70.214 191.136 C 79.838 190.475 85.271 180.52 68.352 181.092 C 42.131 178.377 91.487 190.07 64.989 186.727 C 61.428 189.085 70.007 191.788 70.214 191.136 Z  M 78.69 195.426 M 88.744 168.615 M 56.737 115.114 C 73.913 109.27 97.402 102.705 105.512 117.991 C 97.258 108.057 102.181 98.277 109.976 112.802 C 121 127.497 126.518 106.118 119.348 101.189 C 127.519 111.34 136.812 116.138 124.819 101.83 C 137.851 86.154 98.724 103.883 89.831 103.705 C 85.552 105.625 45.654 113.88 56.737 115.114 L 56.737 115.114 Z  M 66.803 95.835 C 76.599 88.442 100.682 100.233 85.228 88.487 C 83.717 87.153 51.384 97.394 66.803 95.835 L 66.803 95.835 Z  M 102.516 97.309 C 113.98 97.602 97.571 81.908 111.232 89.019 C 108.988 81.69 95.326 80.317 88.647 77.389 C 84.869 84.09 96.337 97.4 102.516 97.309 Z  M 73.065 64.892 M 87.662 68.385 C 106.137 65.935 82.952 60.429 83.939 68.188 L 87.662 68.385 L 87.662 68.385 L 87.662 68.385 Z  M 60.407 47.06 C 47.399 30.078 84.872 49.914 71.655 32.134 C 60.531 23.276 49.842 42.102 60.407 47.06 Z  M 227.352 136.981 C 233.319 126.404 202.719 122.724 223.332 133.232 C 225.23 133.866 224.801 137.712 227.352 136.981 Z " fill="rgb(0,0,0)"/></g></svg>