<?xml version="1.0" encoding="UTF-8" standalone="no"?><!-- Generator: Gravit.io --><svg xmlns="http://www.w3.org/2000/svg" xmlns:xlink="http://www.w3.org/1999/xlink" style="isolation:isolate" viewBox="0 0 512 512" width="512pt" height="512pt"><defs><clipPath id="_clipPath_yiVpulDPuRFyOME9RKUuzueEemLotwp6"><rect width="512" height="512"/></clipPath></defs><g clip-path="url(#_clipPath_yiVpulDPuRFyOME9RKUuzueEemLotwp6)"><g><path d=" M 457.143 256 L 329.143 256 L 329.143 292.571 L 416.914 292.571 C 404.114 347.429 363.886 393.143 310.857 411.429 L 100.571 201.143 C 122.514 137.143 184.686 91.429 256 91.429 C 310.857 91.429 360.229 118.857 391.314 160.914 L 418.743 137.143 C 382.171 87.771 323.657 54.857 256 54.857 C 160.914 54.857 80.457 122.514 60.343 212.114 L 301.714 453.486 C 389.486 431.543 457.143 351.086 457.143 256 Z " fill="rgb(255,255,255)"/><path d=" M 54.857 257.829 C 54.857 309.029 74.971 358.4 113.371 396.8 C 151.771 435.2 202.971 455.314 252.343 455.314 L 54.857 257.829 Z " fill="rgb(255,255,255)"/><path d=" M 256 0 C 115.2 0 0 115.2 0 256 C 0 396.8 115.2 512 256 512 C 396.8 512 512 396.8 512 256 C 512 115.2 396.8 0 256 0 Z  M 113.371 398.629 C 74.971 360.229 54.857 309.029 54.857 259.657 L 254.171 457.143 C 202.971 455.314 151.771 437.029 113.371 398.629 Z  M 299.886 451.657 L 60.343 212.114 C 80.457 122.514 160.914 54.857 256 54.857 C 323.657 54.857 382.171 87.771 418.743 137.143 L 391.314 160.914 C 360.229 118.857 310.857 91.429 256 91.429 C 184.686 91.429 124.343 137.143 100.571 201.143 L 310.857 411.429 C 363.886 393.143 404.114 347.429 416.914 292.571 L 329.143 292.571 L 329.143 256 L 457.143 256 C 457.143 351.086 389.486 431.543 299.886 451.657 Z " fill="rgb(102,51,153)"/></g></g></svg>