<?xml version="1.0" encoding="UTF-8" standalone="no"?><!-- Generator: Gravit.io --><svg xmlns="http://www.w3.org/2000/svg" xmlns:xlink="http://www.w3.org/1999/xlink" style="isolation:isolate" viewBox="0 0 512 512" width="512pt" height="512pt"><defs><clipPath id="_clipPath_A4ApJYGLvRsg3u2Ec9bWPzNdh4nAUxjQ"><rect width="512" height="512"/></clipPath></defs><g clip-path="url(#_clipPath_A4ApJYGLvRsg3u2Ec9bWPzNdh4nAUxjQ)"><path d=" M 171.252 408.357 C 171.252 410.422 168.877 412.074 165.884 412.074 C 162.477 412.383 160.103 410.732 160.103 408.357 C 160.103 406.293 162.477 404.641 165.471 404.641 C 168.568 404.332 171.252 405.983 171.252 408.357 Z  M 139.148 403.712 C 138.426 405.777 140.49 408.151 143.587 408.77 C 146.271 409.803 149.368 408.77 149.987 406.706 C 150.606 404.641 148.645 402.267 145.548 401.338 C 142.865 400.616 139.871 401.648 139.148 403.712 Z  M 184.774 401.957 C 181.781 402.68 179.716 404.641 180.026 407.016 C 180.335 409.08 183.019 410.422 186.116 409.699 C 189.11 408.977 191.174 407.016 190.865 404.951 C 190.555 402.99 187.768 401.648 184.774 401.957 Z  M 252.697 6.396 C 109.523 6.396 0 115.093 0 258.267 C 0 372.745 72.052 470.706 174.968 505.183 C 188.181 507.557 192.826 499.403 192.826 492.693 C 192.826 486.293 192.516 450.99 192.516 429.312 C 192.516 429.312 120.258 444.796 105.084 398.551 C 105.084 398.551 93.316 368.512 76.387 360.77 C 76.387 360.77 52.748 344.564 78.039 344.874 C 78.039 344.874 103.742 346.938 117.884 371.506 C 140.49 411.351 178.374 399.893 193.135 393.08 C 195.51 376.564 202.219 365.106 209.652 358.293 C 151.948 351.893 93.729 343.532 93.729 244.228 C 93.729 215.841 101.574 201.596 118.09 183.428 C 115.406 176.719 106.632 149.054 120.774 113.338 C 142.348 106.628 192 141.209 192 141.209 C 212.645 135.428 234.839 132.435 256.826 132.435 C 278.813 132.435 301.006 135.428 321.652 141.209 C 321.652 141.209 371.303 106.525 392.877 113.338 C 407.019 149.157 398.245 176.719 395.561 183.428 C 412.077 201.699 422.194 215.945 422.194 244.228 C 422.194 343.841 361.394 351.79 303.69 358.293 C 313.187 366.448 321.239 381.932 321.239 406.19 C 321.239 440.977 320.929 484.022 320.929 492.486 C 320.929 499.196 325.677 507.351 338.787 504.977 C 442.013 470.706 512 372.745 512 258.267 C 512 115.093 395.871 6.396 252.697 6.396 Z  M 100.335 362.422 C 98.994 363.454 99.303 365.828 101.058 367.79 C 102.71 369.441 105.084 370.164 106.426 368.822 C 107.768 367.79 107.458 365.416 105.703 363.454 C 104.052 361.803 101.677 361.08 100.335 362.422 Z  M 89.187 354.061 C 88.465 355.403 89.497 357.054 91.561 358.086 C 93.213 359.119 95.277 358.809 96 357.364 C 96.723 356.022 95.69 354.37 93.626 353.338 C 91.561 352.719 89.91 353.028 89.187 354.061 Z  M 122.632 390.809 C 120.981 392.151 121.6 395.248 123.974 397.209 C 126.348 399.583 129.342 399.893 130.684 398.241 C 132.026 396.899 131.406 393.803 129.342 391.841 C 127.071 389.467 123.974 389.157 122.632 390.809 Z  M 110.865 375.635 C 109.213 376.667 109.213 379.351 110.865 381.725 C 112.516 384.099 115.303 385.132 116.645 384.099 C 118.297 382.757 118.297 380.074 116.645 377.699 C 115.2 375.325 112.516 374.293 110.865 375.635 Z " fill="rgb(0,0,0)"/></g></svg>