<?xml version="1.0" encoding="UTF-8" standalone="no"?><!-- Generator: Gravit.io --><svg xmlns="http://www.w3.org/2000/svg" xmlns:xlink="http://www.w3.org/1999/xlink" style="isolation:isolate" viewBox="0 0 512 512" width="512pt" height="512pt"><defs><clipPath id="_clipPath_LUJ5uiUzlqtMnW73NJVwd2wEUGltWacX"><rect width="512" height="512"/></clipPath></defs><g clip-path="url(#_clipPath_LUJ5uiUzlqtMnW73NJVwd2wEUGltWacX)"><g><path d=" M 38.581 218.272 C 37.584 218.272 37.335 217.773 37.834 217.025 L 43.069 210.294 C 43.568 209.546 44.814 209.047 45.812 209.047 L 134.817 209.047 C 135.814 209.047 136.064 209.795 135.565 210.543 L 131.327 217.025 C 130.828 217.773 129.581 218.521 128.833 218.521 L 38.581 218.272 Z " fill-rule="evenodd" fill="rgb(0,172,215)"/><path d=" M 0.935 241.209 C -0.062 241.209 -0.312 240.71 0.187 239.962 L 5.423 233.23 C 5.921 232.483 7.168 231.984 8.165 231.984 L 121.853 231.984 C 122.85 231.984 123.349 232.732 123.099 233.48 L 121.105 239.463 C 120.855 240.461 119.858 240.959 118.861 240.959 L 0.935 241.209 Z " fill-rule="evenodd" fill="rgb(0,172,215)"/><path d=" M 61.269 264.146 C 60.272 264.146 60.023 263.398 60.521 262.65 L 64.012 256.417 C 64.51 255.669 65.507 254.921 66.505 254.921 L 116.368 254.921 C 117.365 254.921 117.864 255.669 117.864 256.666 L 117.365 262.65 C 117.365 263.647 116.368 264.395 115.62 264.395 L 61.269 264.146 Z " fill-rule="evenodd" fill="rgb(0,172,215)"/><g><path d=" M 320.058 213.784 C 304.351 217.773 293.631 220.765 278.173 224.754 C 274.433 225.751 274.184 226 270.943 222.261 C 267.203 218.022 264.461 215.28 259.225 212.787 C 243.518 205.058 228.31 207.302 214.099 216.526 C 197.146 227.496 188.42 243.702 188.669 263.896 C 188.918 283.841 202.631 300.296 222.327 303.039 C 239.28 305.282 253.491 299.299 264.71 286.584 C 266.954 283.841 268.948 280.85 271.442 277.359 C 262.466 277.359 251.247 277.359 223.324 277.359 C 218.088 277.359 216.842 274.118 218.587 269.88 C 221.828 262.151 227.812 249.187 231.302 242.704 C 232.05 241.209 233.795 238.715 237.535 238.715 L 328.285 238.715 C 327.787 245.447 327.787 252.178 326.79 258.91 C 324.047 276.861 317.316 293.315 306.346 307.776 C 288.395 331.461 264.959 346.17 235.291 350.159 C 210.858 353.4 188.17 348.663 168.225 333.704 C 149.776 319.743 139.305 301.293 136.562 278.356 C 133.321 251.181 141.299 226.748 157.754 205.307 C 175.455 182.121 198.891 167.411 227.562 162.176 C 250.998 157.937 273.436 160.68 293.631 174.392 C 306.844 183.118 316.318 195.085 322.551 209.546 C 324.047 211.789 323.05 213.036 320.058 213.784 L 320.058 213.784 Z " fill-rule="evenodd" fill="rgb(0,172,215)"/><path d=" M 402.581 351.655 C 379.894 351.156 359.2 344.674 341.748 329.715 C 327.039 317 317.814 300.795 314.822 281.598 C 310.335 253.425 318.064 228.493 335.017 206.304 C 353.217 182.37 375.157 169.904 404.825 164.669 C 430.255 160.181 454.189 162.674 475.88 177.384 C 495.576 190.847 507.792 209.047 511.033 232.981 C 515.272 266.639 505.548 294.063 482.362 317.499 C 465.907 334.203 445.713 344.674 422.526 349.411 C 415.795 350.658 409.063 350.907 402.581 351.655 L 402.581 351.655 Z  M 461.918 250.932 C 461.669 247.691 461.669 245.198 461.17 242.704 C 456.683 218.022 433.995 204.061 410.31 209.546 C 387.124 214.781 372.165 229.491 366.68 252.926 C 362.192 272.373 371.666 292.069 389.617 300.047 C 403.329 306.03 417.042 305.282 430.255 298.551 C 449.951 288.329 460.672 272.373 461.918 250.932 L 461.918 250.932 Z " fill="rgb(0,172,215)"/></g></g></g></svg>