<?xml version="1.0" encoding="UTF-8" standalone="no"?><!-- Generator: Gravit.io --><svg xmlns="http://www.w3.org/2000/svg" xmlns:xlink="http://www.w3.org/1999/xlink" style="isolation:isolate" viewBox="0 0 512 512" width="512pt" height="512pt"><defs><clipPath id="_clipPath_5O1GbZtRbpfHbPNTxbY3nO6xu2vsQwSN"><rect width="512" height="512"/></clipPath></defs><g clip-path="url(#_clipPath_5O1GbZtRbpfHbPNTxbY3nO6xu2vsQwSN)"><g><path d=" M 324.883 163.446 L 340.499 163.446 L 385.003 118.942 L 387.189 100.047 C 335.357 54.299 263.576 38.557 197.356 58.417 C 131.136 78.276 79.865 130.922 61.763 197.644 C 66.721 195.612 72.213 195.282 77.378 196.707 L 166.386 182.028 C 166.386 182.028 170.915 174.533 173.257 175.002 C 212.85 131.518 279.482 126.451 325.195 163.446 L 324.883 163.446 Z " fill="rgb(234,67,53)"/><path d=" M 448.401 197.644 C 438.172 159.974 417.169 126.109 387.97 100.204 L 325.508 162.665 C 351.883 184.217 366.907 216.682 366.264 250.736 L 366.264 261.823 C 396.966 261.823 421.855 286.712 421.855 317.414 C 421.855 348.116 396.966 373.005 366.264 373.005 L 255.082 373.005 L 243.995 384.248 L 243.995 450.926 L 255.082 462.013 L 366.264 462.013 C 430.012 462.51 486.563 421.2 505.478 360.321 C 524.392 299.443 501.207 233.36 448.401 197.644 Z " fill="rgb(66,133,244)"/><path d=" M 143.744 461.389 L 254.926 461.389 L 254.926 372.381 L 143.744 372.381 C 135.823 372.379 127.994 370.675 120.789 367.384 L 105.174 372.225 L 60.358 416.729 L 56.454 432.344 C 81.586 451.322 112.252 461.525 143.744 461.389 Z " fill="rgb(52,168,83)"/><path d=" M 143.744 172.659 C 81.986 173.028 27.28 212.579 7.57 271.109 C -12.139 329.638 7.499 394.225 56.454 431.876 L 120.945 367.384 C 98.413 357.204 85.312 333.365 88.798 308.886 C 92.284 284.408 111.518 265.173 135.997 261.688 C 160.475 258.202 184.314 271.302 194.494 293.835 L 258.986 229.343 C 231.546 193.471 188.907 172.498 143.744 172.659 Z " fill="rgb(251,188,5)"/></g></g></svg>