<?xml version="1.0" encoding="UTF-8" standalone="no"?><!-- Generator: Gravit.io --><svg xmlns="http://www.w3.org/2000/svg" xmlns:xlink="http://www.w3.org/1999/xlink" style="isolation:isolate" viewBox="0 0 512 512" width="512pt" height="512pt"><defs><clipPath id="_clipPath_UnWKOIQmiNUT0CKh2Dxq8Bfxkss40YCC"><rect width="512" height="512"/></clipPath></defs><g clip-path="url(#_clipPath_UnWKOIQmiNUT0CKh2Dxq8Bfxkss40YCC)"><g><path d=" M 67.223 390.223 L 48.427 379.372 L 257.816 16.709 L 276.612 27.561 L 67.223 390.223 Z " fill="rgb(225,0,152)"/><path d=" M 44.123 350.398 L 462.901 350.398 L 462.901 372.102 L 44.123 372.102 L 44.123 350.398 Z " fill="rgb(225,0,152)"/><path d=" M 261.877 483.531 L 52.41 362.592 L 63.261 343.796 L 272.729 464.735 L 261.877 483.531 Z  M 443.841 168.331 L 234.373 47.391 L 245.225 28.595 L 454.693 149.535 L 443.841 168.331 Z " fill="rgb(225,0,152)"/><path d=" M 63.319 168.247 L 52.467 149.453 L 261.935 28.513 L 272.787 47.309 L 63.319 168.247 Z " fill="rgb(225,0,152)"/><path d=" M 439.979 390.227 L 230.59 27.565 L 249.386 16.713 L 458.775 379.376 L 439.979 390.227 Z  M 60.728 135.06 L 82.431 135.06 L 82.431 376.94 L 60.728 376.94 L 60.728 135.06 Z  M 424.723 135.06 L 446.427 135.06 L 446.427 376.94 L 424.723 376.94 L 424.723 135.06 Z " fill="rgb(225,0,152)"/><path d=" M 258.182 474.345 L 248.703 457.926 L 430.884 352.741 L 440.363 369.159 L 258.182 474.345 Z " fill="rgb(225,0,152)"/><path d=" M 475.191 384 C 462.64 405.835 434.66 413.287 412.826 400.735 C 390.991 388.184 383.539 360.204 396.09 338.37 C 408.642 316.535 436.621 309.083 458.456 321.634 C 480.421 334.317 487.874 362.165 475.191 384 Z  M 110.934 173.63 C 98.382 195.465 70.403 202.917 48.568 190.366 C 26.734 177.814 19.281 149.835 31.833 128 C 44.384 106.165 72.364 98.713 94.198 111.265 C 116.033 123.947 123.485 151.796 110.934 173.63 M 31.964 384 C 19.412 362.165 26.864 334.317 48.699 321.634 C 70.533 309.083 98.382 316.535 111.065 338.37 C 123.616 360.204 116.164 388.053 94.329 400.735 C 72.364 413.287 44.515 405.835 31.964 384 Z  M 396.221 173.63 C 383.669 151.796 391.122 123.947 412.956 111.265 C 434.791 98.713 462.64 106.165 475.322 128 C 487.874 149.835 480.421 177.683 458.587 190.366 C 436.752 202.917 408.773 195.465 396.221 173.63 M 253.577 512 C 228.343 512 207.947 491.604 207.947 466.37 C 207.947 441.136 228.343 420.74 253.577 420.74 C 278.811 420.74 299.208 441.136 299.208 466.37 C 299.208 491.473 278.811 512 253.577 512 Z  M 253.577 91.26 C 228.343 91.26 207.947 70.864 207.947 45.63 C 207.947 20.396 228.343 0 253.577 0 C 278.811 0 299.208 20.396 299.208 45.63 C 299.208 70.864 278.811 91.26 253.577 91.26 Z " fill="rgb(225,0,152)"/></g></g></svg>