<?xml version="1.0" encoding="UTF-8" standalone="no"?><!-- Generator: Gravit.io --><svg xmlns="http://www.w3.org/2000/svg" xmlns:xlink="http://www.w3.org/1999/xlink" style="isolation:isolate" viewBox="0 0 512 512" width="512pt" height="512pt"><defs><clipPath id="_clipPath_9iPSNsIlh1RIyroHRvkNoSwp8jkqnmgR"><rect width="512" height="512"/></clipPath></defs><g clip-path="url(#_clipPath_9iPSNsIlh1RIyroHRvkNoSwp8jkqnmgR)"><g><path d=" M 460.8 465.92 C 460.8 477.44 451.84 486.4 440.32 486.4 L 71.68 486.4 C 60.16 486.4 51.2 477.44 51.2 465.92 L 51.2 46.08 C 51.2 34.56 60.16 25.6 71.68 25.6 L 440.32 25.6 C 451.84 25.6 460.8 34.56 460.8 46.08 L 460.8 465.92 Z  M 440.32 0 L 71.68 0 C 46.08 0 25.6 20.48 25.6 46.08 L 25.6 465.92 C 25.6 491.52 46.08 512 71.68 512 L 440.32 512 C 465.92 512 486.4 491.52 486.4 465.92 L 486.4 46.08 C 486.4 20.48 465.92 0 440.32 0 L 440.32 0 Z " fill="rgb(103,98,166)"/><path d=" M 140.8 435.2 L 198.4 384 L 140.8 332.8 L 140.8 435.2 Z " fill="rgb(103,98,166)"/><path d=" M 349.44 227.84 C 339.2 217.6 320 204.8 288 204.8 C 253.44 204.8 217.6 213.76 192 222.72 L 192 76.8 L 140.8 76.8 L 140.8 298.24 L 176.64 281.6 C 176.64 281.6 235.52 254.72 288 254.72 C 313.6 254.72 320 268.8 320 281.6 L 320 435.2 L 371.2 435.2 L 371.2 281.6 C 371.2 277.76 371.2 249.6 349.44 227.84 Z " fill="rgb(103,98,166)"/><path d=" M 281.6 160 L 332.8 160 C 355.84 133.12 367.36 106.24 371.2 76.8 L 320 76.8 C 314.88 106.24 302.08 133.12 281.6 160 Z " fill="rgb(103,98,166)"/></g></g></svg>