<?xml version="1.0" encoding="UTF-8" standalone="no"?><!-- Generator: Gravit.io --><svg xmlns="http://www.w3.org/2000/svg" xmlns:xlink="http://www.w3.org/1999/xlink" style="isolation:isolate" viewBox="0 0 512 512" width="512pt" height="512pt"><defs><clipPath id="_clipPath_kqjLXCV6x4xoxa3qLzNXkfMGPHy7ARbE"><rect width="512" height="512"/></clipPath></defs><g clip-path="url(#_clipPath_kqjLXCV6x4xoxa3qLzNXkfMGPHy7ARbE)"><g><mask id="_mask_0GHKLY2vZMEvcIwbeFjxA6Nf9e6Dzslq"><path d=" M 225.937 90.384 C 227.376 44.713 211.991 17.787 167.763 0 C 155.191 43.974 207.091 84.519 225.937 90.384 Z " fill-rule="evenodd" fill="white" stroke="none"/></mask><path d=" M 225.937 90.384 C 227.376 44.713 211.991 17.787 167.763 0 C 155.191 43.974 207.091 84.519 225.937 90.384 Z " fill-rule="evenodd" fill="rgb(209,211,212)"/><path d=" M 225.937 90.384 C 227.376 44.713 211.991 17.787 167.763 0 C 155.191 43.974 207.091 84.519 225.937 90.384 Z " fill-rule="evenodd" fill="rgb(209,211,212)" mask="url(#_mask_0GHKLY2vZMEvcIwbeFjxA6Nf9e6Dzslq)" vector-effect="non-scaling-stroke" stroke-width="9.58" stroke="rgb(0,0,0)" stroke-linejoin="round" stroke-linecap="butt" stroke-miterlimit="4"/><mask id="_mask_0xDax68rhFMFNwcu8owL4A8xAExmXFAE" x="-200%" y="-200%" width="400%" height="400%"><rect x="-200%" y="-200%" width="400%" height="400%" style="fill:white;"/><path d=" M 345.882 167.784 C 347.321 130.282 337.849 115.146 330.74 104.322 C 323.528 94.226 306.222 78.359 284.958 77.694 C 264.85 77.064 260.014 88.179 241.463 88.85 C 238.421 55.069 263.916 36.532 263.916 36.532 C 263.916 36.532 256.945 26.679 251.178 24.272 C 242.882 31.643 220.049 56.232 225.333 87.874 C 208.264 84.611 196.215 74.841 178.285 78.369 C 153.857 83.176 133.722 97.944 122.245 130.352 C 110.77 162.761 126.296 200.571 129.671 211.369 C 133.049 222.177 158.03 268.079 177.61 274.835 C 197.186 281.592 197.191 278.547 207.657 274.498 C 218.124 270.448 233.986 263.022 257.285 271.463 C 280.571 279.9 283.609 281.923 298.121 272.472 C 312.644 263.024 331.543 233.655 335.928 225.214 C 340.317 216.777 342.682 212.386 344.037 207.999 C 358.146 200.958 344.587 201.394 345.882 167.784 Z " fill-rule="evenodd" fill="black" stroke="none"/></mask><path d=" M 345.882 167.784 C 347.321 130.282 337.849 115.146 330.74 104.322 C 323.528 94.226 306.222 78.359 284.958 77.694 C 264.85 77.064 260.014 88.179 241.463 88.85 C 238.421 55.069 263.916 36.532 263.916 36.532 C 263.916 36.532 256.945 26.679 251.178 24.272 C 242.882 31.643 220.049 56.232 225.333 87.874 C 208.264 84.611 196.215 74.841 178.285 78.369 C 153.857 83.176 133.722 97.944 122.245 130.352 C 110.77 162.761 126.296 200.571 129.671 211.369 C 133.049 222.177 158.03 268.079 177.61 274.835 C 197.186 281.592 197.191 278.547 207.657 274.498 C 218.124 270.448 233.986 263.022 257.285 271.463 C 280.571 279.9 283.609 281.923 298.121 272.472 C 312.644 263.024 331.543 233.655 335.928 225.214 C 340.317 216.777 342.682 212.386 344.037 207.999 C 358.146 200.958 344.587 201.394 345.882 167.784 Z " fill-rule="evenodd" fill="rgb(209,211,212)"/><path d=" M 345.882 167.784 C 347.321 130.282 337.849 115.146 330.74 104.322 C 323.528 94.226 306.222 78.359 284.958 77.694 C 264.85 77.064 260.014 88.179 241.463 88.85 C 238.421 55.069 263.916 36.532 263.916 36.532 C 263.916 36.532 256.945 26.679 251.178 24.272 C 242.882 31.643 220.049 56.232 225.333 87.874 C 208.264 84.611 196.215 74.841 178.285 78.369 C 153.857 83.176 133.722 97.944 122.245 130.352 C 110.77 162.761 126.296 200.571 129.671 211.369 C 133.049 222.177 158.03 268.079 177.61 274.835 C 197.186 281.592 197.191 278.547 207.657 274.498 C 218.124 270.448 233.986 263.022 257.285 271.463 C 280.571 279.9 283.609 281.923 298.121 272.472 C 312.644 263.024 331.543 233.655 335.928 225.214 C 340.317 216.777 342.682 212.386 344.037 207.999 C 358.146 200.958 344.587 201.394 345.882 167.784 Z " fill-rule="evenodd" fill="rgb(209,211,212)" mask="url(#_mask_0xDax68rhFMFNwcu8owL4A8xAExmXFAE)" vector-effect="non-scaling-stroke" stroke-width="9.58" stroke="rgb(0,0,0)" stroke-linejoin="round" stroke-linecap="butt" stroke-miterlimit="4"/><path d=" M 383.783 441.866 C 393.088 441.9 402.023 438.228 408.613 431.662 C 415.205 425.095 418.909 416.173 418.909 406.869 C 418.913 371.336 418.913 316.428 418.913 280.799 C 418.913 271.515 415.226 262.613 408.662 256.049 C 402.097 249.484 393.195 245.797 383.912 245.797 L 355.059 245.797 C 350.763 245.797 347.28 242.314 347.28 238.019 L 347.28 219.682 L 119.711 219.682 C 119.711 219.682 120.213 454.074 120.285 488.442 C 120.291 491.092 121.646 493.56 123.882 494.985 C 134.017 500.854 166.509 512 234.729 512 C 304.392 512 335.531 497.078 344.447 490.34 C 346.219 488.87 347.243 486.688 347.243 484.386 C 347.28 476.948 347.28 459.713 347.28 449.532 C 347.28 447.441 348.122 445.439 349.616 443.976 C 351.109 442.512 353.13 441.713 355.22 441.756 C 363.778 441.876 374.031 441.894 383.783 441.866 Z  M 347.28 286.681 C 347.28 284.102 348.305 281.629 350.127 279.805 C 351.951 277.983 354.425 276.958 357.003 276.958 L 381.773 276.958 C 384.351 276.958 386.824 277.983 388.648 279.805 C 390.47 281.629 391.495 284.102 391.495 286.681 L 391.495 399.824 C 391.495 402.402 390.47 404.876 388.648 406.7 C 386.824 408.522 384.351 409.546 381.773 409.546 L 357.003 409.546 C 354.425 409.546 351.951 408.522 350.127 406.7 C 348.305 404.876 347.28 402.402 347.28 399.824 L 347.28 286.681 Z " fill="rgb(255,255,255)" vector-effect="non-scaling-stroke" stroke-width="4.79" stroke="rgb(0,0,0)" stroke-linejoin="round" stroke-linecap="butt" stroke-miterlimit="4"/><path d=" M 142.146 217.426 L 142.146 458.521 C 142.146 461.304 143.631 463.875 146.04 465.263 C 155.882 469.953 184.431 481.148 234.486 481.148 C 284.872 481.148 312.574 467.546 321.85 461.94 C 324.065 460.513 325.402 458.057 325.402 455.424 C 325.424 423.454 325.424 217.426 325.424 217.426 L 142.146 217.426 Z " fill-rule="evenodd" fill="rgb(251,176,64)"/><mask id="_mask_J3SaewlbJfXf86vwcDVnDkt3RM1iGyJT" x="-200%" y="-200%" width="400%" height="400%"><rect x="-200%" y="-200%" width="400%" height="400%" style="fill:white;"/><line x1="169.085" y1="258.261" x2="169.085" y2="444.579" fill="black" stroke="none"/></mask><line x1="169.085" y1="258.261" x2="169.085" y2="444.579" mask="url(#_mask_J3SaewlbJfXf86vwcDVnDkt3RM1iGyJT)" vector-effect="non-scaling-stroke" stroke-width="22.191" stroke="rgb(255,219,150)" stroke-opacity="100" stroke-linejoin="miter" stroke-linecap="round" stroke-miterlimit="4"/><mask id="_mask_EapL1kjjIUUL7Key44T8QGlSqSyoJPuT" x="-200%" y="-200%" width="400%" height="400%"><rect x="-200%" y="-200%" width="400%" height="400%" style="fill:white;"/><path d=" M 272.635 266.901 C 272.635 263.012 270.347 258.368 266.588 256.037 C 260.472 252.336 255.691 246.66 253.089 239.897 C 203.326 241.572 157.906 232.833 135.025 226.663 C 129.15 224.998 123.2 223.616 117.191 222.521 C 103.496 219.804 93.087 207.777 93.087 193.318 C 93.087 177.402 105.715 164.469 121.493 163.903 C 124.536 147.069 139.229 134.29 156.94 134.29 C 176.855 134.29 192.999 150.437 192.999 170.351 C 192.999 174.541 192.243 178.553 190.93 182.298 L 191.037 182.316 C 195.484 168.406 208.505 158.328 223.892 158.328 C 239.18 158.328 252.13 168.288 256.653 182.067 C 256.523 180.824 256.457 179.56 256.457 178.281 C 256.457 157.568 273.246 140.779 293.955 140.779 C 310.721 140.779 324.91 151.783 329.711 166.956 L 332.98 166.104 C 337.254 163.695 342.176 162.303 347.432 162.303 C 363.706 162.303 376.9 175.496 376.894 191.766 C 376.894 206.673 365.827 218.992 351.461 220.958 C 348.208 221.418 345.017 222.247 341.95 223.427 C 333.412 226.645 324.681 229.313 315.861 231.514 C 315.421 235.862 314.126 239.958 312.148 243.631 C 308.571 250.343 306.966 257.933 307.52 265.52 C 307.517 265.979 307.534 268.383 307.534 268.846 C 307.534 278.483 299.725 284.347 290.08 284.347 C 280.449 284.347 272.635 276.54 272.635 266.901 Z " fill-rule="evenodd" fill="black" stroke="none"/></mask><path d=" M 272.635 266.901 C 272.635 263.012 270.347 258.368 266.588 256.037 C 260.472 252.336 255.691 246.66 253.089 239.897 C 203.326 241.572 157.906 232.833 135.025 226.663 C 129.15 224.998 123.2 223.616 117.191 222.521 C 103.496 219.804 93.087 207.777 93.087 193.318 C 93.087 177.402 105.715 164.469 121.493 163.903 C 124.536 147.069 139.229 134.29 156.94 134.29 C 176.855 134.29 192.999 150.437 192.999 170.351 C 192.999 174.541 192.243 178.553 190.93 182.298 L 191.037 182.316 C 195.484 168.406 208.505 158.328 223.892 158.328 C 239.18 158.328 252.13 168.288 256.653 182.067 C 256.523 180.824 256.457 179.56 256.457 178.281 C 256.457 157.568 273.246 140.779 293.955 140.779 C 310.721 140.779 324.91 151.783 329.711 166.956 L 332.98 166.104 C 337.254 163.695 342.176 162.303 347.432 162.303 C 363.706 162.303 376.9 175.496 376.894 191.766 C 376.894 206.673 365.827 218.992 351.461 220.958 C 348.208 221.418 345.017 222.247 341.95 223.427 C 333.412 226.645 324.681 229.313 315.861 231.514 C 315.421 235.862 314.126 239.958 312.148 243.631 C 308.571 250.343 306.966 257.933 307.52 265.52 C 307.517 265.979 307.534 268.383 307.534 268.846 C 307.534 278.483 299.725 284.347 290.08 284.347 C 280.449 284.347 272.635 276.54 272.635 266.901 Z " fill-rule="evenodd" fill="rgb(255,255,255)"/><path d=" M 272.635 266.901 C 272.635 263.012 270.347 258.368 266.588 256.037 C 260.472 252.336 255.691 246.66 253.089 239.897 C 203.326 241.572 157.906 232.833 135.025 226.663 C 129.15 224.998 123.2 223.616 117.191 222.521 C 103.496 219.804 93.087 207.777 93.087 193.318 C 93.087 177.402 105.715 164.469 121.493 163.903 C 124.536 147.069 139.229 134.29 156.94 134.29 C 176.855 134.29 192.999 150.437 192.999 170.351 C 192.999 174.541 192.243 178.553 190.93 182.298 L 191.037 182.316 C 195.484 168.406 208.505 158.328 223.892 158.328 C 239.18 158.328 252.13 168.288 256.653 182.067 C 256.523 180.824 256.457 179.56 256.457 178.281 C 256.457 157.568 273.246 140.779 293.955 140.779 C 310.721 140.779 324.91 151.783 329.711 166.956 L 332.98 166.104 C 337.254 163.695 342.176 162.303 347.432 162.303 C 363.706 162.303 376.9 175.496 376.894 191.766 C 376.894 206.673 365.827 218.992 351.461 220.958 C 348.208 221.418 345.017 222.247 341.95 223.427 C 333.412 226.645 324.681 229.313 315.861 231.514 C 315.421 235.862 314.126 239.958 312.148 243.631 C 308.571 250.343 306.966 257.933 307.52 265.52 C 307.517 265.979 307.534 268.383 307.534 268.846 C 307.534 278.483 299.725 284.347 290.08 284.347 C 280.449 284.347 272.635 276.54 272.635 266.901 Z " fill-rule="evenodd" fill="rgb(255,255,255)" mask="url(#_mask_EapL1kjjIUUL7Key44T8QGlSqSyoJPuT)" vector-effect="non-scaling-stroke" stroke-width="9.58" stroke="rgb(0,0,0)" stroke-linejoin="round" stroke-linecap="round" stroke-miterlimit="4"/></g></g></svg>