<?xml version="1.0" encoding="UTF-8" standalone="no"?><!-- Generator: Gravit.io --><svg xmlns="http://www.w3.org/2000/svg" xmlns:xlink="http://www.w3.org/1999/xlink" style="isolation:isolate" viewBox="0 0 512 512" width="512pt" height="512pt"><defs><clipPath id="_clipPath_v12H9ms7pEi2f87Jm28Ff09kXgR0UACj"><rect width="512" height="512"/></clipPath></defs><g clip-path="url(#_clipPath_v12H9ms7pEi2f87Jm28Ff09kXgR0UACj)"><path d=" M 486.923 144.892 L 489.013 149.769 C 504.338 183.554 512 219.08 512 256 C 512 397.061 397.061 512 256 512 C 114.939 512 0 397.061 0 256 C 0 114.939 114.939 0 256 0 C 297.448 0 336.805 9.752 373.029 27.864 L 377.904 30.302 L 373.725 33.785 C 363.277 42.144 355.266 52.593 350.042 64.784 L 348.648 68.267 L 345.514 66.873 C 317.301 53.638 287.347 46.672 256 46.672 C 140.365 46.672 46.672 140.365 46.672 256 C 46.672 371.635 140.365 465.328 256 465.328 C 371.635 465.328 465.328 371.286 465.328 256 C 465.328 228.485 460.104 201.317 449.306 175.891 L 447.914 172.408 L 451.395 171.014 C 463.586 166.486 474.731 158.824 483.44 149.072 L 486.923 144.892 Z  M 423.531 149.769 C 452.963 149.769 476.822 125.91 476.822 96.479 C 476.822 67.048 452.963 43.189 423.531 43.189 C 394.101 43.189 370.242 67.048 370.242 96.479 C 370.242 125.91 394.101 149.769 423.531 149.769 Z  M 255.998 139.321 C 191.563 139.321 139.318 191.565 139.318 256.002 C 139.318 320.437 191.563 372.682 255.998 372.682 C 320.434 372.682 372.678 320.437 372.678 256.002 C 372.678 191.565 320.434 139.321 255.998 139.321 Z " fill-rule="evenodd" fill="rgb(56,128,255)"/></g></svg>