<?xml version="1.0" encoding="UTF-8" standalone="no"?><!-- Generator: Gravit.io --><svg xmlns="http://www.w3.org/2000/svg" xmlns:xlink="http://www.w3.org/1999/xlink" style="isolation:isolate" viewBox="0 0 512 512" width="512pt" height="512pt"><defs><clipPath id="_clipPath_RGLJodFTv6IGE1AMEMUNZN5ZoC1JolY7"><rect width="512" height="512"/></clipPath></defs><g clip-path="url(#_clipPath_RGLJodFTv6IGE1AMEMUNZN5ZoC1JolY7)"><g><rect x="0.001" y="-0.001" width="512" height="512.002" transform="matrix(0,-1,1,0,0.001,512.001)" fill="rgb(247,223,30)"/><path d=" M 304.631 425.318 C 304.631 475.146 275.374 497.889 232.744 497.889 C 194.231 497.889 171.946 478.004 160.516 453.891 L 199.715 430.233 C 207.258 443.604 214.116 454.917 230.687 454.917 C 246.458 454.917 256.518 448.746 256.518 424.633 L 256.518 261.088 L 304.631 261.088 L 304.631 425.318 L 304.631 425.318 Z " fill="rgb(0,0,0)"/><path d=" M 418.46 497.889 C 373.774 497.889 344.861 476.631 330.803 448.746 L 370.003 426.116 C 380.289 442.917 393.774 455.373 417.432 455.373 C 437.317 455.373 450.115 445.432 450.115 431.604 C 450.115 415.146 437.088 409.32 415.032 399.604 L 403.032 394.462 C 368.289 379.718 345.317 361.089 345.317 321.891 C 345.317 285.775 372.859 258.346 415.715 258.346 C 446.344 258.346 468.287 268.975 484.059 296.861 L 446.572 320.861 C 438.345 306.118 429.43 300.291 415.602 300.291 C 401.544 300.291 392.629 309.206 392.629 320.861 C 392.629 335.262 401.544 341.092 422.23 350.118 L 434.229 355.261 C 475.143 372.747 498.115 390.692 498.115 430.92 C 498.117 474.117 464.059 497.889 418.46 497.889 L 418.46 497.889 Z " fill="rgb(0,0,0)"/></g></g></svg>