<?xml version="1.0" encoding="UTF-8" standalone="no"?><!-- Generator: Gravit.io --><svg xmlns="http://www.w3.org/2000/svg" xmlns:xlink="http://www.w3.org/1999/xlink" style="isolation:isolate" viewBox="0 0 512 512" width="512pt" height="512pt"><defs><clipPath id="_clipPath_gMuUJ1kkqD7cKAkeQ9QKS4KfP3u9d9Ln"><rect width="512" height="512"/></clipPath></defs><g clip-path="url(#_clipPath_gMuUJ1kkqD7cKAkeQ9QKS4KfP3u9d9Ln)"><g><path d=" M 435.572 246.72 C 435.572 348.159 355.176 430.393 256.002 430.393 C 156.83 430.393 76.433 348.159 76.433 246.72 C 76.433 145.278 156.83 63.043 256.002 63.043 C 355.176 63.043 435.572 145.278 435.572 246.72 Z " fill-rule="evenodd" fill="rgb(211,56,51)"/><path d=" M 83.751 292.21 C 83.751 292.21 70.751 100.668 247.244 95.195 L 234.931 74.673 L 139.161 106.825 L 111.797 138.292 L 87.855 184.127 L 74.173 237.485 L 78.277 273.056" fill="rgb(239,61,58)"/><path d=" M 133.012 121.421 C 101.506 153.657 82.01 198.166 82.01 247.405 L 82.01 247.405 C 82.01 296.634 101.506 341.149 133.012 373.379 L 133.012 373.379 C 164.533 405.61 207.974 425.498 256 425.498 L 256 425.498 C 304.026 425.498 347.47 405.61 378.988 373.379 L 378.988 373.379 C 410.492 341.149 429.992 296.634 429.992 247.405 L 429.992 247.405 C 429.992 198.166 410.492 153.657 378.988 121.421 L 378.988 121.421 C 347.47 89.196 304.026 69.308 256 69.304 L 256 69.304 C 207.974 69.308 164.533 89.196 133.012 121.421 L 133.012 121.421 Z  M 125.037 381.176 C 91.554 346.933 70.854 299.608 70.854 247.405 L 70.854 247.405 C 70.854 195.194 91.554 147.874 125.037 113.628 L 125.037 113.628 C 158.513 79.377 204.852 58.146 256 58.152 L 256 58.152 C 307.148 58.146 353.491 79.377 386.961 113.628 L 386.961 113.628 C 420.448 147.874 441.15 195.198 441.146 247.405 L 441.146 247.405 C 441.15 299.608 420.448 346.933 386.961 381.176 L 386.961 381.176 C 353.491 415.426 307.148 436.654 256 436.654 L 256 436.654 C 204.852 436.654 158.513 415.426 125.037 381.176 L 125.037 381.176 Z " fill="rgb(35,31,32)"/><path d=" M 331.592 247.738 L 304.227 251.842 L 267.287 255.947 L 243.343 256.63 L 220.086 255.947 L 202.298 250.473 L 186.564 233.372 L 174.251 198.484 L 171.515 190.959 L 155.097 185.487 L 145.52 169.753 L 138.679 147.178 L 146.205 127.339 L 163.99 121.183 L 178.355 128.025 L 185.198 143.074 L 193.406 141.705 L 196.142 138.286 L 193.406 122.551 L 192.721 102.712 L 196.825 75.35 L 196.665 59.72 L 209.139 39.779 L 231.03 24.044 L 269.339 7.626 L 311.751 13.783 L 348.691 40.462 L 365.794 67.825 L 376.739 87.663 L 379.475 136.917 L 371.266 179.331 L 356.217 216.954 L 341.851 236.793" fill-rule="evenodd" fill="rgb(240,214,183)"/><path d=" M 308.332 366.082 L 210.507 370.186 L 210.507 386.604 L 218.716 444.067 L 214.612 448.857 L 146.205 425.597 L 141.415 417.388 L 134.575 340.088 L 118.843 293.57 L 115.422 282.626 L 170.146 245.002 L 187.25 238.16 L 202.298 256.63 L 215.296 268.26 L 230.347 273.048 L 237.186 275.1 L 245.395 310.671 L 251.552 318.197 L 267.287 312.724 L 256.34 333.931 L 315.855 361.977 L 308.332 366.082" fill-rule="evenodd" fill="rgb(51,80,97)"/><path d=" M 146.205 127.339 L 163.99 121.183 L 178.355 128.025 L 185.198 143.074 L 193.406 141.705 L 195.459 133.496 L 191.354 117.764 L 195.459 80.138 L 192.037 59.616 L 204.351 45.25 L 231.03 24.044 L 223.505 13.783 L 185.881 32.253 L 170.146 44.567 L 161.254 63.72 L 147.572 82.19 L 143.467 104.081 L 146.205 127.339 Z " fill-rule="evenodd" fill="rgb(109,107,109)"/><path d=" M 174.251 63.037 C 174.251 63.037 184.512 37.726 225.557 25.413 C 266.601 13.1 227.609 16.519 227.609 16.519 L 183.145 33.622 L 166.042 50.723 L 158.519 64.406 L 174.251 63.037 Z " fill-rule="evenodd" fill="rgb(220,217,216)"/><path d=" M 153.729 122.551 C 153.729 122.551 139.363 74.665 194.089 67.825 L 192.037 59.616 L 154.414 68.51 L 143.467 104.081 L 146.205 127.339 L 153.729 122.551 Z " fill-rule="evenodd" fill="rgb(220,217,216)"/><path d=" M 175.619 186.171 L 184.576 177.492 C 184.576 177.492 188.619 177.962 189.302 182.75 C 189.985 187.54 192.037 230.636 221.452 253.896 C 224.135 256.018 199.563 250.473 199.563 250.473 L 177.672 216.271" fill-rule="evenodd" fill="rgb(247,228,205)"/><path d=" M 301.494 173.174 C 301.494 173.174 303.088 152.438 308.673 154.033 C 314.257 155.627 314.257 161.211 314.257 161.211 C 314.257 161.211 300.696 169.985 301.494 173.174" fill-rule="evenodd" fill="rgb(247,228,205)"/><path d=" M 358.269 97.241 C 358.269 97.241 346.994 99.622 345.956 109.555 C 344.917 119.49 358.269 111.607 360.321 110.923" fill="rgb(247,228,205)"/><path d=" M 275.496 97.927 C 275.496 97.927 260.445 99.979 260.445 109.555 C 260.445 119.132 277.548 118.449 282.336 114.345" fill="rgb(247,228,205)"/><path d=" M 182.46 142.39 C 182.46 142.39 156.464 126.656 153.729 141.707 C 150.993 156.756 144.834 167.703 157.833 183.435 L 148.94 180.699 L 140.731 159.494 L 137.996 138.971 L 153.729 122.551 L 171.515 123.92 L 181.776 132.129 L 182.46 142.39 Z " fill-rule="evenodd" fill="rgb(247,228,205)"/><path d=" M 194.773 99.293 C 194.773 99.293 206.403 39.095 265.235 27.465 C 313.67 17.892 339.113 29.518 348.691 40.462 C 348.691 40.462 305.594 -10.842 264.549 4.891 C 223.505 20.625 193.406 49.356 194.089 67.825 C 195.254 99.281 194.773 99.293 194.773 99.293 Z " fill-rule="evenodd" fill="rgb(247,228,205)"/><path d=" M 353.481 47.302 C 353.481 47.302 333.644 46.619 332.959 64.406 C 332.959 64.406 332.957 67.141 334.326 69.877 C 334.326 69.877 350.062 52.09 359.638 61.668" fill-rule="evenodd" fill="rgb(247,228,205)"/><path d=" M 266.614 71.73 C 266.614 71.73 263.198 44.429 239.922 60.301 C 224.873 70.562 226.242 84.928 228.977 87.663 C 231.713 90.401 230.97 95.911 233.052 92.129 C 235.134 88.347 234.449 76.033 241.975 72.614 C 249.5 69.193 261.836 65.372 266.614 71.73 Z " fill-rule="evenodd" fill="rgb(247,228,205)"/><path d=" M 202.298 256.63 L 137.996 285.361 C 137.996 285.361 164.675 391.394 150.993 424.23 L 141.415 420.811 L 140.731 380.449 L 122.948 303.833 L 115.422 282.626 L 182.46 237.479 L 202.298 256.63 Z " fill-rule="evenodd" fill="rgb(73,114,139)"/><path d=" M 208.91 315.277 L 218.033 326.408 L 218.033 367.453 L 207.087 367.453 C 207.087 367.453 205.72 338.721 205.72 335.3 C 205.72 331.879 207.087 319.566 207.087 319.566" fill-rule="evenodd" fill="rgb(73,114,139)"/><path d=" M 209.139 373.609 L 178.355 374.976 L 187.25 381.133 L 209.139 384.553" fill-rule="evenodd" fill="rgb(73,114,139)"/><path d=" M 314.489 366.767 L 339.799 366.083 L 345.956 429.02 L 319.96 432.439 L 314.489 366.767" fill-rule="evenodd" fill="rgb(51,80,97)"/><path d=" M 321.329 366.767 L 359.638 364.715 C 359.638 364.715 375.37 325.039 375.37 322.986 C 375.37 320.934 389.052 265.524 389.052 265.524 L 358.269 233.374 L 352.112 227.901 L 335.694 244.319 L 335.694 307.938 L 321.329 366.767" fill-rule="evenodd" fill="rgb(51,80,97)"/><path d=" M 338.43 361.979 L 314.489 366.767 L 317.908 385.923 C 326.8 390.027 341.851 379.081 341.851 379.081" fill-rule="evenodd" fill="rgb(73,114,139)"/><path d=" M 339.115 242.266 L 387 277.838 L 388.369 261.42 L 352.112 227.901 L 339.115 242.266 Z " fill-rule="evenodd" fill="rgb(73,114,139)"/><path d=" M 232.879 501.537 L 218.716 444.067 L 211.672 401.662 L 210.507 370.186 L 274.608 366.774 L 314.489 366.767 L 310.862 438.602 L 317.019 494.012 L 316.336 504.273 L 264.347 508.378 L 232.879 501.537" fill-rule="evenodd" fill="rgb(255,255,255)"/><path d=" M 305.594 366.083 C 305.594 366.083 302.175 437.229 312.436 487.849 C 312.436 487.849 291.914 500.848 261.813 504.267 L 319.277 502.215 L 326.117 498.11 L 317.908 385.923 L 315.855 361.977" fill-rule="evenodd" fill="rgb(220,217,216)"/><path d=" M 347.121 423.553 L 373.8 416.027 L 424.421 413.291 L 431.946 390.034 L 418.264 349.672 L 402.532 347.62 L 380.64 354.46 L 359.638 364.715 L 348.488 362.669 L 339.799 366.083" fill-rule="evenodd" fill="rgb(255,255,255)"/><path d=" M 346.639 409.864 C 346.639 409.864 364.424 401.657 367.161 402.341 L 359.638 364.715 L 368.53 361.296 C 368.53 361.296 374.687 396.867 374.687 400.971 C 374.687 400.971 412.994 403.024 416.415 403.024 C 416.415 403.024 424.624 387.29 422.572 370.872 L 430.097 392.762 L 430.781 405.076 L 419.836 421.494 L 407.523 424.23 L 387 423.546 L 380.16 414.654 L 356.217 418.073 L 348.691 420.811" fill-rule="evenodd" fill="rgb(220,217,216)"/><path d=" M 319.757 361.302 L 304.708 322.993 L 288.973 300.418 C 288.973 300.418 292.392 290.841 297.182 290.841 C 301.972 290.841 312.917 290.841 312.917 290.841 L 327.966 296.314 L 326.599 321.625 L 319.757 361.302 Z " fill="rgb(255,255,255)"/><path d=" M 322.698 348.297 C 322.698 348.297 303.542 311.359 303.542 305.886 C 303.542 305.886 306.961 297.677 311.751 299.729 C 316.541 301.781 326.802 307.252 326.802 307.252 L 326.802 294.256 L 303.542 289.466 L 287.81 291.518 L 314.489 354.454 L 319.96 355.139" fill-rule="evenodd" fill="rgb(220,217,216)"/><path d=" M 239.037 258.007 L 220.086 255.947 L 202.298 250.473 L 202.298 256.63 L 210.989 266.214 L 238.352 278.527" fill="rgb(255,255,255)"/><path d=" M 208.458 260.057 C 208.458 260.057 229.665 268.952 236.506 266.899 L 237.186 275.1 L 218.036 271.004 L 206.405 262.795 L 208.458 260.057 Z " fill-rule="evenodd" fill="rgb(220,217,216)"/><path d=" M 347.047 293.17 C 335.44 292.829 324.953 291.45 315.771 288.86 C 316.395 285.097 315.227 281.403 316.165 278.692 C 318.724 276.849 323.014 276.877 326.882 276.444 C 323.537 274.8 318.837 274.15 314.977 275.1 C 314.887 272.488 313.715 270.868 313.005 268.824 C 319.531 266.495 334.937 251.224 343.604 256.281 C 347.733 258.686 349.487 272.424 349.808 279.104 C 350.074 284.645 349.305 290.235 347.047 293.17 Z " fill-rule="evenodd" fill="rgb(211,56,51)"/><mask id="_mask_XhPT9yewTwAi9ChiPF8IhNmrKrL9SuAh" x="-200%" y="-200%" width="400%" height="400%"><rect x="-200%" y="-200%" width="400%" height="400%" style="fill:white;"/><path d=" M 347.047 293.17 C 335.44 292.829 324.953 291.45 315.771 288.86 C 316.395 285.097 315.227 281.403 316.165 278.692 C 318.724 276.849 323.014 276.877 326.882 276.444 C 323.537 274.8 318.837 274.15 314.977 275.1 C 314.887 272.488 313.715 270.868 313.005 268.824 C 319.531 266.495 334.937 251.224 343.604 256.281 C 347.733 258.686 349.487 272.424 349.808 279.104 C 350.074 284.645 349.305 290.235 347.047 293.17 Z " fill="black" stroke="none"/></mask><path d=" M 347.047 293.17 C 335.44 292.829 324.953 291.45 315.771 288.86 C 316.395 285.097 315.227 281.403 316.165 278.692 C 318.724 276.849 323.014 276.877 326.882 276.444 C 323.537 274.8 318.837 274.15 314.977 275.1 C 314.887 272.488 313.715 270.868 313.005 268.824 C 319.531 266.495 334.937 251.224 343.604 256.281 C 347.733 258.686 349.487 272.424 349.808 279.104 C 350.074 284.645 349.305 290.235 347.047 293.17 Z " fill="none"/><path d=" M 347.047 293.17 C 335.44 292.829 324.953 291.45 315.771 288.86 C 316.395 285.097 315.227 281.403 316.165 278.692 C 318.724 276.849 323.014 276.877 326.882 276.444 C 323.537 274.8 318.837 274.15 314.977 275.1 C 314.887 272.488 313.715 270.868 313.005 268.824 C 319.531 266.495 334.937 251.224 343.604 256.281 C 347.733 258.686 349.487 272.424 349.808 279.104 C 350.074 284.645 349.305 290.235 347.047 293.17 Z " fill="none" mask="url(#_mask_XhPT9yewTwAi9ChiPF8IhNmrKrL9SuAh)" vector-effect="non-scaling-stroke" stroke-width="5" stroke="rgb(211,56,51)" stroke-linejoin="miter" stroke-linecap="butt" stroke-miterlimit="4"/><path d=" M 291.541 274.195 C 291.51 275.073 291.473 275.958 291.438 276.844 C 287.814 279.225 281.963 279.196 277.986 281.197 C 283.849 281.454 288.464 282.866 292.458 284.856 C 292.37 287.069 292.286 289.279 292.199 291.491 C 285.556 296.039 279.488 302.811 271.666 307.076 C 267.968 309.093 254.989 314.283 251.055 313.366 C 248.829 312.849 248.628 310.086 247.739 307.482 C 245.843 301.906 241.478 293.03 241.097 284.637 C 240.612 274.035 239.542 256.267 250.967 258.45 C 260.184 260.209 270.905 264.455 278.041 268.354 C 282.402 270.739 284.924 273.686 291.541 274.195" fill-rule="evenodd" fill="rgb(211,56,51)"/><mask id="_mask_pupiePOsGcFKs4hy2P4uVXL7FHfFWFLF" x="-200%" y="-200%" width="400%" height="400%"><rect x="-200%" y="-200%" width="400%" height="400%" style="fill:white;"/><path d=" M 291.541 274.195 C 291.51 275.073 291.473 275.958 291.438 276.844 C 287.814 279.225 281.963 279.196 277.986 281.197 C 283.849 281.454 288.464 282.866 292.458 284.856 C 292.37 287.069 292.286 289.279 292.199 291.491 C 285.556 296.039 279.488 302.811 271.666 307.076 C 267.968 309.093 254.989 314.283 251.055 313.366 C 248.829 312.849 248.628 310.086 247.739 307.482 C 245.843 301.906 241.478 293.03 241.097 284.637 C 240.612 274.035 239.542 256.267 250.967 258.45 C 260.184 260.209 270.905 264.455 278.041 268.354 C 282.402 270.739 284.924 273.686 291.541 274.195 L 291.541 274.195 Z " fill="black" stroke="none"/></mask><path d=" M 291.541 274.195 C 291.51 275.073 291.473 275.958 291.438 276.844 C 287.814 279.225 281.963 279.196 277.986 281.197 C 283.849 281.454 288.464 282.866 292.458 284.856 C 292.37 287.069 292.286 289.279 292.199 291.491 C 285.556 296.039 279.488 302.811 271.666 307.076 C 267.968 309.093 254.989 314.283 251.055 313.366 C 248.829 312.849 248.628 310.086 247.739 307.482 C 245.843 301.906 241.478 293.03 241.097 284.637 C 240.612 274.035 239.542 256.267 250.967 258.45 C 260.184 260.209 270.905 264.455 278.041 268.354 C 282.402 270.739 284.924 273.686 291.541 274.195 L 291.541 274.195 Z " fill="none"/><path d=" M 291.541 274.195 C 291.51 275.073 291.473 275.958 291.438 276.844 C 287.814 279.225 281.963 279.196 277.986 281.197 C 283.849 281.454 288.464 282.866 292.458 284.856 C 292.37 287.069 292.286 289.279 292.199 291.491 C 285.556 296.039 279.488 302.811 271.666 307.076 C 267.968 309.093 254.989 314.283 251.055 313.366 C 248.829 312.849 248.628 310.086 247.739 307.482 C 245.843 301.906 241.478 293.03 241.097 284.637 C 240.612 274.035 239.542 256.267 250.967 258.45 C 260.184 260.209 270.905 264.455 278.041 268.354 C 282.402 270.739 284.924 273.686 291.541 274.195 L 291.541 274.195 Z " fill="none" mask="url(#_mask_pupiePOsGcFKs4hy2P4uVXL7FHfFWFLF)" vector-effect="non-scaling-stroke" stroke-width="5" stroke="rgb(211,56,51)" stroke-linejoin="miter" stroke-linecap="butt" stroke-miterlimit="4"/><path d=" M 298.139 286.845 C 297.125 281.07 295.953 279.422 296.406 274.384 C 311.808 264.114 314.7 292.023 298.139 286.845 Z " fill-rule="evenodd" fill="rgb(211,56,51)"/><mask id="_mask_u3dKknYVhXaXZt2bXMKDiyg58m5KeALl" x="-200%" y="-200%" width="400%" height="400%"><rect x="-200%" y="-200%" width="400%" height="400%" style="fill:white;"/><path d=" M 298.139 286.845 C 297.125 281.07 295.953 279.422 296.406 274.384 C 311.808 264.114 314.7 292.023 298.139 286.845 Z " fill="black" stroke="none"/></mask><path d=" M 298.139 286.845 C 297.125 281.07 295.953 279.422 296.406 274.384 C 311.808 264.114 314.7 292.023 298.139 286.845 Z " fill="none"/><path d=" M 298.139 286.845 C 297.125 281.07 295.953 279.422 296.406 274.384 C 311.808 264.114 314.7 292.023 298.139 286.845 Z " fill="none" mask="url(#_mask_u3dKknYVhXaXZt2bXMKDiyg58m5KeALl)" vector-effect="non-scaling-stroke" stroke-width="5" stroke="rgb(211,56,51)" stroke-linejoin="miter" stroke-linecap="butt" stroke-miterlimit="4"/><path d=" M 320.44 291.526 C 320.44 291.526 315.65 284.684 319.071 282.632 C 322.492 280.58 325.913 282.634 327.966 279.213 C 330.018 275.792 327.966 273.739 328.649 269.635 C 329.332 265.531 332.756 264.845 336.175 264.162 C 339.594 263.478 349.173 262.109 350.54 265.531 L 346.436 253.217 L 338.227 250.482 L 312.231 265.531 L 310.862 273.056 L 310.862 288.105" fill-rule="evenodd" fill="rgb(239,61,58)"/><path d=" M 248.612 314.101 C 247.791 303.425 246.921 292.764 245.953 282.098 C 244.505 266.173 249.779 268.952 263.583 268.952 C 265.692 268.952 276.565 271.466 277.343 273.056 C 281.074 280.676 271.104 278.983 281.641 284.729 C 290.535 289.579 306.247 281.784 302.653 271.004 C 300.642 268.607 292.175 270.257 289.139 268.683 C 283.795 265.912 278.451 263.142 273.107 260.371 C 266.307 256.843 250.592 251.701 243.343 256.63 C 224.975 269.122 244.502 300.334 251.055 313.366" fill-rule="evenodd" fill="rgb(239,61,58)"/><path d=" M 266.614 71.73 C 247.969 67.387 238.704 79.533 233.052 92.129 C 228.006 90.906 230.014 84.043 231.289 80.546 C 234.626 71.369 248.075 59.152 259.064 60.808 C 263.793 61.52 270.193 65.844 266.614 71.73" fill-rule="evenodd" fill="rgb(35,31,32)"/><path d=" M 357.458 92.962 C 357.752 92.975 358.049 92.985 358.343 92.997 C 362.556 101.75 366.203 111.022 371.518 118.749 C 367.958 127.042 344.556 134.381 344.917 119.49 C 349.978 117.277 358.714 119.038 363.2 116.212 C 360.606 109.093 356.863 103.033 357.458 92.962" fill-rule="evenodd" fill="rgb(35,31,32)"/><path d=" M 276.159 93.19 C 280.157 100.519 281.458 108.219 287.141 113.758 C 289.7 116.251 294.676 119.29 292.21 126.225 C 291.633 127.861 287.42 131.507 284.988 132.224 C 276.104 134.846 255.402 132.765 262.413 121.689 C 269.76 122.032 279.636 126.461 285.127 121.127 C 280.91 114.386 273.391 101.048 276.159 93.19" fill-rule="evenodd" fill="rgb(35,31,32)"/><path d=" M 354.123 167.674 C 340.747 176.267 325.831 185.61 303.913 183.443 C 299.23 179.372 297.445 170.311 301.995 164.327 C 304.363 168.398 302.875 175.887 309.475 177.014 C 321.912 179.142 336.386 169.406 345.332 166.003 C 350.879 156.651 344.853 153.212 339.856 147.193 C 329.626 134.861 315.903 119.576 316.401 101.114 C 320.537 98.115 320.894 105.69 321.487 107.069 C 326.829 119.572 340.273 135.561 350.085 146.261 C 352.494 148.896 356.461 151.424 356.902 153.167 C 358.175 158.234 353.592 164.304 354.123 167.674" fill-rule="evenodd" fill="rgb(35,31,32)"/><path d=" M 177.778 158.628 C 173.586 156.235 172.588 145.694 167.665 145.395 C 160.631 144.968 161.914 159.069 161.942 167.315 C 157.1 162.919 156.248 149.384 159.805 142.433 C 155.751 140.443 153.941 144.629 151.692 146.105 C 154.582 125.111 182.404 136.367 177.778 158.628 Z " fill-rule="evenodd" fill="rgb(35,31,32)"/><path d=" M 362.64 176.416 C 356.414 188.268 347.606 201.32 329.335 201.7 C 328.963 197.873 328.678 192.048 329.355 189.744 C 343.323 188.401 351.946 181.293 362.64 176.416 Z " fill-rule="evenodd" fill="rgb(35,31,32)"/><path d=" M 275.105 184.1 C 286.759 190.228 308.176 190.887 324.015 190.423 C 324.865 193.893 324.844 198.18 324.877 202.412 C 304.517 203.428 280.444 198.39 275.105 184.1 Z " fill-rule="evenodd" fill="rgb(35,31,32)"/><path d=" M 272.89 195.527 C 280.949 215.76 308.646 213.43 332.002 212.872 C 330.974 215.499 328.746 218.602 325.975 219.725 C 318.491 222.77 297.847 225.081 287.457 219.563 C 280.867 216.059 276.633 208.144 273.023 203.504 C 271.279 201.263 262.597 195.539 272.89 195.527" fill-rule="evenodd" fill="rgb(35,31,32)"/><path d=" M 353.151 307.133 C 343.694 323.33 334.646 339.965 323.426 354.251 C 328.13 340.421 330.143 317.273 330.853 299.626 C 340.694 295.021 349.12 300.663 353.151 307.133 Z " fill-rule="evenodd" fill="rgb(129,176,196)"/><path d=" M 404.038 365.345 C 393.45 367.465 386.011 377.755 375.682 377.094 C 381.359 369.092 391.306 365.719 404.038 365.345 Z " fill-rule="evenodd" fill="rgb(35,31,32)"/><path d=" M 408.709 381.915 C 400.079 382.826 389.943 384.223 381.19 383.503 C 385.334 377.174 401.298 379.358 408.709 381.915 Z " fill-rule="evenodd" fill="rgb(35,31,32)"/><path d=" M 411.699 396.2 C 402 396.41 389.945 396.217 380.727 395.443 C 386.179 389.586 405.409 393.27 411.699 396.2 Z " fill-rule="evenodd" fill="rgb(35,31,32)"/><path d=" M 334.902 435.293 C 336.294 447.474 341.123 459.815 340.517 473.155 C 335.155 474.963 332.074 476.545 324.889 476.535 C 324.382 465.198 322.866 447.867 323.319 437.06 C 326.853 437.294 332.064 434.536 334.902 435.293 Z " fill-rule="evenodd" fill="rgb(220,217,216)"/><path d=" M 319.266 255.78 C 314.396 258.959 310.249 262.928 305.572 266.323 C 295.2 266.836 289.54 265.604 281.92 259.649 C 282.045 259.171 282.81 259.384 282.839 258.797 C 293.942 263.745 308.055 256.782 319.266 255.78" fill-rule="evenodd" fill="rgb(240,214,183)"/><path d=" M 260.982 331.462 C 264.032 318.244 275.985 311.398 286.839 304.119 C 298.042 318.337 304.855 336.622 312.358 354.267 C 294.631 348.923 276.518 340.253 260.982 331.462 Z " fill-rule="evenodd" fill="rgb(129,176,196)"/><path d=" M 323.319 437.06 C 322.866 447.867 324.382 465.198 324.889 476.535 C 332.074 476.545 335.155 474.963 340.517 473.155 C 341.123 459.815 336.294 447.474 334.902 435.293 C 332.064 434.536 326.853 437.294 323.319 437.06 L 323.319 437.06 Z  M 211.444 375.598 C 216.182 419.153 223.044 455.766 235.63 494.334 C 263.563 502.816 297.238 503.555 321.928 495.902 C 317.395 474.133 319.375 447.632 316.726 424.402 C 314.729 406.942 315.747 389.375 313.009 371.561 C 283.092 365.337 240.804 370.106 211.444 375.598 L 211.444 375.598 Z  M 320.083 371.835 C 319.831 390.54 320.92 408.992 322.349 427.721 C 329.532 426.643 334.406 425.923 341.079 424.46 C 338.912 406.429 339.179 386.14 334.765 370.19 C 329.663 370.239 325.171 370.131 320.083 371.835 L 320.083 371.835 Z  M 356.52 368.819 C 353.112 368.038 349.143 368.789 345.886 368.852 C 347.417 384.101 351.131 400.927 352.439 416.932 C 357.563 417.092 360.301 414.675 364.516 413.862 C 364.742 399.812 363.289 380.456 356.52 368.819 L 356.52 368.819 Z  M 411.693 419.228 C 422.375 416.634 429.092 403.551 426.103 390.115 C 424.098 381.086 420.528 364.082 416.706 358.306 C 413.882 354.033 406.226 348.439 400.112 352.354 C 390.167 358.723 372.647 360.571 365.394 368.28 C 369.031 380.388 370.16 397.019 371.66 412.361 C 384.084 413.136 399.371 408.942 409.704 413.392 C 402.49 415.729 393.13 415.747 386.898 419.153 C 391.991 421.613 403.917 421.116 411.693 419.228 L 411.693 419.228 Z  M 312.358 354.267 C 304.855 336.622 298.042 318.337 286.839 304.119 C 275.985 311.398 264.032 318.244 260.982 331.462 C 276.518 340.253 294.631 348.923 312.358 354.267 Z  M 330.853 299.626 C 330.143 317.273 328.13 340.421 323.426 354.251 C 334.646 339.965 343.694 323.33 353.151 307.133 C 349.12 300.663 340.694 295.021 330.853 299.626 L 330.853 299.626 Z  M 309.888 292.177 C 305.637 291.719 302.03 297.063 296.503 294.752 C 295.237 296.152 294.085 297.669 292.794 299.035 C 305.001 313.746 310.548 334.617 319.976 351.905 C 325.035 335.298 324.452 317.105 325.567 298.98 C 318.616 299.421 314.76 292.694 309.888 292.177 Z  M 296.406 274.384 C 295.953 279.422 297.125 281.07 298.139 286.845 C 314.7 292.023 311.808 264.114 296.406 274.384 Z  M 278.041 268.354 C 270.905 264.455 260.184 260.209 250.967 258.45 C 239.542 256.265 240.612 274.035 241.097 284.637 C 241.478 293.03 245.843 301.906 247.739 307.482 C 248.628 310.086 248.829 312.849 251.055 313.366 C 254.989 314.283 267.968 309.093 271.666 307.076 C 279.488 302.811 285.556 296.039 292.199 291.491 C 292.286 289.279 292.37 287.069 292.458 284.856 C 288.464 282.866 283.849 281.454 277.986 281.197 C 281.963 279.196 287.814 279.225 291.438 276.844 C 291.473 275.958 291.51 275.073 291.541 274.195 C 284.924 273.686 282.402 270.739 278.041 268.354 L 278.041 268.354 Z  M 209.879 255.973 C 203.956 261.986 226.491 270.183 233.666 270.624 C 233.626 266.819 235.834 263.232 235.389 260.503 C 226.868 259.006 215.668 259.994 209.879 255.973 L 209.879 255.973 Z  M 282.839 258.797 C 282.81 259.384 282.045 259.171 281.92 259.649 C 289.54 265.604 295.2 266.836 305.572 266.323 C 310.249 262.928 314.396 258.959 319.266 255.78 C 308.055 256.782 293.942 263.745 282.839 258.797 L 282.839 258.797 Z  M 349.808 279.104 C 349.487 272.424 347.733 258.686 343.604 256.281 C 334.937 251.222 319.531 266.495 313.005 268.824 C 313.715 270.868 314.887 272.488 314.977 275.1 C 318.837 274.15 323.537 274.8 326.882 276.444 C 323.014 276.877 318.724 276.849 316.165 278.692 C 315.227 281.403 316.395 285.097 315.771 288.86 C 324.953 291.45 335.44 292.829 347.047 293.17 C 349.305 290.235 350.074 284.645 349.808 279.104 L 349.808 279.104 Z  M 199.908 261.789 C 198.048 260.464 185.466 244.093 183.743 244.772 C 160.976 253.751 139.688 269.276 120.664 283.96 C 138.802 322.878 146.123 370.56 147.417 416.517 C 168.194 426.235 186.444 440.244 214.638 441.707 C 211.376 418.623 208.397 398.028 206.545 376.296 C 199.461 373.31 189.298 376.431 182.668 375.37 C 182.612 367.381 192.793 371.871 193.641 366.499 C 194.28 362.435 188.039 362.127 190.072 355.728 C 195.254 357.612 197.976 361.774 203.503 363.336 C 208.554 352.287 203.433 332.737 204.161 323.502 C 204.298 321.768 205.026 313.896 208.91 315.277 C 212.348 316.5 208.714 336.214 209.091 344.954 C 209.434 353.007 208.118 360.799 211.38 365.854 C 238.624 362.146 266.309 359.749 295.787 358.94 C 289.302 356.157 281.598 353.524 273.151 348.763 C 268.572 346.182 254.138 340.811 252.817 336.461 C 250.709 329.531 258.348 325.84 259.655 319.899 C 245.903 327.399 243.22 312.709 239.967 302.302 C 237.019 292.877 235.341 285.835 234.618 280.399 C 222.771 274.751 210.105 269.032 199.908 261.789 L 199.908 261.789 Z  M 337.775 246.753 C 356.744 237.554 360.163 281.13 352.728 295.167 C 353.877 299.353 357.83 300.956 359.443 304.72 C 348.857 323.682 337.1 341.383 326.299 360.122 C 334.334 355.121 345.81 359.228 355.264 355.484 C 358.72 354.117 361.222 346.206 363.839 339.877 C 371.036 322.464 378.592 300.511 381.954 283.894 C 382.713 280.108 384.782 271.858 384.318 268.488 C 383.491 262.454 375.305 257.98 371.141 254.249 C 363.469 247.358 358.638 241.294 350.637 234.85 C 347.392 239.64 340.429 242.857 337.775 246.753 L 337.775 246.753 Z  M 156.526 78.535 C 147.488 88.48 149.38 107.115 150.474 120.372 C 166.812 110.094 188.496 121.185 188.292 138.666 C 196.092 138.458 191.206 128.924 189.795 122.781 C 185.184 102.719 197.563 80.922 190.356 62.575 C 176.363 63.636 164.867 69.351 156.526 78.535 L 156.526 78.535 Z  M 221.2 20.814 C 200.738 26.614 174.513 41.482 166.105 59.864 C 172.616 58.918 177.135 55.634 183.558 55.228 C 185.986 55.07 189.166 56.246 191.956 55.552 C 197.515 54.173 202.207 41.708 206.401 37.07 C 210.49 32.54 215.404 30.605 218.767 26.476 C 220.927 25.434 224.122 25.505 224.245 22.261 C 223.308 21.259 222.322 20.496 221.2 20.814 L 221.2 20.814 Z  M 327.717 26.269 C 306.479 14.286 270.53 5.272 247.937 16.535 C 229.708 25.624 205.066 40.663 196.665 59.72 C 204.513 78.11 194.34 94.961 193.691 113.632 C 193.346 123.567 198.369 132.24 198.754 143.055 C 196.068 147.486 187.863 148.032 182.183 147.728 C 180.271 138.161 176.924 127.407 167.072 126.328 C 153.131 124.803 142.938 136.34 142.305 148.397 C 141.556 162.576 153.195 186.076 169.694 184.445 C 176.067 183.815 177.632 177.426 184.576 177.492 C 188.34 185.001 178.771 187.359 177.786 192.73 C 177.53 194.117 178.58 199.539 179.191 202.082 C 182.187 214.463 188.868 230.487 195.443 239.913 C 203.788 251.869 220.183 253.671 237.822 254.843 C 240.973 248.056 252.578 248.614 260.14 250.389 C 251.078 246.8 242.652 238.098 235.67 230.396 C 227.649 221.559 219.524 212.08 219.114 200.53 C 234.271 221.557 246.793 239.921 274.354 249.17 C 295.208 256.164 319.564 245.965 335.588 234.712 C 342.237 230.035 346.206 222.614 350.932 215.821 C 368.616 190.384 376.868 154.076 375.054 118.884 C 374.307 104.371 374.34 89.907 369.47 80.142 C 364.38 69.932 347.166 60.798 337.09 70.033 C 335.222 60.104 345.469 53.964 357.506 57.537 C 348.923 46.461 339.916 33.152 327.717 26.269 L 327.717 26.269 Z  M 367.286 353.738 C 383.883 345.487 414.892 331.531 425.297 353.768 C 429.137 361.965 433.641 375.822 435.63 384.283 C 438.439 396.221 432.584 421.312 420.314 425.318 C 409.476 428.855 396.83 428.64 383.776 426.017 C 382.239 424.739 380.527 422.51 379.331 420.187 C 370.01 419.825 361.282 420.687 353.918 424.519 C 354.616 431.413 349.953 432.519 345.582 433.939 C 342.342 446.787 352.065 463.567 349.738 475.283 C 348.078 483.63 337.808 484.921 330.26 486.482 C 330.014 491.121 330.59 494.993 331.106 498.917 C 329.38 505.276 321.639 508.896 314.304 509.783 C 290.172 512.685 253.531 513.989 230.319 505.642 C 223.841 489.754 218.739 470.43 213.344 452.288 C 190.705 454.705 172.395 442.519 155.134 434.536 C 149.158 431.765 140.89 430.239 138.658 425.482 C 136.493 420.876 137.379 412.05 136.842 403.712 C 135.475 382.415 134.305 361.875 128.681 340.07 C 126.156 330.285 121.755 321.651 118.684 312.223 C 115.846 303.485 110.888 292.686 109.595 283.972 C 107.678 271.057 119.839 270.339 127.615 264.742 C 139.635 256.088 149.071 251.302 162.09 243.492 C 165.946 241.179 177.574 235.324 178.897 232.627 C 181.526 227.281 174.383 219.743 172.474 215.552 C 169.453 208.926 167.878 203.297 167.445 196.758 C 156.524 195.032 148.245 188.533 143.245 181.204 C 134.972 169.076 129.236 146.636 136.393 129.568 C 136.954 128.224 139.753 125.581 140.166 123.516 C 140.981 119.451 138.633 114.045 138.487 109.721 C 137.736 87.536 142.241 68.422 157.176 61.731 C 163.239 37.579 184.939 29.548 205.383 17.545 C 213.025 13.059 221.45 10.192 230.15 6.99 C 261.361 -4.496 309.247 -2.333 335.151 17.257 C 346.134 25.565 363.691 43.105 369.971 55.805 C 386.557 89.332 385.379 145.364 373.778 186.148 C 372.218 191.623 369.956 199.672 366.798 206.25 C 364.596 210.843 357.752 220.033 358.583 224.088 C 359.439 228.28 374.188 239.479 377.351 242.529 C 383.046 248.023 393.865 255.315 394.741 262.247 C 395.683 269.625 391.49 279.718 389.366 286.837 C 382.266 310.595 375.337 332.557 367.286 353.738" fill-rule="evenodd" fill="rgb(35,31,32)"/><path d=" M 256.562 189.276 C 257.463 188.077 262.413 186.257 269.339 189.592 C 269.339 189.592 261.13 190.961 261.813 204.647 L 258.392 203.961 C 258.392 203.961 254.857 191.552 256.562 189.276" fill-rule="evenodd" fill="rgb(247,228,205)"/><path d=" M 316.541 306.912 C 316.541 308.989 314.856 310.673 312.777 310.673 C 310.7 310.673 309.015 308.989 309.015 306.912 C 309.015 304.835 310.7 303.148 312.777 303.148 C 314.856 303.148 316.541 304.835 316.541 306.912 Z " fill-rule="evenodd" fill="rgb(29,25,25)"/><path d=" M 320.303 324.356 C 320.303 326.433 318.618 328.117 316.539 328.117 C 314.462 328.117 312.777 326.433 312.777 324.356 C 312.777 322.279 314.462 320.592 316.539 320.592 C 318.618 320.592 320.303 322.279 320.303 324.356 Z " fill-rule="evenodd" fill="rgb(29,25,25)"/></g></g></svg>