<?xml version="1.0" encoding="UTF-8" standalone="no"?><!-- Generator: Gravit.io --><svg xmlns="http://www.w3.org/2000/svg" xmlns:xlink="http://www.w3.org/1999/xlink" style="isolation:isolate" viewBox="0 0 512 512" width="512pt" height="512pt"><defs><clipPath id="_clipPath_QbtAfpqsqoIMF1IxGbYnhxsUeRnSfWMz"><rect width="512" height="512"/></clipPath></defs><g clip-path="url(#_clipPath_QbtAfpqsqoIMF1IxGbYnhxsUeRnSfWMz)"><g><path d=" M 32.515 125.223 C -12.816 190.377 -7.173 275.143 27.456 344.371 C 28.279 346.031 29.142 347.664 29.992 349.298 C 30.536 350.333 31.047 351.395 31.612 352.418 C 31.931 353.028 32.289 353.626 32.621 354.21 C 33.212 355.312 33.816 356.361 34.427 357.437 C 35.502 359.336 36.604 361.221 37.733 363.107 C 38.357 364.142 38.974 365.178 39.618 366.214 C 40.866 368.232 42.148 370.223 43.456 372.215 C 44 373.065 44.531 373.915 45.089 374.738 C 46.895 377.433 48.74 380.115 50.645 382.758 C 50.693 382.826 50.745 382.904 50.804 382.97 C 51.104 383.394 51.435 383.806 51.741 384.231 C 53.387 386.502 55.087 388.746 56.806 390.963 C 57.437 391.773 58.074 392.583 58.711 393.393 C 60.245 395.318 61.805 397.23 63.392 399.142 C 63.983 399.859 64.58 400.576 65.178 401.28 C 67.309 403.789 69.48 406.285 71.697 408.728 C 71.738 408.766 71.79 408.821 71.83 408.861 C 71.923 408.967 72.002 409.034 72.082 409.14 C 74.246 411.503 76.463 413.813 78.708 416.124 C 79.405 416.841 80.115 417.558 80.832 418.262 C 82.571 420.014 84.337 421.74 86.123 423.453 C 86.847 424.144 87.564 424.847 88.288 425.511 C 90.671 427.755 93.081 429.959 95.537 432.111 C 95.578 432.149 95.61 432.179 95.65 432.204 C 96.068 432.576 96.5 432.921 96.911 433.279 C 99.076 435.151 101.28 437.01 103.497 438.843 C 104.4 439.573 105.316 440.29 106.226 441.02 C 108.038 442.468 109.87 443.902 111.716 445.309 C 112.692 446.053 113.668 446.796 114.65 447.54 C 116.689 449.04 118.74 450.514 120.811 451.961 C 121.568 452.506 122.298 453.037 123.055 453.555 C 123.267 453.701 123.46 453.847 123.672 453.993 C 125.638 455.347 127.649 456.648 129.654 457.95 C 130.517 458.521 131.374 459.118 132.244 459.676 C 135.324 461.628 138.451 463.553 141.611 465.412 C 142.467 465.904 143.337 466.381 144.2 466.872 C 146.524 468.214 148.861 469.528 151.231 470.816 C 152.512 471.506 153.827 472.157 155.121 472.821 C 156.794 473.697 158.454 474.587 160.153 475.437 C 160.538 475.623 160.937 475.809 161.315 475.994 C 161.999 476.326 162.689 476.645 163.373 476.99 C 166.009 478.251 168.665 479.486 171.347 480.681 C 171.918 480.934 172.469 481.186 173.033 481.438 C 176.107 482.779 179.207 484.067 182.334 485.302 C 183.084 485.607 183.841 485.9 184.598 486.192 C 187.493 487.307 190.427 488.409 193.375 489.445 C 193.747 489.577 194.105 489.697 194.477 489.829 C 197.71 490.958 200.977 492.007 204.263 493.029 C 205.046 493.255 205.836 493.507 206.626 493.733 C 209.972 494.742 213.279 495.95 216.731 496.588 C 435.961 536.567 499.642 364.843 499.642 364.843 C 446.158 434.522 351.222 452.899 261.273 432.439 C 257.867 431.669 254.561 430.607 251.235 429.624 C 250.391 429.372 249.562 429.12 248.732 428.867 C 245.485 427.872 242.265 426.823 239.066 425.721 C 238.627 425.562 238.183 425.402 237.738 425.243 C 234.87 424.233 232.035 423.171 229.213 422.082 C 228.417 421.764 227.62 421.458 226.823 421.14 C 223.73 419.918 220.656 418.643 217.622 417.316 C 216.998 417.05 216.4 416.771 215.783 416.506 C 213.174 415.324 210.591 414.129 208.022 412.894 C 207.278 412.536 206.535 412.19 205.778 411.819 C 203.76 410.834 201.764 409.785 199.774 408.762 C 198.441 408.061 197.087 407.397 195.765 406.663 C 193.334 405.363 190.947 404.009 188.57 402.627 C 187.765 402.176 186.95 401.741 186.139 401.273 C 182.979 399.413 179.858 397.488 176.768 395.535 C 175.915 394.992 175.082 394.41 174.239 393.849 C 171.999 392.403 169.769 390.929 167.572 389.417 C 166.843 388.922 166.141 388.395 165.423 387.905 C 163.302 386.404 161.203 384.887 159.12 383.348 C 158.174 382.646 157.244 381.939 156.325 381.237 C 154.416 379.774 152.518 378.3 150.636 376.789 C 149.786 376.111 148.936 375.434 148.1 374.757 C 145.71 372.792 143.346 370.813 141.016 368.782 C 140.771 368.57 140.505 368.357 140.239 368.132 C 137.717 365.914 135.24 363.644 132.791 361.36 C 132.08 360.683 131.39 360.019 130.693 359.342 C 128.88 357.616 127.094 355.876 125.342 354.097 C 124.638 353.393 123.934 352.703 123.244 351.999 C 121.013 349.715 118.822 347.405 116.678 345.055 C 116.572 344.935 116.459 344.829 116.353 344.71 C 114.082 342.227 111.865 339.691 109.694 337.128 C 109.103 336.425 108.532 335.747 107.948 335.057 C 106.328 333.105 104.721 331.127 103.154 329.135 C 102.567 328.417 101.98 327.683 101.398 326.943 C 99.51 324.496 97.667 322.054 95.861 319.574 C 45.922 251.455 27.982 157.503 67.896 80.346" fill="rgb(8,104,172)"/><path d=" M 173.231 70.331 C 140.448 117.507 142.227 180.658 167.8 230.552 C 172.089 238.917 176.908 247.03 182.299 254.758 C 187.212 261.795 192.656 270.174 199.175 275.83 C 201.539 278.432 204.008 280.968 206.531 283.464 C 207.168 284.115 207.819 284.739 208.47 285.377 C 210.919 287.753 213.409 290.09 215.985 292.361 C 216.091 292.44 216.184 292.546 216.29 292.627 C 216.317 292.654 216.344 292.665 216.363 292.695 C 219.211 295.191 222.151 297.594 225.139 299.957 C 225.804 300.462 226.461 300.993 227.131 301.511 C 230.125 303.808 233.179 306.065 236.313 308.216 C 236.406 308.284 236.485 308.349 236.578 308.415 C 237.959 309.371 239.367 310.261 240.768 311.177 C 241.438 311.615 242.075 312.08 242.753 312.492 C 244.99 313.926 247.254 315.32 249.557 316.661 C 249.883 316.86 250.201 317.033 250.52 317.218 C 252.505 318.36 254.517 319.489 256.535 320.578 C 257.239 320.976 257.956 321.321 258.673 321.693 C 260.067 322.423 261.461 323.167 262.882 323.87 C 263.094 323.977 263.314 324.07 263.519 324.163 C 266.407 325.584 269.321 326.951 272.296 328.253 C 272.933 328.532 273.59 328.783 274.234 329.049 C 276.611 330.058 279.014 331.041 281.431 331.97 C 282.453 332.355 283.489 332.727 284.511 333.099 C 286.702 333.909 288.899 334.653 291.117 335.396 C 292.119 335.715 293.102 336.047 294.104 336.352 C 297.258 337.335 300.371 338.569 303.658 339.114 C 472.924 367.156 512 236.835 512 236.835 C 476.774 287.57 408.558 311.774 335.762 292.88 C 332.529 292.03 329.342 291.101 326.175 290.105 C 325.206 289.813 324.257 289.495 323.294 289.176 C 321.043 288.445 318.806 287.675 316.589 286.865 C 315.573 286.493 314.557 286.122 313.561 285.737 C 311.131 284.807 308.728 283.838 306.345 282.829 C 305.694 282.55 305.037 282.298 304.4 282.006 C 301.412 280.704 298.471 279.337 295.57 277.903 C 294.076 277.173 292.609 276.402 291.142 275.646 C 290.292 275.208 289.436 274.769 288.586 274.331 C 286.7 273.309 284.828 272.246 282.982 271.171 C 282.545 270.919 282.086 270.679 281.641 270.414 C 279.351 269.073 277.094 267.692 274.856 266.271 C 274.166 265.833 273.502 265.355 272.811 264.904 C 271.337 263.948 269.864 262.979 268.416 261.996 C 265.296 259.845 262.262 257.588 259.268 255.304 C 258.578 254.759 257.887 254.228 257.21 253.684 C 225.345 228.525 200.088 194.147 188.08 155.163 C 175.495 114.733 178.209 69.348 200.012 32.517" fill="rgb(8,104,172)"/><path d=" M 291.58 29.318 C 272.254 57.759 270.355 93.081 283.766 124.494 C 297.907 157.835 326.886 183.992 360.706 196.392 C 362.1 196.911 363.494 197.375 364.908 197.853 C 365.526 198.039 366.137 198.252 366.761 198.437 C 368.752 199.061 370.731 199.791 372.789 200.176 C 466.251 218.234 491.601 152.216 498.35 142.5 C 476.143 174.473 438.824 182.147 393.037 171.034 C 389.42 170.153 385.444 168.848 381.958 167.613 C 377.488 166.02 373.083 164.203 368.802 162.147 C 360.672 158.242 352.922 153.5 345.737 148.072 C 304.763 116.985 279.31 57.677 306.046 9.377" fill="rgb(8,104,172)"/></g></g></svg>