<?xml version="1.0" encoding="UTF-8" standalone="no"?><!-- Generator: Gravit.io --><svg xmlns="http://www.w3.org/2000/svg" xmlns:xlink="http://www.w3.org/1999/xlink" style="isolation:isolate" viewBox="0 0 512 512" width="512pt" height="512pt"><defs><clipPath id="_clipPath_feBdFU5zCUjC02nwSxc4t6OM4StyiEAT"><rect width="512" height="512"/></clipPath></defs><g clip-path="url(#_clipPath_feBdFU5zCUjC02nwSxc4t6OM4StyiEAT)"><path d=" M 504.396 115.828 C 504.58 116.51 504.674 117.214 504.676 117.921 L 504.676 227.821 C 504.676 230.692 503.14 233.344 500.649 234.772 L 408.409 287.879 L 408.409 393.141 C 408.409 396.005 406.886 398.65 404.402 400.092 L 211.858 510.933 C 211.417 511.183 210.936 511.344 210.456 511.514 C 210.275 511.574 210.105 511.684 209.915 511.734 C 208.569 512.089 207.154 512.089 205.808 511.734 C 205.588 511.674 205.387 511.554 205.177 511.474 C 204.736 511.313 204.276 511.173 203.855 510.933 L 11.351 400.092 C 8.861 398.662 7.326 396.011 7.324 393.141 L 7.324 63.442 C 7.324 62.721 7.424 62.02 7.604 61.339 C 7.665 61.108 7.805 60.898 7.885 60.668 C 8.035 60.247 8.175 59.816 8.396 59.426 C 8.546 59.165 8.766 58.955 8.947 58.715 C 9.177 58.394 9.387 58.064 9.658 57.783 C 9.888 57.553 10.189 57.382 10.449 57.182 C 10.74 56.942 11 56.681 11.331 56.491 L 11.341 56.491 L 107.598 1.07 C 110.078 -0.357 113.13 -0.357 115.611 1.07 L 211.868 56.491 L 211.888 56.491 C 212.209 56.691 212.479 56.942 212.769 57.172 C 213.03 57.372 213.32 57.553 213.551 57.773 C 213.831 58.064 214.031 58.394 214.272 58.715 C 214.442 58.955 214.673 59.165 214.813 59.426 C 215.043 59.826 215.173 60.247 215.334 60.668 C 215.414 60.898 215.554 61.108 215.614 61.349 C 215.798 62.031 215.893 62.735 215.895 63.442 L 215.895 269.368 L 296.105 223.183 L 296.105 117.911 C 296.105 117.21 296.206 116.499 296.386 115.828 C 296.456 115.587 296.586 115.377 296.666 115.147 C 296.827 114.726 296.967 114.295 297.187 113.905 C 297.337 113.644 297.558 113.434 297.728 113.194 C 297.969 112.873 298.169 112.542 298.449 112.262 C 298.68 112.032 298.97 111.861 299.231 111.661 C 299.531 111.421 299.791 111.16 300.112 110.97 L 300.122 110.97 L 396.389 55.549 C 398.869 54.12 401.922 54.12 404.402 55.549 L 500.659 110.97 C 501 111.17 501.26 111.421 501.561 111.651 C 501.811 111.851 502.102 112.032 502.332 112.252 C 502.613 112.542 502.813 112.873 503.053 113.194 C 503.234 113.434 503.454 113.644 503.594 113.905 C 503.825 114.295 503.955 114.726 504.115 115.147 C 504.205 115.377 504.335 115.587 504.396 115.828 Z  M 488.63 223.183 L 488.63 131.794 L 454.945 151.186 L 408.409 177.979 L 408.409 269.368 L 488.64 223.183 L 488.63 223.183 Z  M 392.373 388.503 L 392.373 297.054 L 346.598 323.196 L 215.885 397.798 L 215.885 490.109 L 392.373 388.503 Z  M 23.37 77.315 L 23.37 388.503 L 199.838 490.099 L 199.838 397.808 L 107.648 345.633 L 107.618 345.613 L 107.578 345.593 C 107.267 345.413 107.007 345.152 106.716 344.932 C 106.466 344.732 106.175 344.571 105.955 344.351 L 105.935 344.321 C 105.675 344.07 105.494 343.76 105.274 343.479 C 105.074 343.209 104.833 342.979 104.673 342.698 L 104.663 342.668 C 104.483 342.368 104.372 342.007 104.242 341.667 C 104.112 341.366 103.942 341.086 103.862 340.765 L 103.862 340.755 C 103.761 340.374 103.741 339.974 103.701 339.583 C 103.661 339.283 103.581 338.982 103.581 338.682 L 103.581 338.662 L 103.581 123.5 L 57.055 96.697 L 23.37 77.325 L 23.37 77.315 Z  M 111.614 17.277 L 31.413 63.442 L 111.594 109.608 L 191.785 63.432 L 111.594 17.277 L 111.614 17.277 Z  M 153.322 305.387 L 199.848 278.604 L 199.848 77.315 L 166.163 96.707 L 119.627 123.5 L 119.627 324.789 L 153.322 305.387 Z  M 400.396 71.756 L 320.205 117.921 L 400.396 164.087 L 480.577 117.911 L 400.396 71.756 Z  M 392.373 177.979 L 345.837 151.186 L 312.152 131.794 L 312.152 223.183 L 358.678 249.967 L 392.373 269.368 L 392.373 177.979 Z  M 207.851 383.926 L 325.473 316.776 L 384.269 283.221 L 304.139 237.086 L 211.878 290.202 L 127.791 338.612 L 207.851 383.926 Z " fill-rule="evenodd" fill="rgb(255,45,32)"/></g></svg>