<?xml version="1.0" encoding="UTF-8" standalone="no"?><!-- Generator: Gravit.io --><svg xmlns="http://www.w3.org/2000/svg" xmlns:xlink="http://www.w3.org/1999/xlink" style="isolation:isolate" viewBox="0 0 512 512" width="512pt" height="512pt"><defs><clipPath id="_clipPath_nhJ68qCsOPAAmEqHI4OLFgr4LjOiTsHB"><rect width="512" height="512"/></clipPath></defs><g clip-path="url(#_clipPath_nhJ68qCsOPAAmEqHI4OLFgr4LjOiTsHB)"><g><path d=" M 0 25.712 L 47.728 25.712 L 47.728 342.453 L 236.471 342.453 L 236.471 381.503 L 0 381.503 L 0 25.712 Z  M 385.296 111.622 C 336.483 110.972 287.67 141.995 272.484 189.072 C 250.79 243.309 260.769 311.43 303.291 352.866 C 344.51 387.144 406.557 389.747 452.983 365.449 C 484.874 348.527 505.05 314.901 509.389 279.539 C 515.03 242.658 512.21 202.306 494.203 168.896 C 472.942 133.317 431.289 110.321 390.069 111.839 L 385.296 111.188 L 385.296 111.622 Z  M 389.635 149.371 C 425.431 149.371 457.539 176.706 463.397 211.851 C 474.244 251.553 467.736 300.149 435.194 328.135 C 404.821 352.866 356.008 349.395 331.06 318.806 C 300.687 286.264 300.687 236.366 316.307 197.316 C 327.155 169.113 356.008 148.937 386.381 149.588 L 390.286 149.588 L 389.635 149.371 Z " fill="rgb(0,0,0)"/><path d=" M 0 432.052 L 511.993 432.052 L 511.993 486.288 L 0 486.288 L 0 432.052 Z " fill="rgb(52,146,255)"/></g></g></svg>