<?xml version="1.0" encoding="UTF-8" standalone="no"?><!-- Generator: Gravit.io --><svg xmlns="http://www.w3.org/2000/svg" xmlns:xlink="http://www.w3.org/1999/xlink" style="isolation:isolate" viewBox="0 0 512 512" width="512pt" height="512pt"><defs><clipPath id="_clipPath_5GFIhO4ShCbtKjwbJZ2610Zr7s1uX8T7"><rect width="512" height="512"/></clipPath></defs><g clip-path="url(#_clipPath_5GFIhO4ShCbtKjwbJZ2610Zr7s1uX8T7)"><g><path d=" M 92.476 274.421 C 80.974 333.771 69.012 384.84 57.05 384.84 C 55.67 383 47.388 384.84 39.567 338.832 C 32.666 296.505 20.244 269.82 0 264.759 L 74.993 264.759 C 82.354 264.759 87.415 267.98 92.476 274.421 Z " fill="rgb(246,162,173)"/><path d=" M 133.814 385.283 L 56.139 385.283 C 68.529 385.283 80.919 334.214 92.832 274.863 C 101.41 286.365 108.081 308.449 117.135 345.716 C 125.713 382.982 119.994 385.283 133.814 385.283 Z " fill="rgb(235,112,119)"/><path d=" M 177.41 237.597 C 176.461 243.578 175.037 249.559 174.087 256 C 156.522 348.936 146.078 382.982 133.734 385.743 C 119.967 385.743 125.189 383.442 116.644 346.176 C 108.099 308.909 101.452 286.825 92.432 275.323 C 93.856 268.882 94.806 262.441 96.23 256 C 114.27 162.604 124.714 129.018 136.583 126.257 L 140.855 126.257 C 153.673 126.257 166.491 181.467 177.41 237.597 Z " fill="rgb(235,112,119)"/><path d=" M 140.715 126.257 L 212.375 126.257 C 200.277 126.257 188.178 177.786 176.545 237.597 C 165.842 181.467 153.279 126.257 140.715 126.257 Z " fill="rgb(235,112,119)"/><path d=" M 256.195 263.821 C 244.233 328.233 231.351 385.743 218.929 385.743 C 204.666 382.522 193.164 328.233 177.981 245.418 C 177.521 242.658 177.061 240.357 176.601 237.597 C 187.643 177.786 199.605 126.257 211.567 126.257 L 215.708 126.257 C 229.97 129.478 241.012 182.387 256.195 263.821 Z " fill="rgb(246,162,173)"/><path d=" M 293.462 385.283 L 218.468 385.283 C 231.351 385.283 244.233 327.773 255.735 263.361 C 255.735 264.281 256.195 265.202 256.195 266.122 C 267.237 325.472 280.579 385.283 293.462 385.283 Z " fill="rgb(235,112,119)"/><path d=" M 336.301 237.597 C 335.37 243.578 333.973 249.559 333.042 256 C 315.814 348.936 305.571 382.982 293.464 385.743 C 279.962 385.743 266.924 325.472 256.215 266.582 C 256.215 265.662 255.749 264.742 255.749 263.821 C 256.215 261.061 256.681 258.76 257.146 256 C 274.374 162.604 284.618 129.018 296.258 126.257 L 300.449 126.257 C 313.02 126.257 325.592 181.467 336.301 237.597 Z " fill="rgb(235,112,119)"/><path d=" M 300.363 126.257 L 371.709 126.257 C 359.663 126.257 347.155 177.786 336.036 237.597 C 325.38 181.467 312.872 126.257 300.363 126.257 Z " fill="rgb(235,112,119)"/><path d=" M 418.604 279.924 C 413.083 290.046 409.402 306.149 406.181 327.773 C 400.66 359.978 391.459 385.283 378.116 385.283 C 363.854 382.062 352.352 327.773 337.169 244.958 C 336.709 242.198 336.249 239.897 335.789 237.137 C 347.291 177.786 359.253 126.257 371.215 126.257 L 375.356 126.257 C 389.619 129.478 401.121 183.767 416.303 266.582 C 417.223 270.723 417.683 275.323 418.604 279.924 Z " fill="rgb(246,162,173)"/><path d=" M 435.938 265.202 L 512 265.202 C 485.402 273.943 477.002 291.426 472.336 341.115 C 469.069 376.541 452.737 385.743 452.737 385.743 C 440.604 385.743 428.471 334.674 417.739 280.384 C 421.938 271.183 427.538 266.582 435.938 265.202 Z " fill="rgb(235,112,119)"/><path d=" M 453.11 385.283 L 377.463 385.283 C 390.921 385.283 400.203 359.978 405.772 327.773 C 409.485 306.149 413.198 290.506 418.303 279.924 C 428.977 334.214 441.043 385.283 453.11 385.283 Z " fill="rgb(235,112,119)"/></g></g></svg>