<?xml version="1.0" encoding="UTF-8" standalone="no"?><!-- Generator: Gravit.io --><svg xmlns="http://www.w3.org/2000/svg" xmlns:xlink="http://www.w3.org/1999/xlink" style="isolation:isolate" viewBox="0 0 512 512" width="512pt" height="512pt"><defs><clipPath id="_clipPath_ufqDVSkCdf7FOs5oDQDaQVAl3LSjklKU"><rect width="512" height="512"/></clipPath></defs><g clip-path="url(#_clipPath_ufqDVSkCdf7FOs5oDQDaQVAl3LSjklKU)"><g><clipPath id="_clipPath_avf0gEIu9j2R1ULEZOqgLVzB7shD9Z90"><path d=" M 267.731 512 L 253.998 507.454 C 253.998 507.454 255.749 437.947 230.682 433.08 C 214.152 413.927 233.226 -385.056 293.276 430.343 C 293.276 430.343 272.723 440.663 268.832 458.189 C 264.943 475.726 267.731 512 267.731 512 L 267.731 512 Z " fill="rgb(255,255,255)"/></clipPath><g clip-path="url(#_clipPath_avf0gEIu9j2R1ULEZOqgLVzB7shD9Z90)"><g><linearGradient id="_lgradient_6" x1="-0.7044310541822603" y1="0.5604544551187868" x2="1.4889455406144145" y2="-0.17956192163517792" gradientTransform="matrix(68.284,0,0,-447.628,224.992,512)" gradientUnits="userSpaceOnUse"><stop offset="0%" stop-opacity="1" style="stop-color:rgb(146,150,105)"/><stop offset="23.076900000000002%" stop-opacity="1" style="stop-color:rgb(146,150,105)"/><stop offset="100%" stop-opacity="1" style="stop-color:rgb(253,252,241)"/></linearGradient><path d=" M 267.731 512 L 253.998 507.454 C 253.998 507.454 255.749 437.947 230.682 433.08 C 214.152 413.927 233.226 -385.056 293.276 430.343 C 293.276 430.343 272.723 440.663 268.832 458.189 C 264.943 475.726 267.731 512 267.731 512" fill="url(#_lgradient_6)"/></g></g><clipPath id="_clipPath_Ap4aeOuZKD7mQvqLl1EgaFaNFjCsZmy0"><path d=" M 275.135 444.88 C 275.135 444.88 394.468 366.284 366.511 203.057 C 339.587 84.469 276.021 45.484 269.19 30.601 C 261.67 20.067 254.096 1.398 254.096 1.398 L 259.172 331.819 C 259.172 331.819 248.673 432.71 275.135 444.88 L 275.135 444.88 Z " fill="rgb(255,255,255)"/></clipPath><g clip-path="url(#_clipPath_Ap4aeOuZKD7mQvqLl1EgaFaNFjCsZmy0)"><g><linearGradient id="_lgradient_7" x1="-0.16607355677430746" y1="0.9929924291361978" x2="0.17177110589820288" y2="-0.3185269785966238" gradientTransform="matrix(116.658,0,0,-443.482,254.096,444.88)" gradientUnits="userSpaceOnUse"><stop offset="0%" stop-opacity="1" style="stop-color:rgb(69,170,58)"/><stop offset="100%" stop-opacity="1" style="stop-color:rgb(61,148,57)"/></linearGradient><path d=" M 275.135 444.88 C 275.135 444.88 394.468 366.284 366.511 203.057 C 339.587 84.469 276.021 45.484 269.19 30.601 C 261.67 20.067 254.096 1.398 254.096 1.398 L 259.172 331.819 C 259.172 331.819 248.673 432.71 275.135 444.88" fill="url(#_lgradient_7)"/></g></g><clipPath id="_clipPath_ISU6c47r96HzppZkM0R0qr3NElJLKpTX"><path d=" M 247.011 449.272 C 247.011 449.272 135.073 372.909 141.513 238.174 C 147.956 103.435 227.017 37.187 242.415 25.169 C 252.37 14.558 252.782 10.469 253.552 0 C 260.529 14.989 259.369 223.877 260.109 248.292 C 262.977 343.335 254.845 431.331 247.011 449.272 L 247.011 449.272 Z " fill="rgb(255,255,255)"/></clipPath><g clip-path="url(#_clipPath_ISU6c47r96HzppZkM0R0qr3NElJLKpTX)"><g><linearGradient id="_lgradient_8" x1="-0.09624445613510955" y1="0.4390439490816268" x2="1.4860672995181115" y2="0.7985609845274804" gradientTransform="matrix(119.452,0,0,-449.272,141.246,449.272)" gradientUnits="userSpaceOnUse"><stop offset="0%" stop-opacity="1" style="stop-color:rgb(65,168,59)"/><stop offset="100%" stop-opacity="1" style="stop-color:rgb(94,188,68)"/></linearGradient><path d=" M 247.011 449.272 C 247.011 449.272 135.073 372.909 141.513 238.174 C 147.956 103.435 227.017 37.187 242.415 25.169 C 252.37 14.558 252.782 10.469 253.552 0 C 260.529 14.989 259.369 223.877 260.109 248.292 C 262.977 343.335 254.845 431.331 247.011 449.272" fill="url(#_lgradient_8)"/></g></g></g></g></svg>