<?xml version="1.0" encoding="UTF-8" standalone="no"?><!-- Generator: Gravit.io --><svg xmlns="http://www.w3.org/2000/svg" xmlns:xlink="http://www.w3.org/1999/xlink" style="isolation:isolate" viewBox="0 0 115.119 115.1" width="115.119pt" height="115.1pt"><defs><clipPath id="_clipPath_2ZNFdlj6q4qLuCWXENU34CssukvSLH8U"><rect width="115.119" height="115.1"/></clipPath></defs><g clip-path="url(#_clipPath_2ZNFdlj6q4qLuCWXENU34CssukvSLH8U)"><g><mask id="_mask_mhsrtPr9gdnylyj488nPrcuEDEFrUhr0" x="-200%" y="-200%" width="400%" height="400%"><rect x="-200%" y="-200%" width="400%" height="400%" style="fill:white;"/><path d=" M 2.522 67.097 L 2.522 48.033 L 21.585 67.097 L 21.585 48.033" fill="black" stroke="none"/></mask><path d=" M 2.522 67.097 L 2.522 48.033 L 21.585 67.097 L 21.585 48.033" fill="none"/><path d=" M 2.522 67.097 L 2.522 48.033 L 21.585 67.097 L 21.585 48.033" fill="none" mask="url(#_mask_mhsrtPr9gdnylyj488nPrcuEDEFrUhr0)" vector-effect="non-scaling-stroke" stroke-width="10" stroke="rgb(0,153,0)" stroke-linejoin="round" stroke-linecap="round" stroke-miterlimit="4"/><path d=" M 33.162 45.557 L 32.474 46.839 L 27.162 56.495 L 26.474 57.714 L 27.162 58.932 L 32.474 68.276 L 33.193 69.557 L 34.662 69.557 L 45.537 69.557 L 47.099 69.557 L 47.787 68.151 L 51.756 60.151 L 53.537 56.526 L 49.506 56.526 L 39.349 56.557 C 38.029 56.539 36.814 57.736 36.814 59.057 C 36.814 60.378 38.029 61.576 39.349 61.557 L 45.474 61.526 L 43.974 64.557 L 36.099 64.557 L 32.193 57.682 L 36.131 50.557 L 44.508 50.557 L 46.461 54.565 L 51.492 54.565 L 48.32 46.964 L 47.633 45.557 L 46.07 45.557 L 34.662 45.557 L 33.162 45.557 Z " fill="rgb(0,153,0)"/><path d=" M 58.488 45.526 C 57.179 45.542 56.003 46.748 56.019 48.057 L 56.019 54.572 L 61.019 54.572 L 61.019 48.057 C 61.036 46.728 59.818 45.509 58.488 45.526 Z " fill="rgb(0,153,0)"/><mask id="_mask_jzmAUoDofQiK5cuAD3PXoioEMBIaY0ur" x="-200%" y="-200%" width="400%" height="400%"><rect x="-200%" y="-200%" width="400%" height="400%" style="fill:white;"/><path d=" M 85.565 67.146 L 85.565 48.081 L 66.503 67.146 L 66.503 48.081" fill="black" stroke="none"/></mask><path d=" M 85.565 67.146 L 85.565 48.081 L 66.503 67.146 L 66.503 48.081" fill="none"/><path d=" M 85.565 67.146 L 85.565 48.081 L 66.503 67.146 L 66.503 48.081" fill="none" mask="url(#_mask_jzmAUoDofQiK5cuAD3PXoioEMBIaY0ur)" vector-effect="non-scaling-stroke" stroke-width="10" stroke="rgb(0,153,0)" stroke-linejoin="round" stroke-linecap="round" stroke-miterlimit="4"/><mask id="_mask_TAZub3b1v3zPMS8JmfXp2QQinJTMi3mv" x="-200%" y="-200%" width="400%" height="400%"><rect x="-200%" y="-200%" width="400%" height="400%" style="fill:white;"/><line x1="93.489" y1="48.074" x2="112.574" y2="67.092" fill="black" stroke="none"/></mask><line x1="93.489" y1="48.074" x2="112.574" y2="67.092" mask="url(#_mask_TAZub3b1v3zPMS8JmfXp2QQinJTMi3mv)" vector-effect="non-scaling-stroke" stroke-width="10" stroke="rgb(0,153,0)" stroke-linejoin="round" stroke-linecap="round" stroke-miterlimit="4"/><mask id="_mask_1SoQq8Xrs5TTQHexbchoSlrZPyzGaXqN" x="-200%" y="-200%" width="400%" height="400%"><rect x="-200%" y="-200%" width="400%" height="400%" style="fill:white;"/><line x1="112.597" y1="48.074" x2="93.512" y2="67.092" fill="black" stroke="none"/></mask><line x1="112.597" y1="48.074" x2="93.512" y2="67.092" mask="url(#_mask_1SoQq8Xrs5TTQHexbchoSlrZPyzGaXqN)" vector-effect="non-scaling-stroke" stroke-width="10" stroke="rgb(0,153,0)" stroke-linejoin="round" stroke-linecap="round" stroke-miterlimit="4"/><path d=" M 58.488 69.574 C 57.179 69.558 56.003 68.352 56.019 67.043 L 56.019 56.578 L 61.019 56.578 L 61.019 67.043 C 61.036 68.372 59.818 69.591 58.488 69.574 Z " fill="rgb(0,153,0)"/></g></g></svg>