<?xml version="1.0" encoding="UTF-8" standalone="no"?><!-- Generator: Gravit.io --><svg xmlns="http://www.w3.org/2000/svg" xmlns:xlink="http://www.w3.org/1999/xlink" style="isolation:isolate" viewBox="0 0 512 512" width="512pt" height="512pt"><defs><clipPath id="_clipPath_wPL4k3W7pxttwPFceorMWfK8rwrw4jsC"><rect width="512" height="512"/></clipPath></defs><g clip-path="url(#_clipPath_wPL4k3W7pxttwPFceorMWfK8rwrw4jsC)"><g><path d=" M 255.944 512 C 249.084 512 242.272 510.213 236.274 506.735 L 173.625 469.676 C 164.277 464.443 168.839 462.593 171.918 461.508 C 184.394 457.185 186.93 456.18 200.235 448.618 C 201.623 447.836 203.458 448.139 204.894 448.969 L 253.025 477.541 C 254.764 478.514 257.236 478.514 258.832 477.541 L 446.458 369.25 C 448.197 368.245 449.33 366.251 449.33 364.177 L 449.33 147.659 C 449.33 145.538 448.213 143.559 446.41 142.491 L 258.864 34.296 C 257.141 33.29 254.827 33.29 253.089 34.296 L 65.59 142.522 C 63.771 143.559 62.623 145.601 62.623 147.659 L 62.623 364.177 C 62.623 366.251 63.771 368.213 65.574 369.186 L 116.975 398.875 C 144.862 412.819 161.932 396.403 161.932 379.907 L 161.932 166.133 C 161.932 163.118 164.356 160.725 167.388 160.725 L 191.174 160.725 C 194.141 160.725 196.614 163.102 196.614 166.133 L 196.614 379.907 C 196.614 417.126 176.353 438.471 141.065 438.471 C 130.217 438.471 121.682 438.471 97.847 426.73 L 48.647 398.413 C 36.491 391.393 28.977 378.248 28.977 364.177 L 28.977 147.659 C 28.977 133.589 36.507 120.459 48.647 113.456 L 236.274 5.037 C 248.143 -1.679 263.921 -1.679 275.71 5.037 L 463.321 113.456 C 475.477 120.475 483.023 133.589 483.023 147.659 L 483.023 364.177 C 483.023 378.248 475.461 391.33 463.321 398.413 L 275.71 506.735 C 269.696 510.213 262.9 512 255.944 512 Z " fill="rgb(108,194,74)"/><path d=" M 313.902 362.837 C 231.807 362.837 214.593 325.155 214.593 293.536 C 214.593 290.537 217.002 288.128 220.017 288.128 L 244.266 288.128 C 246.978 288.128 249.228 290.074 249.659 292.722 C 253.312 317.418 264.24 329.878 313.886 329.878 C 353.419 329.878 370.233 320.928 370.233 299.965 C 370.233 287.873 365.463 278.907 304.043 272.893 C 252.706 267.819 220.959 256.477 220.959 215.397 C 220.959 177.54 252.865 154.966 306.372 154.966 C 366.484 154.966 396.221 175.833 399.986 220.582 C 400.13 222.129 399.587 223.597 398.55 224.762 C 397.529 225.83 396.094 226.484 394.578 226.484 L 370.233 226.484 C 367.713 226.484 365.479 224.698 364.969 222.241 C 359.13 196.253 344.916 187.957 306.372 187.957 C 263.219 187.957 258.194 202.985 258.194 214.248 C 258.194 227.888 264.112 231.861 322.374 239.582 C 380.029 247.208 407.42 257.992 407.42 298.513 C 407.436 339.418 373.36 362.837 313.902 362.837 Z " fill="rgb(108,194,74)"/></g></g></svg>