<?xml version="1.0" encoding="UTF-8" standalone="no"?><!-- Generator: Gravit.io --><svg xmlns="http://www.w3.org/2000/svg" xmlns:xlink="http://www.w3.org/1999/xlink" style="isolation:isolate" viewBox="0 0 512 512" width="512pt" height="512pt"><defs><clipPath id="_clipPath_7xhEntsnkBnzrekVGg4esxfLst8v53Za"><rect width="512" height="512"/></clipPath></defs><g clip-path="url(#_clipPath_7xhEntsnkBnzrekVGg4esxfLst8v53Za)"><g><path d=" M 0 156.444 L 512 156.444 L 512 327.111 L 256 327.111 L 256 355.556 L 142.222 355.556 L 142.222 327.111 L 0 327.111 L 0 156.444 Z  M 28.444 298.667 L 85.333 298.667 L 85.333 213.333 L 113.778 213.333 L 113.778 298.667 L 142.222 298.667 L 142.222 184.889 L 28.444 184.889 L 28.444 298.667 Z  M 170.667 184.889 L 170.667 327.111 L 227.556 327.111 L 227.556 298.667 L 284.444 298.667 L 284.444 184.889 L 170.667 184.889 Z  M 227.556 213.333 L 256 213.333 L 256 270.222 L 227.556 270.222 L 227.556 213.333 Z  M 312.889 184.889 L 312.889 298.667 L 369.778 298.667 L 369.778 213.333 L 398.222 213.333 L 398.222 298.667 L 426.667 298.667 L 426.667 213.333 L 455.111 213.333 L 455.111 298.667 L 483.556 298.667 L 483.556 184.889 L 312.889 184.889 Z " fill="rgb(203,56,55)"/><path d=" M 28.444 298.667 L 85.333 298.667 L 85.333 213.333 L 113.778 213.333 L 113.778 298.667 L 142.222 298.667 L 142.222 184.889 L 28.444 184.889 L 28.444 298.667 Z " fill="rgb(255,255,255)"/><path d=" M 170.667 184.889 L 170.667 327.111 L 227.556 327.111 L 227.556 298.667 L 284.444 298.667 L 284.444 184.889 L 170.667 184.889 Z  M 256 270.222 L 227.556 270.222 L 227.556 213.333 L 256 213.333 L 256 270.222 Z " fill="rgb(255,255,255)"/><path d=" M 312.889 184.889 L 312.889 298.667 L 369.778 298.667 L 369.778 213.333 L 398.222 213.333 L 398.222 298.667 L 426.667 298.667 L 426.667 213.333 L 455.111 213.333 L 455.111 298.667 L 483.556 298.667 L 483.556 184.889 L 312.889 184.889 Z " fill="rgb(255,255,255)"/></g></g></svg>