<?xml version="1.0" encoding="UTF-8" standalone="no"?><!-- Generator: Gravit.io --><svg xmlns="http://www.w3.org/2000/svg" xmlns:xlink="http://www.w3.org/1999/xlink" style="isolation:isolate" viewBox="0 0 512 512" width="512pt" height="512pt"><defs><clipPath id="_clipPath_at9pK3AbavNP0RkmWldwxCwc1SwrqVDU"><rect width="512" height="512"/></clipPath></defs><g clip-path="url(#_clipPath_at9pK3AbavNP0RkmWldwxCwc1SwrqVDU)"><path d=" M 364.494 0 C 344.6 0.148 324.822 3.041 305.72 8.597 L 304.376 9.024 C 292.327 6.895 280.129 5.718 267.896 5.504 C 242.765 5.077 221.175 11.179 203.767 21.334 C 186.615 15.381 151.031 5.12 113.526 7.168 C 87.414 8.597 58.912 16.533 37.792 38.827 C 16.736 61.121 5.6 95.617 7.947 142.551 C 8.587 155.5 12.277 176.62 18.4 203.97 C 24.523 231.319 33.12 263.341 43.851 292.547 C 54.582 321.774 66.336 348.014 84.705 365.849 C 93.878 374.787 106.508 382.297 121.398 381.678 C 131.852 381.251 141.303 376.665 149.452 369.902 C 153.42 375.129 157.665 377.411 161.527 379.523 C 166.391 382.19 171.127 384.003 176.033 385.198 C 184.844 387.395 199.927 390.34 217.591 387.331 C 223.607 386.329 229.943 384.366 236.258 381.571 C 236.493 388.612 236.77 395.502 237.047 402.478 C 237.922 424.58 238.477 444.996 245.111 462.895 C 246.178 465.818 249.101 480.879 260.621 494.17 C 272.141 507.482 294.712 515.781 320.419 510.277 C 338.552 506.394 361.614 499.397 376.931 477.594 C 392.078 456.047 398.905 425.134 400.249 375.001 C 400.59 372.291 400.996 369.987 401.422 367.833 L 405.028 368.153 L 405.454 368.153 C 424.804 369.027 445.796 366.275 463.332 358.126 C 478.863 350.936 490.618 343.662 499.172 330.755 C 501.306 327.555 503.652 323.694 504.292 317.038 C 504.932 310.381 501.114 299.971 494.778 295.171 C 482.084 285.528 474.106 289.197 465.551 290.968 C 457.124 292.831 448.536 293.874 439.908 294.083 C 464.569 252.546 482.255 208.429 492.346 169.388 C 498.319 146.348 501.668 125.1 501.946 106.518 C 502.223 87.937 500.708 71.489 489.572 57.259 C 454.777 12.8 405.86 0.512 368.014 0.085 C 366.841 0.064 365.667 0.043 364.494 0.064 L 364.494 0 Z  M 363.491 13.653 C 399.289 13.312 445.028 23.36 477.86 65.323 C 485.242 74.753 487.439 88.534 487.183 105.516 C 486.906 122.476 483.77 142.785 478.031 165.036 C 466.895 208.13 445.86 258.37 416.228 303.448 C 417.274 304.192 418.406 304.808 419.598 305.283 C 425.785 307.843 439.887 310.04 468.025 304.259 C 475.108 302.765 480.292 301.763 485.668 305.859 C 488.317 308.104 489.761 311.459 489.572 314.926 C 489.285 317.515 488.329 319.985 486.799 322.094 C 481.359 330.264 470.628 338.008 456.868 344.387 C 444.687 350.062 427.214 353.027 411.726 353.198 C 403.961 353.283 396.793 352.686 390.713 350.787 L 390.329 350.638 C 387.982 373.251 382.585 417.902 379.065 438.276 C 376.249 454.703 371.321 467.759 361.912 477.53 C 352.526 487.3 339.235 493.188 321.357 497.028 C 299.213 501.786 283.064 496.666 272.653 487.898 C 262.264 479.151 257.506 467.546 254.648 460.441 C 252.685 455.535 251.661 449.177 250.679 440.687 C 249.698 432.196 248.973 421.806 248.482 410.094 C 247.829 392.161 247.615 374.214 247.842 356.27 C 238.592 364.742 227.097 370.371 214.733 372.483 C 200.034 374.979 186.914 372.526 179.084 370.563 C 175.225 369.594 171.499 368.154 167.991 366.275 C 164.364 364.334 160.908 362.137 158.604 357.806 C 157.25 355.326 156.819 352.446 157.388 349.678 C 158.109 346.872 159.746 344.387 162.039 342.616 C 166.263 339.182 171.852 337.262 180.279 335.512 C 195.618 332.355 200.972 330.2 204.236 327.619 C 207.01 325.4 210.146 320.92 215.693 314.349 C 215.666 314.058 215.645 313.767 215.629 313.475 C 205.702 313.196 195.981 310.579 187.255 305.837 C 184.055 309.208 167.713 326.488 147.788 350.467 C 139.404 360.494 130.145 366.254 120.374 366.659 C 110.604 367.086 101.771 362.158 94.262 354.883 C 79.265 340.312 67.297 315.246 56.864 286.915 C 46.454 258.584 37.984 227.031 31.968 200.151 C 25.931 173.271 22.368 151.596 21.856 141.143 C 19.616 96.726 30.006 66.795 47.819 47.915 C 65.654 29.035 90.102 21.888 113.932 20.523 C 156.705 18.069 197.324 32.982 205.538 36.182 C 221.367 25.43 241.762 18.731 267.234 19.158 C 279.327 19.327 291.36 20.888 303.096 23.808 L 303.523 23.616 C 308.688 21.8 313.952 20.276 319.288 19.051 C 333.778 15.671 348.592 13.875 363.47 13.696 L 363.491 13.653 Z  M 366.734 27.947 L 363.619 27.947 C 351.397 28.117 339.221 29.489 327.267 32.043 C 353.848 43.819 373.923 61.953 388.067 80.043 C 397.893 92.569 406.013 106.343 412.217 121.004 C 414.564 126.636 416.142 131.393 417.038 135.084 C 417.486 136.94 417.785 138.497 417.892 140.119 C 417.934 140.929 417.977 141.761 417.636 143.191 C 417.636 143.255 417.529 143.404 417.508 143.468 C 418.148 162.156 413.518 174.828 412.964 192.663 C 412.537 205.591 415.844 220.781 416.654 237.357 C 417.422 252.93 415.545 270.04 405.433 286.829 C 406.286 287.853 407.054 288.877 407.865 289.901 C 434.617 247.768 453.903 201.154 464.185 161.409 C 469.689 140.012 472.612 120.62 472.868 105.26 C 473.081 89.899 470.223 78.763 466.575 74.113 C 437.945 37.504 399.203 28.182 366.734 27.926 L 366.734 27.947 Z  M 264.546 33.408 C 239.33 33.472 221.239 41.088 207.522 52.502 C 193.378 64.299 183.884 80.449 177.655 96.982 C 170.252 116.609 167.713 135.596 166.711 148.481 L 166.988 148.311 C 174.604 144.044 184.61 139.777 195.319 137.303 C 206.028 134.849 217.57 134.081 228.023 138.135 C 238.477 142.188 247.117 151.724 250.253 166.188 C 265.272 235.671 245.581 261.506 238.327 281.005 C 235.576 288.073 233.218 295.287 231.266 302.616 C 232.183 302.403 233.101 302.147 234.018 302.061 C 239.138 301.635 243.149 303.341 245.538 304.365 C 252.834 307.395 257.848 313.752 260.557 321.006 C 261.261 322.904 261.773 324.952 262.072 327.064 C 262.387 327.932 262.532 328.851 262.498 329.774 C 261.689 356.351 261.782 382.948 262.776 409.518 C 263.266 420.996 263.992 431.108 264.909 439.087 C 265.826 447.044 267.128 453.103 267.96 455.151 C 270.69 461.977 274.68 470.916 281.89 476.996 C 289.101 483.055 299.448 487.108 318.349 483.055 C 334.734 479.535 344.846 474.65 351.608 467.631 C 358.35 460.612 362.382 450.841 364.963 435.887 C 368.825 413.486 376.59 348.526 377.529 336.302 C 377.102 327.086 378.467 320.003 381.411 314.606 C 384.441 309.059 389.134 305.667 393.187 303.832 C 395.214 302.915 397.113 302.296 398.67 301.848 C 397.021 299.479 395.292 297.166 393.486 294.915 C 387.642 287.827 382.856 279.93 379.278 271.469 C 377.564 267.975 375.736 264.539 373.795 261.165 C 370.958 256.045 367.374 249.645 363.619 242.456 C 356.11 228.055 347.939 210.605 343.694 193.602 C 339.47 176.62 338.851 159.041 349.688 146.647 C 359.288 135.639 376.142 131.073 401.444 133.633 C 400.697 131.393 400.249 129.537 398.99 126.55 C 393.27 113.087 385.803 100.434 376.782 88.918 C 355.342 61.505 320.632 34.326 267 33.451 L 264.546 33.451 L 264.546 33.408 Z  M 122.849 34.518 C 120.14 34.518 117.43 34.603 114.742 34.752 C 93.195 35.99 72.822 42.24 58.251 57.686 C 43.659 73.131 34.059 98.454 36.15 140.375 C 36.555 148.311 40.011 170.54 45.942 196.951 C 51.851 223.362 60.235 254.445 70.305 281.901 C 80.395 309.357 92.619 333.251 104.225 344.558 C 110.07 350.211 115.148 352.494 119.756 352.302 C 124.385 352.089 129.953 349.422 136.758 341.251 C 149.166 326.284 162.044 311.713 175.372 297.56 C 156.154 280.873 146.768 255.54 150.476 230.359 C 152.673 214.594 152.972 199.852 152.716 188.204 C 152.46 176.855 151.649 169.303 151.649 164.588 C 151.645 164.453 151.645 164.318 151.649 164.183 L 151.649 164.076 L 151.628 163.948 L 151.628 163.927 C 151.615 139.368 155.889 114.994 164.257 91.905 C 170.231 76.033 179.127 59.905 192.46 46.848 C 179.362 42.539 156.108 35.968 130.934 34.731 C 128.234 34.592 125.531 34.521 122.828 34.518 L 122.849 34.518 Z  M 387.342 147.201 C 372.857 147.393 364.729 151.127 360.462 156.012 C 354.424 162.945 353.848 175.106 357.603 190.082 C 361.336 205.079 369.059 221.847 376.313 235.778 C 379.939 242.754 383.459 249.026 386.297 254.125 C 389.155 259.245 391.246 262.872 392.526 265.965 C 393.699 268.824 395.001 271.341 396.323 273.688 C 401.934 261.848 402.937 250.221 402.361 238.103 C 401.614 223.106 398.137 207.767 398.649 192.236 C 399.225 174.082 402.809 162.263 403.129 148.225 C 397.894 147.547 392.621 147.205 387.342 147.201 L 387.342 147.201 Z  M 211.682 149.655 C 207.257 149.696 202.849 150.225 198.54 151.233 C 189.952 153.32 181.68 156.541 173.943 160.812 C 171.326 162.216 168.834 163.843 166.497 165.676 L 166.028 166.103 C 166.156 169.218 166.775 176.77 167.031 187.884 C 167.287 200.044 166.988 215.554 164.641 232.343 C 159.543 268.824 186.018 299.032 217.122 299.075 C 218.935 291.587 221.922 283.992 224.909 275.992 C 233.57 252.653 250.615 235.629 236.258 169.196 C 233.911 158.316 229.261 153.921 222.861 151.447 C 219.273 150.178 215.486 149.571 211.682 149.655 Z  M 380.579 154.007 L 381.646 154.007 C 383.054 154.049 384.355 154.199 385.486 154.476 C 386.638 154.732 387.619 155.116 388.43 155.649 C 389.271 156.17 389.853 157.023 390.03 157.996 L 390.009 158.167 L 390.03 158.167 L 390.009 158.167 C 390.05 159.18 389.791 160.182 389.262 161.047 C 388.633 162.218 387.843 163.295 386.915 164.247 C 384.751 166.63 381.853 168.222 378.681 168.77 C 375.594 169.143 372.478 168.36 369.934 166.572 C 368.893 165.872 367.958 165.024 367.161 164.055 C 366.47 163.294 366.005 162.356 365.817 161.345 C 365.726 160.351 366.051 159.363 366.713 158.615 C 367.413 157.819 368.26 157.167 369.209 156.695 C 371.257 155.543 374.03 154.689 377.166 154.22 C 378.339 154.049 379.491 153.964 380.579 153.943 L 380.579 154.007 Z  M 213.751 157.591 C 214.882 157.591 216.077 157.697 217.293 157.868 C 220.557 158.316 223.458 159.191 225.677 160.471 C 226.759 161.036 227.722 161.803 228.514 162.732 C 229.386 163.728 229.803 165.042 229.666 166.359 C 229.461 167.585 228.905 168.726 228.066 169.644 C 227.193 170.716 226.165 171.651 225.015 172.418 C 222.241 174.383 218.833 175.243 215.458 174.828 C 212.009 174.261 208.852 172.548 206.498 169.964 C 205.496 168.924 204.648 167.746 203.98 166.466 C 203.277 165.339 202.969 164.01 203.106 162.689 C 203.426 160.385 205.324 159.191 207.18 158.529 C 209.295 157.854 211.513 157.565 213.73 157.676 L 213.751 157.591 Z  M 407.033 314.243 L 406.969 314.264 C 403.833 315.395 401.252 315.864 399.075 316.824 C 396.875 317.671 395.061 319.296 393.977 321.39 C 392.633 323.843 391.481 328.195 391.822 335.598 C 392.787 336.262 393.853 336.767 394.979 337.091 C 398.627 338.2 404.75 338.926 411.577 338.819 C 425.188 338.67 441.935 335.491 450.831 331.352 C 458.129 327.962 464.903 323.544 470.948 318.232 L 470.927 318.232 C 441.209 324.376 424.42 322.734 414.116 318.488 C 411.557 317.424 409.17 315.986 407.033 314.221 L 407.033 314.243 Z  M 235.703 316.248 L 235.255 316.248 C 234.125 316.355 232.482 316.739 229.303 320.259 C 221.879 328.579 219.277 333.806 213.154 338.691 C 207.031 343.555 199.074 346.158 183.18 349.422 C 178.146 350.446 175.265 351.577 173.345 352.494 C 173.964 353.006 173.9 353.134 174.839 353.625 C 177.164 354.905 180.151 356.035 182.562 356.654 C 189.388 358.361 200.61 360.345 212.322 358.361 C 224.034 356.355 236.215 350.744 246.605 336.174 C 248.397 333.656 248.589 329.944 247.117 325.955 C 245.623 321.966 242.359 318.531 240.055 317.571 C 238.684 316.909 237.214 316.477 235.703 316.291 L 235.703 316.248 Z " fill="rgb(51,103,145)"/></g></svg>