<?xml version="1.0" encoding="UTF-8" standalone="no"?><!-- Generator: Gravit.io --><svg xmlns="http://www.w3.org/2000/svg" xmlns:xlink="http://www.w3.org/1999/xlink" style="isolation:isolate" viewBox="0 0 512 512" width="512pt" height="512pt"><defs><clipPath id="_clipPath_IPCPXXbzlMKvfvM8dnU5bITBNJUYbNvH"><rect width="512" height="512"/></clipPath></defs><g clip-path="url(#_clipPath_IPCPXXbzlMKvfvM8dnU5bITBNJUYbNvH)"><g><linearGradient id="_lgradient_2" x1="1.0634102487472319e-9" y1="9.148562601923871e-10" x2="0.742129496978097" y2="0.6446670787924643" gradientTransform="matrix(374.898,0,0,378.547,2.796,0)" gradientUnits="userSpaceOnUse"><stop offset="0%" stop-opacity="1" style="stop-color:rgb(90,159,212)"/><stop offset="100%" stop-opacity="1" style="stop-color:rgb(48,105,152)"/></linearGradient><path d=" M 252.985 0.004 C 232.103 0.101 212.162 1.882 194.616 4.987 C 142.927 14.119 133.542 33.232 133.542 68.481 L 133.542 115.033 L 255.69 115.033 L 255.69 130.551 L 133.542 130.551 L 87.702 130.551 C 52.202 130.551 21.118 151.888 11.395 192.479 C 0.18 239.005 -0.317 268.038 11.395 316.619 C 20.078 352.781 40.813 378.547 76.313 378.547 L 118.31 378.547 L 118.31 322.74 C 118.31 282.424 153.193 246.861 194.616 246.861 L 316.621 246.861 C 350.583 246.861 377.694 218.898 377.694 184.791 L 377.694 68.481 C 377.694 35.378 349.769 10.512 316.621 4.987 C 295.638 1.494 273.866 -0.093 252.985 0.004 Z  M 186.928 37.446 C 199.545 37.446 209.849 47.917 209.849 60.793 C 209.849 73.623 199.545 83.998 186.928 83.998 C 174.266 83.998 164.008 73.623 164.008 60.793 C 164.008 47.917 174.266 37.446 186.928 37.446 Z " fill="url(#_lgradient_2)"/><linearGradient id="_lgradient_3" x1="0.4999999978091788" y1="0.822756106791197" x2="0.23712413565245566" y2="0.44724138631016064" gradientTransform="matrix(375.661,0,0,381.449,133.542,130.551)" gradientUnits="userSpaceOnUse"><stop offset="0%" stop-opacity="1" style="stop-color:rgb(255,212,59)"/><stop offset="100%" stop-opacity="1" style="stop-color:rgb(255,232,115)"/></linearGradient><path d=" M 392.927 130.551 L 392.927 184.791 C 392.927 226.843 357.276 262.236 316.621 262.236 L 194.616 262.236 C 161.197 262.236 133.542 290.839 133.542 324.306 L 133.542 440.617 C 133.542 473.719 162.327 493.19 194.616 502.687 C 233.281 514.056 270.359 516.111 316.621 502.687 C 347.372 493.783 377.694 475.865 377.694 440.617 L 377.694 394.064 L 255.69 394.064 L 255.69 378.547 L 377.694 378.547 L 438.768 378.547 C 474.267 378.547 487.496 353.785 499.842 316.619 C 512.594 278.357 512.052 241.562 499.842 192.479 C 491.068 157.139 474.313 130.551 438.768 130.551 L 392.927 130.551 Z  M 324.308 425.099 C 336.971 425.099 347.229 435.474 347.229 448.304 C 347.229 461.18 336.971 471.652 324.308 471.652 C 311.691 471.652 301.388 461.18 301.388 448.304 C 301.388 435.474 311.691 425.099 324.308 425.099 Z " fill="url(#_lgradient_3)"/></g></g></svg>