<?xml version="1.0" encoding="UTF-8" standalone="no"?><!-- Generator: Gravit.io --><svg xmlns="http://www.w3.org/2000/svg" xmlns:xlink="http://www.w3.org/1999/xlink" style="isolation:isolate" viewBox="0 0 512 512" width="512pt" height="512pt"><defs><clipPath id="_clipPath_Yh24kc4MoENSt0qKG3yq2f6WktlBr9tf"><rect width="512" height="512"/></clipPath></defs><g clip-path="url(#_clipPath_Yh24kc4MoENSt0qKG3yq2f6WktlBr9tf)"><circle vector-effect="non-scaling-stroke" cx="256.0911356354575" cy="255.49308330592086" r="45.75008899964399" fill="rgb(97,218,251)"/><path d=" M 256.091 360.299 C 191.841 360.299 135.701 352.735 93.687 338.335 C 66.438 329.04 43.289 316.645 26.794 302.519 C 9.296 287.573 0 271.26 0 255.493 C 0 225.236 33.173 195.617 88.857 176.296 C 134.425 160.439 193.845 151.598 256 151.598 C 317.061 151.598 375.661 160.165 420.956 175.841 C 447.476 184.954 469.804 196.802 485.662 209.925 C 502.886 224.325 512 240.091 512 255.493 C 512 286.935 474.908 318.741 415.123 338.518 C 372.836 352.553 316.332 360.299 256.091 360.299 Z  M 256.091 173.471 C 197.126 173.471 138.8 182.038 96.148 196.893 C 44.93 214.755 21.964 239.18 21.964 255.493 C 21.964 272.444 46.661 299.147 100.796 317.648 C 140.531 331.227 194.301 338.427 256.091 338.427 C 314.053 338.427 368.097 331.136 408.288 317.739 C 464.518 299.056 490.219 272.353 490.219 255.493 C 490.219 246.835 483.657 236.628 471.718 226.694 C 457.957 215.211 437.907 204.731 413.938 196.437 C 370.831 181.673 314.782 173.471 256.091 173.471 Z " fill="rgb(97,218,251)"/><path d=" M 152.288 483.514 C 142.992 483.514 134.79 481.509 127.863 477.499 C 101.707 462.371 92.594 418.808 103.621 360.937 C 112.644 313.455 134.698 257.68 165.776 203.819 C 196.306 150.961 232.943 104.481 269.124 73.04 C 290.267 54.63 311.684 41.142 331.005 34.033 C 352.057 26.287 370.284 26.287 383.59 33.942 C 410.839 49.618 419.862 97.737 407.103 159.345 C 398.08 203.09 376.572 255.858 346.498 308.078 C 314.418 363.671 279.786 408.51 246.34 437.764 C 224.649 456.721 202.321 470.573 181.907 477.773 C 171.244 481.601 161.219 483.514 152.288 483.514 Z  M 175.163 209.287 L 184.641 214.755 C 155.204 265.791 133.423 320.564 125.038 365.038 C 114.922 418.352 124.674 450.432 138.708 458.543 C 142.172 460.548 146.728 461.642 152.288 461.642 C 170.424 461.642 198.949 450.159 231.94 421.36 C 263.564 393.746 296.646 350.73 327.541 297.233 C 356.523 247.017 377.119 196.528 385.686 155.062 C 397.625 97.008 387.326 61.465 372.654 52.99 C 365.18 48.706 353.059 49.253 338.478 54.63 C 321.618 60.827 302.57 72.948 283.432 89.626 C 249.074 119.519 213.986 163.993 184.641 214.847 L 175.163 209.287 Z " fill="rgb(97,218,251)"/><path d=" M 359.895 483.788 C 335.106 483.788 303.664 468.842 270.855 440.59 C 234.219 409.057 196.944 362.122 165.776 308.261 L 165.776 308.261 C 135.154 255.402 113.282 200.447 104.077 153.33 C 98.7 125.807 97.697 100.563 101.161 80.239 C 104.988 58.093 114.011 42.327 127.408 34.58 C 154.566 18.814 200.772 35.036 247.798 76.867 C 281.153 106.486 316.15 151.507 346.315 203.637 C 378.486 259.23 400.085 311.633 408.652 355.195 C 414.211 383.448 415.123 409.695 411.204 431.02 C 407.012 453.713 397.534 469.844 383.863 477.773 C 377.028 481.783 368.917 483.788 359.895 483.788 Z  M 184.732 297.324 C 214.26 348.36 250.896 394.566 285.163 424.003 C 326.266 459.363 358.892 467.019 373.018 458.817 C 387.691 450.341 398.445 415.618 387.326 359.479 C 379.124 318.286 358.436 268.161 327.45 214.664 C 298.378 164.449 264.931 121.341 233.307 93.272 C 189.015 53.901 153.108 45.061 138.435 53.537 C 130.962 57.82 125.403 68.665 122.76 83.976 C 119.752 101.656 120.664 124.258 125.585 149.138 C 134.334 193.885 155.295 246.471 184.732 297.324 L 184.732 297.324 Z " fill="rgb(97,218,251)"/></g></svg>