<?xml version="1.0" encoding="UTF-8" standalone="no"?><!-- Generator: Gravit.io --><svg xmlns="http://www.w3.org/2000/svg" xmlns:xlink="http://www.w3.org/1999/xlink" style="isolation:isolate" viewBox="0 0 512 512" width="512pt" height="512pt"><defs><clipPath id="_clipPath_fuYuaJKqCiEEMNba7O9PVI22KsKJ1E7p"><rect width="512" height="512"/></clipPath></defs><g clip-path="url(#_clipPath_fuYuaJKqCiEEMNba7O9PVI22KsKJ1E7p)"><g><path d=" M 491.93 374.96 C 464.608 389.202 323.068 447.398 292.935 463.105 C 262.802 478.819 246.062 478.665 222.258 467.286 C 198.454 455.906 47.831 395.065 20.698 382.096 C 7.136 375.613 0.006 370.145 0.006 364.977 L 0.006 313.225 C 0.006 313.225 196.098 270.535 227.757 259.18 C 259.413 247.821 270.395 247.412 297.335 257.281 C 324.278 267.15 485.363 296.214 511.99 305.966 C 511.99 305.966 511.978 352.186 511.978 356.983 C 511.981 362.1 505.838 367.713 491.93 374.96 L 491.93 374.96 Z " fill="rgb(164,30,17)"/><path d=" M 491.93 323.193 C 464.608 337.429 323.068 395.631 292.935 411.338 C 262.802 427.052 246.062 426.899 222.258 415.519 C 198.451 404.145 47.831 343.292 20.698 330.329 C -6.434 317.36 -7.003 308.434 19.651 297.999 C 46.302 287.558 196.098 228.788 227.76 217.429 C 259.416 206.077 270.398 205.661 297.338 215.533 C 324.281 225.402 464.975 281.404 491.599 291.155 C 518.229 300.915 519.252 308.951 491.93 323.193 L 491.93 323.193 Z " fill="rgb(216,44,32)"/><path d=" M 491.93 290.568 C 464.608 304.81 323.068 363.006 292.935 378.719 C 262.802 394.427 246.062 394.273 222.258 382.894 C 198.451 371.52 47.831 310.673 20.698 297.704 C 7.136 291.221 0.006 285.759 0.006 280.591 L 0.006 228.833 C 0.006 228.833 196.098 186.146 227.757 174.788 C 259.413 163.432 270.395 163.02 297.335 172.889 C 324.278 182.757 485.363 211.816 511.99 221.571 C 511.99 221.571 511.978 267.791 511.978 272.594 C 511.981 277.708 505.838 283.321 491.93 290.568 L 491.93 290.568 Z " fill="rgb(164,30,17)"/><path d=" M 491.93 238.801 C 464.608 253.043 323.068 311.239 292.935 326.952 C 262.802 342.66 246.062 342.507 222.258 331.127 C 198.451 319.753 47.831 258.903 20.698 245.937 C -6.434 232.971 -7.003 224.045 19.651 213.604 C 46.302 203.169 196.098 144.396 227.76 133.04 C 259.416 121.685 270.398 121.272 297.338 131.141 C 324.281 141.01 464.975 197.008 491.599 206.763 C 518.229 216.52 519.252 224.559 491.93 238.801 L 491.93 238.801 Z " fill="rgb(216,44,32)"/><path d=" M 491.93 203.046 C 464.608 217.288 323.068 275.486 292.935 291.2 C 262.802 306.908 246.062 306.754 222.258 295.375 C 198.451 284.001 47.831 223.151 20.698 210.185 C 7.136 203.702 0.006 198.236 0.006 193.072 L 0.006 141.314 C 0.006 141.314 196.098 98.627 227.757 87.272 C 259.413 75.913 270.395 75.504 297.335 85.373 C 324.278 95.241 485.363 124.3 511.99 134.054 C 511.99 134.054 511.978 180.274 511.978 185.075 C 511.981 190.185 505.838 195.799 491.93 203.046 L 491.93 203.046 Z " fill="rgb(164,30,17)"/><path d=" M 491.93 151.279 C 464.608 165.521 323.068 223.72 292.935 239.43 C 262.802 255.138 246.062 254.984 222.258 243.608 C 198.454 232.231 47.831 171.384 20.698 158.418 C -6.434 145.452 -7.003 136.522 19.651 126.085 C 46.302 115.647 196.098 56.88 227.76 45.521 C 259.416 34.162 270.398 33.753 297.338 43.625 C 324.281 53.494 464.975 109.492 491.599 119.247 C 518.229 128.998 519.252 137.04 491.93 151.279 Z " fill="rgb(216,44,32)"/><path d=" M 323.086 101.438 L 278.723 106.043 L 268.791 129.94 L 252.749 103.274 L 201.524 98.669 L 239.747 84.885 L 228.28 63.727 L 264.066 77.722 L 297.805 66.676 L 288.685 88.557 L 323.086 101.438 Z " fill="rgb(255,255,255)"/><path d=" M 266.142 217.372 L 183.346 183.031 L 301.988 164.823 L 266.142 217.372 Z " fill="rgb(255,255,255)"/><ellipse vector-effect="non-scaling-stroke" cx="151.35236491827283" cy="139.300384475638" rx="63.411435065582594" ry="24.580245392786225" fill="rgb(255,255,255)"/><path d=" M 375.515 107.969 L 445.731 135.719 L 375.575 163.438 L 375.515 107.969 Z " fill="rgb(122,12,0)"/><path d=" M 297.835 138.698 L 375.515 107.969 L 375.575 163.438 L 367.961 166.418 L 297.835 138.698 Z " fill="rgb(173,33,21)"/></g></g></svg>