<?xml version="1.0" encoding="UTF-8" standalone="no"?><!-- Generator: Gravit.io --><svg xmlns="http://www.w3.org/2000/svg" xmlns:xlink="http://www.w3.org/1999/xlink" style="isolation:isolate" viewBox="0 0 512 512" width="512pt" height="512pt"><defs><clipPath id="_clipPath_hXEbpEHSbuQjWmxPwRiMCQk0XJID2CdD"><rect width="512" height="512"/></clipPath></defs><g clip-path="url(#_clipPath_hXEbpEHSbuQjWmxPwRiMCQk0XJID2CdD)"><g><path d=" M 354.762 352.428 C 373.657 350.474 387.991 334.185 387.339 314.639 C 386.687 295.092 370.399 279.455 350.853 279.455 L 349.55 279.455 C 329.352 280.107 313.715 297.047 314.366 317.245 C 315.018 327.018 318.927 335.488 324.791 341.352 C 302.639 385.005 268.758 416.931 217.938 443.644 C 183.406 461.887 147.572 468.403 111.737 463.842 C 82.418 459.932 59.614 446.902 45.28 425.401 C 24.43 393.475 22.476 358.944 40.067 324.412 C 52.447 299.653 71.993 281.41 84.372 272.289 C 81.766 263.818 77.857 249.485 75.902 239.06 C -18.571 307.472 -8.798 399.991 19.87 443.644 C 41.37 476.221 85.024 496.419 133.238 496.419 C 146.269 496.419 159.299 495.116 172.33 491.858 C 255.728 475.569 318.927 426.052 354.762 352.428 L 354.762 352.428 Z " fill="rgb(118,74,188)"/><path d=" M 469.433 271.637 C 419.916 213.65 346.943 181.724 263.546 181.724 L 253.121 181.724 C 247.258 169.997 234.878 162.178 221.196 162.178 L 219.893 162.178 C 199.695 162.83 184.058 179.77 184.71 199.967 C 185.361 219.514 201.65 235.151 221.196 235.151 L 222.499 235.151 C 236.833 234.499 249.212 225.378 254.425 212.998 L 266.152 212.998 C 315.669 212.998 362.58 227.332 404.931 255.348 C 437.508 276.849 460.963 304.866 473.994 338.746 C 485.07 366.111 484.419 392.824 472.691 415.628 C 454.448 450.159 423.825 469.054 383.43 469.054 C 357.368 469.054 332.609 461.236 319.579 455.372 C 312.412 461.887 299.381 472.312 290.259 478.827 C 318.276 491.858 346.943 499.025 374.308 499.025 C 436.856 499.025 483.116 464.493 500.707 429.962 C 519.602 392.172 518.299 327.018 469.433 271.637 Z " fill="rgb(118,74,188)"/><path d=" M 138.45 363.504 C 139.102 383.051 155.39 398.688 174.936 398.688 L 176.24 398.688 C 196.437 398.036 212.074 381.096 211.423 360.898 C 210.771 341.352 194.483 325.715 174.936 325.715 L 173.633 325.715 C 172.33 325.715 170.376 325.715 169.073 326.366 C 142.359 282.062 131.283 233.848 135.192 181.724 C 137.799 142.632 150.829 108.752 173.633 80.735 C 192.528 56.628 229.014 44.901 253.773 44.249 C 322.836 42.946 352.156 128.949 354.11 163.481 C 362.58 165.436 376.914 169.997 386.687 173.254 C 378.869 67.705 313.715 12.975 251.167 12.975 C 192.528 12.975 138.45 55.325 116.949 117.873 C 86.978 201.271 106.525 281.41 143.011 344.61 C 139.753 349.17 137.799 356.337 138.45 363.504 L 138.45 363.504 Z " fill="rgb(118,74,188)"/></g></g></svg>