<?xml version="1.0" encoding="UTF-8" standalone="no"?><!-- Generator: Gravit.io --><svg xmlns="http://www.w3.org/2000/svg" xmlns:xlink="http://www.w3.org/1999/xlink" style="isolation:isolate" viewBox="0 0 512 512" width="512pt" height="512pt"><defs><clipPath id="_clipPath_XJaZpgiGlsRgaKjkGnCCkFG9cTRID2ou"><rect width="512" height="512"/></clipPath></defs><g clip-path="url(#_clipPath_XJaZpgiGlsRgaKjkGnCCkFG9cTRID2ou)"><path d=" M 440.6 284.485 C 422.7 284.585 407.2 288.885 394.2 295.285 C 389.4 285.785 384.6 277.485 383.8 271.285 C 382.9 264.085 381.8 259.685 382.9 251.085 C 384 242.485 389 230.285 389 229.285 C 388.9 228.385 387.9 223.985 377.6 223.885 C 367.3 223.785 358.4 225.885 357.4 228.585 C 356.4 231.285 354.4 237.485 353.1 243.885 C 351.3 253.285 332.5 286.585 321.8 304.085 C 318.3 297.285 315.3 291.285 314.7 286.485 C 313.8 279.285 312.7 274.885 313.8 266.285 C 314.9 257.685 319.9 245.485 319.9 244.485 C 319.8 243.585 318.8 239.185 308.5 239.085 C 298.2 238.985 289.3 241.085 288.3 243.785 C 287.3 246.485 286.2 252.885 284 259.085 C 281.9 265.285 256.9 320.885 250.4 335.385 C 247.1 342.785 244.2 348.685 242.1 352.685 C 240 356.685 242 352.985 241.8 353.385 C 240 356.785 239 358.685 239 358.685 L 239 358.785 C 237.6 361.285 236.1 363.685 235.4 363.685 C 234.9 363.685 233.9 356.985 235.6 347.785 C 239.3 328.485 248.3 298.385 248.2 297.285 C 248.2 296.785 249.9 291.485 242.4 288.785 C 235.1 286.085 232.5 290.585 231.9 290.585 C 231.3 290.585 230.8 292.185 230.8 292.185 C 230.8 292.185 238.9 258.285 215.3 258.285 C 200.5 258.285 180.1 274.385 170 289.085 C 163.6 292.585 150 299.985 135.6 307.885 C 130.1 310.885 124.4 314.085 119 316.985 L 117.9 315.785 C 89.3 285.285 36.4 263.685 38.6 222.685 C 39.4 207.785 44.6 168.485 140.2 120.885 C 218.5 81.885 281.2 92.585 292.1 116.385 C 307.6 150.385 258.6 213.585 177.2 222.685 C 146.2 226.185 129.9 214.185 125.8 209.685 C 121.5 204.985 120.9 204.785 119.3 205.685 C 116.7 207.085 118.3 211.285 119.3 213.785 C 121.7 220.085 131.7 231.285 148.7 236.885 C 163.6 241.785 200 244.485 244 227.485 C 293.3 208.385 331.8 155.385 320.5 111.085 C 309 65.985 234.2 51.185 163.5 76.285 C 121.4 91.285 75.8 114.685 43 145.385 C 4 181.785 -2.2 213.585 0.4 226.785 C 9.5 273.885 74.4 304.585 100.4 327.285 C 99.1 327.985 97.9 328.685 96.8 329.285 C 83.8 335.685 34.3 361.585 21.9 388.985 C 7.9 419.985 24.1 442.285 34.9 445.285 C 68.3 454.585 102.5 437.885 121 410.385 C 139.4 382.885 137.2 347.185 128.7 330.885 L 128.4 330.285 L 138.6 324.285 C 145.2 320.385 151.7 316.785 157.4 313.685 C 154.2 322.385 151.9 332.685 150.7 347.685 C 149.3 365.285 156.5 388.085 166 397.085 C 170.2 400.985 175.2 401.085 178.3 401.085 C 189.3 401.085 194.3 391.985 199.8 381.085 C 206.6 367.785 212.6 352.385 212.6 352.385 C 212.6 352.385 205.1 394.085 225.6 394.085 C 233.1 394.085 240.6 384.385 244 379.385 L 244 379.485 C 244 379.485 244.2 379.185 244.6 378.485 C 245.4 377.285 245.8 376.585 245.8 376.585 L 245.8 376.385 C 248.8 371.185 255.5 359.285 265.5 339.585 C 278.4 314.185 290.8 282.385 290.8 282.385 C 290.8 282.385 292 290.185 295.7 302.985 C 297.9 310.585 302.7 318.885 306.4 326.985 C 303.4 331.185 301.6 333.585 301.6 333.585 L 301.7 333.685 C 299.3 336.885 296.6 340.285 293.8 343.685 C 283.6 355.885 271.4 369.785 269.8 373.785 C 267.9 378.485 268.3 381.985 272 384.785 C 274.7 386.785 279.5 387.185 284.6 386.785 C 293.8 386.185 300.2 383.885 303.4 382.485 C 308.4 380.685 314.1 377.985 319.6 373.985 C 329.6 366.585 335.7 356.085 335.1 342.085 C 334.8 334.385 332.3 326.785 329.2 319.585 C 330.1 318.285 331 316.985 331.9 315.585 C 347.7 292.485 359.9 267.085 359.9 267.085 C 359.9 267.085 361.1 274.885 364.8 287.685 C 366.7 294.185 370.5 301.285 373.9 308.285 C 359.1 320.385 349.8 334.385 346.6 343.585 C 340.7 360.585 345.3 368.285 354 370.085 C 357.9 370.885 363.5 369.085 367.7 367.285 C 372.9 365.585 379.2 362.685 385 358.385 C 395 350.985 404.6 340.685 404.1 326.785 C 403.8 320.385 402.1 314.085 399.8 308.085 C 412.4 302.885 428.7 299.885 449.4 302.385 C 493.9 307.585 502.7 335.385 501 346.985 C 499.3 358.585 490 364.985 486.9 366.985 C 483.8 368.885 482.8 369.585 483.1 370.985 C 483.5 373.085 484.9 372.985 487.6 372.585 C 491.3 371.985 511 363.085 511.8 341.685 C 513 314.185 486.9 284.185 440.6 284.485 L 440.6 284.485 Z  M 97.4 400.185 C 82.7 416.285 62 422.385 53.2 417.185 C 43.7 411.685 47.4 387.985 65.5 370.885 C 76.5 360.485 90.8 350.885 100.2 344.985 C 102.3 343.685 105.5 341.785 109.3 339.485 C 109.9 339.085 110.3 338.885 110.3 338.885 C 111 338.485 111.8 337.985 112.6 337.485 C 119.3 361.885 112.9 383.285 97.4 400.185 L 97.4 400.185 Z  M 204.9 327.085 C 199.8 339.585 189 371.685 182.5 369.885 C 176.9 368.385 173.5 344.085 181.4 320.085 C 185.4 307.985 193.9 293.585 198.9 287.985 C 207 278.985 215.8 275.985 218 279.685 C 220.6 284.485 208.1 319.285 204.9 327.085 Z  M 293.6 369.485 C 291.4 370.585 289.4 371.385 288.5 370.785 C 287.8 370.385 289.4 368.885 289.4 368.885 C 289.4 368.885 300.5 356.985 304.9 351.485 C 307.4 348.285 310.4 344.585 313.6 340.385 L 313.6 341.585 C 313.6 355.985 299.8 365.585 293.6 369.485 L 293.6 369.485 Z  M 362 353.885 C 360.4 352.685 360.6 348.985 366 337.385 C 368.1 332.785 372.9 325.085 381.2 317.785 C 382.2 320.785 382.8 323.685 382.7 326.385 C 382.6 344.385 369.8 351.085 362 353.885 Z " fill="rgb(207,100,154)"/></g></svg>