<?xml version="1.0" encoding="UTF-8" standalone="no"?><!-- Generator: Gravit.io --><svg xmlns="http://www.w3.org/2000/svg" xmlns:xlink="http://www.w3.org/1999/xlink" style="isolation:isolate" viewBox="0 0 512 512" width="512pt" height="512pt"><defs><clipPath id="_clipPath_0d1z9ne1ZcUpvt8Xlt4YpvSGwbtHgSqO"><rect width="512" height="512"/></clipPath></defs><g clip-path="url(#_clipPath_0d1z9ne1ZcUpvt8Xlt4YpvSGwbtHgSqO)"><g><linearGradient id="_lgradient_0" x1="0.5944929083665341" y1="-0.0358980876494024" x2="0.4055064541832668" y2="1.0358973705179275" gradientTransform="matrix(511.592,0,0,511.962,0.408,0.038)" gradientUnits="userSpaceOnUse"><stop offset="0%" stop-opacity="1" style="stop-color:rgb(250,174,66)"/><stop offset="100%" stop-opacity="1" style="stop-color:rgb(239,62,49)"/></linearGradient><path d=" M 113.732 0.038 L 398.675 0.038 C 461.263 0.038 512 50.812 512 113.445 L 512 398.593 C 512 461.226 461.263 512 398.675 512 L 113.732 512 C 51.145 512 0.408 461.226 0.408 398.593 L 0.408 113.445 C 0.408 50.812 51.145 0.038 113.732 0.038 Z " fill="url(#_lgradient_0)"/><linearGradient id="_lgradient_1" x1="0.5983397890437263" y1="0.019751976784949287" x2="0.436364915062856" y2="0.9383571765148042" gradientTransform="matrix(436.827,0,0,418.919,0,0)" gradientUnits="userSpaceOnUse"><stop offset="0%" stop-opacity="1" style="stop-color:rgb(227,159,58)"/><stop offset="100%" stop-opacity="1" style="stop-color:rgb(211,57,41)"/></linearGradient><path d=" M 432.245 418.919 C 432.245 418.919 412.376 385.782 379.263 385.782 C 347.251 385.782 328.487 418.919 263.912 418.919 C 120.976 418.919 53.059 300.001 52.533 299.071 C 52.533 299.067 52.529 299.067 52.529 299.067 L 0 242.482 L 0 113.407 C 0 50.772 50.735 0 113.325 0 L 214.477 0 L 289.3 75.933 C 289.304 75.933 289.304 75.938 289.309 75.942 C 458.187 190.821 403.546 317.294 403.546 317.294 C 403.546 317.294 451.563 371.419 432.245 418.919 Z " fill="url(#_lgradient_1)"/><path d=" M 289.707 75.972 C 458.592 190.853 403.953 317.333 403.953 317.333 C 403.953 317.333 451.969 371.459 432.653 418.958 C 432.653 418.958 412.784 385.819 379.669 385.819 C 347.658 385.819 328.893 418.958 264.319 418.958 C 120.821 418.958 52.936 299.106 52.936 299.106 C 182.142 384.308 270.39 323.96 270.39 323.96 C 212.103 290.079 88.258 128.442 88.258 128.442 C 196.205 220.325 242.794 244.428 242.794 244.428 C 214.904 221.446 136.827 109.111 136.827 109.111 C 199.299 172.366 323.374 260.444 323.374 260.444 C 358.764 163.084 289.707 75.972 289.707 75.972 Z " fill="rgb(255,255,255)"/></g></g></svg>