<?xml version="1.0" encoding="UTF-8" standalone="no"?><!-- Generator: Gravit.io --><svg xmlns="http://www.w3.org/2000/svg" xmlns:xlink="http://www.w3.org/1999/xlink" style="isolation:isolate" viewBox="0 0 512 512" width="512pt" height="512pt"><defs><clipPath id="_clipPath_QdDejc2D5p7QumrPkqkluTWCRs2taF5Y"><rect width="512" height="512"/></clipPath></defs><g clip-path="url(#_clipPath_QdDejc2D5p7QumrPkqkluTWCRs2taF5Y)"><g><circle vector-effect="non-scaling-stroke" cx="256" cy="256" r="256" fill="rgb(0,0,0)"/><path d=" M 367.922 94.723 C 341.923 95.635 319.207 109.971 302.327 129.797 C 283.604 151.537 271.166 177.336 262.192 203.655 C 246.151 190.504 233.776 173.488 208.041 166.064 C 188.133 160.347 167.25 162.699 148.035 177.017 C 138.925 183.82 132.66 194.097 129.678 203.755 C 121.945 228.87 137.785 251.221 144.989 259.256 L 160.72 276.09 C 163.967 279.4 171.764 288.027 167.961 300.384 C 163.83 313.835 147.634 322.526 131.009 317.41 C 123.586 315.112 112.916 309.595 115.315 301.825 C 116.3 298.633 118.58 296.235 119.811 293.508 C 120.932 291.137 121.461 289.368 121.799 288.328 C 124.836 278.406 120.686 265.512 110.071 262.238 C 100.158 259.21 90.036 261.618 86.105 274.357 C 81.637 288.866 88.577 315.139 125.72 326.602 C 169.238 339.981 206.053 316.27 211.269 285.374 C 214.561 266.022 205.807 251.632 189.802 233.129 L 176.761 218.711 C 168.855 210.804 166.146 197.353 174.317 187.021 C 181.221 178.294 191.042 174.573 207.156 178.941 C 230.657 185.306 241.135 201.621 258.608 214.78 C 251.395 238.445 246.671 262.201 242.412 283.522 L 239.795 299.39 C 227.292 364.922 217.762 400.898 192.976 421.554 C 187.987 425.119 180.838 430.427 170.086 430.801 C 164.441 430.983 162.626 427.098 162.535 425.402 C 162.408 421.444 165.754 419.63 167.97 417.851 C 171.281 416.036 176.287 413.045 175.95 403.461 C 175.576 392.098 166.183 382.267 152.613 382.732 C 142.427 383.07 126.933 392.636 127.517 410.182 C 128.119 428.275 144.989 441.854 170.433 440.978 C 184.039 440.531 214.406 434.996 244.327 399.421 C 279.154 358.63 288.903 311.875 296.235 277.659 L 304.406 232.49 C 308.956 233.028 313.808 233.402 319.097 233.521 C 362.478 234.451 384.173 211.972 384.511 195.63 C 384.72 185.735 378.018 176.005 368.625 176.223 C 361.913 176.415 353.468 180.883 351.444 190.167 C 349.465 199.286 365.25 207.512 352.912 215.51 C 344.148 221.191 328.435 225.186 306.312 221.939 L 310.343 199.697 C 318.541 157.529 328.682 105.657 367.102 104.408 C 369.901 104.262 380.152 104.536 380.389 111.302 C 380.453 113.564 379.896 114.148 377.252 119.327 C 374.543 123.358 373.531 126.796 373.649 130.754 C 374.032 141.515 382.213 148.592 394.059 148.172 C 409.899 147.652 414.459 132.231 414.203 124.298 C 413.547 105.648 393.904 93.884 367.922 94.723 L 367.922 94.723 Z " fill="rgb(255,255,255)"/></g></g></svg>