<?xml version="1.0" encoding="UTF-8" standalone="no"?><!-- Generator: Gravit.io --><svg xmlns="http://www.w3.org/2000/svg" xmlns:xlink="http://www.w3.org/1999/xlink" style="isolation:isolate" viewBox="0 0 512 512" width="512pt" height="512pt"><defs><clipPath id="_clipPath_uIR0r9eveJ32gkTbWUtjbaig6AGvePfc"><rect width="512" height="512"/></clipPath></defs><g clip-path="url(#_clipPath_uIR0r9eveJ32gkTbWUtjbaig6AGvePfc)"><g><g><clipPath id="_clipPath_fBdcYtQmhVHyD5B5Mc81laNYbPKeQzaD"><path d=" M 484.745 124.593 L 265.734 0 L 265.734 512 L 353.338 461.384 L 353.338 317.323 L 419.529 355.285 L 418.555 256.973 L 353.338 219.011 L 353.338 161.582 L 484.745 238.479 L 484.745 124.593 Z " fill="rgb(255,255,255)"/></clipPath><g clip-path="url(#_clipPath_fBdcYtQmhVHyD5B5Mc81laNYbPKeQzaD)"><g><linearGradient id="_lgradient_1" x1="0" y1="0.5000000000000002" x2="1" y2="0.5000000000000002" gradientTransform="matrix(537.308,0,0,514.92,6.814,-1.947)" gradientUnits="userSpaceOnUse"><stop offset="0%" stop-opacity="1" style="stop-color:rgb(255,111,0)"/><stop offset="100%" stop-opacity="1" style="stop-color:rgb(255,168,0)"/></linearGradient><path d=" M 6.814 -1.947 L 544.122 -1.947 L 544.122 512.973 L 6.814 512.973 L 6.814 -1.947 Z " fill="url(#_lgradient_1)"/></g></g></g></g><g><g><clipPath id="_clipPath_sc5x0A6BGw3hsRHZFEc7crlbKy0ZB294"><path d=" M 27.255 124.593 L 246.266 0 L 246.266 512 L 158.662 461.384 L 158.662 161.582 L 27.255 238.479 L 27.255 124.593 Z " fill="rgb(255,255,255)"/></clipPath><g clip-path="url(#_clipPath_sc5x0A6BGw3hsRHZFEc7crlbKy0ZB294)"><g><linearGradient id="_lgradient_2" x1="0" y1="0.5000000000000002" x2="1" y2="0.5000000000000002" gradientTransform="matrix(537.308,0,0,514.92,3.894,-1.947)" gradientUnits="userSpaceOnUse"><stop offset="0%" stop-opacity="1" style="stop-color:rgb(255,111,0)"/><stop offset="100%" stop-opacity="1" style="stop-color:rgb(255,168,0)"/></linearGradient><path d=" M 3.894 -1.947 L 541.202 -1.947 L 541.202 512.973 L 3.894 512.973 L 3.894 -1.947 Z " fill="url(#_lgradient_2)"/></g></g></g></g></g></svg>