<?xml version="1.0" encoding="UTF-8" standalone="no"?><!-- Generator: Gravit.io --><svg xmlns="http://www.w3.org/2000/svg" xmlns:xlink="http://www.w3.org/1999/xlink" style="isolation:isolate" viewBox="0 0 512 512" width="512pt" height="512pt"><defs><clipPath id="_clipPath_i04qbLfl9ZL2UTDuiJA7CZaWz5wfxXwW"><rect width="512" height="512"/></clipPath></defs><g clip-path="url(#_clipPath_i04qbLfl9ZL2UTDuiJA7CZaWz5wfxXwW)"><g><path d=" M 122.317 223.707 C 122.317 223.707 42.658 279.777 39.54 301.139 L 45.52 299.91 C 45.52 299.91 140.914 236.68 216.533 228.968 L 218.244 219.373 L 122.317 223.707 M 247.369 215.693 L 184.621 260.197 L 188.01 262.919 C 190.57 260.858 299.472 227.597 299.472 227.597 L 322.432 213.202 C 307.027 215.119 247.369 215.693 247.369 215.693 M 301.905 269.521 C 346.46 269.521 413.25 225.883 413.25 225.883 L 391.66 221.772 C 390.591 222.841 356.845 220.589 356.845 220.589 L 340.825 216.14 L 302.55 259.75 L 299.434 267.317 C 302.187 266.202 301.905 269.521 301.905 269.521 M 113.806 434.816 C 113.497 434.676 113.189 434.535 112.881 434.392 C 111.164 432.909 109.446 431.427 107.727 429.946 L 113.806 434.816 Z  M 447.301 408.691 L 433.536 412.565 L 369.94 411.192 L 330.153 380.252 L 282.069 392.283 L 226.451 387.471 L 195.308 421.503 L 136.866 438.958 L 107.686 429.913 L 106.219 428.646 L 119.316 460.716 C 119.316 460.716 148.981 492.521 165.551 496.262 C 182.12 500.004 212.054 495.995 234.505 492.519 C 256.954 489.045 274.86 481.027 282.077 467.935 C 289.29 454.835 290.359 451.095 290.359 451.095 C 290.359 451.095 311.744 481.296 330.184 484.772 C 348.623 488.245 403.411 469.534 403.411 469.534 C 403.411 469.534 436.821 460.449 442.7 448.957 C 448.578 437.465 464.082 399.783 464.082 399.783 L 447.301 408.691 L 447.301 408.691 Z " fill-rule="evenodd" fill="rgb(185,51,70)"/><path d=" M 501.329 181.501 C 501.184 179.783 501.005 178.069 500.791 176.359 C 500.639 175.139 500.457 173.923 500.242 172.713 C 495.651 168.851 490.436 165.413 485.005 162.292 C 479.121 158.854 472.961 155.774 466.677 152.915 C 460.436 149.969 454.027 147.303 447.577 144.706 C 444.356 143.395 441.115 142.134 437.855 140.922 C 434.607 139.655 431.327 138.475 428.036 137.279 C 434.94 138.421 441.773 139.988 448.555 141.735 C 452.968 142.875 457.356 144.152 461.713 145.516 C 430.707 64.481 356.576 11.706 275.635 11.706 C 194.683 11.706 120.557 64.481 89.559 145.516 C 93.919 144.152 98.307 142.875 102.71 141.735 C 109.499 139.988 116.335 138.421 123.236 137.279 C 119.935 138.475 116.665 139.655 113.404 140.922 C 110.162 142.133 106.914 143.398 103.682 144.706 C 97.235 147.303 90.841 149.969 84.585 152.915 C 78.316 155.774 72.153 158.854 66.267 162.292 C 60.836 165.413 55.626 168.851 51.017 172.713 C 50.534 175.625 50.176 178.557 49.943 181.501 C 49.657 184.959 49.507 188.426 49.491 191.896 C 49.422 198.841 49.89 205.785 50.771 212.659 C 51.72 219.55 52.985 226.396 54.854 233.013 C 55.76 236.31 56.819 239.562 58.028 242.761 C 58.637 244.34 59.295 245.897 59.983 247.41 C 60.326 248.164 60.684 248.906 61.042 249.622 L 61.484 250.462 C 61.991 250.721 62.527 250.985 63.035 251.232 L 66.117 252.704 C 67.834 253.484 70.213 254.614 72.181 255.495 L 72.496 255.205 L 66.775 233.412 C 67.986 233.079 78.851 230.276 97.578 226.713 C 96.058 226.422 94.545 226.097 93.04 225.738 C 88.777 224.677 84.57 223.387 80.499 221.734 C 78.477 220.895 76.503 219.942 74.588 218.88 C 72.689 217.788 70.82 216.554 69.375 214.914 C 89.945 221.627 132.451 218.585 170.236 214.683 C 204.794 211.12 239.431 208.81 274.246 208.744 C 309.065 208.81 343.718 211.12 378.258 214.683 C 416.059 218.585 458.564 221.627 479.134 214.914 C 477.689 216.554 475.823 217.788 473.924 218.88 C 472.027 219.949 470.034 220.881 468.013 221.734 C 463.937 223.387 459.732 224.677 455.472 225.738 C 454.839 225.891 454.202 226.028 453.57 226.165 C 474.101 229.974 486.053 233.066 487.331 233.412 L 481.859 254.174 C 482.958 253.679 484.07 253.197 485.16 252.704 L 488.237 251.232 C 488.747 250.985 489.268 250.721 489.791 250.462 L 490.215 249.622 C 490.591 248.906 490.949 248.164 491.289 247.41 C 491.98 245.897 492.64 244.34 493.244 242.761 C 494.456 239.563 495.516 236.31 496.421 233.013 C 498.292 226.396 499.557 219.55 500.504 212.659 C 501.387 205.785 501.852 198.841 501.786 191.896 C 501.77 188.426 501.618 184.959 501.329 181.501" fill-rule="evenodd" fill="rgb(244,238,170)"/><path d=" M 298.975 469.692 C 296.269 470.112 293.548 470.432 290.819 470.652 C 289.072 470.735 287.226 470.913 285.55 470.913 L 284.931 470.928 C 287.036 466.226 288.63 462.582 289.841 459.819 C 292.304 462.582 295.44 466.007 298.975 469.692 M 304.896 475.727 C 313.354 484.104 323.833 488.898 335.371 489.751 C 315.995 497.62 297.733 500.659 283.666 501.604 C 269.642 502.544 255.425 500.891 241.493 497.069 C 242.661 496.861 243.514 496.711 244.545 496.587 C 245.69 496.447 270.676 493.189 281.937 476.443 L 282.993 476.469 L 285.758 476.443 C 287.63 476.443 289.331 476.291 291.119 476.22 C 295.312 475.857 299.481 475.257 303.606 474.422 L 304.896 475.727" fill-rule="evenodd" fill="rgb(225,200,165)"/><path d=" M 328.866 224.984 C 327.982 226.137 327.088 227.282 326.185 228.42 C 321.236 234.676 314.372 242.677 306.232 250.505 C 296.503 250.202 286.77 250.051 277.036 250.051 C 260.499 250.051 244.642 250.488 229.584 251.219 C 250.857 242.39 276.422 233.767 304.101 228.585 C 312.301 227.03 320.563 225.829 328.866 224.984 M 204.34 234.509 C 196.748 239.846 188.168 246.653 179.85 254.916 C 161.378 256.756 142.967 259.155 124.64 262.109 C 148.209 251.272 175.106 241.303 204.34 234.509 M 464.587 278.482 L 455.924 339.1 L 414.421 368.168 L 306.176 355.863 L 289.882 302.203 C 289.493 300.898 288.39 299.932 287.046 299.717 C 283.034 299.07 279.487 298.739 276.531 298.739 C 273.56 298.739 270.026 299.07 265.996 299.717 C 264.656 299.94 263.559 300.903 263.165 302.203 L 247.27 354.556 L 139.629 378.508 L 96.974 348.629 L 88.569 280.605 C 90.4 279.571 92.258 278.54 94.14 277.512 C 96.781 276.943 99.751 276.341 103.037 275.709 L 110.957 339.897 C 111.081 340.897 111.632 341.794 112.457 342.37 L 141.8 362.932 C 142.627 363.492 143.646 363.689 144.621 363.478 L 233.119 343.787 C 233.421 343.718 233.726 343.609 234 343.469 C 234.823 343.033 235.473 342.276 235.747 341.354 L 251.683 288.88 C 255.956 287.78 266.908 285.223 276.531 285.223 C 286.129 285.223 297.086 287.78 301.364 288.88 L 317.3 341.354 C 317.714 342.715 318.897 343.69 320.311 343.858 L 408.812 353.911 C 409.667 354.005 410.546 353.781 411.247 353.291 L 440.607 332.749 C 441.402 332.185 441.938 331.299 442.075 330.327 L 449.916 275.488 C 455.799 276.616 460.723 277.647 464.587 278.482 M 475.518 240.465 L 467.901 269.369 C 452.323 265.933 418.092 259.192 371.509 254.654 C 386.729 248.164 402.228 240.024 416.389 229.849 C 444.109 233.767 464.463 237.962 475.518 240.465" fill-rule="evenodd" fill="rgb(95,101,93)"/><path d=" M 295.671 259.852 C 291.417 263.325 286.928 266.499 282.237 269.354 L 266.628 278.774 C 260.291 279.575 254.019 280.83 247.861 282.529 C 246.705 282.872 245.796 283.769 245.439 284.921 L 229.546 337.297 L 144.593 356.191 L 117.835 337.449 L 110.05 274.386 C 125.245 271.596 145.568 268.366 169.977 265.631 C 167.315 268.811 164.791 272.104 162.413 275.501 L 147.879 296.36 L 169.043 282.25 C 169.358 282.032 182.833 273.165 204.878 262.384 C 228.889 260.58 252.958 259.675 277.036 259.672 C 283.361 259.672 289.567 259.745 295.671 259.852 L 295.671 259.852 Z  M 163.431 330.89 C 169.467 327.63 176.287 328.113 186.957 328.128 C 188.102 328.153 189.283 328.141 190.517 328.113 C 191.565 328.1 192.622 328.085 193.736 328.057 C 204.736 327.95 213.88 328.994 213.717 311.722 C 213.552 294.453 205.879 280.493 194.892 280.605 C 183.892 280.699 173.25 294.849 173.908 312.108 C 174.086 316.603 174.748 319.848 175.807 322.186 C 166.224 324.591 163.581 330.517 163.431 330.89 L 163.431 330.89 Z  M 442.915 274.183 L 435.255 327.8 L 408.276 346.689 L 323.435 337.05 L 307.608 284.921 C 307.252 283.77 306.344 282.872 305.188 282.529 C 304.663 282.377 294.158 279.381 283.021 278.416 L 285.055 278.281 C 286.815 278.154 316.079 274.567 351.018 262.521 C 389.715 265.492 421.312 270.247 442.915 274.183 Z  M 388.696 323.809 C 388.587 323.397 386.277 316.455 376.046 317.672 C 377.227 315.104 377.75 311.641 377.379 306.895 C 376.029 289.664 366.006 275.971 355.019 276.352 C 344.032 276.743 336.991 291.025 337.598 308.297 C 338.202 325.556 347.43 325.434 358.417 325.048 C 373.185 324.771 381.297 320.234 388.696 323.809 L 388.696 323.809 Z " fill-rule="evenodd" fill="rgb(224,197,155)"/><path d=" M 295.671 259.852 C 291.417 263.325 286.928 266.499 282.237 269.354 L 266.628 278.774 C 260.291 279.575 254.019 280.83 247.861 282.529 C 246.705 282.872 245.796 283.769 245.439 284.921 L 229.546 337.297 L 144.593 356.191 L 117.835 337.449 L 110.05 274.386 C 125.245 271.596 145.568 268.366 169.977 265.631 C 167.315 268.811 164.791 272.104 162.413 275.501 L 147.879 296.36 L 169.043 282.25 C 169.358 282.032 182.833 273.165 204.878 262.384 C 228.889 260.58 252.958 259.675 277.036 259.672 C 283.361 259.672 289.567 259.745 295.671 259.852 L 295.671 259.852 Z  M 163.431 330.89 C 169.467 327.63 176.287 328.113 186.957 328.128 C 188.102 328.153 189.283 328.141 190.517 328.113 C 191.565 328.1 192.622 328.085 193.736 328.057 C 204.736 327.95 213.88 328.994 213.717 311.722 C 213.552 294.453 205.879 280.493 194.892 280.605 C 183.892 280.699 173.25 294.849 173.908 312.108 C 174.086 316.603 174.748 319.848 175.807 322.186 C 166.224 324.591 163.581 330.517 163.431 330.89 L 163.431 330.89 Z  M 442.915 274.183 L 435.255 327.8 L 408.276 346.689 L 323.435 337.05 L 307.608 284.921 C 307.252 283.77 306.344 282.872 305.188 282.529 C 304.663 282.377 294.158 279.381 283.021 278.416 L 285.055 278.281 C 286.815 278.154 316.079 274.567 351.018 262.521 C 389.715 265.492 421.312 270.247 442.915 274.183 Z  M 388.696 323.809 C 388.587 323.397 386.277 316.455 376.046 317.672 C 377.227 315.104 377.75 311.641 377.379 306.895 C 376.029 289.664 366.006 275.971 355.019 276.352 C 344.032 276.743 336.991 291.025 337.598 308.297 C 338.202 325.556 347.43 325.434 358.417 325.048 C 373.185 324.771 381.297 320.234 388.696 323.809 L 388.696 323.809 Z " fill-rule="evenodd" fill="rgb(191,172,145)"/><path d=" M 479.949 297.767 C 481.249 298.838 482.28 301.614 481.117 314.553 C 479.688 330.395 473.027 358.199 468.904 362.681 C 464.354 363.562 454.809 362.518 448.992 361.157 C 449.997 357.166 450.284 355.254 451.097 351.173 L 461.274 344.051 C 462.084 343.487 462.619 342.604 462.756 341.644 L 469.869 291.81 C 474.185 294.149 478.626 296.678 479.949 297.767 M 104.797 362.805 C 105.307 364.608 105.84 366.408 106.394 368.183 C 100.919 369.791 89.767 371.332 84.722 370.453 C 80.543 366.241 72.745 337.259 71.038 321.869 C 69.649 309.399 70.625 306.702 71.892 305.656 C 73.364 304.42 78.877 301.284 83.65 298.727 L 90.097 351.074 C 90.222 352.08 90.758 352.971 91.598 353.55 L 104.797 362.805 Z  M 310.647 363.537 L 310.261 366.878 C 310.261 366.878 298.533 377.753 279.654 380.186 C 260.773 382.618 245.934 371.017 245.934 371.017 C 246.554 373.033 247.435 377.586 251.711 381.478 C 246.349 380.821 240.953 380.484 235.551 380.47 C 233.492 380.47 231.413 380.531 229.404 380.628 C 217.785 381.235 201.438 398.806 189.943 416.504 C 184.303 418.291 166.676 423.885 146.272 429.911 C 127.225 403.521 117.858 376.557 116.911 373.764 L 116.924 373.752 C 116.54 372.68 116.154 371.604 115.796 370.504 L 120.694 373.929 L 120.694 373.942 L 132.794 382.413 L 136.839 385.231 C 137.443 385.66 138.156 385.879 138.872 385.879 C 139.135 385.878 139.397 385.851 139.654 385.8 L 250.847 361.046 C 252.096 360.767 253.099 359.838 253.47 358.613 L 269.327 306.413 C 272.065 306.042 274.467 305.849 276.531 305.849 C 278.58 305.849 281 306.042 283.737 306.413 L 300.054 360.165 C 300.47 361.526 301.651 362.518 303.053 362.666 L 310.647 363.537" fill-rule="evenodd" fill="rgb(225,200,165)"/><path d=" M 437.568 360.65 L 441.158 358.128 C 440.561 360.61 439.923 363.082 439.244 365.543 C 434.254 381.537 428.366 395.682 421.822 408.18 C 420.289 408.287 418.753 408.339 417.216 408.338 C 412.166 408.338 407.011 407.909 401.306 407.388 C 391.403 406.479 375.688 404.679 370.722 404.102 C 360.385 395.87 350.026 387.665 339.645 379.488 C 339.167 379.099 338.756 378.741 338.352 378.411 C 336.209 376.598 333.774 374.539 328.838 374.539 C 324.354 374.539 317.808 376.169 301.984 380.958 C 310.206 374.813 310.261 366.878 310.261 366.878 L 310.647 363.537 L 414.962 375.387 C 415.81 375.483 416.691 375.265 417.407 374.77 L 427.886 367.427 L 437.568 360.65" fill-rule="evenodd" fill="rgb(225,200,165)"/><path d=" M 360.796 141.184 C 361.111 150.464 360.88 167.281 356.558 183.027 C 356.396 183.617 356.396 184.24 356.558 184.83 C 351.065 184.257 345.564 183.753 340.059 183.316 C 346.231 170.377 347.58 156.599 347.872 151.744 C 352.612 148.377 357.333 144.335 360.796 141.184 Z  M 203.405 151.744 C 203.692 156.599 205.038 170.349 211.203 183.276 C 205.701 183.715 200.204 184.223 194.714 184.802 C 194.864 184.238 194.879 183.634 194.714 183.027 C 190.397 167.312 190.176 150.48 190.479 141.184 C 193.944 144.335 198.647 148.377 203.405 151.744" fill-rule="evenodd" fill="rgb(231,209,147)"/><path d=" M 354.166 298.521 C 357.264 298.453 359.727 295.899 359.681 292.8 C 359.659 291.309 359.042 289.888 357.967 288.853 C 356.893 287.818 355.45 287.254 353.958 287.288 C 352.468 287.312 351.049 287.929 350.015 289.002 C 348.981 290.075 348.417 291.516 348.448 293.006 C 348.506 296.107 351.065 298.575 354.166 298.521 L 354.166 298.521 Z  M 388.696 323.809 C 381.297 320.234 373.185 324.771 358.417 325.048 C 347.43 325.434 338.202 325.556 337.598 308.297 C 336.991 291.025 344.032 276.743 355.019 276.352 C 366.006 275.971 376.029 289.664 377.379 306.895 C 377.75 311.641 377.227 315.104 376.046 317.672 C 386.277 316.455 388.587 323.397 388.696 323.809 L 388.696 323.809 Z " fill-rule="evenodd" fill="rgb(41,44,45)"/><path d=" M 359.681 292.8 C 359.727 295.899 357.264 298.453 354.166 298.521 C 351.065 298.575 348.506 296.107 348.448 293.006 C 348.417 291.516 348.981 290.075 350.015 289.002 C 351.049 287.929 352.468 287.312 353.958 287.288 C 355.45 287.254 356.893 287.818 357.967 288.853 C 359.042 289.888 359.659 291.309 359.681 292.8" fill-rule="evenodd" fill="rgb(238,247,248)"/><path d=" M 196.735 302.685 C 199.837 302.603 202.285 300.021 202.202 296.919 C 202.119 293.817 199.537 291.369 196.435 291.452 C 194.409 291.478 192.554 292.592 191.58 294.369 C 190.606 296.146 190.664 298.309 191.731 300.031 C 192.799 301.753 194.711 302.767 196.735 302.685 Z  M 213.717 311.722 C 213.88 328.994 204.736 327.95 193.736 328.057 C 192.622 328.085 191.565 328.1 190.517 328.113 C 189.283 328.141 188.102 328.153 186.957 328.128 C 176.287 328.113 169.467 327.63 163.431 330.89 C 163.581 330.517 166.224 324.591 175.807 322.186 C 174.748 319.848 174.086 316.603 173.908 312.108 C 173.25 294.849 183.892 280.699 194.892 280.605 C 205.879 280.493 213.552 294.453 213.717 311.722 L 213.717 311.722 Z " fill-rule="evenodd" fill="rgb(41,44,45)"/><path d=" M 202.194 296.924 C 202.193 299.971 199.764 302.462 196.717 302.541 C 193.671 302.619 191.117 300.256 190.958 297.213 C 190.878 294.111 193.329 291.531 196.432 291.451 C 199.534 291.371 202.114 293.821 202.194 296.924 Z " fill-rule="evenodd" fill="rgb(238,247,248)"/><path d=" M 126.771 196.279 L 125.493 193.867 L 125.443 187.554 L 128.772 149.911 L 186.528 135.923 L 190.123 184.487 C 187.322 180.688 183.13 172.096 180.533 160.304 C 179.144 154.007 174.677 152.214 169.538 152.214 C 165.054 152.214 160.059 153.578 156.151 154.509 C 147.754 156.508 136.762 159.306 134.965 163.701 C 131.476 172.228 129.769 194.478 129.769 194.478 L 126.771 196.279 Z  M 425.027 196.279 L 422.026 194.478 C 422.026 194.478 420.322 172.228 416.833 163.701 C 415.033 159.306 404.041 156.508 395.649 154.509 C 391.738 153.578 386.741 152.214 382.26 152.214 C 377.118 152.214 372.651 154.007 371.262 160.304 C 368.667 172.096 364.468 180.688 361.67 184.487 L 365.27 135.923 L 423.029 149.911 L 425.862 181.986 L 425.761 194.895 L 425.027 196.279" fill-rule="evenodd" fill="rgb(234,214,152)"/><path d=" M 334.655 187.562 L 218.222 187.346 L 212.188 173.761 L 207.874 150.475 L 198.386 142.931 L 198.17 88.702 L 211.531 49.182 C 211.531 49.182 213.73 165.583 240.932 165.583 L 311.658 165.583 C 338.86 165.583 340.389 49.131 340.389 49.131 L 358.079 114.411 L 345.223 151.122 L 344.573 161.472 L 340.043 177.857 L 334.655 187.562 M 453.057 208.347 L 446.488 205.138 L 453.057 208.347 Z  M 446.47 205.128 L 425.728 198.874 L 425.761 194.895 L 426.825 192.881 L 425.862 181.986 L 426.058 157.714 C 426.058 157.714 431.654 197.884 446.47 205.128" fill-rule="evenodd" fill="rgb(234,215,153)"/><path d=" M 425.761 194.895 L 425.862 181.986 L 426.825 192.881 L 425.761 194.895" fill-rule="evenodd" fill="rgb(233,210,148)"/><path d=" M 98.202 208.347 L 104.789 205.128 L 98.202 208.347 Z  M 104.789 205.128 C 119.605 197.884 125.204 157.714 125.204 157.714 L 125.443 187.554 L 124.973 192.881 L 125.493 193.867 L 125.534 198.874 L 104.789 205.128" fill-rule="evenodd" fill="rgb(234,215,153)"/><path d=" M 125.493 193.867 L 124.973 192.881 L 125.443 187.554 L 125.493 193.867 Z " fill-rule="evenodd" fill="rgb(233,210,148)"/><path d=" M 188.333 185.487 L 188.084 184.858 C 183.029 166.459 183.247 147.166 183.701 138.269 L 131.184 153.202 C 127.652 176.194 129.302 193.095 129.658 196.2 C 134.017 195.017 138.39 193.93 142.793 192.914 C 150.05 191.305 157.365 189.959 164.696 188.72 C 172.039 187.496 179.41 186.561 186.779 185.668 C 187.302 185.599 187.81 185.558 188.333 185.487 Z  M 211.203 183.276 C 205.038 170.349 203.692 156.599 203.405 151.744 C 198.647 148.377 193.944 144.335 190.479 141.184 C 190.176 150.48 190.397 167.312 194.714 183.027 C 194.879 183.634 194.864 184.238 194.714 184.802 C 200.204 184.223 205.701 183.715 211.203 183.276 L 211.203 183.276 Z  M 356.558 183.027 C 360.88 167.281 361.111 150.464 360.796 141.184 C 357.333 144.335 352.612 148.377 347.872 151.744 C 347.58 156.599 346.234 170.377 340.056 183.314 C 345.558 183.756 351.061 184.251 356.558 184.83 C 356.396 184.24 356.396 183.617 356.558 183.027 L 356.558 183.027 Z  M 421.604 196.213 C 421.96 193.123 423.625 176.222 420.088 153.202 L 367.558 138.269 C 368.028 147.166 368.236 166.459 363.188 184.858 L 362.929 185.518 C 363.449 185.571 363.973 185.614 364.48 185.683 C 379.248 187.374 393.947 189.738 408.484 192.927 C 412.869 193.945 417.257 195.032 421.604 196.213 L 421.604 196.213 Z  M 430.044 198.691 C 437.098 200.999 444.193 203.447 450.619 207.2 C 447.179 205.841 443.631 204.864 440.054 203.983 C 436.494 203.086 432.908 202.298 429.3 201.619 C 422.089 200.248 414.834 199.115 407.547 198.221 C 400.273 197.268 392.979 196.479 385.67 195.855 C 378.354 195.238 371.054 194.621 363.724 194.192 C 334.422 192.391 305.038 191.939 275.635 191.909 C 246.239 191.924 216.853 192.475 187.548 194.207 C 180.22 194.633 172.918 195.253 165.602 195.873 C 158.289 196.487 150.987 197.274 143.725 198.234 C 136.437 199.118 129.191 200.273 121.972 201.631 C 118.361 202.309 114.77 203.093 111.206 203.983 C 107.646 204.864 104.081 205.841 100.645 207.2 C 107.067 203.447 114.161 200.986 121.23 198.676 C 121.822 198.483 122.426 198.318 123.031 198.127 L 122.919 197.673 C 122.797 196.863 120.184 177.552 124.734 149.941 C 124.955 148.621 125.905 147.55 127.197 147.191 L 134.665 145.064 C 136.285 87.143 160.143 59.902 160.887 59.064 C 139.573 93.359 139.766 134.034 140.137 143.507 L 186.545 130.319 L 186.655 130.293 L 187.231 130.212 L 187.424 130.197 C 187.66 130.184 187.922 130.212 188.186 130.265 L 188.32 130.309 L 188.897 130.499 L 189.115 130.623 L 189.57 130.91 L 189.694 130.994 L 189.778 131.075 L 189.915 131.187 C 189.943 131.23 191.179 132.452 193.145 134.282 C 192.68 118.989 193.406 75.125 214.296 38.769 C 213.854 40.044 197.284 88.506 202.994 142.819 C 204.848 144.307 206.798 145.762 208.7 147.042 C 209.619 147.674 210.183 148.718 210.195 149.832 C 210.213 150.013 210.607 167.325 218.255 182.052 C 218.364 182.27 218.448 182.504 218.519 182.74 C 237.534 181.445 256.606 180.924 275.635 180.912 C 294.671 180.924 313.73 181.473 332.743 182.781 C 332.812 182.532 332.896 182.285 333.02 182.052 C 340.663 167.325 341.064 150.013 341.064 149.832 C 341.09 148.713 341.653 147.674 342.577 147.042 C 344.529 145.708 346.428 144.299 348.27 142.819 C 353.989 88.506 337.415 40.044 336.979 38.769 C 357.851 75.125 358.597 118.989 358.13 134.282 C 359.22 133.266 360.296 132.234 361.357 131.187 L 361.494 131.075 L 361.578 130.994 L 361.703 130.91 L 362.154 130.608 L 362.363 130.499 L 362.967 130.293 L 363.091 130.265 C 363.338 130.212 363.604 130.184 363.848 130.197 L 364.026 130.212 L 364.617 130.293 L 364.727 130.319 L 411.135 143.507 C 411.511 134.034 411.701 93.359 390.39 59.064 C 391.129 59.902 414.987 87.143 416.597 145.064 L 424.077 147.191 C 425.354 147.55 426.319 148.621 426.54 149.941 C 431.09 177.552 428.465 196.863 428.353 197.673 L 428.244 198.14 C 428.848 198.318 429.437 198.495 430.044 198.691 L 430.044 198.691 Z " fill-rule="evenodd" fill="rgb(41,44,45)"/><path d=" M 321.703 84.977 L 321.703 59.918 L 231.529 59.918 L 231.529 84.977 L 243.857 84.977 L 243.857 72.245 L 269.366 72.245 L 269.366 149.619 L 258.869 149.619 L 258.869 163.97 L 294.364 163.97 L 294.364 149.619 L 283.867 149.619 L 283.867 72.245 L 309.373 72.245 L 309.373 84.977 L 321.703 84.977 Z  M 222.269 50.655 L 330.986 50.655 L 330.986 94.24 L 300.09 94.24 L 300.09 81.506 L 293.127 81.506 L 293.127 140.336 L 303.647 140.336 L 303.647 173.233 L 249.606 173.233 L 249.606 140.336 L 260.082 140.336 L 260.082 81.506 L 253.14 81.506 L 253.14 94.24 L 222.269 94.24 L 222.269 50.655 Z " fill-rule="evenodd" fill="rgb(41,44,45)"/><path d=" M 321.703 59.918 L 321.703 84.977 L 309.373 84.977 L 309.373 72.245 L 283.867 72.245 L 283.867 149.619 L 294.364 149.619 L 294.364 163.97 L 258.869 163.97 L 258.869 149.619 L 269.366 149.619 L 269.366 72.245 L 243.857 72.245 L 243.857 84.977 L 231.529 84.977 L 231.529 59.918 L 321.703 59.918 Z " fill-rule="evenodd" fill="rgb(185,51,70)"/><path d=" M 78.577 240.465 C 84.574 239.116 90.592 237.862 96.628 236.702 C 91.174 240.426 85.86 244.352 80.697 248.471 L 78.577 240.465 Z " fill-rule="evenodd" fill="rgb(95,101,93)"/><path d=" M 243.481 359.918 C 243.481 359.918 244.741 368.021 233.401 371.487 C 222.066 374.955 150.245 396.358 142.057 395.2 C 133.868 394.045 113.079 380.161 113.079 380.161 L 108.039 362.231 L 138.799 381.41 L 243.481 359.918 M 307.819 358.349 C 307.819 358.349 306.912 366.495 318.394 369.471 C 329.871 372.444 402.553 390.706 410.683 389.192 C 418.814 387.679 438.977 372.909 438.977 372.909 L 443.235 354.774 L 414.962 371.639 L 307.819 358.349" fill-rule="evenodd" fill="rgb(191,172,145)"/><path d=" M 72.735 345.008 C 72.735 345.008 82.686 364.913 98.759 358.021 L 110.241 362.231 L 109.093 370.654 L 84.981 373.714 L 78.476 369.887 L 72.735 345.008 Z  M 480.127 339.544 C 480.127 339.544 463.864 360.317 447.791 353.431 L 442.621 356.765 L 443.769 365.182 L 467.881 368.247 L 474.383 364.418 L 480.127 339.544 M 228.551 495.914 C 228.551 495.914 287.508 525.64 354.263 485.193 L 332.825 483.731 C 332.825 483.731 286.048 502.244 249.017 492.014 L 228.551 495.914" fill-rule="evenodd" fill="rgb(191,172,145)"/><path d=" M 96.628 236.702 C 90.592 237.862 84.574 239.116 78.577 240.465 L 80.697 248.471 C 85.86 244.352 91.174 240.426 96.628 236.702 L 96.628 236.702 Z  M 106.394 368.183 C 105.835 366.399 105.305 364.605 104.804 362.803 L 91.59 353.555 C 90.762 352.978 90.217 352.076 90.092 351.074 L 83.653 298.727 C 78.879 301.284 73.369 304.422 71.897 305.656 C 70.625 306.702 69.657 309.394 71.036 321.866 C 72.745 337.251 80.537 366.238 84.725 370.453 C 89.762 371.339 100.922 369.791 106.394 368.183 Z  M 185.37 229.438 C 195.35 226.647 205.439 224.259 215.611 222.282 C 200.767 222.826 185.913 223.514 171.084 224.352 C 162.466 224.827 153.894 225.411 145.319 226.061 C 141.023 226.391 136.755 226.734 132.502 227.201 C 131.283 227.318 130.089 227.45 128.871 227.61 C 117.686 234.303 74.786 261.233 45.337 296.447 C 73.953 276.555 123.81 246.669 185.37 229.438 Z  M 179.842 254.911 C 188.163 246.653 196.75 239.841 204.332 234.516 C 175.109 241.301 148.209 251.265 124.643 262.104 C 142.966 259.154 161.374 256.756 179.842 254.911 L 179.842 254.911 Z  M 292.005 221.262 C 286.089 221.168 280.173 221.114 274.256 221.102 L 274.243 221.102 C 265.564 221.114 256.868 221.208 248.158 221.381 L 232.111 228.986 L 231.887 229.108 C 229.475 230.286 208.403 240.917 188.574 259.882 C 206.348 250.538 232.469 238.333 263.205 228.869 C 272.699 225.947 282.307 223.409 292.005 221.262 L 292.005 221.262 Z  M 282.237 269.356 C 286.914 266.535 291.406 263.3 295.671 259.855 C 289.462 259.74 283.252 259.678 277.041 259.669 C 251.091 259.669 226.85 260.731 204.878 262.386 C 182.836 273.16 169.358 282.024 169.043 282.25 L 147.876 296.368 L 162.413 275.506 C 164.783 272.1 167.308 268.806 169.982 265.634 C 145.571 268.361 125.242 271.596 110.053 274.394 L 117.83 337.449 L 144.591 356.191 L 229.541 337.304 L 245.444 284.916 C 245.711 284.053 246.292 283.327 247.049 282.887 C 247.3 282.727 247.564 282.611 247.856 282.529 C 248.346 282.397 256.842 279.972 266.636 278.779 L 282.237 269.356 L 282.237 269.356 Z  M 290.824 470.657 C 293.551 470.429 296.27 470.106 298.975 469.689 C 295.868 466.456 292.823 463.164 289.841 459.814 C 288.225 463.527 286.586 467.23 284.926 470.923 L 285.55 470.923 C 287.231 470.923 289.072 470.74 290.824 470.657 Z  M 335.366 489.754 C 323.838 488.906 313.354 484.109 304.896 475.732 L 303.611 474.422 C 299.482 475.253 295.31 475.855 291.114 476.225 C 289.326 476.291 287.63 476.446 285.761 476.446 L 282.988 476.474 L 281.932 476.446 C 270.678 493.187 245.685 496.447 244.543 496.594 C 243.521 496.717 242.504 496.875 241.493 497.069 C 255.425 500.888 269.642 502.544 283.666 501.602 C 297.726 500.662 315.992 497.612 335.366 489.754 L 335.366 489.754 Z  M 326.185 228.417 C 327.149 227.211 328.051 226.048 328.858 224.987 C 320.456 225.835 312.186 227.054 304.101 228.59 C 276.417 233.772 250.85 242.388 229.579 251.214 C 245.388 250.442 261.214 250.053 277.041 250.048 C 287.046 250.048 296.773 250.218 306.234 250.498 C 314.372 242.677 321.238 234.676 326.185 228.417 Z  M 402.664 226.048 L 402.586 226.018 C 394.206 225.389 385.82 224.834 377.43 224.352 C 365.772 223.694 354.109 223.123 342.443 222.64 C 341.134 224.564 339.791 226.464 338.413 228.338 C 332.068 236.926 319.476 252.684 303.332 266.045 C 326.185 261.949 365.819 251.81 400.107 227.889 C 400.968 227.277 401.816 226.642 402.664 226.048 L 402.664 226.048 Z  M 441.153 358.126 L 437.56 360.642 L 427.886 367.427 L 417.402 374.77 C 416.689 375.263 415.824 375.485 414.962 375.395 L 310.65 363.534 L 303.058 362.671 C 301.648 362.509 300.469 361.525 300.059 360.167 L 283.732 306.413 C 281.005 306.042 278.575 305.854 276.539 305.854 C 274.467 305.854 272.055 306.042 269.327 306.413 L 253.475 358.616 C 253.105 359.834 252.099 360.764 250.85 361.038 L 139.657 385.8 C 139.4 385.85 139.139 385.876 138.877 385.876 C 138.161 385.876 137.445 385.663 136.836 385.229 L 132.794 382.418 L 120.694 373.95 L 120.694 373.922 L 115.804 370.504 C 116.149 371.604 116.545 372.68 116.931 373.752 L 116.916 373.764 C 117.858 376.56 127.228 403.516 146.274 429.903 C 160.874 425.584 175.43 421.118 189.94 416.504 C 201.43 398.798 217.785 381.237 229.409 380.628 C 231.458 380.527 233.508 380.475 235.559 380.47 C 241.244 380.47 246.681 380.882 251.711 381.478 C 247.432 377.593 246.559 373.033 245.934 371.02 C 245.934 371.02 260.765 382.616 279.649 380.194 C 298.538 377.753 310.264 366.871 310.264 366.871 C 310.264 366.871 310.211 374.813 301.981 380.958 C 317.808 376.174 324.354 374.531 328.833 374.531 C 333.777 374.531 336.214 376.598 338.347 378.419 C 338.759 378.749 339.17 379.104 339.645 379.49 C 350.023 387.672 360.384 395.876 370.727 404.102 C 375.683 404.684 391.398 406.471 401.301 407.388 C 407.011 407.901 412.166 408.34 417.216 408.34 C 418.847 408.34 420.373 408.274 421.815 408.18 C 428.366 395.688 434.249 381.529 439.244 365.548 C 439.917 363.095 440.572 360.617 441.153 358.126 L 441.153 358.126 Z  M 435.255 327.803 L 442.915 274.178 C 421.312 270.245 389.72 265.486 351.018 262.518 C 316.084 274.567 286.822 278.154 285.058 278.274 L 283.019 278.418 C 294.163 279.376 304.66 282.372 305.188 282.529 C 306.343 282.875 307.245 283.761 307.603 284.916 L 323.44 337.053 L 408.271 346.689 L 435.255 327.803 L 435.255 327.803 Z  M 455.916 339.097 L 464.582 278.484 C 459.704 277.429 454.813 276.432 449.911 275.493 L 442.08 330.332 C 441.937 331.304 441.405 332.176 440.607 332.749 L 411.239 353.288 C 410.549 353.779 409.665 354.005 408.814 353.911 L 320.311 343.853 C 318.901 343.696 317.718 342.718 317.3 341.362 L 301.362 288.88 C 297.091 287.778 286.132 285.221 276.539 285.221 C 266.903 285.221 255.954 287.778 251.685 288.88 L 235.742 341.362 C 235.368 342.583 234.366 343.509 233.119 343.787 L 144.616 363.478 C 144.337 363.534 144.101 363.562 143.834 363.562 C 143.118 363.562 142.404 363.349 141.805 362.922 L 112.45 342.367 C 111.624 341.789 111.081 340.889 110.954 339.889 L 103.042 275.704 C 99.754 276.341 96.788 276.951 94.135 277.504 C 92.253 278.54 90.397 279.574 88.569 280.61 L 96.971 348.621 L 139.634 378.508 L 247.275 354.561 L 263.165 302.213 C 263.553 300.906 264.655 299.936 266.001 299.717 C 270.031 299.07 273.553 298.739 276.539 298.739 C 279.492 298.739 283.029 299.07 287.046 299.717 C 288.399 299.93 289.496 300.898 289.882 302.213 L 306.181 355.861 L 414.421 368.168 L 455.916 339.097 L 455.916 339.097 Z  M 467.896 269.369 L 475.518 240.465 C 464.465 237.962 444.109 233.772 416.384 229.849 C 402.228 240.029 386.734 248.164 371.509 254.657 C 418.092 259.192 452.323 265.936 467.896 269.369 L 467.896 269.369 Z  M 481.11 314.546 C 482.278 301.614 481.259 298.831 479.944 297.769 C 478.631 296.67 474.193 294.154 469.871 291.808 L 462.756 341.636 C 462.617 342.611 462.08 343.484 461.274 344.048 L 451.092 351.168 C 450.284 355.246 449.995 357.171 448.999 361.16 C 454.816 362.511 464.359 363.562 468.904 362.683 C 473.027 358.204 479.69 330.398 481.11 314.546 L 481.11 314.546 Z  M 511.816 191.589 C 512.202 199.047 511.98 206.524 511.153 213.946 C 510.355 221.387 508.969 228.752 507.009 235.974 C 505.988 239.612 504.789 243.198 503.416 246.719 C 502.709 248.509 501.949 250.277 501.136 252.021 C 500.725 252.895 500.288 253.758 499.798 254.647 L 499.069 255.957 C 498.791 256.458 498.495 256.948 498.18 257.427 L 497.426 258.598 L 496.246 259.202 C 494.986 259.855 493.955 260.342 492.81 260.875 L 489.489 262.373 C 487.259 263.326 485.022 264.227 482.78 265.1 C 481.216 265.712 479.837 266.271 478.527 266.827 L 474.83 280.874 C 474.739 280.848 473.624 280.567 471.545 280.066 L 471.344 281.534 C 475.424 283.667 483.441 287.991 486.173 290.246 C 491.673 294.791 492.059 301.987 490.84 315.437 C 490.215 322.344 487.925 335.778 484.743 348.119 C 479.253 369.364 476.339 371.857 472.575 372.822 C 470.666 373.312 467.726 373.802 464.874 373.802 C 459.072 373.802 451.17 373.962 445.856 372.68 C 444.492 377.512 440.595 390.119 432.881 405.862 C 433.267 405.674 433.65 405.519 433.995 405.334 C 443.51 400.337 461.802 392.369 462.569 392.026 L 477.016 385.747 L 469.62 399.661 C 469.447 399.964 453.582 429.799 443.868 449.282 C 434.221 468.577 416.13 472.779 405.3 475.268 C 403.67 475.654 402.124 476.012 400.864 476.357 C 393.094 478.541 377.364 482.294 363.49 485.63 L 362.987 485.739 C 354.102 491.24 344.711 495.878 334.942 499.59 C 297.647 513.716 258.34 512.921 222.701 499.827 C 216.911 500.571 209.301 501.482 199.168 502.635 C 194.762 503.125 190.484 503.379 186.403 503.379 C 152.449 503.379 134.452 486.135 121.317 469.252 C 107.255 451.174 90.054 424.335 89.326 423.212 L 79.359 407.652 L 96.214 415.232 C 104.286 418.865 128.276 429.969 135.14 433.151 C 135.696 432.993 136.239 432.833 136.783 432.673 C 125.374 416.4 116.017 397.843 109.403 377.291 C 103.781 378.985 95.128 380.298 88.396 380.298 C 85.933 380.298 83.732 380.112 82.038 379.714 C 78.273 378.853 73.976 375.224 68.134 354.639 C 64.741 342.687 62.21 329.644 61.468 322.928 C 60.008 309.818 60.275 302.794 65.721 298.26 C 69.007 295.517 80.085 289.7 82.378 288.509 L 81.888 284.464 C 46.688 305.151 25.592 323.428 25.168 323.801 L 0 345.892 L 17.932 317.613 C 32.126 295.2 48.518 277.083 63.601 263.128 C 62.977 262.876 62.395 262.625 61.783 262.373 L 58.457 260.875 C 57.317 260.342 56.283 259.855 55.026 259.202 L 53.846 258.598 L 53.092 257.427 C 52.668 256.792 52.482 256.434 52.203 255.957 L 51.461 254.647 C 50.997 253.758 50.545 252.895 50.136 252.021 C 49.313 250.282 48.553 248.514 47.858 246.719 C 46.484 243.199 45.284 239.613 44.263 235.974 C 42.296 228.753 40.909 221.388 40.116 213.946 C 39.299 206.523 39.077 199.047 39.454 191.589 C 39.652 187.864 40.01 184.142 40.525 180.442 C 40.792 178.588 41.071 176.73 41.442 174.889 C 41.825 173.007 42.198 171.258 42.767 169.204 L 43.163 167.761 L 44.197 166.949 C 50.07 162.338 56.403 158.854 62.845 155.766 C 68.131 153.301 73.521 151.067 79.001 149.07 C 94.216 106.849 120.375 69.409 154.755 43.314 C 190.301 16.343 232.101 2.083 275.635 2.083 C 319.171 2.083 360.971 16.343 396.515 43.314 C 430.892 69.409 457.056 106.849 472.261 149.058 C 477.72 151.074 483.113 153.26 488.428 155.766 C 494.864 158.854 501.202 162.338 507.07 166.949 L 508.106 167.761 L 508.505 169.204 C 509.089 171.258 509.457 173.007 509.828 174.889 C 510.203 176.73 510.493 178.588 510.742 180.442 C 511.262 184.142 511.633 187.864 511.816 191.589 L 511.816 191.589 Z  M 103.677 144.701 C 97.235 147.296 90.836 149.974 84.58 152.915 C 78.311 155.779 72.148 158.854 66.262 162.284 C 60.831 165.413 55.621 168.846 51.022 172.718 C 50.824 173.883 50.639 175.153 50.481 176.359 C 50.27 178.069 50.092 179.784 49.948 181.501 C 49.661 184.957 49.508 188.423 49.488 191.891 C 49.42 198.836 49.897 205.783 50.771 212.659 C 51.725 219.553 52.985 226.404 54.851 233.018 C 55.756 236.313 56.818 239.562 58.033 242.756 C 58.629 244.35 59.292 245.899 59.983 247.41 C 60.326 248.164 60.684 248.908 61.042 249.622 L 61.481 250.457 C 61.996 250.724 62.527 250.985 63.03 251.226 L 66.117 252.697 C 67.842 253.494 70.213 254.619 72.173 255.495 L 72.493 255.203 L 66.78 233.414 C 67.986 233.084 78.857 230.273 97.58 226.708 C 96.07 226.431 94.533 226.099 93.035 225.741 C 88.768 224.701 84.58 223.364 80.499 221.739 C 78.476 220.897 76.503 219.941 74.588 218.875 C 72.691 217.788 70.823 216.557 69.378 214.914 C 89.945 221.632 132.448 218.585 170.236 214.688 C 204.797 211.123 239.426 208.817 274.243 208.738 C 309.058 208.817 343.718 211.123 378.253 214.688 C 416.064 218.585 458.569 221.632 479.134 214.914 C 477.689 216.557 475.823 217.788 473.926 218.875 C 472.035 219.951 470.031 220.878 468.018 221.739 C 463.932 223.363 459.738 224.7 455.467 225.741 C 454.842 225.886 454.207 226.033 453.57 226.165 C 474.101 229.969 486.053 233.069 487.326 233.414 L 481.854 254.167 C 482.956 253.677 484.065 253.202 485.149 252.697 L 488.242 251.226 C 488.745 250.985 489.276 250.724 489.791 250.457 L 490.215 249.622 C 490.586 248.908 490.944 248.164 491.289 247.41 C 491.992 245.879 492.646 244.327 493.252 242.756 C 494.462 239.562 495.518 236.313 496.416 233.018 C 498.287 226.404 499.559 219.553 500.499 212.659 C 501.387 205.783 501.852 198.836 501.786 191.891 C 501.77 188.423 501.62 184.957 501.337 181.501 C 501.189 179.783 501.007 178.069 500.791 176.359 C 500.639 175.141 500.458 173.927 500.247 172.718 C 495.646 168.846 490.441 165.413 485.005 162.284 C 479.121 158.854 472.961 155.779 466.677 152.915 C 460.436 149.974 454.024 147.296 447.582 144.701 C 444.357 143.394 441.114 142.133 437.852 140.92 C 434.607 139.663 431.319 138.472 428.033 137.279 C 434.935 138.419 441.778 139.993 448.547 141.73 C 452.96 142.87 457.363 144.157 461.708 145.521 C 430.707 64.475 356.571 11.704 275.635 11.704 C 194.683 11.704 120.562 64.475 89.564 145.521 C 93.914 144.148 98.297 142.884 102.71 141.73 C 109.497 139.993 116.332 138.419 123.241 137.279 C 119.938 138.472 116.665 139.663 113.404 140.92 C 110.157 142.126 106.912 143.401 103.677 144.701 L 103.677 144.701 Z  M 288.32 441.144 L 292.398 446.006 C 292.49 446.123 301.557 456.912 312.638 467.899 C 320.009 475.204 328.912 478.901 339.117 478.901 C 342.603 478.901 346.262 478.452 349.959 477.561 C 353.389 476.725 357.114 475.837 360.933 474.922 C 374.716 471.627 390.327 467.886 397.896 465.766 C 399.527 465.322 401.17 464.919 402.822 464.558 C 412.895 462.232 426.705 459.022 434.021 444.363 C 439.523 433.364 446.943 419.086 452.442 408.622 C 447.674 410.821 442.674 413.205 439.122 415.074 C 433.65 417.948 426.482 419.34 417.216 419.34 C 411.706 419.34 406.295 418.878 400.306 418.345 C 388.338 417.245 368.086 414.863 367.878 414.835 L 366.326 414.663 L 365.105 413.683 C 364.922 413.551 347.176 399.41 332.832 388.131 C 332.301 387.696 331.772 387.258 331.245 386.818 C 329.734 385.531 329.734 385.531 328.833 385.531 C 324.232 385.531 310.863 389.68 281.569 398.76 L 279.771 399.331 L 278.006 398.666 C 277.806 398.6 258.589 391.473 235.559 391.473 C 233.675 391.473 231.796 391.521 229.965 391.615 C 227.657 391.734 214.712 397.881 198.157 424.073 L 197.083 425.754 L 195.186 426.363 C 175.616 432.639 155.952 438.617 136.201 444.297 L 134.238 444.854 L 132.382 443.99 C 132.184 443.912 120.362 438.427 109.111 433.255 C 115.248 442.319 123.094 453.626 129.998 462.496 C 142.057 478.028 157.261 492.379 186.403 492.379 C 190.06 492.379 193.944 492.153 197.934 491.701 C 227.578 488.35 235.214 486.999 239.322 486.283 C 240.711 486.044 241.813 485.843 243.22 485.673 C 243.443 485.645 267.723 482.507 274.535 467.224 C 281.559 451.521 282.975 447.781 283.029 447.639 L 285.51 441.027 C 285.51 441.027 285.817 439.313 286.32 438.782 L 286.332 438.795 L 286.381 438.836 C 287.163 439.394 288.32 441.144 288.32 441.144 L 288.32 441.144 Z " fill-rule="evenodd" fill="rgb(41,44,45)"/></g></g></svg>