<?xml version="1.0" encoding="UTF-8" standalone="no"?><!-- Generator: Gravit.io --><svg xmlns="http://www.w3.org/2000/svg" xmlns:xlink="http://www.w3.org/1999/xlink" style="isolation:isolate" viewBox="0 0 512 512" width="512pt" height="512pt"><defs><clipPath id="_clipPath_cqb2mQsM7cAyLCaiJEpht7MU5xWxmAg3"><rect width="512" height="512"/></clipPath></defs><g clip-path="url(#_clipPath_cqb2mQsM7cAyLCaiJEpht7MU5xWxmAg3)"><path d=" M 19.2 2.877 L 492.8 2.877 C 503.404 2.877 512 11.376 512 21.861 L 512 490.139 C 512 500.624 503.404 509.123 492.8 509.123 L 19.2 509.123 C 8.596 509.123 0 500.624 0 490.139 L 0 21.861 C 0 11.376 8.596 2.877 19.2 2.877 Z  M 284.618 272.208 L 284.618 230.688 L 102.4 230.688 L 102.4 272.208 L 167.455 272.208 L 167.455 457.077 L 219.244 457.077 L 219.244 272.208 L 284.618 272.208 Z  M 305.265 452.196 C 313.616 456.405 323.493 459.564 334.896 461.668 C 346.3 463.773 358.317 464.827 370.952 464.827 C 383.265 464.827 394.962 463.668 406.045 461.353 C 417.126 459.038 426.842 455.222 435.193 449.906 C 443.544 444.59 450.156 437.645 455.028 429.066 C 459.899 420.487 462.335 409.883 462.335 397.252 C 462.335 388.095 460.943 380.071 458.159 373.177 C 455.376 366.282 451.361 360.15 446.114 354.782 C 440.868 349.414 434.577 344.599 427.243 340.337 C 419.908 336.075 411.639 332.048 402.431 328.259 C 395.684 325.521 389.634 322.863 384.282 320.285 C 378.927 317.708 374.377 315.075 370.631 312.392 C 366.883 309.707 363.993 306.866 361.958 303.866 C 359.924 300.867 358.907 297.471 358.907 293.682 C 358.907 290.209 359.817 287.078 361.637 284.289 C 363.458 281.499 366.026 279.104 369.346 277.105 C 372.665 275.105 376.733 273.553 381.552 272.447 C 386.369 271.343 391.724 270.79 397.612 270.79 C 401.895 270.79 406.418 271.106 411.183 271.736 C 415.948 272.369 420.739 273.343 425.556 274.657 C 430.376 275.973 435.06 277.63 439.611 279.632 C 444.161 281.632 448.363 283.947 452.218 286.577 L 452.218 239.372 C 444.401 236.424 435.863 234.239 426.6 232.82 C 417.34 231.398 406.712 230.688 394.72 230.688 C 382.516 230.688 370.952 231.977 360.031 234.557 C 349.109 237.135 339.5 241.161 331.202 246.634 C 322.903 252.108 316.346 259.08 311.528 267.552 C 306.709 276.026 304.301 286.157 304.301 297.944 C 304.301 312.997 308.717 325.839 317.551 336.468 C 326.385 347.099 339.794 356.099 357.782 363.466 C 364.85 366.309 371.433 369.097 377.537 371.835 C 383.639 374.571 388.912 377.413 393.355 380.359 C 397.799 383.307 401.305 386.516 403.876 389.99 C 406.446 393.463 407.731 397.41 407.731 401.832 C 407.731 405.095 406.927 408.121 405.32 410.909 C 403.714 413.7 401.278 416.12 398.013 418.172 C 394.748 420.224 390.68 421.831 385.808 422.987 C 380.937 424.146 375.234 424.724 368.703 424.724 C 357.568 424.724 346.539 422.804 335.618 418.963 C 324.699 415.121 314.58 409.358 305.265 401.674 L 305.265 452.196 Z " fill-rule="evenodd" fill="rgb(49,120,198)"/></g></svg>