<?xml version="1.0" encoding="UTF-8" standalone="no"?><!-- Generator: Gravit.io --><svg xmlns="http://www.w3.org/2000/svg" xmlns:xlink="http://www.w3.org/1999/xlink" style="isolation:isolate" viewBox="0 0 512 512" width="512pt" height="512pt"><defs><clipPath id="_clipPath_t6NeoIzNcalPhQbEmrIxHkaxImOiB9NR"><rect width="512" height="512"/></clipPath></defs><g clip-path="url(#_clipPath_t6NeoIzNcalPhQbEmrIxHkaxImOiB9NR)"><circle vector-effect="non-scaling-stroke" cx="256" cy="256" r="255.9999999999999" fill="rgb(221,72,20)"/><path d=" M 81.929 221.813 C 63.043 221.813 47.742 237.113 47.742 256 C 47.742 274.876 63.043 290.176 81.929 290.176 C 100.805 290.176 116.105 274.876 116.105 256 C 116.1 237.113 100.799 221.813 81.929 221.813 Z  M 325.961 377.155 C 309.611 386.598 304.008 407.49 313.451 423.83 C 322.883 440.18 343.775 445.783 360.126 436.34 C 376.477 426.908 382.08 406.016 372.636 389.665 C 363.199 373.331 342.295 367.723 325.961 377.155 Z  M 156.166 256 C 156.166 222.225 172.947 192.381 198.617 174.313 L 173.63 132.462 C 143.724 152.45 121.477 182.994 112.231 218.769 C 123.018 227.574 129.926 240.976 129.926 256 C 129.926 271.012 123.018 284.415 112.231 293.22 C 121.465 329.006 143.713 359.55 173.63 379.538 L 198.617 337.675 C 172.947 319.619 156.166 289.781 156.166 256 Z  M 256 156.155 C 308.153 156.155 350.948 196.143 355.433 247.138 L 404.135 246.421 C 401.74 208.772 385.293 174.974 360.019 150.117 C 347.023 155.026 332.01 154.274 319.037 146.796 C 306.041 139.296 297.891 126.644 295.66 112.909 C 283.031 109.424 269.736 107.515 255.994 107.515 C 232.363 107.515 210.026 113.061 190.195 122.883 L 213.945 165.44 C 226.721 159.499 240.976 156.155 256 156.155 Z  M 256 355.834 C 240.976 355.834 226.721 352.49 213.951 346.543 L 190.201 389.1 C 210.037 398.928 232.375 404.48 256 404.48 C 269.747 404.48 283.037 402.571 295.666 399.074 C 297.897 385.339 306.047 372.698 319.043 365.187 C 332.027 357.697 347.028 356.958 360.024 361.866 C 385.299 337.015 401.746 303.211 404.141 265.562 L 355.427 264.845 C 350.942 315.857 308.153 355.834 256 355.834 Z  M 325.95 134.823 C 342.301 144.266 363.193 138.675 372.625 122.324 C 382.068 105.973 376.477 85.081 360.126 75.638 C 343.775 66.206 322.883 71.808 313.44 88.159 C 304.008 104.499 309.611 125.391 325.95 134.823 Z " fill="rgb(255,255,255)"/></g></svg>