<?xml version="1.0" encoding="UTF-8" standalone="no"?><!-- Generator: Gravit.io --><svg xmlns="http://www.w3.org/2000/svg" xmlns:xlink="http://www.w3.org/1999/xlink" style="isolation:isolate" viewBox="0 0 512 512" width="512pt" height="512pt"><defs><clipPath id="_clipPath_Ng3Ro3UuSBQMJmkx07t9jLdxGXGgoBqO"><rect width="512" height="512"/></clipPath></defs><g clip-path="url(#_clipPath_Ng3Ro3UuSBQMJmkx07t9jLdxGXGgoBqO)"><g><path d=" M 503.243 86.272 L 503.243 39.424 L 390.837 104.875 L 390.837 144.469 L 300.939 338.688 L 255.947 369.749 L 255.947 512 L 352.32 456.363 L 503.243 86.272 Z  M 255.957 268.459 L 188.565 110.848 L 188.565 66.304 L 188.139 66.133 L 121.152 104.875 L 121.152 144.469 L 211.051 347.221 L 255.957 324.949 L 255.957 268.459 Z " fill="rgb(17,89,204)"/><path d=" M 435.84 0 L 323.531 65.877 L 323.445 65.877 L 323.445 110.848 L 255.968 268.459 L 255.968 321.109 L 211.061 347.221 L 121.163 144.469 L 121.163 104.789 L 188.651 65.963 L 76.171 0 L 8.757 39.424 L 8.757 87.723 L 160.512 456.789 L 255.957 512 L 255.957 373.333 L 300.949 347.221 L 300.352 346.88 L 390.848 144.469 L 390.848 104.789 L 503.243 39.424 L 435.84 0 Z " fill="rgb(18,126,255)"/></g></g></svg>