<?xml version="1.0" encoding="UTF-8" standalone="no"?><!-- Generator: Gravit.io --><svg xmlns="http://www.w3.org/2000/svg" xmlns:xlink="http://www.w3.org/1999/xlink" style="isolation:isolate" viewBox="0 0 512 512" width="512pt" height="512pt"><defs><clipPath id="_clipPath_5oStpiYGIDZ83c0lHAAMt11lECfFY48J"><rect width="512" height="512"/></clipPath></defs><g clip-path="url(#_clipPath_5oStpiYGIDZ83c0lHAAMt11lECfFY48J)"><clipPath id="_clipPath_F89o4x2nAdV1eJ8zYrGWSqAAd8gkp4cu"><path d=" M 363.068 508.503 C 371.132 511.645 380.328 511.443 388.468 507.527 L 493.88 456.805 C 504.956 451.475 512 440.263 512 427.965 L 512 84.035 C 512 71.737 504.956 60.527 493.88 55.197 L 388.468 4.473 C 377.786 -0.667 365.284 0.592 355.91 7.408 C 354.57 8.381 353.294 9.468 352.098 10.666 L 150.298 194.772 L 62.398 128.049 C 54.216 121.837 42.771 122.346 35.171 129.259 L 6.979 154.904 C -2.317 163.36 -2.328 177.984 6.956 186.454 L 83.185 255.999 L 6.956 325.545 C -2.328 334.015 -2.317 348.639 6.979 357.095 L 35.171 382.739 C 42.771 389.653 54.216 390.161 62.398 383.951 L 150.298 317.227 L 352.098 501.333 C 355.29 504.527 359.038 506.933 363.068 508.503 Z  M 384.078 139.77 L 230.958 255.999 L 384.078 372.229 L 384.078 139.77 Z " fill-rule="evenodd" fill="rgb(255,255,255)"/></clipPath><g clip-path="url(#_clipPath_F89o4x2nAdV1eJ8zYrGWSqAAd8gkp4cu)"><g><path d=" M 493.88 55.276 L 388.386 4.482 C 376.176 -1.397 361.582 1.083 351.998 10.666 L 6.647 325.545 C -2.642 334.015 -2.631 348.639 6.67 357.095 L 34.88 382.739 C 42.484 389.653 53.936 390.161 62.124 383.951 L 478.006 68.453 C 491.958 57.869 511.998 67.82 511.998 85.333 L 511.998 84.108 C 511.998 71.815 504.956 60.609 493.88 55.276 Z " fill="rgb(0,101,169)"/><g filter="url(#bxF0DeXgEzaUF2VfDiFXkQIELnQrQjjA)"><path d=" M 493.88 456.723 L 388.386 507.517 C 376.176 513.395 361.582 510.915 351.998 501.333 L 6.647 186.454 C -2.642 177.984 -2.631 163.36 6.67 154.904 L 34.88 129.259 C 42.484 122.346 53.936 121.837 62.124 128.048 L 478.006 443.545 C 491.958 454.129 511.998 444.179 511.998 426.665 L 511.998 427.891 C 511.998 440.183 504.956 451.389 493.88 456.723 Z " fill="rgb(0,122,204)"/></g><defs><filter id="bxF0DeXgEzaUF2VfDiFXkQIELnQrQjjA" x="-200%" y="-200%" width="400%" height="400%" filterUnits="objectBoundingBox" color-interpolation-filters="sRGB"><feGaussianBlur xmlns="http://www.w3.org/2000/svg" in="SourceGraphic" stdDeviation="10.6667"/><feOffset xmlns="http://www.w3.org/2000/svg" dx="0" dy="0" result="pf_100_offsetBlur"/><feFlood xmlns="http://www.w3.org/2000/svg" flood-color="#000000" flood-opacity="0"/><feComposite xmlns="http://www.w3.org/2000/svg" in2="pf_100_offsetBlur" operator="in" result="pf_100_dropShadow"/><feBlend xmlns="http://www.w3.org/2000/svg" in="SourceGraphic" in2="pf_100_dropShadow" mode="normal"/></filter></defs><g filter="url(#eRuZmOAlKRtWVBFaqqK9o007bXJzRZPb)"><path d=" M 388.392 507.525 C 376.178 513.399 361.584 510.917 352 501.333 C 363.808 513.141 384 504.777 384 488.077 L 384 23.92 C 384 7.22 363.808 -1.143 352 10.666 C 361.584 1.082 376.178 -1.402 388.392 4.472 L 493.868 55.196 C 504.952 60.526 512 71.736 512 84.035 L 512 427.965 C 512 440.263 504.952 451.473 493.868 456.803 L 388.392 507.525 Z " fill="rgb(31,156,240)"/></g><defs><filter id="eRuZmOAlKRtWVBFaqqK9o007bXJzRZPb" x="-200%" y="-200%" width="400%" height="400%" filterUnits="objectBoundingBox" color-interpolation-filters="sRGB"><feGaussianBlur xmlns="http://www.w3.org/2000/svg" in="SourceGraphic" stdDeviation="10.6667"/><feOffset xmlns="http://www.w3.org/2000/svg" dx="0" dy="0" result="pf_100_offsetBlur"/><feFlood xmlns="http://www.w3.org/2000/svg" flood-color="#000000" flood-opacity="0"/><feComposite xmlns="http://www.w3.org/2000/svg" in2="pf_100_offsetBlur" operator="in" result="pf_100_dropShadow"/><feBlend xmlns="http://www.w3.org/2000/svg" in="SourceGraphic" in2="pf_100_dropShadow" mode="normal"/></filter></defs><g style="opacity:0.25;"><g opacity="0.25"><linearGradient id="_lgradient_0" x1="0.5000004841048552" y1="-3.916454121080659e-9" x2="0.500000484104855" y2="0.9999992102054935" gradientTransform="matrix(512.001,0,0,509.36,-0.313,1.319)" gradientUnits="userSpaceOnUse"><stop offset="0%" stop-opacity="1" style="stop-color:rgb(255,255,255)"/><stop offset="100%" stop-opacity="0" style="stop-color:rgb(255,255,255)"/></linearGradient><path d=" M 362.756 508.503 C 370.82 511.643 380.016 511.443 388.154 507.527 L 493.566 456.803 C 504.644 451.473 511.688 440.263 511.688 427.965 L 511.688 84.035 C 511.688 71.737 504.644 60.526 493.568 55.196 L 388.154 4.473 C 377.474 -0.667 364.972 0.592 355.596 7.407 C 354.258 8.381 352.982 9.468 351.784 10.666 L 149.985 194.771 L 62.086 128.048 C 53.903 121.837 42.458 122.346 34.858 129.259 L 6.666 154.904 C -2.63 163.36 -2.64 177.984 6.643 186.454 L 82.873 255.999 L 6.643 325.545 C -2.64 334.015 -2.63 348.639 6.666 357.095 L 34.858 382.739 C 42.458 389.653 53.903 390.161 62.086 383.951 L 149.985 317.227 L 351.784 501.333 C 354.976 504.527 358.726 506.933 362.756 508.503 Z  M 383.766 139.769 L 230.646 255.999 L 383.766 372.229 L 383.766 139.769 Z " fill-rule="evenodd" fill="url(#_lgradient_0)"/></g></g></g></g></g></svg>