<?xml version="1.0" encoding="UTF-8" standalone="no"?><!-- Generator: Gravit.io --><svg xmlns="http://www.w3.org/2000/svg" xmlns:xlink="http://www.w3.org/1999/xlink" style="isolation:isolate" viewBox="0 0 512 512" width="512pt" height="512pt"><defs><clipPath id="_clipPath_HgnzzOhjFVaaJJrydbFJLjNq64c1b8qH"><rect width="512" height="512"/></clipPath></defs><g clip-path="url(#_clipPath_HgnzzOhjFVaaJJrydbFJLjNq64c1b8qH)"><g><path d=" M 256 0 C 397.344 0 512 114.656 512 256 C 512 397.344 397.344 512 256 512 C 114.656 512 0 397.344 0 256 C 0 114.656 114.656 0 256 0 Z " fill="rgb(44,142,187)"/><path d=" M 430.159 333.591 C 428.38 319.555 416.519 309.869 401.297 310.066 C 378.564 310.363 359.487 322.125 346.836 329.934 C 341.893 332.998 337.643 335.271 333.986 336.951 C 334.777 325.486 334.085 310.462 328.154 293.955 C 320.939 274.187 311.253 262.029 304.334 255.012 C 312.34 243.348 323.311 226.347 328.451 200.056 C 332.899 177.619 331.515 142.727 321.334 123.157 C 319.259 119.203 315.799 116.337 311.45 115.151 C 309.671 114.656 306.31 113.668 299.688 115.546 C 289.705 94.888 286.246 92.714 283.577 90.934 C 278.042 87.376 271.518 86.585 265.39 88.859 C 257.186 91.824 250.168 99.731 243.546 113.767 C 242.558 115.842 241.668 117.819 240.877 119.796 C 228.324 120.686 208.556 125.232 191.852 143.32 C 189.776 145.594 185.724 147.274 181.473 148.856 L 181.572 148.856 C 172.874 151.92 168.92 159.036 164.077 171.886 C 157.356 189.875 164.275 207.568 171.095 219.033 C 161.804 227.336 149.449 240.581 142.925 256.099 C 134.82 275.274 133.931 294.054 134.227 304.235 C 127.308 311.549 116.633 325.288 115.447 340.707 C 113.866 362.255 121.674 376.883 125.134 382.221 C 126.122 383.802 127.209 385.087 128.395 386.372 C 128 389.041 127.901 391.907 128.494 394.873 C 129.779 401.792 134.128 407.425 140.751 410.984 C 153.798 417.903 171.985 420.868 186.02 413.85 C 191.061 419.188 200.253 424.327 216.958 424.327 L 217.946 424.327 C 222.196 424.327 276.164 421.461 291.88 417.606 C 298.897 415.926 303.741 412.961 306.903 410.292 C 316.985 407.129 344.859 397.64 371.151 380.639 C 389.733 368.581 396.158 366.011 409.995 362.65 C 423.438 359.388 431.839 347.132 430.159 333.591 L 430.159 333.591 Z  M 406.635 348.12 C 390.82 351.876 382.814 355.336 363.243 368.086 C 332.701 387.855 299.293 397.047 299.293 397.047 C 299.293 397.047 296.525 401.198 288.519 403.076 C 274.681 406.437 222.592 409.303 217.847 409.402 C 205.097 409.501 197.288 406.141 195.114 400.902 C 188.491 385.087 204.602 378.168 204.602 378.168 C 204.602 378.168 201.044 375.994 198.968 374.017 C 197.09 372.139 195.114 368.383 194.52 369.767 C 192.049 375.796 190.764 390.524 184.142 397.146 C 175.049 406.338 157.85 403.274 147.669 397.937 C 136.5 392.006 148.46 378.069 148.46 378.069 C 148.46 378.069 142.431 381.628 137.588 374.314 C 133.239 367.592 129.186 356.127 130.273 341.992 C 131.459 325.881 149.449 310.264 149.449 310.264 C 149.449 310.264 146.286 286.443 156.664 262.029 C 166.054 239.79 191.358 221.9 191.358 221.9 C 191.358 221.9 170.107 198.375 178.014 177.223 C 183.154 163.385 185.229 163.484 186.91 162.891 C 192.84 160.618 198.573 158.147 202.823 153.501 C 224.074 130.57 251.157 134.919 251.157 134.919 C 251.157 134.919 264.006 95.876 275.867 103.487 C 279.524 105.859 292.67 135.117 292.67 135.117 C 292.67 135.117 306.706 126.913 308.287 129.977 C 316.788 146.483 317.776 178.014 314.02 197.189 C 307.694 228.819 291.88 245.819 285.554 256.494 C 284.071 258.965 302.554 266.774 314.218 299.095 C 324.992 328.649 315.404 353.458 317.084 356.225 C 317.381 356.72 317.48 356.917 317.48 356.917 C 317.48 356.917 329.835 357.906 354.644 342.585 C 367.889 334.381 383.605 325.189 401.495 324.992 C 418.792 324.695 419.682 344.958 406.635 348.12 L 406.635 348.12 Z " fill="rgb(255,255,255)"/></g></g></svg>