<?xml version="1.0" encoding="utf-8"?>
<!-- Generator: Adobe Illustrator 23.0.1, SVG Export Plug-In . SVG Version: 6.00 Build 0)  -->
<!DOCTYPE svg PUBLIC "-//W3C//DTD SVG 1.1//EN" "http://www.w3.org/Graphics/SVG/1.1/DTD/svg11.dtd" [
	<!ENTITY ns_extend "http://ns.adobe.com/Extensibility/1.0/">
	<!ENTITY ns_ai "http://ns.adobe.com/AdobeIllustrator/10.0/">
	<!ENTITY ns_graphs "http://ns.adobe.com/Graphs/1.0/">
	<!ENTITY ns_vars "http://ns.adobe.com/Variables/1.0/">
	<!ENTITY ns_imrep "http://ns.adobe.com/ImageReplacement/1.0/">
	<!ENTITY ns_sfw "http://ns.adobe.com/SaveForWeb/1.0/">
	<!ENTITY ns_custom "http://ns.adobe.com/GenericCustomNamespace/1.0/">
	<!ENTITY ns_adobe_xpath "http://ns.adobe.com/XPath/1.0/">
]>
<svg version="1.1" id="Ebene_1" xmlns:x="&ns_extend;" xmlns:i="&ns_ai;" xmlns:graph="&ns_graphs;"
	 xmlns="http://www.w3.org/2000/svg" xmlns:xlink="http://www.w3.org/1999/xlink" x="0px" y="0px" viewBox="0 0 566 566"
	 style="enable-background:new 0 0 566 566;" xml:space="preserve">
<style type="text/css">
	.st0{fill:#124A93;}
	.st1{fill:url(#SVGID_1_);}
	.st2{fill:#FFFFFF;}
	.st3{fill:#1C8FCE;}
	.st4{fill:url(#SVGID_2_);}
</style>
<metadata>
	<sfw  xmlns="&ns_sfw;">
		<slices></slices>
		<sliceSourceBounds  bottomLeftOrigin="true" height="566" width="566" x="0" y="0"></sliceSourceBounds>
	</sfw>
</metadata>
<g>
	<path class="st0" d="M0,283C0,126.7,126.7,0,283,0c156.3,0,283,126.7,283,283c0,156.3-126.7,283-283,283C126.7,566,0,439.3,0,283"
		/>
	<linearGradient id="SVGID_1_" gradientUnits="userSpaceOnUse" x1="91.3883" y1="91.3875" x2="474.6071" y2="474.6063">
		<stop  offset="0" style="stop-color:#83A9CF"/>
		<stop  offset="0.1" style="stop-color:#5680B9"/>
		<stop  offset="0.25" style="stop-color:#124A93"/>
	</linearGradient>
	<path class="st1" d="M91.4,91.4C40.2,142.6,12,210.6,12,283c0,72.4,28.2,140.4,79.3,191.6C142.6,525.8,210.6,554,283,554
		c72.4,0,140.4-28.2,191.6-79.4C525.8,423.4,554,355.4,554,283c0-72.4-28.2-140.4-79.4-191.6C423.4,40.2,355.4,12,283,12
		C210.6,12,142.6,40.2,91.4,91.4"/>
	<path class="st2" d="M75.2,283c0,114.6,93.2,207.8,207.8,207.8c114.6,0,207.8-93.2,207.8-207.8c0-114.6-93.2-207.8-207.8-207.8
		C168.4,75.2,75.2,168.4,75.2,283"/>
	<path class="st3" d="M83.2,283c0,110.2,89.6,199.8,199.8,199.8c110.2,0,199.8-89.6,199.8-199.8c0-110.2-89.6-199.8-199.8-199.8
		C172.8,83.2,83.2,172.8,83.2,283"/>
	<linearGradient id="SVGID_2_" gradientUnits="userSpaceOnUse" x1="146.7674" y1="146.7532" x2="419.2425" y2="419.2283">
		<stop  offset="0.4" style="stop-color:#1C8FCE"/>
		<stop  offset="0.6" style="stop-color:#44A4DB"/>
		<stop  offset="1" style="stop-color:#69B9E5"/>
	</linearGradient>
	<path class="st4" d="M90.3,283c0,106.3,86.4,192.8,192.8,192.8c106.3,0,192.8-86.5,192.8-192.8c0-106.3-86.5-192.8-192.8-192.8
		C176.7,90.2,90.3,176.7,90.3,283"/>
	<path class="st2" d="M164.9,164.1h73l118.8,142c0.8,0.9,2.2,0.4,2.2-0.8V198.6c0-13.6-11-24.6-24.6-24.6H327v-10h74v10h-4.9
		c-12.2,0-22.1,9.9-22.1,22.1V400h-9.7L212.3,218.2c-0.4-0.5-1.3-0.2-1.3,0.5v140.3c0,14.4,11.7,26.1,26.1,26.1h5.9v9h-78v-9h8
		c12.2,0,22.1-9.9,22.1-22.1V197.5l-11.1-13.2l-4.1-4.9c-2.9-3.4-7.1-5.4-11.5-5.4h-3.3V164.1z"/>
</g>
</svg>
