<?xml version="1.0" encoding="UTF-8" standalone="no"?><!-- Generator: Gravit.io --><svg xmlns="http://www.w3.org/2000/svg" xmlns:xlink="http://www.w3.org/1999/xlink" style="isolation:isolate" viewBox="0 0 512 512" width="512pt" height="512pt"><defs><clipPath id="_clipPath_vPeuPEaMUf9RX5sRjOAbhuD2cyjkf9Dw"><rect width="512" height="512"/></clipPath></defs><g clip-path="url(#_clipPath_vPeuPEaMUf9RX5sRjOAbhuD2cyjkf9Dw)"><g><path d="M 406 150 L 406 150 C 433.596 150 456 172.404 456 200 L 456 350 C 456 377.596 433.596 400 406 400 L 406 400 C 378.404 400 356 377.596 356 350 L 356 200 C 356 172.404 378.404 150 406 150 Z" style="stroke:none;fill:#000000;stroke-miterlimit:10;"/><path d="M 406 160 L 406 160 C 428.077 160 446 179.221 446 202.895 L 446 347.105 C 446 370.779 428.077 390 406 390 L 406 390 C 383.923 390 366 370.779 366 347.105 L 366 202.895 C 366 179.221 383.923 160 406 160 Z" style="stroke:none;fill:#800000;stroke-miterlimit:10;"/></g><g><path d=" M 306 400 L 206 400 L 206 459.188 C 206 488.335 183.595 512 156 512 L 152.642 512 C 126.899 512 106 489.922 106 462.735 L 106 400 L 106 390 L 106 150 L 106 150 L 106 150 C 106 67.213 173.213 0 256 0 C 338.787 0 406 67.213 406 150 L 406 390 L 406 390 L 406 459.188 C 406 488.335 383.595 512 356 512 L 352.642 512 C 326.899 512 306 489.922 306 462.735 L 306 400 Z " fill-rule="evenodd" fill="rgb(0,0,0)"/><path d=" M 116 150 C 116 72.732 178.732 10 256 10 C 333.268 10 396 72.732 396 150 L 396 150 L 396 150 L 396 390 L 116 390 L 116 150 L 116 150 L 116 150 L 116 150 Z  M 196 390 L 116 390 L 116 456.773 C 116 481.731 132.719 502 153.314 502 L 156 502 C 178.076 502 196 480.275 196 453.517 L 196 390 L 196 390 Z  M 396 390 L 316 390 L 316 456.773 C 316 481.731 332.719 502 353.314 502 L 356 502 C 378.076 502 396 480.275 396 453.517 L 396 390 Z " fill-rule="evenodd" fill="rgb(128,0,0)"/></g><g><path d="M 206 100 L 306 100 C 333.596 100 356 122.404 356 150 L 356 150 C 356 177.596 333.596 200 306 200 L 206 200 C 178.404 200 156 177.596 156 150 L 156 150 C 156 122.404 178.404 100 206 100 Z" style="stroke:none;fill:#000000;stroke-miterlimit:10;"/><path d="M 208.426 110 L 303.574 110 C 326.989 110 346 127.923 346 150 L 346 150 C 346 172.077 326.989 190 303.574 190 L 208.426 190 C 185.011 190 166 172.077 166 150 L 166 150 C 166 127.923 185.011 110 208.426 110 Z" style="stroke:none;fill:#FFFFFF;stroke-miterlimit:10;"/></g></g></svg>