<?xml version="1.0" encoding="utf-8"?>
<svg version="1.1" id="icon-site-logo" xmlns="http://www.w3.org/2000/svg" xmlns:xlink="http://www.w3.org/1999/xlink" x="0px"
	 y="0px" viewBox="0 0 1190.6 1190.6" style="enable-background:new 0 0 1190.6 1190.6;" xml:space="preserve">
<style type="text/css">
	.st0{fill:#FFFFFF;}
	.st1{fill:#0032A0;}
	.st2{fill:#FF0000;}
</style>
<path class="st0" d="M1190.6,595.3c0,328.8-266.5,595.3-595.3,595.3S0,924,0,595.3S266.5,0,595.3,0S1190.6,266.5,1190.6,595.3"/>
<path class="st1" d="M595.1,50.5C294,50.5,50,294.5,50,595.5s244,545.1,545,545.1s545-244,545-545s-244-545-545-545 M1165.3,595.6
	c0,315-255.3,570.3-570.3,570.3S24.8,910.5,24.8,595.5S280.1,25.3,595.1,25.3s570.3,255.3,570.3,570.3"/>
<path class="st1" d="M293.9,379.4c-27.5,32-51.2,86.8-55.6,115.9c-0.2,1.8,1,3.4,2.7,3.8c20,5.5,76.8,19.8,100.3,22.8
	c1.8,0.2,3.5-0.9,3.9-2.7c9.2-42.3,26.3-77.7,37.2-95.4c1-1.7,0.5-3.8-1.2-4.9c-0.2-0.1-0.5-0.3-0.7-0.3
	c-48.6-16-74.5-34.2-82.2-39.5C297,378,295.1,378.1,293.9,379.4 M595.4,319.4c106.8,0,183.2,69.9,195.5,82.1
	c1.2,1.2,2.8,1.6,4.4,1.1c10.6-3.3,21.1-7.1,31.3-11.5c2.3-0.9,3.4-3.4,2.5-5.7c-0.2-0.5-0.5-0.9-0.8-1.3
	C810.1,363.3,731.1,281,595.6,281h-0.7c-135.5,0-214.5,82.2-232.8,103.2c-1.6,1.8-1.4,4.6,0.4,6.2c0.4,0.3,0.8,0.6,1.3,0.8
	c10.2,4.4,20.7,8.2,31.4,11.5c1.6,0.5,3.2,0.1,4.4-1.1c12.3-12.3,88.7-82.1,195.5-82.1L595.4,319.4z"/>
<path class="st1" d="M595.6,853.6c103.5,0,179.6-71.4,190.3-87c0,0,48.4-65.6,48.4-170.6s-48.4-170-48.4-170
	c-8.6-13.9-86.8-87-190.3-87h-0.8c-103.5,0-181.7,73-190.3,87c0,0-48.4,65-48.4,170s48.4,170.6,48.4,170.6
	c10.7,15.6,86.8,87,190.3,87H595.6z"/>
<path class="st1" d="M595.6,261.3c152.7,0,238.4,98.1,253.1,116.3c1.3,1.6,3.6,2.1,5.5,1.1c8.5-4.4,16.7-9.3,24.5-14.6
	c2-1.3,2.6-4,1.3-6c-0.1-0.1-0.1-0.2-0.2-0.3C858.1,332.2,765,223.6,595.3,223.6h-0.1c-170.9,0-264.7,109.2-284.5,134.2
	c-1.5,1.9-1.1,4.6,0.8,6.1c0.1,0.1,0.2,0.1,0.2,0.2c7.9,5.3,16.1,10.2,24.5,14.6c1.9,1,4.1,0.5,5.5-1.1
	c14.7-18.2,100.5-116.3,253.1-116.3H595.6z"/>
<path class="st2" d="M565.4,413.2c0,0-6.1,0.6-7.1-7.8c0,0,11.7-4.7,23.8-2.5C582.1,402.9,569.5,406.3,565.4,413.2 M532,445.9
	c-26.7,8.5-30.8-10.5-24.8-16.6c-3.8,0.5-13,6.4-8.4,16.9c10.2,19,44.9-9,55,7l9.7,5.8l-8.2-2.5c-5.8-1.2-14.1-3-21.4-0.6l-4.7-3.5
	c-0.5,2-0.7,4.1-0.7,6.1h0.1c-10.4,9.1,1.7,18.7,1.7,18.7c-1-3.3-0.2-7,2.1-9.6c0,0-2.6,12.2,10.4,19.7c0,0-7.5-16.5,3-18.3
	c4-0.6,5.7,2.3,11.1,4.3c9,3.3,13.7-4.1,13.8,3.7c0.1,5.9-1.5,8.4-6.6,14.1c-3.6,4-9.2,7.4-15.3,10.3c-10.9,4.5-25.4,8.8-29.7-4
	c0,0-10.9,8.7-3.3,15c0,0-26-14.5-30.3-18.8s-2.7-13.3-10.4-15.4c0,0-0.4-12.4-6-17.7c0,0,5.3-26.1-14.5-27.3c0,0,4.9,7,1.3,11.1
	s-1.3,7.3,1.8,14.1c0,0-6.3-4.4-7.8-10.4s-2.5-9.9-8.9-9.8c0,0-9.2-10.1-18.7,2.1c0,0,9-2.2,9.2,5.5s9,16.9,12.8,19.7
	c0,0-16.2-7.1-25.2-1.3c0,0-11.3-1.6-12.5,11.6c0.6-0.5,9-6.7,11.5-2.7s4.3,5.1,10.6,5.6s15.2,6,16.4,13.4c0,0-18-3.3-19.5,6
	c-3.1,2.3-7.2,2.5-10.5,0.5c0,0,3.7,17.8,41.3,7.8c0,0,26.4,7.6-1.1,17.1c0,0,24.3,0.8,40.4,26.2c9-1,56.2-34.6,56.2-34.6
	s-24.8,35-60.3,45.7c-43.5,13.2-64.9-14-75.2-3.7c0,0-15.6,0.8-16.2,13.5c0,0,8.9-7.2,11.5-2.4c2.9,5.5,16.7,4.8,23.9,4.1
	c0,0-22.8,4.2-23.7,14c0,0-12.7,8.1-7.6,19.2c0,0,4.1-7.7,10.4-7.6s11-0.7,19.7-9.1c0,0-16.4,23.3-6,35c0.7-5.4,5.1-9.5,10.4-10
	c7.8-1.1-0.2-16.2,19.8-14.5c0,0,0.3,7.9-3.2,13.9c0,0,4.9,4.2-6.3,9.7c0,0,14.9,4,23-12.2c2.5-5.1,8.3-30.7,27.4-6.9
	c0,0,6.5-17.9,32.7-21.9c23.1-3.5,7.7,17.9-2.3,23.3c0,0,51.3-4.4,57.3,77.9c0,0-3.3-34.5-25.6-53.6c-16.4-14.1-46.1-19.7-77.2,3
	c0,0,18.8-0.5,12.7,17.4c-6.5,19.2,26.5,40.7,7,46.1c-23.1,6.5-43.2-48.4-61.3-25.8c0,0,10.7-2.2,16,6.6c0,0-18.7-11.2-27.3,9.2
	c0.5-0.2,13.6-7.3,23.7,5.1c0,0-25-12.9-31.5,14c0,0,8.1-7.8,15.8-2c4.1,3.1,11.8-3.7,19.6,3.8c0,0-25-5.9-26.6,19.1
	c0,0,9.2-9.8,23.8-0.6c16.8,10.7,27.7-1.8,27.7-1.8l-4.9,14.1c0,0,22-11.5,36.4-7.3c18.5,5.4,27.3,4.4,29-11.3
	c9-5.2,15.5,7.3,15.5,7.3c2.1-17.8-11.4-19.1-15.1-21.4c-6-3.7,13.9-10.1,13.9-10.1c-4.7-1.5-9.3-3.5-13.6-5.9
	c-18.9-10.8-6.7-28.3,11.9-16.6s28.6,19.9,28.6,19.9c-6,5-11.5,20.6-5.2,33.7c0,0,5.2-19.4,12.9-3.8l0-0.1
	c8,13.7,19.3,23.8,46.3,37.9c15.1,7.8-9.7,30.2-37.3,15.2c-22.3-12.1-28.3,8.6-28.3,8.6s9.6-7,16.4-2.2c0,0-20.1-1.1-22,22.7
	c0.8-0.5,4.4-8.2,10.6-6.4c0,0,7.8-12.5,17.3-5.9c0,0-19-2.3-21.1,30.3c0,0,6.7-11.5,14.8-10.7c0,0,5-17,18.8-8.1
	c0,0-16.9-7.7-17.7,26.9c0,0,6.4-11.8,13.5-9.5c6.3,2.1,27.9,9.6,51.1-14.3h12c0,0,3.2-21.2,13.8-28.4c1.5-0.9,3.1-1.6,4.8-2.1
	c1.4-0.3,2.8-0.4,4.1-0.2c4.9,0.9,7,5.7,7,5.7s2.8-11.1-7.4-24.4c14.2-8.4,13.5-21.7,13.5-21.7c-11.9,11.5-31.3,7.8-40.6,3.8
	c-9.7-4.4-20.7-13.4-8.8-29.7c17.4-24,14.4-45.3,14.6-50.7c0,0,7.3,11.7,5,26.2c0,0,19.7,17.7,54.8,9.6
	c18.5-4.5,26.9,20.3,12.7,30.2c-14,9.7-25.3-5.3-25.3-5.3c7.4,19.4,37,21.1,47.1,0.5c9.7-19.8-6.5-36.8-12.7-40.3
	c17.2-21.6,20.4-51.2-7.5-97l-3.8-6.3c-8.4-16.3,12.8-29.3,24.5-17.7c11.2,11.2-0.5,24-0.5,24c18.2-10.4,13-40-7.5-45.7
	c-17.2-4.8-28.8,5.2-32.9,12c-6.4-11.2-11.1-20.2-13.9-28c-3.6-11.8,12-17.2,17.7-8.1c5.4,8.6-3.8,14.9-3.8,14.9
	c12.9-3.9,13.9-23.1,2-29.7c-5.7-3.4-12.8-3.4-18.5-0.2c0.9-5.4,3.2-10.5,6.7-14.6c3-3.6,5.5-4.8,8-3.5c8.4,4.4,15.8,5.4,21.9,3.2
	c4.7-1.7,8.5-5.3,10.7-9.8l0.7-1.6l-1.4,1c-3.9,2.8-7.8,3.6-11.8,2.5c-1.5-0.4-2.8-1.1-4.1-2c8.7-1.5,15.1-5.6,19.2-12
	c4.9-7.7,5.4-17.5,5-24.3c-0.3-4.4-1-8.8-2.1-13.1l-0.4-1.4l-0.5,1.4c-4.7,12.9-12.4,15.7-21.4,18.9c-1.9,0.7-3.9,1.4-5.9,2.2
	c3.3-4.5,4.3-10.3,2.7-15.6c-0.8-3.3-2.7-6.3-5.3-8.5c0,0,2.2,9-7.9,18.4c-3,2.6-5.7,5.6-8.1,8.8c-3.1,4.5-4.1,10.2-2.8,15.5
	c-2.2,1.5-4.3,3.1-6.4,4.8c0,0-24,17.8-13.2,56.6c6,21.5,19.3,40.1,30.8,59.3c-10.3-0.1-24.8,4.2-33.2,20.8
	c-11.2,22.1,6.3,50.8,30.6,47c0,0-25-4.4-19.6-26.8c4.6-18.9,33.1-22.2,41.3,1.3c14.5,41.4-34.9,68.3-74,16.7
	c-22.1-29.1-63.2-53.8-42-82.4c14.4,22.2,42,9.8,42,9.8c-31.2-17.5-14.5-50.7-14.5-50.7l14.2,11.1c13.4-41.5-9.4-64.7-9-64.8
	c13-0.4,21.3,15,21.3,15c10.7-35-17.9-46.4-17.9-46.4c17-15.3,30.1,2.1,30.1,2.1c1.9-29.7-28.2-39-28.2-39l15.9-4.9
	c-28.7-33.1-63.8-10.3-63.8-10.3c7-10.1,2.4-18.4,2.4-18.4s-4.1,11.1-26.4,12.8c-19.9,1.5-22.1,14.6-22.1,14.6
	c11.3-4.1,20.1-1.4,20.1-1.4s-22.2,3.7-29.3,7.9c-8.3,4.8-5.8,7.1-15.7,9.4c-10.9,2.5-18.4,4.6-19.5,5.6c-1.4,1.3-1.8,2.8-0.3,8.5
	l11.5-5c0,0-4.1,10.9-12.8,8.5c0,0-4.8,11.6,3.4,13.4c0.6,1.9,2,5.3,4.2,5.7c-0.5-2.2,0.3-4.5,2.1-5.9c-0.1,0,4.8,0.6,12.2-2.3
	c8.8-3.4,30.3-11.6,22.8,14C566.5,450.3,559.4,437.1,532,445.9"/>
<path class="st1" d="M651.6,894.4c-1.4,0.3-2.9,0.6-4.3,1.1c0.1,0.9,0.3,1.8,0.5,2.7l6.8,33.3c0.2,0.9,0.4,1.8,0.6,2.7
	c1.9-0.1,3.8-0.3,5.7-0.7c5.6-1.1,18.8-5.3,15.2-23C672.9,895,662.5,892.5,651.6,894.4 M599.5,904.1c-0.4,1.3-0.8,2.5-1.1,3.3
	l-6.3,18.3l15.4-0.2l-6.8-18.2C600.3,906.6,599.9,905.4,599.5,904.1"/>
<path class="st1" d="M724.1,922.3c-0.4-3.4-1.3-6.7-2.7-9.7l-3.8-8.6l-22.3-17.4c-5.2-4-7.7-5.3-9.6-6.2l13.8-6.1
	c0.7,1.4,2.1,3.3,5.4,5.8l9.8,7.6c2.1,1.8,4.2,3.4,5.8,4.9c0-1.6,0.1-3.5,0.2-5.8l1.1-14.2c0.3-4.3,0-6.3-0.7-7.7l11-4.8
	c-1.2,4.1-1.9,8.3-2.2,12.6l-2.4,26l4.2,9.5c1.3,3.1,3.1,6,5.3,8.6L724.1,922.3z M661.7,941.1c-5.8,1.2-11.7,2-17.6,2.5
	c0.7-2.9,0.2-6.5-0.6-10.1l-6.7-32.8c-0.7-3.6-1.7-7-3.4-9.5c3.1-0.6,10.9-3.2,18.1-4.6c18.2-3.7,31.9,3.3,35.4,20.3
	C690.8,925.6,681.1,937.1,661.7,941.1 M613.6,946.6c0-3.2-0.6-6.3-1.7-9.3l-1.4-3.8l-21,0.2l-1.2,3.7c-1.1,3-1.7,6.2-1.7,9.5
	l-13,0.1c2.1-2.9,4-6.5,6.2-12.3l11.4-30.4c2.4-6.5,2.9-9.3,2.3-11.4l10-0.1c1.3,0,2.5,0.8,3,2l16.4,39.5c1.5,3.5,4.1,9.3,6.1,12.1
	L613.6,946.6z M562.8,902c-3.9-2.3-6.3-3.3-12.2-4.4l-9.9-1.9c-0.2,0.6-0.3,1.3-0.4,1.9l-2,10.8l15.7,3c0.5,0.1,0.9,0.6,0.8,1.2
	l-1.5,8.1c-2.5-1.3-5.2-2.4-11.3-3.5l-5.1-1L534,931c-0.1,0.6-0.2,1.3-0.3,1.9l8.9,1.7c7.3,1.4,11.7,1.1,15.5,0.3l-3.5,10.1l-21-4
	l-4.8-0.9l-9-1.7c1.6-3,2.7-6.2,3.3-9.5l6.3-33.4c0.7-3.3,0.8-6.7,0.4-10l34.9,6.6L562.8,902z M507,898.8
	c-3.4,6.7-10.8,8.2-16.7,7.4c1.1,11.9,5.2,24.3,10.2,26.3c-2.9,2.1-6.7,2.4-10,0.9c-3.4-1.5-6.7-5.3-8.5-10.7
	c-2.5-7.9-3.5-16.2-3.1-24.4c0.1-0.5,0.5-1,1.1-0.9c0.1,0,0.2,0,0.3,0.1c5.4,2.2,12.3,3.5,15.4-3.2c2.8-6.1,0.1-11.1-5.9-14
	c-1.6-0.8-3.4-1.4-5.1-1.7c-0.5,0.8-0.9,1.7-1.3,2.5l-14,31c-1.5,3.1-2.4,6.3-2.8,9.7l-12.8-5.8c2.3-2.5,4.1-5.4,5.4-8.5l14-31
	c1.4-3,2.4-6.2,2.7-9.5c6,2.4,10.2,3.6,16,6.2C502.8,878.1,512.9,887,507,898.8 M874.5,826.5c-30-18.8-54.8-27.3-78.4-35.1
	c-2.7-0.9-5.6-0.2-7.6,1.8c-15.9,15.9-89.6,80.1-192.9,80.1h-0.9c-103.4,0-177-64.2-192.9-80.1c-2-2-5-2.6-7.6-1.8
	c-23.5,7.8-48.3,16.3-78.4,35.1c-3.5,2.2-4.6,6.8-2.4,10.4c0.1,0.2,0.3,0.4,0.4,0.6c21.7,27.9,117,130,281.2,130h0.3
	c164.2,0,259.5-102,281.2-130c2.5-3.3,1.9-8-1.3-10.5C874.9,826.8,874.6,826.7,874.5,826.5 M275.6,334.6c-19.4,1.8-40.8-1.6-52.1-5
	c-1.1-0.4-1.7-1.5-1.4-2.6c0.1-0.2,0.2-0.4,0.3-0.6c6.9-10.3,12.9-24,0.4-33.5c-11.4-8.6-23.1-5.6-31.7,5.7c-2.4,3.1-4.3,6.4-5.9,10
	c1.5,1.3,3.2,2.6,4.7,3.8c19.3,14.5,38.5,29.1,57.7,43.7c6.2,4.7,12.9,8.5,18.7,10.3c-5.9,8.1-11.6,16.2-17.3,24.4
	c-4.2-5.9-9.3-11.1-15.1-15.4c-19.2-14.6-38.5-29.2-57.7-43.8c-5.6-4.3-11.9-7.8-18.5-10.1c7.4-11.7,11.6-20.1,19.7-31.1
	c14.9-20.4,38.9-36.9,60.6-18.8c12.4,10.2,11.7,26.8,7,38.3c25.4,3.6,53.4,1.7,60.5-7.9c3.1,7.3,1.3,14.6-3.2,20.2
	C297.3,328.4,287.9,333.4,275.6,334.6 M358.9,217.2c-11.2-8.3-22.4-16.5-33.6-24.6c-1.5-1.1-3.7-2.9-5.8-4.6
	c0.8,2.6,1.4,5.4,1.9,7.3c3.4,13.4,6.8,26.8,10.3,40.4C340.5,229.2,349.6,223,358.9,217.2 M320.8,267.6c-5.5-23.2-10.8-46.2-16-69
	c-3.4-14.6-5.8-20.3-9.4-23.2c5.8-4.2,11.7-8.2,17.6-12.1c2.4-1.5,5.5-1.4,7.8,0.2c25.3,17.3,50.8,35.1,76.5,53.2
	c6.9,4.7,18.8,12.5,26,15.6c-9.9,4.9-19.5,10.1-29,15.6c-3.8-5.7-8.5-10.7-14-14.8l-7-5.2c-12.8,7.8-25.3,16.2-37.3,25.2
	c0.7,2.7,1.5,5.3,2.2,8c2.6,10.1,5.6,15.3,8.2,19.1c-7.3,5.6-14.5,11.5-21.5,17.5C325.2,289.8,324,280.6,320.8,267.6 M443.8,200.8
	c-5.9-23.4-12-47.1-18-70.5c-1.9-7.5-4.8-14.6-8.4-19.3c7.2-2.7,14.5-5.3,21.8-7.7c2-0.7,4.2-0.4,6,0.8c20.9,16.5,42,34.2,62.9,52.4
	c2.8,2.3,8.4,7.1,11.7,10.4c-1-3-2.5-8.4-3.1-11.2c-3.7-15.9-7.2-31.2-11-47c-1.6-7.1-4.4-13.8-8.2-20c8.1-1.7,16.2-3.1,24.4-4.4
	c-0.8,6-0.1,13.7,1.7,21.2c5.5,23.7,10.8,46.8,16.1,70.5c1.7,7.8,4.4,15.2,7.8,20.5c-7.5,1.1-15,2.3-22.5,3.8
	c-1.3,0.2-2.6-0.1-3.6-1c-22-19.8-44.3-38.9-66.4-56.7c-2.8-2.2-7.7-5.7-10.3-8.4c1.1,2.2,3,9.2,3.7,12c4,16,8.2,32.4,12.2,48.5
	c1.9,7.7,4.7,14.9,7.9,19.9c-7.6,2.4-15.2,5-22.7,7.8C446.7,216.2,445.7,208.4,443.8,200.8 M575,133.6c4.7-38.8,37.5-58.1,70.2-53.8
	c17,2.2,29,9,33.9,13.7c-0.9,7.7-1.9,15.4-2.8,23.1c-4.3-5.8-18.6-17.5-35.7-19.7c-26.7-3.4-38.6,15.5-41,34.9
	c-3.3,26.6,11.5,45.3,34.7,48.2c7,0.8,14.2,0.1,21-2c1-8.6,2.1-17.2,3.1-25.7c-1.2-0.1-2.3-0.3-3.4-0.5c-9.9-1.4-16.3-1.2-23,0
	c0.7-5.8,1.4-11.6,2.1-17.4c0.1-1.1,1-1.9,2.1-1.9c0,0,0.1,0,0.1,0c15,1.9,30.1,4,45.1,6.3c-2.6,21.3-5.2,42.5-7.8,63.8
	c-4-2.3-8-4.5-12.1-6.8c-1.5-0.7-3.1-0.9-4.7-0.5c-9.7,2.1-19.6,2.5-29.5,1.4C598.1,193.2,570.3,172.3,575,133.6 M722.7,192.5
	c9.2-22.3,18.4-44.7,27.6-67c2.9-7.1,4.9-14.6,5.3-20.5c24.1,7.8,47.5,17.4,70.1,28.7c-2.7,6.6-5.4,13.2-8.1,19.8
	c-7-7.1-11.3-10.5-23.1-15.6c-6.6-2.9-13.2-5.6-19.9-8.1c-0.7,1.3-1.3,2.6-1.8,3.9l-9,21.7c10.6,4,21.1,8.5,31.4,13.2
	c1.1,0.4,1.6,1.6,1.2,2.7c-2.2,5.4-4.5,10.8-6.7,16.3c-4.5-4.1-9.8-7.7-22-12.7c-3.4-1.4-6.8-2.7-10.3-4.1
	c-4.1,9.9-8.2,19.9-12.3,29.8c-0.5,1.3-1.1,2.6-1.6,4c6.1,2.3,12.1,4.8,18.1,7.3c14.5,6.2,23.5,8,31.6,8.8
	c-3.9,6.4-7.8,12.8-11.6,19.3c-22.5-11.2-45.9-20.7-69.8-28.4C715.8,206.7,719.6,199.8,722.7,192.5 M867.5,285.3
	c-1.4-19.4,2.4-40.7,6-52c0.4-1.1,1.6-1.7,2.7-1.3c0.2,0.1,0.4,0.2,0.6,0.3c10.1,7.1,23.8,13.4,33.5,1c8.8-11.2,6-23-5.1-31.8
	c-3-2.4-6.3-4.5-9.9-6.1c-1.3,1.4-2.7,3.1-3.9,4.7l-44.9,56.9c-4.8,6.1-8.8,12.7-10.6,18.5c-7.9-6-16-11.9-24.1-17.7
	c6-4.1,11.2-9.1,15.7-14.8l44.9-56.8c4.4-5.5,8-11.7,10.5-18.3c11.5,7.7,19.8,12,30.7,20.3c20.1,15.3,36.1,39.6,17.6,61
	c-10.5,12.2-27,11.2-38.4,6.3c-4.1,25.3-2.8,53.4,6.8,60.6c-7.3,3-14.6,1-20.2-3.6C873.3,307.2,868.5,297.7,867.5,285.3
	 M911.3,334.3l20-13.9c-2.4,13,1,29.9,7.8,39.8c6.1,8.8,13.7,9.9,20.2,5.4c19.4-13.5-15.6-52.8,15-74c18.1-12.5,38.9-2.8,52.2,16.5
	c6.7,9.7,10.2,19.9,10.9,25.5l-19,13.2c0.7-8.5-0.6-22.2-7.3-31.9c-5.7-8.2-13-10.8-19.4-6.3c-17.7,12.3,17.4,51.7-15,74.1
	c-18.4,12.7-38.8,5.1-52.9-15.1C915,355.1,911.3,341.1,911.3,334.3 M123.1,725.3L181,706c6.2-2.1,12.1-4.9,16.1-8.2l20.3,60.6
	l-17.1,5.7c0.2-8.2-0.3-12.7-3.7-23l-5.8-17.3l-3.4,1.2l-18.8,6.3l9.1,27.2c0.3,0.9-0.1,1.9-1,2.2c0,0,0,0,0,0l-14,4.7
	c-0.1-5.1-1-10.3-4.5-20.8l-2.9-8.8l-25.7,8.6c-6.3,2.1-12.2,5-16.2,8.2l-8-24C110.5,728.7,116.9,727.4,123.1,725.3 M219.6,863.7
	c18.1-11.2,24.5-31.2,14.3-47.8c-9.6-15.5-27.8-18.2-43.9-8.2c-17.8,11-24.5,30.9-14,48C185.3,870.9,203.8,873.5,219.6,863.7
	 M176.2,792.2c25.4-15.7,55.3-8.1,71.7,18.5c15.8,25.7,10,53.5-14.7,68.7c-25.4,15.7-54.8,8.4-71.3-18.4
	C146.1,835.4,151.4,807.4,176.2,792.2 M301.8,951.7c14.6-15.5,15.6-36.5,1.4-49.8c-13.3-12.5-31.5-10.4-44.5,3.4
	c-14.3,15.2-15.7,36.2-1.1,49.9C270.6,967.4,289.1,965.2,301.8,951.7 M241.4,893.8c20.5-21.7,51.3-22.1,74-0.6
	c21.9,20.7,23.5,49,3.5,70.2c-20.5,21.7-50.8,22.3-73.6,0.6C223.5,943.3,221.4,914.9,241.4,893.8 M340.6,1012.9l30.7-52.7
	c0.6-1.1,1.1-2.1,1.7-3.2l-6.3-3.7c-9.7-5.7-15-7.2-21.7-8.3l9-15.5l69.8,40.7l-9.1,15.5c-4.3-5-8.3-9.2-18-14.8l-6.3-3.7
	c-0.7,1-1.4,2-1.9,3l-30.7,52.7c-3.4,5.7-5.9,11.8-6.8,16.9l-21.8-12.7C333.7,1022.9,337.5,1018.1,340.6,1012.9 M477,1059.2
	c3.5-11.9-5.9-19.8-19.3-24.2c-0.5-0.1-0.9-0.6-0.8-1.2c0-0.1,0-0.1,0.1-0.2l2.7-9.1c0.2-0.6,0.7-0.9,1.3-0.8c0,0,0,0,0.1,0
	c10.2,2.6,18.1-1.2,21-10.8c2.6-8.6-2.7-16-13.3-19.1c-1.9-0.6-3.9-0.8-5.9-0.7l-22.3,74.8c2.7,1.5,5.5,2.7,8.4,3.7
	C461.4,1075.3,473.4,1071.6,477,1059.2 M416.2,1070.5c3.5-4.1,5.8-10.3,7.7-16.6l17.2-57.5c1.9-6.2,3.2-12.6,2.6-18
	c11.3,2.9,18.6,3.8,26.2,6.1c20.4,6.1,37.4,15.9,31.6,35.3c-3.3,11.1-13.3,15.1-22.9,14.2c10.3,4.2,22.9,15.6,18.4,30.6
	c-7.6,25.4-34,21.7-48.5,17.4C437.6,1078.8,426.8,1074.9,416.2,1070.5 M576.5,1064.2l-9.9-33.5c-0.5-1.6-1-3.8-1.5-6
	c-0.8,2.2-1.8,4.3-2.5,5.8l-13.7,32L576.5,1064.2z M525.4,1076.7l24.4-52.9c5.2-11.3,6.5-16.4,5.6-20.2l18,1.2
	c2.4,0.2,4.4,1.8,5.2,4.1l24.2,72.9c2.2,6.4,6.3,17.2,9.5,22.5l-27.6-1.8c0.4-5.7-0.2-11.4-1.8-16.9l-2.1-6.9l-37.8-2.4l-2.6,6.3
	c-3.4,8-4,12.9-4.3,16.8l-23.2-1.4C517,1093.1,520.9,1086.7,525.4,1076.7 M641,1082.8l-9-60.3c-0.8-6-2.6-11.8-5.2-17.3l24.9-3.7
	c-1.1,5-0.9,11.6,0,18l9,60.3c0.2,1.2,0.4,2.4,0.7,3.5l14.4-2.1c13.1-2,20.5-5.1,26.5-8.6l-0.1,19.2l-61.2,9.1
	C641.9,1094.9,641.9,1088.8,641,1082.8 M735.2,1064.5l-20.6-57.4c-2-5.7-4.9-11.1-8.5-15.9l23.7-8.5c0,5.2,1.4,11.5,3.6,17.7
	l20.6,57.4c0.4,1.1,0.8,2.2,1.3,3.3l13.7-4.9c12.5-4.5,19.1-9,24.4-13.6l3.7,18.8l-58.2,20.9
	C738.5,1076.3,737.3,1070.2,735.2,1064.5 M822.2,997.8c-17.6-25.5-11.8-54.7,14.2-72.6c9.1-6.3,18.2-9.4,24.7-9.8l11.1,16.2
	c-9.4-0.9-21,1-30,7.2c-14.5,10-16.4,28.1-5.1,44.5c12,17.4,31.6,22.7,48,11.4c9.7-6.7,13.8-15.8,15.8-26.8l11.2,16.3
	c-2.9,7-10.6,17-22,24.9C864.8,1026.6,838.7,1021.8,822.2,997.8 M932.5,950l-44.4-41.9c-4.4-4.2-9.4-7.7-14.8-10.3l17.3-18.3
	c2.3,4.6,6.5,9.7,11.2,14.2l44.4,41.8c0.9,0.8,1.8,1.6,2.7,2.4l10-10.6c9.1-9.7,12.9-16.7,15.6-23.2l11.8,15.1l-42.4,45
	C940.8,958.9,937,954.1,932.5,950 M972.1,872.4l-32.8-20.1c-5.5-3.4-11.5-6.1-16.6-7.1l13.1-21.5c4,4.6,8.7,8.5,13.8,11.6l31.7,19.4
	c11.8,7.2,26.1,13.6,35.9-2.5c9.8-16-1.3-27.5-13.1-34.8l-31.7-19.4C967,794.7,961,792,956,791l10.8-17.6c4,4.5,8.7,8.4,13.9,11.5
	l32.7,20.1c17.8,10.9,32,27.9,15.2,55.4C1012.6,886.5,991.5,884.4,972.1,872.4 M1055.9,724.4c-11.8-3.8-19.9,5.5-24.7,18.8
	c-0.1,0.5-0.6,0.9-1.2,0.8c-0.1,0-0.2,0-0.2-0.1l-9.1-3c-0.6-0.2-0.9-0.8-0.7-1.3c0,0,0,0,0,0c2.8-10.1-0.8-18.2-10.3-21.2
	c-8.5-2.8-16,2.4-19.4,12.9c-0.6,1.9-0.9,3.9-0.9,5.8l74.2,24c1.6-2.6,2.8-5.4,3.9-8.3C1071.6,740.3,1068.1,728.3,1055.9,724.4
	 M1065.8,785.3c-4.1-3.6-10.1-6-16.4-8.1l-57.1-18.5c-6.2-2-12.5-3.5-17.9-3c3.2-11.2,4.3-18.5,6.7-26c6.6-20.3,16.8-37,36-30.8
	c11,3.6,14.8,13.7,13.7,23.2c4.5-10.2,16.2-22.5,31-17.7c25.3,8.2,20.9,34.6,16.3,48.9C1074.5,764.2,1070.4,774.9,1065.8,785.3
	 M293.9,812.9c-27.5-32-51.2-86.8-55.6-115.9c-0.2-1.8,1-3.4,2.7-3.8c20-5.5,76.8-19.8,100.3-22.8c1.8-0.2,3.5,0.9,3.9,2.7
	c9.2,42.3,26.3,77.7,37.2,95.4c1,1.7,0.5,3.8-1.2,4.9c-0.2,0.1-0.5,0.3-0.7,0.3c-48.6,16-74.5,34.2-82.2,39.5
	C296.9,814.2,295,814.1,293.9,812.9 M340,545.7c0.3-2.2-1.2-4.3-3.4-4.6c-36.3-6.1-73.5-16-100-22.8c-1.9-0.5-3.9,0.5-4.6,2.4
	c-2.8,9.6-4.8,19.4-5.9,29.3c-5.4,41.5-2.7,94.5,5.8,121.5c0.7,1.9,2.7,2.9,4.6,2.4c26.5-6.8,63.7-16.7,100-22.8
	c2.2-0.3,3.8-2.4,3.4-4.6c-2.5-17.5-3.3-39.1-3.3-50.4h0.1C336.7,584.9,337.5,563.3,340,545.7 M896.4,379.4
	c27.5,32,51.2,86.8,55.6,115.9c0.2,1.8-1,3.4-2.7,3.8c-20,5.5-76.8,19.8-100.3,22.8c-1.8,0.2-3.5-0.9-3.9-2.7
	c-9.2-42.3-26.3-77.7-37.2-95.4c-1-1.7-0.5-3.8,1.2-4.9c0.2-0.1,0.5-0.3,0.7-0.3c48.6-16,74.5-34.2,82.2-39.5
	C893.3,378,895.2,378.2,896.4,379.4 M896.4,812.9c27.5-32,51.2-86.8,55.7-115.9c0.2-1.8-1-3.4-2.7-3.8c-20-5.5-76.8-19.8-100.3-22.8
	c-1.8-0.2-3.5,0.9-3.9,2.7c-9.2,42.3-26.3,77.7-37.2,95.4c-1,1.7-0.5,3.8,1.2,4.9c0.2,0.1,0.5,0.3,0.7,0.3
	c48.6,16,74.5,34.2,82.2,39.5C893.3,814.2,895.2,814.1,896.4,812.9 M850.3,545.7c-0.3-2.2,1.2-4.3,3.4-4.6
	c36.3-6.1,73.5-16,100-22.8c1.9-0.5,3.9,0.5,4.6,2.4c2.8,9.6,4.8,19.4,5.9,29.3c5.4,41.5,2.7,94.5-5.8,121.5
	c-0.7,1.9-2.7,2.9-4.6,2.4c-26.5-6.8-63.7-16.7-100-22.8c-2.2-0.3-3.8-2.4-3.4-4.6c2.5-17.5,3.3-39.1,3.3-50.4h-0.1
	C853.6,584.9,852.9,563.3,850.3,545.7"/>
</svg>
