<?xml version="1.0" encoding="UTF-8" standalone="no"?><!-- Generator: Gravit.io --><svg xmlns="http://www.w3.org/2000/svg" xmlns:xlink="http://www.w3.org/1999/xlink" style="isolation:isolate" viewBox="0 0 512 512" width="512pt" height="512pt"><defs><clipPath id="_clipPath_395cnH8PG0xbR9nDIqKOsDmZNm1WWE3Y"><rect width="512" height="512"/></clipPath></defs><g clip-path="url(#_clipPath_395cnH8PG0xbR9nDIqKOsDmZNm1WWE3Y)"><rect x="0" y="128" width="512" height="256" transform="matrix(1,0,0,1,0,0)" fill="rgb(255,0,0)"/><path d=" M 265.702 321.613 C 263.446 319.658 260.713 315.699 260.751 311.883 C 260.953 309.037 262.905 307.384 264.166 310.857 C 265.949 314.692 269.772 321.032 275.041 317.313 C 277.343 315.623 277.307 313.136 274.151 313.421 C 270.253 313.154 267.859 311.009 266.115 305.488 C 265.798 302.451 267.061 302.527 268.823 304.48 C 271.089 307.08 275.599 311.009 280.574 308.904 C 283.338 307.745 284.119 305.354 279.942 304.766 C 275.988 304.823 272.76 302.26 269.547 298.35 C 267.785 296.186 270.384 294.002 271.944 295.844 C 273.335 297.039 275.284 299.241 276.954 299.545 C 278.885 299.924 281.279 299.736 283.932 298.331 C 286.791 295.938 285.863 294.211 282.392 293.814 C 279.701 293.947 278.236 294.97 274.765 292.655 C 268.527 288.439 263.567 282.805 262.792 276.028 C 262.283 271.571 264.68 270.221 266.672 270.734 C 272.092 272.128 275.637 282.255 279.387 287.819 C 280.614 289.422 281.742 289.448 282.54 288.954 C 284.044 287.665 285.245 286.605 286.749 285.163 C 286.749 285.163 297.781 287.145 303.788 289.103 L 297.099 291.48 C 294.566 290.082 291.51 291.589 291.51 294.016 C 289.113 295.673 289.306 297.616 290.34 299.491 C 290.656 298.185 290.925 296.49 292.818 296.264 C 295.52 297.382 298.668 295.787 298.668 293.676 L 306.558 290.575 L 314.53 295.088 C 314.53 298.139 317.42 299.105 320.428 298.282 C 321.845 299.162 322.756 300.689 323.236 302.321 C 324.123 299.967 323.938 298.304 322.548 297.149 C 323.346 294.104 319.08 291.177 315.777 293.126 L 310.042 289.834 L 319.858 289.559 C 320.997 291.575 325.115 291.687 326.316 289.559 C 327.343 289.278 328.211 289.099 330.212 290.587 C 329.582 288.179 328.354 287.15 326.513 287.15 C 325.113 284.671 320.05 284.682 319.318 287.473 L 309.095 287.757 L 315.161 283.439 C 317.425 284.776 320.603 283.289 321.239 280.861 C 322.141 279.788 323.255 279.284 325.446 280.012 C 324.317 278.012 322.725 277.415 319.851 278.772 C 317.23 276.786 313.774 279.195 314.298 281.195 L 306.228 286.686 C 300.37 284.938 289.761 282.217 289.761 282.217 C 291.024 280.888 292.306 279.653 293.567 278.306 C 294.022 277.517 293.326 276.598 292.359 276.407 C 282.893 274.453 277.473 270.637 274.19 260.938 C 272.816 256.876 275.786 255.663 276.806 258.147 C 278.218 261.603 279.775 265.379 284.026 268.304 C 285.492 269.329 289.855 268.492 287.274 266.044 C 284.601 263.842 283.451 262.895 282.134 257.541 C 282.134 254.828 284.898 253.612 286.441 256.212 C 288.091 261.545 288.259 263.842 291.247 267.278 C 293.51 269.879 296.462 271.626 297.927 271.586 C 300.564 271.55 303.219 268.701 299.692 266.632 C 294.513 264.564 292.62 261.736 291.858 259.039 C 291.024 254.334 291.935 252.056 294.774 254.371 C 298.8 258.945 306.485 267.467 310.511 271.435 C 315.023 274.89 320.2 275.002 324.32 271.492 C 326.678 268.777 325.842 265.856 322.149 266.481 C 313.816 267.184 307.506 263.046 300.582 251.865 C 299.227 249.341 298.855 245.715 301.846 248.412 C 305.296 253.081 310.327 257.049 315.005 258.757 C 319.701 260.444 323.578 259.512 325.082 258.035 C 326.894 256.223 326.418 251.658 323.281 252.759 C 320.701 253.67 317.064 253.897 313.279 252.435 C 309.491 250.954 305.557 247.766 301.38 242.357 C 299.95 239.302 300.416 236.72 303.311 238.294 C 310.16 244.104 318.995 248.81 323.504 245.982 C 326.827 243.913 326.883 238.598 322.67 238.941 C 314.187 240.097 310.977 238.219 302.828 231.026 C 300.973 229.64 301.102 226.127 304.053 228.369 C 310.902 232.792 320.256 234.518 323.931 232.203 C 327.236 230.134 326.752 223.812 321.184 226.051 C 316.729 228.766 311.811 228.69 301.956 221.649 C 299.47 219.58 301.324 216.883 303.365 218.042 C 311.291 222.559 322.837 224.495 325.842 215.309 C 327.011 211.798 324.896 209.748 321.796 212.178 C 314.984 218.479 307.263 215.384 302.94 212.214 C 301.703 211.485 299.431 207.791 303.421 208.477 C 313.741 210.831 323.949 208.78 325.806 201.472 C 326.883 199.1 324.765 194.905 320.998 198.417 C 316.043 203.314 310.79 203.483 304.183 203.447 C 300.823 202.744 300.787 199.042 303.608 198.493 C 308.823 198.605 313.964 196.327 318.085 194.012 C 322.113 191.698 325.453 188.452 326.512 183.953 C 327.161 179.93 323.282 175.659 320.944 179.93 C 317.491 186.173 309.844 192.058 301.342 193.121 C 300.899 192.38 299.784 190.481 298.411 191.015 C 295.914 191.983 292.94 193.278 289.877 194.733 C 283.276 197.867 280.525 199.378 281.318 204.794 C 282.145 210.445 277.788 214.017 274.19 213.03 C 271.051 212.186 269.319 209.351 269.882 204.433 C 270.333 200.515 274.266 195.775 278.699 193.29 C 281.568 191.684 285.901 190.806 291.116 189.647 C 294.29 189.022 295.907 187.787 296.091 186.495 C 296.091 186.495 293.921 188.083 290.449 187.844 C 288.807 187.727 287.707 187.005 287.292 186.268 C 288.5 186.022 290.689 186.307 292.656 186.307 C 295.272 186.286 301.347 185.7 302.958 182.017 C 303.46 179.587 301.863 179.151 300.378 180.707 C 298.782 182.389 298.124 183.9 294.922 184.465 C 292.973 184.808 291.024 185.206 288.518 184.599 C 289.929 182.922 292.172 181.206 294.086 181.523 C 294.715 181.627 295.551 182.208 296.221 183.252 C 296.63 180.594 295.904 177.594 288.796 178.847 C 288.909 176.836 284.676 175.962 282.134 176.001 C 280.686 176.038 277.735 176.893 275.601 177.916 C 272.223 178.962 268.882 179.721 264.946 180.006 C 267.23 181.96 267.657 182.075 269.938 183.725 C 266.488 185.015 263.815 187.672 262.608 189.42 C 262.608 189.42 266.637 189.307 267.657 189.762 C 263.442 190.994 261.549 191.734 259.322 194.012 C 260.102 194.146 261.27 194.373 261.772 194.564 C 262.294 194.753 262.158 195.095 261.736 195.417 C 260.828 196.11 257.076 200.468 255.981 201.511 C 254.887 200.468 251.135 196.11 250.227 195.417 C 249.805 195.095 249.669 194.753 250.191 194.564 C 250.692 194.374 251.861 194.146 252.641 194.012 C 250.414 191.734 248.521 190.994 244.306 189.762 C 245.326 189.307 249.355 189.42 249.355 189.42 C 248.147 187.672 245.475 185.015 242.024 183.725 C 244.306 182.075 244.733 181.96 247.017 180.006 C 243.081 179.721 239.74 178.962 236.361 177.916 C 234.228 176.893 231.277 176.038 229.829 176.001 C 227.287 175.962 223.054 176.836 223.167 178.847 C 216.059 177.594 215.333 180.594 215.742 183.252 C 216.412 182.208 217.248 181.627 217.877 181.523 C 219.79 181.206 222.033 182.922 223.445 184.599 C 220.939 185.206 218.99 184.808 217.041 184.465 C 213.839 183.901 213.181 182.389 211.585 180.707 C 210.099 179.151 208.503 179.587 209.005 182.017 C 210.616 185.7 216.69 186.286 219.307 186.307 C 221.274 186.307 223.463 186.022 224.67 186.268 C 224.256 187.005 223.156 187.727 221.514 187.844 C 218.041 188.083 215.872 186.495 215.872 186.495 C 216.056 187.787 217.672 189.021 220.847 189.647 C 226.062 190.806 230.395 191.684 233.264 193.29 C 237.697 195.775 241.63 200.515 242.081 204.433 C 242.643 209.35 240.912 212.186 237.773 213.03 C 234.175 214.017 229.818 210.445 230.645 204.794 C 231.438 199.378 228.687 197.867 222.085 194.733 C 219.023 193.278 216.049 191.983 213.552 191.015 C 212.179 190.481 211.064 192.38 210.621 193.121 C 202.119 192.058 194.472 186.173 191.019 179.93 C 188.681 175.659 184.801 179.93 185.451 183.953 C 186.51 188.452 189.85 191.698 193.878 194.012 C 197.999 196.327 203.14 198.605 208.355 198.493 C 211.176 199.042 211.14 202.744 207.779 203.447 C 201.173 203.483 195.92 203.314 190.965 198.417 C 187.198 194.905 185.08 199.1 186.157 201.472 C 188.014 208.78 198.222 210.831 208.542 208.477 C 212.531 207.791 210.26 211.485 209.022 212.215 C 204.7 215.384 196.979 218.479 190.167 212.178 C 187.067 209.748 184.952 211.798 186.121 215.309 C 189.126 224.495 200.672 222.559 208.598 218.042 C 210.639 216.883 212.493 219.58 210.007 221.649 C 200.152 228.69 195.234 228.766 190.778 226.051 C 185.211 223.812 184.727 230.134 188.032 232.203 C 191.707 234.518 201.061 232.792 207.91 228.369 C 210.862 226.127 210.989 229.64 209.135 231.026 C 200.986 238.219 197.776 240.097 189.293 238.941 C 185.08 238.598 185.136 243.913 188.459 245.982 C 192.968 248.809 201.802 244.104 208.651 238.295 C 211.547 236.72 212.012 239.302 210.583 242.357 C 206.406 247.766 202.472 250.954 198.684 252.435 C 194.899 253.897 191.262 253.67 188.682 252.759 C 185.545 251.658 185.069 256.223 186.881 258.035 C 188.385 259.512 192.262 260.444 196.958 258.757 C 201.636 257.049 206.667 253.081 210.117 248.412 C 213.107 245.715 212.736 249.341 211.381 251.865 C 204.457 263.046 198.147 267.184 189.814 266.481 C 186.121 265.856 185.285 268.777 187.643 271.492 C 191.763 275.002 196.94 274.89 201.452 271.435 C 205.478 267.467 213.163 258.945 217.189 254.371 C 220.028 252.056 220.939 254.334 220.105 259.039 C 219.342 261.736 217.45 264.564 212.271 266.632 C 208.743 268.702 211.398 271.549 214.036 271.586 C 215.501 271.626 218.453 269.879 220.716 267.278 C 223.704 263.842 223.873 261.545 225.522 256.212 C 227.064 253.612 229.829 254.828 229.829 257.54 C 228.512 262.895 227.361 263.842 224.688 266.044 C 222.107 268.492 226.471 269.329 227.937 268.304 C 232.188 265.379 233.745 261.603 235.156 258.147 C 236.177 255.663 239.147 256.876 237.773 260.938 C 234.49 270.637 229.07 274.453 219.604 276.407 C 218.637 276.598 217.941 277.517 218.396 278.306 C 219.657 279.653 220.939 280.887 222.202 282.217 C 222.202 282.217 211.592 284.938 205.735 286.686 L 197.664 281.195 C 198.189 279.195 194.733 276.786 192.111 278.772 C 189.237 277.415 187.646 278.012 186.517 280.012 C 188.708 279.284 189.821 279.788 190.724 280.861 C 191.36 283.289 194.537 284.776 196.801 283.438 L 202.867 287.758 L 192.644 287.473 C 191.913 284.682 186.849 284.671 185.45 287.15 C 183.609 287.15 182.381 288.179 181.75 290.587 C 183.752 289.099 184.62 289.278 185.646 289.559 C 186.847 291.687 190.965 291.575 192.104 289.559 L 201.92 289.834 L 196.185 293.126 C 192.883 291.177 188.617 294.104 189.414 297.149 C 188.024 298.304 187.839 299.967 188.727 302.321 C 189.206 300.689 190.118 299.162 191.535 298.281 C 194.542 299.105 197.433 298.139 197.433 295.088 L 205.404 290.575 L 213.295 293.676 C 213.295 295.787 216.443 297.382 219.145 296.264 C 221.038 296.49 221.307 298.185 221.622 299.491 C 222.656 297.616 222.849 295.673 220.453 294.016 C 220.453 291.589 217.396 290.081 214.864 291.48 L 208.175 289.103 C 214.182 287.145 225.214 285.163 225.214 285.163 C 226.717 286.604 227.918 287.665 229.423 288.954 C 230.221 289.448 231.349 289.422 232.576 287.819 C 236.326 282.255 239.871 272.128 245.29 270.734 C 247.283 270.221 249.68 271.571 249.171 276.028 C 248.395 282.805 243.436 288.439 237.198 292.655 C 233.727 294.97 232.262 293.947 229.571 293.814 C 226.1 294.211 225.172 295.938 228.031 298.331 C 230.683 299.736 233.077 299.924 235.009 299.545 C 236.679 299.241 238.628 297.039 240.019 295.844 C 241.579 294.002 244.178 296.186 242.416 298.35 C 239.203 302.26 235.975 304.823 232.021 304.766 C 227.844 305.354 228.625 307.745 231.389 308.904 C 236.364 311.009 240.873 307.08 243.14 304.48 C 244.902 302.527 246.165 302.451 245.848 305.488 C 244.104 311.009 241.71 313.154 237.812 313.421 C 234.656 313.136 234.62 315.623 236.922 317.313 C 242.191 321.032 246.014 314.692 247.797 310.857 C 249.058 307.384 251.009 309.037 251.211 311.883 C 251.25 315.699 248.516 319.658 246.261 321.613 C 244.007 323.569 255.981 336 255.981 336 C 255.981 336 267.955 323.568 265.701 321.613 L 265.702 321.613 Z  M 281.748 180.834 C 279.884 180.834 278.733 181.487 278.733 182.279 C 278.733 183.083 279.884 183.739 281.748 183.739 C 283.601 183.739 284.777 183.024 284.777 182.219 C 284.777 181.427 283.6 180.834 281.748 180.834 L 281.748 180.834 Z  M 230.215 180.834 C 232.079 180.834 233.23 181.487 233.23 182.279 C 233.23 183.083 232.079 183.739 230.215 183.739 C 228.362 183.739 227.185 183.024 227.185 182.219 C 227.185 181.427 228.362 180.834 230.215 180.834 L 230.215 180.834 Z " fill-rule="evenodd" fill="rgb(0,0,0)"/></g></svg>