<?xml version="1.0" encoding="UTF-8" standalone="no"?><!-- Generator: Gravit.io --><svg xmlns="http://www.w3.org/2000/svg" xmlns:xlink="http://www.w3.org/1999/xlink" style="isolation:isolate" viewBox="0 0 512 512" width="512pt" height="512pt"><defs><clipPath id="_clipPath_m5LP1VYThifoBOuHCDRazszl8XT4fXh6"><rect width="512" height="512"/></clipPath></defs><g clip-path="url(#_clipPath_m5LP1VYThifoBOuHCDRazszl8XT4fXh6)"><rect x="0" y="128" width="512" height="256" transform="matrix(1,0,0,1,0,0)" fill="rgb(0,0,0)"/><rect x="0" y="128" width="512" height="128" transform="matrix(1,0,0,1,0,0)" fill="rgb(204,9,47)"/><g><path d=" M 224.945 215.818 L 240.534 215.818 L 245.261 201.126 L 250.115 215.818 L 265.701 215.818 L 253.18 225.146 L 258.034 240.092 L 245.261 231.021 L 232.613 240.092 L 237.467 225.146 L 224.945 215.818 Z " fill-rule="evenodd" fill="rgb(255,203,0)"/><path d=" M 281.925 296.18 L 269.662 286.596 C 282.052 276.504 290.103 261.045 290.103 243.799 C 290.103 217.481 271.324 195.378 246.537 190.14 L 248.453 181.196 C 251.903 181.963 255.951 183.415 259.272 184.563 L 262.467 179.2 C 265.913 180.859 269.749 182.519 272.941 184.563 L 270.515 190.314 C 273.709 192.359 277.566 195.526 279.71 198.019 L 284.507 194.271 C 287.063 197.081 290.13 200.017 292.302 203.086 L 287.958 207.558 C 290.763 211.676 291.848 213.571 293.916 218.315 L 300.01 216.886 C 301.161 220.463 302.909 224.842 303.55 228.545 L 297.779 230.813 C 298.468 233.692 299.36 238.719 299.303 242.948 C 299.298 243.202 299.279 243.491 299.279 243.747 L 305.306 244.607 C 305.05 248.313 304.924 252.53 304.155 256.234 L 297.896 256.234 C 297.003 260.065 295.85 264.751 294.446 268.326 L 299.682 271.394 C 298.022 274.715 296.364 278.676 294.191 281.87 L 288.442 279.444 C 286.268 282.637 283.843 285.702 281.16 288.514 L 284.863 293.368 C 283.843 294.261 282.948 295.157 281.925 296.18 M 254.971 295.03 L 264.232 300.611 C 263.369 301.401 260.782 302.74 260.096 303.012 L 261.61 308.825 C 258.034 309.977 254.2 311.636 250.242 312.404 L 247.943 306.655 C 244.237 307.421 240.534 307.932 236.7 307.932 L 235.932 313.936 C 232.356 313.681 228.012 313.936 224.051 313.041 L 224.051 307.039 C 220.473 306.398 217.024 305.505 213.704 304.354 L 210.764 309.596 C 207.698 308.315 203.611 306.782 200.288 304.739 L 202.46 298.991 C 199.776 297.584 197.349 295.796 195.05 294.005 L 200.799 286.723 C 210.254 294.262 222.134 298.731 235.166 298.731 C 242.066 298.731 248.835 297.584 254.971 295.03" fill-rule="evenodd" fill="rgb(255,203,0)"/><path d=" M 293.577 309.838 L 232.434 263.307 L 231.877 264.101 L 292.862 310.713 L 289.243 315.243 L 229.792 277.11 C 213.695 267.017 214.334 259.097 217.656 250.537 L 220.467 243.638 C 222 252.581 231.197 259.354 240.779 266.889 L 294.768 308.365 L 293.577 309.838 Z  M 308.927 323.706 C 308.675 323.706 308.433 323.605 308.255 323.427 C 308.077 323.248 307.977 323.006 307.978 322.754 C 307.978 322.502 308.078 322.261 308.256 322.082 C 308.434 321.904 308.675 321.804 308.927 321.804 C 309.453 321.804 309.88 322.23 309.88 322.754 C 309.88 323.007 309.78 323.249 309.601 323.428 C 309.422 323.606 309.18 323.706 308.927 323.706 M 305.273 321.023 C 304.748 321.022 304.322 320.597 304.321 320.072 C 304.321 319.547 304.747 319.121 305.272 319.12 C 305.797 319.12 306.223 319.546 306.224 320.071 C 306.224 320.597 305.798 321.023 305.273 321.023 M 301.534 318.042 C 301.009 318.042 300.582 317.617 300.582 317.093 C 300.598 316.579 301.019 316.171 301.533 316.171 C 302.047 316.171 302.469 316.579 302.484 317.093 C 302.484 317.617 302.059 318.042 301.534 318.042 Z  M 314.106 323.317 L 295.786 309.124 L 290.463 315.984 L 306.377 327.145 C 307.655 328.038 307.781 332.13 312.506 332.769 C 314.425 333.023 315.699 331.617 315.699 331.617 C 317.758 329.11 317.197 325.66 314.106 323.317" fill-rule="evenodd" fill="rgb(255,203,0)"/></g></g></svg>