<?xml version="1.0" encoding="UTF-8" standalone="no"?><!-- Generator: Gravit.io --><svg xmlns="http://www.w3.org/2000/svg" xmlns:xlink="http://www.w3.org/1999/xlink" style="isolation:isolate" viewBox="0 0 512 512" width="512pt" height="512pt"><defs><clipPath id="_clipPath_T9yUQ6irhnstzhv0LEwDA7dwgU6R3MNC"><rect width="512" height="512"/></clipPath></defs><g clip-path="url(#_clipPath_T9yUQ6irhnstzhv0LEwDA7dwgU6R3MNC)"><rect x="0" y="128" width="512" height="256" transform="matrix(1,0,0,1,0,0)" fill="rgb(0,38,127)"/><rect x="170.5" y="128" width="171" height="256" transform="matrix(1,0,0,1,0,0)" fill="rgb(255,199,38)"/><g><path d=" M 255.975 194 C 251.816 205.341 247.577 217.146 238.508 226.184 C 241.323 225.256 246.25 224.424 249.417 224.504 L 249.417 272.204 L 235.948 274.203 C 235.468 274.155 235.308 273.404 235.308 272.38 C 234.013 257.568 230.51 245.123 226.479 232.246 C 226.191 230.487 221.088 223.768 225.023 224.952 C 225.503 225.016 230.766 227.159 229.934 226.136 C 222.768 218.714 212.29 213.371 202.117 211.787 C 201.221 211.563 200.693 212.011 201.493 213.051 C 214.994 233.83 226.287 258.351 226.191 287.448 C 231.437 287.448 244.154 284.345 249.417 284.345 C 249.417 284.345 249.417 318 249.417 318 L 256.055 318 L 257.575 224.008 L 255.975 194 Z " fill="rgb(0,0,0)"/><path d=" M 255.975 194 C 260.134 205.341 264.373 217.146 273.443 226.184 C 270.627 225.256 265.701 224.424 262.533 224.504 L 262.533 272.204 L 276.002 274.203 C 276.482 274.155 276.642 273.404 276.642 272.38 C 277.937 257.568 281.44 245.123 285.471 232.246 C 285.759 230.487 290.862 223.768 286.927 224.952 C 286.447 225.016 281.185 227.159 282.016 226.136 C 289.182 218.714 299.66 213.371 309.833 211.787 C 310.729 211.563 311.257 212.011 310.457 213.051 C 296.956 233.83 285.663 258.351 285.759 287.448 C 280.513 287.448 267.796 284.345 262.533 284.345 C 262.533 284.345 262.533 318 262.533 318 L 255.895 318 L 254.375 224.008 L 255.975 194 Z " fill="rgb(0,0,0)"/></g></g></svg>