<?xml version="1.0" encoding="UTF-8" standalone="no"?><!-- Generator: Gravit.io --><svg xmlns="http://www.w3.org/2000/svg" xmlns:xlink="http://www.w3.org/1999/xlink" style="isolation:isolate" viewBox="0 0 512 512" width="512pt" height="512pt"><defs><clipPath id="_clipPath_chrJNchPJolyaOWD1Y3Qz5rm7nrU9jiU"><rect width="512" height="512"/></clipPath></defs><g clip-path="url(#_clipPath_chrJNchPJolyaOWD1Y3Qz5rm7nrU9jiU)"><g><rect x="0" y="128" width="512" height="253.968" transform="matrix(1,0,0,1,0,0)" fill="rgb(206,23,32)"/><path d=" M 2.844 128 L 59.733 128 L 59.733 381.968 L 2.844 381.968 L 2.844 128 Z " fill="rgb(255,255,255)"/><g><path d=" M 30.037 384 L 30.037 374.801 L 32.54 374.801 L 32.54 384 L 30.037 384 Z  M 62.009 367.915 L 57.515 367.915 L 57.515 371.584 L 55.239 371.584 L 55.239 376.042 L 52.053 376.042 L 52.053 379.937 L 49.436 379.937 L 49.436 384 L 41.529 384 L 41.529 379.937 L 38.969 379.937 L 38.969 376.042 L 35.783 376.042 L 35.783 371.584 L 33.508 371.584 L 33.508 367.915 L 30.037 367.915 L 30.037 362.215 L 33.508 362.215 L 33.508 358.547 L 35.783 358.547 L 35.783 354.088 L 38.969 354.088 L 38.969 350.194 L 41.529 350.194 L 41.529 346.018 L 43.349 346.018 L 43.349 342.519 L 47.616 342.519 L 47.616 346.018 L 49.436 346.018 L 49.436 350.194 L 52.053 350.194 L 52.053 354.088 L 55.239 354.088 L 55.239 358.547 L 57.515 358.547 L 57.515 362.215 L 62.009 362.215 M 62.009 382.081 L 57.515 382.081 L 57.515 377.002 L 62.009 377.002 M 44.373 375.478 L 46.706 375.478 L 46.706 372.035 L 48.924 372.035 L 48.924 367.69 L 51.086 367.69 L 51.086 362.328 L 48.924 362.328 L 48.924 357.982 L 46.706 357.982 L 46.706 354.596 L 44.373 354.596 L 44.373 357.982 L 42.155 357.982 L 42.155 362.328 L 39.936 362.328 L 39.936 367.69 L 42.155 367.69 L 42.155 372.035 L 44.373 372.035 L 44.373 375.478 Z  M 44.146 367.633 L 44.146 362.554 L 46.933 362.554 L 46.933 367.633 L 44.146 367.633 Z  M 62.009 354.314 L 57.515 354.314 L 57.515 348.84 L 62.009 348.84 M 30.037 353.806 L 30.037 346.074 L 32.54 346.074 L 32.54 353.806 L 30.037 353.806 Z  M 36.181 345.228 L 36.181 341.39 L 33.451 341.39 L 33.451 337.439 L 30.037 337.439 L 30.037 332.247 L 33.451 332.247 L 33.451 328.24 L 36.181 328.24 L 36.181 324.402 L 39.367 324.402 L 39.367 328.24 L 42.098 328.24 L 42.098 332.247 L 44.373 332.247 L 44.373 337.439 L 42.098 337.439 L 42.098 341.39 L 39.367 341.39 L 39.367 345.228 L 36.181 345.228 Z  M 62.009 337.439 L 57.515 337.439 L 57.515 341.39 L 54.784 341.39 L 54.784 345.228 L 51.655 345.228 L 51.655 341.39 L 48.924 341.39 L 48.924 337.439 L 46.649 337.439 L 46.649 332.247 L 48.924 332.247 L 48.924 328.24 L 51.655 328.24 L 51.655 324.402 L 54.784 324.402 L 54.784 328.24 L 57.515 328.24 L 57.515 332.247 L 62.009 332.247 M 36.58 337.326 L 38.912 337.326 L 38.912 332.416 L 36.58 332.416 L 36.58 337.326 Z  M 51.996 337.326 L 54.329 337.326 L 54.329 332.416 L 51.996 332.416 L 51.996 337.326 Z  M 51.086 256 L 51.086 258.653 L 53.02 258.653 L 53.02 262.66 L 55.58 262.66 L 55.58 265.086 L 57.515 265.086 L 57.515 268.981 L 62.009 268.981 L 62.009 278.011 L 57.515 278.011 L 57.515 275.414 L 55.58 275.414 L 55.58 271.633 L 53.02 271.633 L 53.02 267.118 L 49.38 267.118 L 49.38 271.182 L 46.706 271.182 L 46.706 274.173 L 44.772 274.173 L 44.772 277.728 L 42.212 277.728 L 42.212 281.51 L 40.334 281.51 L 40.334 285.347 L 38.514 285.347 L 38.514 289.298 L 36.068 289.298 L 36.068 294.603 L 39.31 294.603 L 39.31 299.4 L 42.837 299.4 L 42.837 302.279 L 48.754 302.279 L 48.754 298.102 L 45.34 298.102 L 45.34 294.321 L 47.616 294.321 L 47.616 289.693 L 50.29 289.693 L 50.29 285.63 L 53.646 285.63 L 53.646 289.693 L 56.434 289.693 L 56.434 294.321 L 58.14 294.321 L 58.14 298.102 L 62.009 298.102 L 62.009 305.27 L 57.515 305.27 L 57.515 309.898 L 55.808 309.898 L 55.808 313.453 L 54.215 313.453 L 54.215 317.517 L 51.94 317.517 L 51.94 321.524 L 49.721 321.524 L 49.721 324.176 L 47.047 324.176 L 47.047 328.183 L 43.804 328.183 L 43.804 324.176 L 41.131 324.176 L 41.131 321.524 L 38.855 321.524 L 38.855 317.517 L 36.636 317.517 L 36.636 313.453 L 34.816 313.453 L 34.816 309.954 L 32.996 309.954 L 32.996 306.907 L 30.037 306.907 L 30.037 284.501 L 33.394 284.501 L 33.394 280.72 L 34.361 280.72 L 34.361 276.769 L 36.864 276.769 L 36.864 272.931 L 38.4 272.931 L 38.4 270.109 L 39.993 270.109 L 39.993 267.118 L 42.724 267.118 L 42.724 264.183 L 46.649 264.183 L 46.649 256 M 30.037 324.459 L 30.037 316.727 L 32.54 316.727 L 32.54 324.459 L 30.037 324.459 Z  M 62.009 322.991 L 57.515 322.991 L 57.515 317.517 L 62.009 317.517 M 62.009 290.088 L 57.515 290.088 L 57.515 284.614 L 62.009 284.614 L 62.009 290.088 Z  M 30.151 276.205 L 30.151 271.238 L 32.54 271.238 L 32.54 276.205 L 30.151 276.205 Z  M 33.451 256 L 33.451 259.104 L 34.93 259.104 L 34.93 261.531 L 37.092 261.531 L 37.092 268.811 L 34.93 268.811 L 34.93 265.877 L 32.654 265.877 L 32.654 261.587 L 30.151 261.587 L 30.151 256.056 M 42.325 256.056 L 42.325 259.668 L 39.936 259.668 L 39.936 256.056" fill="rgb(206,23,32)"/><path d=" M 32.54 384 L 32.54 374.801 L 30.037 374.801 L 30.037 384 L 32.54 384 Z  M 0.569 367.915 L 5.063 367.915 L 5.063 371.584 L 7.339 371.584 L 7.339 376.042 L 10.524 376.042 L 10.524 379.937 L 13.141 379.937 L 13.141 384 L 21.049 384 L 21.049 379.937 L 23.609 379.937 L 23.609 376.042 L 26.795 376.042 L 26.795 371.584 L 29.07 371.584 L 29.07 367.915 L 32.54 367.915 L 32.54 362.215 L 29.07 362.215 L 29.07 358.547 L 26.795 358.547 L 26.795 354.088 L 23.609 354.088 L 23.609 350.194 L 21.049 350.194 L 21.049 346.018 L 19.228 346.018 L 19.228 342.519 L 14.962 342.519 L 14.962 346.018 L 13.141 346.018 L 13.141 350.194 L 10.524 350.194 L 10.524 354.088 L 7.339 354.088 L 7.339 358.547 L 5.063 358.547 L 5.063 362.215 L 0.569 362.215 M 0.569 382.081 L 5.063 382.081 L 5.063 377.002 L 0.569 377.002 M 18.204 375.478 L 15.872 375.478 L 15.872 372.035 L 13.653 372.035 L 13.653 367.69 L 11.492 367.69 L 11.492 362.328 L 13.653 362.328 L 13.653 357.982 L 15.872 357.982 L 15.872 354.596 L 18.204 354.596 L 18.204 357.982 L 20.423 357.982 L 20.423 362.328 L 22.642 362.328 L 22.642 367.69 L 20.423 367.69 L 20.423 372.035 L 18.204 372.035 L 18.204 375.478 Z  M 18.432 367.633 L 18.432 362.554 L 15.644 362.554 L 15.644 367.633 L 18.432 367.633 Z  M 0.569 354.314 L 5.063 354.314 L 5.063 348.84 L 0.569 348.84 M 32.54 353.806 L 32.54 346.074 L 30.037 346.074 L 30.037 353.806 L 32.54 353.806 Z  M 26.396 345.228 L 26.396 341.39 L 29.127 341.39 L 29.127 337.439 L 32.54 337.439 L 32.54 332.247 L 29.127 332.247 L 29.127 328.24 L 26.396 328.24 L 26.396 324.402 L 23.211 324.402 L 23.211 328.24 L 20.48 328.24 L 20.48 332.247 L 18.204 332.247 L 18.204 337.439 L 20.48 337.439 L 20.48 341.39 L 23.211 341.39 L 23.211 345.228 L 26.396 345.228 Z  M 0.569 337.439 L 5.063 337.439 L 5.063 341.39 L 7.794 341.39 L 7.794 345.228 L 10.923 345.228 L 10.923 341.39 L 13.653 341.39 L 13.653 337.439 L 15.929 337.439 L 15.929 332.247 L 13.653 332.247 L 13.653 328.24 L 10.923 328.24 L 10.923 324.402 L 7.794 324.402 L 7.794 328.24 L 5.063 328.24 L 5.063 332.247 L 0.569 332.247 M 25.998 337.326 L 23.666 337.326 L 23.666 332.416 L 25.998 332.416 L 25.998 337.326 Z  M 10.581 337.326 L 8.249 337.326 L 8.249 332.416 L 10.581 332.416 L 10.581 337.326 Z  M 11.492 256 L 11.492 258.653 L 9.557 258.653 L 9.557 262.66 L 6.997 262.66 L 6.997 265.086 L 5.063 265.086 L 5.063 268.981 L 0.569 268.981 L 0.569 278.011 L 5.063 278.011 L 5.063 275.414 L 6.997 275.414 L 6.997 271.633 L 9.557 271.633 L 9.557 267.118 L 13.198 267.118 L 13.198 271.182 L 15.872 271.182 L 15.872 274.173 L 17.806 274.173 L 17.806 277.728 L 20.366 277.728 L 20.366 281.51 L 22.244 281.51 L 22.244 285.347 L 24.064 285.347 L 24.064 289.298 L 26.51 289.298 L 26.51 294.603 L 23.268 294.603 L 23.268 299.4 L 19.74 299.4 L 19.74 302.279 L 13.824 302.279 L 13.824 298.102 L 17.237 298.102 L 17.237 294.321 L 14.962 294.321 L 14.962 289.693 L 12.288 289.693 L 12.288 285.63 L 8.932 285.63 L 8.932 289.693 L 6.144 289.693 L 6.144 294.321 L 4.437 294.321 L 4.437 298.102 L 0.569 298.102 L 0.569 305.27 L 5.063 305.27 L 5.063 309.898 L 6.77 309.898 L 6.77 313.453 L 8.363 313.453 L 8.363 317.517 L 10.638 317.517 L 10.638 321.524 L 12.857 321.524 L 12.857 324.176 L 15.531 324.176 L 15.531 328.183 L 18.773 328.183 L 18.773 324.176 L 21.447 324.176 L 21.447 321.524 L 23.723 321.524 L 23.723 317.517 L 25.941 317.517 L 25.941 313.453 L 27.762 313.453 L 27.762 309.954 L 29.582 309.954 L 29.582 306.907 L 32.54 306.907 L 32.54 284.501 L 29.184 284.501 L 29.184 280.72 L 28.217 280.72 L 28.217 276.769 L 25.714 276.769 L 25.714 272.931 L 24.178 272.931 L 24.178 270.109 L 22.585 270.109 L 22.585 267.118 L 19.854 267.118 L 19.854 264.183 L 15.929 264.183 L 15.929 256 M 32.54 324.459 L 32.54 316.727 L 30.037 316.727 L 30.037 324.459 L 32.54 324.459 Z  M 0.569 322.991 L 5.063 322.991 L 5.063 317.517 L 0.569 317.517 M 0.569 290.088 L 5.063 290.088 L 5.063 284.614 L 0.569 284.614 L 0.569 290.088 Z  M 32.427 276.205 L 32.427 271.238 L 30.037 271.238 L 30.037 276.205 L 32.427 276.205 Z  M 29.127 256 L 29.127 259.104 L 27.648 259.104 L 27.648 261.531 L 25.486 261.531 L 25.486 268.811 L 27.648 268.811 L 27.648 265.877 L 29.924 265.877 L 29.924 261.587 L 32.427 261.587 L 32.427 256.056 M 20.252 256.056 L 20.252 259.668 L 22.642 259.668 L 22.642 256.056" fill="rgb(206,23,32)"/></g><g><path d=" M 32.54 128 L 32.54 137.199 L 30.037 137.199 L 30.037 128 L 32.54 128 Z  M 0.569 144.085 L 5.063 144.085 L 5.063 140.416 L 7.339 140.416 L 7.339 135.958 L 10.524 135.958 L 10.524 132.063 L 13.141 132.063 L 13.141 128 L 21.049 128 L 21.049 132.063 L 23.609 132.063 L 23.609 135.958 L 26.795 135.958 L 26.795 140.416 L 29.07 140.416 L 29.07 144.085 L 32.54 144.085 L 32.54 149.785 L 29.07 149.785 L 29.07 153.453 L 26.795 153.453 L 26.795 157.912 L 23.609 157.912 L 23.609 161.806 L 21.049 161.806 L 21.049 165.982 L 19.228 165.982 L 19.228 169.481 L 14.962 169.481 L 14.962 165.982 L 13.141 165.982 L 13.141 161.806 L 10.524 161.806 L 10.524 157.912 L 7.339 157.912 L 7.339 153.453 L 5.063 153.453 L 5.063 149.785 L 0.569 149.785 M 0.569 129.919 L 5.063 129.919 L 5.063 134.998 L 0.569 134.998 M 18.204 136.522 L 15.872 136.522 L 15.872 139.965 L 13.653 139.965 L 13.653 144.31 L 11.492 144.31 L 11.492 149.672 L 13.653 149.672 L 13.653 154.018 L 15.872 154.018 L 15.872 157.404 L 18.204 157.404 L 18.204 154.018 L 20.423 154.018 L 20.423 149.672 L 22.642 149.672 L 22.642 144.31 L 20.423 144.31 L 20.423 139.965 L 18.204 139.965 L 18.204 136.522 Z  M 18.432 144.367 L 18.432 149.446 L 15.644 149.446 L 15.644 144.367 L 18.432 144.367 Z  M 0.569 157.686 L 5.063 157.686 L 5.063 163.16 L 0.569 163.16 M 32.54 158.194 L 32.54 165.926 L 30.037 165.926 L 30.037 158.194 L 32.54 158.194 Z  M 26.396 166.772 L 26.396 170.61 L 29.127 170.61 L 29.127 174.561 L 32.54 174.561 L 32.54 179.753 L 29.127 179.753 L 29.127 183.76 L 26.396 183.76 L 26.396 187.598 L 23.211 187.598 L 23.211 183.76 L 20.48 183.76 L 20.48 179.753 L 18.204 179.753 L 18.204 174.561 L 20.48 174.561 L 20.48 170.61 L 23.211 170.61 L 23.211 166.772 L 26.396 166.772 Z  M 0.569 174.561 L 5.063 174.561 L 5.063 170.61 L 7.794 170.61 L 7.794 166.772 L 10.923 166.772 L 10.923 170.61 L 13.653 170.61 L 13.653 174.561 L 15.929 174.561 L 15.929 179.753 L 13.653 179.753 L 13.653 183.76 L 10.923 183.76 L 10.923 187.598 L 7.794 187.598 L 7.794 183.76 L 5.063 183.76 L 5.063 179.753 L 0.569 179.753 M 25.998 174.674 L 23.666 174.674 L 23.666 179.584 L 25.998 179.584 L 25.998 174.674 Z  M 10.581 174.674 L 8.249 174.674 L 8.249 179.584 L 10.581 179.584 L 10.581 174.674 Z  M 11.492 256 L 11.492 253.347 L 9.557 253.347 L 9.557 249.34 L 6.997 249.34 L 6.997 246.914 L 5.063 246.914 L 5.063 243.019 L 0.569 243.019 L 0.569 233.989 L 5.063 233.989 L 5.063 236.586 L 6.997 236.586 L 6.997 240.367 L 9.557 240.367 L 9.557 244.882 L 13.198 244.882 L 13.198 240.818 L 15.872 240.818 L 15.872 237.827 L 17.806 237.827 L 17.806 234.272 L 20.366 234.272 L 20.366 230.49 L 22.244 230.49 L 22.244 226.653 L 24.064 226.653 L 24.064 222.702 L 26.51 222.702 L 26.51 217.397 L 23.268 217.397 L 23.268 212.6 L 19.74 212.6 L 19.74 209.721 L 13.824 209.721 L 13.824 213.898 L 17.237 213.898 L 17.237 217.679 L 14.962 217.679 L 14.962 222.307 L 12.288 222.307 L 12.288 226.37 L 8.932 226.37 L 8.932 222.307 L 6.144 222.307 L 6.144 217.679 L 4.437 217.679 L 4.437 213.898 L 0.569 213.898 L 0.569 206.73 L 5.063 206.73 L 5.063 202.102 L 6.77 202.102 L 6.77 198.547 L 8.363 198.547 L 8.363 194.483 L 10.638 194.483 L 10.638 190.476 L 12.857 190.476 L 12.857 187.824 L 15.531 187.824 L 15.531 183.817 L 18.773 183.817 L 18.773 187.824 L 21.447 187.824 L 21.447 190.476 L 23.723 190.476 L 23.723 194.483 L 25.941 194.483 L 25.941 198.547 L 27.762 198.547 L 27.762 202.046 L 29.582 202.046 L 29.582 205.093 L 32.54 205.093 L 32.54 227.499 L 29.184 227.499 L 29.184 231.28 L 28.217 231.28 L 28.217 235.231 L 25.714 235.231 L 25.714 239.069 L 24.178 239.069 L 24.178 241.891 L 22.585 241.891 L 22.585 244.882 L 19.854 244.882 L 19.854 247.817 L 15.929 247.817 L 15.929 256 M 32.54 187.541 L 32.54 195.273 L 30.037 195.273 L 30.037 187.541 L 32.54 187.541 Z  M 0.569 189.009 L 5.063 189.009 L 5.063 194.483 L 0.569 194.483 M 0.569 221.912 L 5.063 221.912 L 5.063 227.386 L 0.569 227.386 L 0.569 221.912 Z  M 32.427 235.795 L 32.427 240.762 L 30.037 240.762 L 30.037 235.795 L 32.427 235.795 Z  M 29.127 256 L 29.127 252.896 L 27.648 252.896 L 27.648 250.469 L 25.486 250.469 L 25.486 243.189 L 27.648 243.189 L 27.648 246.123 L 29.924 246.123 L 29.924 250.413 L 32.427 250.413 L 32.427 255.944 M 20.252 255.944 L 20.252 252.332 L 22.642 252.332 L 22.642 255.944" fill="rgb(206,23,32)"/><path d=" M 30.037 128 L 30.037 137.199 L 32.54 137.199 L 32.54 128 L 30.037 128 Z  M 62.009 144.085 L 57.515 144.085 L 57.515 140.416 L 55.239 140.416 L 55.239 135.958 L 52.053 135.958 L 52.053 132.063 L 49.436 132.063 L 49.436 128 L 41.529 128 L 41.529 132.063 L 38.969 132.063 L 38.969 135.958 L 35.783 135.958 L 35.783 140.416 L 33.508 140.416 L 33.508 144.085 L 30.037 144.085 L 30.037 149.785 L 33.508 149.785 L 33.508 153.453 L 35.783 153.453 L 35.783 157.912 L 38.969 157.912 L 38.969 161.806 L 41.529 161.806 L 41.529 165.982 L 43.349 165.982 L 43.349 169.481 L 47.616 169.481 L 47.616 165.982 L 49.436 165.982 L 49.436 161.806 L 52.053 161.806 L 52.053 157.912 L 55.239 157.912 L 55.239 153.453 L 57.515 153.453 L 57.515 149.785 L 62.009 149.785 M 62.009 129.919 L 57.515 129.919 L 57.515 134.998 L 62.009 134.998 M 44.373 136.522 L 46.706 136.522 L 46.706 139.965 L 48.924 139.965 L 48.924 144.31 L 51.086 144.31 L 51.086 149.672 L 48.924 149.672 L 48.924 154.018 L 46.706 154.018 L 46.706 157.404 L 44.373 157.404 L 44.373 154.018 L 42.155 154.018 L 42.155 149.672 L 39.936 149.672 L 39.936 144.31 L 42.155 144.31 L 42.155 139.965 L 44.373 139.965 L 44.373 136.522 Z  M 44.146 144.367 L 44.146 149.446 L 46.933 149.446 L 46.933 144.367 L 44.146 144.367 Z  M 62.009 157.686 L 57.515 157.686 L 57.515 163.16 L 62.009 163.16 M 30.037 158.194 L 30.037 165.926 L 32.54 165.926 L 32.54 158.194 L 30.037 158.194 Z  M 36.181 166.772 L 36.181 170.61 L 33.451 170.61 L 33.451 174.561 L 30.037 174.561 L 30.037 179.753 L 33.451 179.753 L 33.451 183.76 L 36.181 183.76 L 36.181 187.598 L 39.367 187.598 L 39.367 183.76 L 42.098 183.76 L 42.098 179.753 L 44.373 179.753 L 44.373 174.561 L 42.098 174.561 L 42.098 170.61 L 39.367 170.61 L 39.367 166.772 L 36.181 166.772 Z  M 62.009 174.561 L 57.515 174.561 L 57.515 170.61 L 54.784 170.61 L 54.784 166.772 L 51.655 166.772 L 51.655 170.61 L 48.924 170.61 L 48.924 174.561 L 46.649 174.561 L 46.649 179.753 L 48.924 179.753 L 48.924 183.76 L 51.655 183.76 L 51.655 187.598 L 54.784 187.598 L 54.784 183.76 L 57.515 183.76 L 57.515 179.753 L 62.009 179.753 M 36.58 174.674 L 38.912 174.674 L 38.912 179.584 L 36.58 179.584 L 36.58 174.674 Z  M 51.996 174.674 L 54.329 174.674 L 54.329 179.584 L 51.996 179.584 L 51.996 174.674 Z  M 51.086 256 L 51.086 253.347 L 53.02 253.347 L 53.02 249.34 L 55.58 249.34 L 55.58 246.914 L 57.515 246.914 L 57.515 243.019 L 62.009 243.019 L 62.009 233.989 L 57.515 233.989 L 57.515 236.586 L 55.58 236.586 L 55.58 240.367 L 53.02 240.367 L 53.02 244.882 L 49.38 244.882 L 49.38 240.818 L 46.706 240.818 L 46.706 237.827 L 44.772 237.827 L 44.772 234.272 L 42.212 234.272 L 42.212 230.49 L 40.334 230.49 L 40.334 226.653 L 38.514 226.653 L 38.514 222.702 L 36.068 222.702 L 36.068 217.397 L 39.31 217.397 L 39.31 212.6 L 42.837 212.6 L 42.837 209.721 L 48.754 209.721 L 48.754 213.898 L 45.34 213.898 L 45.34 217.679 L 47.616 217.679 L 47.616 222.307 L 50.29 222.307 L 50.29 226.37 L 53.646 226.37 L 53.646 222.307 L 56.434 222.307 L 56.434 217.679 L 58.14 217.679 L 58.14 213.898 L 62.009 213.898 L 62.009 206.73 L 57.515 206.73 L 57.515 202.102 L 55.808 202.102 L 55.808 198.547 L 54.215 198.547 L 54.215 194.483 L 51.94 194.483 L 51.94 190.476 L 49.721 190.476 L 49.721 187.824 L 47.047 187.824 L 47.047 183.817 L 43.804 183.817 L 43.804 187.824 L 41.131 187.824 L 41.131 190.476 L 38.855 190.476 L 38.855 194.483 L 36.636 194.483 L 36.636 198.547 L 34.816 198.547 L 34.816 202.046 L 32.996 202.046 L 32.996 205.093 L 30.037 205.093 L 30.037 227.499 L 33.394 227.499 L 33.394 231.28 L 34.361 231.28 L 34.361 235.231 L 36.864 235.231 L 36.864 239.069 L 38.4 239.069 L 38.4 241.891 L 39.993 241.891 L 39.993 244.882 L 42.724 244.882 L 42.724 247.817 L 46.649 247.817 L 46.649 256 M 30.037 187.541 L 30.037 195.273 L 32.54 195.273 L 32.54 187.541 L 30.037 187.541 Z  M 62.009 189.009 L 57.515 189.009 L 57.515 194.483 L 62.009 194.483 M 62.009 221.912 L 57.515 221.912 L 57.515 227.386 L 62.009 227.386 L 62.009 221.912 Z  M 30.151 235.795 L 30.151 240.762 L 32.54 240.762 L 32.54 235.795 L 30.151 235.795 Z  M 33.451 256 L 33.451 252.896 L 34.93 252.896 L 34.93 250.469 L 37.092 250.469 L 37.092 243.189 L 34.93 243.189 L 34.93 246.123 L 32.654 246.123 L 32.654 250.413 L 30.151 250.413 L 30.151 255.944 M 42.325 255.944 L 42.325 252.332 L 39.936 252.332 L 39.936 255.944" fill="rgb(206,23,32)"/></g><path d=" M 59.733 297.312 L 512 297.312 L 512 381.968 L 59.733 381.968 L 59.733 297.312 Z " fill="rgb(0,124,48)"/></g></g></svg>