<?xml version="1.0" encoding="UTF-8" standalone="no"?><!-- Generator: Gravit.io --><svg xmlns="http://www.w3.org/2000/svg" xmlns:xlink="http://www.w3.org/1999/xlink" style="isolation:isolate" viewBox="0 0 512 512" width="512pt" height="512pt"><defs><clipPath id="_clipPath_ChmpsnJnylRa9yM8bMydZpEgjLozQ0Hx"><rect width="512" height="512"/></clipPath></defs><g clip-path="url(#_clipPath_ChmpsnJnylRa9yM8bMydZpEgjLozQ0Hx)"><g><path d=" M 0 128 L 128 128 L 133.28 133.28 L 378.72 133.28 L 384 128 L 512 128 L 512 384 L 384 384 L 378.72 378.72 L 133.28 378.72 L 128 384 L 0 384 L 0 128 Z " fill="rgb(213,43,30)"/><path d=" M 128 128 L 384 128 L 384 384 L 128 384 L 128 128 Z  M 260.8 364.267 L 258.4 318.24 C 258.329 316.707 258.957 315.224 260.108 314.209 C 261.258 313.193 262.807 312.753 264.32 313.013 L 310.133 321.067 L 303.947 304 C 303.432 302.608 303.861 301.042 305.013 300.107 L 355.2 259.467 L 343.893 254.187 C 342.313 253.44 341.536 251.634 342.08 249.973 L 352 219.467 L 323.093 225.6 C 321.479 225.937 319.85 225.089 319.2 223.573 L 313.6 210.4 L 291.04 234.613 C 289.98 235.731 288.311 236.016 286.941 235.312 C 285.571 234.609 284.829 233.086 285.12 231.573 L 296 175.467 L 278.56 185.547 C 277.732 186.032 276.741 186.152 275.821 185.879 C 274.901 185.606 274.136 184.965 273.707 184.107 L 256 149.333 L 238.293 184.107 C 237.864 184.965 237.099 185.606 236.179 185.879 C 235.259 186.152 234.268 186.032 233.44 185.547 L 216 175.467 L 226.88 231.573 C 227.171 233.086 226.429 234.609 225.059 235.312 C 223.689 236.016 222.02 235.731 220.96 234.613 L 198.4 210.4 L 192.8 223.573 C 192.15 225.089 190.521 225.937 188.907 225.6 L 160 219.467 L 169.92 249.973 C 170.464 251.634 169.687 253.44 168.107 254.187 L 156.8 259.467 L 206.987 300.107 C 208.139 301.042 208.568 302.608 208.053 304 L 201.867 321.067 L 247.68 313.013 C 249.193 312.753 250.742 313.193 251.892 314.209 C 253.043 315.224 253.671 316.707 253.6 318.24 L 251.2 364.267 L 260.8 364.267 Z " fill="rgb(255,255,255)"/></g></g></svg>