<?xml version="1.0" encoding="UTF-8" standalone="no"?><!-- Generator: Gravit.io --><svg xmlns="http://www.w3.org/2000/svg" xmlns:xlink="http://www.w3.org/1999/xlink" style="isolation:isolate" viewBox="0 0 512 512" width="512pt" height="512pt"><defs><clipPath id="_clipPath_EmST6D2g1voNIkh4oypC2BiaOxQBrdmz"><rect width="512" height="512"/></clipPath></defs><g clip-path="url(#_clipPath_EmST6D2g1voNIkh4oypC2BiaOxQBrdmz)"><rect x="0" y="128" width="512" height="256" transform="matrix(1,0,0,1,0,0)" fill="rgb(255,255,255)"/><g><path d=" M 248.284 341 C 248.228 340.976 248.178 340.94 248.137 340.896 L 248.085 340.847 C 247.85 340.628 247.627 340.396 247.417 340.153 C 246.855 339.515 246.101 338.58 245.438 337.754 C 244.123 336.115 243.037 334.704 242.832 334.438 L 242.497 334.002 L 239.219 332.991 L 236.826 331.876 L 238.105 330.438 L 242.497 332.319 L 245.775 332.991 L 251.837 337.45 L 251.832 337.454 C 251.82 337.464 250.951 338.187 250.087 338.973 C 249.701 339.323 249.216 339.775 248.873 340.147 C 248.731 340.299 248.6 340.46 248.48 340.629 C 248.408 340.748 248.342 340.873 248.284 341 M 225.772 334.239 C 222.815 334.212 219.918 333.401 217.376 331.889 L 217.373 331.889 L 217.373 331.886 C 217.682 331.37 218.096 330.925 218.587 330.578 C 219.407 329.976 220.884 329.258 223.272 329.248 L 223.321 329.248 C 226.149 329.248 229.61 330.21 233.608 332.106 C 231.238 333.514 228.529 334.252 225.772 334.239 L 225.776 334.243 L 225.772 334.239 Z  M 213.377 331.491 C 212.871 331.501 212.386 331.297 212.039 330.929 C 211.74 330.581 211.534 330.163 211.44 329.714 C 211.305 329.131 211.254 328.531 211.292 327.934 C 211.5 327.844 211.724 327.793 211.951 327.785 L 211.998 327.785 C 213.058 327.785 213.893 328.704 214.251 329.615 C 214.446 330.018 214.487 330.478 214.367 330.909 C 214.187 331.286 213.796 331.515 213.379 331.488 L 213.377 331.491 Z  M 235.188 328.963 C 227.862 327.917 224.756 325.268 223.441 323.231 C 222.609 321.994 222.217 320.514 222.33 319.027 L 222.33 319.021 L 222.335 319.021 C 222.703 318.937 223.08 318.895 223.457 318.898 C 225.406 318.898 230.391 319.878 235.19 328.96 L 235.193 328.966 L 235.184 328.962 L 235.188 328.963 Z  M 220.172 327.512 C 217.042 327.512 214.659 326.971 213.089 325.908 C 212.421 325.48 211.884 324.878 211.533 324.167 C 211.406 323.897 211.321 323.609 211.283 323.313 C 212.326 322.89 213.435 322.655 214.56 322.617 C 214.722 322.609 214.884 322.605 215.055 322.604 C 217.475 322.604 221.153 323.393 225.035 327.154 L 225.039 327.158 L 225.034 327.158 C 223.421 327.38 221.796 327.498 220.168 327.512 L 220.172 327.512 Z  M 205.016 326.929 C 201.716 326.929 197.182 325.921 194.354 323.094 L 194.351 323.091 L 194.36 323.091 C 196.509 322.583 198.704 322.291 200.911 322.221 C 201.117 322.215 201.325 322.213 201.534 322.212 C 204.628 322.212 206.997 322.813 208.574 323.996 C 209.015 324.26 209.342 324.679 209.493 325.17 C 209.528 325.533 209.356 325.884 209.048 326.078 C 208.337 326.614 207.067 326.9 205.273 326.929 L 205.019 326.937 L 205.016 326.929 Z  M 194.322 321.443 C 193.917 321.444 193.533 321.262 193.276 320.95 C 193.038 320.637 192.877 320.273 192.808 319.886 C 192.7 319.376 192.659 318.855 192.685 318.335 L 192.685 318.328 C 192.846 318.253 193.022 318.214 193.199 318.212 L 193.199 318.212 C 193.613 318.227 194.004 318.402 194.291 318.7 C 194.611 319.013 194.854 319.395 195.004 319.817 C 195.153 320.168 195.18 320.56 195.08 320.929 C 194.957 321.24 194.655 321.443 194.32 321.439 L 194.322 321.443 Z  M 219.024 320.886 C 218.518 320.895 218.032 320.691 217.686 320.323 C 217.387 319.975 217.18 319.557 217.086 319.108 C 216.951 318.526 216.901 317.926 216.938 317.329 C 217.146 317.238 217.37 317.188 217.597 317.179 L 217.644 317.179 C 218.704 317.179 219.539 318.098 219.897 319.01 C 220.092 319.413 220.133 319.873 220.013 320.304 C 219.833 320.681 219.442 320.91 219.025 320.882 L 219.024 320.886 Z  M 206.991 320.388 C 200.35 320.154 196.905 318.266 195.181 316.723 C 194.444 316.077 193.837 315.297 193.392 314.424 C 193.226 314.097 193.098 313.751 193.008 313.395 L 193.017 313.391 C 193.549 313.23 194.102 313.148 194.657 313.147 L 194.812 313.147 C 197.052 313.147 201.612 314.088 206.989 320.386 L 206.989 320.391 L 206.991 320.388 Z  M 214.204 319.717 C 208.861 318.903 205.833 316.609 204.235 314.827 C 203.248 313.768 202.498 312.511 202.035 311.139 C 202.575 311.016 203.126 310.949 203.681 310.942 C 203.752 310.942 203.826 310.939 203.902 310.939 C 203.977 310.939 204.056 310.939 204.135 310.942 C 206.823 311 211.704 312.217 214.203 319.714 L 214.207 319.714 L 214.204 319.717 Z  M 186.772 317.151 C 185.071 317.156 183.375 316.953 181.724 316.546 C 178.926 315.846 177.726 314.778 177.212 314.005 C 176.99 313.685 176.842 313.32 176.777 312.936 C 176.754 312.786 176.749 312.634 176.764 312.483 L 176.777 312.478 C 178.222 312.12 179.704 311.932 181.193 311.918 C 181.294 311.918 181.396 311.915 181.499 311.915 C 182.712 311.913 183.923 312.03 185.113 312.265 C 187.813 312.83 190.219 314.349 191.888 316.545 L 191.888 316.549 L 191.883 316.549 C 190.209 316.958 188.491 317.159 186.768 317.148 L 186.772 317.151 Z  M 199.175 312.643 C 198.672 312.657 198.186 312.457 197.837 312.095 C 197.537 311.743 197.33 311.321 197.237 310.867 C 197.102 310.289 197.052 309.694 197.089 309.101 C 197.298 309.011 197.521 308.96 197.748 308.952 L 197.796 308.952 C 198.853 308.952 199.69 309.871 200.049 310.782 C 200.24 311.182 200.276 311.638 200.151 312.063 C 199.98 312.442 199.591 312.674 199.177 312.645 L 199.175 312.643 Z  M 189.848 311.364 C 188.072 310.862 186.374 310.12 184.798 309.159 C 182.458 307.719 179.596 305.171 179.247 301.212 L 179.247 301.212 L 179.253 301.212 C 179.43 301.174 179.61 301.153 179.792 301.147 C 179.834 301.147 179.883 301.145 179.933 301.145 C 180.632 301.145 182.062 301.341 183.793 302.657 C 185.996 304.337 188.031 307.266 189.849 311.372 L 189.848 311.364 Z  M 195.938 311.141 C 194.489 310.482 193.143 309.618 191.942 308.573 C 188.838 305.902 186.419 302.525 184.887 298.727 C 185.27 298.547 185.683 298.445 186.105 298.424 C 186.147 298.421 186.19 298.42 186.234 298.42 C 186.298 298.42 186.363 298.42 186.43 298.424 C 187.447 298.453 188.997 298.875 190.715 300.729 C 192.689 302.859 194.45 306.359 195.948 311.133 L 195.953 311.147 L 195.94 311.142 L 195.938 311.141 Z  M 180.158 310.681 C 178.124 310.681 177.427 309.577 177.222 309.102 C 177.018 308.608 176.938 308.07 176.988 307.538 L 176.988 307.529 C 177.32 307.447 177.66 307.402 178.001 307.397 L 178.071 307.397 C 179.401 307.364 180.668 307.966 181.483 309.018 C 181.59 309.178 181.92 309.733 181.647 310.166 C 181.428 310.508 180.93 310.681 180.157 310.681 L 180.158 310.681 Z  M 175.651 304.995 C 174.075 304.999 172.502 304.865 170.949 304.594 C 169.137 304.264 168.109 302.723 167.567 301.489 C 167.202 300.645 166.947 299.758 166.807 298.85 L 166.812 298.85 C 172.418 299.014 175.065 300.652 176.299 301.997 C 177.063 302.792 177.54 303.821 177.652 304.918 L 177.648 304.918 C 177.64 304.918 176.851 304.994 175.648 304.994 L 175.651 304.995 Z  M 181.488 299.163 C 181.48 299.154 180.84 298.361 180.208 297.378 C 179.544 296.347 178.93 295.268 178.93 294.389 C 178.93 293.538 178.73 291.744 178.61 290.751 C 178.459 289.491 178.306 288.413 178.294 288.321 L 178.299 288.321 C 178.441 288.373 181.805 289.636 181.805 292.791 C 181.805 295.947 181.494 299.128 181.491 299.159 L 181.491 299.164 L 181.487 299.164 L 181.488 299.163 Z  M 177.128 298.863 C 177.093 298.863 177.057 298.86 177.022 298.854 C 176.028 298.688 174.279 297.928 172.349 296.821 C 170.204 295.591 168.463 294.273 167.445 293.111 C 166.517 292.051 165.968 290.386 165.808 288.162 C 165.737 287.155 165.749 286.144 165.844 285.139 C 166.024 285.081 166.211 285.052 166.399 285.054 C 167.144 285.067 167.938 285.402 169.011 286.141 C 169.989 286.837 170.905 287.615 171.75 288.468 C 172.823 289.534 173.837 290.657 174.789 291.832 L 174.803 291.849 C 174.914 292.049 175.873 293.778 176.62 295.461 C 176.994 296.235 177.28 297.048 177.474 297.886 C 177.548 298.131 177.548 298.392 177.474 298.637 C 177.443 298.717 177.386 298.783 177.312 298.826 C 177.253 298.852 177.19 298.865 177.126 298.864 L 177.128 298.863 Z " fill="rgb(78,91,49)"/><path d=" M 237.226 341 C 237.282 340.976 237.332 340.94 237.373 340.896 L 237.426 340.847 C 237.66 340.628 237.883 340.396 238.093 340.153 C 238.655 339.515 239.41 338.58 240.073 337.754 C 241.387 336.115 242.474 334.704 242.678 334.438 L 243.013 334.002 L 246.291 332.991 L 248.684 331.876 L 247.406 330.438 L 243.013 332.319 L 239.735 332.991 L 233.673 337.45 L 233.678 337.454 C 233.69 337.464 234.559 338.187 235.423 338.973 C 235.809 339.323 236.294 339.775 236.638 340.147 C 236.779 340.299 236.91 340.46 237.03 340.629 C 237.102 340.748 237.168 340.873 237.226 341 M 259.738 334.239 C 262.695 334.212 265.592 333.401 268.134 331.889 L 268.137 331.889 L 268.137 331.886 C 267.828 331.37 267.414 330.925 266.923 330.578 C 266.104 329.976 264.626 329.258 262.238 329.248 L 262.189 329.248 C 259.361 329.248 255.9 330.21 251.902 332.106 C 254.273 333.514 256.981 334.252 259.738 334.239 L 259.734 334.243 L 259.738 334.239 Z  M 272.133 331.491 C 272.639 331.501 273.125 331.297 273.471 330.929 C 273.77 330.581 273.976 330.163 274.07 329.714 C 274.205 329.131 274.256 328.531 274.219 327.934 C 274.01 327.844 273.786 327.793 273.559 327.785 L 273.512 327.785 C 272.452 327.785 271.617 328.704 271.259 329.615 C 271.064 330.018 271.023 330.478 271.144 330.909 C 271.323 331.286 271.715 331.515 272.131 331.488 L 272.133 331.491 Z  M 250.322 328.963 C 257.648 327.917 260.754 325.268 262.069 323.231 C 262.902 321.994 263.293 320.514 263.181 319.027 L 263.181 319.021 L 263.175 319.021 C 262.807 318.937 262.431 318.895 262.053 318.898 C 260.104 318.898 255.119 319.878 250.321 328.96 L 250.318 328.966 L 250.326 328.962 L 250.322 328.963 Z  M 265.338 327.512 C 268.468 327.512 270.851 326.971 272.421 325.908 C 273.089 325.48 273.626 324.878 273.977 324.167 C 274.105 323.897 274.189 323.609 274.227 323.313 C 273.185 322.89 272.075 322.655 270.95 322.617 C 270.789 322.609 270.626 322.605 270.455 322.604 C 268.036 322.604 264.357 323.393 260.475 327.154 L 260.471 327.158 L 260.476 327.158 C 262.089 327.38 263.714 327.498 265.342 327.512 L 265.338 327.512 Z  M 280.494 326.929 C 283.794 326.929 288.328 325.921 291.156 323.094 L 291.159 323.091 L 291.15 323.091 C 289.001 322.583 286.806 322.291 284.599 322.221 C 284.393 322.215 284.185 322.213 283.977 322.212 C 280.882 322.212 278.514 322.813 276.936 323.996 C 276.495 324.26 276.168 324.679 276.017 325.17 C 275.982 325.533 276.154 325.884 276.463 326.078 C 277.173 326.614 278.443 326.9 280.238 326.929 L 280.491 326.937 L 280.494 326.929 Z  M 291.188 321.443 C 291.593 321.444 291.977 321.262 292.235 320.95 C 292.473 320.637 292.633 320.273 292.702 319.886 C 292.81 319.376 292.851 318.855 292.825 318.335 L 292.825 318.328 C 292.664 318.253 292.489 318.214 292.311 318.212 L 292.311 318.212 C 291.897 318.227 291.506 318.402 291.219 318.7 C 290.899 319.013 290.656 319.395 290.506 319.817 C 290.357 320.168 290.33 320.56 290.43 320.929 C 290.554 321.24 290.855 321.443 291.19 321.439 L 291.188 321.443 Z  M 266.486 320.886 C 266.992 320.895 267.478 320.691 267.824 320.323 C 268.123 319.975 268.33 319.557 268.424 319.108 C 268.559 318.526 268.61 317.926 268.572 317.329 C 268.364 317.238 268.14 317.188 267.913 317.179 L 267.866 317.179 C 266.806 317.179 265.971 318.098 265.613 319.01 C 265.418 319.413 265.377 319.873 265.498 320.304 C 265.677 320.681 266.069 320.91 266.485 320.882 L 266.486 320.886 Z  M 278.519 320.388 C 285.16 320.154 288.605 318.266 290.329 316.723 C 291.066 316.077 291.673 315.297 292.118 314.424 C 292.284 314.097 292.413 313.751 292.502 313.395 L 292.493 313.391 C 291.961 313.23 291.409 313.148 290.853 313.147 L 290.698 313.147 C 288.458 313.147 283.898 314.088 278.521 320.386 L 278.521 320.391 L 278.519 320.388 Z  M 271.306 319.717 C 276.649 318.903 279.677 316.609 281.275 314.827 C 282.262 313.768 283.012 312.511 283.476 311.139 C 282.935 311.016 282.384 310.949 281.83 310.942 C 281.758 310.942 281.684 310.939 281.608 310.939 C 281.533 310.939 281.454 310.939 281.375 310.942 C 278.688 311 273.806 312.217 271.307 319.714 L 271.303 319.714 L 271.306 319.717 Z  M 298.739 317.151 C 300.439 317.156 302.135 316.953 303.786 316.546 C 306.584 315.846 307.784 314.778 308.298 314.005 C 308.52 313.685 308.668 313.32 308.733 312.936 C 308.757 312.786 308.761 312.634 308.746 312.483 L 308.733 312.478 C 307.288 312.12 305.806 311.932 304.317 311.918 C 304.216 311.918 304.115 311.915 304.011 311.915 C 302.798 311.913 301.587 312.03 300.397 312.265 C 297.697 312.83 295.291 314.349 293.622 316.545 L 293.622 316.549 L 293.627 316.549 C 295.301 316.958 297.019 317.159 298.742 317.148 L 298.739 317.151 Z  M 286.335 312.643 C 286.838 312.657 287.325 312.457 287.674 312.095 C 287.974 311.743 288.18 311.321 288.273 310.867 C 288.408 310.289 288.458 309.694 288.421 309.101 C 288.213 309.011 287.989 308.96 287.762 308.952 L 287.715 308.952 C 286.657 308.952 285.82 309.871 285.461 310.782 C 285.27 311.182 285.234 311.638 285.359 312.063 C 285.53 312.442 285.919 312.674 286.334 312.645 L 286.335 312.643 Z  M 295.662 311.364 C 297.438 310.862 299.137 310.12 300.712 309.159 C 303.052 307.719 305.915 305.171 306.264 301.212 L 306.264 301.212 L 306.258 301.212 C 306.08 301.174 305.9 301.153 305.718 301.147 C 305.676 301.147 305.627 301.145 305.577 301.145 C 304.878 301.145 303.448 301.341 301.717 302.657 C 299.514 304.337 297.48 307.266 295.661 311.372 L 295.662 311.364 Z  M 289.572 311.141 C 291.021 310.482 292.367 309.618 293.568 308.573 C 296.672 305.902 299.091 302.525 300.623 298.727 C 300.241 298.547 299.827 298.445 299.405 298.424 C 299.363 298.421 299.321 298.42 299.276 298.42 C 299.213 298.42 299.147 298.42 299.08 298.424 C 298.063 298.453 296.513 298.875 294.795 300.729 C 292.822 302.859 291.06 306.359 289.562 311.133 L 289.558 311.147 L 289.57 311.142 L 289.572 311.141 Z  M 305.352 310.681 C 307.387 310.681 308.083 309.577 308.288 309.102 C 308.492 308.608 308.573 308.07 308.522 307.538 L 308.522 307.529 C 308.191 307.447 307.85 307.402 307.509 307.397 L 307.439 307.397 C 306.109 307.364 304.843 307.966 304.028 309.018 C 303.92 309.178 303.59 309.733 303.863 310.166 C 304.082 310.508 304.58 310.681 305.353 310.681 L 305.352 310.681 Z  M 309.859 304.995 C 311.435 304.999 313.009 304.865 314.561 304.594 C 316.374 304.264 317.401 302.723 317.943 301.489 C 318.308 300.645 318.563 299.758 318.703 298.85 L 318.698 298.85 C 313.092 299.014 310.445 300.652 309.211 301.997 C 308.447 302.792 307.97 303.821 307.858 304.918 L 307.862 304.918 C 307.87 304.918 308.659 304.994 309.862 304.994 L 309.859 304.995 Z  M 304.023 299.163 C 304.03 299.154 304.67 298.361 305.303 297.378 C 305.966 296.347 306.581 295.268 306.581 294.389 C 306.581 293.538 306.781 291.744 306.9 290.751 C 307.051 289.491 307.204 288.413 307.217 288.321 L 307.211 288.321 C 307.069 288.373 303.705 289.636 303.705 292.791 C 303.705 295.947 304.016 299.128 304.019 299.159 L 304.019 299.164 L 304.023 299.164 L 304.023 299.163 Z  M 308.382 298.863 C 308.418 298.863 308.453 298.86 308.488 298.854 C 309.482 298.688 311.231 297.928 313.161 296.821 C 315.306 295.591 317.048 294.273 318.065 293.111 C 318.994 292.051 319.542 290.386 319.703 288.162 C 319.773 287.155 319.761 286.144 319.666 285.139 C 319.486 285.081 319.299 285.052 319.111 285.054 C 318.366 285.067 317.572 285.402 316.499 286.141 C 315.521 286.837 314.605 287.615 313.76 288.468 C 312.687 289.534 311.673 290.657 310.721 291.832 L 310.708 291.849 C 310.596 292.049 309.637 293.778 308.89 295.461 C 308.516 296.235 308.23 297.048 308.036 297.886 C 307.962 298.131 307.962 298.392 308.036 298.637 C 308.067 298.717 308.124 298.783 308.198 298.826 C 308.257 298.852 308.32 298.865 308.384 298.864 L 308.382 298.863 Z " fill="rgb(78,91,49)"/><path d=" M 359.716 171.013 L 358.722 171.409 L 358.332 171.564 L 357.128 171.498 L 356 172.039 L 353.999 173.406 L 353.911 173.47 L 353.165 173.664 L 352.473 173.366 L 352.079 173.544 L 351.944 174.355 L 351.57 174.937 L 351.109 175.26 L 349.512 175.424 L 348.166 176.118 L 346.414 175.649 L 345.601 175.968 L 343.87 177.526 L 342.986 177.945 L 342.677 177.927 L 341.505 177.867 L 341.01 178.029 L 340.27 178.743 L 338.871 178.852 L 338.435 179.154 L 337.752 180.53 L 337.013 181.293 L 336.59 181.382 L 336.132 181.213 L 335.787 181.274 L 335.631 182.155 L 335.296 182.523 L 334.36 182.846 L 333.611 183.469 L 332.955 183.807 L 332.075 183.785 L 331.873 183.785 L 330.997 184.268 L 329.351 184.413 L 328.665 185.067 L 328.514 185.206 L 328.194 185.4 L 327.671 185.712 L 327.544 185.79 L 326.911 185.677 L 326.173 185.969 L 325.874 185.51 L 325.363 185.817 L 324.688 185.846 L 323.844 185.47 L 323.201 185.184 L 322.732 185.252 L 322.568 186.071 L 322.552 186.158 L 322.058 186.815 L 321.136 187.373 L 321.01 187.537 L 319.961 188.891 L 317.968 190.987 L 316.283 191.842 L 314.536 192.374 L 313.312 193.378 L 310.105 194.968 L 305.042 197.489 L 304.007 197.821 L 302.521 198.058 L 299.872 199.034 L 297.534 199.739 L 297.404 199.778 L 296.94 199.919 L 293.644 200.916 L 292.11 200.754 L 291.201 201.084 L 288.835 200.821 L 287.189 200.854 L 286.148 201.07 L 284.191 202.009 L 280.888 203.597 L 279.797 204.595 L 278.097 205.481 L 276.107 206.112 L 276.112 205.276 L 276.1 205.24 L 275.41 205.458 L 274.911 205.616 L 273.297 205.865 L 272.399 205.865 L 271.841 205.703 L 271.757 205.732 L 268.457 206.816 L 264.778 207.171 L 262.936 207.762 L 261.56 207.74 L 260.7 207.996 L 259.012 208.202 L 258.409 208.042 L 258.273 208.004 L 253.315 208.22 L 251.047 207.963 L 249.965 208.21 L 248.15 207.599 L 245.505 207.292 L 244.886 207.107 L 243.494 206.694 L 242.864 207.057 L 242.393 207.107 L 241.268 206.699 L 240.863 206.689 L 239.934 207.027 L 239.399 206.889 L 238.903 206.494 L 237.737 206.32 L 237.028 205.723 L 233.06 206.249 L 231.984 205.933 L 228.374 204.881 L 227.799 204.91 L 227.082 205.446 L 226.006 205.839 L 225.073 206.081 L 223.802 206.123 L 222.325 205.736 L 220.803 204.998 L 220.24 204.864 L 218.985 204.991 L 218.601 205.026 L 216.294 203.788 L 213.322 201.931 L 211.306 200.961 L 210.548 200.838 L 210.447 201.198 L 210.822 202.379 L 210.949 203.55 L 210.911 204.632 L 210.89 205.302 L 211.078 205.903 L 211.806 206.71 L 212.11 207.52 L 212.332 209.75 L 212.329 212.013 L 211.975 215.622 L 211.855 216.171 L 211.433 218.041 L 211.048 219.758 L 209.551 224.33 L 209.14 224.897 L 208.131 225.585 L 205.844 227.141 L 204.16 228.112 L 203.627 228.333 L 202.26 228.436 L 201.408 228.394 L 200.348 227.82 L 199.307 227.552 L 197.943 226.571 L 196.423 226.257 L 194.76 225.295 L 194.327 224.775 L 193.421 224.691 L 192.165 224.314 L 192.165 224.312 L 191.704 224.174 L 191.385 224.081 L 191.385 224.081 L 189.782 224.039 L 188.288 223.349 L 187.501 223.159 L 186.426 223.105 L 185.301 223.627 L 185.301 223.627 L 184.731 223.893 L 184.01 223.607 L 183.489 223.639 L 182.898 224.532 L 182.825 224.668 L 182.419 224.883 L 181.912 224.876 L 181.516 224.866 L 181.087 225.053 L 180.51 225.303 L 180.51 225.303 L 180 225.526 L 179.751 225.633 L 179.747 225.629 L 179.594 225.66 L 179.321 225.707 L 178.984 225.772 L 178.389 225.424 L 178.072 225.238 L 177.542 225.13 L 177.256 225.336 L 177.2 226.307 L 176.939 226.888 L 176.111 227.62 L 175.27 228.361 L 174.684 229.225 L 173.133 232.765 L 172.162 234.194 L 171.86 234.527 L 170.84 235.65 L 169.938 236.349 L 167.861 237.959 L 165.895 238.694 L 164.201 239.04 L 163.377 239.043 L 161.816 238.836 L 160.414 238.405 L 158.873 237.442 L 157.185 236.084 L 154.74 233.669 L 154.394 233.461 L 154.321 233.412 L 153.551 232.92 L 152.98 232.935 L 152.756 233.304 L 152.634 233.837 L 152.53 234.309 L 152.25 236.996 L 152.271 237.152 L 152.418 238.259 L 154.275 240.854 L 154.848 242.233 L 154.942 242.391 L 155.325 243.034 L 155.617 243.525 L 155.646 243.575 L 156.279 245.469 L 155.833 246.538 L 156.058 247.256 L 155.495 247.693 L 155.391 248.312 L 157.059 250.402 L 157.423 251.324 L 157.016 252.603 L 156.368 253.308 L 156.187 253.501 L 156.278 254.041 L 157.045 254.731 L 158.349 255.892 L 159.044 257.616 L 159.573 258.08 L 160.187 257.949 L 160.529 258.21 L 161.047 258.201 L 161.557 258.711 L 161.887 258.871 L 162.409 259.131 L 162.821 259.668 L 162.912 261.319 L 163.681 263.37 L 163.693 264.482 L 163.697 264.64 L 164.176 265.462 L 164.326 266.111 L 164.073 267.828 L 164.683 268.379 L 165.344 268.244 L 165.771 268.312 L 166.458 268.883 L 167.289 270.149 L 168.101 270.03 L 168.617 270.279 L 171.107 272.53 L 171.672 272.815 L 171.703 272.833 L 172.11 273.037 L 172.616 273.547 L 173.4 273.027 L 173.487 273.018 L 174.338 272.943 L 174.712 273.196 L 175.43 273.681 L 176.373 273.669 L 178.417 274.295 L 179.311 274.525 L 181.109 275.642 L 181.874 276.115 L 182.326 276.482 L 182.927 276.972 L 184.128 277.489 L 185.158 277.735 L 185.716 277.868 L 186.138 278.03 L 186.148 278.004 L 186.154 278.004 L 186.144 278.03 L 188.374 278.884 L 189.582 279.166 L 190.699 279.578 L 191.513 279.873 L 192.11 279.883 L 192.954 279.173 L 193.771 279.126 L 194.45 279.294 L 195.113 279.183 L 196.162 278.537 L 196.366 278.234 L 197.11 277.88 L 199.618 277.568 L 200.352 277.806 L 202.234 276.988 L 203.495 277.338 L 204.611 276.942 L 207.05 277.484 L 207.698 277.941 L 208.423 278.77 L 208.512 278.774 L 209.319 278.789 L 208.981 279.351 L 210.046 280.468 L 211.008 281.922 L 211.073 282.114 L 211.772 284.167 L 212.292 284.894 L 212.656 285.909 L 212.673 286.571 L 212.108 287.002 L 212.015 287.248 L 211.983 287.339 L 212.098 287.616 L 212.311 287.499 L 212.718 287.274 L 213.212 287.198 L 214.084 287.29 L 214.66 287.351 L 215.569 286.9 L 216.171 286.6 L 217.139 287.017 L 218.203 287.005 L 218.649 287.203 L 219.915 287.777 L 220.56 287.837 L 220.799 287.681 L 220.951 287.32 L 220.873 286.898 L 220.387 286.341 L 219.319 285.101 L 218.882 284.464 L 218.549 283.541 L 218.446 282.361 L 218.372 281.565 L 218.505 280.52 L 218.792 280.147 L 219.003 279.316 L 219.007 279.316 L 219.061 279.099 L 219.654 278.312 L 221.226 277.302 L 222.914 275.79 L 224.249 274.91 L 225.625 274.314 L 225.661 274.145 L 225.814 274.207 L 229.314 273.017 L 229.372 273.01 L 230.93 272.739 L 241.447 273.48 L 241.837 273.362 L 241.837 273.359 L 242.187 272.376 L 242.376 272.194 L 242.503 272.075 L 243.659 271.566 L 244.2 271.488 L 245.7 271.859 L 246.315 272.01 L 247.299 271.459 L 247.997 271.471 L 249.439 270.683 L 250.33 270.706 L 250.668 270.57 L 252.403 269.323 L 254.075 268.844 L 254.51 268.613 L 254.663 268.528 L 256.376 267.623 L 257.465 266.787 L 258.404 266.288 L 259.433 266.023 L 262.126 265.833 L 262.667 264.931 L 263.825 264.776 L 264.525 263.987 L 265.327 263.662 L 265.9 262.835 L 266.381 262.143 L 267.052 261.754 L 269.205 261.619 L 271.756 261.935 L 272.094 261.73 L 272.67 259.673 L 273.274 259.287 L 274.899 256.918 L 274.904 256.055 L 274.904 255.334 L 275.172 254.308 L 274.99 252.455 L 275.205 250.578 L 276.216 248.194 L 277.106 247.232 L 278.541 246.261 L 279.27 245.944 L 280.304 245.77 L 280.304 245.77 L 280.456 245.744 L 280.719 245.699 L 284.278 245.65 C 284.328 245.614 285.573 245.633 285.573 245.633 L 286.759 245.617 L 289.763 246.15 L 289.976 246.187 L 290.989 246.516 L 292.16 247.426 L 293.4 248.637 L 293.632 248.863 L 294.434 249.201 L 294.677 249.306 L 295.34 249.201 L 296.284 248.709 L 296.996 248.107 L 297.967 247.576 L 297.991 247.542 L 298.537 246.72 L 298.554 246.703 L 298.566 246.706 L 298.566 246.702 L 298.556 246.702 L 298.772 246.375 L 300.649 245.643 L 302.856 245.517 L 303.104 245.382 L 303.242 245.308 L 303.825 244.624 L 304.372 244.619 L 305.695 245.098 L 306.624 244.913 L 307.362 245.208 L 307.936 245.141 L 309.019 245.014 L 310.181 245.831 L 310.858 245.916 L 313.246 247.313 L 313.37 247.333 L 313.434 247.345 L 313.571 247.368 L 313.854 247.283 L 314.276 247.161 L 314.332 247.145 L 314.385 247.219 L 314.657 247.601 L 315.029 247.655 L 315.47 247.067 L 315.294 246.8 L 315.228 246.703 L 314.375 246.529 L 313.609 245.221 L 314.338 244.436 L 313.194 243.032 L 313.004 242.799 L 312.94 242.701 L 312.544 242.1 L 310.541 239.047 L 307.932 236.964 L 307.932 236.964 L 307.019 236.233 L 307.013 236.229 L 306.693 235.975 L 305.3 234.558 L 304.305 233.237 L 304.174 232.953 L 303.969 232.505 L 303.373 231.206 L 302.334 230.404 L 301.487 229.479 L 301.445 229.425 L 299.697 227.05 L 299.41 226.652 L 298.998 226.414 L 298.126 226.408 L 298.041 226.323 L 297.992 226.272 L 298.022 226.241 L 298.44 225.825 L 298.907 225.708 L 299.107 225.249 L 298.218 222.674 L 298.212 222.584 L 298.146 221.761 L 298.871 218.024 L 298.964 217.569 L 300.199 215.054 L 300.965 214.427 L 301.801 212.784 L 302.518 211.734 L 303.204 211.067 L 303.324 210.996 L 304.562 210.246 L 305.602 210.1 L 306.593 209.96 L 308.324 210.494 L 309.969 210.462 L 310.291 210.427 L 311.038 210.343 L 312.266 209.956 L 312.846 209.598 L 313.147 209.137 L 313.775 207.032 L 313.976 206.362 L 314.363 205.635 L 316.603 203.057 L 318.295 201.491 L 322.102 198.7 L 323.965 197.586 L 324.916 197.018 L 333.41 193.242 L 335.618 191.006 L 336.768 189.842 L 338.802 188.476 L 341.183 187.501 L 343.232 185.879 L 343.679 185.316 L 344.243 183.502 L 344.713 183.388 L 345.135 182.471 L 345.255 182.21 L 346.927 181.031 L 347.116 180.937 L 353.61 177.683 L 354.554 177.813 L 355.061 177.056 L 356.95 176.739 L 357.298 176.68 L 357.762 176.448 L 358.158 175.772 L 358.158 175.639 L 358.213 173.836 L 358.616 173.348 L 358.836 172.16 L 359.043 171.885 L 359.26 171.6 L 359.795 171.224 L 359.702 171 L 359.716 171.013 Z " fill="rgb(213,120,0)"/></g></g></svg>