<?xml version="1.0" encoding="UTF-8" standalone="no"?><!-- Generator: Gravit.io --><svg xmlns="http://www.w3.org/2000/svg" xmlns:xlink="http://www.w3.org/1999/xlink" style="isolation:isolate" viewBox="0 0 512 512" width="512pt" height="512pt"><defs><clipPath id="_clipPath_S5l9mEHUln6hJdeakGssOrhKZzZViTTU"><rect width="512" height="512"/></clipPath></defs><g clip-path="url(#_clipPath_S5l9mEHUln6hJdeakGssOrhKZzZViTTU)"><rect x="0" y="128" width="512" height="256" transform="matrix(1,0,0,1,0,0)" fill="rgb(255,255,255)"/><g><mask id="_mask_IFkCGHxYmQyXuCl5rmH9ETTstBm7kPik" x="-200%" y="-200%" width="400%" height="400%"><rect x="-200%" y="-200%" width="400%" height="400%" style="fill:white;"/><path d=" M 0 248.528 L 192 248.528 L 0 133 L 0 379 L 192 379 L 0 194.5 L 0 248.528 Z " fill="black" stroke="none"/></mask><path d=" M 0 248.528 L 192 248.528 L 0 133 L 0 379 L 192 379 L 0 194.5 L 0 248.528 Z " fill="rgb(220,20,60)" mask="url(#_mask_IFkCGHxYmQyXuCl5rmH9ETTstBm7kPik)" vector-effect="non-scaling-stroke" stroke-width="10.33" stroke="rgb(0,56,147)" stroke-linejoin="miter" stroke-linecap="butt" stroke-miterlimit="4"/><path d=" M 0 248.528 L 192 248.528 L 0 133 L 0 379 L 192 379 L 0 194.5 L 0 248.528 Z " fill="rgb(220,20,60)"/><path d=" M 0 248.528 L 192 248.528 L 0 133 L 0 379 L 192 379 L 0 194.5 L 0 248.528 Z " fill="rgb(220,20,60)"/><g><path d=" M 48 241.947 C 69.12 241.947 86.24 225.496 86.24 205.201 C 82.88 213.411 76.8 220.207 69.056 224.635 L 65.792 222.298 L 72.192 217.686 L 64.448 215.779 L 68.544 209.106 L 60.544 210.213 L 61.728 202.587 L 54.784 206.585 L 52.8 199.051 L 48 205.201 L 43.2 199.051 L 41.184 206.554 L 34.272 202.618 L 35.456 210.305 L 27.456 209.168 L 31.616 215.841 L 23.808 217.747 L 30.208 222.359 L 27.008 224.727 C 19.424 220.422 13.248 213.78 9.792 205.293 C 9.792 225.588 26.912 242.039 48.032 242.039 L 48 241.947 Z " fill="rgb(255,255,255)"/><path d=" M 29.568 296.067 L 12.416 294.038 L 22.816 307.26 L 6.912 313.779 L 22.816 320.237 L 12.416 333.459 L 29.568 331.43 L 27.456 347.943 L 41.216 337.949 L 48 353.262 L 54.72 337.949 L 68.544 347.973 L 66.432 331.491 L 83.584 333.552 L 73.184 320.329 L 89.088 313.871 L 73.184 307.353 L 83.584 294.13 L 66.432 296.129 L 68.544 279.647 L 54.784 289.64 L 48 274.296 L 41.28 289.579 L 27.456 279.585 L 29.568 296.067 Z " fill="rgb(255,255,255)"/></g></g></g></svg>