<?xml version="1.0" encoding="UTF-8" standalone="no"?><!-- Generator: Gravit.io --><svg xmlns="http://www.w3.org/2000/svg" xmlns:xlink="http://www.w3.org/1999/xlink" style="isolation:isolate" viewBox="0 0 512 512" width="512pt" height="512pt"><defs><clipPath id="_clipPath_ob3arqjFeK6JtcH3rwC91iN0cMRc0kSY"><rect width="512" height="512"/></clipPath></defs><g clip-path="url(#_clipPath_ob3arqjFeK6JtcH3rwC91iN0cMRc0kSY)"><g><path d=" M 0 128 L 512 128 L 512 384 L 0 384 L 0 128 Z " fill="rgb(216,33,38)"/><path d=" M 0 281.6 L 0 230.4 L 512 281.6 L 512 230.4 L 0 281.6 Z  M 230.4 128 L 281.6 128 L 256 228.571 L 230.4 128 Z  M 281.6 384 L 230.4 384 L 256 283.429 L 281.6 384 Z  M 0 128 L 76.8 128 L 279.515 270.117 L 0 128 Z  M 0 384 L 76.8 384 L 279.515 241.883 L 0 384 Z  M 512 128 L 435.2 128 L 232.485 270.117 L 512 128 Z  M 512 384 L 435.2 384 L 232.485 241.883 L 512 384 Z " fill="rgb(248,233,46)"/><circle vector-effect="non-scaling-stroke" cx="256" cy="256" r="45.71428571428572" fill="rgb(216,33,38)"/><circle vector-effect="non-scaling-stroke" cx="255.99999999999994" cy="256" r="36.571428571428555" fill="rgb(248,233,46)"/></g></g></svg>