<?xml version="1.0" encoding="UTF-8" standalone="no"?><!-- Generator: Gravit.io --><svg xmlns="http://www.w3.org/2000/svg" xmlns:xlink="http://www.w3.org/1999/xlink" style="isolation:isolate" viewBox="0 0 512 512" width="512pt" height="512pt"><defs><clipPath id="_clipPath_9dJgxvucuYK9VUffCE11drRQAifNDhVP"><rect width="512" height="512"/></clipPath></defs><g clip-path="url(#_clipPath_9dJgxvucuYK9VUffCE11drRQAifNDhVP)"><g><rect x="0" y="128" width="512" height="256" transform="matrix(1,0,0,1,0,0)" fill="rgb(0,56,168)"/><rect x="0" y="256" width="512" height="128" transform="matrix(1,0,0,1,0,0)" fill="rgb(206,17,38)"/><path d=" M 221.703 256 L 0 384 L 0 128" fill="rgb(255,255,255)"/><path d=" M 12.8 150.17 L 20.506 156.829 L 29.428 151.918 L 25.476 161.304 L 32.904 168.272 L 22.756 167.414 L 18.424 176.631 L 16.105 166.715 L 6 165.444 L 14.714 160.173 L 12.8 150.17 Z " fill="rgb(252,209,22)"/><path d=" M 186.275 242.474 L 186.483 252.656 L 196.102 256 L 186.483 259.344 L 186.275 269.526 L 180.122 261.41 L 170.374 264.36 L 176.191 256 L 170.374 247.64 L 180.122 250.59 L 186.275 242.474 Z " fill="rgb(252,209,22)"/><path d=" M 18.424 335.369 L 22.756 344.586 L 32.904 343.728 L 25.476 350.696 L 29.428 360.082 L 20.506 355.171 L 12.8 361.83 L 14.714 351.827 L 6 346.556 L 16.105 345.285 L 18.424 335.369 Z " fill="rgb(252,209,22)"/><path d=" M 79.644 201.956 L 76.321 205.279 L 77.969 230.454 C 77.409 230.49 76.854 230.544 76.304 230.616 L 73.277 207.644 L 70.565 210.356 L 74.649 230.89 C 71.29 231.554 68.167 232.874 65.421 234.713 L 53.791 217.308 L 49.954 217.308 L 64.059 235.693 C 63.617 236.033 63.188 236.389 62.769 236.757 L 46.13 217.784 L 41.428 217.784 L 41.428 222.486 L 60.401 239.125 C 60.033 239.544 59.678 239.975 59.337 240.418 L 40.952 226.309 L 40.952 230.146 L 58.361 241.78 C 56.522 244.526 55.199 247.646 54.534 251.004 L 34.001 246.921 L 31.288 249.633 L 54.26 252.659 C 54.189 253.21 54.134 253.764 54.098 254.325 L 28.924 252.676 L 25.6 256 L 28.924 259.324 L 54.098 257.675 C 54.135 258.236 54.189 258.794 54.26 259.344 L 31.288 262.367 L 34.001 265.079 L 54.534 260.996 C 55.199 264.355 56.518 267.476 58.358 270.224 L 40.952 281.853 L 40.952 285.691 L 59.337 271.585 C 59.678 272.028 60.033 272.456 60.401 272.875 L 41.428 289.514 L 41.428 294.216 L 46.13 294.216 L 62.769 275.243 C 63.189 275.612 63.62 275.966 64.063 276.307 L 49.954 294.692 L 53.791 294.692 L 65.424 277.283 C 68.17 279.124 71.29 280.449 74.649 281.114 L 70.565 301.644 L 73.277 304.356 L 76.304 281.384 C 76.854 281.456 77.409 281.51 77.969 281.546 L 76.321 306.721 L 79.644 310.044 L 82.968 306.721 L 81.32 281.546 C 81.88 281.51 82.435 281.456 82.985 281.384 L 86.012 304.356 L 88.724 301.644 L 84.64 281.11 C 87.999 280.446 91.121 279.126 93.868 277.287 L 105.498 294.692 L 109.335 294.692 L 95.23 276.307 C 95.672 275.967 96.101 275.611 96.52 275.243 L 113.159 294.216 L 117.861 294.216 L 117.861 289.514 L 98.888 272.875 C 99.256 272.456 99.611 272.025 99.952 271.582 L 118.337 285.691 L 118.337 281.853 L 100.928 270.22 C 102.767 267.474 104.09 264.354 104.755 260.996 L 125.288 265.079 L 128.001 262.367 L 105.028 259.341 C 105.1 258.79 105.154 258.236 105.191 257.675 L 130.365 259.324 L 133.689 256 L 130.365 252.676 L 105.191 254.325 C 105.155 253.764 105.1 253.209 105.028 252.659 L 128.001 249.633 L 125.288 246.921 L 104.755 251.004 C 104.09 247.645 102.771 244.523 100.931 241.776 L 118.337 230.146 L 118.337 226.309 L 99.952 240.415 C 99.611 239.972 99.256 239.544 98.888 239.125 L 117.861 222.486 L 117.861 217.784 L 113.159 217.784 L 96.52 236.757 C 96.1 236.389 95.669 236.033 95.226 235.693 L 109.335 217.308 L 105.498 217.308 L 93.865 234.717 C 91.119 232.878 87.999 231.554 84.64 230.89 L 88.724 210.356 L 86.012 207.644 L 82.985 230.616 C 82.435 230.544 81.88 230.49 81.32 230.454 L 82.968 205.279 L 79.644 201.956 Z " fill="rgb(252,209,22)"/></g></g></svg>