<?xml version="1.0" encoding="UTF-8" standalone="no"?><!-- Generator: Gravit.io --><svg xmlns="http://www.w3.org/2000/svg" xmlns:xlink="http://www.w3.org/1999/xlink" style="isolation:isolate" viewBox="0 0 512 512" width="512pt" height="512pt"><defs><clipPath id="_clipPath_tppc4ZGwKbnNHYBwBhsX10jVH20qWFwo"><rect width="512" height="512"/></clipPath></defs><g clip-path="url(#_clipPath_tppc4ZGwKbnNHYBwBhsX10jVH20qWFwo)"><rect x="0" y="128" width="512" height="256" transform="matrix(1,0,0,1,0,0)" fill="rgb(0,108,53)"/><g><path d=" M 303.898 304 C 303.893 304.002 303.886 304.011 303.882 304.014 C 300.791 304.683 300.887 307.388 302.871 308.58 C 270.228 308.58 220.134 308.113 209.391 308.113 C 203.381 308.113 184.366 307.507 184 307.507 C 188.078 312.541 193.985 313.567 201.715 313.67 L 302.512 313.518 C 301.153 315.555 302.636 318.837 303.701 319.433 C 303.724 319.446 303.76 319.465 303.783 319.474 C 303.824 319.493 303.868 319.507 303.913 319.515 C 303.926 319.518 303.95 319.514 303.962 319.515 C 305.228 319.767 305.785 318.994 306.211 318.429 C 308.265 318.581 319.821 318.722 320.879 318.415 C 320.882 318.414 320.891 318.402 320.894 318.401 C 321.61 319.29 322.32 320.129 323.682 319.983 C 326.064 319.552 327.941 319.334 328 315.252 C 328 315.252 327.757 308.297 322.345 308.732 C 321.065 308.896 317.472 309.2 317.472 309.2 C 313.315 308.783 310.265 308.74 305.592 308.595 C 306.023 308.133 306.785 306.261 305.852 305.583 C 305.609 305.412 305.246 305.317 304.744 305.349 L 304.728 305.349 C 304.721 305.349 304.702 305.35 304.695 305.349 C 304.692 305.348 304.682 305.336 304.679 305.335 C 304.667 305.331 304.643 305.328 304.631 305.321 C 304.601 305.301 304.574 305.278 304.55 305.253 C 304.544 305.247 304.522 305.232 304.517 305.225 C 304.28 304.935 304.152 304.223 303.995 304.043 L 303.979 304.029 C 303.977 304.028 303.965 304.016 303.963 304.015 C 303.953 304.01 303.942 304.006 303.931 304.002 L 303.898 304.002 L 303.898 304 Z  M 306.114 313.945 C 306.12 313.943 306.125 313.947 306.13 313.945 C 310.892 314.141 315.367 313.983 320.129 314.179 C 320.885 314.72 320.507 315.961 320.015 316.187 C 319.989 316.198 319.962 316.207 319.934 316.215 C 319.917 316.218 319.891 316.214 319.869 316.215 C 319.847 316.215 319.826 316.218 319.804 316.215 L 315.811 316.119 C 315.81 316.053 315.799 315.989 315.779 315.926 C 315.412 315.008 312.754 315.069 312.128 315.788 C 312.117 315.802 312.107 315.815 312.096 315.829 C 312.083 315.847 312.072 315.865 312.063 315.885 C 312.051 315.907 312.04 315.93 312.03 315.953 C 312.021 315.98 312.018 316.021 312.014 316.05 C 312.01 316.086 311.995 316.125 311.998 316.16 C 309.912 316.372 308.026 316.101 305.935 316.036 C 305.327 315.392 305.394 314.226 306.115 313.945 L 306.114 313.945 Z " fill-rule="evenodd" fill="rgb(255,255,255)"/><path d=" M 320.922 238.353 C 321.581 238.677 323.313 236.715 323.252 234.251 C 323.442 232.987 322.762 228.319 321.034 227.528 C 320.832 227.464 320.618 227.437 320.407 227.464 C 319.504 227.584 318.65 228.352 319.042 229.61 C 318.794 230.348 320.267 232.933 320.649 234.305 C 320.993 235.281 320.206 238.042 320.921 238.332 L 320.922 238.353 Z  M 184.544 198.718 C 186.659 199.646 190.626 199.256 190.458 196.112 C 190.458 195.839 190.391 194.899 190.361 194.645 C 190.146 194.183 189.746 194.007 189.365 194.067 L 189.369 194.068 C 188.983 194.132 188.619 194.425 188.485 194.897 C 188.4 195.211 188.63 195.731 188.325 195.888 C 188.149 196.07 187.477 195.952 187.505 195.075 C 187.505 194.803 187.284 194.509 187.151 194.334 C 187.019 194.244 186.928 194.214 186.685 194.214 C 186.392 194.221 186.398 194.304 186.236 194.525 C 186.163 194.737 186.072 194.985 186.072 195.25 C 186.036 195.558 185.903 195.665 185.654 195.71 C 185.379 195.71 185.44 195.734 185.221 195.589 C 185.093 195.437 184.933 195.407 184.933 195.174 C 184.933 194.963 184.867 194.558 184.788 194.403 C 184.67 194.252 184.489 194.191 184.274 194.131 C 183.119 194.135 183.035 195.356 183.101 195.818 C 183.017 195.909 182.971 198.068 184.548 198.676 L 184.544 198.718 Z  M 167.592 198.597 C 167.916 199.341 167.271 201.737 167.946 201.959 C 168.566 202.2 169.421 200.298 169.745 198.538 C 169.924 197.573 169.788 194.272 167.352 193.591 C 167.225 193.567 167.097 193.527 166.966 193.527 C 166.034 193.503 165.005 194.035 165.407 195.066 C 165.174 195.628 167.231 197.527 167.592 198.576 L 167.592 198.597 Z  M 242.282 199.483 C 243.497 196.458 243.502 195.169 243.584 193.885 C 243.396 192.909 242.934 192.437 242.411 192.476 C 241.888 192.54 241.309 193.078 240.837 194.164 C 240.431 194.992 239.936 199.303 240.017 199.303 C 239.693 200.588 241.472 201.129 242.282 199.484 L 242.282 199.483 Z  M 227.192 198.64 C 227.792 199.431 228.384 199.35 229.586 198.791 C 230.277 198.322 230.51 198.019 230.743 197.233 C 231.03 195.915 229.237 197.856 229.007 196.387 C 228.607 195.023 229.751 194.464 230.839 193.143 C 230.864 192.523 230.875 192.016 230.438 192 C 230.238 191.995 229.94 192.091 229.522 192.324 C 228.582 192.901 226.719 194.694 226.661 196.752 C 226.604 197.913 226.368 197.907 227.191 198.648 L 227.192 198.64 Z  M 165.521 219.467 C 171.695 220.014 168.284 209.85 170.519 208.004 C 170.942 207.094 171.725 207.076 171.789 208.217 L 171.789 216.851 C 171.731 219.656 173.736 220.492 175.292 221.072 C 176.91 220.951 177.984 220.981 178.618 222.448 L 179.39 237.39 C 179.39 237.39 183.132 238.379 183.311 228.993 C 183.489 223.481 182.119 218.855 182.925 217.782 C 182.953 216.73 184.419 216.676 185.432 217.189 C 187.045 218.239 187.761 219.53 190.268 219.01 C 194.084 218.042 196.383 216.334 196.439 213.634 C 196.218 211.067 195.894 208.499 194.688 205.933 C 194.854 205.467 193.957 204.255 194.125 203.786 C 194.811 204.778 195.848 204.693 196.086 203.786 C 195.436 201.814 194.425 199.923 192.792 199.106 C 191.442 198.009 189.465 198.238 188.742 200.527 C 188.406 203.161 189.778 206.284 191.859 208.835 C 192.302 209.83 192.92 211.49 192.647 212.982 C 191.539 213.565 190.441 213.32 189.513 212.42 C 189.513 212.42 186.476 210.325 186.476 209.859 C 187.281 205.103 186.648 204.559 186.204 203.238 C 185.892 201.418 184.955 200.84 184.196 199.595 C 183.436 198.855 182.405 198.855 181.914 199.595 C 180.572 201.739 181.201 206.348 182.171 208.407 C 182.872 210.303 183.946 211.488 183.44 211.488 C 183.024 212.558 182.155 212.31 181.528 211.073 C 180.633 208.515 180.451 204.705 180.451 202.987 C 180.185 200.858 179.884 196.307 178.362 195.153 C 177.957 194.642 177.477 194.466 177.013 194.515 C 176.415 194.579 175.853 195.027 175.583 195.625 C 175.483 197.738 175.471 199.853 175.728 201.801 C 176.771 205.218 177.101 208.223 177.608 211.722 C 177.747 216.41 174.671 213.748 174.812 211.42 C 175.522 208.403 175.326 203.65 174.7 202.445 C 174.199 201.242 173.62 200.943 172.402 201.142 C 171.434 201.078 168.938 203.597 168.24 207.748 C 168.24 207.748 167.658 209.879 167.404 211.776 C 167.063 213.92 165.521 215.439 164.447 211.473 C 163.519 208.598 162.949 201.507 161.394 203.166 C 160.949 208.701 160.42 218.442 165.524 219.442 L 165.521 219.467 Z  M 205.294 210.074 C 205.297 210.076 205.307 210.073 205.31 210.074 C 205.313 210.076 205.323 210.09 205.326 210.09 C 205.329 210.091 205.338 210.09 205.342 210.09 L 205.358 210.106 C 205.76 210.348 210.708 210.348 211.256 210.122 C 211.26 210.119 211.269 210.106 211.272 210.106 C 211.275 210.104 211.286 210.107 211.288 210.106 C 211.289 210.105 211.287 210.09 211.288 210.09 C 212.988 209.512 221.058 201.012 221.058 201.012 C 220.64 200.682 220.254 200.437 219.837 200.107 C 219.389 199.748 219.434 199.4 219.837 199.041 C 221.835 197.97 221.202 195.61 220.158 194.538 C 219.293 194.181 218.478 194.06 217.748 194.093 C 217.077 194.113 216.418 194.28 215.819 194.582 C 214.417 195.819 214.088 197.803 215.193 199.04 C 216.267 199.506 217.335 200.504 216.622 201.054 C 213.58 204.045 205.676 209.043 205.278 209.954 C 205.274 209.963 205.269 209.972 205.262 209.979 C 205.26 209.986 205.262 210.003 205.262 210.011 L 205.262 210.026 C 205.266 210.035 205.271 210.043 205.278 210.058 L 205.294 210.075 L 205.294 210.074 Z  M 217.268 196.749 C 217.301 196.743 217.331 196.734 217.364 196.734 C 217.858 196.67 218.454 197.106 218.747 197.695 C 219.058 198.324 218.9 198.926 218.393 199.044 C 217.885 199.164 217.227 198.741 216.915 198.112 C 216.603 197.484 216.761 196.863 217.268 196.749 L 217.268 196.749 Z  M 228.429 215.063 C 230.897 216.004 232.464 211.674 233.475 206.933 C 234.166 205.6 234.694 205.452 235.049 206.132 C 234.959 212.438 235.54 213.845 237.299 215.758 C 241.223 218.549 244.469 216.112 244.724 215.879 L 247.777 213.064 C 248.457 212.405 249.356 212.365 250.316 212.943 C 251.249 213.723 251.13 215.075 253.128 216.009 C 254.81 216.629 258.402 216.16 259.235 214.824 C 260.355 213.052 260.627 212.444 261.147 211.773 C 261.946 210.79 263.317 211.229 263.317 211.562 C 263.189 212.109 262.384 212.647 262.931 213.636 C 263.882 214.292 264.103 213.848 264.666 213.726 C 266.657 212.849 268.153 208.868 268.153 208.868 C 268.241 207.384 267.325 207.499 266.739 207.801 C 265.975 208.233 265.929 208.379 265.164 208.808 C 264.191 208.959 262.305 209.533 261.372 208.2 C 260.419 206.6 260.413 204.369 259.685 202.75 C 259.685 202.629 258.411 200.21 259.588 200.056 C 260.182 200.177 261.459 200.461 261.661 199.478 C 262.284 198.52 260.317 195.801 258.977 194.428 C 257.814 193.252 256.209 193.11 254.655 194.308 C 253.566 195.23 253.727 196.264 253.513 197.241 C 253.238 198.363 253.29 199.753 254.526 201.239 C 255.613 203.21 257.587 205.748 256.937 209.325 C 256.937 209.325 255.789 211.024 253.771 210.806 C 252.93 210.625 251.559 210.302 250.83 205.342 C 250.279 201.588 250.967 196.327 249.239 193.865 C 248.853 192.937 248.513 192.033 247.953 192.102 C 247.618 192.126 247.206 192.534 246.636 193.496 C 246.227 194.494 244.463 196.006 245.736 199.124 C 246.777 201.098 247.205 204.313 246.732 207.891 C 246.011 208.906 245.846 209.261 244.901 210.274 C 243.572 211.592 242.132 211.253 241.028 210.763 C 239.996 210.122 239.185 209.793 238.714 207.757 C 238.799 204.511 239.001 199.199 238.361 198.072 C 237.411 196.327 235.848 196.953 235.179 197.479 C 231.966 200.185 230.379 204.757 229.41 208.393 C 228.518 211.039 227.569 210.277 226.903 209.207 C 225.28 207.804 225.166 196.846 223.207 198.648 C 220.069 206.913 225.007 215.967 228.429 215.086 L 228.429 215.063 Z  M 215.499 209.174 C 213.629 210.105 212.905 212.873 214.07 214.49 C 215.158 215.911 216.878 215.395 217.107 215.395 C 218.939 215.606 220.032 212.226 220.032 212.226 C 220.032 212.226 220.086 211.273 217.91 213.069 C 216.994 213.25 216.87 212.918 216.641 212.449 C 216.45 211.569 216.492 210.677 216.928 209.8 C 217.131 209.274 216.929 208.938 216.494 208.896 C 216.237 208.872 215.892 208.96 215.498 209.168 L 215.499 209.174 Z  M 336.385 251.372 C 335.984 250.949 335.08 251.19 334.472 251.16 C 334.185 251.16 333.23 251.009 333.686 250.256 C 334.062 249.775 334.201 249.488 334.457 248.892 C 334.741 248.312 334.49 247.922 333.46 247.604 C 332.936 247.514 332.573 247.484 332.191 247.484 C 331.809 247.5 331.408 247.548 330.826 247.604 C 330.195 247.725 329.976 247.982 329.861 248.684 C 329.907 249.751 330.615 249.697 331.339 250.12 C 331.76 250.613 332.033 251.057 331.306 251.865 L 329.442 253.346 C 329.118 253.854 328.915 254.641 329.908 254.885 C 331.741 255.36 335.982 252.82 335.982 252.766 C 336.669 252.291 336.441 251.39 336.384 251.39 L 336.385 251.372 Z  M 349.547 206.758 C 349.408 205.815 348.956 203.649 349.129 203.366 C 349.407 202.704 350.826 203.43 351.33 202.671 C 352.07 201.973 347.666 196.778 346.124 194.556 C 345.815 193.999 345.625 193.539 345.352 193.563 C 345.141 193.579 344.881 193.899 344.484 194.673 C 343.531 196.115 343.199 198.691 343.585 200.967 C 345.881 215.281 347.587 229.141 347.94 241.828 C 347.743 243.031 347.686 243.672 347.072 245.189 C 345.717 246.788 344.222 248.797 342.814 249.765 C 341.406 250.733 338.41 251.655 337.43 252.372 C 334.323 254.028 334.302 255.931 336.819 256 C 341.15 255.537 346.274 255.211 349.803 250.298 C 350.748 248.923 351.86 245.191 351.909 242.908 C 352.239 229.522 351.724 216.433 349.546 206.758 L 349.547 206.758 Z  M 162.091 233.007 L 178.16 225.899 C 177.282 224.689 178.106 223.601 174.803 223.513 C 169.724 223.603 162.288 229.648 162.091 233.006 L 162.091 233.007 Z  M 164.954 248.347 C 163.618 250.847 163.062 249.136 162.946 247.739 C 162.743 245.09 163.018 242.651 163.331 240.72 C 163.498 239.728 163.492 239.383 163.365 239.386 C 163.238 239.391 162.981 239.743 162.642 240.136 C 159.621 244.572 159.352 251.193 161.019 253.169 C 161.905 254.103 163.365 254.511 164.441 254.221 C 166.34 253.461 167.173 249.919 166.723 248.623 C 166.09 247.707 165.587 247.565 164.955 248.351 L 164.954 248.347 Z  M 202.834 241.681 C 205.035 234.929 202.789 229.836 203.525 229.212 C 203.532 229.206 203.551 229.203 203.56 229.195 C 203.566 229.191 203.584 229.188 203.593 229.18 C 203.6 229.176 203.617 229.163 203.627 229.163 C 203.658 229.154 203.69 229.149 203.723 229.148 C 206.438 231.842 210.248 229.489 211.083 228.555 C 211.441 228.089 212.337 227.787 212.962 228.373 C 215.08 229.776 218.792 229.114 219.567 226.641 C 220.015 224.222 220.393 221.731 220.483 219.147 C 219.103 219.543 217.991 219.839 217.542 220.272 C 217.437 220.393 217.358 220.484 217.333 220.629 L 216.98 222.776 C 216.969 222.84 216.947 222.896 216.917 222.957 C 216.854 223.048 216.763 223.139 216.66 223.17 C 216.172 223.411 215.322 223.29 215.278 222.622 C 214.623 219.874 211.921 219.515 210.28 223.777 C 209.177 224.603 207.163 224.763 206.954 223.536 C 207.22 220.675 205.968 220.293 203.467 221.64 L 201.057 204.906 C 202.101 204.882 203.059 205.574 204.014 204.473 C 202.985 201.51 200.794 195.486 199.563 194.92 C 199.553 194.916 199.54 194.913 199.529 194.905 C 199.474 194.841 199.415 194.78 199.354 194.723 C 199.328 194.707 199.303 194.691 199.275 194.659 C 199.253 194.643 199.218 194.635 199.197 194.595 C 199.146 194.571 199.091 194.531 199.036 194.531 C 198.928 194.507 198.813 194.507 198.699 194.507 L 198.7 194.507 C 198.393 194.531 198.055 194.689 197.655 194.779 C 196.343 195.166 195.115 196.209 195.502 198.244 L 199.616 222.251 C 199.855 223.266 198.929 224.609 197.736 224.473 C 195.708 223.209 195.208 220.643 191.743 220.756 C 189.236 220.78 186.379 223.296 186.022 225.717 C 185.604 227.64 185.455 229.727 186.022 231.404 C 187.778 233.354 189.893 233.149 191.743 232.707 C 193.264 232.13 194.515 230.748 195.053 231.077 C 195.054 231.079 195.067 231.076 195.069 231.077 C 195.07 231.08 195.067 231.094 195.069 231.094 C 195.4 231.629 195.038 236.147 187.901 239.638 C 183.516 241.453 180.025 241.885 178.147 238.586 C 176.984 236.524 178.232 228.674 175.368 230.485 C 166.896 250.611 195.215 253.42 198.379 231.313 C 198.584 230.691 199.208 230.064 199.648 230.219 C 199.839 230.309 200.018 230.536 200.082 230.987 C 199.426 251.002 178.174 252.374 174.565 246.078 C 173.67 244.593 173.4 241.29 173.311 239.31 C 173.148 238.113 172.821 237.42 172.443 237.148 C 171.586 236.555 170.429 238.11 170.178 240.806 C 169.819 242.978 169.921 243.57 169.921 245.664 C 171.054 261.473 198.402 254.68 202.847 241.621 L 202.834 241.681 Z  M 192.27 228.002 C 192.268 228.005 192.271 228.018 192.27 228.018 C 192.266 228.025 192.258 228.042 192.254 228.042 C 192.042 228.284 191.292 228.193 190.76 228.193 C 190.114 228.169 189.797 228.072 189.41 227.585 C 189.225 227.047 189.788 226.518 190.037 226.119 C 190.039 226.114 190.05 226.11 190.053 226.102 C 190.086 226.079 190.123 226.012 190.165 225.982 C 190.358 225.8 190.691 225.667 191.048 225.625 C 191.118 225.617 191.185 225.609 191.257 225.609 C 191.755 225.614 192.28 225.821 192.558 226.483 C 192.764 226.997 192.655 227.574 192.271 227.995 L 192.27 228.002 Z  M 309.519 253.901 L 304.762 254.372 L 309.519 253.901 Z  M 282.699 212.906 C 284.814 213.834 288.797 213.426 288.628 210.285 C 288.628 210.012 288.547 209.072 288.516 208.818 C 288.302 208.353 287.902 208.18 287.52 208.24 C 287.139 208.304 286.77 208.606 286.636 209.087 C 286.552 209.401 286.799 209.906 286.491 210.064 C 286.316 210.245 285.628 210.128 285.655 209.262 C 285.655 208.991 285.438 208.682 285.302 208.506 C 285.169 208.416 285.078 208.386 284.836 208.386 C 284.543 208.394 284.549 208.476 284.386 208.697 C 284.317 208.909 284.226 209.159 284.226 209.422 C 284.19 209.73 284.072 209.837 283.825 209.882 C 283.549 209.882 283.598 209.907 283.375 209.762 C 283.247 209.61 283.087 209.58 283.087 209.348 C 283.087 209.135 283.021 208.733 282.942 208.576 C 282.827 208.425 282.643 208.394 282.428 208.334 C 281.273 208.339 281.205 209.547 281.271 210.007 C 281.187 210.096 281.126 212.277 282.701 212.879 L 282.699 212.906 Z  M 316.8 221.008 C 316.836 219.173 317.03 216.734 317.137 215.216 C 317.183 214.642 317.327 214.013 317.924 213.868 C 318.519 213.717 319.551 214.419 319.563 213.804 C 319.454 212.637 319.202 210.916 318.486 210.102 C 318.12 209.6 317.519 209.331 316.896 209.301 C 315.857 209.237 314.752 209.875 314.469 211.181 C 314.473 211.952 314.847 212.376 314.774 213.074 C 314.665 213.474 314.218 213.737 313.151 213.256 C 313.32 213.104 312.46 211.995 312.46 211.995 C 311.627 211.53 310.516 212.019 309.792 212.454 C 309.394 213.12 309.1 214.265 309.553 215.429 C 310.748 217.465 314.846 220.935 316.801 220.968 L 316.8 221.008 Z  M 303.621 246.328 C 305.095 246.336 306.798 243.222 307.526 240.138 C 307.925 235.89 307.26 233.305 307.14 230.808 C 307.019 228.311 304.073 208.054 303.477 206.165 C 302.757 202.593 306.343 205.692 305.951 203.619 C 304.712 201 301.617 197.182 300.649 194.91 C 300.285 194.3 300.239 193.738 299.942 193.786 C 299.763 193.818 299.499 194.058 299.009 194.66 C 297.799 198.305 297.374 201.282 297.836 203.545 C 300.943 218.489 304.127 232.104 303.621 246.33 L 303.621 246.328 Z  M 292.566 243.278 C 289.165 246.55 284.262 250.584 278.924 252.445 C 278.349 253.038 280.351 255.572 282.941 255.57 C 287.272 255.108 291.078 252.867 294.607 246.966 C 295.552 245.59 297.21 242.644 297.259 240.36 C 297.589 226.974 296.531 216.566 294.351 206.891 C 294.212 205.948 294.305 204.838 294.478 204.551 C 294.756 204.242 295.709 204.558 296.213 203.795 C 296.953 203.099 294.237 197.323 292.694 195.101 C 292.386 194.544 292.196 194.1 291.923 194.124 C 291.711 194.14 291.451 194.445 291.055 195.222 C 290.101 196.664 289.453 199.169 289.528 201.516 C 291.593 214.698 292.227 226.233 293.577 239.414 C 293.686 240.69 293.483 242.541 292.565 243.28 L 292.566 243.278 Z  M 301.458 237.876 M 284.127 200.714 C 284.882 202.662 283.551 204.519 284.336 204.787 C 285.058 205.089 286.064 202.774 286.441 200.64 C 286.877 198.914 285.539 195.373 283.645 194.643 C 283.5 194.611 283.346 194.611 283.195 194.579 C 282.111 194.547 280.912 195.181 281.379 196.429 C 281.107 197.113 283.707 199.432 284.127 200.694 L 284.127 200.714 Z  M 322.316 220.929 C 322.257 220.921 322.197 220.926 322.141 220.945 L 312.098 227.595 C 311.126 228.393 311.612 231.191 312.098 230.868 C 312.801 231.109 322.667 224.954 322.479 224.233 C 322.909 224.257 323.116 221.063 322.319 220.93 L 322.316 220.929 Z  M 315.417 202.948 C 318.397 206.328 321.311 209.764 324.159 213.255 C 324.779 220.609 324.944 227.349 325.573 234.714 C 325.485 237.865 324.432 242.048 323.436 242.446 C 323.436 242.446 321.914 243.249 320.897 242.355 C 320.158 242.083 317.201 237.808 317.201 237.808 C 315.688 236.529 314.679 236.895 313.602 237.808 C 310.632 240.451 309.289 245.402 307.271 248.812 C 306.751 249.573 305.285 250.218 303.656 248.748 C 300.303 244.523 301.254 238.858 301.463 237.871 L 301.42 238.053 C 297.734 241.881 299.367 248.225 300.199 249.59 C 301.414 251.83 302.398 253.265 304.763 254.373 C 306.918 255.833 308.594 254.923 309.519 253.901 C 311.687 251.829 311.716 246.536 312.733 245.489 C 313.447 243.563 315.236 243.895 316.108 244.748 C 316.953 245.867 317.951 246.599 319.193 247.206 C 321.215 248.848 323.628 249.148 326.007 247.651 C 327.632 246.811 328.686 245.716 329.638 243.563 C 330.66 241.048 330.154 227.858 329.925 220.52 L 334.457 226.577 C 335.114 233.014 335.413 239.361 335.196 245.444 C 335.042 246.653 339.776 241.833 339.744 239.55 L 339.744 234.055 C 342.041 237.434 344.263 240.87 346.364 244.348 C 347.666 243.716 347.22 236.918 346.398 235.981 C 344.198 232.579 341.38 228.903 339.199 226.059 C 338.768 222.464 338.18 218.233 337.913 216.935 C 337.498 214.913 337.08 211.873 336.451 209.471 C 336.278 208.534 335.757 205.539 335.921 205.251 C 336.178 204.583 337.147 205.275 337.624 204.495 C 338.339 203.775 335.148 196.156 333.526 193.98 C 332.944 193.003 331.89 193.342 330.586 194.929 C 329.376 195.972 329.814 198.353 330.281 200.616 C 331.48 206.385 332.551 212.261 333.398 218.122 L 328.03 210.865 L 327.792 209.722 C 327.792 209.601 327.535 205.003 327.309 203.902 C 327.267 203.455 327.156 203.328 327.664 203.386 C 328.202 203.802 328.275 203.824 328.612 203.963 C 329.156 204.054 329.631 203.207 329.303 202.424 L 324.257 193.834 C 324.055 193.653 323.828 193.457 323.566 193.421 C 323.306 193.388 323.019 193.51 322.698 193.937 C 322.084 194.433 321.425 195.331 321.444 196.483 C 321.593 198.515 321.986 200.596 322.136 202.629 L 322.296 203.443 C 322.119 203.23 321.932 203.027 321.733 202.835 C 317.435 198.672 323.704 202.154 320.914 198.939 C 318.55 196.548 317.859 195.786 315.836 194.348 C 314.822 193.744 314.209 192.589 313.875 194.53 C 313.748 196.256 313.606 198.257 313.733 199.714 C 313.726 200.521 314.635 202.045 315.42 202.942 L 315.417 202.948 Z  M 340.343 206.287 C 340.686 207.264 339.82 210.41 340.533 210.701 C 341.191 211.024 342.118 208.526 342.462 206.213 C 342.652 204.949 341.634 200.503 339.906 199.712 C 339.77 199.688 339.631 199.648 339.489 199.648 C 338.5 199.624 337.423 200.307 337.849 201.662 C 337.601 202.399 339.958 204.91 340.34 206.282 L 340.343 206.287 Z  M 265.421 251.846 C 265.421 251.936 266.249 252.575 267.221 252.028 C 269.272 251.305 270.55 250.603 273.423 250.029 C 274.177 250.013 274.133 248.154 272.941 248.091 C 271.385 248.181 269.949 248.242 268.393 249.364 C 267.436 249.545 267.271 249.031 267.059 248.55 C 266.817 247.356 267.606 246.513 267.445 245.617 C 267.487 245.649 266.962 245.221 266.287 245.188 C 266.042 245.18 265.798 245.22 265.581 245.339 C 265.538 245.339 263.418 246.658 262.737 247.574 C 262.321 247.876 262.368 248.118 262.498 248.626 C 262.822 249.312 263.392 249.098 264.041 248.777 C 264.9 248.656 265.316 249.188 265.245 250.14 C 264.849 251.326 265.421 251.77 265.421 251.846 Z  M 275.12 232.974 L 275.136 232.957 C 275.137 232.956 275.15 232.942 275.152 232.942 C 275.153 232.94 275.165 232.933 275.168 232.925 L 275.168 232.893 C 275.17 232.842 275.164 232.792 275.152 232.742 L 274.22 232.238 L 255.852 232.147 C 255.625 232.057 255.456 231.965 255.354 231.935 C 255.343 231.925 255.331 231.914 255.32 231.903 L 255.305 231.887 L 255.289 231.871 L 255.273 231.847 L 255.257 231.831 L 255.257 231.815 L 255.241 231.799 L 255.241 231.735 L 255.241 231.655 L 255.257 231.639 L 255.273 231.615 C 255.357 231.494 255.579 231.403 255.851 231.304 C 260.237 230.753 268.029 229.577 268.546 222.67 C 268.462 219.077 266.876 216.717 262.087 216.064 C 258.567 216.306 256.058 219.453 256.462 222.907 C 256.296 223.835 256.804 225.665 255.771 225.867 C 249.02 226.436 241.652 230.329 241.405 233.124 L 241.389 233.124 L 241.373 233.139 L 241.339 233.156 L 241.305 233.156 C 241.289 233.161 241.272 233.163 241.257 233.171 L 241.161 233.171 C 241.14 233.167 241.118 233.163 241.098 233.156 C 240.659 233.035 240.093 232.376 240.182 231.438 C 239.925 226.615 238.222 221.157 235.554 216.954 C 234.602 216.077 234.183 215.724 233.915 215.682 C 233.906 215.681 233.892 215.682 233.881 215.682 L 233.782 215.682 C 233.748 215.691 233.72 215.714 233.703 215.746 C 233.686 215.754 233.67 215.761 233.655 215.769 C 233.45 215.92 233.205 216.241 232.659 216.598 C 231.739 217.562 231.574 218.234 231.63 220.167 C 231.682 220.348 233.377 224.709 234.812 227.764 C 235.78 230.935 236.675 234.568 236.017 237.998 C 233.752 242.532 229.198 246.599 224.802 248.808 C 222.562 249.468 220.628 249.244 220.11 248.792 L 220.094 248.776 C 218.809 247.978 218.779 246.566 218.858 246.318 L 218.858 246.302 L 218.874 246.286 C 222.584 243.903 226.821 241.982 230.138 235.549 C 231.118 233.091 231.417 231.618 230.443 227.819 C 230.064 226.404 229.595 225.239 228.547 224.234 L 228.563 224.219 C 229.195 223.946 230.833 225.053 231.086 224.37 C 230.698 222.556 229.366 220.121 227.856 218.876 C 226.535 217.769 225.096 217.642 223.887 218.663 C 222.525 219.362 222.234 221.872 222.891 224.069 C 223.619 225.723 225.587 226.01 226.988 229.341 L 226.988 229.357 C 227.017 229.539 227.469 231.845 226.765 232.763 C 226.192 234.408 218.837 239.753 218.312 240.079 C 218.306 240.085 218.269 240.103 218.263 240.111 L 218.247 240.127 C 218.242 240.131 218.237 240.135 218.231 240.143 C 218.226 240.148 218.221 240.151 218.215 240.159 L 218.181 240.159 C 218.176 240.154 218.17 240.15 218.165 240.143 L 218.165 240.127 C 218.158 240.117 218.153 240.106 218.149 240.095 C 218.127 239.944 218.167 239.623 218.149 239.073 C 218.101 238.072 218.551 235.804 218.519 235.414 L 218.519 235.399 L 218.503 235.382 L 218.503 235.367 L 218.487 235.367 C 216.055 236.812 215.252 241.251 214.807 242.565 C 208.649 246.486 201.652 249.403 197.629 253.375 C 195.532 256.393 212.081 249.909 214.004 249.125 C 214.021 249.133 214.038 249.157 214.052 249.189 C 214.417 249.558 214.449 250.852 215.546 252.016 C 217.266 254.163 220.923 255.486 224.481 254.665 C 230.448 252.678 233.885 248.93 237.385 244.772 C 237.885 244.101 238.669 243.574 239.393 244.092 C 241.798 249.054 248.732 252.584 257.696 252.948 C 259.77 250.623 258.778 249.481 257.935 248.994 C 257.678 248.812 253.477 247.325 252.825 245.825 C 252.414 244.428 253.412 243.188 255.412 242.256 C 261.168 241.615 266.825 240.901 272.301 239.28 C 272.355 237.584 273.44 235.05 274.165 233.948 C 274.669 233.184 274.992 233.108 275.113 232.999 L 275.12 232.974 Z  M 259.971 222.344 C 259.984 222.28 260.004 222.254 260.034 222.193 C 260.044 222.177 260.054 222.169 260.068 222.129 L 260.084 222.113 C 260.108 222.081 260.135 222.049 260.162 222.023 C 260.277 221.932 260.443 221.872 260.628 221.841 C 261.028 221.809 261.553 221.931 262.058 222.198 C 262.79 222.588 263.241 223.178 263.183 223.607 C 263.181 223.615 263.186 223.631 263.183 223.671 C 263.18 223.679 263.155 223.695 263.149 223.735 L 263.133 223.799 C 263.13 223.806 263.121 223.823 263.117 223.823 C 263.112 223.831 263.107 223.839 263.101 223.855 C 263.074 223.887 263.04 223.945 263.005 223.976 C 262.653 224.278 261.842 224.217 261.076 223.824 C 260.352 223.437 259.904 222.845 259.952 222.419 C 259.954 222.41 259.965 222.394 259.968 222.355 L 259.971 222.344 Z  M 252.628 239.298 C 250.657 239.921 248.764 240.408 248.756 243.03 C 249.013 244.331 248.958 245.011 248.74 245.325 C 248.721 245.349 248.701 245.389 248.677 245.416 L 248.66 245.432 L 248.645 245.448 C 248.64 245.453 248.634 245.456 248.628 245.464 L 248.613 245.48 C 248.601 245.484 248.59 245.488 248.579 245.496 C 248.549 245.52 248.516 245.52 248.482 245.56 C 248.455 245.568 248.416 245.568 248.386 245.576 C 247.917 245.64 247.237 245.228 246.73 244.983 C 245.515 244.179 242.105 242.231 241.62 238.052 C 241.55 237.109 242.317 236.295 243.549 236.217 C 243.609 236.212 243.66 236.217 243.723 236.217 L 243.757 236.217 C 245.803 236.728 248.82 236.782 251.439 237.03 C 253.571 237.151 254.626 238.693 252.628 239.34 L 252.628 239.298 Z  M 209.532 233.523 C 209.483 234.276 211.786 235.192 211.926 236.929 C 212.255 237.646 211.433 239.944 212.119 240.157 C 212.748 240.399 213.621 238.57 213.951 236.87 C 214.132 235.938 213.161 232.683 211.508 232.101 C 211.252 232.037 210.985 232.011 210.722 232.037 C 209.924 232.101 209.211 232.482 209.532 233.519 L 209.532 233.523 Z  M 246.548 222.917 C 248.663 223.845 253.705 223.301 252.478 220.298 C 252.478 220.026 252.396 219.086 252.366 218.832 C 252.151 218.37 251.752 218.194 251.37 218.254 C 250.988 218.318 250.62 218.611 250.486 219.083 C 250.401 219.397 250.649 219.917 250.344 220.077 C 250.169 220.259 249.481 220.141 249.508 219.276 C 249.508 219.004 249.287 218.696 249.155 218.521 C 249.021 218.43 248.949 218.399 248.705 218.399 C 248.411 218.408 248.405 218.49 248.239 218.711 C 248.169 218.923 248.078 219.173 248.078 219.436 C 248.043 219.744 247.924 219.851 247.677 219.896 C 247.402 219.896 247.462 219.928 247.243 219.775 C 247.116 219.624 246.938 219.593 246.938 219.36 C 246.938 219.148 246.886 218.747 246.811 218.592 C 246.696 218.441 246.492 218.411 246.281 218.351 C 245.126 218.355 245.057 219.563 245.124 220.023 C 245.039 220.113 244.979 222.294 246.553 222.895 L 246.548 222.917 Z  M 264.458 201.451 C 268.003 205.844 271.416 210.258 274.711 214.825 C 275.224 218.215 275.608 221.532 275.852 224.836 C 276.385 232.079 276.547 241.096 276.06 248.724 C 277.533 248.788 279.892 246.531 280.72 243.244 C 281.259 238.696 280.53 229.415 280.481 226.731 C 280.448 225.619 280.373 224.288 280.288 222.896 C 284.295 228.927 288.032 235.133 291.488 241.497 C 292.819 240.916 292.524 234.01 291.745 233.04 C 288.824 227.246 284.788 221.526 283.502 219.326 C 283.037 218.536 281.455 216.314 279.581 213.758 C 279.235 210.11 278.861 207.02 278.616 206.086 C 278.013 202.23 280.336 206.518 280.015 204.278 C 279.26 200.427 276.954 197.81 274.229 194.282 C 273.351 193.136 273.373 192.9 272.012 194.554 C 271.201 196.25 271.212 197.659 271.449 198.982 C 271 198.378 270.523 197.796 270.019 197.237 L 265.568 193.758 C 264.952 193.355 263.78 192.729 262.885 192.808 C 262.347 192.872 261.92 193.144 261.76 193.875 C 261.545 195.596 261.657 196.53 261.969 197.962 C 262.208 198.918 263.717 200.515 264.459 201.444 L 264.458 201.451 Z  M 271.965 201.21 C 272.05 201.582 272.147 201.954 272.207 202.335 C 272.41 203.154 272.584 203.967 272.77 204.778 C 271.99 203.786 271.345 202.988 271.067 202.704 C 269.301 200.768 271.106 201.436 271.966 201.21 L 271.965 201.21 Z " fill="rgb(255,255,255)"/></g></g></svg>