<?xml version="1.0" encoding="UTF-8" standalone="no"?><!-- Generator: Gravit.io --><svg xmlns="http://www.w3.org/2000/svg" xmlns:xlink="http://www.w3.org/1999/xlink" style="isolation:isolate" viewBox="0 0 1200 600" width="1200pt" height="600pt"><defs><clipPath id="_clipPath_aYowLy0eSRhYw2yTLjpZLZO4ABC6o0gM"><rect width="1200" height="600"/></clipPath></defs><g clip-path="url(#_clipPath_aYowLy0eSRhYw2yTLjpZLZO4ABC6o0gM)"><path d=" M 0 0 L 1200 0 L 1200 600 L 0 600 L 0 0 Z " fill="rgb(255,0,0)"/><path d=" M 0 0 L 1200 0 L 1200 400 L 0 400 L 0 0 Z " fill="rgb(0,92,229)"/><path d=" M 0 0 L 1200 0 L 1200 200 L 0 200 L 0 0 Z " fill="rgb(255,255,255)"/><g><path d=" M 299.971 105.209 C 298.628 105.211 297.289 105.239 295.953 105.277 C 269.977 105.951 245.59 112.659 228.225 120.84 L 228.227 120.863 C 226.328 121.657 224.468 122.452 222.699 123.248 L 228.668 216.738 C 232.804 265.594 264.642 294.039 300.018 305.209 C 335.393 294.039 367.23 265.594 371.365 216.738 L 377.301 123.545 C 375.529 122.628 373.67 121.738 371.773 120.863 L 371.775 120.84 C 353.524 112.241 327.518 105.257 300.061 105.211 C 300.04 105.211 300.02 105.209 300 105.209 C 299.99 105.209 299.981 105.209 299.971 105.209 L 299.971 105.209 Z " fill-rule="evenodd" fill="rgb(0,92,229)"/><path d=" M 300.016 169.903 L 282.555 204 L 271.267 189.335 L 241.771 228.315 C 242.304 230.735 242.93 233.071 243.614 235.351 C 246.908 240.911 253.239 247.258 261.358 247.258 C 267.801 247.258 274.244 242.103 280.687 242.103 C 287.13 242.103 293.573 247.258 300.016 247.258 C 306.459 247.258 312.902 242.103 319.345 242.103 C 325.788 242.103 332.23 247.258 338.673 247.258 C 346.719 247.258 353.008 241.029 356.327 235.506 C 357.036 233.164 357.672 230.752 358.221 228.264 L 328.764 189.335 L 317.476 204 L 300.016 169.903 Z  M 280.687 247.258 C 274.244 247.258 267.801 252.412 261.358 252.412 C 256.259 252.412 251.878 250.606 248.485 248.044 C 249.683 250.587 250.951 253.061 252.338 255.402 C 254.996 257.055 258.017 258.172 261.358 258.172 C 267.801 258.172 274.244 253.018 280.687 253.018 C 287.13 253.018 293.573 258.172 300.016 258.172 C 306.459 258.172 312.902 253.018 319.345 253.018 C 325.788 253.018 332.23 258.172 338.673 258.172 C 341.967 258.172 344.946 257.079 347.578 255.466 C 348.964 253.133 350.231 250.668 351.431 248.134 C 348.053 250.648 343.713 252.412 338.673 252.412 C 332.23 252.412 325.788 247.258 319.345 247.258 C 312.902 247.258 306.459 252.412 300.016 252.412 C 293.573 252.412 287.13 247.258 280.687 247.258 Z  M 280.687 258.172 C 274.244 258.172 267.801 263.327 261.358 263.327 C 259.958 263.327 258.627 263.163 257.337 262.914 C 268.484 277.806 283.692 287.773 300.003 293.505 C 316.28 287.783 331.464 277.808 342.604 262.94 C 341.343 263.177 340.039 263.327 338.673 263.327 C 332.23 263.327 325.788 258.172 319.345 258.172 C 312.902 258.172 306.459 263.327 300.016 263.327 C 293.573 263.327 287.13 258.172 280.687 258.172 L 280.687 258.172 Z " fill-rule="evenodd" fill="rgb(255,255,255)"/><g><path d=" M 270.95 117.719 L 285.568 117.719 L 278.259 130.376" fill-rule="evenodd" fill="rgb(255,229,0)"/><path d=" M 270.951 126.156 L 285.569 126.156 L 278.26 113.498" fill-rule="evenodd" fill="rgb(255,229,0)"/></g><g><path d=" M 293 144.215 L 307.599 144.215 L 300.3 156.857" fill-rule="evenodd" fill="rgb(255,229,0)"/><path d=" M 293.001 152.642 L 307.6 152.642 L 300.3 140" fill-rule="evenodd" fill="rgb(255,229,0)"/></g><g><path d=" M 310 117.715 L 324.599 117.715 L 317.3 130.357" fill-rule="evenodd" fill="rgb(255,229,0)"/><path d=" M 310.001 126.142 L 324.6 126.142 L 317.3 113.5" fill-rule="evenodd" fill="rgb(255,229,0)"/></g></g><path d=" M 299.977 105.209 C 298.59 105.211 297.209 105.24 295.83 105.281 C 297.209 105.244 298.59 105.211 299.977 105.209 Z  M 228.228 120.863 C 226.329 121.657 224.47 122.452 222.701 123.248 L 228.67 216.74 C 232.805 265.596 264.642 294.039 300.018 305.209 C 335.393 294.039 367.23 265.596 371.365 216.74 L 377.301 123.545 C 375.528 122.627 373.67 121.738 371.773 120.863 L 366.234 213.644 C 362.395 261.144 332.842 288.799 300.002 299.658 C 267.162 288.799 237.607 261.144 233.768 213.644 L 228.228 120.863 Z " fill-rule="evenodd" fill="rgb(255,0,0)"/></g></svg>