<?xml version="1.0" encoding="UTF-8" standalone="no"?><!-- Generator: Gravit.io --><svg xmlns="http://www.w3.org/2000/svg" xmlns:xlink="http://www.w3.org/1999/xlink" style="isolation:isolate" viewBox="0 0 512 512" width="512pt" height="512pt"><defs><clipPath id="_clipPath_iS2yiRze52H12tgrvq6rfyvOq5rupM8I"><rect width="512" height="512"/></clipPath></defs><g clip-path="url(#_clipPath_iS2yiRze52H12tgrvq6rfyvOq5rupM8I)"><rect x="0" y="128" width="512" height="128" transform="matrix(1,0,0,1,0,0)" fill="rgb(0,0,0)"/><rect x="0" y="170" width="512" height="43" transform="matrix(1,0,0,1,0,0)" fill="rgb(252,220,4)"/><rect x="0" y="213" width="512" height="43" transform="matrix(1,0,0,1,0,0)" fill="rgb(217,0,0)"/><rect x="0" y="256" width="512" height="128" transform="matrix(1,0,0,1,0,0)" fill="rgb(217,0,0)"/><rect x="0" y="256" width="512" height="43" transform="matrix(1,0,0,1,0,0)" fill="rgb(0,0,0)"/><rect x="0" y="299" width="512" height="43" transform="matrix(1,0,0,1,0,0)" fill="rgb(252,220,4)"/><g><circle vector-effect="non-scaling-stroke" cx="255.99999999999994" cy="256" r="40" fill="rgb(255,255,255)"/><g><mask id="_mask_ZFR5CzX0jf0ZrelVagtYmPKtRdd3Tihh" x="-200%" y="-200%" width="400%" height="400%"><rect x="-200%" y="-200%" width="400%" height="400%" style="fill:white;"/><path d=" M 248.95 225.365 L 246.355 220.586 C 247.357 219.585 249.041 218.811 251.726 218.811 C 251.726 218.993 251.453 224.045 251.453 224.045 L 248.95 225.365 Z " fill="black" stroke="none"/></mask><path d=" M 248.95 225.365 L 246.355 220.586 C 247.357 219.585 249.041 218.811 251.726 218.811 C 251.726 218.993 251.453 224.045 251.453 224.045 L 248.95 225.365 Z " fill="rgb(217,0,0)" mask="url(#_mask_ZFR5CzX0jf0ZrelVagtYmPKtRdd3Tihh)" vector-effect="non-scaling-stroke" stroke-width="2" stroke="rgb(0,0,0)" stroke-linejoin="miter" stroke-linecap="butt" stroke-miterlimit="4"/><path d=" M 248.95 225.365 L 246.355 220.586 C 247.357 219.585 249.041 218.811 251.726 218.811 C 251.726 218.993 251.453 224.045 251.453 224.045 L 248.95 225.365 Z " fill="rgb(217,0,0)"/><mask id="_mask_5sBGjtbjfHSYL0PzU0NwyivbacIahPoE" x="-200%" y="-200%" width="400%" height="400%"><rect x="-200%" y="-200%" width="400%" height="400%" style="fill:white;"/><path d=" M 251.453 224.091 L 251.817 218.811 C 251.817 218.811 257.188 218.493 260.1 221.997 C 260.146 221.952 257.233 226.093 257.233 226.093 L 251.453 224.091 Z " fill="black" stroke="none"/></mask><path d=" M 251.453 224.091 L 251.817 218.811 C 251.817 218.811 257.188 218.493 260.1 221.997 C 260.146 221.952 257.233 226.093 257.233 226.093 L 251.453 224.091 Z " fill="rgb(252,220,4)" mask="url(#_mask_5sBGjtbjfHSYL0PzU0NwyivbacIahPoE)" vector-effect="non-scaling-stroke" stroke-width="2" stroke="rgb(0,0,0)" stroke-linejoin="miter" stroke-linecap="butt" stroke-miterlimit="4"/><path d=" M 251.453 224.091 L 251.817 218.811 C 251.817 218.811 257.188 218.493 260.1 221.997 C 260.146 221.952 257.233 226.093 257.233 226.093 L 251.453 224.091 Z " fill="rgb(252,220,4)"/><mask id="_mask_6CDUchI3qha1zFrd4G0Jvo5LHYp1KAPn" x="-200%" y="-200%" width="400%" height="400%"><rect x="-200%" y="-200%" width="400%" height="400%" style="fill:white;"/><path d=" M 257.324 226.047 L 259.964 221.952 C 261.739 223.818 262.467 225.137 262.74 227.14 C 262.785 227.185 258.553 228.187 258.553 228.141 C 258.553 228.096 257.37 226.093 257.324 226.047 Z " fill="black" stroke="none"/></mask><path d=" M 257.324 226.047 L 259.964 221.952 C 261.739 223.818 262.467 225.137 262.74 227.14 C 262.785 227.185 258.553 228.187 258.553 228.141 C 258.553 228.096 257.37 226.093 257.324 226.047 Z " fill="rgb(217,0,0)" mask="url(#_mask_6CDUchI3qha1zFrd4G0Jvo5LHYp1KAPn)" vector-effect="non-scaling-stroke" stroke-width="2" stroke="rgb(0,0,0)" stroke-linejoin="miter" stroke-linecap="butt" stroke-miterlimit="4"/><path d=" M 257.324 226.047 L 259.964 221.952 C 261.739 223.818 262.467 225.137 262.74 227.14 C 262.785 227.185 258.553 228.187 258.553 228.141 C 258.553 228.096 257.37 226.093 257.324 226.047 Z " fill="rgb(217,0,0)"/><mask id="_mask_nYV4PSt262saKthdpTJE4C5b3R13iakF" x="-200%" y="-200%" width="400%" height="400%"><rect x="-200%" y="-200%" width="400%" height="400%" style="fill:white;"/><path d=" M 250.27 293.678 C 250.27 293.678 255.23 287.989 264.879 289.218 C 263.423 286.852 258.735 287.125 258.735 287.125 C 258.735 287.125 257.279 276.065 258.416 275.519 C 259.554 274.973 264.378 275.565 264.378 275.565 C 265.015 275.565 266.108 273.835 265.243 272.743 C 264.378 271.65 261.83 267.463 262.876 266.644 C 263.923 265.825 269.612 267.099 269.612 267.099 L 253.547 246.528 C 253.547 246.528 251.908 238.791 255.185 235.059 C 259.145 231.782 258.735 228.232 258.598 228.278 C 258.052 224.682 252.591 222.088 248.904 225.41 C 246.72 228.05 248.176 230.053 248.176 230.053 C 248.176 230.053 242.442 231.6 242.214 232.601 C 241.986 233.603 248.677 232.419 248.677 232.419 L 248.039 237.016 C 248.039 237.016 235.023 248.849 244.99 259.089 C 245.081 259.044 245.309 258.634 245.309 258.634 C 245.309 258.634 248.813 262.958 252.5 263.913 C 255.958 267.463 255.64 266.917 255.64 266.917 C 255.64 266.917 256.323 272.515 255.686 273.607 C 254.821 273.334 245.992 273.016 244.672 273.516 C 243.488 273.881 238.937 273.653 240.075 281.072 C 240.939 279.069 241.713 277.294 241.713 277.294 C 241.713 277.294 241.577 279.979 242.669 280.935 C 242.487 278.113 243.716 276.202 243.716 276.202 C 243.716 276.202 243.944 279.297 244.626 279.752 C 245.309 280.207 245.309 274.745 249.086 275.2 C 252.864 275.656 255.595 275.519 255.595 275.519 C 255.595 275.519 256.869 286.214 256.459 287.216 C 253.728 286.578 247.22 287.489 246.811 289.127 C 250.633 288.9 252.409 289.355 252.409 289.355 C 252.409 289.355 249.314 292.085 250.27 293.678 Z " fill="black" stroke="none"/></mask><path d=" M 250.27 293.678 C 250.27 293.678 255.23 287.989 264.879 289.218 C 263.423 286.852 258.735 287.125 258.735 287.125 C 258.735 287.125 257.279 276.065 258.416 275.519 C 259.554 274.973 264.378 275.565 264.378 275.565 C 265.015 275.565 266.108 273.835 265.243 272.743 C 264.378 271.65 261.83 267.463 262.876 266.644 C 263.923 265.825 269.612 267.099 269.612 267.099 L 253.547 246.528 C 253.547 246.528 251.908 238.791 255.185 235.059 C 259.145 231.782 258.735 228.232 258.598 228.278 C 258.052 224.682 252.591 222.088 248.904 225.41 C 246.72 228.05 248.176 230.053 248.176 230.053 C 248.176 230.053 242.442 231.6 242.214 232.601 C 241.986 233.603 248.677 232.419 248.677 232.419 L 248.039 237.016 C 248.039 237.016 235.023 248.849 244.99 259.089 C 245.081 259.044 245.309 258.634 245.309 258.634 C 245.309 258.634 248.813 262.958 252.5 263.913 C 255.958 267.463 255.64 266.917 255.64 266.917 C 255.64 266.917 256.323 272.515 255.686 273.607 C 254.821 273.334 245.992 273.016 244.672 273.516 C 243.488 273.881 238.937 273.653 240.075 281.072 C 240.939 279.069 241.713 277.294 241.713 277.294 C 241.713 277.294 241.577 279.979 242.669 280.935 C 242.487 278.113 243.716 276.202 243.716 276.202 C 243.716 276.202 243.944 279.297 244.626 279.752 C 245.309 280.207 245.309 274.745 249.086 275.2 C 252.864 275.656 255.595 275.519 255.595 275.519 C 255.595 275.519 256.869 286.214 256.459 287.216 C 253.728 286.578 247.22 287.489 246.811 289.127 C 250.633 288.9 252.409 289.355 252.409 289.355 C 252.409 289.355 249.314 292.085 250.27 293.678 Z " fill="rgb(0,0,0)" mask="url(#_mask_nYV4PSt262saKthdpTJE4C5b3R13iakF)" vector-effect="non-scaling-stroke" stroke-width="2" stroke="rgb(0,0,0)" stroke-linejoin="miter" stroke-linecap="butt" stroke-miterlimit="4"/><path d=" M 250.27 293.678 C 250.27 293.678 255.23 287.989 264.879 289.218 C 263.423 286.852 258.735 287.125 258.735 287.125 C 258.735 287.125 257.279 276.065 258.416 275.519 C 259.554 274.973 264.378 275.565 264.378 275.565 C 265.015 275.565 266.108 273.835 265.243 272.743 C 264.378 271.65 261.83 267.463 262.876 266.644 C 263.923 265.825 269.612 267.099 269.612 267.099 L 253.547 246.528 C 253.547 246.528 251.908 238.791 255.185 235.059 C 259.145 231.782 258.735 228.232 258.598 228.278 C 258.052 224.682 252.591 222.088 248.904 225.41 C 246.72 228.05 248.176 230.053 248.176 230.053 C 248.176 230.053 242.442 231.6 242.214 232.601 C 241.986 233.603 248.677 232.419 248.677 232.419 L 248.039 237.016 C 248.039 237.016 235.023 248.849 244.99 259.089 C 245.081 259.044 245.309 258.634 245.309 258.634 C 245.309 258.634 248.813 262.958 252.5 263.913 C 255.958 267.463 255.64 266.917 255.64 266.917 C 255.64 266.917 256.323 272.515 255.686 273.607 C 254.821 273.334 245.992 273.016 244.672 273.516 C 243.488 273.881 238.937 273.653 240.075 281.072 C 240.939 279.069 241.713 277.294 241.713 277.294 C 241.713 277.294 241.577 279.979 242.669 280.935 C 242.487 278.113 243.716 276.202 243.716 276.202 C 243.716 276.202 243.944 279.297 244.626 279.752 C 245.309 280.207 245.309 274.745 249.086 275.2 C 252.864 275.656 255.595 275.519 255.595 275.519 C 255.595 275.519 256.869 286.214 256.459 287.216 C 253.728 286.578 247.22 287.489 246.811 289.127 C 250.633 288.9 252.409 289.355 252.409 289.355 C 252.409 289.355 249.314 292.085 250.27 293.678 Z " fill="rgb(0,0,0)"/><mask id="_mask_JojqRaLkodJEYoiBNY8xyxjBqTMiinul" x="-200%" y="-200%" width="400%" height="400%"><rect x="-200%" y="-200%" width="400%" height="400%" style="fill:white;"/><path d=" M 251.804 235.32 C 251.804 235.32 242.333 245.759 246.419 253.748 C 246.636 252.634 246.541 251.934 246.678 251.98 C 246.45 251.843 247.852 252.941 247.746 252.727 C 247.776 252.149 247.319 250.912 247.319 250.912 C 247.746 251.018 248.173 251.125 248.6 251.232 C 248.351 250.769 248.102 250.307 247.852 249.844 C 248.458 249.915 249.063 249.986 249.668 250.057 C 249.668 250.057 249.027 248.349 249.241 248.349 C 249.454 248.349 250.736 248.455 250.736 248.455 C 248.043 243.622 250.583 239.607 251.804 235.32 Z " fill="black" stroke="none"/></mask><path d=" M 251.804 235.32 C 251.804 235.32 242.333 245.759 246.419 253.748 C 246.636 252.634 246.541 251.934 246.678 251.98 C 246.45 251.843 247.852 252.941 247.746 252.727 C 247.776 252.149 247.319 250.912 247.319 250.912 C 247.746 251.018 248.173 251.125 248.6 251.232 C 248.351 250.769 248.102 250.307 247.852 249.844 C 248.458 249.915 249.063 249.986 249.668 250.057 C 249.668 250.057 249.027 248.349 249.241 248.349 C 249.454 248.349 250.736 248.455 250.736 248.455 C 248.043 243.622 250.583 239.607 251.804 235.32 Z " fill="rgb(156,166,156)" mask="url(#_mask_JojqRaLkodJEYoiBNY8xyxjBqTMiinul)" vector-effect="non-scaling-stroke" stroke-width="2" stroke="rgb(156,166,156)" stroke-linejoin="miter" stroke-linecap="butt" stroke-miterlimit="4"/><path d=" M 251.804 235.32 C 251.804 235.32 242.333 245.759 246.419 253.748 C 246.636 252.634 246.541 251.934 246.678 251.98 C 246.45 251.843 247.852 252.941 247.746 252.727 C 247.776 252.149 247.319 250.912 247.319 250.912 C 247.746 251.018 248.173 251.125 248.6 251.232 C 248.351 250.769 248.102 250.307 247.852 249.844 C 248.458 249.915 249.063 249.986 249.668 250.057 C 249.668 250.057 249.027 248.349 249.241 248.349 C 249.454 248.349 250.736 248.455 250.736 248.455 C 248.043 243.622 250.583 239.607 251.804 235.32 Z " fill="rgb(156,166,156)"/><mask id="_mask_wKSqurKgPQxfItZCXrwqoAxriKmaqJoz" x="-200%" y="-200%" width="400%" height="400%"><rect x="-200%" y="-200%" width="400%" height="400%" style="fill:white;"/><path d=" M 255.094 226.366 C 255.094 226.366 255.595 229.962 253.638 231.008 C 253.319 231.236 252.09 231.646 252.272 232.374 C 252.5 233.375 253.046 233.193 253.82 233.011 C 255.867 232.647 258.234 228.278 255.094 226.366 Z " fill="black" stroke="none"/></mask><path d=" M 255.094 226.366 C 255.094 226.366 255.595 229.962 253.638 231.008 C 253.319 231.236 252.09 231.646 252.272 232.374 C 252.5 233.375 253.046 233.193 253.82 233.011 C 255.867 232.647 258.234 228.278 255.094 226.366 Z " fill="rgb(156,166,156)" mask="url(#_mask_wKSqurKgPQxfItZCXrwqoAxriKmaqJoz)" vector-effect="non-scaling-stroke" stroke-width="2" stroke="rgb(156,166,156)" stroke-linejoin="miter" stroke-linecap="butt" stroke-miterlimit="4"/><path d=" M 255.094 226.366 C 255.094 226.366 255.595 229.962 253.638 231.008 C 253.319 231.236 252.09 231.646 252.272 232.374 C 252.5 233.375 253.046 233.193 253.82 233.011 C 255.867 232.647 258.234 228.278 255.094 226.366 Z " fill="rgb(156,166,156)"/><circle vector-effect="non-scaling-stroke" cx="250.86631016042787" cy="229.475935828877" r="0.7700534759358391" fill="rgb(255,255,255)"/><mask id="_mask_t3MmpCqjiSz00KqXa50NhWrsZa9D2HRk" x="-200%" y="-200%" width="400%" height="400%"><rect x="-200%" y="-200%" width="400%" height="400%" style="fill:white;"/><path d=" M 248.54 232.465 C 248.039 232.874 245.4 235.605 247.994 236.606 C 250.679 235.878 249.951 235.378 250.543 234.786 C 250.558 233.557 249.208 233.238 248.54 232.465 Z " fill="black" stroke="none"/></mask><path d=" M 248.54 232.465 C 248.039 232.874 245.4 235.605 247.994 236.606 C 250.679 235.878 249.951 235.378 250.543 234.786 C 250.558 233.557 249.208 233.238 248.54 232.465 Z " fill="rgb(217,0,0)" mask="url(#_mask_t3MmpCqjiSz00KqXa50NhWrsZa9D2HRk)" vector-effect="non-scaling-stroke" stroke-width="2" stroke="rgb(0,0,0)" stroke-linejoin="miter" stroke-linecap="butt" stroke-miterlimit="4"/><path d=" M 248.54 232.465 C 248.039 232.874 245.4 235.605 247.994 236.606 C 250.679 235.878 249.951 235.378 250.543 234.786 C 250.558 233.557 249.208 233.238 248.54 232.465 Z " fill="rgb(217,0,0)"/><mask id="_mask_OU0qsQEq51VTeb0Xmq46h1api5WV5AoA" x="-200%" y="-200%" width="400%" height="400%"><rect x="-200%" y="-200%" width="400%" height="400%" style="fill:white;"/><path d=" M 254.275 258.27 C 254.138 258.862 253.547 261.046 254.366 262.73 C 256.641 261.775 257.688 262.047 258.462 262.548 C 256.596 261.046 255.868 260.409 254.275 258.27 Z " fill="black" stroke="none"/></mask><path d=" M 254.275 258.27 C 254.138 258.862 253.547 261.046 254.366 262.73 C 256.641 261.775 257.688 262.047 258.462 262.548 C 256.596 261.046 255.868 260.409 254.275 258.27 Z " fill="rgb(156,166,156)" mask="url(#_mask_OU0qsQEq51VTeb0Xmq46h1api5WV5AoA)" vector-effect="non-scaling-stroke" stroke-width="2" stroke="rgb(156,166,156)" stroke-linejoin="miter" stroke-linecap="butt" stroke-miterlimit="4"/><path d=" M 254.275 258.27 C 254.138 258.862 253.547 261.046 254.366 262.73 C 256.641 261.775 257.688 262.047 258.462 262.548 C 256.596 261.046 255.868 260.409 254.275 258.27 Z " fill="rgb(156,166,156)"/><mask id="_mask_oXhoOXfmrF8df7gSGai4jcNpit62EN72" x="-200%" y="-200%" width="400%" height="400%"><rect x="-200%" y="-200%" width="400%" height="400%" style="fill:white;"/><path d=" M 258.189 268.601 L 258.325 273.699 C 258.325 273.699 260.1 274.017 260.919 273.699 C 261.739 273.38 260.874 270.149 258.189 268.601 Z " fill="black" stroke="none"/></mask><path d=" M 258.189 268.601 L 258.325 273.699 C 258.325 273.699 260.1 274.017 260.919 273.699 C 261.739 273.38 260.874 270.149 258.189 268.601 Z " fill="rgb(255,255,255)" mask="url(#_mask_oXhoOXfmrF8df7gSGai4jcNpit62EN72)" vector-effect="non-scaling-stroke" stroke-width="2" stroke="rgb(255,255,255)" stroke-linejoin="miter" stroke-linecap="butt" stroke-miterlimit="4"/><path d=" M 258.189 268.601 L 258.325 273.699 C 258.325 273.699 260.1 274.017 260.919 273.699 C 261.739 273.38 260.874 270.149 258.189 268.601 Z " fill="rgb(255,255,255)"/><mask id="_mask_hcKjkmYINYbBuzn5uecMRWgJsTDegKoe" x="-200%" y="-200%" width="400%" height="400%"><rect x="-200%" y="-200%" width="400%" height="400%" style="fill:white;"/><path d=" M 271.069 269.238 C 271.069 269.238 267.792 261.319 259.417 259.317 C 251.043 257.314 252.135 248.394 252.818 247.848 C 253.182 247.074 253.455 245.891 255.867 247.029 C 258.28 248.166 269.385 253.764 270.977 254.037 C 272.57 254.31 271.205 269.421 271.069 269.238 Z " fill="black" stroke="none"/></mask><path d=" M 271.069 269.238 C 271.069 269.238 267.792 261.319 259.417 259.317 C 251.043 257.314 252.135 248.394 252.818 247.848 C 253.182 247.074 253.455 245.891 255.867 247.029 C 258.28 248.166 269.385 253.764 270.977 254.037 C 272.57 254.31 271.205 269.421 271.069 269.238 Z " fill="rgb(156,166,156)" mask="url(#_mask_hcKjkmYINYbBuzn5uecMRWgJsTDegKoe)" vector-effect="non-scaling-stroke" stroke-width="2" stroke="rgb(0,0,0)" stroke-linejoin="miter" stroke-linecap="butt" stroke-miterlimit="4"/><path d=" M 271.069 269.238 C 271.069 269.238 267.792 261.319 259.417 259.317 C 251.043 257.314 252.135 248.394 252.818 247.848 C 253.182 247.074 253.455 245.891 255.867 247.029 C 258.28 248.166 269.385 253.764 270.977 254.037 C 272.57 254.31 271.205 269.421 271.069 269.238 Z " fill="rgb(156,166,156)"/><mask id="_mask_Tc0hBR8s0ebkUgDJAS6Li4CO8tF1uIIn" x="-200%" y="-200%" width="400%" height="400%"><rect x="-200%" y="-200%" width="400%" height="400%" style="fill:white;"/><path d=" M 263.104 259.271 C 262.967 259.362 274.3 265.961 270.886 271.65 C 274.118 269.511 273.071 265.78 273.071 265.78 C 273.071 265.78 275.711 272.652 269.294 276.02 C 269.976 276.612 270.432 276.475 270.432 276.475 L 269.339 277.567 C 269.339 277.567 268.838 278.386 273.162 276.293 C 271.979 277.249 271.888 277.931 271.888 277.931 C 271.888 277.931 272.206 278.841 275.028 276.384 C 272.752 278.841 272.252 280.116 272.252 280.07 C 278.396 279.524 291.776 259.544 268.019 253.628 C 269.294 254.948 269.111 254.766 269.111 254.766 L 263.104 259.271 Z " fill="black" stroke="none"/></mask><path d=" M 263.104 259.271 C 262.967 259.362 274.3 265.961 270.886 271.65 C 274.118 269.511 273.071 265.78 273.071 265.78 C 273.071 265.78 275.711 272.652 269.294 276.02 C 269.976 276.612 270.432 276.475 270.432 276.475 L 269.339 277.567 C 269.339 277.567 268.838 278.386 273.162 276.293 C 271.979 277.249 271.888 277.931 271.888 277.931 C 271.888 277.931 272.206 278.841 275.028 276.384 C 272.752 278.841 272.252 280.116 272.252 280.07 C 278.396 279.524 291.776 259.544 268.019 253.628 C 269.294 254.948 269.111 254.766 269.111 254.766 L 263.104 259.271 Z " fill="rgb(217,0,0)" mask="url(#_mask_Tc0hBR8s0ebkUgDJAS6Li4CO8tF1uIIn)" vector-effect="non-scaling-stroke" stroke-width="2" stroke="rgb(0,0,0)" stroke-linejoin="miter" stroke-linecap="butt" stroke-miterlimit="4"/><path d=" M 263.104 259.271 C 262.967 259.362 274.3 265.961 270.886 271.65 C 274.118 269.511 273.071 265.78 273.071 265.78 C 273.071 265.78 275.711 272.652 269.294 276.02 C 269.976 276.612 270.432 276.475 270.432 276.475 L 269.339 277.567 C 269.339 277.567 268.838 278.386 273.162 276.293 C 271.979 277.249 271.888 277.931 271.888 277.931 C 271.888 277.931 272.206 278.841 275.028 276.384 C 272.752 278.841 272.252 280.116 272.252 280.07 C 278.396 279.524 291.776 259.544 268.019 253.628 C 269.294 254.948 269.111 254.766 269.111 254.766 L 263.104 259.271 Z " fill="rgb(217,0,0)"/><mask id="_mask_TcBRSl3FEaPQyxhsmEWLmsg5My14xAv1" x="-200%" y="-200%" width="400%" height="400%"><rect x="-200%" y="-200%" width="400%" height="400%" style="fill:white;"/><path d=" M 263.605 257.314 C 265.152 258.406 265.698 258.771 265.88 259.317 C 264.469 258.999 263.195 259.089 263.195 259.089 C 263.195 259.089 260.146 256.177 259.599 255.949 C 259.19 255.949 256.823 254.447 256.823 254.447 C 255.64 253.855 254.548 249.759 258.917 250.943 C 263.422 253.081 264.06 253.264 264.06 253.264 C 265.85 253.825 267.64 254.387 269.43 254.948 C 270.462 256.101 271.493 257.254 272.525 258.407 C 272.525 258.407 267.018 255.676 266.335 255.63 C 267.837 256.859 268.702 258.543 268.702 258.543 C 266.957 258.042 265.441 257.587 263.605 257.314 Z " fill="black" stroke="none"/></mask><path d=" M 263.605 257.314 C 265.152 258.406 265.698 258.771 265.88 259.317 C 264.469 258.999 263.195 259.089 263.195 259.089 C 263.195 259.089 260.146 256.177 259.599 255.949 C 259.19 255.949 256.823 254.447 256.823 254.447 C 255.64 253.855 254.548 249.759 258.917 250.943 C 263.422 253.081 264.06 253.264 264.06 253.264 C 265.85 253.825 267.64 254.387 269.43 254.948 C 270.462 256.101 271.493 257.254 272.525 258.407 C 272.525 258.407 267.018 255.676 266.335 255.63 C 267.837 256.859 268.702 258.543 268.702 258.543 C 266.957 258.042 265.441 257.587 263.605 257.314 Z " fill="rgb(255,255,255)" mask="url(#_mask_TcBRSl3FEaPQyxhsmEWLmsg5My14xAv1)" vector-effect="non-scaling-stroke" stroke-width="2" stroke="rgb(0,0,0)" stroke-linejoin="miter" stroke-linecap="butt" stroke-miterlimit="4"/><path d=" M 263.605 257.314 C 265.152 258.406 265.698 258.771 265.88 259.317 C 264.469 258.999 263.195 259.089 263.195 259.089 C 263.195 259.089 260.146 256.177 259.599 255.949 C 259.19 255.949 256.823 254.447 256.823 254.447 C 255.64 253.855 254.548 249.759 258.917 250.943 C 263.422 253.081 264.06 253.264 264.06 253.264 C 265.85 253.825 267.64 254.387 269.43 254.948 C 270.462 256.101 271.493 257.254 272.525 258.407 C 272.525 258.407 267.018 255.676 266.335 255.63 C 267.837 256.859 268.702 258.543 268.702 258.543 C 266.957 258.042 265.441 257.587 263.605 257.314 Z " fill="rgb(255,255,255)"/><mask id="_mask_V4l8RzZL9kXy5WeZJbii7FaivBBefdVm" x="-200%" y="-200%" width="400%" height="400%"><rect x="-200%" y="-200%" width="400%" height="400%" style="fill:white;"/><path d=" M 242.169 232.874 C 242.169 232.874 247.448 231.6 248.085 231.782" fill="black" stroke="none"/></mask><path d=" M 242.169 232.874 C 242.169 232.874 247.448 231.6 248.085 231.782" fill="rgb(0,0,0)" mask="url(#_mask_V4l8RzZL9kXy5WeZJbii7FaivBBefdVm)" vector-effect="non-scaling-stroke" stroke-width="2" stroke="rgb(255,255,255)" stroke-linejoin="miter" stroke-linecap="butt" stroke-miterlimit="4"/><path d=" M 242.169 232.874 C 242.169 232.874 247.448 231.6 248.085 231.782" fill="rgb(0,0,0)"/></g></g></g></svg>