<?xml version="1.0" encoding="UTF-8" standalone="no"?><!-- Generator: Gravit.io --><svg xmlns="http://www.w3.org/2000/svg" xmlns:xlink="http://www.w3.org/1999/xlink" style="isolation:isolate" viewBox="0 0 512 512" width="512pt" height="512pt"><defs><clipPath id="_clipPath_7tvqyqdxRRYssPpG6jLqdafYzEw7lfzQ"><rect width="512" height="512"/></clipPath></defs><g clip-path="url(#_clipPath_7tvqyqdxRRYssPpG6jLqdafYzEw7lfzQ)"><rect x="0" y="128" width="512" height="256" transform="matrix(1,0,0,1,0,0)" fill="rgb(0,100,0)"/><rect x="0" y="166" width="512" height="180" transform="matrix(1,0,0,1,0,0)" fill="rgb(255,210,0)"/><rect x="0" y="202" width="512" height="108" transform="matrix(1,0,0,1,0,0)" fill="rgb(212,0,0)"/><rect x="0" y="238" width="512" height="36" transform="matrix(1,0,0,1,0,0)" fill="rgb(0,0,0)"/><rect x="0" y="128" width="12" height="256" transform="matrix(1,0,0,1,0,0)" fill="rgb(0,0,0)"/><path d=" M 182 256 L 12 384 L 12 128 L 182 256 Z " fill-rule="evenodd" fill="rgb(0,0,0)"/><path d=" M 170 256 L 0 384 L 0 128 L 170 256 Z " fill-rule="evenodd" fill="rgb(255,255,255)"/><g><path d=" M 63.835 204.8 L 97.107 307.2 L 10 243.913 L 117.669 243.913 L 30.563 307.2 L 63.835 204.8 Z " fill="rgb(212,0,0)"/><path d=" M 49.586 294.337 L 55.465 293.268 L 66.369 292.84 L 70.378 293.214 L 79.358 294.711 L 80.053 293.802 L 80.053 287.335 L 81.069 281.776 L 82.94 276.11 L 84.863 271.62 L 87.376 266.97 L 91.491 267.985 L 92.561 267.985 L 92.668 267.184 L 84.062 259.807 L 75.028 252.912 L 62.04 243.184 L 60.864 242.863 L 59.421 232.707 L 58.405 229.607 L 57.069 228.431 L 54.45 227.576 L 51.563 227.683 L 50.281 228.431 L 47.501 229.073 L 46.058 229.287 L 45.096 230.409 L 44.989 231.852 L 48.998 231.959 L 50.014 232.387 L 49.906 232.814 L 47.608 233.135 L 46.539 233.456 L 47.822 234.418 L 49.105 234.899 L 50.815 235.54 L 51.136 236.663 L 51.296 252.217 L 50.388 254.623 L 50.067 259.112 L 51.403 264.511 L 48.035 268.306 L 46.165 271.727 L 45.844 273.865 L 44.829 275.949 L 44.669 277.286 L 45.363 278.676 L 47.929 287.228 L 49.265 294.23 L 49.586 294.337 Z " fill="rgb(255,204,0)"/><path d=" M 52.697 227.3 C 51.669 227.299 51.175 227.477 50.155 228.031 C 49.235 228.531 48.143 228.864 47.4 228.864 C 45.887 228.864 44.666 229.949 44.666 231.305 L 44.666 232.205 L 46.871 232.137 C 53.19 232.349 47.421 232.931 46.961 233.015 C 45.392 233.299 47.309 234.579 49.154 235.197 C 51.14 235.861 51.055 235.477 51.055 244.184 C 51.055 251.334 50.993 252.346 50.448 253.993 C 49.647 256.412 49.647 260.008 50.448 262.374 C 50.772 263.33 51.038 264.221 51.044 264.353 C 51.05 264.485 50.109 265.655 48.952 266.952 C 46.862 269.295 45.577 271.808 45.577 273.566 C 45.577 273.971 45.304 274.654 44.969 275.096 C 44.197 276.116 44.175 277.872 44.925 278.538 C 45.702 279.229 48.909 291.613 48.918 293.949 C 48.921 294.801 49.073 294.796 53.946 293.814 C 57.88 293.021 67.18 292.853 71.888 293.488 C 74.063 293.781 76.592 294.208 77.512 294.444 C 80.41 295.188 80.25 295.341 80.257 291.845 C 80.268 286.441 81.253 281.301 83.339 275.805 C 84.288 273.305 86.784 268.227 87.445 267.447 C 87.51 267.37 88.573 267.566 89.807 267.886 C 92.332 268.539 93.025 268.417 93.025 267.323 C 93.025 266.697 90.447 264.548 77.827 254.669 C 69.324 248.011 62.349 242.767 62 242.767 C 61.657 242.767 61.31 242.591 61.235 242.373 C 61.16 242.156 60.759 239.583 60.335 236.648 C 59.911 233.713 59.339 230.815 59.064 230.214 C 58.261 228.455 56.599 227.522 53.946 227.345 C 53.53 227.316 53.114 227.301 52.697 227.3 L 52.697 227.3 Z  M 52.787 227.93 C 53.118 227.926 53.491 227.94 53.946 227.964 C 57.93 228.173 58.684 229.272 59.728 236.355 C 60.133 239.104 60.467 241.646 60.47 242.014 C 60.475 242.49 59.921 243.054 58.524 243.993 C 56.467 245.376 53.812 247.898 52.517 249.685 L 51.741 250.743 L 51.595 248.256 C 51.51 246.89 51.51 243.701 51.595 241.17 C 51.771 235.939 51.634 235.422 49.919 234.848 C 48.519 234.379 46.691 233.875 47.231 233.554 C 47.82 233.204 48.365 233.454 49.862 233.082 C 50.393 232.95 50.364 232.973 50.279 232.519 C 50.125 231.703 49.328 231.329 47.073 231.451 C 45.302 231.547 45.075 231.5 45.195 231.024 C 45.437 230.059 46.44 229.426 47.928 229.28 C 48.729 229.201 49.898 228.846 50.538 228.492 C 51.245 228.101 51.795 227.942 52.787 227.93 L 52.787 227.93 Z  M 61.708 243.453 C 61.792 243.452 61.87 243.453 61.944 243.465 C 62.965 243.625 92.417 266.652 92.417 267.29 C 92.417 267.542 92.181 267.744 91.888 267.74 C 91.595 267.735 84.099 265.612 75.24 263.026 C 61.082 258.894 59.046 258.219 58.434 257.481 C 57.566 256.431 57.537 254.828 58.356 253.746 C 58.69 253.304 58.963 252.76 58.963 252.531 C 58.963 251.831 57.462 253.615 57.174 254.657 C 56.838 255.874 57.464 257.912 58.378 258.572 C 58.739 258.832 61.438 259.76 64.374 260.63 C 69.384 262.115 69.721 262.275 69.987 263.105 C 70.625 265.097 68.521 267.408 65.476 268.065 C 64.494 268.277 63.245 268.855 62.383 269.505 C 58.954 272.089 56.566 273.615 54.565 274.477 C 53.388 274.984 52.251 275.557 52.045 275.76 C 51.839 275.962 51.539 276.884 51.37 277.807 C 51.012 279.767 50.861 280.068 50.279 280.068 C 49.942 280.068 49.912 279.892 50.144 279.258 C 50.572 278.089 50.525 276.592 50.054 276.592 C 49.805 276.592 49.649 277.009 49.649 277.706 C 49.649 278.314 49.477 278.985 49.255 279.202 C 48.922 279.529 48.879 279.287 49.019 277.784 C 49.112 276.785 49.071 275.962 48.929 275.962 C 48.656 275.962 48.12 277.477 47.928 278.808 C 47.815 279.588 47.809 279.582 47.557 278.662 C 47.36 277.943 47.456 277.461 47.962 276.547 C 48.323 275.895 48.626 274.947 48.626 274.432 C 48.626 273.657 49.197 272.908 52 270.068 C 53.861 268.183 56.028 265.843 56.814 264.871 C 58.176 263.188 58.247 263.01 58.198 261.305 C 58.17 260.32 58.056 259.435 57.95 259.325 C 57.595 258.956 57.122 260.86 57.31 261.901 C 57.479 262.842 57.304 263.163 55.341 265.478 C 54.156 266.876 52.143 268.983 50.875 270.169 C 48.539 272.354 47.703 273.534 47.703 274.646 C 47.703 274.984 47.441 275.876 47.118 276.626 C 46.795 277.376 46.616 278.143 46.713 278.324 C 46.821 278.528 46.744 278.514 46.522 278.302 C 46.258 278.05 46.237 277.585 46.454 276.581 C 46.618 275.824 46.686 275.092 46.601 274.95 C 46.274 274.401 45.892 275.106 45.701 276.603 C 45.591 277.462 45.386 278.092 45.24 277.998 C 44.8 277.716 44.939 276.152 45.476 275.355 C 45.753 274.944 46.098 273.965 46.241 273.173 C 46.64 270.95 47.595 269.186 49.716 266.783 C 50.786 265.572 51.663 264.536 51.663 264.477 C 51.663 264.418 51.377 263.524 51.033 262.497 C 50.235 260.123 50.182 256.507 50.909 254.308 C 51.675 251.992 53.252 249.698 55.746 247.278 C 58.159 244.936 60.452 243.474 61.708 243.453 Z  M 70.718 262.756 C 70.867 262.741 71.018 262.769 71.132 262.834 C 71.247 262.899 71.313 262.993 71.314 263.094 C 71.282 263.266 71.062 263.395 70.802 263.395 C 70.542 263.395 70.323 263.266 70.29 263.094 C 70.291 262.927 70.472 262.785 70.718 262.756 Z  M 72.203 262.947 C 72.207 262.947 72.21 262.947 72.214 262.947 C 72.367 262.929 72.525 262.957 72.642 263.025 C 72.76 263.093 72.826 263.192 72.822 263.296 C 72.822 263.487 72.59 263.641 72.304 263.641 C 72.018 263.641 71.786 263.487 71.786 263.296 C 71.778 263.127 71.955 262.98 72.203 262.947 Z  M 73.778 263.24 C 73.796 263.239 73.815 263.239 73.834 263.24 C 73.978 263.233 74.119 263.267 74.224 263.334 C 74.329 263.4 74.387 263.492 74.385 263.588 C 74.352 263.76 74.133 263.889 73.873 263.889 C 73.614 263.889 73.395 263.76 73.361 263.588 C 73.353 263.42 73.53 263.273 73.777 263.24 L 73.778 263.24 Z  M 75.195 263.532 C 75.218 263.531 75.24 263.531 75.263 263.532 C 75.407 263.525 75.549 263.56 75.653 263.626 C 75.758 263.692 75.816 263.785 75.814 263.881 C 75.806 264.068 75.576 264.217 75.296 264.217 C 75.016 264.217 74.787 264.068 74.779 263.881 C 74.771 263.713 74.947 263.565 75.195 263.532 L 75.195 263.532 Z  M 71.415 263.881 C 71.419 263.881 71.423 263.881 71.426 263.881 C 71.58 263.863 71.737 263.891 71.855 263.959 C 71.973 264.026 72.039 264.126 72.034 264.23 C 72.034 264.42 71.803 264.575 71.517 264.575 C 71.231 264.575 70.999 264.42 70.999 264.23 C 70.991 264.061 71.167 263.914 71.415 263.881 Z  M 72.9 264.128 C 73.051 264.11 73.205 264.137 73.322 264.203 C 73.439 264.268 73.507 264.364 73.508 264.466 C 73.508 264.657 73.276 264.811 72.99 264.811 C 72.704 264.811 72.473 264.657 72.473 264.466 C 72.474 264.299 72.654 264.157 72.9 264.128 L 72.9 264.128 Z  M 76.016 264.252 C 76.166 264.234 76.321 264.261 76.438 264.326 C 76.555 264.391 76.623 264.488 76.624 264.589 C 76.624 264.78 76.392 264.935 76.106 264.935 C 75.821 264.935 75.589 264.78 75.589 264.589 C 75.59 264.423 75.77 264.281 76.016 264.252 L 76.016 264.252 Z  M 74.374 264.275 C 74.524 264.257 74.678 264.284 74.796 264.349 C 74.913 264.414 74.981 264.511 74.981 264.612 C 74.974 264.799 74.744 264.948 74.464 264.948 C 74.184 264.948 73.954 264.799 73.947 264.612 C 73.948 264.446 74.128 264.303 74.374 264.275 L 74.374 264.275 Z  M 77.411 264.623 C 77.457 264.556 79.616 265.105 82.203 265.849 L 86.905 267.199 L 85.994 268.819 C 85.493 269.707 84.86 270.898 84.588 271.463 C 84.036 272.61 83.84 272.63 81.011 271.98 C 77.882 271.262 72.936 270.579 67.906 270.169 L 63.069 269.775 L 64.891 269.089 C 65.895 268.709 67.338 268.057 68.097 267.638 C 69.288 266.981 69.768 266.896 71.595 267.031 C 74.308 267.23 76.136 266.73 76.815 265.602 C 77.01 265.274 77.209 264.948 77.411 264.623 L 77.411 264.623 Z  M 72.102 264.961 C 72.105 264.961 72.109 264.961 72.113 264.961 C 72.266 264.943 72.423 264.971 72.541 265.039 C 72.659 265.106 72.725 265.206 72.72 265.309 C 72.72 265.5 72.489 265.655 72.203 265.655 C 71.917 265.655 71.685 265.5 71.685 265.309 C 71.677 265.141 71.854 264.993 72.102 264.961 Z  M 75.488 264.961 C 75.491 264.961 75.495 264.961 75.499 264.961 C 75.652 264.943 75.809 264.971 75.927 265.039 C 76.045 265.106 76.111 265.206 76.106 265.309 C 76.106 265.5 75.875 265.655 75.589 265.655 C 75.303 265.655 75.071 265.5 75.071 265.309 C 75.063 265.141 75.239 264.994 75.487 264.961 L 75.488 264.961 Z  M 70.628 265.006 C 70.651 265.005 70.673 265.005 70.695 265.006 C 70.84 264.999 70.981 265.033 71.086 265.099 C 71.191 265.166 71.249 265.258 71.247 265.355 C 71.247 265.545 71.015 265.7 70.729 265.7 C 70.444 265.7 70.212 265.545 70.212 265.355 C 70.204 265.186 70.38 265.038 70.628 265.006 L 70.628 265.006 Z  M 73.834 265.062 C 73.984 265.044 74.139 265.071 74.256 265.136 C 74.373 265.201 74.441 265.298 74.441 265.4 C 74.434 265.587 74.204 265.735 73.924 265.735 C 73.644 265.735 73.414 265.587 73.407 265.4 C 73.408 265.233 73.588 265.091 73.834 265.062 L 73.834 265.062 Z  M 69.897 265.771 C 69.901 265.771 69.905 265.771 69.908 265.771 C 70.06 265.755 70.214 265.785 70.329 265.852 C 70.444 265.92 70.508 266.018 70.504 266.12 C 70.472 266.292 70.252 266.421 69.992 266.421 C 69.732 266.421 69.513 266.292 69.48 266.12 C 69.472 265.951 69.648 265.803 69.897 265.771 L 69.897 265.771 Z  M 71.37 265.793 C 71.389 265.793 71.408 265.793 71.426 265.793 C 71.571 265.787 71.712 265.821 71.817 265.887 C 71.922 265.953 71.98 266.046 71.978 266.142 C 71.946 266.314 71.726 266.443 71.466 266.443 C 71.206 266.443 70.986 266.314 70.954 266.142 C 70.946 265.974 71.122 265.826 71.37 265.793 L 71.37 265.793 Z  M 72.945 265.849 C 73.095 265.831 73.25 265.858 73.367 265.923 C 73.485 265.989 73.553 266.085 73.553 266.187 C 73.553 266.378 73.321 266.532 73.036 266.532 C 72.75 266.532 72.518 266.378 72.518 266.187 C 72.519 266.02 72.699 265.878 72.945 265.85 L 72.945 265.849 Z  M 74.61 265.895 C 74.614 265.894 74.618 265.894 74.621 265.895 C 74.773 265.879 74.927 265.908 75.042 265.976 C 75.157 266.043 75.221 266.141 75.217 266.243 C 75.184 266.415 74.965 266.543 74.706 266.543 C 74.446 266.543 74.227 266.415 74.194 266.243 C 74.185 266.075 74.362 265.927 74.61 265.895 L 74.61 265.895 Z  M 62.427 270.743 C 64.486 270.677 71.672 271.198 75.082 271.71 C 78.084 272.161 83.342 273.137 83.519 273.274 C 83.563 273.308 83.113 274.747 82.507 276.469 C 81.901 278.19 81.348 279.797 81.281 280.034 C 81.189 280.357 80.819 280.408 79.796 280.248 C 74.798 279.469 60.396 279.539 54.857 280.372 C 51.708 280.845 51.245 280.81 51.516 280.147 C 51.64 279.843 51.904 278.89 52.101 278.021 L 52.461 276.435 L 55.802 274.702 C 57.638 273.746 59.685 272.527 60.346 271.991 C 61.008 271.456 61.699 270.924 61.888 270.81 C 61.947 270.775 62.133 270.752 62.428 270.743 L 62.427 270.743 Z  M 46.252 279.281 C 46.402 279.281 46.777 279.453 47.208 279.731 C 47.771 280.093 48.491 280.391 48.805 280.395 C 50.372 280.413 51.234 282.621 52.563 290.034 C 52.716 290.894 52.878 291.753 53.046 292.61 C 53.168 293.211 52.997 293.346 51.651 293.645 C 49.951 294.024 49.536 294.052 49.536 293.825 C 49.536 293.189 47.845 285.594 47.107 282.914 C 46.604 281.089 46.184 279.482 46.184 279.337 C 46.184 279.319 46.193 279.3 46.207 279.292 C 46.22 279.284 46.236 279.28 46.252 279.281 L 46.252 279.281 Z  M 63.418 280.394 L 65.139 280.394 L 64.565 281.046 C 63.546 282.217 63.059 282.328 62.349 281.542 C 61.991 281.146 61.696 280.727 61.696 280.608 C 61.696 280.489 62.471 280.394 63.418 280.394 Z  M 67.062 280.394 L 70.324 280.394 L 69.604 281.182 C 68.722 282.158 68.664 282.158 67.782 281.182 L 67.062 280.394 Z  M 71.989 280.394 L 72.743 280.394 C 73.153 280.394 73.906 280.479 74.419 280.585 L 75.352 280.776 L 74.487 281.53 C 74.012 281.945 73.579 282.282 73.519 282.273 C 73.459 282.263 73.087 281.829 72.698 281.317 L 71.989 280.394 Z  M 77.062 280.619 L 77.816 280.81 C 78.234 280.92 79.127 281.021 79.796 281.024 L 81.011 281.024 L 80.1 281.8 C 79.598 282.228 79.114 282.581 79.02 282.588 C 78.925 282.594 78.442 282.156 77.951 281.609 L 77.062 280.619 Z  M 58.94 280.72 C 59.028 280.723 59.083 280.727 59.098 280.743 C 59.16 280.807 58.905 281.239 58.524 281.699 L 57.827 282.531 L 56.95 281.812 L 56.072 281.08 L 57.534 280.855 C 58.136 280.762 58.678 280.713 58.941 280.72 L 58.94 280.72 Z  M 60.324 280.81 C 60.324 280.78 60.761 281.162 61.292 281.654 L 62.259 282.554 L 60.47 282.655 L 58.682 282.756 L 59.503 281.812 C 59.955 281.291 60.324 280.84 60.324 280.81 Z  M 71.191 280.81 C 71.318 280.819 71.442 280.892 71.595 281.024 C 71.86 281.253 72.207 281.707 72.372 282.025 C 72.629 282.525 72.551 282.592 71.82 282.565 C 71.354 282.548 70.657 282.443 70.268 282.329 L 69.559 282.126 L 70.335 281.373 C 70.745 280.973 70.977 280.796 71.191 280.81 L 71.191 280.81 Z  M 66.151 280.822 C 66.487 280.775 66.749 281.026 67.107 281.586 C 67.545 282.272 67.53 282.282 65.915 282.273 L 64.284 282.262 L 65.15 281.474 C 65.579 281.082 65.889 280.858 66.151 280.822 L 66.151 280.822 Z  M 76.331 280.934 L 77.073 281.665 C 77.887 282.46 78.031 282.944 77.433 282.857 C 77.224 282.827 76.47 282.755 75.758 282.689 L 74.464 282.565 L 75.398 281.755 L 76.331 280.934 Z  M 55.251 281.339 C 55.391 281.339 55.826 281.683 56.207 282.104 L 56.893 282.869 L 55.42 283.071 C 54.608 283.181 53.673 283.327 53.339 283.397 C 52.887 283.492 53.023 283.241 53.867 282.43 C 54.492 281.83 55.11 281.339 55.251 281.339 L 55.251 281.339 Z  M 53.001 281.384 C 53.101 281.382 53.193 281.394 53.271 281.406 C 53.77 281.488 53.722 281.615 52.911 282.419 L 51.977 283.341 L 51.707 282.576 C 51.482 281.949 51.547 281.77 52.067 281.564 C 52.328 281.461 52.701 281.389 53.001 281.384 L 53.001 281.384 Z  M 80.572 282.442 C 80.716 282.433 80.747 282.549 80.662 282.779 C 80.477 283.279 79.942 283.402 79.942 282.947 C 79.942 282.792 80.15 282.594 80.392 282.498 C 80.465 282.468 80.524 282.444 80.572 282.442 L 80.572 282.442 Z  M 67.782 283.397 C 72.382 283.397 77.069 283.512 78.199 283.656 C 80.098 283.899 80.246 283.972 80.246 284.68 C 80.246 285.523 79.989 285.564 77.512 285.119 C 76.759 284.984 73.741 284.696 70.797 284.478 C 65.687 284.098 59.353 284.303 53.71 285.029 C 52.545 285.178 52.27 285.121 52.27 284.736 C 52.27 283.921 58.37 283.398 67.782 283.398 L 67.782 283.397 Z  M 61.595 285.13 L 64.846 285.13 L 64.126 285.918 C 63.244 286.893 63.186 286.893 62.304 285.918 L 61.595 285.13 Z  M 65.769 285.13 L 66.623 285.974 C 67.093 286.441 67.479 286.875 67.479 286.93 C 67.479 286.984 66.697 287.031 65.746 287.031 L 64.014 287.031 L 64.891 286.075 L 65.769 285.13 Z  M 67.062 285.13 L 70.324 285.13 L 69.604 285.918 C 68.722 286.893 68.664 286.893 67.782 285.918 L 67.062 285.13 Z  M 59.368 285.175 C 59.511 285.184 59.382 285.424 58.952 286.03 C 58.56 286.58 58.147 287.031 58.041 287.031 C 57.934 287.031 57.534 286.667 57.141 286.232 L 56.421 285.445 L 57.512 285.445 C 58.113 285.445 58.842 285.347 59.132 285.231 C 59.238 285.189 59.321 285.172 59.368 285.175 L 59.368 285.175 Z  M 60.594 285.445 L 61.37 286.154 C 61.799 286.545 62.194 286.892 62.247 286.919 C 62.301 286.945 61.596 287.016 60.673 287.076 L 58.985 287.189 L 59.795 286.311 L 60.594 285.445 Z  M 71.011 285.445 L 71.888 286.401 C 72.844 287.438 72.748 287.483 70.572 287.065 L 69.548 286.873 L 70.279 286.154 L 71.011 285.445 Z  M 72.236 285.445 L 73.654 285.445 C 75.19 285.445 75.388 285.686 74.52 286.502 C 73.807 287.173 73.803 287.169 72.956 286.232 L 72.236 285.445 Z  M 53.867 285.771 C 54.559 285.765 54.538 285.83 53.642 286.705 C 52.956 287.375 52.873 287.39 52.687 286.885 C 52.463 286.28 52.998 285.779 53.867 285.771 Z  M 77.141 285.861 C 77.375 285.859 77.854 285.912 78.39 286.008 L 79.694 286.232 L 78.941 286.963 L 78.199 287.695 L 77.546 286.84 C 77.189 286.368 76.94 285.94 76.995 285.884 C 77.009 285.87 77.063 285.862 77.141 285.861 L 77.141 285.861 Z  M 55.566 286.142 C 55.75 286.111 55.914 286.261 56.23 286.558 C 56.832 287.126 56.84 287.178 56.32 287.391 C 56.016 287.515 55.355 287.626 54.857 287.639 L 53.957 287.661 L 54.778 286.806 C 55.182 286.386 55.381 286.174 55.566 286.142 L 55.566 286.142 Z  M 76.016 286.311 C 76.228 286.299 76.395 286.48 76.691 286.896 L 77.242 287.661 L 75.982 287.661 C 75.162 287.661 74.769 287.53 74.847 287.29 C 74.911 287.087 75.23 286.745 75.555 286.525 C 75.747 286.395 75.889 286.318 76.016 286.311 L 76.016 286.311 Z  M 79.864 287.121 C 79.93 287.136 79.942 287.246 79.942 287.447 C 79.942 288.037 79.451 288.424 79.211 288.021 C 79.118 287.864 79.243 287.561 79.492 287.346 C 79.676 287.187 79.796 287.106 79.863 287.121 L 79.864 287.121 Z  M 64.306 287.841 C 69.508 287.835 75.293 288.181 78.648 288.808 L 79.638 289 L 79.638 291.643 C 79.638 293.577 79.544 294.285 79.267 294.253 C 79.058 294.229 77.719 293.954 76.298 293.634 C 72.007 292.67 67.157 292.296 61.696 292.52 C 58.937 292.634 56.049 292.841 55.273 292.982 L 53.856 293.24 L 53.507 291.035 C 53.315 289.826 53.206 288.796 53.26 288.741 C 53.313 288.685 54.647 288.46 56.23 288.246 C 58.268 287.971 61.185 287.845 64.306 287.841 Z " fill="rgb(0,0,0)"/><path d=" M 74.779 272.801 C 73 272.801 71.73 274.114 71.73 275.962 C 71.73 278.842 74.968 280.237 76.927 278.201 C 78.886 276.164 77.55 272.801 74.779 272.801 Z  M 74.768 273.544 C 76.082 273.492 77.209 274.514 77.209 275.996 C 77.209 277.73 75.202 278.939 73.654 278.133 C 71.999 277.271 72.122 274.499 73.845 273.758 C 74.137 273.63 74.45 273.557 74.768 273.544 L 74.768 273.544 Z " fill="rgb(0,0,0)"/><path d=" M 66.754 272.561 C 64.975 272.561 63.705 273.874 63.705 275.722 C 63.705 278.602 66.943 279.997 68.902 277.961 C 70.861 275.924 69.525 272.561 66.754 272.561 Z  M 66.743 273.304 C 68.056 273.252 69.184 274.274 69.184 275.756 C 69.184 277.49 67.177 278.7 65.629 277.893 C 63.974 277.031 64.097 274.259 65.82 273.518 C 66.112 273.39 66.424 273.317 66.743 273.304 L 66.743 273.304 Z " fill="rgb(0,0,0)"/><path d=" M 52.731 229.313 C 52.191 229.355 51.774 229.816 51.775 230.371 C 51.775 230.956 52.239 231.43 52.81 231.43 C 53.382 231.43 53.845 230.956 53.845 230.371 C 53.845 230.075 53.726 229.793 53.514 229.592 C 53.303 229.392 53.019 229.29 52.731 229.313 L 52.731 229.313 Z  M 52.799 229.685 C 53.175 229.696 53.474 230 53.474 230.371 C 53.48 230.62 53.348 230.854 53.13 230.98 C 52.912 231.107 52.641 231.107 52.423 230.98 C 52.205 230.854 52.073 230.62 52.079 230.371 C 52.079 230.185 52.155 230.007 52.291 229.877 C 52.427 229.748 52.61 229.678 52.799 229.685 L 52.799 229.685 Z " fill="rgb(0,0,0)"/></g></g></svg>